<svg width="55" height="39" viewBox="0 0 55 39" fill="none" xmlns="http://www.w3.org/2000/svg">
<path fill-rule="evenodd" clip-rule="evenodd" d="M31.6851 0.886477C31.1852 1.42443 30.7172 1.94339 30.6448 2.0397C30.5287 2.19444 31.6053 3.13298 39.8529 10.0659L49.1926 17.9169L24.5963 17.9426L0 17.9684L0 19.5L0 21.0316L24.5963 21.0574L49.1926 21.0831L39.8529 28.9341C31.6053 35.867 30.5287 36.8056 30.6448 36.9603C30.7172 37.0566 31.1852 37.5756 31.6851 38.1135C32.5676 39.0636 32.6001 39.0867 32.8177 38.9221C32.941 38.829 37.9824 34.5988 44.0209 29.5217L55 20.2906V19.5V18.7094L44.0209 9.47833C37.9824 4.40121 32.941 0.171009 32.8177 0.0778599C32.6001 -0.0866826 32.5676 -0.0635997 31.6851 0.886477Z" fill="#000"/>
</svg>
