<svg width="258" height="71" viewBox="0 0 258 71" fill="none" xmlns="http://www.w3.org/2000/svg">
<g clip-path="url(#clip0_671_1529)">
<path d="M83.8589 27.4592C83.8815 28.3759 83.716 29.2876 83.3724 30.139C83.0288 30.9903 82.5144 31.7634 81.8603 32.4113C81.2063 33.0592 80.4263 33.5684 79.5678 33.908C78.7092 34.2475 77.7901 34.4104 76.8661 34.3865C75.7237 34.4053 74.5958 34.1313 73.5913 33.5911C72.5868 33.0509 71.7397 32.2628 71.1318 31.3029L73.7801 29.7828C74.1028 30.3071 74.5614 30.7358 75.1081 31.0242C75.6548 31.3126 76.2695 31.4501 76.888 31.4223C77.7019 31.4699 78.5085 31.247 79.1804 30.7889C79.8522 30.3307 80.351 29.6634 80.5978 28.8924H75.1262V26.0585H80.5978C80.351 25.2876 79.8522 24.6202 79.1804 24.1621C78.5085 23.7039 77.7019 23.481 76.888 23.5286C76.2697 23.502 75.6554 23.6399 75.1089 23.9282C74.5624 24.2165 74.1036 24.6446 73.7801 25.1681L71.1318 23.6155C71.7447 22.6553 72.596 21.8675 73.6039 21.3275C74.6118 20.7875 75.7427 20.5136 76.888 20.5318C77.8101 20.511 78.7269 20.676 79.5829 21.0169C80.4388 21.3578 81.2162 21.8675 81.8679 22.5151C82.5196 23.1627 83.032 23.9348 83.3743 24.7846C83.7165 25.6344 83.8814 26.5443 83.8589 27.4592Z" fill="#FF7833"/>
<path d="M93.8283 23.7248H90.3811V34.1267H87.306V23.7248H83.8589V20.7931H93.8283V23.7248Z" fill="#FF7833"/>
<path d="M102.09 32.0311H97.1002L96.4217 34.1267H93.0183L97.5926 20.7931H101.499L106.15 34.1267H102.758L102.09 32.0311ZM101.16 29.1754L99.5843 24.2785L98.0085 29.1754H101.16Z" fill="#FF7833"/>
<path d="M106.501 31.271C107.879 31.4773 108.689 31.0539 108.689 28.828V20.7931H117.98V34.1267H114.905V23.7248H111.753V28.7194C111.753 33.4752 108.93 34.3872 106.457 34.1484L106.501 31.271Z" fill="#FF7833"/>
<path d="M119.742 27.4593C119.74 26.0861 120.148 24.7432 120.916 23.6005C121.683 22.4579 122.775 21.5669 124.054 21.0404C125.332 20.5139 126.739 20.3756 128.096 20.643C129.454 20.9103 130.701 21.5714 131.679 22.5424C132.658 23.5133 133.324 24.7506 133.594 26.0975C133.863 27.4444 133.724 28.8403 133.193 30.1086C132.662 31.3768 131.764 32.4603 130.613 33.2218C129.461 33.9834 128.108 34.3888 126.724 34.3866C125.805 34.3939 124.894 34.2196 124.043 33.874C123.193 33.5285 122.42 33.0185 121.771 32.3738C121.121 31.7291 120.607 30.9625 120.259 30.1188C119.91 29.275 119.735 28.371 119.742 27.4593ZM130.685 27.4593C130.713 26.9322 130.633 26.4051 130.449 25.9099C130.265 25.4146 129.982 24.9618 129.615 24.5789C129.249 24.196 128.809 23.891 128.32 23.6826C127.831 23.4742 127.305 23.3668 126.773 23.3668C126.241 23.3668 125.715 23.4742 125.226 23.6826C124.737 23.891 124.297 24.196 123.931 24.5789C123.564 24.9618 123.281 25.4146 123.097 25.9099C122.913 26.4051 122.833 26.9322 122.861 27.4593C122.833 27.9863 122.913 28.5135 123.097 29.0087C123.281 29.5039 123.564 29.9567 123.931 30.3397C124.297 30.7226 124.737 31.0275 125.226 31.2359C125.715 31.4443 126.241 31.5518 126.773 31.5518C127.305 31.5518 127.831 31.4443 128.32 31.2359C128.809 31.0275 129.249 30.7226 129.615 30.3397C129.982 29.9567 130.265 29.5039 130.449 29.0087C130.633 28.5135 130.713 27.9863 130.685 27.4593Z" fill="#FF7833"/>
<path d="M145.809 20.7931V34.1267H142.734V28.828H138.51V34.1267H135.446V20.7931H138.51V25.8963H142.734V20.7931H145.809Z" fill="#FF7833"/>
<path d="M160.276 34.1267L155.975 27.9594V34.1267H152.9V20.7931H155.975V26.5804L160.079 20.7931H163.57L159.05 27.3079L163.767 34.1484L160.276 34.1267Z" fill="#FF7833"/>
<path d="M163.187 27.4593C163.185 26.0866 163.593 24.7441 164.36 23.6017C165.127 22.4592 166.219 21.5683 167.496 21.0415C168.774 20.5147 170.18 20.3757 171.537 20.6422C172.894 20.9087 174.141 21.5686 175.121 22.5385C176.1 23.5084 176.767 24.7447 177.037 26.0908C177.308 27.437 177.17 28.8326 176.641 30.101C176.112 31.3695 175.216 32.4537 174.066 33.2166C172.916 33.9794 171.563 34.3866 170.18 34.3866C169.26 34.3953 168.348 34.2221 167.496 33.8772C166.644 33.5323 165.87 33.0225 165.22 32.3777C164.569 31.7328 164.054 30.9658 163.705 30.1213C163.356 29.2769 163.18 28.3719 163.187 27.4593ZM174.13 27.4593C174.13 26.4283 173.718 25.4396 172.983 24.7107C172.248 23.9817 171.252 23.5721 170.213 23.5721C169.174 23.5721 168.177 23.9817 167.442 24.7107C166.708 25.4396 166.295 26.4283 166.295 27.4593C166.295 28.4902 166.708 29.4789 167.442 30.2079C168.177 30.9369 169.174 31.3464 170.213 31.3464C171.252 31.3464 172.248 30.9369 172.983 30.2079C173.718 29.4789 174.13 28.4902 174.13 27.4593Z" fill="#FF7833"/>
<path d="M192.329 34.1267H189.254V26.3741L185.785 32.0311H185.435L181.966 26.3741V34.1267H178.891V20.7931H181.966L185.61 26.7216L189.254 20.7931H192.329V34.1267Z" fill="#FF7833"/>
<path d="M202.878 32.9423V34.5059H199.891V32.9423C196.236 32.508 193.861 30.4885 193.861 27.4591C193.861 24.4297 196.236 22.4102 199.891 21.9758V20.4123H202.878V21.9758C206.523 22.4102 208.908 24.4297 208.908 27.4591C208.908 30.4885 206.523 32.508 202.878 32.9423ZM199.891 30.141V24.7772C197.888 25.0378 196.925 25.939 196.925 27.4591C196.925 28.9792 197.888 29.8804 199.891 30.141ZM205.833 27.4591C205.833 25.939 204.87 25.0378 202.878 24.7772V30.141C204.87 29.8804 205.833 28.9792 205.833 27.4591Z" fill="#FF7833"/>
<path d="M209.86 27.4593C209.858 26.0866 210.266 24.7441 211.033 23.6017C211.801 22.4592 212.892 21.5683 214.169 21.0415C215.447 20.5147 216.853 20.3757 218.211 20.6422C219.568 20.9087 220.815 21.5686 221.794 22.5385C222.773 23.5084 223.44 24.7447 223.711 26.0908C223.981 27.437 223.844 28.8326 223.315 30.101C222.786 31.3695 221.889 32.4537 220.739 33.2166C219.589 33.9794 218.237 34.3866 216.853 34.3866C215.933 34.3953 215.021 34.2221 214.169 33.8772C213.318 33.5323 212.544 33.0225 211.893 32.3777C211.242 31.7328 210.727 30.9658 210.378 30.1213C210.029 29.2769 209.853 28.3719 209.86 27.4593ZM220.804 27.4593C220.804 26.4283 220.391 25.4396 219.656 24.7107C218.921 23.9817 217.925 23.5721 216.886 23.5721C215.847 23.5721 214.85 23.9817 214.116 24.7107C213.381 25.4396 212.968 26.4283 212.968 27.4593C212.968 28.4902 213.381 29.4789 214.116 30.2079C214.85 30.9369 215.847 31.3464 216.886 31.3464C217.925 31.3464 218.921 30.9369 219.656 30.2079C220.391 29.4789 220.804 28.4902 220.804 27.4593Z" fill="#FF7833"/>
<path d="M235.347 25.3649C235.346 25.9722 235.223 26.5731 234.986 27.1328C234.748 27.6925 234.401 28.1997 233.964 28.6251C233.527 29.0504 233.009 29.3853 232.441 29.6104C231.873 29.8355 231.265 29.9462 230.653 29.9361H228.639V34.1273H225.564V20.7938H230.653C231.265 20.7837 231.873 20.8944 232.441 21.1195C233.009 21.3445 233.527 21.6795 233.964 22.1048C234.401 22.5302 234.748 23.0374 234.986 23.5971C235.223 24.1568 235.346 24.7577 235.347 25.3649ZM232.283 25.3649C232.295 25.1448 232.262 24.9245 232.185 24.7175C232.109 24.5105 231.991 24.321 231.838 24.1606C231.686 24.0002 231.502 23.8722 231.298 23.7843C231.095 23.6965 230.875 23.6505 230.653 23.6494H228.639V27.0805H230.653C230.875 27.0793 231.095 27.0334 231.298 26.9455C231.502 26.8577 231.686 26.7296 231.838 26.5692C231.991 26.4088 232.109 26.2194 232.185 26.0124C232.262 25.8054 232.295 25.5851 232.283 25.3649Z" fill="#FF7833"/>
<path d="M245.711 23.7248H242.263V34.1267H239.188V23.7248H235.73V20.7931H245.711V23.7248Z" fill="#FF7833"/>
<path d="M253.973 32.0311H248.983L248.304 34.1267H244.945L249.508 20.7931H253.415L257.989 34.1267H254.629L253.973 32.0311ZM253.043 29.1754L251.478 24.2785L249.902 29.1754H253.043Z" fill="#FF7833"/>
<path d="M31.0132 70.7833V35.4516L15.5393 44.3334L31.0132 70.7833Z" fill="#11372C"/>
<path d="M31.0134 35.2555V17.9914L0 17.7526L31.0134 35.2555Z" fill="#1D5645"/>
<path d="M0 17.7526L15.5395 44.3328L31.0134 35.451V35.2555L0 17.7526Z" fill="#154434"/>
<path d="M0 53.2471L15.5395 44.3328L0 17.7526" fill="#166046"/>
<path d="M0.218867 53.1173L0 53.2476L30.9368 70.9677L31.0134 70.8374V70.7831L15.5395 44.3332L0.207923 53.139" fill="#05442F"/>
<path d="M31.0134 0.0108579L30.9806 0L0 17.7527L31.0134 17.9916V0.0108579Z" fill="#05442F"/>
<path d="M30.9369 70.9669L30.9803 70.9992L31.0128 70.9777V70.8374L30.9369 70.9669Z" fill="#0F3228"/>
<path d="M61.9063 17.7091L31.0133 0.0107117V17.9914H61.4139L61.9063 17.7091Z" fill="#0F382D"/>
<path d="M31.0133 70.8374L46.6185 44.1378L31.1775 35.3537L31.0133 35.4514V70.8374Z" fill="#0D261F"/>
<path d="M61.9721 17.8509V17.7531L61.9065 17.7097L61.414 17.992H61.8189H61.414L31.1776 35.3539L46.6187 44.1379L61.9721 17.8509Z" fill="#11372C"/>
<path d="M31.1761 35.3529L31.0133 35.2558V35.45L31.1761 35.3529Z" fill="#0F3228"/>
<path d="M61.4139 17.9911H31.0133V35.2553L31.1775 35.353L61.4139 17.9911Z" fill="#154434"/>
<path d="M61.9722 17.8504L46.6187 44.1375L61.9722 52.8673V17.8504Z" fill="#05442F"/>
<path d="M46.6185 44.1374L31.0133 70.8371V70.9782L61.972 53.2472V52.8672L46.6185 44.1374Z" fill="#0F382D"/>
<path d="M46.8921 26.255L31.0133 17.1561L15.1345 26.2442L21.1424 29.7187V29.697L31.0133 24.0509L40.8732 29.697V29.7295H46.8921V26.255Z" fill="#FF7833"/>
<path d="M40.8732 32.5853V41.0002L31.0133 46.6572L21.1424 41.0002V40.9894L15.1345 44.453L31.0133 53.552L46.8921 44.453V32.5853H40.8732Z" fill="#FF7833"/>
<path d="M40.8734 32.5853H33.9135V38.3075H40.8734V32.5853Z" fill="#FF7833"/>
<path d="M44.8458 19.7286H37.8859V25.4508H44.8458V19.7286Z" fill="#FF7833"/>
<path d="M71.4272 48.3291H72.1166C72.3902 47.9925 73.0796 46.581 73.2109 43.6602L73.3204 42.3464H76.9645V48.2965H77.84V50.0012H77.3584V48.8612H71.8868V50.0881H71.4053L71.4272 48.3291ZM72.6856 48.3291H76.4502V42.9002H73.8019L73.7253 44.0728C73.7349 45.5546 73.3779 47.0161 72.6856 48.3291Z" fill="#05442F"/>
<path d="M80.2036 42.3464H83.7821V42.8242H80.707V45.278H83.5085V45.7558H80.707V48.2966H83.8696V48.8612H80.2036V42.3464Z" fill="#05442F"/>
<path d="M90.6871 42.8567H87.9622L87.8528 44.062C87.4807 48.4051 86.5943 48.8829 85.7736 48.8069V48.2966C86.2113 48.2966 87.0758 48.0902 87.3932 43.6602L87.4807 42.3464H91.1905V48.8612H90.6871V42.8567Z" fill="#05442F"/>
<path d="M96.3013 42.3464H96.7171L99.5405 48.8612H98.9933L98.0522 46.6896H94.9005L93.9594 48.8612H93.4451L96.3013 42.3464ZM95.1085 46.1467H97.8005L96.4545 43.0196L95.1085 46.1467Z" fill="#05442F"/>
<path d="M101.773 42.3464H105.352V42.8242H102.255V45.278H105.056V45.7558H102.255V48.2966H105.428V48.8612H101.773V42.3464Z" fill="#05442F"/>
<path d="M108.098 42.3464H108.613L111.228 45.8752L113.734 42.3464H114.227V48.8612H113.723V43.215L111.228 46.6896H111.141L108.613 43.2476V48.8612H108.098V42.3464Z" fill="#05442F"/>
<path d="M131.046 42.8563H128.321L128.212 44.0615C127.84 48.4047 126.954 48.8824 126.133 48.8064V48.2961C126.571 48.2961 127.424 48.0898 127.741 43.6598L127.829 42.3785H131.55V48.8607H131.035L131.046 42.8563Z" fill="#05442F"/>
<path d="M134.603 42.3463H135.117V45.2562H136.792C136.812 44.847 136.913 44.4457 137.089 44.0753C137.266 43.7048 137.514 43.3725 137.82 43.0972C138.126 42.822 138.483 42.6092 138.872 42.471C139.261 42.3329 139.673 42.272 140.086 42.292C140.498 42.312 140.902 42.4123 141.276 42.5874C141.649 42.7624 141.984 43.0087 142.261 43.3122C142.539 43.6157 142.753 43.9704 142.893 44.3561C143.032 44.7419 143.093 45.151 143.073 45.5602C143.107 45.9832 143.054 46.4087 142.917 46.8107C142.78 47.2127 142.562 47.5828 142.277 47.8985C141.991 48.2143 141.643 48.469 141.255 48.6473C140.867 48.8255 140.447 48.9235 140.019 48.9353C139.592 48.9471 139.166 48.8725 138.769 48.7159C138.371 48.5594 138.01 48.3242 137.707 48.0247C137.404 47.7252 137.166 47.3677 137.006 46.9738C136.847 46.58 136.77 46.1582 136.781 45.734H135.15V48.8611H134.603V42.3463ZM139.889 48.3833C140.462 48.4336 141.037 48.3109 141.539 48.0312C142.041 47.7514 142.446 47.3278 142.701 46.8157C142.956 46.3037 143.049 45.7271 142.968 45.1616C142.887 44.5962 142.636 44.0682 142.247 43.6469C141.858 43.2256 141.35 42.9307 140.79 42.8008C140.229 42.6709 139.642 42.712 139.106 42.9189C138.569 43.1257 138.108 43.4886 137.783 43.96C137.458 44.4313 137.284 44.9891 137.284 45.5602C137.255 45.9224 137.302 46.2865 137.422 46.6299C137.541 46.9733 137.73 47.2887 137.977 47.5565C138.225 47.8243 138.525 48.0388 138.859 48.1867C139.194 48.3345 139.555 48.4125 139.921 48.4159L139.889 48.3833Z" fill="#05442F"/>
<path d="M144.386 48.3287H145.087C145.849 46.8915 146.226 45.2835 146.181 43.6598L146.247 42.3785H149.924V48.3287H150.81V50.0334H150.328V48.8607H144.857V50.0877H144.375L144.386 48.3287ZM145.645 48.3287H149.409V42.8997H146.761L146.641 44.0289C146.671 45.5217 146.329 46.9988 145.645 48.3287Z" fill="#05442F"/>
<path d="M153.206 42.3464H156.785V42.8242H153.71V45.278H156.489V45.7558H153.688V48.2966H156.861V48.8612H153.206V42.3464Z" fill="#05442F"/>
<path d="M159.51 48.8596V42.3449H160.013V47.9476L164.39 42.3449H164.839V48.8596H164.336V43.2027L159.958 48.8053L159.51 48.8596ZM161.042 41.0311C161.147 41.2401 161.312 41.4135 161.517 41.5294C161.721 41.6453 161.956 41.6986 162.191 41.6825C162.419 41.7012 162.647 41.6483 162.844 41.5315C163.04 41.4146 163.194 41.2396 163.285 41.0311H163.767C163.651 41.3546 163.43 41.6306 163.139 41.8155C162.848 42.0003 162.502 42.0835 162.158 42.0517C161.81 42.0866 161.461 42.0051 161.166 41.8201C160.87 41.6351 160.645 41.3574 160.528 41.0311H161.042Z" fill="#05442F"/>
<path d="M182.25 48.1768C181.692 48.655 180.974 48.9103 180.237 48.8934C179.354 48.9035 178.504 48.5654 177.873 47.9535C177.242 47.3416 176.882 46.506 176.872 45.6306C176.862 44.7552 177.202 43.9116 177.819 43.2854C178.436 42.6593 179.278 42.3019 180.16 42.2918C180.868 42.2579 181.566 42.4732 182.13 42.8998L181.889 43.2798C181.524 43.0395 181.107 42.8869 180.672 42.8341C180.237 42.7813 179.795 42.8297 179.382 42.9756C178.969 43.1215 178.596 43.3608 178.292 43.6746C177.989 43.9884 177.763 44.368 177.633 44.7833C177.503 45.1987 177.472 45.6384 177.543 46.0677C177.614 46.4969 177.784 46.9039 178.041 47.2563C178.298 47.6088 178.634 47.897 179.023 48.0983C179.412 48.2995 179.842 48.4082 180.281 48.4156C180.921 48.4213 181.544 48.2064 182.042 47.8076L182.25 48.1768Z" fill="#05442F"/>
<path d="M188.368 48.8612H187.853V45.8535C187.306 46.2062 186.667 46.3947 186.015 46.3964C185.744 46.4153 185.473 46.3739 185.221 46.2754C184.969 46.1768 184.742 46.0235 184.558 45.8268C184.373 45.63 184.235 45.3948 184.154 45.1382C184.073 44.8817 184.05 44.6104 184.089 44.3443V42.3464H184.592V44.2031C184.592 45.3758 185.227 45.8861 186.135 45.8861C186.748 45.8678 187.343 45.6797 187.853 45.3432V42.3464H188.368V48.8612Z" fill="#05442F"/>
<path d="M193.434 42.3464H193.85L196.673 48.8612H196.126L195.185 46.6896H192.066L191.125 48.8612H190.611L193.434 42.3464ZM192.274 46.1467H194.966L193.631 43.0196L192.274 46.1467Z" fill="#05442F"/>
<path d="M203.425 48.1757C202.873 48.656 202.157 48.9118 201.423 48.8923C200.548 48.901 199.705 48.5643 199.08 47.9565C198.455 47.3487 198.099 46.5195 198.091 45.6512C198.082 44.783 198.421 43.9469 199.034 43.3269C199.646 42.7068 200.482 42.3536 201.357 42.345C202.062 42.3127 202.756 42.528 203.316 42.953L203.075 43.3331C202.657 43.0314 202.162 42.8525 201.646 42.8168C201.13 42.7811 200.614 42.89 200.158 43.1312C199.701 43.3724 199.322 43.7361 199.064 44.1807C198.806 44.6253 198.679 45.133 198.698 45.6458C198.672 46.0149 198.724 46.3854 198.851 46.7332C198.979 47.081 199.178 47.3983 199.437 47.6646C199.696 47.9308 200.009 48.14 200.355 48.2786C200.701 48.4171 201.072 48.482 201.445 48.4689C202.088 48.4726 202.714 48.258 203.218 47.8608L203.425 48.1757Z" fill="#05442F"/>
<path d="M204.859 42.3464H210.167V42.8242H207.77V48.8612H207.256V42.8567H204.859V42.3464Z" fill="#05442F"/>
<path d="M215.967 42.8563H213.242L213.132 44.0615C212.76 48.4047 211.874 48.8824 211.053 48.8064V48.2961C211.48 48.2961 212.345 48.0898 212.662 43.6598L212.749 42.3785H216.459V48.8607H215.956L215.967 42.8563Z" fill="#05442F"/>
<path d="M219.556 48.8612V42.3464H220.059V47.9491L224.437 42.3464H224.885V48.8612H224.338V43.2042L219.961 48.8612H219.556Z" fill="#05442F"/>
<path d="M227.961 42.3464H229.657C231.211 42.3464 231.703 43.0413 231.703 43.9425C231.708 44.3002 231.584 44.6479 231.353 44.9227C231.123 45.1975 230.8 45.3813 230.445 45.4409C230.653 45.4331 230.86 45.4684 231.054 45.5445C231.247 45.6206 231.423 45.7358 231.569 45.8829C231.715 46.03 231.829 46.2057 231.903 46.3988C231.977 46.5919 232.01 46.7982 231.999 47.0045C231.999 48.2857 231.014 48.8286 229.69 48.8286C229.143 48.8286 228.377 48.8286 228.004 48.8286L227.961 42.3464ZM228.464 42.8242V45.2672H229.723C229.904 45.2883 230.089 45.2718 230.264 45.2187C230.439 45.1656 230.601 45.0771 230.74 44.9588C230.878 44.8404 230.991 44.6948 231.07 44.5311C231.149 44.3674 231.194 44.1892 231.2 44.0077C231.2 43.2259 230.707 42.7916 229.646 42.7916C229.241 42.8242 228.716 42.8459 228.464 42.8567V42.8242ZM228.464 45.7124V48.3183C228.727 48.3183 229.263 48.3183 229.668 48.3183C230.762 48.3183 231.452 47.8731 231.452 46.9502C231.452 46.0272 230.817 45.7124 229.701 45.7124H228.464Z" fill="#05442F"/>
<path d="M235.205 44.9089H236.179C237.821 44.9089 238.587 45.6472 238.587 46.8199C238.587 48.1554 237.624 48.872 236.059 48.872H234.691V42.3464H235.205V44.9089ZM235.205 45.3975V48.3183C235.49 48.3183 235.752 48.3183 236.114 48.3183C237.372 48.3183 238.051 47.7862 238.051 46.7547C238.051 45.7232 237.405 45.3106 236.157 45.3106C235.839 45.3214 235.521 45.3504 235.205 45.3975ZM239.801 42.379H240.316V48.8612H239.801V42.379Z" fill="#05442F"/>
<path d="M243.391 42.3464H243.905L246.521 45.8752L249.027 42.3464H249.508V48.8612H249.005V43.215L246.521 46.6896H246.433L243.894 43.2476V48.8612H243.391V42.3464Z" fill="#05442F"/>
<path d="M252.594 48.8612V42.3464H253.108V47.9491L257.485 42.3464H257.945V48.8612H257.431V43.2042L253.053 48.8069L252.594 48.8612Z" fill="#05442F"/>
</g>
<defs>
<clipPath id="clip0_671_1529">
<rect width="258" height="71" fill="white"/>
</clipPath>
</defs>
</svg>
