<svg width="23" height="22" viewBox="0 0 23 22" fill="none" xmlns="http://www.w3.org/2000/svg">
<g clip-path="url(#clip0_427_596)">
<path d="M9.36669 18.0664C4.36369 18.0664 0.333496 14.0362 0.333496 9.0332C0.333496 4.03019 4.36369 0 9.36669 0C14.3697 0 18.3999 4.03019 18.3999 9.0332C18.3999 14.0362 14.3697 18.0664 9.36669 18.0664ZM9.36669 1.38972C5.12804 1.38972 1.72322 4.79454 1.72322 9.0332C1.72322 13.2718 5.12804 16.6767 9.36669 16.6767C13.6053 16.6767 17.0102 13.2718 17.0102 9.0332C17.0102 4.79454 13.6053 1.38972 9.36669 1.38972Z" fill="white"/>
<path d="M16.0943 14.7776L22.3342 21.0175L21.3517 22L15.1118 15.7601L16.0943 14.7776Z" fill="white"/>
</g>
<defs>
<clipPath id="clip0_427_596">
<rect width="22" height="22" fill="white" transform="translate(0.333496)"/>
</clipPath>
</defs>
</svg>
