<svg width="18" height="18" viewBox="0 0 18 18" fill="none" xmlns="http://www.w3.org/2000/svg">
<g clip-path="url(#clip0_990_984)">
<path d="M9 0C4.02975 0 0 4.02975 0 9C0 13.9703 4.02975 18 9 18C13.9703 18 18 13.9703 18 9C18 4.02975 13.9703 0 9 0ZM13.4205 6.16575L11.943 13.1257C11.8342 13.6192 11.5402 13.7393 11.13 13.5068L8.88 11.8492L7.7955 12.8948C7.74236 12.9635 7.67418 13.0192 7.59617 13.0576C7.51817 13.0959 7.43242 13.1159 7.3455 13.116H7.34175L7.5015 10.8255L11.6715 7.059C11.8515 6.89925 11.631 6.8085 11.3918 6.96825L6.24 10.2127L4.02 9.51975C3.54 9.3675 3.5265 9.03975 4.12125 8.80425L12.7958 5.46075C13.1993 5.31375 13.5503 5.55675 13.4198 6.1665L13.4205 6.16575Z" fill="#2B2B2B"/>
</g>
<defs>
<clipPath id="clip0_990_984">
<rect width="18" height="18" fill="white"/>
</clipPath>
</defs>
</svg>
