<svg width="18" height="18" viewBox="0 0 18 18" fill="none" xmlns="http://www.w3.org/2000/svg">
<g clip-path="url(#clip0_990_988)">
<path d="M9 0.75C4.446 0.75 0.75 4.446 0.75 9C0.75 13.554 4.446 17.25 9 17.25H13.125V15.6H9C5.4195 15.6 2.4 12.5805 2.4 9C2.4 5.4195 5.4195 2.4 9 2.4C12.5805 2.4 15.6 5.4195 15.6 9V10.1798C15.6 10.8315 15.0143 11.475 14.3625 11.475C13.7108 11.475 13.125 10.8315 13.125 10.1798V9C13.125 6.723 11.277 4.875 9 4.875C6.723 4.875 4.875 6.723 4.875 9C4.875 11.277 6.723 13.125 9 13.125C10.1385 13.125 11.178 12.663 11.9205 11.9123C12.4568 12.6465 13.3808 13.125 14.3625 13.125C15.9878 13.125 17.25 11.805 17.25 10.1798V9C17.25 4.446 13.554 0.75 9 0.75ZM9 11.475C7.6305 11.475 6.525 10.3695 6.525 9C6.525 7.6305 7.6305 6.525 9 6.525C10.3695 6.525 11.475 7.6305 11.475 9C11.475 10.3695 10.3695 11.475 9 11.475Z" fill="#2B2B2B"/>
</g>
<defs>
<clipPath id="clip0_990_988">
<rect width="18" height="18" fill="white"/>
</clipPath>
</defs>
</svg>
