<svg width="246" height="68" viewBox="0 0 246 68" fill="none" xmlns="http://www.w3.org/2000/svg">
<g clip-path="url(#clip0_427_751)">
<path d="M79.9584 26.2994C79.9799 27.1774 79.8221 28.0506 79.4945 28.866C79.1669 29.6813 78.6764 30.4217 78.0527 31.0423C77.4291 31.6628 76.6854 32.1505 75.8668 32.4757C75.0482 32.801 74.1718 32.9569 73.2908 32.9341C72.2016 32.952 71.1261 32.6896 70.1683 32.1723C69.2105 31.6549 68.4028 30.9001 67.8232 29.9807L70.3484 28.5248C70.656 29.027 71.0933 29.4376 71.6146 29.7138C72.1358 29.9901 72.7219 30.1217 73.3117 30.0951C74.0877 30.1407 74.8568 29.9272 75.4974 29.4884C76.138 29.0496 76.6136 28.4105 76.8489 27.6721H71.6318V24.9579H76.8489C76.6136 24.2196 76.138 23.5804 75.4974 23.1416C74.8568 22.7028 74.0877 22.4893 73.3117 22.5349C72.7221 22.5094 72.1364 22.6416 71.6154 22.9177C71.0943 23.1938 70.6568 23.6038 70.3484 24.1052L67.8232 22.6181C68.4076 21.6985 69.2193 20.944 70.1803 20.4268C71.1414 19.9097 72.2197 19.6473 73.3117 19.6648C74.1909 19.6448 75.0651 19.8029 75.8812 20.1294C76.6974 20.4558 77.4386 20.944 78.0599 21.5642C78.6813 22.1845 79.1699 22.9239 79.4963 23.7379C79.8226 24.5518 79.9798 25.4232 79.9584 26.2994Z" fill="#FF7833"/>
<path d="M89.4642 22.7218H86.1774V32.6842H83.2453V22.7218H79.9585V19.9141H89.4642V22.7218Z" fill="#FF7833"/>
<path d="M97.342 30.6772H92.5839L91.937 32.6842H88.6919L93.0534 19.9141H96.7785L101.213 32.6842H97.9785L97.342 30.6772ZM96.455 27.9422L94.9525 23.2522L93.45 27.9422H96.455Z" fill="#FF7833"/>
<path d="M101.547 29.9492C102.862 30.1468 103.634 29.7413 103.634 27.6094V19.9141H112.493V32.6842H109.561V22.7218H106.556V27.5054C106.556 32.0603 103.864 32.9338 101.505 32.705L101.547 29.9492Z" fill="#FF7833"/>
<path d="M114.173 26.299C114.171 24.9839 114.56 23.6977 115.292 22.6033C116.024 21.5089 117.065 20.6556 118.284 20.1514C119.502 19.6471 120.844 19.5147 122.138 19.7707C123.433 20.0268 124.622 20.6599 125.555 21.5898C126.488 22.5198 127.123 23.7048 127.38 24.9948C127.637 26.2848 127.504 27.6217 126.998 28.8364C126.492 30.051 125.636 31.0887 124.538 31.8181C123.44 32.5475 122.149 32.9357 120.83 32.9337C119.954 32.9406 119.085 32.7737 118.274 32.4427C117.463 32.1118 116.726 31.6233 116.107 31.0058C115.487 30.3884 114.997 29.6542 114.665 28.8461C114.333 28.0381 114.166 27.1722 114.173 26.299ZM124.607 26.299C124.634 25.7942 124.557 25.2893 124.382 24.8151C124.206 24.3408 123.936 23.907 123.587 23.5403C123.238 23.1736 122.818 22.8815 122.352 22.6819C121.886 22.4823 121.384 22.3794 120.877 22.3794C120.369 22.3794 119.868 22.4823 119.402 22.6819C118.936 22.8815 118.515 23.1736 118.166 23.5403C117.817 23.907 117.547 24.3408 117.372 24.8151C117.196 25.2893 117.12 25.7942 117.146 26.299C117.12 26.8038 117.196 27.3087 117.372 27.7829C117.547 28.2572 117.817 28.691 118.166 29.0577C118.515 29.4244 118.936 29.7165 119.402 29.9161C119.868 30.1157 120.369 30.2186 120.877 30.2186C121.384 30.2186 121.886 30.1157 122.352 29.9161C122.818 29.7165 123.238 29.4244 123.587 29.0577C123.936 28.691 124.206 28.2572 124.382 27.7829C124.557 27.3087 124.634 26.8038 124.607 26.299Z" fill="#FF7833"/>
<path d="M139.027 19.9141V32.6842H136.095V27.6094H132.068V32.6842H129.146V19.9141H132.068V24.8017H136.095V19.9141H139.027Z" fill="#FF7833"/>
<path d="M152.821 32.6842L148.721 26.7775V32.6842H145.789V19.9141H148.721V25.4568L152.633 19.9141H155.962L151.653 26.1535L156.15 32.705L152.821 32.6842Z" fill="#FF7833"/>
<path d="M155.597 26.299C155.595 24.9843 155.984 23.6985 156.716 22.6044C157.447 21.5102 158.487 20.6569 159.706 20.1524C160.924 19.6478 162.265 19.5147 163.559 19.77C164.853 20.0252 166.042 20.6573 166.975 21.5862C167.909 22.5151 168.545 23.6991 168.803 24.9884C169.061 26.2777 168.93 27.6143 168.425 28.8292C167.921 30.044 167.066 31.0824 165.97 31.813C164.873 32.5437 163.584 32.9337 162.264 32.9337C161.387 32.942 160.517 32.7761 159.705 32.4458C158.893 32.1154 158.156 31.6272 157.535 31.0096C156.914 30.392 156.423 29.6574 156.09 28.8486C155.758 28.0398 155.59 27.1731 155.597 26.299ZM166.031 26.299C166.031 25.3116 165.638 24.3647 164.937 23.6665C164.237 22.9683 163.286 22.5761 162.296 22.5761C161.305 22.5761 160.355 22.9683 159.654 23.6665C158.954 24.3647 158.56 25.3116 158.56 26.299C158.56 27.2864 158.954 28.2333 159.654 28.9315C160.355 29.6297 161.305 30.0219 162.296 30.0219C163.286 30.0219 164.237 29.6297 164.937 28.9315C165.638 28.2333 166.031 27.2864 166.031 26.299Z" fill="#FF7833"/>
<path d="M183.384 32.6842H180.452V25.2592L177.144 30.6772H176.81L173.502 25.2592V32.6842H170.57V19.9141H173.502L176.977 25.592L180.452 19.9141H183.384V32.6842Z" fill="#FF7833"/>
<path d="M193.442 31.5504V33.0479H190.594V31.5504C187.109 31.1345 184.844 29.2002 184.844 26.2989C184.844 23.3975 187.109 21.4632 190.594 21.0473V19.5498H193.442V21.0473C196.917 21.4632 199.191 23.3975 199.191 26.2989C199.191 29.2002 196.917 31.1345 193.442 31.5504ZM190.594 28.8674V23.7303C188.684 23.9798 187.766 24.843 187.766 26.2989C187.766 27.7547 188.684 28.6179 190.594 28.8674ZM196.259 26.2989C196.259 24.843 195.341 23.9798 193.442 23.7303V28.8674C195.341 28.6179 196.259 27.7547 196.259 26.2989Z" fill="#FF7833"/>
<path d="M200.099 26.299C200.097 24.9843 200.487 23.6985 201.218 22.6044C201.949 21.5102 202.99 20.6569 204.208 20.1524C205.426 19.6478 206.767 19.5147 208.061 19.77C209.355 20.0252 210.544 20.6573 211.478 21.5862C212.411 22.5151 213.047 23.6991 213.306 24.9884C213.564 26.2777 213.432 27.6143 212.928 28.8292C212.424 30.044 211.569 31.0824 210.472 31.813C209.376 32.5437 208.086 32.9337 206.767 32.9337C205.89 32.942 205.02 32.7761 204.208 32.4458C203.396 32.1154 202.658 31.6272 202.037 31.0096C201.417 30.392 200.926 29.6574 200.593 28.8486C200.26 28.0398 200.092 27.1731 200.099 26.299ZM210.534 26.299C210.534 25.3116 210.14 24.3647 209.44 23.6665C208.739 22.9683 207.789 22.5761 206.798 22.5761C205.807 22.5761 204.857 22.9683 204.157 23.6665C203.456 24.3647 203.063 25.3116 203.063 26.299C203.063 27.2864 203.456 28.2333 204.157 28.9315C204.857 29.6297 205.807 30.0219 206.798 30.0219C207.789 30.0219 208.739 29.6297 209.44 28.9315C210.14 28.2333 210.534 27.2864 210.534 26.299Z" fill="#FF7833"/>
<path d="M224.401 24.2927C224.4 24.8743 224.282 25.4498 224.056 25.9859C223.83 26.5219 223.498 27.0077 223.082 27.4151C222.665 27.8224 222.172 28.1432 221.63 28.3588C221.088 28.5744 220.508 28.6804 219.925 28.6707H218.005V32.6848H215.073V19.9147H219.925C220.508 19.905 221.088 20.0111 221.63 20.2266C222.172 20.4422 222.665 20.763 223.082 21.1703C223.498 21.5777 223.83 22.0635 224.056 22.5995C224.282 23.1356 224.4 23.7111 224.401 24.2927ZM221.479 24.2927C221.491 24.0818 221.459 23.8709 221.386 23.6726C221.313 23.4744 221.201 23.2929 221.055 23.1393C220.91 22.9857 220.735 22.8631 220.54 22.7789C220.346 22.6947 220.137 22.6507 219.925 22.6496H218.005V25.9358H219.925C220.137 25.9347 220.346 25.8907 220.54 25.8065C220.735 25.7224 220.91 25.5997 221.055 25.4461C221.201 25.2925 221.313 25.1111 221.386 24.9128C221.459 24.7145 221.491 24.5036 221.479 24.2927Z" fill="#FF7833"/>
<path d="M234.282 22.7218H230.995V32.6842H228.063V22.7218H224.766V19.9141H234.282V22.7218Z" fill="#FF7833"/>
<path d="M242.16 30.6772H237.402L236.755 32.6842H233.552L237.903 19.9141H241.628L245.989 32.6842H242.786L242.16 30.6772ZM241.273 27.9422L239.781 23.2522L238.279 27.9422H241.273Z" fill="#FF7833"/>
<path d="M29.5711 67.7919V33.9531L14.8169 42.4596L29.5711 67.7919Z" fill="#11372C"/>
<path d="M29.5709 33.7663V17.2317L0 17.0029L29.5709 33.7663Z" fill="#1D5645"/>
<path d="M0 17.0029L14.8168 42.46L29.5709 33.9535V33.7663L0 17.0029Z" fill="#154434"/>
<path d="M0 50.9977L14.8168 42.46L0 17.0029" fill="#166046"/>
<path d="M0.208687 50.8729L0 50.9977L29.4979 67.9691L29.5709 67.8443V67.7923L14.8168 42.46L0.198252 50.8937" fill="#05442F"/>
<path d="M29.5709 0.0103991L29.5396 0L0 17.0026L29.5709 17.2314V0.0103991Z" fill="#05442F"/>
<path d="M29.498 67.9695L29.5398 68.0007L29.5712 67.9799V67.8447L29.498 67.9695Z" fill="#0F3228"/>
<path d="M59.0269 16.9613L29.5708 0.0107422V17.2317H58.5574L59.0269 16.9613Z" fill="#0F382D"/>
<path d="M29.5708 67.8438L44.4502 42.2723L29.7273 33.8594L29.5708 33.953V67.8438Z" fill="#0D261F"/>
<path d="M59.0898 17.0971V17.0035L59.0272 16.9619L58.5576 17.2323H58.9437H58.5576L29.7275 33.8605L44.4504 42.2734L59.0898 17.0971Z" fill="#11372C"/>
<path d="M29.7275 33.8592L29.5708 33.7656V33.9528L29.7275 33.8592Z" fill="#0F3228"/>
<path d="M58.5574 17.2314H29.5708V33.7661L29.7273 33.8597L58.5574 17.2314Z" fill="#154434"/>
<path d="M59.0896 17.0957L44.4502 42.272L59.0896 50.6329V17.0957Z" fill="#05442F"/>
<path d="M44.4502 42.2725L29.5708 67.844V67.9791L59.0896 50.9973V50.6334L44.4502 42.2725Z" fill="#0F382D"/>
<path d="M44.7111 25.1451L29.5709 16.4307L14.4307 25.1347L20.1591 28.4625V28.4417L29.5709 23.0341L38.9722 28.4417V28.4729H44.7111V25.1451Z" fill="#FF7833"/>
<path d="M38.9722 31.208V39.2673L29.5709 44.6853L20.1591 39.2673V39.2569L14.4307 42.5743L29.5709 51.2888L44.7111 42.5743V31.208H38.9722Z" fill="#FF7833"/>
<path d="M38.9722 31.208H32.3359V36.6884H38.9722V31.208Z" fill="#FF7833"/>
<path d="M42.7598 18.8955H36.1235V24.3759H42.7598V18.8955Z" fill="#FF7833"/>
<path d="M68.1048 46.2866H68.7622C69.0231 45.9642 69.6804 44.6123 69.8057 41.8149L69.91 40.5566H73.3846V46.2554H74.2194V47.888H73.7603V46.7961H68.5431V47.9712H68.084L68.1048 46.2866ZM69.3048 46.2866H72.8942V41.087H70.3691L70.2961 42.2101C70.3053 43.6293 69.9649 45.029 69.3048 46.2866Z" fill="#05442F"/>
<path d="M76.4731 40.5566H79.8852V41.0142H76.9531V43.3644H79.6243V43.822H76.9531V46.2554H79.9686V46.7961H76.4731V40.5566Z" fill="#05442F"/>
<path d="M86.4692 41.0454H83.871L83.7667 42.1997C83.4119 46.3594 82.5668 46.8169 81.7842 46.7441V46.2554C82.2016 46.2554 83.0259 46.0578 83.3285 41.8149L83.4119 40.5566H86.9492V46.7961H86.4692V41.0454Z" fill="#05442F"/>
<path d="M91.822 40.5566H92.2185L94.9106 46.7961H94.3888L93.4915 44.7163H90.4864L89.589 46.7961H89.0986L91.822 40.5566ZM90.6847 44.1963H93.2515L91.9681 41.2014L90.6847 44.1963Z" fill="#05442F"/>
<path d="M97.0396 40.5566H100.452V41.0142H97.4987V43.3644H100.17V43.822H97.4987V46.2554H100.525V46.7961H97.0396V40.5566Z" fill="#05442F"/>
<path d="M103.07 40.5566H103.561L106.055 43.9364L108.444 40.5566H108.914V46.7961H108.434V41.3886L106.055 44.7163H105.971L103.561 41.4198V46.7961H103.07V40.5566Z" fill="#05442F"/>
<path d="M124.951 41.0455H122.353L122.249 42.1998C121.894 46.3594 121.049 46.817 120.266 46.7442V46.2554C120.683 46.2554 121.497 46.0578 121.8 41.815L121.883 40.5879H125.431V46.7962H124.941L124.951 41.0455Z" fill="#05442F"/>
<path d="M128.342 40.5565H128.833V43.3435H130.429C130.448 42.9516 130.545 42.5672 130.713 42.2124C130.881 41.8576 131.118 41.5394 131.41 41.2757C131.701 41.0121 132.042 40.8083 132.413 40.676C132.783 40.5437 133.177 40.4854 133.57 40.5045C133.963 40.5236 134.349 40.6198 134.705 40.7874C135.061 40.9551 135.38 41.191 135.645 41.4816C135.909 41.7723 136.114 42.112 136.246 42.4814C136.379 42.8509 136.438 43.2427 136.418 43.6347C136.451 44.0398 136.4 44.4472 136.27 44.8322C136.139 45.2173 135.931 45.5718 135.659 45.8742C135.387 46.1766 135.055 46.4206 134.685 46.5913C134.315 46.762 133.914 46.8558 133.507 46.8671C133.099 46.8785 132.693 46.807 132.314 46.657C131.935 46.5071 131.591 46.2818 131.302 45.995C131.013 45.7082 130.786 45.3657 130.634 44.9885C130.482 44.6114 130.409 44.2073 130.419 43.8011H128.864V46.796H128.342V40.5565ZM133.382 46.3384C133.929 46.3866 134.477 46.2691 134.956 46.0012C135.434 45.7333 135.821 45.3275 136.064 44.8371C136.307 44.3467 136.396 43.7945 136.318 43.2529C136.241 42.7113 136.001 42.2057 135.631 41.8022C135.26 41.3987 134.776 41.1162 134.242 40.9918C133.707 40.8674 133.147 40.9068 132.636 41.1049C132.124 41.303 131.685 41.6506 131.375 42.102C131.065 42.5534 130.899 43.0877 130.899 43.6347C130.871 43.9815 130.916 44.3302 131.03 44.6591C131.144 44.988 131.324 45.2901 131.56 45.5466C131.796 45.8031 132.082 46.0085 132.401 46.1501C132.72 46.2917 133.064 46.3664 133.413 46.3696L133.382 46.3384Z" fill="#05442F"/>
<path d="M137.671 46.2866H138.338C139.066 44.9101 139.425 43.3701 139.382 41.815L139.444 40.5879H142.95V46.2866H143.796V47.9193H143.336V46.7962H138.119V47.9713H137.66L137.671 46.2866ZM138.871 46.2866H142.46V41.087H139.935L139.82 42.1686C139.849 43.5983 139.523 45.0129 138.871 46.2866Z" fill="#05442F"/>
<path d="M146.081 40.5566H149.493V41.0142H146.561V43.3644H149.211V43.822H146.54V46.2554H149.566V46.7961H146.081V40.5566Z" fill="#05442F"/>
<path d="M152.091 46.7956V40.5561H152.571V45.9221L156.745 40.5561H157.172V46.7956H156.692V41.3777L152.519 46.7436L152.091 46.7956ZM153.552 39.2979C153.652 39.498 153.81 39.6641 154.005 39.7751C154.2 39.8862 154.423 39.9372 154.647 39.9218C154.865 39.9396 155.082 39.889 155.27 39.7771C155.457 39.6652 155.604 39.4976 155.691 39.2979H156.15C156.04 39.6077 155.829 39.872 155.551 40.0491C155.273 40.2262 154.944 40.3058 154.616 40.2754C154.284 40.3088 153.951 40.2307 153.67 40.0536C153.388 39.8764 153.174 39.6104 153.061 39.2979H153.552Z" fill="#05442F"/>
<path d="M173.774 46.1406C173.241 46.5986 172.557 46.8432 171.854 46.827C171.013 46.8366 170.202 46.5128 169.6 45.9268C168.998 45.3407 168.655 44.5405 168.645 43.702C168.636 42.8636 168.96 42.0557 169.548 41.456C170.136 40.8563 170.939 40.514 171.781 40.5043C172.456 40.4718 173.121 40.6781 173.659 41.0867L173.429 41.4506C173.081 41.2204 172.684 41.0743 172.269 41.0237C171.854 40.9731 171.433 41.0195 171.039 41.1593C170.645 41.299 170.289 41.5282 170 41.8287C169.71 42.1292 169.495 42.4928 169.371 42.8906C169.247 43.2884 169.218 43.7095 169.285 44.1207C169.353 44.5318 169.516 44.9215 169.761 45.2591C170.005 45.5967 170.326 45.8727 170.696 46.0655C171.067 46.2582 171.478 46.3622 171.896 46.3694C172.506 46.3748 173.1 46.169 173.575 45.7871L173.774 46.1406Z" fill="#05442F"/>
<path d="M179.606 46.7961H179.116V43.9156C178.594 44.2533 177.985 44.4339 177.363 44.4355C177.105 44.4536 176.847 44.414 176.606 44.3196C176.366 44.2252 176.15 44.0784 175.974 43.89C175.798 43.7015 175.666 43.4762 175.589 43.2305C175.511 42.9848 175.49 42.725 175.527 42.4701V40.5566H176.007V42.3349C176.007 43.458 176.612 43.9468 177.478 43.9468C178.062 43.9292 178.629 43.7491 179.116 43.4268V40.5566H179.606V46.7961Z" fill="#05442F"/>
<path d="M184.437 40.5566H184.834L187.526 46.7961H187.004L186.107 44.7163H183.133L182.236 46.7961H181.745L184.437 40.5566ZM183.331 44.1963H185.898L184.625 41.2014L183.331 44.1963Z" fill="#05442F"/>
<path d="M193.964 46.1401C193.437 46.6001 192.755 46.8451 192.054 46.8264C191.22 46.8347 190.417 46.5123 189.821 45.9302C189.225 45.348 188.885 44.5538 188.877 43.7223C188.869 42.8908 189.192 42.09 189.776 41.4961C190.361 40.9023 191.157 40.564 191.992 40.5558C192.664 40.5249 193.325 40.7311 193.86 41.1381L193.63 41.5021C193.231 41.2131 192.759 41.0418 192.267 41.0076C191.775 40.9734 191.283 41.0778 190.848 41.3088C190.413 41.5397 190.052 41.8881 189.805 42.3139C189.559 42.7398 189.438 43.226 189.456 43.7171C189.431 44.0706 189.481 44.4255 189.602 44.7586C189.724 45.0917 189.914 45.3956 190.161 45.6506C190.408 45.9056 190.706 46.1059 191.036 46.2386C191.366 46.3713 191.72 46.4334 192.075 46.4209C192.689 46.4244 193.285 46.219 193.766 45.8385L193.964 46.1401Z" fill="#05442F"/>
<path d="M195.331 40.5566H200.392V41.0142H198.107V46.7961H197.616V41.0454H195.331V40.5566Z" fill="#05442F"/>
<path d="M205.922 41.0455H203.324L203.219 42.1998C202.865 46.3594 202.019 46.817 201.237 46.7442V46.2554C201.644 46.2554 202.468 46.0578 202.771 41.815L202.854 40.5879H206.391V46.7962H205.911L205.922 41.0455Z" fill="#05442F"/>
<path d="M209.344 46.7961V40.5566H209.824V45.9226L213.998 40.5566H214.426V46.7961H213.904V41.3782L209.73 46.7961H209.344Z" fill="#05442F"/>
<path d="M217.358 40.5566H218.975C220.457 40.5566 220.926 41.2222 220.926 42.0853C220.931 42.4279 220.813 42.7609 220.593 43.0241C220.373 43.2873 220.065 43.4633 219.727 43.5204C219.925 43.5129 220.123 43.5467 220.307 43.6196C220.492 43.6925 220.659 43.8028 220.798 43.9437C220.938 44.0846 221.046 44.2529 221.117 44.4378C221.187 44.6227 221.218 44.8203 221.208 45.0179C221.208 46.245 220.269 46.7649 219.007 46.7649C218.485 46.7649 217.754 46.7649 217.4 46.7649L217.358 40.5566ZM217.838 41.0142V43.354H219.038C219.211 43.3742 219.387 43.3584 219.554 43.3076C219.721 43.2567 219.875 43.172 220.008 43.0586C220.14 42.9453 220.247 42.8058 220.323 42.649C220.398 42.4922 220.44 42.3215 220.446 42.1477C220.446 41.399 219.977 40.983 218.965 40.983C218.579 41.0142 218.078 41.035 217.838 41.0454V41.0142ZM217.838 43.7804V46.2762C218.088 46.2762 218.6 46.2762 218.986 46.2762C220.029 46.2762 220.686 45.8498 220.686 44.9659C220.686 44.082 220.081 43.7804 219.017 43.7804H217.838Z" fill="#05442F"/>
<path d="M224.265 43.0108H225.194C226.759 43.0108 227.49 43.718 227.49 44.8411C227.49 46.1202 226.571 46.8065 225.079 46.8065H223.775V40.5566H224.265V43.0108ZM224.265 43.4788V46.2762C224.537 46.2762 224.787 46.2762 225.131 46.2762C226.331 46.2762 226.978 45.7666 226.978 44.7787C226.978 43.7908 226.363 43.3956 225.173 43.3956C224.869 43.4059 224.566 43.4337 224.265 43.4788ZM228.648 40.5878H229.138V46.7961H228.648V40.5878Z" fill="#05442F"/>
<path d="M232.07 40.5566H232.561L235.055 43.9364L237.444 40.5566H237.903V46.7961H237.423V41.3886L235.055 44.7163H234.971L232.55 41.4198V46.7961H232.07V40.5566Z" fill="#05442F"/>
<path d="M240.845 46.7961V40.5566H241.336V45.9226L245.509 40.5566H245.948V46.7961H245.457V41.3782L241.283 46.7441L240.845 46.7961Z" fill="#05442F"/>
</g>
<defs>
<clipPath id="clip0_427_751">
<rect width="246" height="68" fill="white"/>
</clipPath>
</defs>
</svg>
