<svg width="253" height="70" viewBox="0 0 253 70" fill="none" xmlns="http://www.w3.org/2000/svg">
<g clip-path="url(#clip0_1370_269)">
<path d="M82.2336 27.0729C82.2557 27.9768 82.0934 28.8757 81.7565 29.715C81.4196 30.5543 80.9151 31.3165 80.2738 31.9553C79.6324 32.5941 78.8675 33.0962 78.0256 33.4309C77.1837 33.7657 76.2824 33.9262 75.3763 33.9027C74.2561 33.9212 73.15 33.6511 72.1649 33.1185C71.1799 32.5859 70.3492 31.8089 69.7532 30.8625L72.3501 29.3638C72.6665 29.8807 73.1163 30.3035 73.6524 30.5878C74.1885 30.8721 74.7913 31.0077 75.3978 30.9803C76.1959 31.0272 76.9869 30.8075 77.6457 30.3557C78.3046 29.904 78.7937 29.2461 79.0357 28.486H73.6701V25.692H79.0357C78.7937 24.9319 78.3046 24.274 77.6457 23.8223C76.9869 23.3705 76.1959 23.1508 75.3978 23.1977C74.7915 23.1715 74.1891 23.3075 73.6532 23.5917C73.1173 23.876 72.6674 24.298 72.3501 24.8142L69.7532 23.2834C70.3542 22.3367 71.1889 21.56 72.1773 21.0276C73.1657 20.4953 74.2747 20.2251 75.3978 20.2432C76.3021 20.2226 77.2011 20.3853 78.0404 20.7214C78.8798 21.0575 79.6421 21.56 80.2812 22.1985C80.9202 22.837 81.4227 23.5982 81.7583 24.436C82.0939 25.2739 82.2556 26.171 82.2336 27.0729Z" fill="#FF7833"/>
<path d="M92.0098 23.3904H88.6295V33.6458H85.614V23.3904H82.2336V20.5001H92.0098V23.3904Z" fill="#FF7833"/>
<path d="M100.112 31.5798H95.2185L94.5531 33.6458H91.2157L95.7014 20.5001H99.5324L104.093 33.6458H100.767L100.112 31.5798ZM99.1998 28.7643L97.6544 23.9364L96.1091 28.7643H99.1998Z" fill="#FF7833"/>
<path d="M104.437 30.8304C105.789 31.0338 106.583 30.6163 106.583 28.4218V20.5001H115.694V33.6458H112.678V23.3904H109.588V28.3147C109.588 33.0035 106.819 33.9027 104.394 33.6672L104.437 30.8304Z" fill="#FF7833"/>
<path d="M117.421 27.073C117.419 25.7191 117.82 24.3951 118.573 23.2686C119.325 22.142 120.396 21.2636 121.65 20.7445C122.903 20.2254 124.283 20.0891 125.614 20.3527C126.945 20.6163 128.168 21.268 129.127 22.2253C130.087 23.1826 130.74 24.4024 131.005 25.7304C131.269 27.0583 131.132 28.4346 130.612 29.6849C130.092 30.9353 129.211 32.0035 128.082 32.7544C126.952 33.5052 125.625 33.9049 124.268 33.9027C123.367 33.9099 122.473 33.7381 121.639 33.3974C120.806 33.0567 120.048 32.5539 119.411 31.9182C118.774 31.2826 118.27 30.5269 117.928 29.695C117.586 28.8632 117.414 27.9718 117.421 27.073ZM128.153 27.073C128.18 26.5534 128.101 26.0336 127.921 25.5454C127.741 25.0571 127.463 24.6106 127.104 24.2331C126.745 23.8556 126.312 23.555 125.833 23.3495C125.354 23.144 124.838 23.0381 124.316 23.0381C123.795 23.0381 123.278 23.144 122.799 23.3495C122.32 23.555 121.888 23.8556 121.529 24.2331C121.17 24.6106 120.892 25.0571 120.711 25.5454C120.531 26.0336 120.452 26.5534 120.48 27.073C120.452 27.5926 120.531 28.1123 120.711 28.6005C120.892 29.0888 121.17 29.5353 121.529 29.9128C121.888 30.2903 122.32 30.591 122.799 30.7964C123.278 31.0019 123.795 31.1078 124.316 31.1078C124.838 31.1078 125.354 31.0019 125.833 30.7964C126.312 30.591 126.745 30.2903 127.104 29.9128C127.463 29.5353 127.741 29.0888 127.921 28.6005C128.101 28.1123 128.18 27.5926 128.153 27.073Z" fill="#FF7833"/>
<path d="M142.983 20.5001V33.6458H139.968V28.4218H135.825V33.6458H132.821V20.5001H135.825V25.5314H139.968V20.5001H142.983Z" fill="#FF7833"/>
<path d="M157.17 33.6458L152.952 27.5654V33.6458H149.937V20.5001H152.952V26.2058L156.977 20.5001H160.4L155.968 26.9231L160.593 33.6672L157.17 33.6458Z" fill="#FF7833"/>
<path d="M160.024 27.0729C160.022 25.7196 160.423 24.396 161.175 23.2697C161.927 22.1433 162.997 21.2649 164.25 20.7455C165.503 20.2261 166.882 20.0891 168.213 20.3519C169.544 20.6146 170.767 21.2653 171.727 22.2215C172.687 23.1777 173.341 24.3966 173.606 25.7238C173.872 27.051 173.737 28.4269 173.218 29.6775C172.699 30.9281 171.82 31.997 170.692 32.7492C169.565 33.5013 168.238 33.9027 166.882 33.9027C165.98 33.9113 165.085 33.7406 164.25 33.4005C163.415 33.0604 162.656 32.5578 162.018 31.9221C161.379 31.2863 160.874 30.5301 160.532 29.6975C160.19 28.865 160.017 27.9727 160.024 27.0729ZM170.756 27.0729C170.756 26.0565 170.351 25.0817 169.63 24.363C168.91 23.6443 167.933 23.2406 166.914 23.2406C165.895 23.2406 164.918 23.6443 164.197 24.363C163.477 25.0817 163.072 26.0565 163.072 27.0729C163.072 28.0894 163.477 29.0641 164.197 29.7829C164.918 30.5016 165.895 30.9053 166.914 30.9053C167.933 30.9053 168.91 30.5016 169.63 29.7829C170.351 29.0641 170.756 28.0894 170.756 27.0729Z" fill="#FF7833"/>
<path d="M188.602 33.6458H185.586V26.0024L182.185 31.5798H181.841L178.439 26.0024V33.6458H175.424V20.5001H178.439L182.013 26.345L185.586 20.5001H188.602V33.6458Z" fill="#FF7833"/>
<path d="M198.947 32.479V34.0205H196.017V32.479C192.433 32.0508 190.104 30.0596 190.104 27.0729C190.104 24.0863 192.433 22.0951 196.017 21.6669V20.1254H198.947V21.6669C202.52 22.0951 204.86 24.0863 204.86 27.0729C204.86 30.0596 202.52 32.0508 198.947 32.479ZM196.017 29.7171V24.4288C194.053 24.6857 193.109 25.5742 193.109 27.0729C193.109 28.5716 194.053 29.4602 196.017 29.7171ZM201.844 27.0729C201.844 25.5742 200.9 24.6857 198.947 24.4288V29.7171C200.9 29.4602 201.844 28.5716 201.844 27.0729Z" fill="#FF7833"/>
<path d="M205.793 27.0729C205.791 25.7196 206.191 24.396 206.944 23.2697C207.696 22.1433 208.766 21.2649 210.019 20.7455C211.272 20.2261 212.651 20.0891 213.982 20.3519C215.313 20.6146 216.535 21.2653 217.495 22.2215C218.456 23.1777 219.11 24.3966 219.375 25.7238C219.641 27.051 219.505 28.4269 218.987 29.6775C218.468 30.9281 217.589 31.997 216.461 32.7492C215.333 33.5013 214.007 33.9027 212.65 33.9027C211.748 33.9113 210.854 33.7406 210.019 33.4005C209.184 33.0604 208.425 32.5578 207.786 31.9221C207.148 31.2863 206.643 30.5301 206.301 29.6975C205.959 28.865 205.786 27.9727 205.793 27.0729ZM216.524 27.0729C216.524 26.0565 216.12 25.0817 215.399 24.363C214.679 23.6443 213.702 23.2406 212.683 23.2406C211.664 23.2406 210.687 23.6443 209.966 24.363C209.246 25.0817 208.841 26.0565 208.841 27.0729C208.841 28.0894 209.246 29.0641 209.966 29.7829C210.687 30.5016 211.664 30.9053 212.683 30.9053C213.702 30.9053 214.679 30.5016 215.399 29.7829C216.12 29.0641 216.524 28.0894 216.524 27.0729Z" fill="#FF7833"/>
<path d="M230.786 25.0069C230.785 25.6056 230.664 26.198 230.431 26.7498C230.199 27.3016 229.858 27.8017 229.43 28.2211C229.001 28.6404 228.494 28.9706 227.936 29.1926C227.379 29.4145 226.783 29.5236 226.183 29.5137H224.208V33.6458H221.193V20.5001H226.183C226.783 20.4901 227.379 20.5993 227.936 20.8212C228.494 21.0431 229.001 21.3733 229.43 21.7927C229.858 22.212 230.199 22.7121 230.431 23.2639C230.664 23.8157 230.785 24.4082 230.786 25.0069ZM227.782 25.0069C227.793 24.7898 227.761 24.5727 227.686 24.3686C227.611 24.1645 227.495 23.9777 227.345 23.8195C227.196 23.6614 227.016 23.5352 226.816 23.4485C226.616 23.3619 226.401 23.3166 226.183 23.3155H224.208V26.6983H226.183C226.401 26.6971 226.616 26.6519 226.816 26.5652C227.016 26.4786 227.196 26.3524 227.345 26.1942C227.495 26.0361 227.611 25.8493 227.686 25.6452C227.761 25.4411 227.793 25.2239 227.782 25.0069Z" fill="#FF7833"/>
<path d="M240.949 23.3904H237.568V33.6458H234.553V23.3904H231.162V20.5001H240.949V23.3904Z" fill="#FF7833"/>
<path d="M249.051 31.5798H244.157L243.492 33.6458H240.198L244.673 20.5001H248.504L252.989 33.6458H249.695L249.051 31.5798ZM248.139 28.7643L246.604 23.9364L245.059 28.7643H248.139Z" fill="#FF7833"/>
<path d="M30.4124 69.7859V34.9518L15.2384 43.7085L30.4124 69.7859Z" fill="#11372C"/>
<path d="M30.4124 34.7591V17.7382L0 17.5027L30.4124 34.7591Z" fill="#1D5645"/>
<path d="M0 17.5027L15.2384 43.7085L30.4124 34.9518V34.7591L0 17.5027Z" fill="#154434"/>
<path d="M0 52.4973L15.2384 43.7085L0 17.5027" fill="#166046"/>
<path d="M0.214625 52.3689L0 52.4973L30.3373 69.9679L30.4124 69.8394V69.7859L15.2384 43.7085L0.203894 52.3903" fill="#05442F"/>
<path d="M30.4124 0.010705L30.3802 0L0 17.5027L30.4124 17.7382V0.010705Z" fill="#05442F"/>
<path d="M30.3373 69.9679L30.3806 70L30.4132 69.9786V69.8394L30.3373 69.9679Z" fill="#0F3228"/>
<path d="M60.7067 17.4599L30.4124 0.010704V17.7382H60.2238L60.7067 17.4599Z" fill="#0F382D"/>
<path d="M30.4124 69.8394L45.7151 43.5158L30.5733 34.8555L30.4124 34.9518V69.8394Z" fill="#0D261F"/>
<path d="M60.7711 17.599V17.5027L60.7067 17.4599L60.2238 17.7382H60.6209H60.2238L30.5734 34.8555L45.7152 43.5158L60.7711 17.599Z" fill="#11372C"/>
<path d="M30.575 34.8555L30.4124 34.7591V34.9518L30.575 34.8555Z" fill="#0F3228"/>
<path d="M60.2238 17.7382H30.4124V34.7591L30.5733 34.8555L60.2238 17.7382Z" fill="#154434"/>
<path d="M60.771 17.599L45.7151 43.5158L60.771 52.1227V17.599Z" fill="#05442F"/>
<path d="M45.7151 43.5158L30.4124 69.8394V69.9786L60.7711 52.4973V52.1226L45.7151 43.5158Z" fill="#0F382D"/>
<path d="M45.9834 25.8847L30.4124 16.9139L14.8413 25.874L20.7328 29.2996V29.2782L30.4124 23.7116L40.0812 29.2782V29.3103H45.9834V25.8847Z" fill="#FF7833"/>
<path d="M40.0812 32.1257V40.4221L30.4124 45.9994L20.7328 40.4221V40.4114L14.8413 43.8263L30.4124 52.7971L45.9834 43.8263V32.1257H40.0812Z" fill="#FF7833"/>
<path d="M40.0812 32.1257H33.2561V37.7672H40.0812V32.1257Z" fill="#FF7833"/>
<path d="M43.9767 19.451H37.1516V25.0925H43.9767V19.451Z" fill="#FF7833"/>
<path d="M70.0429 47.648H70.719C70.9873 47.3161 71.6634 45.9245 71.7921 43.0448L71.8995 41.7495H75.473V47.6158H76.3315V49.2965H75.8593V48.1725H70.4937V49.3822H70.0215L70.0429 47.648ZM71.277 47.648H74.9686V42.2955H72.3716L72.2965 43.4516C72.306 44.9125 71.9559 46.3534 71.277 47.648Z" fill="#2B2B2B"/>
<path d="M78.6493 41.7495H82.1584V42.2205H79.1429V44.6399H81.8901V45.1109H79.1429V47.6158H82.2443V48.1725H78.6493V41.7495Z" fill="#2B2B2B"/>
<path d="M88.9299 42.2526H86.2578L86.1505 43.4409C85.7856 47.7229 84.9164 48.1939 84.1116 48.119V47.6158C84.5408 47.6158 85.3886 47.4124 85.6998 43.0448L85.7857 41.7495H89.4235V48.1725H88.9299V42.2526Z" fill="#2B2B2B"/>
<path d="M94.435 41.7495H94.8428L97.6115 48.1725H97.0749L96.152 46.0315H93.0614L92.1385 48.1725H91.6342L94.435 41.7495ZM93.2653 45.4963H95.9052L94.5852 42.4132L93.2653 45.4963Z" fill="#2B2B2B"/>
<path d="M99.8007 41.7495H103.31V42.2205H100.273V44.6399H103.02V45.1109H100.273V47.6158H103.385V48.1725H99.8007V41.7495Z" fill="#2B2B2B"/>
<path d="M106.003 41.7495H106.508L109.072 45.2286L111.53 41.7495H112.013V48.1725H111.519V42.6059L109.072 46.0315H108.987L106.508 42.638V48.1725H106.003V41.7495Z" fill="#2B2B2B"/>
<path d="M128.507 42.2526H125.835L125.727 43.4409C125.363 47.7229 124.493 48.1939 123.688 48.119V47.6158C124.118 47.6158 124.955 47.4124 125.266 43.0448L125.352 41.7816H129V48.1725H128.496L128.507 42.2526Z" fill="#2B2B2B"/>
<path d="M131.994 41.7495H132.499V44.6184H134.141C134.16 44.215 134.26 43.8193 134.433 43.4541C134.606 43.0889 134.849 42.7612 135.149 42.4899C135.449 42.2185 135.799 42.0087 136.181 41.8725C136.562 41.7363 136.966 41.6763 137.371 41.696C137.775 41.7157 138.172 41.8146 138.538 41.9872C138.904 42.1598 139.233 42.4026 139.505 42.7018C139.777 43.001 139.987 43.3508 140.123 43.731C140.26 44.1113 140.32 44.5147 140.3 44.9182C140.334 45.3352 140.282 45.7547 140.148 46.151C140.013 46.5473 139.8 46.9122 139.519 47.2235C139.239 47.5348 138.898 47.786 138.518 47.9617C138.137 48.1375 137.725 48.2341 137.306 48.2457C136.886 48.2574 136.469 48.1838 136.079 48.0294C135.69 47.8751 135.335 47.6432 135.038 47.3479C134.741 47.0527 134.507 46.7001 134.351 46.3119C134.195 45.9236 134.12 45.5077 134.13 45.0895H132.531V48.1725H131.994V41.7495ZM137.178 47.7015C137.74 47.7511 138.304 47.6301 138.796 47.3543C139.288 47.0785 139.685 46.6608 139.935 46.156C140.186 45.6511 140.277 45.0827 140.197 44.5252C140.118 43.9677 139.872 43.4472 139.49 43.0318C139.109 42.6164 138.611 42.3257 138.061 42.1976C137.512 42.0695 136.936 42.1101 136.41 42.314C135.884 42.518 135.432 42.8757 135.113 43.3404C134.794 43.8051 134.624 44.3551 134.624 44.9182C134.596 45.2752 134.641 45.6342 134.758 45.9728C134.875 46.3114 135.061 46.6223 135.304 46.8864C135.546 47.1504 135.84 47.3619 136.168 47.5076C136.496 47.6534 136.851 47.7303 137.21 47.7336L137.178 47.7015Z" fill="#2B2B2B"/>
<path d="M141.588 47.648H142.275C143.023 46.231 143.393 44.6457 143.348 43.0448L143.412 41.7816H147.018V47.648H147.887V49.3286H147.415V48.1725H142.05V49.3822H141.577L141.588 47.648ZM142.822 47.648H146.514V42.2955H143.917L143.799 43.4088C143.829 44.8805 143.493 46.3368 142.822 47.648Z" fill="#2B2B2B"/>
<path d="M150.238 41.7495H153.747V42.2205H150.731V44.6399H153.457V45.1109H150.71V47.6158H153.822V48.1725H150.238V41.7495Z" fill="#2B2B2B"/>
<path d="M156.419 48.1725V41.7495H156.912V47.2733L161.205 41.7495H161.645V48.1725H161.151V42.5952L156.859 48.119L156.419 48.1725ZM157.921 40.4542C158.024 40.6603 158.186 40.8312 158.387 40.9455C158.588 41.0598 158.817 41.1124 159.048 41.0965C159.272 41.1149 159.495 41.0628 159.688 40.9476C159.881 40.8323 160.032 40.6598 160.121 40.4542H160.593C160.48 40.7731 160.263 41.0453 159.978 41.2275C159.692 41.4098 159.353 41.4918 159.016 41.4605C158.675 41.4949 158.332 41.4145 158.042 41.2321C157.753 41.0498 157.532 40.7759 157.417 40.4542H157.921Z" fill="#2B2B2B"/>
<path d="M178.718 47.4981C178.171 47.9695 177.467 48.2213 176.744 48.2046C175.878 48.2146 175.045 47.8812 174.426 47.2779C173.807 46.6747 173.454 45.8509 173.444 44.9878C173.434 44.1247 173.768 43.293 174.373 42.6756C174.978 42.0583 175.803 41.7059 176.669 41.696C177.363 41.6625 178.047 41.8749 178.6 42.2955L178.364 42.6701C178.006 42.4332 177.597 42.2827 177.17 42.2307C176.744 42.1786 176.311 42.2264 175.906 42.3702C175.501 42.514 175.135 42.75 174.837 43.0593C174.539 43.3687 174.318 43.7429 174.19 44.1524C174.063 44.562 174.033 44.9955 174.102 45.4187C174.172 45.8419 174.339 46.2431 174.591 46.5906C174.843 46.9381 175.172 47.2223 175.553 47.4207C175.935 47.6191 176.357 47.7262 176.787 47.7336C177.415 47.7392 178.025 47.5273 178.514 47.1341L178.718 47.4981Z" fill="#2B2B2B"/>
<path d="M184.717 48.1725H184.213V45.2072C183.676 45.5549 183.05 45.7408 182.41 45.7425C182.145 45.7611 181.879 45.7203 181.632 45.6231C181.384 45.526 181.162 45.3748 180.981 45.1809C180.8 44.9869 180.665 44.7549 180.585 44.502C180.505 44.2491 180.484 43.9816 180.521 43.7192V41.7495H181.015V43.5801C181.015 44.7362 181.637 45.2393 182.528 45.2393C183.129 45.2213 183.712 45.0359 184.213 44.7041V41.7495H184.717V48.1725Z" fill="#2B2B2B"/>
<path d="M189.686 41.7495H190.093L192.862 48.1725H192.326L191.403 46.0315H188.344L187.421 48.1725H186.917L189.686 41.7495ZM188.548 45.4963H191.188L189.879 42.4132L188.548 45.4963Z" fill="#2B2B2B"/>
<path d="M199.483 47.4981C198.941 47.9716 198.24 48.2238 197.519 48.2046C196.661 48.2131 195.835 47.8813 195.222 47.282C194.609 46.6827 194.26 45.8652 194.252 45.0092C194.243 44.1532 194.576 43.3288 195.177 42.7175C195.777 42.1062 196.597 41.758 197.455 41.7495C198.146 41.7177 198.826 41.93 199.376 42.349L199.14 42.7237C198.73 42.4262 198.244 42.2498 197.738 42.2146C197.232 42.1794 196.726 42.2869 196.279 42.5247C195.831 42.7624 195.46 43.121 195.206 43.5593C194.953 43.9977 194.829 44.4983 194.847 45.0038C194.822 45.3678 194.873 45.733 194.998 46.0759C195.123 46.4188 195.318 46.7317 195.572 46.9942C195.826 47.2567 196.133 47.4629 196.472 47.5995C196.811 47.7361 197.175 47.8 197.541 47.7871C198.172 47.7908 198.785 47.5793 199.279 47.1876L199.483 47.4981Z" fill="#2B2B2B"/>
<path d="M200.889 41.7495H206.094V42.2205H203.744V48.1725H203.239V42.2526H200.889V41.7495Z" fill="#2B2B2B"/>
<path d="M211.781 42.2526H209.109L209.002 43.4409C208.637 47.7229 207.768 48.1939 206.963 48.119V47.6158C207.381 47.6158 208.229 47.4124 208.54 43.0448L208.626 41.7816H212.264V48.1725H211.77L211.781 42.2526Z" fill="#2B2B2B"/>
<path d="M215.301 48.1725V41.7495H215.795V47.2733L220.087 41.7495H220.527V48.1725H219.991V42.5952L215.698 48.1725H215.301Z" fill="#2B2B2B"/>
<path d="M223.543 41.7495H225.206C226.73 41.7495 227.213 42.4346 227.213 43.3231C227.218 43.6758 227.096 44.0186 226.87 44.2895C226.644 44.5605 226.328 44.7417 225.979 44.8004C226.183 44.7927 226.386 44.8275 226.576 44.9025C226.766 44.9775 226.938 45.0912 227.081 45.2362C227.225 45.3812 227.336 45.5544 227.409 45.7448C227.481 45.9352 227.513 46.1386 227.503 46.342C227.503 47.6051 226.537 48.1404 225.239 48.1404C224.702 48.1404 223.951 48.1404 223.586 48.1404L223.543 41.7495ZM224.037 42.2205V44.6291H225.271C225.449 44.65 225.63 44.6337 225.801 44.5814C225.973 44.529 226.132 44.4418 226.268 44.3251C226.404 44.2084 226.514 44.0648 226.592 43.9034C226.67 43.742 226.713 43.5663 226.719 43.3874C226.719 42.6166 226.237 42.1884 225.196 42.1884C224.799 42.2205 224.283 42.2419 224.037 42.2526V42.2205ZM224.037 45.0681V47.6373C224.294 47.6373 224.82 47.6373 225.217 47.6373C226.29 47.6373 226.966 47.1984 226.966 46.2884C226.966 45.3785 226.344 45.0681 225.249 45.0681H224.037Z" fill="#2B2B2B"/>
<path d="M230.647 44.2759H231.602C233.212 44.2759 233.963 45.0038 233.963 46.16C233.963 47.4767 233.018 48.1832 231.484 48.1832H230.142V41.7495H230.647V44.2759ZM230.647 44.7576V47.6373C230.926 47.6373 231.183 47.6373 231.538 47.6373C232.772 47.6373 233.437 47.1127 233.437 46.0957C233.437 45.0788 232.804 44.672 231.58 44.672C231.268 44.6826 230.956 44.7112 230.647 44.7576ZM235.154 41.7816H235.658V48.1725H235.154V41.7816Z" fill="#2B2B2B"/>
<path d="M238.674 41.7495H239.178L241.743 45.2286L244.2 41.7495H244.673V48.1725H244.179V42.6059L241.743 46.0315H241.657L239.167 42.638V48.1725H238.674V41.7495Z" fill="#2B2B2B"/>
<path d="M247.699 48.1725V41.7495H248.203V47.2733L252.496 41.7495H252.946V48.1725H252.442V42.5952L248.149 48.119L247.699 48.1725Z" fill="#2B2B2B"/>
</g>
<defs>
<clipPath id="clip0_1370_269">
<rect width="253" height="70" fill="white"/>
</clipPath>
</defs>
</svg>
