<svg width="61" height="80" viewBox="0 0 61 80" fill="none" xmlns="http://www.w3.org/2000/svg">
<path d="M30.5268 74.7859V39.9518L15.3528 48.7085L30.5268 74.7859Z" fill="#11372C"/>
<path d="M30.5268 39.7591V22.7382L0.114441 22.5027L30.5268 39.7591Z" fill="#1D5645"/>
<path d="M0.114441 22.5027L15.3528 48.7085L30.5268 39.9518V39.7591L0.114441 22.5027Z" fill="#154434"/>
<path d="M0.114441 57.4973L15.3528 48.7085L0.114441 22.5027" fill="#166046"/>
<path d="M0.329066 57.3689L0.114441 57.4973L30.4517 74.9679L30.5268 74.8394V74.7859L15.3528 48.7085L0.318335 57.3903" fill="#05442F"/>
<path d="M30.5268 5.0107L30.4946 5L0.114441 22.5027L30.5268 22.7382V5.0107Z" fill="#05442F"/>
<path d="M30.4517 74.9679L30.495 75L30.5275 74.9786V74.8394L30.4517 74.9679Z" fill="#0F3228"/>
<path d="M60.8211 22.4599L30.5268 5.01071V22.7382H60.3382L60.8211 22.4599Z" fill="#0F382D"/>
<path d="M30.5268 74.8394L45.8296 48.5158L30.6878 39.8555L30.5268 39.9518V74.8394Z" fill="#0D261F"/>
<path d="M60.8856 22.599V22.5027L60.8212 22.4599L60.3383 22.7382H60.7353H60.3383L30.6878 39.8555L45.8296 48.5158L60.8856 22.599Z" fill="#11372C"/>
<path d="M30.6894 39.8555L30.5268 39.7592V39.9518L30.6894 39.8555Z" fill="#0F3228"/>
<path d="M60.3382 22.7382H30.5268V39.7591L30.6878 39.8555L60.3382 22.7382Z" fill="#154434"/>
<path d="M60.8855 22.599L45.8296 48.5158L60.8855 57.1227V22.599Z" fill="#05442F"/>
<path d="M45.8296 48.5158L30.5268 74.8394V74.9786L60.8855 57.4973V57.1227L45.8296 48.5158Z" fill="#0F382D"/>
<path d="M46.0978 30.8847L30.5268 21.9139L14.9557 30.874L20.8472 34.2996V34.2782L30.5268 28.7116L40.1957 34.2782V34.3103H46.0978V30.8847Z" fill="#FF7833"/>
<path d="M40.1957 37.1257V45.4221L30.5268 50.9994L20.8472 45.4221V45.4114L14.9557 48.8263L30.5268 57.7971L46.0978 48.8263V37.1257H40.1957Z" fill="#FF7833"/>
<path d="M40.1957 37.1257H33.3706V42.7672H40.1957V37.1257Z" fill="#FF7833"/>
<path d="M44.0911 24.451H37.2661V30.0925H44.0911V24.451Z" fill="#FF7833"/>
</svg>
