<svg width="30" height="30" viewBox="0 0 30 30" fill="none" xmlns="http://www.w3.org/2000/svg">
<path d="M15 2.5C21.9038 2.5 27.5 8.09625 27.5 15C27.5 21.9038 21.9038 27.5 15 27.5C8.09625 27.5 2.5 21.9038 2.5 15C2.5 8.09625 8.09625 2.5 15 2.5ZM15 5C12.3478 5 9.8043 6.05357 7.92893 7.92893C6.05357 9.8043 5 12.3478 5 15C5 17.6522 6.05357 20.1957 7.92893 22.0711C9.8043 23.9464 12.3478 25 15 25C17.6522 25 20.1957 23.9464 22.0711 22.0711C23.9464 20.1957 25 17.6522 25 15C25 12.3478 23.9464 9.8043 22.0711 7.92893C20.1957 6.05357 17.6522 5 15 5ZM17.5 12.5C17.8315 12.5 18.1495 12.6317 18.3839 12.8661C18.6183 13.1005 18.75 13.4185 18.75 13.75V18.75H16.875V23.75H13.125V18.75H11.25V13.75C11.25 13.4185 11.3817 13.1005 11.6161 12.8661C11.8505 12.6317 12.1685 12.5 12.5 12.5H17.5ZM15 6.25C15.663 6.25 16.2989 6.51339 16.7678 6.98223C17.2366 7.45107 17.5 8.08696 17.5 8.75C17.5 9.41304 17.2366 10.0489 16.7678 10.5178C16.2989 10.9866 15.663 11.25 15 11.25C14.337 11.25 13.7011 10.9866 13.2322 10.5178C12.7634 10.0489 12.5 9.41304 12.5 8.75C12.5 8.08696 12.7634 7.45107 13.2322 6.98223C13.7011 6.51339 14.337 6.25 15 6.25Z" fill="#FF7833"/>
</svg>
