<svg width="30" height="30" viewBox="0 0 30 30" fill="none" xmlns="http://www.w3.org/2000/svg">
<path d="M24.2185 18.8786C25.0296 16.9515 25.2163 14.8186 24.7524 12.7799C24.2885 10.7412 23.1973 8.8991 21.6322 7.51268C20.0671 6.12625 18.1069 5.26519 16.0271 5.05056C13.9473 4.83593 11.8525 5.27852 10.0373 6.31611L8.7973 4.14486C10.6943 3.06063 12.8425 2.49282 15.0276 2.49808C17.2126 2.50335 19.358 3.0815 21.2498 4.17486C26.8623 7.41486 29.0123 14.3524 26.396 20.1374L28.0735 21.1049L22.8673 23.8724L22.6611 17.9799L24.2185 18.8786ZM5.78105 11.1211C4.96998 13.0482 4.78328 15.1811 5.2472 17.2198C5.71112 19.2586 6.80232 21.1006 8.3674 22.487C9.93247 23.8735 11.8927 24.7345 13.9725 24.9492C16.0523 25.1638 18.1471 24.7212 19.9623 23.6836L21.2023 25.8549C19.3053 26.9391 17.1571 27.5069 14.972 27.5016C12.787 27.4964 10.6416 26.9182 8.7498 25.8249C3.1373 22.5849 0.987305 15.6474 3.60355 9.86236L1.9248 8.89611L7.13105 6.12861L7.3373 12.0211L5.7798 11.1224L5.78105 11.1211ZM10.6248 17.4999H17.4998C17.6656 17.4999 17.8245 17.434 17.9417 17.3168C18.059 17.1996 18.1248 17.0406 18.1248 16.8749C18.1248 16.7091 18.059 16.5501 17.9417 16.4329C17.8245 16.3157 17.6656 16.2499 17.4998 16.2499H12.4998C11.671 16.2499 10.8761 15.9206 10.2901 15.3346C9.70404 14.7485 9.3748 13.9537 9.3748 13.1249C9.3748 12.2961 9.70404 11.5012 10.2901 10.9152C10.8761 10.3291 11.671 9.99986 12.4998 9.99986H13.7498V8.74986H16.2498V9.99986H19.3748V12.4999H12.4998C12.334 12.4999 12.1751 12.5657 12.0579 12.6829C11.9406 12.8001 11.8748 12.9591 11.8748 13.1249C11.8748 13.2906 11.9406 13.4496 12.0579 13.5668C12.1751 13.684 12.334 13.7499 12.4998 13.7499H17.4998C18.3286 13.7499 19.1235 14.0791 19.7095 14.6652C20.2956 15.2512 20.6248 16.0461 20.6248 16.8749C20.6248 17.7037 20.2956 18.4985 19.7095 19.0846C19.1235 19.6706 18.3286 19.9999 17.4998 19.9999H16.2498V21.2499H13.7498V19.9999H10.6248V17.4999Z" fill="#FF7833"/>
</svg>
