<svg width="30" height="30" viewBox="0 0 30 30" fill="none" xmlns="http://www.w3.org/2000/svg">
<path d="M9.705 24.0313C10.4425 23.7063 11.2675 23.645 12.04 23.8575C13.0025 24.12 13.9963 24.2525 15 24.25C20.7313 24.25 25 20.1413 25 14.625C25 9.10875 20.7313 5 15 5C9.26875 5 5 9.10875 5 14.625C5 17.4625 6.12 19.965 8.0825 21.72C8.43907 22.0358 8.72742 22.4211 8.92989 22.8523C9.13236 23.2835 9.24469 23.7514 9.26 24.2275L9.705 24.0313ZM15 2.5C22.0425 2.5 27.5 7.65875 27.5 14.625C27.5 21.5913 22.0425 26.75 15 26.75C13.7777 26.7531 12.5605 26.5917 11.3813 26.27C11.1598 26.2091 10.924 26.2263 10.7138 26.3188L8.23375 27.4138C8.08391 27.48 7.9201 27.5084 7.75672 27.4964C7.59333 27.4845 7.43538 27.4326 7.29675 27.3454C7.15812 27.2581 7.04305 27.1381 6.96166 26.9959C6.88028 26.8537 6.83506 26.6937 6.83 26.53L6.76125 24.305C6.75675 24.1697 6.72472 24.0368 6.66712 23.9143C6.60952 23.7918 6.52757 23.6823 6.42625 23.5925C3.99375 21.4188 2.5 18.2713 2.5 14.625C2.5 7.65875 7.95875 2.5 15 2.5ZM7.49375 18.1713L11.165 12.3463C11.3031 12.1269 11.4852 11.9387 11.6998 11.7933C11.9144 11.6479 12.1567 11.5486 12.4116 11.5016C12.6665 11.4546 12.9284 11.461 13.1807 11.5203C13.433 11.5796 13.6703 11.6906 13.8775 11.8463L16.7975 14.0338C16.9277 14.132 17.0863 14.1852 17.2494 14.1852C17.4125 14.1852 17.5711 14.132 17.7013 14.0338L21.645 11.0388C22.1713 10.64 22.8588 11.27 22.5063 11.83L18.835 17.655C18.6969 17.8743 18.5148 18.0626 18.3002 18.208C18.0856 18.3534 17.8433 18.4527 17.5884 18.4997C17.3335 18.5466 17.0716 18.5403 16.8193 18.481C16.567 18.4216 16.3297 18.3106 16.1225 18.155L13.2025 15.9675C13.0723 15.8692 12.9137 15.8161 12.7506 15.8161C12.5875 15.8161 12.4289 15.8692 12.2988 15.9675L8.355 18.9613C7.82875 19.36 7.14125 18.73 7.49375 18.17V18.1713Z" fill="#FF7833"/>
</svg>
