<svg width="30" height="30" viewBox="0 0 30 30" fill="none" xmlns="http://www.w3.org/2000/svg">
<path d="M25.1038 19.0003L26.6063 19.9015C26.699 19.957 26.7757 20.0356 26.829 20.1296C26.8823 20.2235 26.9103 20.3297 26.9103 20.4378C26.9103 20.5458 26.8823 20.652 26.829 20.746C26.7757 20.84 26.699 20.9185 26.6063 20.974L15.6438 27.5515C15.4494 27.6683 15.2269 27.73 15.0001 27.73C14.7733 27.73 14.5507 27.6683 14.3563 27.5515L3.39381 20.974C3.30112 20.9185 3.22439 20.84 3.17112 20.746C3.11785 20.652 3.08984 20.5458 3.08984 20.4378C3.08984 20.3297 3.11785 20.2235 3.17112 20.1296C3.22439 20.0356 3.30112 19.957 3.39381 19.9015L4.89631 19.0003L15.0001 25.0628L25.1038 19.0003ZM25.1038 13.1253L26.6063 14.0265C26.699 14.082 26.7757 14.1606 26.829 14.2546C26.8823 14.3485 26.9103 14.4547 26.9103 14.5628C26.9103 14.6708 26.8823 14.777 26.829 14.871C26.7757 14.965 26.699 15.0435 26.6063 15.099L15.0001 22.0628L3.39381 15.099C3.30112 15.0435 3.22439 14.965 3.17112 14.871C3.11785 14.777 3.08984 14.6708 3.08984 14.5628C3.08984 14.4547 3.11785 14.3485 3.17112 14.2546C3.22439 14.1606 3.30112 14.082 3.39381 14.0265L4.89631 13.1253L15.0001 19.1878L25.1038 13.1253ZM15.6426 1.63652L26.6063 8.21402C26.699 8.26951 26.7757 8.34808 26.829 8.44207C26.8823 8.53605 26.9103 8.64224 26.9103 8.75027C26.9103 8.8583 26.8823 8.96449 26.829 9.05848C26.7757 9.15246 26.699 9.23103 26.6063 9.28652L15.0001 16.2503L3.39381 9.28652C3.30112 9.23103 3.22439 9.15246 3.17112 9.05848C3.11785 8.96449 3.08984 8.8583 3.08984 8.75027C3.08984 8.64224 3.11785 8.53605 3.17112 8.44207C3.22439 8.34808 3.30112 8.26951 3.39381 8.21402L14.3563 1.63652C14.5507 1.51972 14.7733 1.45801 15.0001 1.45801C15.2269 1.45801 15.4494 1.51972 15.6438 1.63652H15.6426ZM15.0001 4.16527L7.35881 8.75027L15.0001 13.3353L22.6413 8.75027L15.0001 4.16527Z" fill="#FF7833"/>
</svg>
