<svg width="30" height="30" viewBox="0 0 30 30" fill="none" xmlns="http://www.w3.org/2000/svg">
<path d="M22.0224 7.46L23.8387 5.64375L25.6062 7.41125L23.7899 9.2275C25.5847 11.474 26.4511 14.3223 26.2113 17.1877C25.9715 20.053 24.6437 22.7177 22.5006 24.6347C20.3574 26.5516 17.5617 27.5751 14.6874 27.4951C11.8132 27.4151 9.07871 26.2376 7.04554 24.2044C5.01237 22.1712 3.83486 19.4367 3.75485 16.5625C3.67484 13.6883 4.69839 10.8925 6.6153 8.74939C8.53221 6.60626 11.197 5.27844 14.0623 5.03865C16.9276 4.79886 19.776 5.66529 22.0224 7.46ZM14.9999 25C16.149 25 17.2868 24.7737 18.3484 24.334C19.41 23.8942 20.3746 23.2497 21.1871 22.4372C21.9996 21.6247 22.6442 20.6601 23.0839 19.5985C23.5236 18.5369 23.7499 17.3991 23.7499 16.25C23.7499 15.1009 23.5236 13.9631 23.0839 12.9015C22.6442 11.8399 21.9996 10.8753 21.1871 10.0628C20.3746 9.25031 19.41 8.60578 18.3484 8.16606C17.2868 7.72633 16.149 7.5 14.9999 7.5C12.6793 7.5 10.4537 8.42187 8.81277 10.0628C7.17182 11.7038 6.24995 13.9294 6.24995 16.25C6.24995 18.5706 7.17182 20.7962 8.81277 22.4372C10.4537 24.0781 12.6793 25 14.9999 25ZM13.7499 10H16.2499V17.5H13.7499V10ZM9.99995 1.25H19.9999V3.75H9.99995V1.25Z" fill="#FF7833"/>
</svg>
