<svg width="330" height="598" viewBox="0 0 330 598" fill="none" xmlns="http://www.w3.org/2000/svg">
<g opacity="0.2">
<path opacity="0.97" d="M269.779 268.037C269.103 268.632 268.511 269.311 268.088 270.161C267.158 271.435 266.228 272.709 265.467 273.984C259.04 284.517 257.18 297.345 259.632 309.239C259.717 311.277 260.309 313.316 261.239 315.1C263.015 320.283 265.721 325.125 269.272 329.287C282.209 344.748 304.026 350.526 322.797 343.135C341.908 335.574 354.169 316.629 353.154 295.986C352.985 293.268 352.647 290.55 351.971 287.916C351.971 287.577 351.971 287.236 351.971 286.896C351.886 284.943 351.124 283.159 350.026 281.715C344.107 266.168 330.239 253.256 313.327 251.811C313.074 251.811 312.82 251.896 312.735 252.151C309.1 251.641 305.463 251.556 301.912 251.811C301.658 251.811 301.404 251.811 301.15 251.896C289.143 253.171 277.728 258.863 269.779 268.037ZM267.074 275.937C267.243 277.552 267.834 279.081 268.596 280.44C266.989 280.525 265.467 280.95 264.114 281.884C264.96 279.76 265.89 277.807 267.074 275.937ZM263.522 286.046C264.79 283.413 267.412 282.139 270.118 282.309C270.794 282.904 271.555 283.413 272.401 283.668C271.724 285.877 271.893 288.171 272.654 290.295C269.272 291.059 266.482 293.437 265.298 296.666C261.577 294.627 261.831 289.445 263.522 286.046ZM287.368 289.361C283.647 288.766 279.757 290.379 277.812 293.523C274.43 291.144 273.077 286.301 275.191 282.649C277.305 278.996 281.871 277.892 285.761 278.911C284.239 282.394 284.662 286.896 287.368 289.361ZM288.213 278.486C288.298 278.402 288.382 278.316 288.467 278.147C289.989 276.277 292.187 275.343 294.555 276.023C296.078 276.447 299.798 278.231 300.136 280.186C297.007 281.205 294.216 283.073 292.103 285.707C291.257 286.811 290.496 288.001 289.82 289.275C288.298 286.046 285.846 282.989 287.537 279.591C288.298 279.845 288.89 278.996 288.213 278.486ZM328.886 272.964C328.886 272.879 328.97 272.879 328.886 272.964C332.268 271.095 336.75 271.775 338.779 275.173C340.301 277.807 339.878 281.12 338.187 283.499C335.819 282.479 333.114 282.478 330.747 283.668C329.985 282.649 329.055 281.884 327.956 281.289C329.816 278.911 330.154 275.598 328.886 272.964ZM283.393 319.773C283.478 319.857 283.478 319.943 283.562 319.943C279.25 324.785 272.57 318.923 271.64 313.742C270.794 308.899 273.5 304.736 277.559 302.528C279.25 305.501 282.632 307.455 286.268 307.625C282.632 310.343 280.857 316.205 283.393 319.773ZM288.467 305.586C286.607 305.161 284.662 305.246 282.801 304.481C280.096 303.377 278.489 300.999 278.573 298.025C278.743 292.418 284.323 290.209 289.059 291.145C287.283 295.731 287.029 300.913 288.467 305.586ZM289.312 307.964C289.482 308.304 289.651 308.729 289.82 309.069C291.934 313.061 295.316 315.865 299.29 317.309C295.824 319.857 291.426 322.746 287.114 320.283C286.607 320.028 286.184 319.688 285.846 319.263C285.761 319.178 285.676 319.093 285.592 319.008C282.971 315.526 285.254 309.409 289.312 307.964ZM293.794 288.766C297.007 291.993 300.39 295.221 303.687 298.365C303.434 298.365 303.264 298.365 303.011 298.365C299.121 296.156 295.401 293.523 291.511 291.569C292.103 290.295 292.779 289.106 293.54 288.085C293.54 288.34 293.625 288.595 293.794 288.766ZM325.503 297.176C325.503 296.836 325.419 296.411 325.334 295.986C326.18 296.326 327.11 295.902 327.956 295.307C329.308 295.137 330.577 295.137 331.93 295.986C334.128 297.26 335.228 299.894 334.551 302.357C333.621 305.756 329.901 309.748 326.18 309.409C325.842 309.239 325.419 309.154 324.996 309.154C324.742 309.069 324.405 308.899 324.151 308.729C325.926 305.246 325.842 300.913 325.503 297.176ZM324.827 310.768C326.011 311.872 327.194 312.637 327.617 314.336C328.294 316.799 327.025 319.263 324.911 320.622C321.191 322.916 317.302 321.047 314.849 318.073C314.765 317.564 314.595 317.054 314.342 316.629C317.64 315.27 320.937 313.147 323.136 310.343C323.22 310.174 323.39 310.088 323.474 309.919C323.897 310.258 324.32 310.598 324.827 310.768ZM303.434 300.744C303.603 300.744 303.772 300.744 303.941 300.744C303.941 300.744 303.941 300.828 304.026 300.828C300.559 303.972 296.838 307.2 294.132 310.853C293.371 310.003 292.779 309.069 292.272 308.05C295.908 305.586 299.713 303.292 303.434 300.744ZM291.511 306.69C290.75 304.822 290.243 302.867 290.073 300.828C290.158 300.828 290.243 300.913 290.412 300.913C293.879 300.913 297.346 300.828 300.812 300.828C297.599 302.528 294.47 304.567 291.511 306.69ZM302.758 305.161C301.32 308.135 299.798 311.108 298.107 314.081V314.166C297.007 313.571 295.993 312.807 295.147 312.042C297.853 310.088 300.39 307.709 302.758 305.161ZM305.632 303.632C305.801 307.795 305.97 311.872 306.224 316.034C304.787 316.034 303.264 315.95 301.827 315.61C301.066 315.44 300.39 315.186 299.713 314.931C301.743 311.277 303.772 307.455 305.632 303.632ZM300.727 318.668C300.981 318.413 301.066 318.073 300.981 317.818C304.533 318.754 308.423 318.668 312.143 317.479C312.312 317.394 312.397 317.394 312.566 317.309C312.651 319.263 312.989 321.047 312.312 323.001C311.552 325.209 309.86 326.909 307.577 327.419C301.912 328.693 300.727 323.17 300.727 318.668C300.727 318.754 300.727 318.668 300.727 318.668ZM307.831 294.542C307.746 290.379 307.577 286.301 307.323 282.139C309.1 282.394 310.791 283.073 312.566 284.178C310.875 287.575 309.352 291.059 307.831 294.542ZM308.423 305.246C308.846 306.435 309.184 307.709 309.606 308.899C310.283 310.938 310.875 313.147 311.72 315.1C310.283 315.526 308.846 315.865 307.408 315.95C307.661 311.872 307.831 307.795 307.915 303.717C308.084 304.396 308.338 304.991 308.423 305.246ZM310.029 305.925C309.775 305.246 309.606 304.396 309.269 303.547C312.228 306.351 315.188 309.069 318.063 311.958C317.302 312.466 316.54 312.977 315.78 313.402C314.849 313.911 313.919 314.336 312.989 314.76C312.228 311.703 311.044 308.814 310.029 305.925ZM311.974 303.292C315.441 304.651 319.246 305.501 322.713 306.096C322.544 306.775 322.291 307.455 321.868 308.05C321.191 309.239 320.177 310.258 318.992 311.108C316.794 308.559 314.426 305.841 311.974 303.292ZM322.967 305.076C318.569 303.886 314.426 302.102 310.198 300.744C314.511 300.744 318.908 300.744 323.22 300.744C323.22 302.102 323.22 303.632 322.967 305.076ZM312.735 298.62C316.117 297.515 319.585 295.902 322.544 294.372C322.967 295.902 323.136 297.6 323.22 299.299C319.754 298.96 316.286 298.789 312.735 298.62ZM314.68 296.241C313.243 296.75 311.72 297.091 310.283 297.6C310.283 297.6 310.283 297.6 310.283 297.515C313.327 294.457 316.371 291.314 319.5 288.34C320.853 289.869 321.783 291.569 322.375 293.437C319.754 294.372 317.217 295.307 314.68 296.241ZM309.269 295.816C310.875 292.079 312.312 288.34 313.497 284.517C313.497 284.433 313.497 284.433 313.497 284.348C313.581 284.348 313.666 284.262 313.666 284.262C315.441 285.112 317.132 286.046 318.654 287.575C315.357 290.04 312.312 292.928 309.269 295.816ZM317.471 282.139C317.132 282.309 316.879 282.564 316.54 282.818C315.272 282.139 313.919 281.629 312.481 281.46C309.691 279.845 306.563 279.25 303.518 279.591C304.449 275.853 307.746 272.709 311.805 273.644C313.666 274.069 315.188 275.343 316.202 276.872C316.625 277.552 317.725 280.525 317.471 282.139ZM305.209 281.97C305.294 285.877 305.294 289.7 305.378 293.608C304.026 289.869 302.335 286.046 300.39 282.904C301.912 282.309 303.518 281.97 305.209 281.97ZM305.463 296.241C305.378 296.241 305.294 296.326 305.294 296.411C301.996 293.182 298.529 290.209 294.978 287.406C294.809 287.236 294.555 287.236 294.386 287.236C295.824 285.538 297.515 284.262 299.459 283.328C300.727 287.661 303.011 292.248 305.463 296.241ZM300.475 298.365C297.599 298.365 294.809 298.45 291.934 298.534C291.765 298.45 291.595 298.45 291.426 298.45C291.004 298.534 290.496 298.534 290.073 298.62H289.989C290.073 296.921 290.327 295.221 290.835 293.523C290.919 293.268 291.004 292.928 291.173 292.673C293.879 295.052 297.176 296.836 300.475 298.365ZM299.036 320.112C298.867 322.491 299.036 324.87 300.39 326.824C300.812 327.419 301.32 327.929 301.827 328.353C300.981 332.345 293.963 332.94 291.173 331.497C287.452 329.627 286.86 326.314 286.776 322.576C290.581 324.275 295.401 322.661 299.036 320.112ZM298.444 333.365C300.812 332.516 302.841 331.071 302.926 328.948C304.28 329.627 305.886 329.882 307.408 329.627C308 329.542 308.507 329.372 309.1 329.203C310.198 331.071 312.058 332.516 314.088 333.11C312.566 335.489 310.368 337.273 307.577 337.868C306.14 338.123 304.618 338.038 303.18 337.613C302.589 337.443 297.938 334.384 298.107 334.215C298.361 333.96 298.444 333.705 298.444 333.365ZM310.875 328.183C313.158 326.569 314.68 323.851 315.018 321.047C317.048 323.086 319.838 324.19 322.628 323.851C322.967 326.739 321.529 329.882 318.654 330.987C315.695 332.176 312.566 330.732 310.875 328.183ZM324.151 323.511C325.08 323.17 326.011 322.746 326.941 321.981C327.448 321.557 327.871 321.132 328.21 320.707C328.294 320.792 328.379 320.877 328.463 320.877C330.493 322.322 332.437 322.661 334.298 322.236C334.721 325.295 333.705 328.777 331 330.477C328.04 332.431 325.503 331.326 322.46 330.561C324.151 328.608 324.742 325.974 324.151 323.511ZM329.478 319.178C329.393 319.178 329.308 319.093 329.224 319.093C329.901 317.734 330.07 316.12 329.816 314.591C329.562 313.487 329.055 312.213 328.294 311.193C332.438 310.513 336.242 306.096 336.75 301.933C336.75 301.848 336.75 301.763 336.75 301.678C340.216 304.227 341.993 307.964 340.809 312.297C339.456 317.31 334.721 321.727 329.478 319.178ZM336.496 298.705C335.566 295.902 333.03 293.692 330.239 293.182C332.014 290.974 332.776 288.34 331.761 285.622C331.676 285.283 331.507 285.028 331.338 284.773C333.114 284.348 334.974 284.517 336.665 285.112C336.327 285.622 336.919 286.386 337.511 285.962C337.681 285.877 337.764 285.791 337.933 285.707C339.202 286.472 340.216 287.577 340.809 289.02C342.584 293.353 339.71 296.496 336.496 298.705ZM328.463 284.093C329.816 285.538 330.662 287.577 330.154 289.53C329.985 290.04 329.139 291.824 328.04 293.182C327.11 293.353 326.096 293.777 325.25 294.542L325.165 294.627C324.151 290.634 321.699 286.556 318.4 283.923C321.445 282.054 325.588 281.12 328.463 284.093ZM326.519 280.695C324.236 280.015 321.614 280.186 319.246 281.205C319.331 280.78 319.331 280.44 319.331 280.015C319.246 277.721 318.146 275.598 316.456 273.984C316.625 273.898 316.879 273.814 317.048 273.559C318.908 270.756 323.22 269.821 325.842 272.114C328.21 274.324 328.294 278.147 326.519 280.695ZM315.272 272.455C315.188 272.54 315.188 272.709 315.103 272.795L315.018 272.709C313.581 271.775 311.974 271.35 310.452 271.435C309.437 268.122 306.901 265.573 303.687 264.639C306.14 261.665 309.184 259.202 313.327 259.966C317.64 260.816 320.092 264.723 320.599 268.801C318.485 269.311 316.456 270.585 315.272 272.455ZM308.93 271.605C305.294 272.369 302.166 275.428 301.573 279.336C301.15 277.466 299.206 276.108 297.515 275.173C296.247 274.408 294.893 273.984 293.54 273.814C294.386 270.585 295.824 267.612 299.459 266.678C303.349 265.659 307.155 268.207 308.93 271.605ZM276.882 295.476C276.713 295.986 276.629 296.496 276.544 297.005C276.375 298.534 276.544 299.894 276.967 301.168C274.345 302.188 272.232 304.141 270.963 306.435C266.482 306.52 266.397 299.979 267.412 297.176C268.511 294.372 270.625 292.588 273.331 291.569C274.092 293.182 275.276 294.542 276.882 295.476ZM261.154 303.377C260.901 300.913 260.901 298.45 260.985 295.986C261.746 297.345 262.93 298.365 264.621 298.789C264.621 299.044 264.537 299.215 264.537 299.47C264.537 299.809 264.452 300.064 264.452 300.404C264.198 300.318 263.945 300.318 263.691 300.489C262.676 301.338 261.831 302.357 261.154 303.377ZM271.724 328.438C269.526 325.89 267.665 323.086 266.059 320.112C267.75 321.047 269.61 321.557 271.724 321.472C270.963 323.935 271.048 326.314 271.724 328.438ZM264.198 315.865C263.268 313.571 262.592 311.193 262 308.729C262.254 306.52 263.353 304.481 264.706 302.443C265.213 305.416 266.989 308.39 270.033 308.645C269.187 311.363 269.272 314.421 270.54 317.309C270.879 318.073 271.386 318.838 272.062 319.602C269.018 319.263 266.143 318.073 264.198 315.865ZM274.176 321.641C277.643 324.19 282.379 325.209 285 321.641C283.393 325.635 285.676 330.392 289.228 332.686C289.059 332.6 288.89 332.6 288.721 332.686C280.687 337.443 270.963 330.816 274.176 321.641ZM280.857 336.423C283.393 336.849 286.184 336.339 288.636 334.47C287.875 336.933 288.805 339.397 290.581 341.265C287.199 340.076 283.985 338.462 280.857 336.423ZM296.838 342.625C292.187 341.435 290.581 338.123 291.004 333.62C291.257 333.705 291.511 333.79 291.765 333.875C292.864 334.215 294.47 334.215 296.162 333.96C295.655 337.103 302.589 339.907 304.703 340.076C305.124 340.076 305.463 340.162 305.886 340.162C303.941 342.88 299.882 343.39 296.838 342.625ZM304.533 343.899C305.97 343.049 307.07 341.775 307.577 339.991C307.746 339.991 307.915 339.907 308.084 339.907L308.169 339.991C309.691 341.52 311.467 342.625 313.497 343.219C310.537 343.73 307.492 343.985 304.533 343.899ZM317.555 341.435C314.849 341.606 312.397 340.756 310.452 338.972C312.735 337.783 314.511 335.829 315.611 333.45C316.879 333.62 318.231 333.45 319.5 332.94C320.261 332.6 320.853 332.261 321.445 331.751C321.445 331.836 321.529 331.921 321.614 332.006C322.46 332.94 323.559 333.535 324.827 333.79C324.827 333.875 324.742 333.96 324.827 334.129C325.419 338.378 321.36 341.18 317.555 341.435ZM327.956 337.952C327.194 338.378 326.35 338.802 325.588 339.227C326.434 337.952 326.773 336.423 326.349 334.894C327.533 335.659 329.055 336.254 330.493 336.423C329.731 336.933 328.886 337.528 327.956 337.952ZM332.945 334.129C331.422 334.894 329.816 334.47 328.379 333.705C330.07 333.365 331.676 332.771 332.776 331.836C333.367 331.326 333.875 330.816 334.298 330.222C334.467 330.307 334.721 330.392 334.89 330.477C335.313 331.666 333.959 333.62 332.945 334.129ZM336.665 331.497C336.665 331.326 336.665 331.156 336.665 330.987C336.665 330.816 336.665 330.732 336.581 330.561C336.919 330.561 337.258 330.561 337.596 330.477C337.342 330.902 337.004 331.242 336.665 331.497ZM341.316 325.974C339.795 328.183 337.681 328.353 335.397 328.438C336.242 326.399 336.327 324.106 335.566 321.981C337.427 321.217 339.118 319.688 340.47 317.818C342.415 319.943 343.007 323.425 341.316 325.974ZM344.192 322.067C344.022 320.452 343.346 318.923 342.246 317.734C344.107 317.564 345.883 316.884 347.32 315.781C346.474 317.904 345.46 320.028 344.192 322.067ZM341.232 316.46C344.444 310.598 344.36 302.357 336.919 300.573C336.919 300.573 336.919 300.573 336.835 300.573C338.61 300.318 340.132 299.299 341.232 297.855C345.629 299.47 349.772 302.018 349.603 307.54C349.434 312.213 345.375 315.27 341.232 316.46ZM350.449 292.588C350.871 295.902 350.871 299.215 350.618 302.443C349.518 300.064 347.658 298.025 345.46 296.921C347.573 296.071 349.349 294.542 350.449 292.588ZM348.166 282.904C348.841 284.688 349.349 286.472 349.772 288.425C349.349 292.418 346.052 294.882 342.584 296.156C342.5 296.156 342.5 296.156 342.415 296.156C343.599 293.692 343.853 290.719 342.923 288.425C342.246 286.727 341.062 285.283 339.541 284.348C340.47 283.244 341.147 281.97 341.485 280.525C344.192 280.186 346.643 281.034 348.166 282.904ZM335.313 264.469C339.963 268.462 343.853 273.304 346.558 278.911C345.121 278.231 343.43 277.976 341.739 278.316C341.739 276.787 341.316 275.173 340.386 273.814C339.118 271.86 337.173 270.585 334.974 270.076C335.65 268.207 335.735 266.253 335.313 264.469ZM329.816 260.561C333.03 262.345 334.128 266.338 333.452 269.736C331.507 269.566 329.562 269.991 327.871 271.011C327.787 271.011 327.787 271.095 327.702 271.095C327.364 270.756 327.11 270.416 326.688 270.161C325.334 269.141 323.643 268.632 322.037 268.632C322.206 266.338 321.614 264.299 320.43 262.6C323.22 260.476 326.18 258.607 329.816 260.561ZM325.08 257.758C323.982 257.928 322.882 258.182 321.868 258.692C321.783 257.758 321.529 256.824 321.106 255.974C322.459 256.484 323.813 257.079 325.08 257.758ZM320.599 259.457C320.008 259.881 319.5 260.391 319.077 260.986C317.048 259.118 314.342 257.928 311.635 257.758C313.581 253.171 320.177 254.445 320.599 259.457ZM311.72 254.275C311.044 254.869 310.452 255.55 310.029 256.313C309.691 255.464 309.1 254.7 308.338 254.019C309.522 254.019 310.621 254.105 311.72 254.275ZM298.698 255.209C299.29 254.785 299.967 254.445 300.727 254.275C301.573 254.19 302.504 254.105 303.349 254.019C303.349 254.019 303.434 254.019 303.518 254.019C304.956 254.19 309.353 255.719 308.846 257.928C305.97 258.523 303.349 260.307 301.996 263.789C301.912 263.959 301.912 264.214 301.996 264.384C301.235 264.299 300.559 264.299 299.798 264.469C299.036 264.554 298.276 264.809 297.515 265.149C295.57 262.005 295.485 257.587 298.698 255.209ZM295.57 255.209C294.47 256.739 293.879 258.523 293.794 260.391C292.441 258.863 290.75 257.842 288.89 257.334C291.004 256.484 293.287 255.803 295.57 255.209ZM285.93 259.371C289.397 258.777 292.272 260.646 294.132 263.28C294.386 264.299 294.893 265.233 295.57 266.168C294.809 266.678 294.048 267.357 293.456 268.122C289.989 265.573 285.338 264.554 281.533 267.017C281.364 267.103 281.195 267.188 281.11 267.357C280.18 263.62 281.702 260.136 285.93 259.371ZM283.562 268.292C286.522 266.933 289.904 267.697 292.61 269.311C291.68 270.756 291.173 272.369 291.257 273.984C290.496 274.153 289.651 274.493 288.89 274.918C287.875 275.598 287.029 276.447 286.353 277.552C284.324 276.702 281.956 276.532 279.842 276.957C279.165 273.389 279.926 269.906 283.562 268.292ZM278.743 263.025C278.32 264.384 278.32 265.743 278.658 267.103C277.559 266.423 276.29 266.083 275.022 265.998C276.206 265.064 277.474 264.044 278.743 263.025ZM279.165 269.227C277.39 271.605 276.629 274.918 278.066 277.552C276.121 278.316 274.515 279.676 273.331 281.544C270.963 279.421 268.765 277.637 269.187 273.814C269.272 273.219 269.441 272.54 269.61 272.03C270.456 270.925 271.301 269.906 272.232 268.887C274.261 267.612 276.967 267.527 279.165 269.227Z" fill="white"/>
<path opacity="0.97" d="M8.21331 300.992C21.7552 299.891 33.2644 307.765 42.8277 316.486C51.6297 324.443 60.0075 332.656 69.5708 339.768C88.1051 353.483 109.855 363.643 133.129 365.166C141.338 365.674 149.632 365.166 157.587 363.558C152.171 366.268 146.923 369.23 142.015 372.702C132.705 379.221 125.427 387.263 119.672 397C113.325 407.668 107.655 419.012 104.693 431.119C101.561 443.734 101.477 456.857 100.715 469.811C99.8688 484.372 98.007 499.189 90.4749 511.973C89.7978 513.074 91.0673 514.259 92.1675 513.666C113.833 500.882 139.561 500.375 163.85 496.903C175.783 495.21 187.631 492.67 198.802 487.844C210.397 482.764 221.314 475.568 230.792 467.186C237.648 461.09 243.91 453.894 247.803 445.512C241.879 487.59 248.988 533.223 281.063 563.618C290.796 572.846 303.406 582.159 303.998 596.806C304.083 598.245 305.944 598.414 306.452 597.145C315.084 574.878 337.596 561.924 351.476 543.213C366.625 522.895 375.85 497.073 374.833 471.588C374.495 464.307 373.311 457.111 371.194 450.254C373.987 454.571 376.95 458.719 380.25 462.614C387.359 471.165 395.992 478.277 405.64 483.864C424.766 494.956 446.685 499.696 468.52 500.798C482.907 501.559 497.718 501.475 511.005 507.486C511.935 507.909 513.544 506.893 512.697 505.792C504.742 495.379 504.065 481.749 502.626 469.218C501.103 456.264 499.664 443.311 496.787 430.527C491.624 407.16 480.961 385.825 463.019 369.654C457.941 365.082 452.271 360.68 446.262 357.124C462.173 361.441 478.845 362.372 495.179 359.832C506.18 358.14 516.929 354.922 527 350.181C538.255 344.932 548.326 337.566 558.482 330.455C571.092 321.565 583.787 312.76 596.397 303.87C597.158 303.362 597.243 302.177 596.397 301.754C575.409 290.155 560.175 271.275 541.894 256.205C533.263 249.093 523.869 242.828 513.29 238.934C501.272 234.531 488.239 233.346 475.544 234.785C469.281 235.463 463.103 236.817 457.094 238.68C472.159 225.556 481.807 207.1 489.423 188.898C494.163 177.637 497.972 165.953 500.765 154.016C503.304 143.264 504.996 132.257 507.619 121.59C510.582 109.398 514.897 97.3762 522.852 87.5552C523.53 86.7085 522.937 85.0153 521.668 85.5232C497.126 94.921 470.381 94.1589 444.824 98.4768C432.467 100.593 420.28 103.98 409.279 110.245C398.785 116.171 389.814 124.384 382.113 133.528C378.557 137.76 375.172 142.248 372.04 146.82C378.049 126.331 376.78 104.234 368.91 84.2533C360.87 63.8495 346.821 46.4088 331.503 30.9154C322.447 21.7718 312.292 13.1361 307.383 0.859847C306.96 -0.156115 305.352 -0.410104 305.014 0.859847C302.136 12.2048 292.827 19.9092 284.618 27.6135C275.477 36.0799 268.199 45.7315 262.106 56.6531C249.58 78.7502 238.494 103.472 239.086 129.463C239.171 134.713 239.848 139.877 240.948 144.957C229.608 129.463 212.004 118.711 195.501 109.568C185.6 104.065 175.19 100.763 164.019 99.2387C152.255 97.6301 140.407 97.6301 128.559 96.6988C115.356 95.5983 102.154 93.0584 90.7288 86.0313C89.7131 85.354 88.359 86.7085 89.0361 87.7245C102.492 108.467 100.715 134.289 104.524 157.742C106.47 169.594 110.024 180.77 116.626 190.844C123.565 201.428 131.859 211.418 140.238 220.816C148.193 229.705 156.995 237.917 166.896 244.605C157.164 241.557 147.262 238.934 137.106 238.934C125.089 238.934 113.748 243.167 102.577 247.061C91.9981 250.701 81.4193 254.597 71.5178 259.93C61.4468 265.348 52.9833 272.714 44.1814 279.911C33.2644 288.885 21.7552 295.658 7.8749 298.537C6.52127 298.791 6.85968 301.077 8.21331 300.992ZM198.633 485.22C176.29 495.21 151.494 495.21 127.797 499.189C116.287 501.136 105.031 504.099 94.6217 509.518C105.116 488.521 101.985 464.138 105.201 441.449C107.062 428.58 111.717 416.642 117.895 405.212C123.819 394.291 130.59 384.469 140.576 376.85C150.647 369.23 162.242 363.897 173.667 358.732C174.175 359.748 174.682 360.764 175.275 361.695C168.42 364.828 161.48 369.57 159.026 377.019C157.164 382.692 158.179 389.042 162.411 393.19C156.318 397.424 153.271 405.212 155.471 412.408C156.91 417.065 160.126 420.79 162.242 425.108C162.58 425.786 162.834 426.463 163.088 427.225C156.233 423.923 148.024 424.6 141.422 428.58C133.636 433.236 129.659 442.295 130.505 451.185C132.282 470.657 155.81 480.647 171.382 469.049C178.745 463.546 182.722 454.656 182.553 445.597C186.192 448.306 189.662 451.016 194.232 451.862C202.272 453.386 210.735 449.83 215.305 443.141C225.715 450.083 241.033 446.443 244.841 433.744C246.28 434.676 247.803 435.522 249.327 436.199C249.327 436.284 249.242 436.368 249.242 436.538C249.242 436.622 249.242 436.622 249.242 436.707C241.117 459.227 219.875 475.737 198.633 485.22ZM105.708 301.415C112.563 301.331 115.272 306.748 116.964 313.013C116.88 313.098 116.795 313.183 116.71 313.267C110.278 320.634 101.308 328.847 90.6441 326.476C81.2501 324.359 74.8182 315.215 73.4641 306.071C71.8561 295.573 76.6801 283.974 87.3435 280.419C97.3299 277.032 110.871 282.874 116.88 291.17C114.679 295.658 111.379 298.96 105.793 298.96C104.1 298.96 104.1 301.415 105.708 301.415ZM111.125 300.229C116.626 297.605 119.842 291.255 121.534 285.414C123.058 280.08 123.904 273.984 127.628 269.581C130.759 265.856 136.937 263.147 141.253 266.619C141.93 267.211 143.03 267.042 143.284 266.11C146.416 254.681 159.11 250.193 169.097 256.205C169.351 256.374 169.604 256.374 169.858 256.374C169.604 257.983 169.52 259.591 169.52 261.285C159.618 260.099 149.886 264.756 143.623 272.29C137.106 280.249 134.737 290.916 135.329 301.077C136.598 321.395 149.886 341.546 170.705 345.609C170.789 346.964 170.874 348.403 171.043 349.758C165.627 353.059 159.026 354.245 153.102 351.621C146.839 348.827 142.777 342.562 142.523 335.789C142.523 334.941 141.761 334.433 140.999 334.603C135.752 335.789 130.251 334.349 126.274 330.708C122.042 326.814 121.111 321.226 120.096 315.892C118.911 310.136 116.456 303.108 111.125 300.229ZM166.304 208.285C155.556 204.814 162.411 190.844 164.865 184.072C165.034 183.648 165.119 183.31 165.288 182.887C165.542 182.633 165.627 182.293 165.542 182.039C167.235 175.605 166.05 170.103 163.003 164.43C168.25 165.192 173.074 164.599 177.644 162.99C177.983 163.244 178.575 163.244 178.829 162.736C178.829 162.652 178.914 162.567 178.914 162.482C182.299 161.128 185.6 159.265 188.816 156.979C193.047 154.1 197.533 150.798 202.864 150.798C208.873 150.798 214.459 154.863 216.574 160.45C216.828 161.128 217.675 161.636 218.352 161.128C228.254 154.016 241.541 158.419 245.772 169.424C244.333 170.356 242.979 171.372 241.71 172.557C241.371 172.811 241.117 173.149 240.863 173.404C228.423 162.821 208.958 162.059 194.909 169.594C180.268 177.468 170.874 193.384 171.636 210.063C172.059 219.376 175.359 229.282 181.622 236.309C180.606 237.071 179.676 237.832 178.829 238.68C178.745 238.595 178.575 238.51 178.406 238.425C166.219 234.869 160.803 221.07 167.319 210.063C167.489 209.386 167.066 208.539 166.304 208.285ZM159.364 163.329C162.58 168.409 164.865 173.574 163.511 179.754C163.426 180.347 163.257 180.939 163.088 181.447C158.349 182.293 154.032 183.225 149.124 182.124C144.131 181.024 139.307 178.483 135.921 174.674C128.305 166.038 132.282 151.731 138.714 143.602C145.062 135.559 156.148 131.749 165.881 135.728C175.867 139.708 180.691 150.545 177.729 160.535C172.313 162.567 166.473 162.905 160.718 161.551C159.787 161.297 158.772 162.398 159.364 163.329ZM274.123 120.659C277.509 116.594 282.163 114.986 287.072 113.546C293.165 111.769 300.613 108.89 302.474 102.456C307.13 107.705 314.831 108.89 321.347 110.922C331.841 114.14 344.028 123.029 339.713 135.644C339.543 136.152 339.797 136.83 340.305 136.999C346.145 139.708 351.306 144.11 353.761 150.121C356.131 156.048 355.199 162.398 351.814 167.562C350.883 167.393 349.953 167.224 348.936 167.139C348.006 167.055 347.075 166.97 346.06 166.97C350.207 161.128 345.975 152.154 342.675 146.82C338.273 139.708 331.672 133.951 324.056 130.395C308.822 123.198 291.303 126.161 278.778 137.422C271.838 143.687 266.761 152.238 265.322 161.467C265.068 162.99 267.353 163.667 267.691 162.144C268.284 158.927 269.299 155.794 270.653 152.831C274.123 155.371 278.016 157.233 281.317 160.027C284.702 162.821 287.749 166.038 290.457 169.509C293.334 173.32 295.789 177.383 297.651 181.701C291.98 172.134 282.333 164.938 270.569 163.582C265.83 163.075 261.006 163.413 256.351 164.599C256.351 164.345 256.351 164.176 256.182 163.922C249.75 152.408 255.928 138.438 268.876 135.728C269.384 135.644 269.807 135.051 269.807 134.543C269.469 129.633 270.823 124.638 274.123 120.659ZM293.673 108.721C287.241 102.456 283.941 93.397 286.649 84.5073C289.188 75.8716 297.566 69.9452 306.452 69.3525C315.592 68.76 323.633 74.517 326.764 83.0681C328.287 87.1319 328.541 91.7037 327.272 95.8523C326.086 99.7467 323.294 104.911 320.163 108.044C318.893 107.705 317.708 107.366 316.439 107.028C311.192 105.504 305.606 103.726 302.813 98.6462C302.221 97.5455 300.528 98.0535 300.528 99.2387C300.528 104.149 297.566 106.858 293.673 108.721ZM445.754 155.709C439.83 159.011 433.567 158.503 427.22 157.233C426.712 151.9 425.02 146.904 425.189 141.485C425.443 135.305 428.152 129.718 433.313 126.246C442.708 119.812 455.656 122.521 463.611 130.057C470.89 136.999 474.529 147.497 472.497 157.402C470.127 168.578 458.957 178.314 447.446 172.98C445.416 167.901 444.57 162.652 447.446 157.402C448.04 156.302 446.854 155.117 445.754 155.709ZM444.061 159.18C442.623 164.007 443.469 168.832 445.247 173.489C445.078 173.997 445.162 174.589 445.754 174.843C446.854 177.468 448.209 180.008 449.478 182.462C452.017 187.204 454.725 192.538 454.218 198.04C453.794 203.036 451.002 207.947 445.754 208.878C444.993 209.047 444.655 210.063 444.993 210.656C448.463 216.751 450.155 224.541 446.854 231.06C444.146 236.394 438.307 239.78 432.383 239.272C431.283 237.748 430.013 236.309 428.744 234.954C442.877 225.979 443.046 205.83 436.445 192.115C428.49 175.689 410.125 166.292 392.184 169.171C384.904 170.356 376.611 174.081 372.972 180.77C370.771 177.891 368.232 175.436 365.355 173.32C367.471 169.001 370.602 164.938 375.003 162.905C380.081 160.535 386.344 161.297 390.321 165.276C390.998 166.038 392.014 165.53 392.353 164.768C396.838 153.592 411.225 155.709 420.449 157.911C428.321 160.027 436.529 161.974 444.061 159.18ZM494.333 292.61C496.532 294.981 499.325 296.758 502.372 297.944C499.241 299.637 497.126 302.939 495.855 306.579C494.84 306.241 493.74 307.68 494.586 308.696C494.756 308.865 494.84 309.035 495.009 309.204C494.502 310.982 494.248 312.76 493.994 314.453C493.316 320.465 493.402 327.407 488.747 331.979C484.6 336.043 478.168 337.143 472.92 334.772C472.244 334.518 471.228 334.687 471.059 335.535C469.874 343.154 464.373 349.419 457.179 351.875C448.378 354.838 441.269 350.181 434.075 345.694C434.413 344.425 434.753 343.154 435.007 341.884C435.091 341.969 435.26 342.054 435.43 342.054C443.384 344.678 453.032 342.392 460.057 338.329C467.759 333.926 473.428 326.814 476.559 318.517C482.822 301.754 478.506 280.08 464.289 268.481C457.688 263.147 447.531 259.252 438.984 261.623C439.069 260.268 439.069 258.999 438.984 257.729C439.153 257.644 439.322 257.56 439.407 257.475C449.647 248.162 465.727 252.987 469.451 266.195C469.704 267.127 470.805 267.381 471.482 266.704C476.559 261.962 484.262 264.248 486.715 270.513C488.493 275.169 488.07 280.334 489.677 285.074C490.524 287.615 491.878 289.901 493.485 291.848C493.485 292.187 493.91 292.695 494.333 292.61ZM509.565 297.012C508.804 296.843 508.127 296.843 507.45 296.758C503.303 296.166 499.41 294.218 496.448 291.255C503.811 286.176 512.02 279.149 521.245 279.911C530.554 280.757 537.579 289.393 537.325 298.537C537.071 307.934 530.131 316.909 520.822 318.94C511.512 320.972 503.557 314.876 497.633 308.358C499.156 303.616 502.034 299.045 507.112 299.129C507.789 299.214 508.466 299.298 509.227 299.298C510.666 299.468 511.005 297.266 509.565 297.012ZM447.871 395.73C453.032 397.424 454.218 403.774 453.202 408.514C451.933 414.018 447.871 418.504 445.078 423.246C442.115 428.411 440.253 435.437 442.961 440.77C437.375 439.67 431.537 442.38 426.374 444.92C418.419 448.899 404.031 453.556 399.631 442.041C399.377 441.364 398.531 440.855 397.853 441.279C386.259 449.237 370.264 442.38 368.486 428.24C368.486 428.156 368.486 428.156 368.486 428.071C379.15 420.367 386.005 407.668 385.413 393.867C385.413 393.275 385.329 392.767 385.329 392.174C386.005 395.053 386.513 397.932 386.851 400.98C387.951 410.293 389.137 420.452 382.705 428.156C382.451 428.411 382.451 428.749 382.536 429.003C380.166 427.479 377.965 425.701 375.596 423.754C374.749 423.077 373.311 423.923 373.987 425.023C378.472 432.136 388.629 435.522 396.584 436.03C406.57 436.622 416.557 432.813 424.511 426.886C438.561 416.388 448.124 396.746 438.73 380.152C434.668 372.956 427.558 367.283 419.265 366.522C419.857 366.097 420.365 365.674 420.957 365.251C421.211 365.336 421.55 365.42 421.889 365.251C429.844 361.78 439.661 363.389 445.501 369.993C451.34 376.596 451.679 386.671 447.193 393.952C446.77 394.714 447.193 395.476 447.871 395.73ZM447.871 442.803C442.877 439.332 443.469 432.559 445.585 427.479C454.133 424.769 463.78 426.463 469.62 433.659C475.46 440.941 476.136 451.523 471.228 459.481C466.404 467.355 455.572 473.705 446.262 470.403C435.599 466.594 433.06 454.487 432.975 444.497C432.975 444.412 432.975 444.412 432.975 444.327C437.629 442.634 442.285 442.041 446.6 444.92C447.955 445.766 449.14 443.649 447.871 442.803ZM340.474 465.238C341.658 469.98 341.066 475.059 338.442 479.293C335.226 484.373 329.895 485.812 324.479 487.335C316.778 489.622 310.261 493.856 305.606 500.29C303.914 493.685 295.619 490.553 289.357 489.198C283.941 488.098 278.101 487.082 274.546 482.426C271.246 478.107 270.484 472.182 272.769 467.186C273.108 466.424 272.685 465.238 271.669 465.323C265.576 465.577 260.244 461.598 257.79 456.095C255.251 450.592 255.674 444.412 257.028 438.655C258.974 438.993 261.006 439.247 263.121 439.247C263.121 449.322 267.438 459.143 275.224 465.662C283.941 472.943 296.042 475.737 307.214 475.145C317.962 474.551 328.625 470.573 336.158 462.699C343.013 455.502 347.329 445.597 345.636 435.522C345.636 435.522 345.636 435.522 345.636 435.437C347.16 435.437 348.683 435.353 350.207 435.184C355.538 439.501 358.923 446.443 358.077 453.301C357.654 456.857 355.962 460.244 352.661 461.937C348.767 463.969 345.044 462.869 340.897 463.376C339.966 463.63 339.713 464.731 340.474 465.238ZM305.69 504.692C308.314 500.036 312.038 496.141 316.608 493.347C323.633 498.258 330.149 504.099 330.149 513.497C330.149 523.91 322.109 530.599 312.122 531.446C302.728 532.208 293.419 527.551 289.272 518.916C285.041 510.111 288.003 499.696 296.127 494.279C296.296 494.194 296.465 494.025 296.55 493.856C300.952 495.802 303.998 498.681 303.491 504.015C303.236 505.284 305.098 505.707 305.69 504.692ZM161.565 441.279C168.081 438.909 174.344 440.009 179.929 443.734C180.945 453.725 175.867 464.223 166.812 468.964C157.587 473.79 145.146 471.673 138.206 463.884C131.267 456.01 130.759 442.718 137.783 434.676C144.046 427.479 154.963 425.701 163.596 429.257C164.357 432.897 163.934 436.876 160.549 438.993C159.449 439.67 160.21 441.703 161.565 441.279ZM175.529 438.57C172.143 437.384 168.589 437.13 165.119 437.724C166.388 435.522 166.642 432.813 166.219 430.103C166.558 429.934 166.642 429.342 166.219 429.003C166.135 428.919 166.05 428.919 165.965 428.834C165.458 426.378 164.442 423.923 163.257 421.891C160.634 417.319 156.91 412.832 157.079 407.245C157.248 401.826 160.21 397 164.95 394.376C165.881 393.867 165.627 392.767 164.95 392.259C159.787 388.365 159.449 380.744 162.326 375.326C165.373 369.739 170.959 366.268 176.629 363.728C177.221 364.489 177.814 365.251 178.491 365.928C167.15 383.031 167.996 409.107 183.315 423.5C198.633 437.893 221.991 438.824 240.356 430.188C241.371 431.119 242.471 432.051 243.572 432.813C238.494 443.48 225.799 448.306 215.897 440.517C215.305 440.009 214.374 440.009 213.951 440.77C208.619 449.66 196.686 452.2 188.139 446.612C186.107 445.258 184.246 443.818 182.384 442.38C182.384 442.295 182.384 442.126 182.384 442.041C182.299 441.195 181.453 441.026 180.86 441.279C179.083 440.178 177.391 439.247 175.529 438.57ZM200.072 270.259C204.811 272.206 215.644 275.254 217.844 267.973C219.96 260.862 208.365 257.983 203.711 256.882C196.94 255.189 189.916 254.427 182.976 254.597C190.339 252.226 197.702 249.855 205.573 251.379C213.274 252.903 223.683 260.608 221.398 269.666C219.029 279.064 207.519 280.165 200.072 276.947C192.37 273.646 186.531 267.465 181.368 261.116C187.377 264.502 193.64 267.634 200.072 270.259ZM179.168 257.051C178.998 256.797 178.745 256.458 178.491 256.205C184.584 256.205 190.678 256.628 196.686 257.729C200.325 258.406 218.436 261.454 215.22 267.888C213.274 271.783 206.588 270.09 203.541 269.073C200.495 268.058 197.533 266.704 194.655 265.264C189.408 262.808 184.246 260.014 179.168 257.051ZM177.475 223.102C177.137 223.186 176.967 223.44 176.967 223.694C175.444 219.969 174.428 216.074 174.005 212.01C174.09 212.01 174.175 212.01 174.259 211.926C174.344 211.841 174.428 211.841 174.513 211.757C174.852 211.587 174.852 211.164 174.767 210.91C175.359 211.164 176.036 211.249 176.713 211.164C177.391 211.164 178.152 211.164 178.914 211.164C180.014 211.164 181.114 211.249 182.13 211.333C184.923 211.587 187.715 211.926 190.424 212.518C195.501 213.534 200.41 215.143 205.149 217.175C211.412 219.884 216.913 223.525 222.075 227.758C223.768 229.452 225.545 231.06 227.323 232.669C227.407 232.753 227.492 232.923 227.576 233.007C214.374 221.831 193.724 218.191 177.475 223.102ZM223.26 231.737C210.65 227.165 196.263 227.758 184.415 234.446C183.992 234.7 183.653 234.869 183.315 235.123C180.945 231.737 178.829 228.266 177.306 224.541C177.475 224.625 177.644 224.71 177.898 224.625C187.038 222.508 196.178 222.085 205.403 224.117C212.004 225.641 217.759 228.35 223.26 231.737ZM210.65 214.297C209.381 213.111 208.196 211.841 206.927 210.656C202.695 206.507 198.379 202.274 194.147 198.126C189.916 193.977 185.854 189.152 181.03 185.765C180.945 185.681 180.86 185.681 180.776 185.681C182.13 183.648 183.653 181.701 185.43 179.923C189.07 176.197 193.301 173.149 197.956 170.949C197.956 171.034 197.956 171.118 197.956 171.118C196.602 186.95 201.933 201.682 210.65 214.297ZM199.225 170.356C203.034 168.747 207.181 167.732 211.412 167.393C216.151 166.97 220.721 167.478 225.207 168.578C213.951 185.765 213.359 209.047 223.43 226.827C223.26 226.658 223.006 226.488 222.837 226.234C222.075 225.472 221.229 224.625 220.467 223.864C207.519 209.132 198.294 191.437 199.818 171.118C199.733 170.695 199.479 170.441 199.225 170.356ZM192.793 199.48C197.025 203.628 201.341 207.778 205.657 212.01C208.365 214.635 211.158 217.26 213.866 219.885C210.481 217.852 206.927 216.074 203.287 214.635C197.956 212.518 192.37 210.91 186.615 210.147C183.822 209.809 181.114 209.555 178.321 209.47C176.967 209.47 175.19 209.132 173.836 209.724C173.836 208.624 173.751 207.524 173.836 206.422C174.175 199.396 176.375 192.538 180.099 186.696C183.653 191.352 188.646 195.332 192.793 199.48ZM227.238 230.467C221.906 222.085 218.521 212.772 218.013 202.697C217.336 190.675 220.806 179.161 227.069 169.086C231.385 170.356 235.616 172.303 239.594 174.589C231.639 182.971 227.238 195.671 225.799 206.761C224.614 215.735 225.63 225.302 229.777 233.261C229.523 233.007 229.354 232.838 229.1 232.584C228.507 231.906 227.83 231.229 227.238 230.467ZM227.746 212.349C228.169 200.581 232.4 187.204 239.848 177.976C240.864 176.791 241.879 175.689 242.979 174.674C242.979 174.843 243.064 175.012 243.233 175.182C243.318 175.351 243.487 175.436 243.656 175.605C243.656 175.689 243.656 175.859 243.656 176.028C243.741 176.197 243.741 176.452 243.826 176.706C244.503 182.802 241.541 187.796 238.24 193.131C235.024 198.295 232.57 203.798 231.554 209.894C229.946 220.223 232.739 232.075 240.779 239.188C240.102 239.865 239.594 240.542 239.171 241.304C238.24 240.457 237.224 239.611 236.209 238.765C230.285 231.314 227.407 222.001 227.746 212.349ZM273.023 216.243C278.947 210.401 272.938 199.903 268.961 194.994C264.222 189.152 258.213 183.733 251.696 179.416C260.752 181.701 269.13 184.833 275.562 192.2C280.64 198.04 287.664 211.503 280.217 218.276C279.201 219.207 277.847 219.969 276.408 220.477C274.293 220.223 272.092 220.477 270.061 221.493C269.892 221.577 269.723 221.662 269.553 221.747C267.607 221.747 265.83 221.577 264.222 221.239C259.567 220.139 255.674 216.921 252.966 213.111C246.788 204.645 246.788 193.892 246.364 183.902C251.865 197.956 264.814 224.202 273.023 216.243ZM246.872 178.06C252.627 182.293 258.128 186.527 263.121 191.691C265.914 194.485 268.538 197.533 270.484 201.004C272.092 203.882 274.885 210.656 272.177 213.704L268.115 215.228L267.014 214.381C266.253 213.874 265.576 213.026 264.899 212.349C263.46 210.91 262.275 209.301 261.09 207.608C258.974 204.561 257.197 201.259 255.589 197.956C253.812 194.4 252.119 190.76 250.511 187.035C249.157 184.241 248.142 181.024 246.872 178.06ZM305.521 129.209C305.521 129.04 305.437 128.955 305.437 128.871C306.283 128.871 307.13 128.871 307.976 128.871C316.353 129.209 324.563 132.426 331.164 137.591C326.679 139.962 322.616 144.533 319.485 148.344C315.761 152.831 312.715 157.826 310.43 163.244C307.214 170.695 305.267 178.653 303.914 186.696C303.914 179.33 303.744 172.049 303.914 164.684C304.083 158.757 304.252 152.831 304.506 146.904C304.844 141.062 305.69 135.051 305.521 129.209ZM343.521 154.948C338.612 154.694 333.196 156.979 328.879 159.096C323.886 161.551 319.4 165.022 315.677 169.171C311.615 173.743 308.145 179.33 305.69 185.256C307.13 178.399 308.822 171.626 311.53 165.192C313.9 159.688 316.947 154.525 320.755 149.867C324.225 145.635 328.625 142.671 332.433 138.861C332.942 139.285 333.45 139.708 333.873 140.216C337.343 143.518 340.305 147.412 342.42 151.646C343.013 152.746 343.605 154.016 344.113 155.371C344.113 155.117 343.859 154.948 343.521 154.948ZM344.367 155.625C345.805 159.434 346.652 163.667 344.367 166.97C344.367 166.97 344.367 166.97 344.367 167.055C339.713 167.139 335.057 167.986 330.657 169.171C325.325 170.61 319.654 172.303 315.254 175.689C310.769 179.076 308.229 184.156 306.283 189.236C305.352 191.606 304.59 193.977 303.914 196.432C303.914 196.009 303.914 195.671 303.914 195.248C303.998 194.908 304.083 194.485 304.083 194.146C307.383 185.85 310.599 177.637 316.778 170.864C320.247 166.97 324.394 163.752 329.048 161.382C333.873 158.842 338.781 158.165 343.859 156.556C344.198 156.386 344.367 155.963 344.367 155.625ZM304.083 129.04C303.067 134.459 303.151 140.131 302.813 145.635C302.474 151.815 302.305 157.911 302.136 164.091C302.051 169.509 301.967 174.928 301.967 180.347C301.036 173.997 299.428 167.647 297.397 161.636C295.704 156.64 293.673 151.646 291.303 146.989C289.442 143.433 286.987 139.285 283.433 136.999C289.357 132.511 296.465 129.548 304.083 129.04C304.083 128.955 304.083 129.04 304.083 129.04ZM290.372 148.683C292.827 153.508 294.858 158.588 296.55 163.752C299.597 173.065 301.29 182.633 302.221 192.369C302.221 192.284 302.221 192.2 302.136 192.2C300.528 183.394 296.635 175.182 291.219 168.07C286.395 161.805 279.117 154.439 271.415 151.731C274.123 146.396 277.847 141.655 282.417 137.845C285.549 141.232 288.257 144.449 290.372 148.683ZM302.39 211.757C318.047 209.216 314.323 236.224 313.9 244.945C313.9 245.03 313.9 245.03 313.9 245.03C313.9 245.114 313.9 245.114 313.9 245.199C313.562 245.114 313.223 245.114 312.968 245.03C312.968 244.945 312.968 244.86 312.968 244.69C312.292 240.119 311.699 231.06 304.76 232.075C298.497 233.007 299.512 241.304 301.967 245.199C300.952 245.284 299.851 245.368 298.835 245.537C295.027 235.463 284.364 214.635 302.39 211.757ZM325.748 212.941C326.764 215.058 328.118 216.837 329.811 218.276C323.633 219.545 319.4 226.742 316.778 233.938C317.37 224.541 315.931 213.619 309.16 210.232C309.245 210.063 309.329 209.809 309.329 209.555C309.329 197.194 313.477 183.225 326.595 179.076C332.433 177.214 339.035 177.976 344.959 176.875C339.882 180.431 335.48 184.833 331.841 189.744C327.187 196.094 322.024 204.899 325.748 212.941ZM358.669 179.416C359.685 180.262 360.7 181.108 361.631 181.87C366.456 185.681 369.502 190.337 370.602 196.432C373.141 210.401 364.678 222.254 358.331 233.769C356.469 234.108 354.607 234.7 352.915 235.463C348.767 237.409 345.551 240.626 342.675 244.267C344.113 240.542 345.044 236.648 344.79 232.584C344.621 228.689 343.267 224.964 340.812 222.17C341.743 222.17 342.675 222.085 343.605 221.916C351.814 220.562 358.161 214.127 360.785 206.338C363.916 197.448 362.223 187.966 358.669 179.416ZM370.687 239.949C370.771 239.865 370.771 239.865 370.687 239.949C375.172 245.03 373.311 252.056 368.74 256.543C365.863 259.337 362.647 261.623 359.431 263.994C356.808 265.179 354.438 266.533 352.661 267.973C351.983 266.873 351.222 265.856 350.46 264.84C354.522 261.793 360.362 254.597 354.945 250.617C349.868 246.892 344.621 251.633 341.574 255.697C340.812 255.104 340.051 254.512 339.204 253.918C342.589 248.501 346.06 242.828 351.476 239.188C356.723 235.632 364.762 234.192 369.841 238.934C369.418 239.442 370.095 240.288 370.687 239.949ZM362.394 394.121C359.685 385.74 352.83 377.358 343.436 380.575C346.737 377.189 347.667 372.024 347.075 367.283C346.737 364.659 346.06 362.203 345.044 359.748C347.16 361.78 349.53 363.558 351.899 364.997C355.453 367.029 360.108 367.96 364.001 366.691C371.702 374.733 375.85 385.74 374.749 396.915C374.157 402.841 371.956 408.176 368.655 413.087C366.54 416.304 364.086 419.352 362.054 422.569C365.27 413.51 365.27 403.18 362.394 394.121ZM335.057 406.482C338.019 413.764 343.352 419.944 349.953 424.261C343.859 422.992 338.104 421.806 332.518 418.843C320.84 412.662 313.138 401.911 311.107 388.957C314.323 386.756 316.608 383.115 317.708 379.39C318.977 375.156 319.4 370.585 318.977 366.097C320.84 370.162 323.294 374.056 325.578 377.189C328.625 381.422 333.027 384.894 338.189 383.623C332.18 389.126 332.01 399.117 335.057 406.482ZM339.797 453.047C335.903 450.423 331.757 448.306 328.287 445.004C325.071 441.956 322.362 438.485 319.994 434.845C315.507 427.733 312.461 419.775 309.499 411.901C309.414 411.393 309.329 410.885 309.245 410.377C315.338 424.431 327.61 435.014 344.451 435.607C344.451 435.691 344.367 435.776 344.367 435.861C344.282 441.703 342.929 447.121 340.559 451.862C340.474 451.862 340.389 451.777 340.305 451.777C339.543 451.693 339.119 452.624 339.797 453.047ZM339.204 454.317C336.581 458.635 333.196 462.36 329.048 465.323C329.048 465.154 328.964 465.069 328.879 464.9C316.947 451.439 313.053 434.845 310.43 417.827C312.968 425.277 316.015 432.474 320.586 438.824C323.294 442.634 326.51 446.189 330.234 449.153C332.264 450.762 336.074 453.894 339.204 454.317ZM327.61 466.17C321.686 470.149 314.408 472.436 306.622 472.774C305.606 472.774 304.591 472.774 303.66 472.774C303.66 472.689 303.66 472.689 303.66 472.605C304.506 460.582 305.014 448.475 305.69 436.368C306.198 426.802 306.96 417.15 307.214 407.499C307.468 408.26 307.637 409.022 307.891 409.785C309.414 429.934 313.815 451.016 327.61 466.17ZM301.882 472.689C293.334 472.266 284.533 469.811 277.762 464.561C290.203 456.604 299.681 443.903 304.167 429.68C304.083 431.882 303.914 434.167 303.829 436.368C303.151 448.391 302.39 460.498 301.882 472.605C301.882 472.689 301.882 472.689 301.882 472.689ZM268.199 450.677C270.315 451.354 272.092 450.169 273.954 449.237C276.493 447.883 278.947 446.359 281.317 444.666C285.802 441.449 289.78 437.638 293.334 433.321C298.92 426.463 303.151 418.504 305.437 409.954C305.183 413.594 304.929 417.235 304.76 420.96C301.459 438.147 291.642 453.556 276.493 463.376C269.553 457.281 265.745 448.391 265.745 439.247C266.168 439.247 266.591 439.162 267.014 439.162C278.439 437.978 289.188 432.982 296.55 424.008C298.92 421.044 300.951 417.827 302.559 414.441C300.19 420.367 297.059 425.955 292.996 430.95C290.034 434.676 286.649 438.062 282.925 441.026C280.894 442.634 278.693 444.158 276.493 445.512C274.631 446.612 271.077 449.406 268.876 448.814C267.438 448.306 266.93 450.254 268.199 450.677ZM307.214 406.991C307.214 406.313 307.214 405.72 307.299 405.043C307.383 405.382 307.553 405.72 307.637 406.143C307.637 406.482 307.722 406.737 307.722 407.075C307.553 406.906 307.383 406.906 307.214 406.991ZM305.69 388.534C297.82 389.634 296.212 381.761 295.535 375.75C294.689 369.145 295.45 362.711 297.143 356.361C297.143 356.277 297.228 356.107 297.228 356.023C297.82 356.107 298.412 356.192 299.005 356.277C296.55 360.68 300.275 369.823 305.69 369.993C308.399 370.077 310.853 368.045 311.868 365.674C313.223 362.626 312.461 359.324 311.53 356.361C312.884 356.192 314.238 356.023 315.592 355.769C316.778 361.695 317.37 367.622 316.693 373.633C315.761 379.898 312.799 387.602 305.69 388.534ZM275.054 387.771C279.54 387.687 283.856 384.894 286.649 381.168C289.188 377.781 291.134 373.802 292.658 369.654C292.658 373.125 292.996 376.596 293.673 379.983C294.604 384.3 296.465 388.28 299.935 390.057C298.751 403.774 291.134 415.118 279.032 421.721C273.362 424.769 267.268 426.463 260.921 427.563C260.667 427.563 260.413 427.648 260.244 427.648C267.691 422.569 274.462 415.118 278.101 407.245C281.063 400.472 280.047 392.767 275.054 387.771ZM247.972 418.504C244.587 412.324 239.679 406.482 237.648 400.386C235.786 394.799 235.955 388.703 237.732 383.115C238.663 380.321 239.933 377.697 241.625 375.241C243.487 372.617 245.941 370.924 248.057 368.637C248.142 368.553 248.142 368.553 248.142 368.468C253.135 368.807 258.213 366.268 262.275 363.135C263.375 362.288 264.391 361.357 265.491 360.426C264.222 363.389 263.291 366.437 262.867 369.57C262.19 374.31 263.037 379.56 265.999 383.2C259.905 382.438 253.473 385.232 250.004 390.565C247.211 394.968 246.788 400.472 246.703 405.551C246.618 409.869 247.126 414.187 247.972 418.504ZM237.563 360.934C227.576 368.045 216.236 372.024 203.88 368.468C197.617 366.606 192.793 363.135 188.054 358.901C187.292 358.224 186.615 357.632 185.769 357.039C193.978 359.409 203.118 359.748 210.904 356.446C217.336 353.738 223.599 347.642 223.514 340.445C226.73 343.493 231.723 344.425 236.04 343.831C240.271 343.239 244.249 341.461 248.057 339.514C248.819 339.175 249.496 338.752 250.257 338.329C242.979 344.763 235.363 353.822 237.563 360.934ZM217.167 336.804C213.189 330.201 204.303 337.058 199.902 339.175C194.401 341.8 187.546 343.746 182.13 347.133C186.277 341.206 191.608 336.127 197.871 332.571C205.488 328.253 217.251 327.068 220.637 337.312C223.514 345.948 214.628 352.975 207.35 355.092C198.971 357.547 190.931 355.346 182.638 353.991C190.424 352.975 198.21 351.197 205.657 348.996C210.227 347.642 221.398 344 217.167 336.804ZM303.66 244.605C303.151 242.574 301.967 240.711 302.051 238.51C302.136 236.055 303.829 233.6 306.536 234.446C310.684 235.717 310.769 241.473 311.53 244.945C309.752 244.776 308.06 244.86 306.283 245.03C305.437 245.03 304.506 245.03 303.66 245.114C303.66 244.945 303.744 244.775 303.66 244.605ZM312.884 247.484C312.968 247.569 313.053 247.653 313.223 247.653C313.815 247.653 314.408 247.738 315 247.738C315.507 247.823 316.015 247.908 316.524 247.993C316.778 248.078 317.031 247.993 317.201 247.908C318.385 247.993 319.654 248.078 320.84 248.162C321.009 248.162 321.093 248.162 321.178 248.078C329.557 250.447 337.258 254.427 343.605 260.523C352.068 268.65 357.231 279.488 358.838 291.086C359.093 293.203 359.262 295.32 359.347 297.435C359.178 297.69 359.178 297.944 359.347 298.198C359.516 314.369 352.915 329.947 341.151 340.699C340.474 340.529 339.882 341.122 339.966 341.8C337.004 344.34 333.788 346.54 330.234 348.403C329.811 348.234 329.471 348.488 329.387 348.827C329.217 348.911 329.048 348.996 328.879 349.081C308.991 358.732 285.379 355.092 269.215 340.106C252.966 325.036 248.057 301.585 256.097 281.011C257.536 277.371 259.313 273.984 261.429 270.852C261.683 270.682 261.937 270.344 262.021 270.005C265.745 264.756 270.4 260.354 275.647 256.797C275.901 256.712 276.154 256.543 276.324 256.289C286.903 249.347 299.935 245.961 312.884 247.484ZM343.182 257.051C345.551 254.173 349.021 249.686 353.169 251.972C358.077 254.597 352.661 260.946 349.699 263.825C349.191 263.231 348.767 262.639 348.175 262.046C346.652 260.183 344.959 258.575 343.182 257.051ZM403.354 348.065C406.909 349.419 410.632 349.842 414.441 350.181C415.795 350.265 417.233 350.435 418.673 350.605C412.325 353.567 405.386 356.192 398.446 354.584C390.829 352.805 384.735 345.863 388.205 337.904C388.29 337.82 388.29 337.651 388.374 337.566C388.883 336.889 389.221 336.212 389.56 335.45C393.96 329.27 402.931 328.422 409.532 331.893C415.118 334.772 419.603 339.598 422.735 345.102C418.842 342.646 414.694 340.614 410.378 339.09C406.655 337.735 396.669 333.249 394.129 338.583C391.844 343.323 400.054 346.794 403.354 348.065ZM369.587 340.106C363.07 338.752 357.484 334.941 351.645 331.809C352.661 330.285 353.676 328.676 354.522 327.068C358.584 328.676 365.779 330.285 367.386 324.867C368.909 319.534 363.409 316.993 359.093 316.231C359.601 314.623 360.024 312.929 360.362 311.236C365.608 313.013 370.856 314.538 375.681 317.247C380.673 320.041 387.951 325.29 387.867 331.724C387.867 340.36 375.596 341.377 369.587 340.106ZM355.453 325.205C356.723 322.666 357.823 320.041 358.669 317.417C360.108 317.924 361.462 318.432 362.732 319.194C364.424 320.295 366.286 322.751 364.932 324.867C362.986 327.999 358.584 325.799 355.453 325.205ZM360.108 285.499C364.17 285.499 369.502 281.434 367.725 276.947C365.863 272.206 360.108 273.476 356.638 275.084C355.877 273.392 354.945 271.698 354.015 270.005C354.945 269.496 355.792 268.989 356.638 268.396C360.531 266.279 364.509 264.502 369.079 263.825C375.003 262.893 382.705 263.316 384.651 270.259C386.428 276.694 381.604 283.128 376.104 286.007C372.126 288.122 367.725 288.885 363.578 290.662C362.732 290.916 361.885 291.17 361.039 291.425C360.954 289.478 360.531 287.445 360.108 285.499ZM359.685 283.805C359.008 281.265 358.161 278.809 357.146 276.44C359.685 275.761 364.255 274.492 365.61 277.709C367.217 281.434 361.8 282.451 359.685 283.805ZM348.09 336.55C351.053 338.583 354.861 341.292 352.915 345.271C350.883 349.334 345.974 344.509 342.929 341.969C344.79 340.275 346.483 338.498 348.09 336.55ZM330.572 350.605C331.672 351.875 332.772 353.144 333.365 354.753C334.042 356.7 333.704 359.494 331.672 360.595C328.71 362.118 326.086 358.986 324.732 356.784C324.056 355.769 323.633 354.669 322.955 353.822C325.494 352.975 328.118 351.875 330.572 350.605ZM300.613 356.446C303.744 356.7 306.96 356.785 310.092 356.446C310.515 358.732 310.938 361.103 310.43 363.389C309.923 365.59 307.806 368.299 305.183 367.791C302.897 367.283 301.459 364.405 300.867 362.372C300.275 360.341 300.782 358.478 300.613 356.446ZM289.442 354.245C288.172 357.463 283.687 365.759 280.471 361.188C278.27 357.97 280.809 354.245 281.317 351.028C283.941 352.298 286.649 353.398 289.442 354.245ZM269.215 343.154C267.607 344.848 266.845 347.048 264.645 348.319C261.767 350.011 258.044 349.165 257.959 345.356C257.959 342.562 259.99 340.529 262.106 339.09C262.698 338.752 263.291 338.413 263.798 338.075C265.576 339.852 267.353 341.546 269.215 343.154ZM252.627 283.213C251.358 282.197 249.665 282.027 248.311 281.18C246.703 280.165 245.264 278.556 245.433 276.524C245.518 274.323 247.38 273.476 249.327 273.561C250.935 273.646 253.897 274.238 254.743 275.677C254.997 276.101 255.589 276.017 255.843 275.761C254.658 278.217 253.643 280.757 252.796 283.382C252.712 283.297 252.627 283.297 252.627 283.213ZM263.545 264.163C260.921 261.539 256.266 258.491 258.721 254.173C261.598 248.924 268.453 254.173 270.061 257.644C270.061 257.729 270.146 257.729 270.146 257.814C267.861 259.676 265.576 261.877 263.545 264.163ZM281.317 250.363C280.386 248.755 278.863 247.569 278.016 245.791C276.831 243.251 277.932 240.626 280.725 240.119C285.379 239.188 287.834 243.928 289.357 247.399C289.357 247.484 289.442 247.484 289.442 247.569C286.649 248.416 284.025 249.432 281.402 250.701C281.402 250.617 281.402 250.532 281.317 250.363ZM290.542 247.315C290.542 247.23 290.542 247.145 290.542 246.976C289.272 241.982 284.787 236.394 279.032 238.849C273.277 241.219 275.985 248.839 280.217 251.379C278.609 252.226 277.085 253.072 275.562 254.003C272.6 249.601 269.638 245.368 267.691 240.288C265.745 235.038 264.814 227.165 270.315 224.033C272.346 223.864 274.462 223.525 276.324 222.931C280.64 223.44 284.787 226.404 287.58 229.536C291.473 234.023 293.588 239.611 295.958 244.945C296.127 245.284 296.212 245.622 296.381 245.961C294.35 246.299 292.404 246.722 290.542 247.315ZM268.538 248.247C270.146 251.041 271.838 253.495 273.446 255.358C272.685 255.866 272.008 256.374 271.246 256.966C269.384 252.141 261.937 247.061 257.62 252.056C253.643 256.712 257.705 263.231 262.36 265.602C261.598 266.449 260.921 267.381 260.244 268.312C255.251 265.941 250.681 262.724 246.872 258.66C242.641 254.173 236.801 245.707 243.148 240.373C248.565 235.886 256.689 239.103 261.852 242.405C264.476 244.098 266.676 246.045 268.538 248.247ZM249.834 266.11C251.273 266.788 252.712 267.55 254.15 268.396C254.404 268.481 256.774 269.836 258.213 270.428C258.213 270.513 258.128 270.513 258.128 270.598C258.128 270.682 258.128 270.682 258.128 270.767C258.044 271.021 258.128 271.19 258.297 271.359C258.213 271.444 258.213 271.529 258.128 271.613C257.366 272.884 256.689 274.153 256.012 275.508C256.012 275.423 256.012 275.338 256.012 275.169C255.335 273.053 252.119 272.121 250.088 271.783C247.719 271.359 245.095 271.867 243.826 274.069C242.641 276.186 243.148 278.979 244.503 280.842C245.941 282.789 249.411 285.074 251.95 284.736C252.119 284.736 252.204 284.651 252.373 284.567C251.865 286.345 251.358 288.207 251.019 289.985C250.935 289.985 250.935 289.901 250.85 289.901C242.218 286.345 221.145 283.636 225.376 269.496C227.492 262.47 235.193 261.031 241.541 262.724C244.418 263.486 247.126 264.756 249.834 266.11ZM250.257 292.102C250.427 292.102 250.511 292.102 250.681 292.102C250.511 293.203 250.427 294.218 250.257 295.32C246.195 293.541 238.155 294.303 238.071 300.06C237.986 306.156 245.433 307.342 250.173 305.987C250.257 307.088 250.427 308.273 250.596 309.373C243.91 311.067 237.648 313.522 230.623 313.353C223.768 313.183 214.628 310.728 215.474 302.262C216.913 287.615 233.416 288.885 245.349 290.832C247.126 291.34 248.819 291.764 250.257 292.102ZM250.088 303.955C246.618 304.209 241.54 305.31 240.44 300.908C239.256 295.997 247.211 295.743 250.004 296.843C250.088 296.843 250.088 296.843 250.173 296.843C249.919 299.214 249.919 301.585 250.088 303.955ZM250.935 311.744C251.95 316.909 253.643 321.988 256.097 326.73C256.012 326.73 256.012 326.73 255.928 326.814C254.404 327.745 253.473 328.931 251.527 328.931C249.58 328.931 247.972 327.914 247.211 326.137C246.534 324.443 246.788 322.326 247.972 320.888C249.157 319.534 250.935 319.279 252.204 318.094C252.543 317.84 252.289 317.247 251.865 317.247C246.534 317.078 243.148 323.343 245.687 327.83C246.872 329.947 249.157 331.047 251.527 331.047C253.473 331.047 256.012 330.116 256.943 328.338C257.366 329.016 257.79 329.777 258.213 330.455C256.859 330.539 255.505 332.148 254.489 332.825C251.696 334.772 248.819 336.466 245.772 337.904C239.509 340.952 229.015 344.594 224.107 337.312C219.452 330.455 227.576 322.92 232.739 319.194C234.939 317.586 237.224 316.231 239.594 315.13C243.487 314.369 247.38 313.098 250.935 311.744ZM246.364 345.609C250.342 340.868 255.166 336.889 260.582 333.841C260.921 334.349 261.344 334.857 261.683 335.366C262.021 335.873 262.444 336.296 262.867 336.72C261.598 337.312 259.652 338.583 259.482 338.752C258.213 339.768 257.113 341.037 256.52 342.562C255.589 344.932 255.758 347.811 257.536 349.758C261.598 354.076 269.807 349.504 270.653 344.34C271.584 345.102 272.431 345.779 273.446 346.456C273.277 346.54 273.192 346.794 273.192 347.048C271.584 349.334 270.061 351.705 268.622 354.161C268.199 354.584 267.776 355.007 267.522 355.261C265.237 357.632 262.783 359.917 260.075 361.865C255.081 365.42 248.142 368.214 242.725 363.812C236.293 358.563 242.471 350.265 246.364 345.609ZM272.261 352.805C273.023 351.875 273.869 350.774 274.293 349.673C274.716 348.996 275.139 348.403 275.562 347.811C276.916 348.657 278.27 349.504 279.709 350.181C276.662 353.229 276.07 361.78 280.386 363.982C285.718 366.606 289.865 359.071 290.88 354.669C292.15 355.007 293.504 355.346 294.858 355.599C294.858 355.599 294.858 355.684 294.773 355.684C294.266 357.378 293.842 359.155 293.504 360.934C291.896 366.183 289.865 371.431 287.156 376.173C283.856 381.93 276.916 388.365 270.146 383.623C260.075 376.596 266.253 362.457 272.261 352.805ZM324.902 371.431C323.294 368.722 321.939 365.928 320.84 363.051C319.824 360.51 319.231 357.801 318.047 355.43C318.047 355.346 317.962 355.346 317.962 355.261C318.893 355.007 319.824 354.753 320.755 354.499C321.432 357.124 323.717 360.257 325.748 361.695C327.948 363.304 331.08 363.897 333.365 362.118C337.766 358.732 335.565 352.975 332.095 349.758C333.365 348.996 334.719 348.234 335.903 347.471C335.903 347.642 335.988 347.811 336.072 347.896C336.92 349.588 337.935 351.197 339.119 352.805C340.982 356.023 342.675 359.409 343.69 362.965C345.467 368.891 345.72 377.443 339.119 380.66C332.518 383.877 327.779 376.342 324.902 371.431ZM349.953 360.68C345.128 356.785 341.489 351.875 338.104 346.794C337.935 346.625 337.766 346.456 337.596 346.371C338.865 345.44 340.136 344.509 341.32 343.493C344.79 346.964 351.391 352.467 354.692 346.879C357.569 341.969 353.084 337.82 348.936 335.619C349.445 334.941 349.953 334.349 350.46 333.672C355.368 336.55 359.854 340.106 363.409 344.594C367.048 349.165 371.787 357.209 366.709 362.542C361.969 367.453 354.438 364.32 349.953 360.68ZM367.217 345.779C365.948 343.916 364.593 342.223 363.07 340.614C366.202 341.969 369.418 342.815 372.888 343.069C376.865 343.408 381.688 342.562 385.243 340.275C384.228 346.879 388.459 352.975 394.891 355.599C404.454 359.578 414.441 355.092 423.073 350.859C423.412 350.859 423.75 350.944 424.088 350.944C422.65 351.705 421.295 352.636 419.942 353.652C415.288 357.293 410.632 360.257 404.877 361.865C393.199 365.166 380.673 362.288 371.279 354.669C371.194 354.584 371.025 354.499 370.941 354.499C370.348 351.282 368.91 348.234 367.217 345.779ZM411.818 347.557C408.771 347.217 405.893 346.625 403.016 345.44C401.661 344.848 400.308 344.254 399.123 343.493C397.853 342.646 393.114 339.514 398.785 338.075C400.731 337.566 404.708 339.26 406.57 339.768C409.448 340.614 412.325 341.715 415.034 342.9C418.334 344.339 421.381 346.117 424.342 347.98C424.342 348.065 424.427 348.15 424.427 348.234C420.365 347.811 415.964 347.98 411.818 347.557ZM406.824 328.507C401.154 326.73 394.722 327.745 390.321 331.47C390.237 325.968 385.329 320.972 381.181 317.924C378.219 315.723 374.918 313.946 371.448 312.506C381.858 313.522 393.537 311.998 396.584 302.431C408.093 303.447 414.694 314.369 419.519 323.936C422.227 329.27 422.65 334.433 423.581 340.191C423.919 342.392 424.511 344.932 425.697 346.964C425.528 346.879 425.359 346.71 425.189 346.625C422.396 338.667 414.779 330.962 406.824 328.507ZM394.468 301.161C390.829 312.929 372.634 310.982 362.309 309.288C361.8 309.119 361.293 309.035 360.87 308.865C360.954 308.273 361.039 307.68 361.124 307.088C361.208 307.173 361.293 307.257 361.462 307.342C365.355 308.696 372.04 306.325 371.194 301.331C370.856 299.383 369.333 297.775 367.555 296.928C365.609 296.081 363.578 296.251 361.631 296.674C361.631 295.743 361.546 294.896 361.462 293.964C367.725 292.102 374.41 289.393 380.927 289.393C387.444 289.478 397.007 292.779 394.468 301.161ZM361.208 305.817C361.462 303.955 361.547 302.008 361.631 300.06C361.631 299.468 361.631 298.875 361.631 298.198C364.509 298.029 368.148 298.198 368.995 301.161C370.264 305.733 363.832 305.056 361.377 305.733C361.377 305.817 361.293 305.817 361.208 305.817ZM392.776 290.324C390.913 289.054 388.714 288.122 386.428 287.615C383.889 287.022 381.435 286.938 378.897 287.107C379.912 286.514 380.842 285.837 381.688 284.99C384.989 281.942 387.274 277.709 387.444 273.223C391.167 277.032 396.922 278.471 402.762 277.032C408.178 275.592 412.579 272.121 416.641 268.396C420.703 264.671 424.682 260.777 428.744 256.882C425.189 262.3 423.835 269.581 420.365 275C414.356 284.313 404.285 289.308 393.453 290.07C393.199 290.155 392.945 290.239 392.776 290.324ZM394.045 263.401C395.146 269.921 404.623 267.465 408.433 265.771C412.579 263.91 416.303 261.2 420.365 259.083C422.143 258.152 423.919 257.306 425.697 256.543C423.496 258.66 421.296 260.777 419.096 262.893C415.541 266.279 411.987 269.921 407.755 272.46C403.608 274.915 398.276 276.355 393.537 274.661C388.798 272.969 385.921 268.142 385.836 263.231C385.667 252.733 396.076 248.416 404.877 247.399C412.918 246.468 420.957 247.23 428.405 250.109C421.889 249.347 415.034 249.77 409.109 251.295C404.285 252.48 392.945 256.712 394.045 263.401ZM416.472 258.575C413.764 260.183 411.14 261.962 408.263 263.316C406.063 264.417 399.631 267.296 397.43 264.671C396.246 263.316 396.584 260.862 397.684 259.676C398.361 258.999 399.123 258.321 399.885 257.814C401.069 256.966 402.339 256.205 403.608 255.527C406.486 254.089 409.617 253.157 412.833 252.564C418.588 251.549 424.173 252.141 429.844 252.31C425.274 254.003 420.788 256.12 416.472 258.575ZM401.154 245.622C392.014 247.145 382.874 253.664 383.551 263.91C379.404 260.354 372.718 260.183 366.456 261.708C369.249 259.591 371.956 257.306 373.818 254.343C376.865 249.432 376.442 243.082 372.972 238.595C383.043 232.584 394.891 230.129 406.401 233.177C412.325 234.7 417.826 237.579 422.481 241.557C425.105 243.759 427.304 246.468 429.759 248.924C420.872 244.521 410.717 244.013 401.154 245.622ZM342.504 235.971C341.997 241.388 339.713 246.553 337.766 251.633C337.596 251.972 337.427 252.226 337.173 252.564C335.903 251.803 334.634 251.041 333.365 250.363C334.973 245.961 338.696 237.748 332.18 235.377C326.086 233.177 323.379 240.965 322.955 245.453C322.87 246.638 324.817 246.892 325.071 245.707C325.409 243.844 325.578 241.812 326.426 240.203C327.61 237.917 330.488 236.14 332.772 238.256C335.734 241.05 332.942 246.299 332.095 249.686C327.102 247.23 321.77 245.707 316.184 245.453C317.454 239.865 319.146 234.446 321.855 229.367C324.479 224.456 328.033 219.376 333.873 220.9C334.55 221.154 335.226 221.408 335.903 221.662C341.32 224.117 343.013 230.383 342.504 235.971ZM289.695 221.323C289.357 223.779 289.526 226.234 290.034 228.689C289.018 227.419 287.918 226.234 286.649 225.133C284.702 223.44 282.333 222.085 279.878 221.239C282.756 219.46 284.871 216.666 285.379 212.688C286.479 204.73 282.333 196.263 277.17 190.421C271.5 183.987 263.037 179.33 254.404 178.145C254.997 178.06 255.589 177.976 256.097 177.891C262.529 176.875 268.792 176.197 275.224 177.722C290.796 181.447 295.196 196.856 296.974 210.91C293.081 212.941 290.372 216.582 289.695 221.323ZM249.073 211.587C252.712 218.022 258.89 223.187 266.253 223.948C262.021 228.435 262.952 235.717 265.66 242.49C264.222 241.304 262.783 240.288 261.175 239.357C255.758 236.224 248.142 234.023 242.471 237.748C233.585 228.096 231.131 215.397 235.701 202.951C237.309 198.634 241.287 193.469 243.91 188.22C244.164 196.263 245.095 204.561 249.073 211.587ZM241.371 255.951C242.979 258.237 244.756 260.268 246.788 262.131C245.264 261.454 243.741 260.862 242.133 260.438C235.532 258.575 227.576 259.76 224.107 266.279C223.514 259.168 216.913 252.733 210.735 250.278C202.695 247.145 193.724 248.331 185.684 251.379C190.847 247.315 194.824 242.236 201.256 239.949C214.628 235.292 226.815 241.388 237.817 248.416C237.986 248.501 238.071 248.501 238.24 248.585C238.748 251.21 239.933 253.834 241.371 255.951ZM203.626 280.588C210.481 282.111 218.606 279.826 222.329 273.73C222.837 279.995 229.1 284.482 235.955 287.53C225.969 286.853 216.067 289.139 213.528 299.129C200.664 299.045 188.646 291.848 184.246 279.403C182.891 275.592 182.891 270.682 182.299 265.941C187.8 272.714 195.417 278.809 203.626 280.588ZM213.866 308.781C214.036 308.781 214.12 308.781 214.289 308.781C216.49 312.506 220.891 314.538 225.715 315.384C228.254 315.807 230.792 315.977 233.416 315.807C232.147 316.57 230.877 317.417 229.692 318.348C225.63 321.565 220.891 326.476 220.383 331.979C215.897 326.56 208.027 325.714 201.256 328.338C192.963 331.555 185.854 337.904 180.691 345.186C180.776 344.932 180.86 344.678 180.86 344.425C182.638 338.075 184.076 331.555 186.192 325.29C190.17 313.353 201.51 306.918 213.866 308.781ZM186.361 347.726C189.07 346.287 191.947 345.102 194.74 343.916C197.533 342.731 200.41 341.546 203.118 340.106C205.911 338.667 209.55 335.619 212.935 336.55C217.421 337.735 215.22 342.308 212.597 343.916C211.073 344.848 209.212 345.356 207.519 345.948C204.218 346.964 200.833 347.98 197.533 348.742C190.931 350.35 184.33 351.621 177.729 353.059C177.814 352.89 177.983 352.805 178.068 352.636C178.237 352.636 178.491 352.636 178.66 352.552C181.284 351.028 183.653 349.165 186.361 347.726ZM192.116 365.336C196.94 368.722 202.526 370.924 208.365 371.77C218.859 373.294 230.792 370.077 238.071 362.034C238.663 363.304 239.594 364.405 240.863 365.505C240.61 365.505 240.356 365.59 240.102 365.843C239.848 366.097 239.594 366.437 239.256 366.691C228.677 372.362 217.336 375.835 205.149 374.903C193.893 374.056 181.707 369.061 176.29 358.647C175.783 357.716 175.444 356.87 175.021 355.938C175.19 356.023 175.275 356.023 175.444 356.023C182.638 355.176 186.869 361.611 192.116 365.336ZM236.717 426.463C237.394 427.309 238.155 428.156 239.002 428.919C234.601 430.442 230.031 431.543 225.461 432.305C225.461 432.22 225.461 432.136 225.376 432.051C221.483 422.4 220.383 412.578 222.583 402.334C223.683 397 225.63 391.92 228 387.01C224.614 400.386 227.323 415.118 236.717 426.463ZM223.768 432.559C217.167 433.405 210.481 433.321 204.134 431.882C205.573 420.452 209.381 409.7 215.136 399.709C219.79 391.582 225.545 384.385 231.723 377.358C231.3 378.204 230.877 379.052 230.539 379.898C220.552 395.138 215.305 415.71 223.768 432.559ZM202.61 431.458C196.432 429.765 190.593 426.802 185.515 422.145C178.237 415.456 174.513 406.482 173.667 397.084C184.499 398.355 195.586 395.053 205.234 390.311C210.396 387.856 215.22 384.894 220.044 381.846C222.499 380.237 225.038 378.629 227.492 377.019C228.169 376.596 229.269 375.665 230.539 374.733C222.922 380.829 215.559 387.094 208.281 393.613C203.795 397.678 199.394 401.741 194.994 405.889C191.016 409.699 186.277 413.425 182.976 417.912C182.553 418.504 183.399 419.436 184.076 419.012C188.562 415.71 192.37 411.139 196.432 407.245C200.833 403.095 205.234 398.947 209.719 394.884C217.675 387.602 225.884 380.491 234.008 373.464C234.008 373.464 234.008 373.548 233.924 373.548C217.59 388.449 204.98 409.614 202.61 431.458ZM187.462 383.538C192.285 384.3 197.194 384.216 202.018 383.538C207.688 382.777 213.274 381.168 218.775 379.306C220.467 378.713 222.245 378.12 224.022 377.527C219.537 380.321 215.136 383.115 210.481 385.655C198.971 392.005 186.869 396.069 173.582 395.307C173.498 395.307 173.497 395.307 173.413 395.307C173.159 389.804 173.921 384.131 175.529 378.798C177.814 382.1 183.738 383.031 187.462 383.538ZM175.867 377.697C176.967 374.225 178.491 370.839 180.353 367.706C180.437 367.791 180.437 367.791 180.522 367.876C187.885 374.31 197.871 377.189 207.519 377.527C214.882 377.781 222.414 376.596 229.438 373.887C227.915 375.41 225.291 375.835 223.345 376.427C221.06 377.189 218.859 377.866 216.574 378.458C212.258 379.729 207.858 380.829 203.372 381.422C194.317 382.777 184.584 382.354 176.544 377.612C176.375 377.527 176.036 377.527 175.867 377.697ZM241.117 427.563C233.755 420.198 229.354 410.039 228.931 399.624C228.423 387.602 233.331 375.919 241.879 367.537C242.218 367.199 242.302 366.86 242.218 366.522L242.302 366.437L242.387 366.522C243.402 367.114 244.418 367.622 245.518 367.876C241.54 370.416 238.494 375.41 236.717 379.475C234.516 384.469 233.67 390.057 234.262 395.476C235.955 409.445 250.511 418.927 249.157 433.405C246.364 431.966 243.572 430.019 241.117 427.563ZM250.511 394.714C253.473 386.332 264.222 382.354 271.669 387.687C279.963 393.613 278.27 403.52 273.192 410.97C268.538 417.912 262.444 423.415 255.928 428.58H255.843C260.752 423.161 265.237 417.404 268.03 410.546C269.976 405.72 273.785 394.036 267.353 390.819C261.006 387.602 256.859 399.794 255.166 403.858C253.473 408.091 252.119 412.408 251.358 416.896C251.104 418.25 250.935 419.69 250.85 421.044C248.819 412.833 247.634 402.841 250.511 394.714ZM252.289 430.442C252.796 427.986 252.796 425.532 252.966 423.077C253.22 419.436 253.897 415.879 254.828 412.324C255.758 409.022 256.859 405.72 258.297 402.588C258.974 401.149 259.652 399.709 260.413 398.355C261.09 397.169 262.444 393.867 263.629 393.359C264.983 393.613 266.337 393.782 267.691 394.036L268.284 395.561C268.538 396.407 268.538 397.339 268.538 398.186C268.538 400.132 268.284 402.08 267.861 403.943C267.099 407.414 265.745 410.8 264.137 413.933C260.921 419.944 256.605 425.277 252.289 430.442ZM252.204 434.421C254.912 429.172 264.137 429.596 269.13 428.156C275.308 426.378 281.232 423.584 286.31 419.69C295.196 412.917 301.967 401.995 301.459 390.565C302.474 390.904 303.66 390.988 304.844 390.988C304.844 391.328 304.844 391.667 304.929 392.005C304.167 412.239 293.419 430.696 272.685 435.607C267.522 436.792 262.444 437.046 257.705 436.199C257.79 434.845 255.758 434.336 255.335 435.691C254.235 435.437 253.135 435.099 252.035 434.676C252.035 434.59 252.119 434.59 252.204 434.421ZM319.909 422.569C311.615 414.187 307.722 402.334 307.299 390.735C307.891 390.565 308.399 390.396 308.906 390.142C310.346 401.233 316.947 411.139 326.001 417.573C330.826 421.044 336.412 423.5 342.166 425.023C347.583 426.378 354.776 426.209 358.838 430.527C345.975 435.522 330.403 433.151 319.909 422.569ZM355.284 402.672C353.761 398.693 352.068 394.545 349.783 390.904C348.598 389.042 346.314 385.825 343.69 386.163C336.835 387.094 342.759 401.826 344.028 404.874C346.821 411.562 350.46 417.827 354.269 423.923C348.006 420.536 342.759 415.795 339.119 409.445C334.634 401.657 332.603 388.788 342.081 383.623C352.83 377.697 359.347 390.65 361.124 399.201C362.817 407.329 362.054 415.287 360.108 423.161C359.601 416.219 357.738 409.276 355.284 402.672ZM358.838 427.055C355.368 421.552 351.899 416.05 348.936 410.293C347.244 407.075 345.72 403.689 344.536 400.301C343.859 398.355 340.643 387.263 345.636 389.296C348.006 390.227 349.868 395.645 350.883 397.847C352.406 401.149 353.761 404.535 354.861 408.091C356.892 414.187 358.077 420.537 358.838 427.055ZM372.803 411.477C375.681 406.482 377.288 400.81 377.457 395.053C377.88 384.216 373.818 373.295 365.61 366.182C366.54 365.759 367.386 365.082 368.148 364.32C371.025 366.945 373.48 369.823 375.596 372.956C375.511 373.041 375.511 373.21 375.681 373.379C375.85 373.548 376.019 373.718 376.188 373.887C384.82 387.517 385.498 405.128 374.918 418.758C371.194 423.584 366.371 427.225 361.039 429.68C364.17 423.077 369.164 417.742 372.803 411.477ZM434.499 379.644C429.844 380.237 425.274 381.168 420.534 381.252C415.288 381.252 410.125 380.66 405.047 379.56C397.938 377.95 391.167 375.41 384.651 372.278C395.399 375.072 406.909 374.056 416.557 368.468C426.881 369.061 435.43 376.512 438.73 386.163C440.338 390.819 440.422 395.73 439.492 400.386C439.407 400.301 439.238 400.301 439.069 400.301C426.289 399.794 414.949 393.275 404.2 386.84C396.499 382.269 389.052 377.358 381.773 372.278C389.052 376.512 397.007 379.644 405.132 381.506C414.441 383.623 425.528 384.554 434.753 381.422C435.514 381.083 435.514 379.475 434.499 379.644ZM404.877 389.296C415.372 395.561 426.543 401.657 438.984 402.164C437.8 406.821 435.514 411.308 432.721 415.202C430.605 418.166 428.067 420.79 425.189 423.161C425.189 422.992 425.105 422.738 424.936 422.569C416.303 413.679 407.839 404.62 399.462 395.476C391.845 387.094 384.566 378.289 376.78 370.077C385.752 377.104 395.146 383.538 404.877 389.296ZM402.931 417.573C401.831 411.562 399.969 405.805 397.43 400.217C395.569 396.069 393.283 392.005 390.66 388.28C393.03 390.904 395.484 393.613 397.853 396.238C406.317 405.636 414.949 414.864 423.665 423.923C423.75 424.092 423.919 424.092 424.088 424.177C418.673 428.495 412.325 431.543 405.555 432.897C404.539 433.067 403.608 433.236 402.593 433.321C404.454 428.411 403.777 422.569 402.931 417.573ZM388.798 401.572C387.951 394.714 386.598 387.094 382.959 380.998C387.867 386.671 392.014 392.851 395.23 399.624C397.515 404.535 399.292 409.785 400.477 415.033C401.916 421.467 401.661 426.971 400.9 433.49C396.922 433.744 392.86 433.405 389.052 432.22C387.021 431.628 385.243 430.78 383.551 429.85C383.72 429.765 383.805 429.765 383.974 429.596C391.252 422.145 389.983 410.97 388.798 401.572ZM369.756 362.288C370.687 360.764 371.11 359.071 371.11 357.378C379.235 363.474 389.391 366.437 399.546 365.166C404.623 364.489 409.617 362.88 414.017 360.426C418.588 357.801 423.581 351.367 429.167 351.197C417.741 373.548 388.883 376.681 369.756 362.288ZM425.951 340.783C425.359 337.904 425.274 334.941 424.766 332.064C423.75 326.476 420.872 321.48 417.995 316.655C413.51 309.288 406.57 300.145 397.007 300.992C397.092 300.653 397.092 300.314 397.176 299.975C397.345 298.96 397.261 298.029 397.176 297.181C410.04 297.181 420.872 306.325 427.304 316.824C433.398 326.814 434.753 338.498 430.182 349.165C428.067 346.54 426.628 344.17 425.951 340.783ZM446.854 307.257C444.739 305.987 442.538 304.886 440.338 303.785C440.761 303.871 441.269 303.955 441.692 304.04C447.701 305.225 453.709 306.494 459.718 307.765C465.05 308.95 470.552 310.559 475.967 311.321C474.444 318.855 470.89 325.968 465.219 331.301C464.458 331.979 463.696 332.656 462.934 333.249C464.035 322.242 455.741 312.59 446.854 307.257ZM458.872 305.648C452.863 304.379 446.854 303.193 440.761 302.008C438.138 301.5 435.514 300.992 432.975 300.483C435.683 300.483 438.392 300.314 441.016 300.145C452.694 299.298 464.373 296.42 474.952 291.255C475.206 291.17 475.29 291.001 475.375 290.832C476.39 294.896 476.898 299.045 476.898 303.108C476.898 305.225 476.644 307.342 476.39 309.458C470.721 307.68 464.627 306.833 458.872 305.648ZM474.021 289.732C463.272 294.303 452.102 297.351 440.422 298.198C435.007 298.537 429.674 298.452 424.258 298.029C420.449 297.689 416.726 296.928 412.918 296.251C421.466 296.251 430.097 293.964 437.714 290.409C446.939 286.091 456.925 278.979 462.088 269.921C463.78 271.19 465.304 272.714 466.742 274.323C470.721 278.809 473.513 284.313 475.121 290.07C474.867 289.647 474.444 289.562 474.021 289.732ZM413.087 298.537C416.557 299.214 420.111 299.806 423.581 300.483C424.427 300.653 425.189 300.823 426.035 300.992C443.384 305.31 461.073 314.707 461.242 333.926C461.242 334.18 461.327 334.349 461.411 334.433C456.925 337.566 451.933 339.26 446.77 339.937C447.871 330.878 442.369 320.549 436.783 314.115C430.351 306.748 421.635 301.923 412.495 298.791C412.241 298.706 412.072 298.537 411.818 298.452C412.241 298.452 412.664 298.537 413.087 298.537ZM425.782 310.305C423.665 307.68 421.295 305.14 418.588 302.939C424.342 305.817 429.759 309.542 434.159 314.284C437.715 318.009 440.507 322.496 442.285 327.237C443.892 331.555 444.061 335.704 444.401 340.106C441.608 340.275 438.815 340.191 435.937 339.768C435.683 339.768 435.43 339.768 435.26 339.852C435.345 339.429 435.345 339.09 435.43 338.667C436.36 328.338 432.129 318.348 425.782 310.305ZM452.948 264.84C455.825 265.771 458.449 267.211 460.904 268.904C457.688 272.544 454.81 276.186 451.086 279.318C447.023 282.789 442.538 285.668 437.714 288.038C430.52 291.51 423.073 293.372 415.288 294.218C427.643 289.054 437.291 277.54 438.815 263.74C443.638 263.401 448.124 263.231 452.948 264.84ZM436.36 262.47C436.022 262.724 436.022 263.231 436.276 263.571C435.43 271.19 432.129 278.64 426.289 284.228C418.419 291.848 407.924 294.981 397.092 294.557C396.838 294.557 396.669 294.642 396.499 294.727C396.076 293.795 395.484 292.949 394.806 292.187C403.777 291.933 412.664 287.361 418.673 280.757C421.973 277.117 424.173 272.884 425.866 268.312C427.898 262.724 429.759 256.712 434.753 253.157H434.837C435.176 253.241 435.514 253.157 435.768 252.987C436.36 256.035 436.614 259.252 436.36 262.47ZM421.973 238.425C416.895 234.531 410.971 231.821 404.708 230.552C393.283 228.181 381.181 230.552 371.787 237.409C371.702 237.325 371.533 237.155 371.448 237.071C370.433 236.14 369.333 235.463 368.232 234.954C370.095 233.938 371.956 232.923 373.903 232.075C374.072 232.244 374.326 232.33 374.58 232.075C375.087 231.737 375.511 231.398 376.019 231.06C391.336 224.456 408.856 222.593 423.242 233.177C425.866 235.123 428.152 237.325 429.928 239.865C429.759 240.288 429.844 240.88 430.52 241.05C430.605 241.05 430.774 241.134 430.859 241.134C432.89 244.182 434.329 247.484 435.26 250.955C430.605 246.976 426.881 242.151 421.973 238.425ZM387.444 201.513C390.067 192.369 390.406 182.462 386.259 173.743C391.59 171.541 397.515 170.949 403.439 171.626C404.37 183.479 401.238 194.908 394.891 204.984C391.675 210.063 387.867 214.466 383.72 218.614C380.166 221.577 376.611 224.541 373.226 227.673C373.226 227.589 373.311 227.589 373.311 227.504C380.25 221.07 384.82 210.486 387.444 201.513ZM377.457 219.63C382.366 207.693 381.943 193.892 374.326 182.802C377.203 179.076 380.758 176.368 384.651 174.505C388.714 183.479 387.951 193.469 385.158 202.697C383.805 207.269 381.858 211.757 379.658 215.905C378.981 217.175 378.219 218.36 377.457 219.63ZM404.963 171.88C412.748 173.149 420.196 176.622 425.866 182.039C425.866 182.039 425.782 182.039 425.782 182.124C415.964 189.913 406.993 198.888 397.515 207.1C395.738 208.624 393.96 210.147 392.184 211.587C401.238 200.157 406.824 186.442 404.963 171.88ZM406.063 216.751C396.584 217.683 387.782 221.662 379.827 226.827C377.711 227.673 375.681 228.604 373.734 229.621C382.789 222.593 392.184 216.837 403.185 213.365C408.771 211.587 414.525 210.401 420.365 209.894C425.866 209.386 433.229 208.37 437.969 211.672C438.138 211.757 438.307 211.841 438.476 211.757C438.476 216.666 437.375 221.493 434.922 225.556C427.304 218.36 416.303 215.651 406.063 216.751ZM433.906 227.081C432.214 229.536 429.928 231.652 427.051 233.346C420.534 227.589 411.987 223.864 402.677 223.102C397.768 222.678 392.776 223.102 387.951 224.202C403.016 217.26 420.196 215.143 433.906 227.081ZM424.258 207.778C417.656 208.032 411.14 209.132 404.793 210.91C399.039 212.518 393.368 214.804 387.951 217.683C391.421 214.72 394.891 211.672 398.361 208.709C408.009 200.496 418.25 192.369 427.051 183.225L427.135 183.141C433.483 189.744 437.969 200.073 438.392 209.978C435.768 206.592 427.812 207.608 424.258 207.778ZM371.871 183.733C371.871 183.818 371.871 183.818 371.871 183.818C371.702 184.325 372.126 184.664 372.634 184.664C376.442 190.421 378.642 197.279 378.388 204.645C378.134 215.482 373.141 225.81 365.27 233.177C365.101 233.346 365.016 233.515 364.932 233.684C363.324 233.346 361.631 233.346 359.939 233.515C367.386 223.61 374.241 211.418 373.057 198.634C372.549 193.554 370.941 188.643 367.725 184.664C364.086 180.177 357.484 177.722 356.385 171.626C362.647 174.081 367.978 178.314 371.871 183.733ZM356.469 177.553C359.685 186.442 361.97 196.094 358.923 205.322C356.046 213.958 347.075 221.831 337.681 219.63C337.173 219.376 336.666 219.122 336.072 218.868C335.396 218.614 334.634 218.36 333.957 218.276C330.149 216.243 327.187 212.434 326.849 208.116C326.341 202.951 329.387 197.871 332.095 193.723C337.173 186.019 343.944 180.008 351.814 175.351C347.921 183.141 342.081 189.829 338.442 197.871C336.497 202.274 331.08 214.127 338.442 216.666C345.551 219.122 350.968 207.439 352.83 202.444C355.877 194.569 356.554 185.935 356.469 177.553ZM352.576 196.432C351.645 200.157 350.291 203.713 348.344 207.1C346.821 209.724 339.459 219.63 337.258 211.926C336.327 208.709 338.273 204.561 339.374 201.597C340.897 197.702 342.929 194.062 345.213 190.506C348.598 185.256 352.406 180.262 354.861 174.505C354.522 181.87 354.438 189.152 352.576 196.432ZM335.903 175.436C330.149 175.605 324.563 176.452 319.654 179.754C310.176 186.273 306.367 198.211 307.13 209.386C305.944 209.047 304.591 208.963 303.067 209.132C304.844 199.565 307.299 188.304 313.477 180.77C316.947 176.537 321.939 174.505 327.018 172.811C332.264 171.118 337.766 169.763 343.352 169.509C345.72 169.424 348.006 169.594 350.207 169.932C350.122 170.441 350.63 171.034 351.222 170.61C351.391 170.441 351.56 170.356 351.729 170.187C352.237 170.272 352.83 170.441 353.338 170.61C348.683 175.182 341.997 175.266 335.903 175.436ZM291.811 177.468C299.428 186.188 302.474 198.126 300.444 209.386C300.444 209.47 300.444 209.47 300.444 209.555C299.681 209.724 298.92 209.978 298.159 210.317C298.751 197.956 293.419 183.141 281.74 177.637C276.493 175.182 270.569 174.335 264.899 174.589C258.721 174.843 249.75 178.653 244.841 173.743C244.756 173.658 244.587 173.574 244.503 173.489C258.213 162.313 279.878 163.836 291.811 177.468ZM184.246 237.409C192.032 232.584 201.341 230.636 210.396 231.314C220.721 232.075 230.623 236.394 238.155 243.59C238.24 243.674 238.24 243.674 238.325 243.759C238.155 244.521 238.071 245.368 238.071 246.215C229.269 239.272 217.336 235.038 206.165 236.648C200.41 237.494 195.332 239.949 191.016 243.759C186.277 247.908 181.876 252.987 175.529 253.918C175.105 253.664 174.598 253.495 174.09 253.326C173.413 253.072 172.99 253.495 172.82 254.088C174.259 247.315 177.898 241.388 184.246 237.409ZM173.497 255.358C173.836 255.527 174.175 255.612 174.513 255.781C174.513 256.035 174.682 256.205 175.021 256.205C175.105 256.205 175.19 256.205 175.275 256.205C175.359 256.289 175.529 256.374 175.613 256.458C175.444 256.882 175.529 257.475 176.036 257.814C176.629 258.237 177.221 258.575 177.898 258.914C178.068 259.168 178.237 259.422 178.321 259.76C178.152 260.099 178.152 260.438 178.321 260.777C178.575 261.2 178.914 261.623 179.168 262.046C180.268 265.856 180.099 270.344 180.606 273.9C181.284 279.149 183.399 284.144 186.531 288.377C192.793 296.758 202.864 301.246 213.189 300.229C213.105 300.908 212.935 301.5 212.935 302.177C212.935 302.262 212.935 302.346 212.935 302.431C212.258 302.431 211.581 302.431 210.989 302.431C210.227 302.346 209.466 302.346 208.704 302.262C189.154 300.653 173.751 285.074 172.059 265.094C171.805 261.708 171.89 258.321 172.482 255.104C172.82 255.274 173.159 255.358 173.497 255.358ZM154.54 306.664C159.957 306.579 165.458 306.41 170.874 306.241C174.852 306.071 178.914 305.987 182.891 305.733C177.56 306.748 172.397 308.358 167.573 310.305C159.703 313.607 150.986 319.448 146.923 327.237C142.607 321.226 139.73 314.03 138.46 306.664C143.792 307.173 149.209 306.748 154.54 306.664ZM138.206 305.056C138.037 304.125 137.953 303.193 137.868 302.262C137.191 294.727 138.206 286.768 141.676 279.911C143.877 283.974 147.939 287.445 151.494 290.07C155.81 293.372 160.718 295.912 165.796 297.86C174.09 301.077 183.061 302.685 192.032 303.447C185.007 303.7 177.898 304.04 170.874 304.294C165.458 304.463 159.957 304.633 154.54 304.717C149.124 304.886 143.623 304.548 138.206 305.056ZM156.487 319.194C160.295 315.977 164.696 313.438 169.266 311.575C176.798 308.527 184.499 307.173 192.455 306.156C192.116 306.325 191.778 306.579 191.439 306.748C184.161 307.68 177.137 314.453 172.228 319.449C167.15 324.613 161.395 332.233 161.226 339.852C156.402 337.143 152.086 333.672 148.531 329.27C148.362 329.016 148.193 328.761 147.939 328.507C150.732 325.29 153.186 321.988 156.487 319.194ZM167.827 296.758C162.834 294.981 158.095 292.526 153.694 289.478C149.124 286.26 146.246 282.282 142.523 278.302C143.2 277.117 143.961 275.932 144.808 274.831C147.939 270.767 152.001 267.55 156.656 265.687C162.58 282.874 177.475 296.504 194.824 301.415C195.925 301.923 197.109 302.346 198.294 302.685C187.969 301.5 177.729 300.399 167.827 296.758ZM180.183 290.747C182.384 293.287 184.838 295.489 187.631 297.351C174.259 290.747 163.765 279.318 158.179 265.094C161.734 263.825 165.627 263.401 169.52 263.825C170.028 273.561 173.921 283.466 180.183 290.747ZM171.043 338.667C170.789 340.445 170.705 342.223 170.705 344C167.743 342.985 164.95 341.8 162.242 340.36C162.326 340.275 162.495 340.191 162.58 340.021C163.934 336.381 164.781 332.825 166.812 329.439C168.674 326.222 170.959 323.343 173.497 320.634C177.56 316.401 182.045 312.421 187.208 309.627C178.406 316.401 172.482 327.153 171.043 338.667ZM179.929 320.803C186.869 309.966 199.479 303.193 212.428 305.225C212.682 305.225 212.851 305.225 213.105 305.14C213.189 305.648 213.274 306.156 213.443 306.579C204.049 304.548 193.64 309.119 188.054 316.74C184.33 321.819 183.061 328.253 181.453 334.264C180.437 337.904 179.506 341.546 178.491 345.102C177.644 348.319 177.052 351.621 174.513 353.907C174.09 352.467 173.751 351.028 173.582 349.588C173.582 349.504 173.582 349.504 173.582 349.419C171.974 339.683 174.852 328.761 179.929 320.803ZM372.126 469.642C372.972 483.357 370.602 497.073 366.117 510.026C362.054 521.624 356.215 532.631 348.852 542.452C341.828 551.765 333.196 559.554 324.902 567.681C317.454 575.048 310.43 582.836 305.775 592.234C303.998 583.767 298.497 576.74 292.319 570.729C283.941 562.687 275.477 555.32 268.876 545.669C255.928 526.704 249.411 504.015 248.226 481.155C247.465 466.424 248.819 451.608 251.527 437.13C252.543 437.469 253.558 437.808 254.574 438.147C252.966 444.835 252.712 452.116 256.012 458.296C258.805 463.546 263.968 467.271 269.807 467.779C267.353 475.06 269.892 483.526 276.578 487.675C280.386 490.045 287.664 490.808 293.673 492.754C279.963 502.321 283.094 523.233 297.313 530.852C305.183 535.002 315.507 535.002 323.21 530.429C329.895 526.45 333.196 518.576 332.264 510.957C331.334 503.169 325.748 495.379 318.47 492.077C323.548 489.537 329.387 489.029 334.296 486.235C341.32 482.172 344.705 473.197 341.743 465.662C349.699 467.948 358.584 462.953 360.108 454.741C361.462 447.375 358.161 439.162 352.068 434.93C354.945 434.421 357.738 433.574 360.447 432.474C361.8 434.845 363.155 437.299 364.509 439.67C368.824 449.237 371.533 459.312 372.126 469.642ZM459.634 370.247C468.182 377.697 475.544 386.502 481.299 396.323C494.417 418.843 497.295 445.258 500.257 470.657C501.526 481.918 502.372 494.025 508.296 503.93C498.902 500.459 488.916 499.442 478.929 498.935C467.251 498.342 455.656 497.834 444.146 495.548C422.65 491.231 401.747 481.918 386.344 466.001C376.611 455.925 369.587 443.734 362.901 431.628C364.086 431.034 365.186 430.442 366.286 429.765C368.91 444.327 385.158 451.947 398.022 444.243C401.323 450.592 408.771 452.793 415.626 451.608C420.365 450.762 425.528 447.629 430.69 445.343C430.605 454.063 432.806 463.461 439.745 469.303C446.6 475.145 455.825 474.721 463.442 470.488C477.999 462.36 482.315 441.279 469.197 429.596C463.273 424.346 454.387 422.315 446.939 425.108C449.393 420.706 452.694 416.812 454.641 412.07C457.179 405.889 456.418 397.169 449.986 394.036C454.387 385.909 453.54 375.326 447.277 368.384C441.692 362.118 432.637 359.832 424.682 362.034C427.389 359.24 429.759 355.938 431.537 352.467C441.439 357.547 451.086 362.796 459.634 370.247ZM510.497 240.796C532.585 248.162 548.749 265.941 565.337 281.434C574.054 289.562 583.11 297.266 593.435 303.193C583.618 310.05 573.716 316.993 563.899 323.851C553.743 330.962 543.672 338.583 532.84 344.594C513.544 355.346 491.117 360.172 469.197 358.647C456.587 357.801 444.146 354.922 432.552 350.011C432.89 349.165 433.313 348.234 433.567 347.387C439.999 353.652 449.732 356.955 458.364 353.907C465.727 351.282 471.651 345.017 473.343 337.397C480.961 340.021 489.931 336.889 493.656 329.439C496.025 324.528 496.025 319.025 496.701 313.776C496.786 313.013 496.956 312.167 497.126 311.236C502.034 316.486 508.212 320.972 515.49 321.734C523.615 322.581 531.4 317.924 535.885 311.321C540.118 305.056 541.387 296.758 538.34 289.732C535.462 283.043 528.777 277.963 521.499 277.371C516.844 277.032 512.443 278.64 508.381 280.757C503.811 283.128 499.156 286.176 495.348 289.732C494.84 289.139 494.417 288.547 493.994 287.868C490.778 282.705 491.286 276.694 489.677 271.021C487.393 262.808 478.337 258.66 471.398 263.486C466.488 250.109 449.986 245.622 438.815 254.512C438.561 252.733 438.138 251.041 437.629 249.347C459.718 238.002 486.207 232.669 510.497 240.796ZM408.178 113.885C430.267 100.339 456.756 99.4927 481.807 96.6988C494.248 95.3442 506.689 93.397 518.621 89.3332C507.366 105.335 504.319 125.23 500.511 144.11C495.686 167.816 487.731 190.844 475.544 211.926C469.451 222.424 462.088 232.499 452.779 240.457C447.362 242.49 442.031 244.945 436.952 247.823C436.191 245.707 435.176 243.59 433.99 241.642C439.915 241.897 445.67 238.51 448.717 233.346C452.779 226.404 451.594 217.937 448.124 210.995C455.402 208.624 457.941 199.565 456.333 192.538C455.148 187.204 451.594 181.701 448.97 176.113C456.671 178.314 465.05 175.266 470.043 168.917C475.883 161.467 477.068 151.137 474.191 142.333C471.398 133.697 465.05 126.161 456.671 122.521C447.531 118.627 436.445 119.473 429.167 126.586C421.381 134.12 421.381 147.412 425.612 156.894C420.703 155.794 415.795 154.354 411.055 153.931C403.27 153.169 394.722 155.625 390.829 162.736C386.513 159.35 380.673 158.503 375.426 160.365C369.756 162.398 365.863 167.055 363.409 172.303C362.309 171.626 361.124 170.949 359.939 170.356C360.193 170.272 360.447 170.103 360.616 169.848C372.888 148.683 386.851 126.924 408.178 113.885ZM247.803 93.2276C252.119 80.7821 258.044 68.9292 264.56 57.4996C270.738 46.6628 278.016 37.2651 287.156 28.7988C294.773 21.7718 302.813 14.66 306.452 4.83903C310.346 12.7974 316.353 19.4011 322.616 25.7509C330.318 33.4553 338.019 41.1597 344.959 49.5413C359.77 67.6593 370.941 88.8252 373.057 112.446C374.241 125.315 372.888 138.438 369.418 150.883C365.61 156.64 362.054 162.567 358.584 168.578C358.331 169.001 358.33 169.424 358.5 169.678C356.977 169.001 355.368 168.493 353.761 168.07C357.4 163.498 358.331 156.979 356.638 151.306C354.522 144.11 348.852 138.691 342.335 135.39C345.044 125.823 338.781 116.679 330.488 112.108C327.864 110.668 325.071 109.652 322.278 108.721C324.563 106.689 326.341 103.303 327.525 101.017C329.471 97.4609 330.572 93.4816 330.403 89.4178C330.065 81.798 326.001 74.4324 319.654 70.1992C305.944 61.2248 286.226 70.7072 283.602 86.5393C282.248 94.7516 284.956 104.065 291.219 109.737C286.141 111.6 280.301 112.7 276.747 115.071C270.569 119.135 267.099 126.331 267.438 133.697C253.727 137.253 246.957 152.915 254.32 165.276C254.32 165.361 254.404 165.361 254.404 165.361C253.727 165.615 253.135 165.784 252.458 166.038C238.071 144.364 239.594 116.933 247.803 93.2276ZM144.723 222.085C135.837 212.603 127.458 202.359 120.096 191.606C112.987 181.278 109.009 169.932 106.978 157.571C105.031 145.973 104.524 134.205 102.916 122.521C101.392 111.346 98.8532 100.255 93.5215 90.4337C111.463 99.6621 132.282 99.2387 152.001 100.593C164.188 101.44 176.375 103.133 187.546 108.298C197.533 112.869 207.011 119.05 216.067 125.23C225.461 131.58 234.685 139.031 241.71 148.004C243.487 154.694 246.28 161.128 250.088 167.055C248.988 167.562 247.972 168.07 246.957 168.747C243.064 156.725 228.931 151.731 218.182 158.334C214.205 149.952 204.388 146.227 195.671 149.952C190.762 152.069 186.785 155.625 182.299 158.334C181.537 158.757 180.776 159.18 180.014 159.604C182.214 152.408 180.353 144.449 175.021 138.861C168.674 132.257 158.518 129.972 149.886 132.851C132.875 138.522 121.027 165.446 136.598 178.653C142.946 183.987 153.863 187.289 162.157 184.325C160.887 187.627 159.364 190.844 158.603 194.231C157.164 200.242 158.518 207.269 164.273 210.063C158.179 222.001 164.019 236.394 176.798 240.542C175.444 242.151 174.259 243.844 173.328 245.622C162.58 239.442 153.186 231.229 144.723 222.085ZM37.9197 287.953C47.1436 281.265 55.2687 273.222 64.7474 266.873C74.4796 260.438 85.2278 255.951 96.1451 251.972C107.147 247.993 118.488 243.336 130.082 241.897C144.385 240.034 158.349 244.521 171.89 248.755C171.212 250.532 170.62 252.31 170.282 254.173C159.618 247.145 145.739 252.395 141.507 263.91C134.906 260.183 126.781 265.179 123.565 271.529C121.196 276.101 120.096 283.551 117.641 289.562C113.494 282.111 103.423 277.963 95.3834 277.201C86.5818 276.355 78.2881 281.096 73.9718 288.801C65.678 303.616 73.9718 327.322 92.2521 329.354C102.577 330.539 111.209 323.258 117.726 315.977C118.741 320.549 119.588 325.205 121.196 328.168C124.92 335.027 132.79 338.498 140.238 337.397C141.084 344.509 145.4 351.028 152.086 353.907C158.349 356.7 166.05 355.853 171.466 351.705C171.805 353.313 172.228 355.007 172.82 356.53C171.212 357.293 169.52 358.055 167.912 358.817C145.062 365.166 121.534 363.897 99.5303 354.33C89.0361 349.758 79.2189 343.831 70.0785 336.974C60.2613 329.608 51.7143 320.803 42.4893 312.76C34.9575 306.241 26.2402 300.568 16.5076 298.96C24.0394 296.335 31.3185 292.695 37.9197 287.953Z" fill="white"/>
</g>
</svg>
