<svg width="260" height="760" viewBox="0 0 260 760" fill="none" xmlns="http://www.w3.org/2000/svg">
<g opacity="0.2" clip-path="url(#clip0_944_753)">
<path d="M24.5464 0C17.6127 7.07095 15.7536 8.36581 17.06 18.7155L8.32587 17.4678V29.9447C-5.3031 32.1635 -2.22371 36.309 -0.408249 48.6602L-7.89464 47.4125C-12.7259 63.9089 4.0536 76.1333 9.83809 89.8155C11.8969 94.6853 6.46674 97.5537 6.99078 102.33C7.83051 109.98 14.1515 112.525 12.0691 121.027H33.2805V122.274C23.9375 125.236 11.1383 120.476 3.33495 124.387C-6.44353 129.286 -8.44366 141.558 -17.8952 145.846C-27.1409 150.041 -45.0209 151.791 -50.3175 160.953L12.0691 167.186L64.4738 164.602L90.6761 162.201C87.3546 151.585 68.222 150.011 59.5016 144.641C50.4431 139.061 44.8994 128.18 35.776 121.911C32.9 119.936 17.1061 119.47 17.8473 116.265C18.6671 112.722 28.8523 115.049 31.8356 111.896C37.8397 105.55 38.4337 97.9505 29.5373 94.825C37.71 82.8109 59.0911 65.6179 54.4919 49.9079L48.2533 51.1556C49.6208 45.0998 51.7507 38.3523 43.2624 38.6786L40.7669 23.7063L34.5282 24.9539L35.776 14.9724H34.5282C32.8064 22.2259 33.1146 28.4425 42.0146 27.4493C40.7145 33.8745 38.6483 42.0937 48.2533 39.9263L49.501 41.174C45.7653 48.3111 45.2962 53.3489 54.4919 53.651C51.2778 63.0967 42.6884 74.2293 34.5282 79.8526C37.1435 74.2492 41.3309 68.7605 41.7289 62.3849C42.2317 54.3269 30.2797 34.5003 20.8219 36.7483C15.302 38.0608 14.2052 43.006 11.7321 47.3008C4.30191 60.208 3.29752 65.3049 12.0691 78.6049C1.45586 76.4626 -8.08055 60.4724 -6.64691 49.9079L2.0872 51.1556L-1.65599 31.1924C12.0753 37.2358 7.75441 28.4478 9.57361 18.7155C20.1032 23.7033 18.7894 15.0749 17.06 7.48619L27.0419 3.74309C26.1048 8.88897 28.0563 20.4098 33.2805 11.2293L28.2896 13.7247L27.0419 0H24.5464ZM23.2987 42.4217L24.5464 38.6786H28.2896C32.9274 47.906 30.6827 50.0277 24.5464 57.3941H22.0509L20.8032 53.651H19.5555C22.9144 62.8661 25.5645 76.3603 13.3168 78.6049C9.38893 70.291 -0.831238 45.9597 19.5555 53.651L13.3168 49.9079C14.3512 44.9856 18.561 35.4072 23.2987 42.4217ZM17.06 88.5865C17.2646 82.3443 19.0127 78.5887 25.7941 79.8526C24.0086 74.3004 24.2132 44.4616 36.6269 54.4231C48.3618 63.8406 27.0955 87.8229 17.06 88.5865ZM12.0691 54.8987L13.3168 56.1464L12.0691 54.8987ZM33.2805 54.8987V57.3941L35.776 54.8987H33.2805ZM14.5645 88.5865L5.8304 79.8526C11.5612 80.4927 15.4666 82.353 14.5645 88.5865ZM25.7941 79.8526L27.0419 81.1003L25.7941 79.8526ZM35.776 81.1003L27.0419 89.8342L25.7941 88.5865L35.776 81.1003ZM28.2896 91.0819C25.0367 96.9823 19.4107 96.0715 13.3168 96.0727C16.5696 90.1723 22.1957 91.0832 28.2896 91.0819ZM29.5136 96.9698C34.9463 97.8544 36.7417 103.91 31.747 106.905C27.2889 109.579 20.6235 108.59 15.8185 107.585C11.2331 106.627 5.2764 101.141 12.255 98.0728C16.1953 96.341 25.2788 96.2798 29.5136 96.9698ZM30.785 109.797V112.293L13.3168 111.045L30.785 109.797ZM118.126 153.467V147.228H116.878C115.508 153.373 118.321 155.709 124.365 154.714C129.226 169.663 124.156 179.606 108.144 183.412C112.826 179.522 119.816 176.107 121.304 169.686C123.56 159.957 110.317 155.076 109.392 167.191C103.828 164.385 103.223 160.642 103.153 154.714H100.658L104.401 169.687C98.0539 171.635 93.0967 170.636 91.9238 163.448C50.4991 178.889 -8.46237 177.992 -50.3175 164.696C-50.8828 172.107 -54.5374 173.679 -61.5471 173.43C-55.8787 189.397 -53.3121 218.768 -74.0244 225.833C-64.1449 211.946 -60.9619 193.765 -64.0426 177.173H-74.0244C-66.7714 172.804 -61.3225 173.35 -60.2994 163.448H-61.5471C-62.3769 165.749 -63.3588 169.225 -66.4894 169.258C-71.5115 169.309 -70.0193 159.548 -76.4077 161.779C-89.6523 166.404 -75.211 181.277 -65.2903 179.668L-64.0426 188.402C-73.6227 190.683 -79.5506 188.341 -87.7495 183.412C-84.6139 189.543 -79.482 191.782 -72.7767 192.145C-75.6939 203.985 -70.6219 216.359 -79.0154 225.833L-82.7586 200.879H-84.0063C-84.0063 208 -85.5397 220.734 -80.585 226.539C-76.1244 231.766 -67.8744 228.486 -62.7948 226.097C-47.9393 219.109 -44.0889 202.143 -44.0789 187.155C-1.38898 200.804 43.7813 194.213 86.9329 188.402C83.6813 199.144 63.795 197.812 54.4919 198.495C21.3634 200.923 -10.0595 195.317 -42.8311 194.641V195.889L-37.8402 197.136C-40.0662 206.172 -38.0586 226.552 -50.3175 227.081L-49.0698 230.824C-36.3142 228.22 -37.0517 207.826 -36.5925 197.136C-33.4894 197.904 -28.491 198.047 -26.2276 200.557C-19.9802 207.482 -31.4793 223.337 -26.2139 231.882C-22.815 237.399 -16.9532 233.997 -14.5114 229.521C-9.99962 221.25 -11.6378 209.93 -11.6378 200.879C-1.77202 202.126 8.35457 203.358 18.3077 203.375C22.8382 203.382 30.1662 202.027 34.1327 204.657C39.6876 208.341 42.3203 231.886 34.4122 234.309C25.3324 237.091 26.0112 210.929 25.7941 205.87H24.5464C24.5464 213.858 23.5345 225.782 26.7199 233.183C29.294 239.162 36.5396 238.615 39.4842 233.246C44.0409 224.944 38.4573 211.11 38.2714 202.127L42.0146 205.87H43.2624C51.435 199 51.123 229.68 56.1177 234.115C63.3521 240.539 67.9862 229.146 66.7871 223.338C66.0085 219.567 64.9891 215.932 64.4738 212.109H63.2261C63.3945 215.98 64.3129 219.526 64.8369 223.338C65.598 228.878 60.4461 236.691 55.9443 229.417C51.7257 222.599 51.0869 209.995 50.7487 202.127L74.4557 199.632C75.9267 211.206 76.961 230.543 90.6761 233.319C96.9173 220.902 89.2774 213.445 88.1806 200.879H86.9329L89.4284 230.824C79.5613 225.409 77.1108 208.84 75.7034 198.384L86.9329 195.889L97.7645 217.046L109.392 229.576C112.904 229.182 117.179 229.976 120.487 228.633C134.858 222.798 123.228 199.962 124.802 190.011C126.076 181.943 137.34 183.122 140.496 176.99C142.921 172.276 136.623 160.228 135.594 154.714C144.668 151.987 146.01 143.163 148.404 134.751C149.442 131.104 151.36 124.38 145.503 123.823C138.493 123.155 124.203 132.107 121.76 138.543C119.287 145.057 125.685 148.938 118.126 153.467ZM-100.227 147.228L-108.961 127.265L-90.2449 135.999H-97.7313C-93.0736 143.075 -79.8875 134.789 -85.254 148.476C-88.568 145.747 -92.7604 142.744 -93.9881 148.476H-87.7495L-93.9881 167.191H-92.7404L-86.5018 150.971H-84.0063C-83.4748 156.698 -87.8468 171.158 -95.2359 168.439C-96.7169 171.784 -99.3085 175.744 -97.9846 179.531C-95.8822 185.545 -89.2879 184.216 -88.9972 178.421L-90.2449 182.164C-95.3681 180.664 -98.1993 171.883 -91.6537 173.862C-81.7442 176.857 -80.9331 187.962 -67.7858 185.907V184.659C-70.7816 184.522 -73.6875 184.355 -76.5174 183.227C-85.8779 179.492 -89.7134 169.497 -84.0125 161.025C-81.0392 156.605 -69.8944 152.409 -77.7676 147.228L-76.5199 153.467L-84.0063 150.971L-80.2631 142.238C-64.8761 146.073 -61.2414 146.594 -62.7948 162.201C-49.6762 144.572 -72.9314 144.486 -82.7586 137.91C-88.8375 133.843 -98.923 123.673 -107.315 126.102C-115.299 128.413 -103.198 144.682 -100.227 147.228ZM38.2714 126.017V127.265C26.7274 131.588 16.4174 129.447 4.58267 128.513V129.761C18.0682 131.743 43.4046 125.468 49.501 138.494C33.0185 147.145 10.7253 146.497 -6.64691 140.99V142.238C6.17354 147.016 18.5847 147.751 32.0328 145.817C39.0288 144.81 46.2731 141.207 53.2442 142.238V143.485C34.5345 152.877 8.7738 152.112 -10.3901 144.733L-6.64691 140.99C-6.63693 133.933 -2.12888 129.87 4.58267 128.513C5.08052 124.551 33.1046 124.496 38.2714 126.017ZM148.072 126.017C146.763 136.143 145.024 151.416 133.099 152.219L135.594 167.191L130.604 168.439C129.023 161.607 118.486 140.574 127.046 136.089C132.005 133.49 135.9 138.67 140.585 134.751L131.851 133.504V131.008L148.072 126.017ZM130.604 139.742L131.851 152.219H133.099L131.851 145.981L135.594 144.733L133.099 139.742H130.604ZM99.4102 153.467H100.658C101.442 143.193 109.738 146.43 116.878 142.238C108.556 140.745 97.586 143.555 99.4102 153.467ZM83.1897 157.21V158.458C43.553 171.875 -2.4196 162.894 -42.8311 159.705C-38.5277 153.537 -20.4119 148.059 -12.8856 146.87C-3.97926 145.463 7.64336 151.761 17.06 152.17C29.9066 152.728 42.2105 145.786 54.4919 146.329C63.5667 146.728 74.9135 153.524 83.1897 157.21ZM-100.227 148.476C-98.3315 152.214 -95.7662 155.182 -92.7404 150.971L-100.227 148.476ZM118.126 172.182L110.64 169.687L113.135 160.953C118.715 163.088 119.642 166.614 118.126 172.182ZM-72.7767 162.201C-71.0062 168.381 -72.0992 172.616 -77.7676 175.925C-80.1234 169.651 -78.9081 165.268 -72.7767 162.201ZM90.6761 167.191C90.4166 172.256 89.2837 182.556 84.9815 185.891C78.2263 191.127 62.687 190.289 54.4919 191.109C29.8093 193.577 4.20961 194.504 -20.372 190.381C-36.5613 187.667 -48.6568 186.604 -49.0698 167.191C-1.63103 176.983 43.1363 176.998 90.6761 167.191ZM109.392 169.687L110.64 170.935C102.674 193.201 107.909 204.614 115.631 225.833C97.1855 220.653 89.0965 176.921 109.392 169.687ZM133.099 178.421L134.347 172.182C126.566 182.532 121.936 188.523 108.144 189.65V184.659C120.003 183.616 122.715 174.147 132.221 170.464C139.132 167.785 141.027 177.097 133.099 178.421ZM98.1625 173.43V182.164H96.9148V178.421H95.667L94.4193 185.907H95.667V183.412H96.9148L98.1625 212.109C90.6125 205.636 87.1562 193.203 88.5575 183.412C89.4321 177.292 91.3037 171.837 98.1625 173.43ZM116.878 174.678L110.64 177.173L113.135 172.182L116.878 174.678ZM-61.5471 222.09C-55.6404 207.593 -52.3014 190.989 -56.5562 175.925C-33.981 177.72 -50.7605 215.283 -61.5471 222.09ZM121.869 188.402C125.843 200.143 127.306 214.935 120.622 225.833H119.374C113.083 217.288 115.248 202.726 114.383 192.145H113.135V213.356H111.888L108.144 190.898L121.869 188.402ZM-52.813 189.65V200.879H-51.5653L-52.813 189.65ZM-64.0426 192.145L-70.2812 213.356C-73.3706 205.994 -73.7424 192.902 -64.0426 192.145ZM-82.3431 194.225L-81.9263 195.056L-82.3431 194.225ZM-12.8856 200.879C-12.8931 212.477 -12.5811 226.29 -21.6197 234.567H-22.8674C-27.942 225.058 -24.764 209.576 -21.6197 199.632L-12.8856 200.879ZM-54.0607 202.127V205.87H-52.813L-54.0607 202.127ZM-31.6015 202.127C-32.6384 210.289 -32.5286 223.471 -36.8108 230.558C-42.886 240.612 -52.4986 237.247 -57.8039 229.576H-59.0517L-55.3085 240.806C-65.4513 247.38 -48.9912 258.63 -47.8221 243.301H-49.0698L-56.5562 249.539C-55.1063 240.445 -42.5342 238.748 -35.3447 234.567L-27.8584 245.796C-43.5136 256.086 -11.1674 262.342 -21.6197 248.292V247.044L-5.39919 237.063C-1.3765 245.769 -1.16438 258.928 9.57361 259.521V257.026C-6.39737 255.227 12.935 242.92 19.5555 241.55C23.8651 240.66 28.4094 245.2 32.0328 247.044C26.7062 255.148 29.7382 264.375 32.0328 273.246H33.2805L29.5373 254.53L33.2805 260.769L40.7669 259.521V252.035H39.5192V255.778L30.785 253.283V252.035L39.5192 249.539L45.7578 239.558L48.2533 268.255H49.501L47.0056 248.292H48.2533V250.787H49.501L48.2533 238.31C66.6074 250.704 66.9368 268.225 75.7034 286.97C69.1229 289.71 58.3188 297.578 50.8848 294.901C42.6672 291.942 42.0758 270.608 42.0146 263.264H40.7669C40.7869 270.407 45.2837 284.052 41.8687 290.367C34.5469 303.905 7.39507 294.343 -2.90372 291.961L0.839478 262.016H-0.408249L-5.39919 295.704L-34.097 286.97L-30.3538 265.76H-31.6015C-31.9409 273.195 -34.1881 290.79 -44.0851 290.409C-51.8635 290.11 -57.3922 283.628 -65.2903 284.475L-59.0517 255.778H-60.2994L-62.7948 265.76H-64.0426L-66.538 240.806H-67.7858L-68.512 281.98L-67.122 301.943L-79.0154 331.888C-71.1172 338.636 -78.6485 352.785 -82.7586 360.585C-92.4447 338.141 -115.49 334.724 -136.411 342.588C-143.582 345.284 -151.118 347.41 -155.127 354.346H-156.375C-156.047 347.267 -153.859 340.104 -146.374 337.693C-134.198 333.772 -115.544 339.548 -105.704 329.111C-87.0919 309.369 -119.151 276.405 -140.154 277.061C-159.232 277.658 -153.177 303.71 -175.091 290.714C-169.287 298.502 -162.84 298.615 -153.879 296.952C-159.639 304.535 -179.744 305.235 -183.394 294.23C-184.893 289.708 -179.181 288.266 -176.338 289.466H-175.091C-171.263 287.589 -166.254 286.928 -163.105 283.935C-147.248 268.863 -190.778 244.198 -195.054 258.273H-193.807C-183.293 248.742 -142.887 278.965 -175.091 285.723C-173.518 276.848 -176.517 266.421 -187.568 266.289C-194.298 266.207 -199.047 272.183 -205.036 267.007H-206.284C-202.035 274.712 -195.655 269.642 -188.821 271.676C-184.429 272.984 -181.144 276.802 -177.586 279.484C-180.448 273.403 -184.614 270.249 -191.311 269.503V268.255C-185.785 267.771 -169.186 276.583 -179.068 282.045C-183.002 284.219 -186.575 279.522 -190.175 278.627C-199.502 276.31 -206.831 280.144 -216.266 275.741C-208.219 285.637 -197.025 279.461 -186.32 281.98V283.227C-204.545 292.767 -193.393 309.493 -178.834 315.56C-173.659 317.716 -166.899 316.845 -161.366 316.915V318.163C-172.543 321.398 -184.008 325.36 -186.32 338.126L-178.834 336.878C-185.093 348.292 -189.385 362.999 -183.416 375.557C-180.737 381.193 -175.842 385.099 -172.942 390.529C-169.22 397.498 -167.892 405.22 -163.097 411.74C-149.213 430.615 -125.377 439.558 -102.722 436.694C-106.839 446.58 -112.035 456.102 -117.346 465.391C-119.565 469.275 -123.964 474.335 -123.371 479.097C-122.257 488.032 -100.199 493.219 -92.7404 495.038C-68.492 500.949 -44.4245 505.785 -20.372 511.993C-13.0727 513.875 -3.28432 512.488 2.58252 518.67C7.28523 523.627 5.8304 536.421 5.8304 542.748C5.8304 564.42 6.28583 586.056 4.58267 607.629C-4.97995 607.297 -14.2905 606.479 -19.1242 616.362C-33.7352 612.376 -37.8103 614.299 -51.5653 619.2C-60.6113 622.423 -67.4052 622.087 -67.7858 633.83C-53.1861 636.777 -50.0131 656.269 -36.5925 662.527V665.023C-45.5475 667.683 -62.4904 678.837 -57.8039 688.729C-72.0805 692.97 -99.2411 717.516 -87.8218 734.483C-82.4603 742.45 -67.6273 745.354 -59.0517 748.203C-12.9929 763.499 36.2338 762.759 83.1897 752.624C93.2988 750.441 111.463 749.046 118.496 740.646C131.065 725.63 106.93 698.397 93.1716 693.72C94.846 682.799 80.2838 672.02 70.7125 668.766V666.27C83.7238 661.238 87.6143 650.412 95.4026 640.18C97.8182 637.006 103.27 633.582 101.498 628.952C98.4695 621.043 89.4309 623.638 83.4019 621.655C72.7949 618.165 64.6922 604.638 53.2442 617.61H51.9965C46.6075 609.443 39.0126 606.647 29.5373 608.876C24.6425 588.319 27.0843 561.443 27.0419 540.253C27.0306 534.571 23.366 523.113 28.6864 519.216C36.7317 513.323 49.0643 514.932 58.2351 512.487C72.4605 508.694 86.4688 504.062 100.658 499.805C104.862 498.544 107.869 494.762 112.243 494.128C122.811 492.596 131.506 489.769 141.833 487.257C146.069 486.228 152.021 486.406 153.87 481.475C155.844 476.21 150.552 468.719 148.457 464.143C142.68 451.527 136.322 438.593 131.851 425.465C156.233 435.955 186.113 431.524 201.671 409.245C206.93 401.712 206.531 393.149 210.681 385.668C212.941 381.595 217.518 379.522 219.987 375.503C227.572 363.154 223.543 348.138 214.202 338.126L224.183 335.631C216.072 311.986 184.011 325.607 168.035 329.392C164.623 317.423 168.516 296.987 186.728 304.118C192.411 306.342 193.749 312.677 198.216 316.274C202.876 320.027 208.699 318.793 214.202 319.411L220.44 309.429C210.455 311.953 194.373 321.483 195.486 301.943H196.733C201.555 311.012 221.292 312.425 226.087 301.869C228.454 296.661 225.256 291.518 222.936 286.97C234.954 293.223 238.137 309.384 221.688 311.924L215.449 319.411V320.658C232.437 315.035 246.957 295.679 225.431 284.475C236.238 275.878 262.707 289.302 254.129 265.76C267.332 261.122 255.324 250.066 246.809 253.737C242.765 255.481 241.642 260.751 240.404 264.512H237.908C233.306 247.038 203.269 260.457 202.046 273.247C201.088 283.265 218.844 287.24 216.189 294.344C213.817 300.689 205.512 299.395 200.477 298.2V299.447C210.745 302.923 220.773 301.401 217.945 288.218C228.492 296.553 215.615 306.778 205.486 304.934C191.294 302.348 198.985 274.335 176.77 278.888C159.908 282.345 120.82 308.373 143.212 327.653C158.115 340.485 174.642 328.697 190.495 326.056C201.866 324.161 210.384 327.215 220.44 331.888C215.837 334.354 209.318 339.832 204.22 340.362C198.755 340.928 192.382 337.437 186.751 337.139C158.407 335.637 122.173 335.253 121.869 371.814H120.622L110.64 339.374L115.631 336.878V335.631L110.64 336.878V335.631L116.878 334.383L104.401 283.227H105.649V288.218H106.897L106.915 265.76L109.392 230.824H108.144L104.401 268.255H103.153L94.4193 240.806L103.153 225.833H101.906C100.034 228.839 98.0714 231.769 95.8105 234.51C90.2406 241.261 81.675 238.601 76.6242 231.806C71.4823 224.887 71.0793 211.702 69.4647 203.375H68.217C68.5888 212 74.4694 223.781 72.2422 232.072C68.917 244.449 54.4221 244.239 48.287 234.239C44.3828 227.874 44.827 214.494 44.5101 207.118H43.2624C43.3297 215.255 47.9089 228.023 44.9868 235.598C40.6659 246.803 27.1304 243.803 21.5555 235.699C17.0425 229.136 19.5555 216.036 19.5555 208.365H18.3077C18.3077 225.146 20.8444 238.713 3.33495 247.044L-5.509 233.319L-4.15144 204.622H-5.39919C-5.46655 212.77 -5.18584 227.257 -9.17734 234.436C-14.469 243.954 -26.8302 245.932 -31.9858 235.814C-37.1939 225.59 -27.2607 212.57 -31.6015 202.127ZM61.9783 204.622V210.861H63.2261L61.9783 204.622ZM12.0691 207.118C12.0691 214.026 15.0411 230.697 7.34888 234.521C-1.4389 238.889 1.245 211.901 2.0872 208.365C-5.44035 214.943 0.241821 233.514 5.8304 239.558H7.07814C14.149 231.911 16.2103 216.986 12.0691 207.118ZM-55.3085 208.365L-54.0607 209.613L-55.3085 208.365ZM-51.1498 224.17L-50.733 225.001L-51.1498 224.17ZM-68.618 235.399L-68.2013 236.23L-68.618 235.399ZM104.401 281.98L79.4466 291.961C74.1412 276.278 68.2232 263.624 70.7125 247.044C69.5858 248.853 61.1898 256.705 62.0195 249.515C62.4712 245.604 69.0717 241.676 71.9602 239.558L73.2079 245.796H74.4557L73.2079 237.063L74.4557 235.815C93.7032 241.36 101.711 263.767 104.401 281.98ZM96.9148 243.301C94.4505 247.633 91.8926 247.633 89.4284 243.301H96.9148ZM-4.15144 243.301L-7.89464 270.75H-6.64691C-3.61368 262.711 -0.685257 251.56 -4.15144 243.301ZM67.8015 246.212L68.6325 246.629L67.8015 246.212ZM-25.424 248.299C-20.4294 248.383 -19.9627 255.82 -25.3629 255.197C-30.0107 254.66 -30.5123 248.214 -25.424 248.299ZM74.4557 247.044L75.7034 248.292L74.4557 247.044ZM-225 254.53V255.778C-220.291 255.738 -213.388 252.989 -209.045 254.266C-203.289 255.956 -200.579 270.124 -193.807 260.769C-202.709 263.194 -201.612 254.031 -208.834 251.93C-213.789 250.489 -219.981 254.03 -225 254.53ZM-7.89464 250.787L-9.14238 258.273H-7.89464V250.787ZM8.74138 251.619L9.1581 252.45L8.74138 251.619ZM71.9602 250.787L76.9511 267.007H78.1989L71.9602 250.787ZM49.9165 252.867L50.3333 253.698L49.9165 252.867ZM-36.5925 253.283L-37.8402 255.778H-35.3447L-36.5925 253.283ZM12.0691 254.53L10.8213 271.998H12.0691V254.53ZM259.12 258.273V260.769L253.357 277.484L231.675 277.579L217.945 284.475C219.954 266.821 238.469 278.101 246.643 269.503C233.946 276.243 219.332 259.436 212.954 280.732H214.202C216.671 273.535 221.737 270.27 229.174 269.503V270.75C222.241 274.058 217.735 276.803 215.449 284.475C207.501 283.589 200.041 276.57 206.538 268.742C210.537 263.924 220.749 259.995 226.674 258.286C234.391 256.06 234.354 264.425 240.53 265.626C244.795 266.456 248.1 263.886 250.386 260.769L242.899 263.264C245.458 253.702 251.33 255.279 259.12 258.273ZM51.1642 256.61L51.581 257.441L51.1642 256.61ZM-35.3447 257.026L-36.5925 264.512H-35.3447V257.026ZM-222.505 259.521V260.769C-216.871 263.65 -214.967 265.584 -216.266 271.998C-210.111 265.871 -215.829 261.27 -222.505 259.521ZM246.643 268.255L247.89 269.503L246.643 268.255ZM-120.191 331.888V330.64C-102.946 316.244 -115.502 309.902 -127.335 299.523C-131.695 295.699 -133.571 289.628 -140.156 288.846C-145.688 288.189 -149.5 293.245 -153.879 295.704C-153.337 284.012 -143.224 275.24 -131.439 281.129C-125.807 283.942 -123.588 289.85 -119.718 294.403C-115.502 299.36 -108.739 301.427 -105.229 306.987C-97.679 318.949 -107.859 331.246 -120.191 331.888ZM194.238 296.952H192.99C186.296 285.069 172.656 287.563 168.035 299.447C174.129 295.164 193.729 289.865 191.742 303.19C171.423 296.739 161.096 310.124 165.54 329.392C155.513 331.245 151.85 319.95 155.955 311.978C158.087 307.837 162.584 305.433 165.54 301.943C158.396 305.713 152.148 307.377 149.319 315.667H150.567L153.063 309.429H154.31L153.063 329.392C140.696 326.93 133.092 313.077 144.465 303.731C149.029 299.98 155.565 300.977 160.063 297.291C166.21 292.254 166.891 284.401 175.522 281.736C185.73 278.583 195.791 286.408 194.238 296.952ZM-122.686 284.475C-116.324 288.027 -112.351 290.991 -110.209 298.2C-116.175 296.166 -122.459 291.214 -122.686 284.475ZM-183.825 285.723C-189.17 303.363 -165.664 307.886 -152.632 304.438C-157.35 320.18 -167.43 311.596 -177.586 307.854C-182.314 306.113 -187.922 307.944 -191.744 303.897C-198.907 296.313 -192.121 287.401 -183.825 285.723ZM101.906 285.723L113.135 330.64L86.9329 341.869C80.436 327.211 73.9017 309.327 73.2079 293.209C80.9189 295.707 80.9812 308.532 81.942 315.667H83.1897L79.4466 293.209L83.1897 296.952H84.4374C86.6297 290.647 96.0675 288.153 101.906 285.723ZM-62.7948 286.97L-64.0426 290.714H-65.2903V286.97H-62.7948ZM-44.0789 338.126L-74.0244 328.144L-61.5471 286.97L-34.1494 295.209L-34.8157 306.934L-44.0789 338.126ZM163.045 286.97C161.449 294.85 156.904 296.862 149.319 296.952C152.728 291.12 156.299 288.042 163.045 286.97ZM76.9511 289.466L73.2079 291.961L76.9511 289.466ZM-132.668 295.704L-147.641 294.457V295.704C-137.603 295.711 -116.234 301.784 -113.268 313.288C-111.038 321.938 -121.582 334.188 -130.172 329.392C-110.972 313.916 -135.896 300.764 -151.384 301.943L-147.641 295.704C-150.341 293.673 -136.466 286.624 -132.668 295.704ZM-30.3538 290.714C-22.1051 295.021 -9.49799 296.24 -9.14238 306.934H-7.89464C-7.83725 304.553 -7.30945 294.636 -2.35844 298.307C0.719711 300.59 -1.2879 306.439 -1.91925 309.429C-3.61493 317.47 -7.16223 340.87 -14.7697 345.177C-21.7782 349.146 -34.7658 341.238 -41.5834 339.374L-30.3538 290.714ZM184.256 290.714V291.961L173.026 293.209L184.256 290.714ZM71.9602 293.209L83.1897 338.126C76.6628 341.939 62.9141 352.198 54.8837 348.584C50.8123 346.753 50.8137 339.364 49.8317 335.631C46.3792 322.502 43.2711 309.349 43.2624 295.704C54.3772 299.893 61.065 295.084 71.9602 293.209ZM40.7669 296.952C42.6921 307.319 43.0578 317.865 45.6268 328.144C46.6462 332.224 49.9439 338.53 48.5315 342.74C47.2613 346.526 40.3102 347.831 37.0237 349.101C19.5367 355.861 7.56476 348.323 -9.14238 344.365L0.839478 295.704C16.5634 299.062 24.7922 299.3 40.7669 296.952ZM225.431 295.704L221.688 303.19L225.431 295.704ZM-40.3357 298.2L-39.0879 299.447L-40.3357 298.2ZM-46.1588 300.28L-45.7421 301.111L-46.1588 300.28ZM84.4374 299.447V304.438H85.6852L84.4374 299.447ZM166.788 299.447L165.54 301.943L166.788 299.447ZM-41.5834 301.943V305.686H-40.3357L-41.5834 301.943ZM48.6688 302.775L49.0855 303.606L48.6688 302.775ZM-160.118 319.411C-153.248 308.558 -140.147 295.313 -128.492 309.695C-123.918 315.338 -123.737 326.652 -132.687 327.805C-141.986 329.004 -150.464 319.852 -160.118 319.411ZM53.2442 304.438V308.181H54.4919L53.2442 304.438ZM12.0691 305.686L8.32587 333.135H9.57361C12.1951 324.884 15.5827 314.059 12.0691 305.686ZM49.501 305.686L51.9965 321.906H53.2442L49.501 305.686ZM-42.8311 306.934L-45.3266 319.411H-44.0789L-42.8311 306.934ZM-10.3901 306.934L-14.1333 326.897H-12.8856L-10.3901 306.934ZM-172.595 314.42L-185.073 310.677C-179.804 307.144 -175.604 309.268 -172.595 314.42ZM54.9075 310.261L55.3242 311.092L54.9075 310.261ZM30.785 313.172L33.2805 333.135H34.5282L30.785 313.172ZM83.1897 315.667L85.6852 323.154H86.9329L83.1897 315.667ZM-116.447 316.915L-115.2 318.163L-116.447 316.915ZM-132.668 333.135V334.383C-140.567 334.383 -147.681 334.417 -155.127 337.445C-160.189 339.502 -165.012 343.995 -170.1 340.621L-182.577 351.851H-183.825C-182.177 345.333 -179.01 337.691 -171.348 340.621L-182.577 335.631C-175.787 311.656 -146.012 325.34 -132.668 333.135ZM-54.0607 376.805H-52.813L-42.8311 340.621L-37.8402 341.869V348.108H-36.5925V343.117L-20.372 348.108L-22.8674 368.071H-21.6197L-16.6288 348.108H-14.1333L-12.8856 349.355L-21.6197 383.043H-20.372C-16.9956 374.339 -15.2812 351.595 -7.89464 346.86C-8.20657 361.983 -13.3822 376.04 -17.0904 390.529C-18.1897 394.82 -18.4168 402.75 -23.1519 404.731C-31.3945 408.177 -43.1493 398.521 -50.3175 395.52L-37.8402 348.108H-39.0879C-40.0974 360.785 -43.9104 373.869 -48.9113 385.539C-50.5059 389.262 -52.4437 395.184 -56.822 396.352C-67.686 399.252 -79.3635 389.465 -87.7495 384.291L-86.5018 390.529C-91.2881 385.525 -87.9991 380.009 -85.6072 374.309C-80.1084 361.203 -76.5149 347.6 -71.529 334.383L-76.5199 329.392C-71.3755 330.572 -49.2682 338.861 -47.439 343.509C-44.0052 352.23 -51.7549 368.354 -54.0607 376.805ZM79.4466 351.851H78.1989C78.6992 363.463 90.0947 382.359 87.1975 392.808C85.4756 399.02 63.9747 412.524 58.4398 405.992C55.7846 402.858 55.9655 396.875 55.1782 393.025C53.1906 383.306 43.6741 363.025 47.8079 353.495C53.1394 341.202 60.2452 361.812 60.7306 365.575H61.9783L59.4829 351.851L76.9511 346.86V351.851H78.1989C79.6437 343.165 89.618 342.66 90.6761 351.851H91.9238L90.6761 343.117C94.8186 342.159 103.547 337.205 107.441 339.538C110.293 341.248 110.68 346.463 111.426 349.355C113.417 357.076 124.412 375.559 121.569 382.826C118.93 389.571 99.2943 400.805 92.7961 394.766C87.5719 389.912 85.7263 378.414 83.6189 371.814C81.5414 365.306 79.7448 358.692 79.4466 351.851ZM-155.127 339.374C-156.99 346.219 -156.41 357.074 -163.861 359.337C-163.855 350.724 -163.338 343.867 -155.127 339.374ZM197.981 345.612C208.113 340.508 206.753 358.929 205.467 364.328L181.761 349.355V350.603C202.497 358.659 200.168 392.744 184.206 404.706C167.245 417.415 146.102 410.413 128.108 405.502V406.749L164.292 414.236V415.483L130.604 412.988V414.236C144.37 417.991 156.328 421.003 170.531 416.451C195.439 408.47 203.193 381.17 194.238 359.337C213.835 366.955 208.936 393.939 199.793 407.996C188.458 425.422 150.152 437.075 132.199 422.092C126.23 417.112 122.549 399.334 121.869 391.777C138.842 393.656 151.696 408.25 170.531 401.056C199.077 390.151 190.324 352.221 166.788 341.869C174.746 338.53 193.07 337.199 197.981 345.612ZM219.192 349.355L209.211 344.365C213.412 336.993 217.609 344.044 219.192 349.355ZM-120.191 401.759V400.511C-110.6 396.833 -101.66 392.669 -96.546 383.038C-88.0514 367.04 -101.289 349.634 -117.695 347.235C-127.759 345.764 -135.177 350.276 -143.897 354.346C-134.624 334.642 -99.8862 337.621 -89.1632 354.351C-82.6151 364.568 -87.5985 371.704 -90.9462 381.795C-93.5128 389.526 -93.5065 393.733 -101.475 398.134C-107.501 401.463 -113.479 401.754 -120.191 401.759ZM176.77 351.851C166.599 348.949 158.554 344.749 148.072 349.591C118.575 363.22 136.51 396.803 163.045 398.016C156.185 403.011 144.201 397.65 138.109 393.115C121.04 380.409 118.295 347.819 143.081 341.318C148.375 339.929 155.204 340.195 160.549 341.205C167.605 342.539 172.631 346.113 176.77 351.851ZM-52.813 343.117L-54.0607 350.603H-52.813V343.117ZM-170.1 345.612L-171.348 363.08H-170.1L-166.357 345.612H-165.109L-173.843 383.043C-187.268 372.676 -187.964 351.32 -170.1 345.612ZM199.229 345.612V358.089H200.477L199.229 345.612ZM210.458 345.612C224.207 354.38 225.213 371.604 210.458 380.548L212.702 360.585L210.458 345.612ZM-0.408249 374.309H0.839478L4.58267 351.851H5.8304C9.33904 363.72 4.08482 376.599 0.839478 388.034H2.0872L8.32587 354.346L35.776 353.098V361.832H37.0237C37.0474 355.201 37.3019 350.859 44.5101 349.355L54.4919 404.254C38.7493 407.308 23.4659 413.728 7.07814 411.366C-1.45261 410.136 -8.49855 405.348 -16.6288 403.006L-5.39919 346.86C6.31827 352.186 0.909348 364.109 -0.408249 374.309ZM-143.897 348.108C-147.516 356.118 -150.998 364.005 -150.448 373.062C-148.704 401.79 -113.66 408.384 -91.4927 404.254C-92.8714 416.489 -109.492 413.927 -118.943 412.44C-145.636 408.239 -181.544 364.712 -143.897 348.108ZM85.6852 348.108L86.9329 349.355L85.6852 348.108ZM-143.897 385.539C-136.764 387.859 -128.781 391.229 -121.44 387.637C-101.904 378.081 -112.652 355.012 -130.172 351.851C-122.046 346.298 -106.212 349.789 -102.395 359.342C-96.6708 373.674 -104.784 389.099 -118.943 393.819C-123.366 395.294 -128.102 396.038 -132.668 394.724C-137.888 393.221 -141.358 390.18 -143.897 385.539ZM171.779 351.851V353.098C155.381 353.813 138.442 371.395 155.612 384.842C163.762 391.225 172.398 388.774 181.761 388.034C172.082 400.28 150.567 394.008 143.092 381.777C139.325 375.613 140.237 367.286 141.833 360.585H140.585C136.178 374.488 141.005 386.121 154.31 393.025V394.272C132.01 389.492 127.893 363.791 146.824 351.851L145.576 355.594C154.026 349.279 161.882 348.144 171.779 351.851ZM86.9329 350.603L94.4193 376.805H95.667L86.9329 350.603ZM-54.893 352.683L-54.4762 353.514L-54.893 352.683ZM92.3393 352.683L92.7561 353.514L92.3393 352.683ZM209.211 353.098L207.963 368.071H206.715L209.211 353.098ZM-137.658 354.838C-116.273 349.901 -101.626 380.912 -125.181 386.295C-131.222 387.675 -141.412 386.705 -145.485 381.511C-152.029 373.164 -148.358 357.308 -137.658 354.838ZM53.2442 355.594L54.4919 356.841L53.2442 355.594ZM144.329 355.594L141.833 360.585H143.081L144.329 355.594ZM165.54 356.001C185.718 352.604 195.711 382.28 175.522 386.202C151.776 390.815 138.824 360.496 165.54 356.001ZM32.0328 359.337L37.0237 389.282H38.2714L32.0328 359.337ZM54.4919 359.337L59.4829 384.291H60.7306L54.4919 359.337ZM-98.9791 360.585C-88.6316 380.326 -106.623 398.246 -126.429 399.263V398.016C-104.086 390.869 -102.226 381.385 -98.9791 360.585ZM-160.118 361.832C-169.804 402.049 -125.103 416.122 -93.9881 415.483C-97.3084 424.675 -104.339 422.445 -112.704 420.954C-129.661 417.931 -141.753 411.382 -153.879 399.263C-140.066 418.871 -119.399 421.442 -97.7313 425.465C-101.316 437.39 -116.308 435.478 -126.429 432.753C-147.128 427.18 -164.542 412.925 -170.367 391.777C-173.25 381.313 -172.227 365.306 -160.118 361.832ZM61.9783 365.575L63.2261 370.566H64.4738L61.9783 365.575ZM-1.65599 374.309L-0.408249 375.557L-1.65599 374.309ZM-22.8674 383.043L-21.6197 384.291L-22.8674 383.043ZM124.365 385.539L120.622 389.282L121.869 385.539H124.365ZM-160.118 386.786L-155.127 399.263H-153.879L-160.118 386.786ZM128.108 386.786L134.347 394.272C130.803 392.724 127.14 391.04 128.108 386.786ZM-82.7586 390.529L-62.7948 400.511L-70.2812 429.208H-69.0335L-60.2994 400.511H-59.0517L-72.7767 449.171H-71.529L-60.67 420.474L-56.1606 402.155L-47.8221 399.263C-49.2919 432.978 -69.7584 463.438 -81.5108 494.088L-120.191 475.373L-97.0164 430.456L-82.7586 390.529ZM118.126 390.529L132.384 434.199L150.567 476.62C141.974 481.404 122.019 498.053 111.161 491.509C106.25 488.548 103.87 477.925 101.719 472.877C95.1518 457.458 90.9844 440.627 87.6817 424.217C86.7197 419.438 83.6401 411.774 85.3021 407.011C86.616 403.245 91.0517 401.75 94.4193 400.511L108.144 454.162H109.392L95.667 400.511L99.4102 399.263L106.897 425.465H108.144L101.906 398.016L118.126 390.529ZM-87.7495 391.777C-88.291 401.64 -93.8521 402.981 -102.722 403.006V401.759L-91.4927 391.777H-87.7495ZM90.6761 396.768L83.1897 403.006L90.6761 396.768ZM-24.1152 409.245L-29.1061 429.208H-27.8584L-21.6197 406.749H-20.372L-30.3538 461.648H-29.1061L-17.8765 410.492C-4.14021 415.85 -9.44685 425.643 -11.5393 437.942C-15.4509 460.944 -28.3612 483.747 -30.3538 506.565L-55.3085 500.345L-76.5199 487.85L-45.3266 400.511L-24.1152 409.245ZM81.942 403.006C84.5235 423.412 88.8732 443.245 94.9633 462.896C97.0046 469.482 104.917 479.626 103.383 486.597C101.374 495.724 74.8848 511.145 66.5974 503.317C62.6296 499.568 61.866 491.605 60.3051 486.602C54.9748 469.522 52.7401 451.788 49.8092 434.199C48.4317 425.931 44.1994 415.766 54.4919 412.988L66.9693 464.143H68.217L58.2351 410.492L81.942 403.006ZM-7.89464 411.74C-12.6635 410.59 -16.7186 409.647 -16.6288 404.254L-7.89464 411.74ZM126.86 404.254L128.108 405.502L126.86 404.254ZM54.4919 406.749L44.5101 412.988L50.0438 452.914L61.9783 501.574C28.629 517.376 5.95143 519.332 -26.6106 500.327C-14.5126 470.83 -11.1737 441.489 -5.39919 410.492C6.94588 413.823 0.919327 429.509 0.839478 439.19H2.0872L4.58267 414.236L5.8304 412.988L9.57361 414.236L-0.408249 472.877H0.839478C6.71255 452.335 10.8213 435.846 10.8213 414.236L37.0237 412.988L39.5192 441.685C43.1364 424.993 30.5043 410.343 54.4919 406.749ZM61.9783 411.74L66.9693 436.694H68.217L61.9783 411.74ZM33.2805 414.236C32.8625 434.506 34.9787 451.824 39.5192 471.63H40.7669L35.8882 441.685L33.2805 414.236ZM108.144 425.465L109.392 426.713L108.144 425.465ZM-29.9383 430.04L-29.5216 430.871L-29.9383 430.04ZM-31.6015 461.648L-30.3538 462.896L-31.6015 461.648ZM68.217 464.143L69.4647 465.391L68.217 464.143ZM-110.209 485.354C-115.983 484.759 -121.541 483.13 -121.438 476.62L-110.209 485.354ZM151.815 477.868L144.329 484.107V482.859L151.815 477.868ZM-64.0426 499.079C-70.0055 498.555 -76.6297 497.297 -76.5199 490.345L-64.0426 499.079ZM106.897 490.345L98.1625 497.831L106.897 490.345ZM-25.3629 502.822L-16.6288 507.813V509.061C-20.901 508.826 -26.5333 508.205 -25.3629 502.822ZM64.4738 505.317L51.9965 510.308L64.4738 505.317ZM23.2987 519.042C23.2987 547.518 22.429 578.137 26.1547 606.381C27.8566 619.277 44.2156 624.844 35.776 637.573H34.5282C21.2137 620.149 14.3474 627.749 -1.65599 635.078L-7.89464 625.096L6.79362 611.37L8.32587 581.427V519.042H23.2987ZM4.58267 610.124C1.31113 619.66 -8.53972 626.473 -17.8765 621.353C-14.6586 610.616 -5.60007 608.261 4.58267 610.124ZM50.7487 623.849H51.9965C61.8835 605.251 90.2806 621.196 65.7215 632.583C58.5384 622.943 51.9478 626.006 42.0146 628.839C39.7425 624.497 29.9103 617.866 30.6864 613.011C31.314 609.093 38.2315 610.152 40.7619 610.82C47.4447 612.585 50.0825 617.402 50.7487 623.849ZM-20.372 622.601L-30.3538 630.087H-31.6015L-44.0789 620.106V617.61C-36.3005 615.145 -23.5287 612.599 -20.372 622.601ZM-19.1242 666.27C-43.0058 664.318 -45.9892 639.148 -65.2903 632.583C-63.0332 618.086 -44.0028 620.535 -35.5294 628.252C-30.0369 633.255 -32.6198 639.928 -30.8068 646.307C-28.6732 653.815 -23.1631 659.785 -19.1242 666.27ZM5.8304 672.509C-11.15 668.115 -37.0541 655.382 -28.1803 632.589C-23.6448 620.938 -9.65892 625.161 -4.6106 633.849C-0.869888 640.287 -3.57005 646.869 -2.32356 653.793C-1.05087 660.865 3.12782 666.073 5.8304 672.509ZM56.9874 667.518C60.7194 661.466 65.2561 655.76 67.2325 648.803C68.4965 644.36 67.5083 639.288 69.6881 635.127C73.3752 628.09 95.3401 617.661 98.9798 630.111C100.205 634.303 93.4686 639.454 91.3237 642.569C83.0812 654.543 72.6178 666.707 56.9874 667.518ZM15.8123 628.022C39.3919 624.466 40.279 670.136 20.7982 673.467C-3.51764 677.624 -9.19603 631.793 15.8123 628.022ZM29.5373 672.509C34.0716 661.603 33.0285 650.263 36.7205 640.074C40.2354 630.374 56.396 622.799 63.5654 632.719C78.774 653.756 46.499 672.463 29.5373 672.509ZM-14.1333 670.014C-26.5258 685.384 -38.3792 698.924 -57.8039 686.234V683.738L-35.3447 667.554L-14.1333 670.014ZM45.7578 672.509C61.0151 669.677 71.2015 668.973 83.1885 679.902C85.795 682.277 91.3986 685.714 90.2444 689.94C88.842 695.081 81.4567 696.778 76.9511 697.246C63.5455 698.637 51.7906 683.046 45.7578 672.509ZM4.58267 675.004C1.85263 679.431 -1.81946 683.682 -3.34169 688.729C-4.38229 692.179 -3.08839 697.381 -5.43414 700.28C-9.81119 705.689 -30.2702 703.07 -32.4176 696.029C-33.5231 692.408 -28.3575 688.739 -26.4859 686.185C-18.1024 674.746 -9.39691 670.272 4.58267 675.004ZM25.7941 675.004C28.3832 678.933 30.9822 682.91 32.2961 687.481C41.7401 720.351 -18.0762 710.5 1.65297 682.497C3.59819 679.736 6.24463 676.873 9.57481 675.869C14.4035 674.412 20.5998 675.965 25.7941 675.004ZM28.2896 675.004C42.2841 675.004 47.5383 677.58 56.3798 688.729C58.6269 691.562 63.9572 695.685 62.7943 699.822C60.9814 706.272 40.7944 707.667 37.0587 702.949C34.547 699.779 35.9906 693.768 35.1159 689.977C33.8707 684.585 30.6016 679.956 28.2896 675.004ZM-35.3447 696.215C-41.4437 708.264 -73.4917 745.441 -86.3945 718.566C-88.6903 713.783 -83.2839 712.347 -80.2619 710.285C-72.7206 705.141 -68.2861 694.052 -59.0517 691.466C-52.1554 689.536 -42.7401 695.893 -35.3447 696.215ZM119.374 719.921C116.258 730.381 104.758 735.815 94.4193 730.946C83.8235 725.958 71.7805 709.029 66.9693 698.711L93.1716 695.913L119.374 719.921ZM-12.8856 706.197C-15.9051 713.52 -19.0406 724.458 -24.4621 730.24C-34.4826 740.926 -53.4418 742.189 -60.2994 727.408L-34.097 701.515L-12.8856 706.197ZM-27.8584 734.894C-17.4148 728.709 -18.5827 716.832 -10.2591 708.929C-3.55756 702.566 13.7123 707.571 14.4872 717.45C16.1304 738.431 -17.0542 756.808 -27.8584 734.894ZM89.4284 729.903C86.8855 742.198 70.8859 741.195 61.9796 736.26C52.3034 730.899 47.3949 717.283 43.2624 707.444L66.9642 705.25L89.4284 729.903ZM58.2351 736.141C54.7353 747.774 36.6245 745.434 28.3083 740.367C18.284 734.26 16.0381 723.363 15.8123 712.435C21.9836 711.931 28.8398 706.755 34.5282 707.215C46.8147 708.211 49.2614 729.665 58.2351 736.141ZM-86.5018 724.912C-72.3338 727.438 -59.4409 737.17 -45.3266 740.939C-6.48845 751.31 36.4772 752.796 75.7034 743.776C87.7465 741.006 99.0821 737.677 110.639 733.317C113.22 732.343 119.798 730.685 118.264 735.984C115.369 745.972 89.1652 747.973 80.6943 750.028C38.9976 760.141 -2.3098 759.924 -44.0789 750.011C-56.2018 747.134 -90.205 741.23 -86.5018 724.912ZM-60.2994 732.398L-66.538 729.903L-60.2994 732.398ZM17.06 729.903L30.785 747.371L2.0872 746.123L17.06 729.903ZM96.9148 734.894V736.141L90.6761 737.389L91.9238 733.646L96.9148 734.894ZM-26.6106 742.38L-32.8493 739.885L-26.6106 742.38ZM66.9693 743.628L58.2351 744.875C60.5796 740.662 63.8911 739.342 66.9693 743.628Z" fill="#BBBBBB"/>
</g>
<defs>
<clipPath id="clip0_944_753">
<rect width="485" height="760" fill="white" transform="translate(-225)"/>
</clipPath>
</defs>
</svg>
