<svg width="285" height="598" viewBox="0 0 285 598" fill="none" xmlns="http://www.w3.org/2000/svg">
<g opacity="0.2">
<path opacity="0.97" d="M-42.2207 268.037C-42.8972 268.632 -43.489 269.311 -43.9118 270.161C-44.842 271.435 -45.7721 272.709 -46.5332 273.984C-52.9596 284.517 -54.8199 297.345 -52.3677 309.239C-52.2831 311.277 -51.6912 313.316 -50.7611 315.1C-48.9854 320.283 -46.2795 325.125 -42.728 329.287C-29.7905 344.748 -7.97427 350.526 10.7973 343.135C29.9085 335.574 42.1691 316.629 41.1538 295.986C40.9846 293.268 40.6473 290.55 39.9705 287.916C39.9705 287.577 39.9705 287.236 39.9705 286.896C39.8859 284.943 39.1245 283.159 38.0258 281.715C32.107 266.168 18.239 253.256 1.32748 251.811C1.07368 251.811 0.819874 251.896 0.735271 252.151C-2.90038 251.641 -6.53715 251.556 -10.0882 251.811C-10.342 251.811 -10.5958 251.811 -10.8496 251.896C-22.8566 253.171 -34.2721 258.863 -42.2207 268.037ZM-44.9265 275.937C-44.7574 277.552 -44.1655 279.081 -43.4044 280.44C-45.0111 280.525 -46.5332 280.95 -47.8861 281.884C-47.0404 279.76 -46.1104 277.807 -44.9265 275.937ZM-48.478 286.046C-47.2096 283.413 -44.5883 282.139 -41.8824 282.309C-41.2059 282.904 -40.4449 283.413 -39.5994 283.668C-40.2757 285.877 -40.1066 288.171 -39.3457 290.295C-42.728 291.059 -45.5184 293.437 -46.7022 296.666C-50.4228 294.627 -50.1691 289.445 -48.478 286.046ZM-24.6324 289.361C-28.353 288.766 -32.2427 290.379 -34.1875 293.523C-37.5699 291.144 -38.9229 286.301 -36.8088 282.649C-34.6949 278.996 -30.1287 277.892 -26.239 278.911C-27.7611 282.394 -27.3383 286.896 -24.6324 289.361ZM-23.7868 278.486C-23.7022 278.402 -23.6177 278.316 -23.5331 278.147C-22.0111 276.277 -19.8125 275.343 -17.4452 276.023C-15.9224 276.447 -12.2021 278.231 -11.8637 280.186C-14.9929 281.205 -17.7836 283.073 -19.8971 285.707C-20.7427 286.811 -21.5037 288.001 -22.1802 289.275C-23.7022 286.046 -26.1544 282.989 -24.4633 279.591C-23.7023 279.845 -23.1103 278.996 -23.7868 278.486ZM16.8865 272.964C16.8865 272.879 16.9699 272.879 16.8865 272.964C20.2683 271.095 24.75 271.775 26.7793 275.173C28.301 277.807 27.878 281.12 26.1871 283.499C23.8194 282.479 21.1143 282.478 18.7466 283.668C17.9851 282.649 17.0545 281.884 15.9558 281.289C17.816 278.911 18.1544 275.598 16.8865 272.964ZM-28.6067 319.773C-28.5221 319.857 -28.5221 319.943 -28.4376 319.943C-32.7501 324.785 -39.4301 318.923 -40.3603 313.742C-41.2059 308.899 -38.5001 304.736 -34.4412 302.528C-32.7501 305.501 -29.3678 307.455 -25.7317 307.625C-29.3678 310.343 -31.1434 316.205 -28.6067 319.773ZM-23.5331 305.586C-25.3935 305.161 -27.3383 305.246 -29.1985 304.481C-31.9045 303.377 -33.5111 300.999 -33.4265 298.025C-33.2574 292.418 -27.6765 290.209 -22.9412 291.145C-24.717 295.731 -24.9707 300.913 -23.5331 305.586ZM-22.6875 307.964C-22.5184 308.304 -22.3494 308.729 -22.1802 309.069C-20.0662 313.061 -16.6838 315.865 -12.7098 317.309C-16.1762 319.857 -20.5736 322.746 -24.8861 320.283C-25.3935 320.028 -25.8163 319.688 -26.1544 319.263C-26.239 319.178 -26.3235 319.093 -26.4081 319.008C-29.0295 315.526 -26.7464 309.409 -22.6875 307.964ZM-18.206 288.766C-14.9929 291.993 -11.6099 295.221 -8.31268 298.365C-8.56648 298.365 -8.73569 298.365 -8.98949 298.365C-12.879 296.156 -16.5992 293.523 -20.489 291.569C-19.8971 290.295 -19.2206 289.106 -18.4596 288.085C-18.4596 288.34 -18.3751 288.595 -18.206 288.766ZM13.5035 297.176C13.5035 296.836 13.4189 296.411 13.3343 295.986C14.1803 296.326 15.1098 295.902 15.9558 295.307C17.3083 295.137 18.5774 295.137 19.9299 295.986C22.1284 297.26 23.2282 299.894 22.5514 302.357C21.6208 305.756 17.9006 309.748 14.1803 309.409C13.8419 309.239 13.4189 309.154 12.9959 309.154C12.7421 309.069 12.4048 308.899 12.151 308.729C13.9265 305.246 13.8419 300.913 13.5035 297.176ZM12.8267 310.768C14.0111 311.872 15.1944 312.637 15.6174 314.336C16.2942 316.799 15.0252 319.263 12.9113 320.622C9.19101 322.916 5.30155 321.047 2.84921 318.073C2.76461 317.564 2.5954 317.054 2.3416 316.629C5.63996 315.27 8.93721 313.147 11.1357 310.343C11.2203 310.174 11.3895 310.088 11.4742 309.919C11.8972 310.258 12.3202 310.598 12.8267 310.768ZM-8.56649 300.744C-8.39729 300.744 -8.22808 300.744 -8.05888 300.744C-8.05888 300.744 -8.05887 300.828 -7.97427 300.828C-11.4407 303.972 -15.1621 307.2 -17.8677 310.853C-18.6288 310.003 -19.2206 309.069 -19.728 308.05C-16.0916 305.586 -12.2867 303.292 -8.56649 300.744ZM-20.489 306.69C-21.2501 304.822 -21.7574 302.867 -21.9266 300.828C-21.842 300.828 -21.7574 300.913 -21.5883 300.913C-18.1214 300.913 -14.6545 300.828 -11.188 300.828C-14.4007 302.528 -17.5298 304.567 -20.489 306.69ZM-9.24218 305.161C-10.6804 308.135 -12.2021 311.108 -13.8931 314.081V314.166C-14.9929 313.571 -16.007 312.807 -16.853 312.042C-14.1469 310.088 -11.6099 307.709 -9.24218 305.161ZM-6.36794 303.632C-6.19874 307.795 -6.02954 311.872 -5.77573 316.034C-7.21285 316.034 -8.73569 315.95 -10.1728 315.61C-10.9342 315.44 -11.6099 315.186 -12.2867 314.931C-10.2574 311.277 -8.22807 307.455 -6.36794 303.632ZM-11.2726 318.668C-11.0188 318.413 -10.9342 318.073 -11.0188 317.818C-7.46666 318.754 -3.57719 318.668 0.143063 317.479C0.312267 317.394 0.396866 317.394 0.566071 317.309C0.650669 319.263 0.989082 321.047 0.312267 323.001C-0.448036 325.209 -2.14008 326.909 -4.42322 327.419C-10.0882 328.693 -11.2726 323.17 -11.2726 318.668C-11.2726 318.754 -11.2726 318.668 -11.2726 318.668ZM-4.16941 294.542C-4.25401 290.379 -4.42322 286.301 -4.67702 282.139C-2.90038 282.394 -1.20946 283.073 0.566071 284.178C-1.12486 287.575 -2.64769 291.059 -4.16941 294.542ZM-3.5772 305.246C-3.15419 306.435 -2.81578 307.709 -2.39388 308.899C-1.71707 310.938 -1.12486 313.147 -0.279953 315.1C-1.71707 315.526 -3.15419 315.865 -4.59243 315.95C-4.33862 311.872 -4.16941 307.795 -4.08481 303.717C-3.91561 304.396 -3.6618 304.991 -3.5772 305.246ZM-1.97087 305.925C-2.22468 305.246 -2.39388 304.396 -2.73118 303.547C0.227665 306.351 3.18762 309.069 6.06297 311.958C5.30155 312.466 4.54013 312.977 3.77983 313.402C2.84921 313.911 1.91858 314.336 0.989075 314.76C0.227657 311.703 -0.95565 308.814 -1.97087 305.925ZM-0.0261421 303.292C3.44142 304.651 7.24628 305.501 10.7127 306.096C10.5435 306.775 10.2908 307.455 9.86783 308.05C9.19101 309.239 8.1769 310.258 6.99248 311.108C4.79394 308.559 2.4262 305.841 -0.0261421 303.292ZM10.9665 305.076C6.56947 303.886 2.4262 302.102 -1.80167 300.744C2.5108 300.744 6.90787 300.744 11.2203 300.744C11.2203 302.102 11.2203 303.632 10.9665 305.076ZM0.735271 298.62C4.11712 297.515 7.58469 295.902 10.5435 294.372C10.9665 295.902 11.1357 297.6 11.2203 299.299C7.75389 298.96 4.28633 298.789 0.735271 298.62ZM2.68 296.241C1.24289 296.75 -0.279953 297.091 -1.71707 297.6C-1.71707 297.6 -1.71707 297.6 -1.71707 297.515C1.32748 294.457 4.37093 291.314 7.50008 288.34C8.8526 289.869 9.78322 291.569 10.3754 293.437C7.75389 294.372 5.21695 295.307 2.68 296.241ZM-2.73118 295.816C-1.12486 292.079 0.31226 288.34 1.49669 284.517C1.49669 284.433 1.49669 284.433 1.49669 284.348C1.58129 284.348 1.66589 284.262 1.66589 284.262C3.44142 285.112 5.13235 286.046 6.65407 287.575C3.35682 290.04 0.312263 292.928 -2.73118 295.816ZM5.47075 282.139C5.13234 282.309 4.87854 282.564 4.54013 282.818C3.27222 282.139 1.91859 281.629 0.481472 281.46C-2.30928 279.845 -5.43732 279.25 -8.48188 279.591C-7.55126 275.853 -4.25401 272.709 -0.195347 273.644C1.6659 274.069 3.18761 275.343 4.20173 276.872C4.62473 277.552 5.72456 280.525 5.47075 282.139ZM-6.79096 281.97C-6.70636 285.877 -6.70636 289.7 -6.62175 293.608C-7.97427 289.869 -9.6652 286.046 -11.6099 282.904C-10.0882 282.309 -8.48188 281.97 -6.79096 281.97ZM-6.53715 296.241C-6.62175 296.241 -6.70635 296.326 -6.70635 296.411C-10.0036 293.182 -13.4712 290.209 -17.0222 287.406C-17.1914 287.236 -17.4452 287.236 -17.6144 287.236C-16.1762 285.538 -14.4853 284.262 -12.5406 283.328C-11.2726 287.661 -8.98949 292.248 -6.53715 296.241ZM-11.5253 298.365C-14.4007 298.365 -17.1914 298.45 -20.0662 298.534C-20.2353 298.45 -20.4045 298.45 -20.5736 298.45C-20.9964 298.534 -21.5038 298.534 -21.9266 298.62H-22.0111C-21.9266 296.921 -21.6729 295.221 -21.1655 293.523C-21.081 293.268 -20.9964 292.928 -20.8273 292.673C-18.1214 295.052 -14.8237 296.836 -11.5253 298.365ZM-12.9636 320.112C-13.1328 322.491 -12.9636 324.87 -11.6099 326.824C-11.188 327.419 -10.6804 327.929 -10.1728 328.353C-11.0188 332.345 -18.0368 332.94 -20.8273 331.497C-24.5478 329.627 -25.1398 326.314 -25.2243 322.576C-21.4192 324.275 -16.5992 322.661 -12.9636 320.112ZM-13.5558 333.365C-11.188 332.516 -9.1587 331.071 -9.0741 328.948C-7.72047 329.627 -6.11415 329.882 -4.59243 329.627C-4.00021 329.542 -3.4926 329.372 -2.90038 329.203C-1.80167 331.071 0.0584526 332.516 2.08779 333.11C0.566067 335.489 -1.63247 337.273 -4.42322 337.868C-5.86034 338.123 -7.38206 338.038 -8.82029 337.613C-9.41139 337.443 -14.0623 334.384 -13.8931 334.215C-13.6393 333.96 -13.5558 333.705 -13.5558 333.365ZM-1.12486 328.183C1.15829 326.569 2.68001 323.851 3.01841 321.047C5.04775 323.086 7.83849 324.19 10.6281 323.851C10.9665 326.739 9.52942 329.882 6.65407 330.987C3.69523 332.176 0.566071 330.732 -1.12486 328.183ZM12.151 323.511C13.0805 323.17 14.0111 322.746 14.9406 321.981C15.4482 321.557 15.8712 321.132 16.2096 320.707C16.2942 320.792 16.3788 320.877 16.4634 320.877C18.4928 322.322 20.4375 322.661 22.2976 322.236C22.7206 325.295 21.7054 328.777 19.0004 330.477C16.0404 332.431 13.5035 331.326 10.46 330.561C12.151 328.608 12.7421 325.974 12.151 323.511ZM17.4775 319.178C17.3929 319.178 17.3083 319.093 17.2237 319.093C17.9006 317.734 18.0698 316.12 17.8159 314.591C17.5621 313.487 17.0545 312.213 16.2942 311.193C20.4375 310.513 24.2424 306.096 24.75 301.933C24.75 301.848 24.75 301.763 24.75 301.678C28.2164 304.227 29.9931 307.964 28.8086 312.297C27.4561 317.31 22.7206 321.727 17.4775 319.178ZM24.4962 298.705C23.5655 295.902 21.0297 293.692 18.239 293.182C20.0145 290.974 20.7759 288.34 19.7607 285.622C19.6761 285.283 19.5069 285.028 19.3377 284.773C21.1143 284.348 22.9744 284.517 24.6654 285.112C24.327 285.622 24.9192 286.386 25.5114 285.962C25.6806 285.877 25.7641 285.791 25.9333 285.707C27.2023 286.472 28.2164 287.577 28.8086 289.02C30.5842 293.353 27.7099 296.496 24.4962 298.705ZM16.4634 284.093C17.8159 285.538 18.662 287.577 18.1544 289.53C17.9852 290.04 17.1391 291.824 16.0404 293.182C15.1098 293.353 14.0957 293.777 13.2497 294.542L13.1651 294.627C12.151 290.634 9.69862 286.556 6.40026 283.923C9.44481 282.054 13.5881 281.12 16.4634 284.093ZM14.5187 280.695C12.2356 280.015 9.61402 280.186 7.24628 281.205C7.33088 280.78 7.33089 280.44 7.33089 280.015C7.24628 277.721 6.14646 275.598 4.45553 273.984C4.62474 273.898 4.87854 273.814 5.04774 273.559C6.90788 270.756 11.2203 269.821 13.8419 272.114C16.2096 274.324 16.2942 278.147 14.5187 280.695ZM3.27222 272.455C3.18761 272.54 3.18761 272.709 3.10301 272.795L3.01841 272.709C1.5813 271.775 -0.0261459 271.35 -1.54787 271.435C-2.56309 268.122 -5.09892 265.573 -8.31268 264.639C-5.86034 261.665 -2.81578 259.202 1.32748 259.966C5.63995 260.816 8.0923 264.723 8.5988 268.801C6.48487 269.311 4.45553 270.585 3.27222 272.455ZM-3.06958 271.605C-6.70636 272.369 -9.8344 275.428 -10.4266 279.336C-10.8496 277.466 -12.7944 276.108 -14.4853 275.173C-15.7532 274.408 -17.1068 273.984 -18.4596 273.814C-17.6144 270.585 -16.1762 267.612 -12.5406 266.678C-8.65109 265.659 -4.84511 268.207 -3.06958 271.605ZM-35.1177 295.476C-35.2868 295.986 -35.3714 296.496 -35.456 297.005C-35.6251 298.534 -35.456 299.894 -35.0332 301.168C-37.6545 302.188 -39.7684 304.141 -41.0368 306.435C-45.5185 306.52 -45.603 299.979 -44.5883 297.176C-43.489 294.372 -41.375 292.588 -38.6692 291.569C-37.9081 293.182 -36.7243 294.542 -35.1177 295.476ZM-50.8456 303.377C-51.0993 300.913 -51.0993 298.45 -51.0147 295.986C-50.2537 297.345 -49.0699 298.365 -47.3787 298.789C-47.3787 299.044 -47.4632 299.215 -47.4632 299.47C-47.4632 299.809 -47.5478 300.064 -47.5478 300.404C-47.8015 300.318 -48.0552 300.318 -48.3089 300.489C-49.3236 301.338 -50.1691 302.357 -50.8456 303.377ZM-40.2757 328.438C-42.4743 325.89 -44.3346 323.086 -45.9413 320.112C-44.25 321.047 -42.3898 321.557 -40.2757 321.472C-41.0368 323.935 -40.9522 326.314 -40.2757 328.438ZM-47.8015 315.865C-48.7317 313.571 -49.4082 311.193 -50 308.729C-49.7463 306.52 -48.6471 304.481 -47.2941 302.443C-46.7868 305.416 -45.0111 308.39 -41.967 308.645C-42.8126 311.363 -42.728 314.421 -41.4596 317.309C-41.1214 318.073 -40.614 318.838 -39.9375 319.602C-42.9816 319.263 -45.8567 318.073 -47.8015 315.865ZM-37.8236 321.641C-34.3567 324.19 -29.6213 325.209 -27 321.641C-28.6067 325.635 -26.3235 330.392 -22.7721 332.686C-22.9412 332.6 -23.1103 332.6 -23.2794 332.686C-31.3126 337.443 -41.0368 330.816 -37.8236 321.641ZM-31.1434 336.423C-28.6067 336.849 -25.8163 336.339 -23.364 334.47C-24.125 336.933 -23.1949 339.397 -21.4192 341.265C-24.8015 340.076 -28.0148 338.462 -31.1434 336.423ZM-15.1621 342.625C-19.8125 341.435 -21.4192 338.123 -20.9964 333.62C-20.7427 333.705 -20.489 333.79 -20.2353 333.875C-19.136 334.215 -17.5298 334.215 -15.8378 333.96C-16.3454 337.103 -9.41139 339.907 -7.29746 340.076C-6.87556 340.076 -6.53715 340.162 -6.11414 340.162C-8.05887 342.88 -12.1175 343.39 -15.1621 342.625ZM-7.46666 343.899C-6.02954 343.049 -4.92972 341.775 -4.42322 339.991C-4.25402 339.991 -4.08481 339.907 -3.91561 339.907L-3.831 339.991C-2.30928 341.52 -0.532646 342.625 1.49669 343.219C-1.46326 343.73 -4.50782 343.985 -7.46666 343.899ZM5.55536 341.435C2.84921 341.606 0.396862 340.756 -1.54787 338.972C0.735271 337.783 2.5108 335.829 3.61063 333.45C4.87854 333.62 6.23105 333.45 7.50008 332.94C8.2615 332.6 8.8526 332.261 9.44481 331.751C9.44481 331.836 9.52942 331.921 9.61402 332.006C10.46 332.94 11.5588 333.535 12.8267 333.79C12.8267 333.875 12.7421 333.96 12.8267 334.129C13.4189 338.378 9.36022 341.18 5.55536 341.435ZM15.9558 337.952C15.1944 338.378 14.3495 338.802 13.5881 339.227C14.4341 337.952 14.7725 336.423 14.3495 334.894C15.5328 335.659 17.0545 336.254 18.4928 336.423C17.7313 336.933 16.8865 337.528 15.9558 337.952ZM20.9451 334.129C19.4223 334.894 17.8159 334.47 16.3788 333.705C18.0698 333.365 19.6761 332.771 20.7759 331.836C21.367 331.326 21.8746 330.816 22.2976 330.222C22.4668 330.307 22.7206 330.392 22.8898 330.477C23.3128 331.666 21.9592 333.62 20.9451 334.129ZM24.6654 331.497C24.6654 331.326 24.6654 331.156 24.6654 330.987C24.6654 330.816 24.6654 330.732 24.5808 330.561C24.9192 330.561 25.2576 330.561 25.596 330.477C25.3422 330.902 25.0038 331.242 24.6654 331.497ZM29.3163 325.974C27.7945 328.183 25.6806 328.353 23.3975 328.438C24.2424 326.399 24.327 324.106 23.5655 321.981C25.4268 321.217 27.1177 319.688 28.4702 317.818C30.4149 319.943 31.0072 323.425 29.3163 325.974ZM32.1916 322.067C32.0224 320.452 31.3456 318.923 30.2458 317.734C32.107 317.564 33.8825 316.884 35.3196 315.781C34.4736 317.904 33.4595 320.028 32.1916 322.067ZM29.2316 316.46C32.4443 310.598 32.3597 302.357 24.9192 300.573C24.9192 300.573 24.9192 300.573 24.8346 300.573C26.6101 300.318 28.1318 299.299 29.2316 297.855C33.6287 299.47 37.772 302.018 37.6028 307.54C37.4336 312.213 33.3749 315.27 29.2316 316.46ZM38.4488 292.588C38.8707 295.902 38.8707 299.215 38.618 302.443C37.5182 300.064 35.6581 298.025 33.4595 296.921C35.5735 296.071 37.349 294.542 38.4488 292.588ZM36.1657 282.904C36.8414 284.688 37.349 286.472 37.772 288.425C37.349 292.418 34.0517 294.882 30.5842 296.156C30.4996 296.156 30.4996 296.156 30.415 296.156C31.5994 293.692 31.8532 290.719 30.9226 288.425C30.2458 286.727 29.0624 285.283 27.5407 284.348C28.4702 283.244 29.147 281.97 29.4854 280.525C32.1916 280.186 34.6428 281.034 36.1657 282.904ZM23.3129 264.469C27.9626 268.462 31.8532 273.304 34.5582 278.911C33.1211 278.231 31.4302 277.976 29.7393 278.316C29.7393 276.787 29.3163 275.173 28.3856 273.814C27.1177 271.86 25.173 270.585 22.9744 270.076C23.6501 268.207 23.7347 266.253 23.3129 264.469ZM17.8159 260.561C21.0297 262.345 22.1284 266.338 21.4516 269.736C19.5069 269.566 17.5621 269.991 15.8712 271.011C15.7866 271.011 15.7866 271.095 15.702 271.095C15.3636 270.756 15.1098 270.416 14.6879 270.161C13.3343 269.141 11.6434 268.632 10.037 268.632C10.2062 266.338 9.61403 264.299 8.4296 262.6C11.2203 260.476 14.1803 258.607 17.8159 260.561ZM13.0805 257.758C11.9818 257.928 10.8819 258.182 9.86783 258.692C9.78323 257.758 9.52942 256.824 9.10641 255.974C10.4589 256.484 11.8126 257.079 13.0805 257.758ZM8.5988 259.457C8.0077 259.881 7.50008 260.391 7.07708 260.986C5.04774 259.118 2.3416 257.928 -0.364552 257.758C1.5813 253.171 8.17691 254.445 8.5988 259.457ZM-0.279953 254.275C-0.955654 254.869 -1.54787 255.55 -1.97087 256.313C-2.30928 255.464 -2.90038 254.7 -3.6618 254.019C-2.47848 254.019 -1.37867 254.105 -0.279953 254.275ZM-13.302 255.209C-12.7098 254.785 -12.0329 254.445 -11.2726 254.275C-10.4266 254.19 -9.49599 254.105 -8.65108 254.019C-8.65108 254.019 -8.56648 254.019 -8.48188 254.019C-7.04365 254.19 -2.64658 255.719 -3.15419 257.928C-6.02954 258.523 -8.65109 260.307 -10.0036 263.789C-10.0882 263.959 -10.0882 264.214 -10.0036 264.384C-10.765 264.299 -11.4407 264.299 -12.2021 264.469C-12.9636 264.554 -13.7239 264.809 -14.4853 265.149C-16.43 262.005 -16.5146 257.587 -13.302 255.209ZM-16.43 255.209C-17.5298 256.739 -18.1214 258.523 -18.206 260.391C-19.5589 258.863 -21.2501 257.842 -23.1103 257.334C-20.9964 256.484 -18.7133 255.803 -16.43 255.209ZM-26.07 259.371C-22.6031 258.777 -19.728 260.646 -17.8677 263.28C-17.6144 264.299 -17.1068 265.233 -16.43 266.168C-17.1914 266.678 -17.9523 267.357 -18.5442 268.122C-22.0111 265.573 -26.6618 264.554 -30.467 267.017C-30.6361 267.103 -30.8052 267.188 -30.8898 267.357C-31.8199 263.62 -30.2978 260.136 -26.07 259.371ZM-28.4376 268.292C-25.478 266.933 -22.0957 267.697 -19.3897 269.311C-20.3199 270.756 -20.8273 272.369 -20.7427 273.984C-21.5038 274.153 -22.3494 274.493 -23.1103 274.918C-24.1251 275.598 -24.9707 276.447 -25.6472 277.552C-27.6765 276.702 -30.0441 276.532 -32.1582 276.957C-32.8347 273.389 -32.0736 269.906 -28.4376 268.292ZM-33.2574 263.025C-33.6802 264.384 -33.6802 265.743 -33.3419 267.103C-34.4412 266.423 -35.7096 266.083 -36.978 265.998C-35.7942 265.064 -34.5258 264.044 -33.2574 263.025ZM-32.8347 269.227C-34.6103 271.605 -35.3714 274.918 -33.9338 277.552C-35.8788 278.316 -37.4853 279.676 -38.6692 281.544C-41.0368 279.421 -43.2353 277.637 -42.8126 273.814C-42.728 273.219 -42.5589 272.54 -42.3898 272.03C-41.5442 270.925 -40.6986 269.906 -39.7684 268.887C-37.739 267.612 -35.0332 267.527 -32.8347 269.227Z" fill="#BBBBBB"/>
<path opacity="0.97" d="M-303.787 300.992C-290.245 299.891 -278.736 307.765 -269.172 316.486C-260.37 324.443 -251.993 332.656 -242.429 339.768C-223.895 353.483 -202.145 363.643 -178.871 365.166C-170.662 365.674 -162.368 365.166 -154.413 363.558C-159.829 366.268 -165.077 369.23 -169.985 372.702C-179.295 379.221 -186.573 387.263 -192.328 397C-198.675 407.668 -204.345 419.012 -207.307 431.119C-210.439 443.734 -210.523 456.857 -211.285 469.811C-212.131 484.372 -213.993 499.189 -221.525 511.973C-222.202 513.074 -220.933 514.259 -219.833 513.666C-198.167 500.882 -172.439 500.375 -148.15 496.903C-136.217 495.21 -124.369 492.67 -113.198 487.844C-101.604 482.764 -90.6862 475.568 -81.2075 467.186C-74.3524 461.09 -68.0898 453.894 -64.1968 445.512C-70.1209 487.59 -63.012 533.223 -30.937 563.618C-21.2044 572.846 -8.59393 582.159 -8.00174 596.806C-7.91711 598.245 -6.05588 598.414 -5.54825 597.145C3.08447 574.878 25.5963 561.924 39.4755 543.213C54.6248 522.895 63.8498 497.073 62.8334 471.588C62.495 464.307 61.3106 457.111 59.1945 450.254C61.9875 454.571 64.9496 458.719 68.2502 462.614C75.359 471.165 83.9917 478.277 93.6397 483.864C112.766 494.956 134.685 499.696 156.52 500.798C170.907 501.559 185.718 501.475 199.005 507.486C199.935 507.909 201.544 506.893 200.697 505.792C192.742 495.379 192.065 481.749 190.626 469.218C189.103 456.264 187.664 443.311 184.787 430.527C179.624 407.16 168.961 385.825 151.019 369.654C145.941 365.082 140.271 360.68 134.262 357.124C150.173 361.441 166.845 362.372 183.179 359.832C194.18 358.14 204.929 354.922 215 350.181C226.255 344.932 236.326 337.566 246.482 330.455C259.092 321.565 271.787 312.76 284.397 303.87C285.158 303.362 285.243 302.177 284.397 301.754C263.409 290.155 248.175 271.275 229.894 256.205C221.263 249.093 211.869 242.828 201.29 238.934C189.272 234.531 176.239 233.346 163.544 234.785C157.281 235.463 151.103 236.817 145.094 238.68C160.159 225.556 169.807 207.1 177.423 188.898C182.163 177.637 185.972 165.953 188.765 154.016C191.304 143.264 192.996 132.257 195.619 121.59C198.582 109.398 202.897 97.3762 210.852 87.5552C211.53 86.7085 210.937 85.0153 209.668 85.5232C185.125 94.921 158.381 94.1589 132.824 98.4768C120.467 100.593 108.28 103.98 97.2787 110.245C86.7847 116.171 77.8135 124.384 70.1125 133.528C66.557 137.76 63.1718 142.248 60.0405 146.82C66.0494 126.331 64.7804 104.234 56.9102 84.2533C48.8697 63.8495 34.8213 46.4088 19.5028 30.9154C10.4471 21.7718 0.291504 13.1361 -4.61652 0.859847C-5.03952 -0.156115 -6.64807 -0.410104 -6.98648 0.859847C-9.86407 12.2048 -19.1733 19.9092 -27.3824 27.6135C-36.5226 36.0799 -43.8008 45.7315 -49.8942 56.6531C-62.4196 78.7502 -73.5062 103.472 -72.9138 129.463C-72.8291 134.713 -72.1521 139.877 -71.0518 144.957C-82.3924 129.463 -99.9956 118.711 -116.499 109.568C-126.4 104.065 -136.81 100.763 -147.981 99.2387C-159.745 97.6301 -171.593 97.6301 -183.441 96.6988C-196.644 95.5983 -209.846 93.0584 -221.271 86.0313C-222.287 85.354 -223.641 86.7085 -222.964 87.7245C-209.508 108.467 -211.285 134.289 -207.476 157.742C-205.53 169.594 -201.976 180.77 -195.374 190.844C-188.435 201.428 -180.141 211.418 -171.762 220.816C-163.807 229.705 -155.005 237.917 -145.104 244.605C-154.836 241.557 -164.738 238.934 -174.894 238.934C-186.911 238.934 -198.252 243.167 -209.423 247.061C-220.002 250.701 -230.581 254.597 -240.482 259.93C-250.553 265.348 -259.017 272.714 -267.819 279.911C-278.736 288.885 -290.245 295.658 -304.125 298.537C-305.479 298.791 -305.14 301.077 -303.787 300.992ZM-113.367 485.22C-135.71 495.21 -160.506 495.21 -184.203 499.189C-195.713 501.136 -206.969 504.099 -217.378 509.518C-206.884 488.521 -210.015 464.138 -206.799 441.449C-204.938 428.58 -200.283 416.642 -194.105 405.212C-188.181 394.291 -181.41 384.469 -171.424 376.85C-161.353 369.23 -149.758 363.897 -138.333 358.732C-137.825 359.748 -137.318 360.764 -136.725 361.695C-143.58 364.828 -150.52 369.57 -152.974 377.019C-154.836 382.692 -153.821 389.042 -149.589 393.19C-155.682 397.424 -158.729 405.212 -156.529 412.408C-155.09 417.065 -151.874 420.79 -149.758 425.108C-149.42 425.786 -149.166 426.463 -148.912 427.225C-155.767 423.923 -163.976 424.6 -170.578 428.58C-178.364 433.236 -182.341 442.295 -181.495 451.185C-179.718 470.657 -156.19 480.647 -140.618 469.049C-133.255 463.546 -129.278 454.656 -129.447 445.597C-125.808 448.306 -122.338 451.016 -117.768 451.862C-109.728 453.386 -101.265 449.83 -96.695 443.141C-86.2854 450.083 -70.9672 446.443 -67.1588 433.744C-65.7201 434.676 -64.1968 435.522 -62.6735 436.199C-62.6735 436.284 -62.7581 436.368 -62.7581 436.538C-62.7581 436.622 -62.7581 436.622 -62.7581 436.707C-70.8826 459.227 -92.125 475.737 -113.367 485.22ZM-206.292 301.415C-199.437 301.331 -196.728 306.748 -195.036 313.013C-195.12 313.098 -195.205 313.183 -195.29 313.267C-201.722 320.634 -210.692 328.847 -221.356 326.476C-230.75 324.359 -237.182 315.215 -238.536 306.071C-240.144 295.573 -235.32 283.974 -224.657 280.419C-214.67 277.032 -201.129 282.874 -195.12 291.17C-197.321 295.658 -200.621 298.96 -206.207 298.96C-207.9 298.96 -207.9 301.415 -206.292 301.415ZM-200.875 300.229C-195.374 297.605 -192.158 291.255 -190.466 285.414C-188.942 280.08 -188.096 273.984 -184.372 269.581C-181.241 265.856 -175.063 263.147 -170.747 266.619C-170.07 267.211 -168.97 267.042 -168.716 266.11C-165.584 254.681 -152.89 250.193 -142.903 256.205C-142.649 256.374 -142.396 256.374 -142.142 256.374C-142.396 257.983 -142.48 259.591 -142.48 261.285C-152.382 260.099 -162.114 264.756 -168.377 272.29C-174.894 280.249 -177.263 290.916 -176.671 301.077C-175.402 321.395 -162.114 341.546 -141.295 345.609C-141.211 346.964 -141.126 348.403 -140.957 349.758C-146.373 353.059 -152.974 354.245 -158.898 351.621C-165.161 348.827 -169.223 342.562 -169.477 335.789C-169.477 334.941 -170.239 334.433 -171.001 334.603C-176.248 335.789 -181.749 334.349 -185.726 330.708C-189.958 326.814 -190.889 321.226 -191.904 315.892C-193.089 310.136 -195.544 303.108 -200.875 300.229ZM-145.696 208.285C-156.444 204.814 -149.589 190.844 -147.135 184.072C-146.966 183.648 -146.881 183.31 -146.712 182.887C-146.458 182.633 -146.373 182.293 -146.458 182.039C-144.765 175.605 -145.95 170.103 -148.997 164.43C-143.75 165.192 -138.926 164.599 -134.356 162.99C-134.017 163.244 -133.425 163.244 -133.171 162.736C-133.171 162.652 -133.086 162.567 -133.086 162.482C-129.701 161.128 -126.4 159.265 -123.184 156.979C-118.953 154.1 -114.467 150.798 -109.136 150.798C-103.127 150.798 -97.5413 154.863 -95.4255 160.45C-95.1716 161.128 -94.3253 161.636 -93.6482 161.128C-83.7465 154.016 -70.4594 158.419 -66.2279 169.424C-67.6667 170.356 -69.0207 171.372 -70.2902 172.557C-70.6287 172.811 -70.8826 173.149 -71.1366 173.404C-83.5773 162.821 -103.042 162.059 -117.091 169.594C-131.732 177.468 -141.126 193.384 -140.364 210.063C-139.941 219.376 -136.641 229.282 -130.378 236.309C-131.394 237.071 -132.324 237.832 -133.171 238.68C-133.255 238.595 -133.425 238.51 -133.594 238.425C-145.781 234.869 -151.197 221.07 -144.681 210.063C-144.511 209.386 -144.934 208.539 -145.696 208.285ZM-152.636 163.329C-149.42 168.409 -147.135 173.574 -148.489 179.754C-148.574 180.347 -148.743 180.939 -148.912 181.447C-153.651 182.293 -157.967 183.225 -162.876 182.124C-167.869 181.024 -172.693 178.484 -176.079 174.674C-183.695 166.038 -179.718 151.731 -173.286 143.602C-166.938 135.559 -155.852 131.749 -146.119 135.728C-136.133 139.708 -131.309 150.545 -134.271 160.535C-139.687 162.567 -145.527 162.905 -151.282 161.551C-152.213 161.297 -153.228 162.398 -152.636 163.329ZM-37.8766 120.659C-34.4915 116.594 -29.8368 114.986 -24.9282 113.546C-18.8348 111.769 -11.3869 108.89 -9.52567 102.456C-4.87033 107.705 2.83069 108.89 9.34726 110.922C19.8412 114.14 32.0284 123.029 27.7125 135.644C27.5433 136.152 27.7971 136.83 28.3047 136.999C34.1445 139.708 39.3063 144.11 41.7609 150.121C44.1309 156.048 43.1991 162.398 39.8139 167.562C38.8833 167.393 37.9527 167.224 36.9364 167.139C36.0058 167.055 35.0751 166.97 34.0599 166.97C38.2065 161.128 33.9753 152.154 30.6747 146.82C26.2732 139.708 19.672 133.951 12.0556 130.395C-3.17831 123.198 -20.6967 126.161 -33.222 137.422C-40.1617 143.687 -45.2395 152.238 -46.6783 161.467C-46.9322 162.99 -44.6472 163.667 -44.3086 162.144C-43.7162 158.927 -42.7006 155.794 -41.3466 152.831C-37.8766 155.371 -33.9836 157.233 -30.683 160.027C-27.2979 162.821 -24.2512 166.038 -21.5429 169.509C-18.6656 173.32 -16.2115 177.383 -14.3491 181.701C-20.0197 172.134 -29.6675 164.938 -41.4312 163.582C-46.1704 163.075 -50.9944 163.413 -55.6491 164.599C-55.6491 164.345 -55.6491 164.176 -55.8184 163.922C-62.2502 152.408 -56.0723 138.438 -43.1237 135.728C-42.616 135.644 -42.1928 135.051 -42.1928 134.543C-42.5313 129.633 -41.1772 124.638 -37.8766 120.659ZM-18.3269 108.721C-24.7589 102.456 -28.0595 93.397 -25.3513 84.5073C-22.8124 75.8716 -14.4337 69.9452 -5.54825 69.3525C3.59207 68.76 11.6326 74.517 14.764 83.0681C16.2868 87.1319 16.5406 91.7037 15.2716 95.8523C14.0861 99.7467 11.2942 104.911 8.16281 108.044C6.89267 107.705 5.70822 107.366 4.43921 107.028C-0.80835 105.504 -6.39429 103.726 -9.18726 98.6462C-9.77948 97.5455 -11.4715 98.0535 -11.4715 99.2387C-11.4715 104.149 -14.4337 106.858 -18.3269 108.721ZM133.754 155.709C127.83 159.011 121.567 158.503 115.22 157.233C114.712 151.9 113.02 146.904 113.189 141.485C113.443 135.305 116.152 129.718 121.313 126.246C130.708 119.812 143.656 122.521 151.611 130.057C158.89 136.999 162.529 147.497 160.497 157.402C158.127 168.578 146.957 178.314 135.446 172.98C133.416 167.901 132.57 162.652 135.446 157.402C136.04 156.302 134.854 155.117 133.754 155.709ZM132.061 159.18C130.623 164.007 131.469 168.832 133.247 173.489C133.078 173.997 133.162 174.589 133.754 174.843C134.854 177.468 136.209 180.008 137.478 182.462C140.017 187.204 142.725 192.538 142.218 198.04C141.794 203.036 139.002 207.947 133.754 208.878C132.993 209.047 132.655 210.063 132.993 210.656C136.463 216.751 138.155 224.541 134.854 231.06C132.146 236.394 126.307 239.78 120.383 239.272C119.283 237.748 118.013 236.309 116.744 234.954C130.877 225.979 131.046 205.83 124.445 192.115C116.49 175.689 98.1247 166.292 80.1835 169.171C72.9044 170.356 64.6112 174.081 60.9722 180.77C58.7715 177.891 56.2323 175.436 53.3547 173.32C55.4709 169.001 58.6022 164.938 63.0027 162.905C68.081 160.535 74.3438 161.297 78.3212 165.276C78.998 166.038 80.0143 165.53 80.3527 164.768C84.8377 153.592 99.2245 155.709 108.449 157.911C116.321 160.027 124.529 161.974 132.061 159.18ZM182.333 292.61C184.532 294.981 187.325 296.758 190.372 297.944C187.241 299.637 185.126 302.939 183.855 306.579C182.84 306.241 181.74 307.68 182.586 308.696C182.756 308.865 182.84 309.035 183.009 309.204C182.502 310.982 182.248 312.76 181.994 314.453C181.316 320.465 181.402 327.407 176.747 331.979C172.6 336.043 166.168 337.143 160.92 334.772C160.244 334.518 159.228 334.687 159.059 335.535C157.874 343.154 152.373 349.419 145.179 351.875C136.378 354.838 129.269 350.181 122.075 345.694C122.413 344.425 122.753 343.154 123.007 341.884C123.091 341.969 123.26 342.054 123.43 342.054C131.384 344.678 141.032 342.392 148.057 338.329C155.759 333.926 161.428 326.814 164.559 318.517C170.822 301.754 166.506 280.08 152.289 268.481C145.688 263.147 135.531 259.252 126.984 261.623C127.069 260.268 127.069 258.999 126.984 257.729C127.153 257.644 127.322 257.56 127.407 257.475C137.647 248.162 153.727 252.987 157.451 266.195C157.704 267.127 158.805 267.381 159.482 266.704C164.559 261.962 172.262 264.248 174.715 270.513C176.493 275.169 176.07 280.334 177.677 285.074C178.524 287.615 179.878 289.901 181.485 291.848C181.485 292.187 181.91 292.695 182.333 292.61ZM197.565 297.012C196.804 296.843 196.127 296.843 195.45 296.758C191.303 296.166 187.41 294.218 184.448 291.255C191.811 286.176 200.02 279.149 209.245 279.911C218.554 280.757 225.579 289.393 225.325 298.537C225.071 307.934 218.131 316.909 208.822 318.94C199.512 320.972 191.557 314.876 185.633 308.358C187.156 303.616 190.034 299.045 195.112 299.129C195.789 299.214 196.466 299.298 197.227 299.298C198.666 299.468 199.005 297.266 197.565 297.012ZM135.871 395.73C141.032 397.424 142.218 403.774 141.202 408.514C139.933 414.018 135.871 418.504 133.078 423.246C130.115 428.411 128.253 435.437 130.961 440.77C125.375 439.67 119.537 442.38 114.374 444.92C106.419 448.899 92.0311 453.556 87.6307 442.041C87.3769 441.364 86.5309 440.855 85.853 441.279C74.2592 449.237 58.2638 442.38 56.4861 428.24C56.4861 428.156 56.4861 428.156 56.4861 428.071C67.1504 420.367 74.0053 407.668 73.4131 393.867C73.4131 393.275 73.3286 392.767 73.3286 392.174C74.0054 395.053 74.513 397.932 74.8514 400.98C75.9512 410.293 77.1367 420.452 70.7048 428.156C70.451 428.411 70.451 428.749 70.5356 429.003C68.1656 427.479 65.9648 425.701 63.596 423.754C62.7488 423.077 61.3106 423.923 61.9875 425.023C66.4725 432.136 76.6291 435.522 84.5839 436.03C94.5703 436.622 104.557 432.813 112.511 426.886C126.561 416.388 136.124 396.746 126.73 380.152C122.668 372.956 115.558 367.283 107.265 366.522C107.857 366.097 108.365 365.674 108.957 365.251C109.211 365.336 109.55 365.42 109.889 365.251C117.844 361.78 127.661 363.389 133.501 369.993C139.34 376.596 139.679 386.671 135.193 393.952C134.77 394.714 135.193 395.476 135.871 395.73ZM135.871 442.803C130.877 439.332 131.469 432.559 133.585 427.479C142.133 424.769 151.78 426.463 157.62 433.659C163.46 440.941 164.136 451.523 159.228 459.481C154.404 467.355 143.572 473.705 134.262 470.403C123.599 466.594 121.06 454.487 120.975 444.497C120.975 444.412 120.975 444.412 120.975 444.327C125.629 442.634 130.285 442.041 134.6 444.92C135.955 445.766 137.14 443.649 135.871 442.803ZM28.4739 465.238C29.6584 469.98 29.0662 475.059 26.4424 479.293C23.2264 484.373 17.8954 485.812 12.4786 487.335C4.77762 489.622 -1.73895 493.855 -6.39429 500.29C-8.08633 493.685 -16.3806 490.553 -22.6432 489.198C-28.0595 488.098 -33.899 487.082 -37.4535 482.426C-40.7541 478.107 -41.5157 472.182 -39.2307 467.186C-38.8922 466.424 -39.3153 465.238 -40.3309 465.323C-46.4243 465.577 -51.756 461.598 -54.2104 456.095C-56.7493 450.592 -56.3261 444.412 -54.972 438.655C-53.0255 438.993 -50.9944 439.247 -48.8787 439.247C-48.8787 449.322 -44.5624 459.143 -36.7765 465.662C-28.0595 472.943 -15.9576 475.737 -4.78574 475.145C5.96204 474.551 16.6252 470.573 24.1581 462.699C31.0131 455.502 35.3289 445.597 33.6358 435.522C33.6358 435.522 33.6358 435.522 33.6358 435.437C35.1597 435.437 36.6826 435.353 38.2065 435.184C43.5375 439.501 46.9227 446.443 46.0767 453.301C45.6537 456.857 43.9616 460.244 40.6611 461.937C36.7672 463.969 33.0435 462.869 28.8969 463.376C27.9663 463.63 27.7125 464.731 28.4739 465.238ZM-6.30966 504.692C-3.68588 500.036 0.0376892 496.141 4.6084 493.347C11.6326 498.258 18.1492 504.099 18.1492 513.497C18.1492 523.91 10.1086 530.599 0.122284 531.446C-9.27185 532.208 -18.5808 527.551 -22.7278 518.916C-26.9593 510.111 -23.9973 499.696 -15.873 494.279C-15.7038 494.194 -15.5346 494.025 -15.45 493.856C-11.0485 495.802 -8.00171 498.681 -8.50934 504.015C-8.76425 505.284 -6.90189 505.707 -6.30966 504.692ZM-150.435 441.279C-143.919 438.909 -137.656 440.009 -132.071 443.734C-131.055 453.725 -136.133 464.223 -145.188 468.964C-154.413 473.79 -166.854 471.673 -173.794 463.884C-180.733 456.01 -181.241 442.718 -174.217 434.676C-167.954 427.479 -157.037 425.701 -148.404 429.257C-147.643 432.897 -148.066 436.876 -151.451 438.993C-152.551 439.67 -151.79 441.703 -150.435 441.279ZM-136.471 438.57C-139.857 437.384 -143.411 437.13 -146.881 437.724C-145.612 435.522 -145.358 432.813 -145.781 430.103C-145.442 429.934 -145.358 429.342 -145.781 429.003C-145.865 428.919 -145.95 428.919 -146.035 428.834C-146.542 426.378 -147.558 423.923 -148.743 421.891C-151.366 417.319 -155.09 412.832 -154.921 407.245C-154.752 401.826 -151.79 397 -147.05 394.376C-146.119 393.867 -146.373 392.767 -147.05 392.259C-152.213 388.365 -152.551 380.744 -149.674 375.326C-146.627 369.739 -141.041 366.268 -135.371 363.728C-134.779 364.489 -134.186 365.251 -133.509 365.928C-144.85 383.031 -144.004 409.107 -128.685 423.5C-113.367 437.893 -90.0091 438.824 -71.6443 430.188C-70.6287 431.119 -69.5286 432.051 -68.4283 432.813C-73.5062 443.48 -86.2008 448.306 -96.1026 440.517C-96.695 440.009 -97.6259 440.009 -98.0491 440.77C-103.381 449.66 -115.314 452.2 -123.861 446.612C-125.893 445.258 -127.754 443.818 -129.616 442.38C-129.616 442.295 -129.616 442.126 -129.616 442.041C-129.701 441.195 -130.547 441.026 -131.14 441.279C-132.917 440.178 -134.609 439.247 -136.471 438.57ZM-111.928 270.259C-107.189 272.206 -96.3564 275.254 -94.1561 267.973C-92.0403 260.862 -103.635 257.983 -108.289 256.882C-115.06 255.189 -122.084 254.427 -129.024 254.597C-121.661 252.226 -114.298 249.855 -106.427 251.379C-98.7261 252.903 -88.3165 260.608 -90.6016 269.666C-92.9712 279.064 -104.481 280.165 -111.928 276.947C-119.63 273.646 -125.469 267.465 -130.632 261.116C-124.623 264.502 -118.36 267.634 -111.928 270.259ZM-132.832 257.051C-133.002 256.797 -133.255 256.458 -133.509 256.205C-127.416 256.205 -121.322 256.628 -115.314 257.729C-111.675 258.406 -93.5636 261.454 -96.7796 267.888C-98.7261 271.783 -105.412 270.09 -108.459 269.073C-111.505 268.058 -114.467 266.704 -117.345 265.264C-122.592 262.808 -127.754 260.014 -132.832 257.051ZM-134.525 223.102C-134.863 223.186 -135.033 223.44 -135.033 223.694C-136.556 219.969 -137.572 216.074 -137.995 212.01C-137.91 212.01 -137.825 212.01 -137.741 211.926C-137.656 211.841 -137.572 211.841 -137.487 211.757C-137.148 211.587 -137.148 211.164 -137.233 210.91C-136.641 211.164 -135.964 211.249 -135.287 211.164C-134.609 211.164 -133.848 211.164 -133.086 211.164C-131.986 211.164 -130.886 211.249 -129.87 211.333C-127.077 211.587 -124.285 211.926 -121.576 212.518C-116.499 213.534 -111.59 215.143 -106.851 217.175C-100.588 219.884 -95.0869 223.525 -89.9245 227.758C-88.2319 229.452 -86.4546 231.06 -84.6774 232.669C-84.5928 232.753 -84.5081 232.923 -84.4235 233.007C-97.6259 221.831 -118.276 218.191 -134.525 223.102ZM-88.7397 231.737C-101.35 227.165 -115.737 227.758 -127.585 234.446C-128.008 234.7 -128.347 234.869 -128.685 235.123C-131.055 231.737 -133.171 228.266 -134.694 224.541C-134.525 224.625 -134.356 224.71 -134.102 224.625C-124.962 222.508 -115.822 222.085 -106.597 224.117C-99.9956 225.641 -94.2407 228.35 -88.7397 231.737ZM-101.35 214.297C-102.619 213.111 -103.804 211.841 -105.073 210.656C-109.305 206.507 -113.621 202.274 -117.853 198.126C-122.084 193.977 -126.146 189.152 -130.97 185.765C-131.055 185.681 -131.14 185.681 -131.224 185.681C-129.87 183.648 -128.347 181.701 -126.57 179.923C-122.93 176.197 -118.699 173.149 -114.044 170.949C-114.044 171.034 -114.044 171.118 -114.044 171.118C-115.398 186.95 -110.067 201.682 -101.35 214.297ZM-112.775 170.356C-108.966 168.747 -104.819 167.732 -100.588 167.393C-95.8487 166.97 -91.2786 167.478 -86.7931 168.578C-98.0491 185.765 -98.6414 209.047 -88.5704 226.827C-88.7397 226.658 -88.9936 226.488 -89.1629 226.234C-89.9245 225.472 -90.7708 224.625 -91.5325 223.864C-104.481 209.132 -113.706 191.437 -112.182 171.118C-112.267 170.695 -112.521 170.441 -112.775 170.356ZM-119.207 199.48C-114.975 203.628 -110.659 207.778 -106.343 212.01C-103.635 214.635 -100.842 217.26 -98.1337 219.885C-101.519 217.852 -105.073 216.074 -108.712 214.635C-114.044 212.518 -119.63 210.91 -125.385 210.147C-128.178 209.809 -130.886 209.555 -133.679 209.47C-135.033 209.47 -136.81 209.132 -138.164 209.724C-138.164 208.624 -138.249 207.524 -138.164 206.422C-137.825 199.396 -135.625 192.538 -131.901 186.696C-128.347 191.352 -123.354 195.332 -119.207 199.48ZM-84.762 230.467C-90.0937 222.085 -93.479 212.772 -93.9868 202.697C-94.6638 190.675 -91.194 179.161 -84.9314 169.086C-80.6152 170.356 -76.3837 172.303 -72.406 174.589C-80.3613 182.971 -84.762 195.671 -86.2008 206.761C-87.3856 215.735 -86.37 225.302 -82.2231 233.261C-82.477 233.007 -82.6463 232.838 -82.9001 232.584C-83.4926 231.906 -84.1696 231.229 -84.762 230.467ZM-84.2543 212.349C-83.8311 200.581 -79.5995 187.204 -72.1521 177.976C-71.1365 176.791 -70.121 175.689 -69.0207 174.674C-69.0207 174.843 -68.9361 175.012 -68.7668 175.182C-68.6822 175.351 -68.5129 175.436 -68.3437 175.605C-68.3437 175.689 -68.3437 175.859 -68.3437 176.028C-68.2591 176.197 -68.2591 176.452 -68.1745 176.706C-67.4975 182.802 -70.4594 187.796 -73.76 193.131C-76.976 198.295 -79.4303 203.798 -80.4459 209.894C-82.0539 220.223 -79.261 232.075 -71.2212 239.188C-71.8982 239.865 -72.406 240.542 -72.8292 241.304C-73.7601 240.457 -74.7757 239.611 -75.7912 238.765C-81.7154 231.314 -84.5928 222.001 -84.2543 212.349ZM-38.9769 216.243C-33.0528 210.401 -39.0615 199.903 -43.0392 194.994C-47.7784 189.152 -53.7873 183.733 -60.3038 179.416C-51.2483 181.701 -42.8698 184.833 -36.438 192.2C-31.3601 198.04 -24.3358 211.503 -31.7833 218.276C-32.7989 219.207 -34.1529 219.969 -35.5916 220.477C-37.7074 220.223 -39.9078 220.477 -41.939 221.493C-42.1082 221.577 -42.2774 221.662 -42.4467 221.747C-44.3932 221.747 -46.1704 221.577 -47.7784 221.239C-52.4331 220.139 -56.3261 216.921 -59.0344 213.111C-65.2123 204.645 -65.2124 193.892 -65.6355 183.902C-60.1345 197.956 -47.1861 224.202 -38.9769 216.243ZM-65.1277 178.06C-59.3729 182.293 -53.8719 186.527 -48.8787 191.691C-46.0858 194.485 -43.4623 197.533 -41.5158 201.004C-39.9078 203.882 -37.115 210.656 -39.8232 213.704L-43.8854 215.228L-44.9857 214.381C-45.7473 213.874 -46.4243 213.026 -47.1014 212.349C-48.5402 210.91 -49.7249 209.301 -50.9098 207.608C-53.0255 204.561 -54.8028 201.259 -56.4108 197.956C-58.188 194.4 -59.8806 190.76 -61.4886 187.035C-62.8427 184.241 -63.8582 181.024 -65.1277 178.06ZM-6.47888 129.209C-6.47888 129.04 -6.56348 128.955 -6.56348 128.871C-5.71744 128.871 -4.87033 128.871 -4.02432 128.871C4.35349 129.209 12.5632 132.426 19.1644 137.591C14.6794 139.962 10.6163 144.533 7.48489 148.344C3.76129 152.831 0.714508 157.826 -1.56973 163.244C-4.78574 170.695 -6.7327 178.653 -8.0863 186.696C-8.0863 179.33 -8.25552 172.049 -8.0863 164.684C-7.91711 158.757 -7.74789 152.831 -7.49408 146.904C-7.15567 141.062 -6.30966 135.051 -6.47888 129.209ZM31.5207 154.948C26.6116 154.694 21.196 156.979 16.879 159.096C11.8864 161.551 7.40027 165.022 3.67667 169.171C-0.385345 173.743 -3.8551 179.33 -6.30966 185.256C-4.87033 178.399 -3.17828 171.626 -0.46991 165.192C1.90005 159.688 4.94684 154.525 8.75504 149.867C12.2248 145.635 16.6252 142.671 20.4334 138.861C20.9421 139.285 21.4498 139.708 21.8728 140.216C25.3426 143.518 28.3047 147.412 30.4198 151.646C31.0131 152.746 31.6053 154.016 32.1129 155.371C32.1129 155.117 31.8591 154.948 31.5207 154.948ZM32.3668 155.625C33.805 159.434 34.6521 163.667 32.3668 166.97C32.3668 166.97 32.3668 166.97 32.3668 167.055C27.7125 167.139 23.0572 167.986 18.6568 169.171C13.3246 170.61 7.65411 172.303 3.25369 175.689C-1.23132 179.076 -3.77051 184.156 -5.71747 189.236C-6.6481 191.606 -7.40952 193.977 -8.0863 196.432C-8.0863 196.009 -8.0863 195.671 -8.0863 195.248C-8.00171 194.908 -7.91711 194.485 -7.91711 194.146C-4.61652 185.85 -1.40054 177.637 4.77762 170.864C8.24741 166.97 12.394 163.752 17.0482 161.382C21.8728 158.842 26.7808 158.165 31.8591 156.556C32.1975 156.386 32.3668 155.963 32.3668 155.625ZM-7.91711 129.04C-8.93344 134.459 -8.84888 140.131 -9.18726 145.635C-9.52567 151.815 -9.69489 157.911 -9.86407 164.091C-9.9487 169.509 -10.0333 174.928 -10.0333 180.347C-10.9639 173.997 -12.5724 167.647 -14.6029 161.636C-16.2961 156.64 -18.3271 151.646 -20.6967 146.989C-22.5585 143.433 -25.0128 139.285 -28.5673 136.999C-22.6432 132.511 -15.5346 129.548 -7.91711 129.04C-7.91711 129.04 -7.91711 128.955 -7.91711 129.04ZM-21.6276 148.683C-19.1733 153.508 -17.1421 158.588 -15.45 163.752C-12.4032 173.065 -10.7101 182.633 -9.77945 192.369C-9.77945 192.284 -9.77948 192.2 -9.86407 192.2C-11.4715 183.394 -15.3654 175.182 -20.7813 168.07C-25.6053 161.805 -32.8835 154.439 -40.5848 151.731C-37.8766 146.396 -34.153 141.655 -29.5829 137.845C-26.4515 141.232 -23.7433 144.449 -21.6276 148.683ZM-9.61026 211.757C6.04666 209.216 2.32306 236.224 1.90005 244.945C1.90005 245.03 1.90005 245.03 1.90005 245.03C1.90005 245.114 1.90005 245.114 1.90005 245.199C1.56165 245.114 1.22324 245.114 0.968323 245.03C0.968323 244.945 0.968323 244.86 0.968323 244.69C0.291504 240.119 -0.30069 231.06 -7.2403 232.075C-13.5031 233.007 -12.4878 241.304 -10.0333 245.199C-11.0485 245.284 -12.1494 245.368 -13.1647 245.537C-16.9729 235.463 -27.6364 214.635 -9.61026 211.757ZM13.7477 212.941C14.764 215.058 16.1176 216.837 17.8108 218.276C11.6326 219.545 7.4003 226.742 4.77762 233.938C5.36984 224.541 3.93051 213.618 -2.83987 210.232C-2.75528 210.063 -2.67068 209.809 -2.67068 209.555C-2.67068 197.194 1.47705 183.225 14.5948 179.076C20.4334 177.214 27.0346 177.976 32.959 176.875C27.8817 180.431 23.4802 184.833 19.8412 189.744C15.187 196.094 10.024 204.899 13.7477 212.941ZM46.6689 179.416C47.6852 180.262 48.7005 181.108 49.6311 181.87C54.4557 185.681 57.5024 190.337 58.6022 196.432C61.1414 210.401 52.6779 222.254 46.3305 233.769C44.4693 234.108 42.6069 234.7 40.9149 235.463C36.7672 237.409 33.5512 240.626 30.6747 244.267C32.1129 240.542 33.0436 236.648 32.7898 232.584C32.6206 228.689 31.2669 224.964 28.8124 222.17C29.743 222.17 30.6747 222.085 31.6053 221.916C39.814 220.562 46.1613 214.127 48.7851 206.338C51.9165 197.448 50.2233 187.966 46.6689 179.416ZM58.6869 239.949C58.7715 239.865 58.7715 239.865 58.6869 239.949C63.1719 245.03 61.3106 252.056 56.7399 256.543C53.8634 259.337 50.6474 261.623 47.4315 263.994C44.8077 265.179 42.4377 266.533 40.6611 267.973C39.9831 266.873 39.2217 265.856 38.4603 264.84C42.5223 261.793 48.3621 254.597 42.9453 250.617C37.8681 246.892 32.6205 251.633 29.5738 255.697C28.8123 255.104 28.0509 254.512 27.2038 253.918C30.589 248.501 34.0599 242.828 39.4755 239.188C44.7231 235.632 52.7625 234.192 57.8408 238.934C57.4178 239.442 58.0946 240.288 58.6869 239.949ZM50.3936 394.121C47.6853 385.74 40.8303 377.358 31.4361 380.575C34.7367 377.189 35.6673 372.024 35.0751 367.283C34.7367 364.659 34.0599 362.203 33.0436 359.748C35.1597 361.78 37.5297 363.558 39.8985 364.997C43.4529 367.029 48.1083 367.96 52.0011 366.691C59.7021 374.733 63.8498 385.74 62.7488 396.915C62.1566 402.841 59.9559 408.176 56.6553 413.087C54.5403 416.304 52.0857 419.352 50.0541 422.569C53.2701 413.51 53.2701 403.18 50.3936 394.121ZM23.0572 406.482C26.0194 413.764 31.3515 419.944 37.9527 424.261C31.8591 422.992 26.104 421.806 20.518 418.843C8.8396 412.662 1.13751 401.911 -0.892914 388.957C2.32306 386.756 4.60843 383.115 5.70825 379.39C6.97726 375.156 7.4003 370.585 6.97729 366.097C8.83963 370.162 11.2942 374.056 13.5785 377.189C16.6252 381.422 21.0268 384.894 26.1886 383.623C20.1796 389.126 20.0104 399.117 23.0572 406.482ZM27.7971 453.047C23.9032 450.423 19.7566 448.306 16.2868 445.004C13.0708 441.956 10.3625 438.485 7.99362 434.845C3.50748 427.733 0.460693 419.775 -2.50146 411.901C-2.58609 411.393 -2.67068 410.885 -2.75528 410.377C3.33829 424.431 15.61 435.014 32.4513 435.607C32.4513 435.691 32.3668 435.776 32.3668 435.861C32.2821 441.703 30.9285 447.121 28.5586 451.862C28.474 451.862 28.3894 451.777 28.3047 451.777C27.5433 451.693 27.1192 452.624 27.7971 453.047ZM27.2038 454.317C24.5811 458.635 21.196 462.36 17.0482 465.323C17.0482 465.154 16.9637 465.069 16.879 464.9C4.94684 451.439 1.05292 434.845 -1.56973 417.827C0.968323 425.277 4.01508 432.474 8.58582 438.824C11.2942 442.634 14.5102 446.189 18.2338 449.153C20.2642 450.762 24.0735 453.894 27.2038 454.317ZM15.61 466.17C9.68564 470.149 2.40768 472.436 -5.37793 472.774C-6.39426 472.774 -7.40948 472.774 -8.34012 472.774C-8.34012 472.689 -8.34012 472.689 -8.34012 472.605C-7.49411 460.582 -6.98648 448.475 -6.30966 436.368C-5.80206 426.802 -5.03955 417.15 -4.78574 407.499C-4.53192 408.26 -4.36273 409.022 -4.10892 409.785C-2.58609 429.934 1.81543 451.016 15.61 466.17ZM-10.1179 472.689C-18.6656 472.266 -27.467 469.811 -34.2375 464.561C-21.7968 456.604 -12.3186 443.903 -7.83252 429.68C-7.91711 431.882 -8.0863 434.167 -8.1709 436.368C-8.84885 448.391 -9.61029 460.498 -10.1179 472.605C-10.1179 472.689 -10.1179 472.689 -10.1179 472.689ZM-43.8008 450.677C-41.6851 451.354 -39.9078 450.169 -38.046 449.237C-35.507 447.883 -33.0527 446.359 -30.683 444.666C-26.1976 441.449 -22.22 437.638 -18.6656 433.321C-13.08 426.463 -8.84885 418.504 -6.56348 409.954C-6.81726 413.594 -7.07108 417.235 -7.2403 420.96C-10.5409 438.147 -20.3582 453.556 -35.507 463.376C-42.4467 457.281 -46.2551 448.391 -46.2551 439.247C-45.8319 439.247 -45.4088 439.162 -44.9857 439.162C-33.5605 437.978 -22.8124 432.982 -15.45 424.008C-13.08 421.044 -11.0485 417.827 -9.44107 414.441C-11.8099 420.367 -14.9413 425.955 -19.0041 430.95C-21.9662 434.676 -25.3513 438.062 -29.075 441.026C-31.1062 442.634 -33.3066 444.158 -35.507 445.512C-37.3689 446.612 -40.9233 449.406 -43.1237 448.814C-44.5624 448.306 -45.0703 450.254 -43.8008 450.677ZM-4.78574 406.991C-4.78574 406.313 -4.78574 405.72 -4.70114 405.043C-4.61655 405.382 -4.44733 405.72 -4.36273 406.143C-4.36273 406.482 -4.27814 406.737 -4.27814 407.075C-4.44733 406.906 -4.61652 406.906 -4.78574 406.991ZM-6.30966 388.534C-14.1799 389.634 -15.7885 381.761 -16.4652 375.75C-17.3113 369.145 -16.5498 362.711 -14.8567 356.361C-14.8567 356.277 -14.7721 356.107 -14.7721 356.023C-14.1799 356.107 -13.5877 356.192 -12.9955 356.277C-15.45 360.68 -11.7253 369.823 -6.30966 369.993C-3.60129 370.077 -1.14673 368.045 -0.131531 365.674C1.22324 362.626 0.460724 359.324 -0.46991 356.361C0.883728 356.192 2.23846 356.023 3.59207 355.769C4.77762 361.695 5.36984 367.622 4.69302 373.633C3.76129 379.898 0.799133 387.602 -6.30966 388.534ZM-36.9457 387.771C-32.4602 387.687 -28.1441 384.894 -25.3513 381.168C-22.8124 377.781 -20.8659 373.802 -19.3425 369.654C-19.3425 373.125 -19.004 376.596 -18.3269 379.983C-17.3959 384.3 -15.5346 388.28 -12.0648 390.057C-13.2493 403.774 -20.8659 415.118 -32.9681 421.721C-38.6384 424.769 -44.7318 426.463 -51.079 427.563C-51.3329 427.563 -51.5868 427.648 -51.756 427.648C-44.3086 422.569 -37.5381 415.118 -33.899 407.245C-30.937 400.472 -31.9525 392.767 -36.9457 387.771ZM-64.0276 418.504C-67.4127 412.324 -72.3213 406.482 -74.3524 400.386C-76.2143 394.799 -76.045 388.703 -74.2678 383.115C-73.3369 380.321 -72.0674 377.697 -70.3748 375.241C-68.5129 372.617 -66.0587 370.924 -63.9429 368.637C-63.8582 368.553 -63.8582 368.553 -63.8582 368.468C-58.8651 368.807 -53.7873 366.268 -49.7249 363.135C-48.6248 362.288 -47.6092 361.357 -46.5089 360.426C-47.7784 363.389 -48.7094 366.437 -49.1326 369.57C-49.8096 374.31 -48.9633 379.56 -46.0012 383.2C-52.0946 382.438 -58.5265 385.232 -61.9964 390.565C-64.7892 394.968 -65.2123 400.472 -65.297 405.551C-65.3816 409.869 -64.8738 414.187 -64.0276 418.504ZM-74.4371 360.934C-84.4235 368.045 -95.7641 372.024 -108.12 368.468C-114.383 366.606 -119.207 363.135 -123.946 358.901C-124.708 358.224 -125.385 357.632 -126.231 357.039C-118.022 359.409 -108.882 359.748 -101.096 356.446C-94.6638 353.738 -88.4011 347.642 -88.4857 340.445C-85.2699 343.493 -80.2766 344.425 -75.9604 343.831C-71.7289 343.239 -67.7513 341.461 -63.9429 339.514C-63.1812 339.175 -62.5042 338.752 -61.7425 338.329C-69.0207 344.763 -76.6375 353.822 -74.4371 360.934ZM-94.8331 336.804C-98.8107 330.201 -107.697 337.058 -112.098 339.175C-117.599 341.8 -124.454 343.746 -129.87 347.133C-125.723 341.206 -120.392 336.127 -114.129 332.572C-106.512 328.253 -94.7485 327.068 -91.3632 337.312C-88.4859 345.948 -97.3721 352.975 -104.65 355.092C-113.029 357.547 -121.069 355.346 -129.362 353.991C-121.576 352.975 -113.79 351.197 -106.343 348.996C-101.773 347.642 -90.6016 344 -94.8331 336.804ZM-8.34012 244.605C-8.84885 242.574 -10.0333 240.711 -9.94867 238.51C-9.86407 236.055 -8.17093 233.6 -5.46368 234.446C-1.31595 235.717 -1.23132 241.473 -0.46991 244.945C-2.24765 244.776 -3.93973 244.86 -5.71747 245.03C-6.56351 245.03 -7.49411 245.03 -8.34012 245.114C-8.34012 244.945 -8.25552 244.775 -8.34012 244.605ZM0.883728 247.484C0.968323 247.569 1.05292 247.653 1.22324 247.653C1.81546 247.653 2.40765 247.738 2.99985 247.738C3.50748 247.823 4.01511 247.908 4.52383 247.993C4.77762 248.078 5.03143 247.993 5.20065 247.908C6.38507 247.993 7.65408 248.078 8.83963 248.162C9.00882 248.162 9.09344 248.162 9.17804 248.078C17.557 250.447 25.258 254.427 31.6053 260.523C40.0677 268.65 45.2307 279.488 46.8381 291.086C47.093 293.203 47.2622 295.32 47.3469 297.435C47.1776 297.69 47.1776 297.944 47.3469 298.198C47.5161 314.369 40.9149 329.947 29.1508 340.699C28.4739 340.529 27.8817 341.122 27.9663 341.8C25.0042 344.34 21.7881 346.54 18.2338 348.403C17.8108 348.234 17.4713 348.488 17.3867 348.827C17.2174 348.911 17.0482 348.996 16.879 349.081C-3.00909 358.732 -26.6208 355.092 -42.7852 340.106C-59.0344 325.036 -63.9429 301.585 -55.903 281.011C-54.4643 277.371 -52.687 273.984 -50.5713 270.852C-50.3174 270.682 -50.0634 270.344 -49.9789 270.005C-46.2551 264.756 -41.6004 260.354 -36.3533 256.797C-36.0995 256.712 -35.8456 256.543 -35.6762 256.289C-25.0974 249.347 -12.0648 245.961 0.883728 247.484ZM31.1823 257.051C33.5512 254.173 37.021 249.686 41.1687 251.972C46.0767 254.597 40.6611 260.946 37.6989 263.825C37.1913 263.231 36.7672 262.639 36.1749 262.046C34.6521 260.183 32.959 258.575 31.1823 257.051ZM91.3543 348.065C94.9087 349.419 98.6323 349.842 102.441 350.181C103.795 350.265 105.233 350.435 106.673 350.605C100.325 353.567 93.3859 356.192 86.4463 354.584C78.8288 352.805 72.7352 345.863 76.205 337.904C76.2896 337.82 76.2896 337.651 76.3742 337.566C76.8829 336.889 77.2213 336.212 77.5598 335.45C81.9601 329.27 90.9313 328.422 97.5325 331.893C103.118 334.772 107.603 339.598 110.735 345.102C106.842 342.646 102.694 340.614 98.3785 339.09C94.6549 337.735 84.6685 333.249 82.1294 338.583C79.844 343.323 88.0537 346.794 91.3543 348.065ZM57.587 340.106C51.0705 338.752 45.4845 334.941 39.6447 331.809C40.6611 330.285 41.6763 328.676 42.5223 327.068C46.5843 328.676 53.7788 330.285 55.3862 324.867C56.9091 319.534 51.4089 316.993 47.093 316.231C47.6007 314.623 48.0237 312.929 48.3621 311.236C53.6085 313.013 58.856 314.538 63.6806 317.247C68.6732 320.041 75.9512 325.29 75.8666 331.724C75.8666 340.36 63.596 341.377 57.587 340.106ZM43.4529 325.205C44.7231 322.666 45.8229 320.041 46.6689 317.417C48.1083 317.924 49.4619 318.432 50.732 319.194C52.4241 320.295 54.2864 322.751 52.9317 324.867C50.9858 327.999 46.5843 325.799 43.4529 325.205ZM48.1083 285.499C52.1703 285.499 57.5024 281.434 55.7247 276.947C53.8634 272.206 48.1082 273.476 44.6385 275.084C43.877 273.392 42.9453 271.698 42.0147 270.005C42.9453 269.496 43.7924 268.989 44.6385 268.396C48.5313 266.279 52.5087 264.502 57.0794 263.825C63.0027 262.893 70.7048 263.316 72.6506 270.259C74.4283 276.694 69.6039 283.128 64.1036 286.007C60.1262 288.122 55.7247 288.885 51.5781 290.663C50.732 290.916 49.8849 291.17 49.0389 291.425C48.9543 289.478 48.5313 287.445 48.1083 285.499ZM47.6852 283.805C47.0084 281.265 46.1613 278.809 45.1461 276.44C47.6853 275.762 52.2549 274.492 53.6096 277.709C55.2171 281.434 49.8003 282.451 47.6852 283.805ZM36.0904 336.55C39.0525 338.583 42.8607 341.292 40.9149 345.271C38.8833 349.334 33.9742 344.509 30.9285 341.969C32.7898 340.275 34.4829 338.498 36.0904 336.55ZM18.5722 350.605C19.672 351.875 20.7719 353.144 21.3652 354.753C22.042 356.7 21.7036 359.494 19.672 360.595C16.7098 362.118 14.0861 358.986 12.7324 356.784C12.0556 355.769 11.6326 354.669 10.9547 353.822C13.4939 352.975 16.1176 351.875 18.5722 350.605ZM-11.3869 356.446C-8.25552 356.7 -5.03955 356.785 -1.90817 356.446C-1.48517 358.732 -1.06213 361.103 -1.56973 363.389C-2.07736 365.59 -4.19354 368.299 -6.81729 367.791C-9.10266 367.283 -10.5409 364.405 -11.1331 362.372C-11.7253 360.341 -11.2177 358.478 -11.3869 356.446ZM-22.5585 354.245C-23.8279 357.463 -28.3134 365.759 -31.5294 361.187C-33.7297 357.97 -31.1909 354.245 -30.683 351.028C-28.0595 352.298 -25.3513 353.398 -22.5585 354.245ZM-42.7852 343.154C-44.3932 344.848 -45.1549 347.048 -47.3553 348.319C-50.2328 350.011 -53.9565 349.165 -54.0411 345.356C-54.0411 342.562 -52.01 340.529 -49.8942 339.09C-49.3018 338.752 -48.7094 338.413 -48.2017 338.075C-46.4243 339.852 -44.6472 341.546 -42.7852 343.154ZM-59.3728 283.213C-60.6422 282.197 -62.335 282.027 -63.689 281.18C-65.297 280.165 -66.7357 278.556 -66.5665 276.524C-66.4818 274.323 -64.62 273.476 -62.6735 273.561C-61.0655 273.646 -58.1034 274.238 -57.257 275.677C-57.0031 276.101 -56.4108 276.017 -56.1569 275.762C-57.3417 278.217 -58.3573 280.757 -59.2036 283.382C-59.2882 283.297 -59.3728 283.297 -59.3728 283.213ZM-48.4554 264.163C-51.079 261.539 -55.7338 258.491 -53.2794 254.173C-50.402 248.924 -43.547 254.173 -41.939 257.644C-41.939 257.729 -41.8543 257.729 -41.8543 257.814C-44.1393 259.676 -46.4243 261.877 -48.4554 264.163ZM-30.683 250.363C-31.614 248.755 -33.1374 247.569 -33.9836 245.791C-35.1685 243.251 -34.0682 240.626 -31.2755 240.119C-26.6208 239.188 -24.1665 243.928 -22.6432 247.399C-22.6432 247.484 -22.5585 247.484 -22.5585 247.569C-25.3513 248.416 -27.9749 249.432 -30.5984 250.701C-30.5984 250.617 -30.5984 250.532 -30.683 250.363ZM-21.4583 247.315C-21.4583 247.23 -21.4583 247.145 -21.4583 246.976C-22.7278 241.982 -27.2133 236.394 -32.9681 238.849C-38.723 241.219 -36.0149 248.839 -31.7833 251.379C-33.3912 252.226 -34.9146 253.072 -36.438 254.003C-39.4 249.601 -42.3621 245.368 -44.3086 240.288C-46.2551 235.038 -47.186 227.165 -41.6851 224.033C-39.6538 223.864 -37.5381 223.525 -35.6762 222.931C-31.3601 223.44 -27.2131 226.404 -24.4204 229.536C-20.5273 234.023 -18.4117 239.611 -16.0422 244.945C-15.873 245.284 -15.7884 245.622 -15.6192 245.961C-17.6497 246.299 -19.5964 246.722 -21.4583 247.315ZM-43.4623 248.247C-41.8543 251.041 -40.1617 253.495 -38.5537 255.358C-39.3154 255.866 -39.9924 256.374 -40.7541 256.966C-42.6159 252.141 -50.0634 247.061 -54.3796 252.056C-58.3573 256.712 -54.295 263.231 -49.6403 265.602C-50.402 266.449 -51.079 267.381 -51.756 268.312C-56.7493 265.941 -61.3194 262.724 -65.1277 258.66C-69.3593 254.173 -75.1988 245.707 -68.8515 240.373C-63.4351 235.886 -55.3105 239.103 -50.148 242.405C-47.5245 244.098 -45.3242 246.045 -43.4623 248.247ZM-62.1656 266.11C-60.727 266.788 -59.2882 267.55 -57.8495 268.396C-57.5956 268.481 -55.226 269.836 -53.7873 270.428C-53.7873 270.513 -53.8719 270.513 -53.8719 270.598C-53.8719 270.682 -53.8719 270.682 -53.8719 270.767C-53.9565 271.021 -53.8719 271.19 -53.7025 271.359C-53.7873 271.444 -53.7872 271.529 -53.8719 271.613C-54.6335 272.884 -55.3105 274.153 -55.9876 275.508C-55.9876 275.423 -55.9876 275.338 -55.9876 275.169C-56.6646 273.053 -59.8806 272.121 -61.9117 271.783C-64.2814 271.359 -66.905 271.867 -68.1745 274.069C-69.3593 276.186 -68.8515 278.979 -67.4973 280.842C-66.0587 282.789 -62.5889 285.074 -60.0499 284.736C-59.8806 284.736 -59.796 284.651 -59.6268 284.567C-60.1345 286.345 -60.6424 288.207 -60.9809 289.985C-61.0655 289.985 -61.0655 289.901 -61.1501 289.901C-69.7824 286.345 -90.8555 283.636 -86.6239 269.496C-84.5081 262.47 -76.8068 261.031 -70.4594 262.724C-67.582 263.486 -64.8738 264.756 -62.1656 266.11ZM-61.7425 292.102C-61.5732 292.102 -61.4886 292.102 -61.3194 292.102C-61.4886 293.203 -61.5732 294.218 -61.7425 295.32C-65.8047 293.541 -73.8447 294.303 -73.9293 300.06C-74.0139 306.156 -66.5665 307.342 -61.8271 305.987C-61.7425 307.088 -61.5732 308.273 -61.404 309.373C-68.0898 311.067 -74.3524 313.522 -81.3768 313.353C-88.2319 313.183 -97.3721 310.728 -96.5257 302.262C-95.087 287.615 -78.584 288.885 -66.6511 290.832C-64.8738 291.34 -63.1812 291.764 -61.7425 292.102ZM-61.9117 303.955C-65.3816 304.209 -70.4595 305.31 -71.5597 300.908C-72.7444 295.997 -64.7892 295.743 -61.9964 296.843C-61.9117 296.843 -61.9118 296.843 -61.8271 296.843C-62.081 299.214 -62.081 301.585 -61.9117 303.955ZM-61.0655 311.744C-60.0499 316.909 -58.3573 321.988 -55.903 326.73C-55.9876 326.73 -55.9876 326.73 -56.0723 326.814C-57.5956 327.745 -58.5265 328.931 -60.4731 328.931C-62.4196 328.931 -64.0276 327.914 -64.7892 326.137C-65.4662 324.443 -65.2123 322.326 -64.0276 320.888C-62.8427 319.534 -61.0655 319.279 -59.796 318.094C-59.4575 317.84 -59.7114 317.247 -60.1345 317.247C-65.4662 317.078 -68.8515 323.343 -66.3126 327.83C-65.1277 329.947 -62.8427 331.047 -60.4731 331.047C-58.5265 331.047 -55.9876 330.116 -55.0567 328.338C-54.6335 329.016 -54.2104 329.777 -53.7873 330.455C-55.1413 330.539 -56.4954 332.148 -57.511 332.825C-60.3038 334.772 -63.1812 336.466 -66.2279 337.904C-72.4906 340.952 -82.9848 344.594 -87.8934 337.312C-92.5481 330.455 -84.4235 322.92 -79.261 319.194C-77.0607 317.586 -74.7757 316.231 -72.406 315.13C-68.513 314.369 -64.62 313.098 -61.0655 311.744ZM-65.6355 345.609C-61.6579 340.868 -56.8339 336.889 -51.4175 333.841C-51.079 334.349 -50.6559 334.857 -50.3174 335.366C-49.9788 335.873 -49.5557 336.296 -49.1326 336.72C-50.402 337.312 -52.3485 338.583 -52.5178 338.752C-53.7873 339.768 -54.8874 341.037 -55.4799 342.562C-56.4108 344.932 -56.2415 347.811 -54.4643 349.758C-50.402 354.076 -42.1928 349.504 -41.3466 344.34C-40.4156 345.102 -39.5692 345.779 -38.5537 346.456C-38.723 346.54 -38.8076 346.794 -38.8076 347.048C-40.4156 349.334 -41.9389 351.705 -43.3777 354.161C-43.8008 354.584 -44.224 355.007 -44.4778 355.261C-46.7629 357.632 -49.2172 359.917 -51.9254 361.865C-56.9185 365.42 -63.8582 368.214 -69.2747 363.812C-75.7066 358.563 -69.5286 350.265 -65.6355 345.609ZM-39.7386 352.805C-38.9768 351.875 -38.1306 350.774 -37.7075 349.673C-37.2842 348.996 -36.8611 348.403 -36.438 347.811C-35.0839 348.657 -33.7297 349.504 -32.291 350.181C-35.3377 353.229 -35.9301 361.78 -31.614 363.982C-26.2823 366.606 -22.1353 359.071 -21.1198 354.669C-19.8503 355.007 -18.4962 355.346 -17.1421 355.599C-17.1421 355.599 -17.1421 355.684 -17.2267 355.684C-17.7343 357.378 -18.1577 359.155 -18.4962 360.934C-20.1042 366.183 -22.1354 371.431 -24.8435 376.173C-28.1441 381.93 -35.0839 388.365 -41.8543 383.623C-51.9254 376.596 -45.7473 362.457 -39.7386 352.805ZM12.9016 371.431C11.2942 368.722 9.93945 365.928 8.83963 363.051C7.8244 360.51 7.23105 357.801 6.04663 355.43C6.04663 355.346 5.96204 355.346 5.96204 355.261C6.89267 355.007 7.8244 354.753 8.75504 354.499C9.43185 357.124 11.7172 360.257 13.7477 361.695C15.9484 363.304 19.0798 363.897 21.3652 362.118C25.7656 358.732 23.5648 352.975 20.095 349.758C21.3652 348.996 22.7188 348.234 23.9032 347.471C23.9032 347.642 23.9878 347.811 24.0724 347.896C24.9196 349.588 25.9348 351.197 27.1192 352.805C28.9816 356.023 30.6747 359.409 31.6899 362.965C33.4666 368.891 33.7204 377.443 27.1192 380.66C20.518 383.877 15.7792 376.342 12.9016 371.431ZM37.9527 360.68C33.1282 356.785 29.4892 351.875 26.104 346.794C25.9348 346.625 25.7656 346.456 25.5964 346.371C26.8654 345.44 28.1355 344.509 29.32 343.493C32.7898 346.964 39.3909 352.467 42.6915 346.879C45.5691 341.969 41.0841 337.82 36.9364 335.619C37.4451 334.941 37.9527 334.349 38.4603 333.672C43.3683 336.55 47.8545 340.106 51.4088 344.594C55.0479 349.165 59.7867 357.209 54.7094 362.542C49.9695 367.453 42.4377 364.32 37.9527 360.68ZM55.2171 345.779C53.948 343.916 52.5933 342.223 51.0705 340.614C54.2018 341.969 57.4178 342.815 60.8876 343.069C64.865 343.408 69.6884 342.562 73.2428 340.275C72.2276 346.879 76.4588 352.975 82.8908 355.599C92.4541 359.578 102.441 355.092 111.073 350.859C111.412 350.859 111.75 350.944 112.088 350.944C110.65 351.705 109.295 352.636 107.942 353.652C103.288 357.293 98.6323 360.257 92.8772 361.865C81.1988 365.166 68.6732 362.288 59.2791 354.669C59.1945 354.584 59.0253 354.499 58.9407 354.499C58.3484 351.282 56.9102 348.234 55.2171 345.779ZM99.8178 347.557C96.7711 347.217 93.8935 346.625 91.0159 345.44C89.6612 344.848 88.3075 344.254 87.1231 343.493C85.853 342.646 81.1142 339.514 86.7847 338.075C88.7306 337.566 92.7079 339.26 94.5703 339.768C97.4479 340.614 100.325 341.715 103.034 342.9C106.334 344.339 109.381 346.117 112.342 347.98C112.342 348.065 112.427 348.15 112.427 348.234C108.365 347.811 103.964 347.98 99.8178 347.557ZM94.8241 328.507C89.1536 326.73 82.7216 327.745 78.3212 331.47C78.2366 325.968 73.3285 320.972 69.1808 317.924C66.2186 315.723 62.9181 313.945 59.4483 312.506C69.8576 313.522 81.5371 311.998 84.5839 302.431C96.0931 303.447 102.694 314.369 107.519 323.936C110.227 329.27 110.65 334.433 111.581 340.191C111.919 342.392 112.511 344.932 113.697 346.964C113.528 346.879 113.359 346.71 113.189 346.625C110.396 338.667 102.779 330.962 94.8241 328.507ZM82.4678 301.161C78.8288 312.929 60.6338 310.982 50.3091 309.288C49.8003 309.119 49.2927 309.035 48.8697 308.865C48.9543 308.273 49.0389 307.68 49.1235 307.088C49.2081 307.173 49.2927 307.257 49.4619 307.342C53.3547 308.696 60.0405 306.325 59.1945 301.331C58.856 299.383 57.3332 297.775 55.5555 296.928C53.6085 296.081 51.5781 296.251 49.6311 296.674C49.6311 295.743 49.5465 294.896 49.4619 293.964C55.7247 292.102 62.4104 289.393 68.927 289.393C75.4436 289.478 85.0069 292.779 82.4678 301.161ZM49.2081 305.817C49.4619 303.955 49.5465 302.008 49.6311 300.06C49.6311 299.468 49.6311 298.875 49.6311 298.198C52.5087 298.029 56.1477 298.198 56.9948 301.161C58.2638 305.733 51.8319 305.056 49.3773 305.733C49.3773 305.817 49.2927 305.817 49.2081 305.817ZM80.7757 290.324C78.9134 289.054 76.7137 288.122 74.4284 287.615C71.8892 287.022 69.4346 286.938 66.8966 287.107C67.9118 286.514 68.8424 285.837 69.6884 284.99C72.989 281.942 75.2744 277.709 75.4436 273.223C79.1672 277.032 84.9224 278.471 90.7621 277.032C96.1777 275.592 100.579 272.121 104.641 268.396C108.703 264.671 112.682 260.777 116.744 256.882C113.189 262.3 111.835 269.581 108.365 275C102.356 284.313 92.2849 289.308 81.4525 290.07C81.1988 290.155 80.9449 290.239 80.7757 290.324ZM82.0447 263.401C83.1457 269.921 92.6234 267.465 96.4326 265.771C100.579 263.91 104.303 261.2 108.365 259.083C110.143 258.152 111.919 257.306 113.697 256.543C111.496 258.66 109.296 260.777 107.096 262.893C103.541 266.279 99.987 269.921 95.7547 272.46C91.6081 274.915 86.276 276.355 81.5371 274.661C76.7983 272.969 73.9207 268.142 73.8362 263.231C73.6669 252.733 84.0763 248.416 92.8772 247.399C100.918 246.468 108.957 247.23 116.405 250.109C109.889 249.347 103.034 249.77 97.1095 251.295C92.2849 252.48 80.9449 256.712 82.0447 263.401ZM104.472 258.575C101.764 260.183 99.1399 261.962 96.2635 263.316C94.0627 264.417 87.6307 267.296 85.43 264.671C84.2455 263.316 84.5839 260.862 85.6837 259.676C86.3606 258.999 87.1231 258.322 87.8845 257.814C89.0689 256.966 90.3391 256.205 91.6081 255.527C94.4857 254.089 97.6171 253.157 100.833 252.564C106.588 251.549 112.173 252.141 117.844 252.31C113.274 254.003 108.788 256.12 104.472 258.575ZM89.1536 245.622C80.0143 247.145 70.874 253.664 71.5508 263.91C67.4042 260.354 60.7184 260.183 54.4556 261.708C57.2486 259.591 59.9559 257.306 61.8182 254.343C64.865 249.432 64.442 243.082 60.9722 238.595C71.0432 232.584 82.8908 230.129 94.4011 233.177C100.325 234.7 105.826 237.579 110.481 241.557C113.105 243.759 115.304 246.468 117.759 248.924C108.872 244.521 98.7169 244.013 89.1536 245.622ZM30.5044 235.971C29.9968 241.388 27.7126 246.553 25.7656 251.633C25.5964 251.972 25.4272 252.226 25.1733 252.564C23.9032 251.803 22.6342 251.041 21.3652 250.363C22.9726 245.961 26.6962 237.748 20.1796 235.377C14.0861 233.177 11.3788 240.965 10.9547 245.453C10.8701 246.638 12.817 246.892 13.0709 245.707C13.4093 243.844 13.5784 241.812 14.4256 240.203C15.61 237.917 18.4876 236.14 20.7718 238.256C23.734 241.05 20.9422 246.299 20.095 249.686C15.1024 247.23 9.77026 245.707 4.1843 245.453C5.45447 239.865 7.14648 234.446 9.85486 229.367C12.4786 224.456 16.033 219.376 21.8728 220.9C22.5496 221.154 23.2264 221.408 23.9032 221.662C29.32 224.117 31.0131 230.383 30.5044 235.971ZM-22.3047 221.323C-22.6432 223.779 -22.4739 226.234 -21.9662 228.689C-22.9817 227.419 -24.0819 226.234 -25.3513 225.133C-27.2979 223.44 -29.6675 222.085 -32.1218 221.239C-29.2444 219.46 -27.1285 216.666 -26.6208 212.688C-25.5205 204.73 -29.6675 196.263 -34.83 190.421C-40.5002 183.987 -48.9633 179.33 -57.5956 178.145C-57.0033 178.06 -56.4108 177.976 -55.903 177.891C-49.4711 176.875 -43.2083 176.197 -36.7765 177.722C-21.2044 181.447 -16.8036 196.856 -15.0259 210.91C-18.9194 212.941 -21.6275 216.582 -22.3047 221.323ZM-62.9273 211.587C-59.2882 218.022 -53.1102 223.187 -45.7473 223.948C-49.9789 228.435 -49.0479 235.717 -46.3397 242.49C-47.7784 241.304 -49.2172 240.288 -50.8252 239.357C-56.2415 236.224 -63.8582 234.023 -69.5286 237.748C-78.4148 228.096 -80.869 215.397 -76.299 202.951C-74.6909 198.634 -70.7133 193.469 -68.0898 188.22C-67.8359 196.263 -66.905 204.561 -62.9273 211.587ZM-70.6287 255.951C-69.0207 258.237 -67.2435 260.268 -65.2124 262.131C-66.7357 261.454 -68.2591 260.862 -69.8671 260.438C-76.4683 258.575 -84.4235 259.76 -87.8934 266.279C-88.4857 259.168 -95.087 252.733 -101.265 250.278C-109.305 247.145 -118.276 248.331 -126.316 251.379C-121.153 247.315 -117.176 242.236 -110.744 239.949C-97.3721 235.292 -85.1852 241.388 -74.1832 248.416C-74.0139 248.501 -73.9293 248.501 -73.76 248.585C-73.2523 251.21 -72.0674 253.834 -70.6287 255.951ZM-108.374 280.588C-101.519 282.111 -93.3944 279.826 -89.6706 273.73C-89.1629 279.995 -82.9001 284.482 -76.045 287.53C-86.0315 286.853 -95.9333 289.139 -98.4722 299.129C-111.336 299.045 -123.354 291.848 -127.754 279.403C-129.109 275.592 -129.109 270.682 -129.701 265.941C-124.2 272.714 -116.583 278.809 -108.374 280.588ZM-98.1337 308.781C-97.9644 308.781 -97.8798 308.781 -97.7106 308.781C-95.5101 312.506 -91.1094 314.538 -86.2854 315.384C-83.7465 315.807 -81.2075 315.977 -78.584 315.807C-79.8535 316.57 -81.1229 317.417 -82.3078 318.348C-86.37 321.565 -91.1093 326.476 -91.6171 331.979C-96.1026 326.56 -103.973 325.714 -110.744 328.338C-119.037 331.555 -126.146 337.905 -131.309 345.186C-131.224 344.932 -131.14 344.678 -131.14 344.425C-129.362 338.075 -127.924 331.555 -125.808 325.29C-121.83 313.353 -110.49 306.918 -98.1337 308.781ZM-125.639 347.726C-122.93 346.287 -120.053 345.102 -117.26 343.916C-114.467 342.731 -111.59 341.546 -108.882 340.106C-106.089 338.667 -102.45 335.619 -99.0647 336.55C-94.5792 337.735 -96.7796 342.308 -99.4032 343.916C-100.927 344.848 -102.788 345.356 -104.481 345.948C-107.782 346.964 -111.167 347.98 -114.467 348.742C-121.069 350.35 -127.67 351.621 -134.271 353.059C-134.186 352.89 -134.017 352.806 -133.932 352.636C-133.763 352.636 -133.509 352.636 -133.34 352.552C-130.716 351.028 -128.347 349.165 -125.639 347.726ZM-119.884 365.336C-115.06 368.722 -109.474 370.924 -103.635 371.77C-93.1405 373.294 -81.2075 370.077 -73.9293 362.034C-73.3369 363.304 -72.406 364.405 -71.1366 365.505C-71.3904 365.505 -71.6443 365.59 -71.8982 365.843C-72.1521 366.097 -72.4059 366.437 -72.7444 366.691C-83.3233 372.362 -94.6638 375.835 -106.851 374.903C-118.107 374.056 -130.293 369.061 -135.71 358.647C-136.217 357.716 -136.556 356.87 -136.979 355.938C-136.81 356.023 -136.725 356.023 -136.556 356.023C-129.362 355.176 -125.131 361.611 -119.884 365.336ZM-75.2834 426.463C-74.6064 427.309 -73.8447 428.156 -72.9984 428.919C-77.3992 430.442 -81.9693 431.543 -86.5392 432.305C-86.5392 432.22 -86.5394 432.136 -86.6239 432.051C-90.517 422.4 -91.6171 412.578 -89.4167 402.334C-88.3165 397 -86.37 391.921 -84.0004 387.01C-87.3856 400.386 -84.6774 415.118 -75.2834 426.463ZM-88.2319 432.559C-94.8331 433.405 -101.519 433.321 -107.866 431.882C-106.427 420.452 -102.619 409.7 -96.8642 399.709C-92.2096 391.582 -86.4546 384.385 -80.2766 377.358C-80.6998 378.204 -81.1229 379.052 -81.4614 379.898C-91.4478 395.138 -96.695 415.71 -88.2319 432.559ZM-109.39 431.458C-115.568 429.765 -121.407 426.802 -126.485 422.145C-133.763 415.456 -137.487 406.482 -138.333 397.084C-127.501 398.355 -116.414 395.053 -106.766 390.311C-101.604 387.856 -96.7796 384.894 -91.9556 381.846C-89.5014 380.237 -86.9624 378.629 -84.5081 377.019C-83.8311 376.596 -82.7309 375.665 -81.4614 374.733C-89.0782 380.829 -96.4411 387.094 -103.719 393.613C-108.205 397.678 -112.606 401.741 -117.006 405.889C-120.984 409.699 -125.723 413.425 -129.024 417.912C-129.447 418.504 -128.601 419.436 -127.924 419.012C-123.438 415.71 -119.63 411.139 -115.568 407.245C-111.167 403.095 -106.766 398.947 -102.281 394.884C-94.3253 387.602 -86.1161 380.491 -77.9915 373.464C-77.9915 373.464 -77.9915 373.548 -78.0763 373.548C-94.4099 388.449 -107.02 409.614 -109.39 431.458ZM-124.538 383.538C-119.715 384.3 -114.806 384.216 -109.982 383.538C-104.312 382.777 -98.7261 381.168 -93.2251 379.306C-91.5325 378.713 -89.7552 378.12 -87.978 377.527C-92.4635 380.321 -96.8642 383.115 -101.519 385.655C-113.029 392.005 -125.131 396.069 -138.418 395.307C-138.503 395.307 -138.503 395.307 -138.587 395.307C-138.841 389.804 -138.079 384.131 -136.471 378.798C-134.186 382.1 -128.262 383.031 -124.538 383.538ZM-136.133 377.697C-135.033 374.225 -133.509 370.839 -131.647 367.706C-131.563 367.791 -131.563 367.791 -131.478 367.876C-124.115 374.31 -114.129 377.189 -104.481 377.527C-97.1181 377.781 -89.586 376.596 -82.5616 373.887C-84.085 375.41 -86.7086 375.835 -88.6551 376.427C-90.9401 377.189 -93.1405 377.866 -95.4255 378.458C-99.7417 379.729 -104.142 380.829 -108.628 381.422C-117.683 382.777 -127.416 382.354 -135.456 377.612C-135.625 377.527 -135.964 377.527 -136.133 377.697ZM-70.8826 427.563C-78.2455 420.198 -82.6463 410.039 -83.0694 399.624C-83.5772 387.602 -78.6687 375.919 -70.1209 367.537C-69.7824 367.199 -69.6978 366.86 -69.7824 366.522L-69.6978 366.437L-69.6132 366.522C-68.5976 367.114 -67.582 367.622 -66.4818 367.876C-70.4595 370.416 -73.5062 375.41 -75.2834 379.475C-77.4838 384.469 -78.3301 390.057 -77.7377 395.476C-76.045 409.445 -61.4886 418.927 -62.8427 433.405C-65.6356 431.966 -68.4283 430.019 -70.8826 427.563ZM-61.4886 394.714C-58.5266 386.332 -47.7784 382.354 -40.3309 387.687C-32.0371 393.613 -33.7297 403.52 -38.8076 410.97C-43.4623 417.912 -49.5557 423.415 -56.0723 428.58H-56.1569C-51.2483 423.161 -46.7629 417.404 -43.9701 410.546C-42.0236 405.72 -38.2152 394.036 -44.6472 390.819C-50.9944 387.602 -55.1413 399.794 -56.8339 403.858C-58.5265 408.091 -59.8806 412.408 -60.6422 416.896C-60.8962 418.25 -61.0655 419.69 -61.1501 421.044C-63.1812 412.833 -64.3661 402.841 -61.4886 394.714ZM-59.7114 430.442C-59.2036 427.986 -59.2036 425.532 -59.0344 423.077C-58.7804 419.436 -58.1034 415.879 -57.1725 412.324C-56.2415 409.022 -55.1413 405.72 -53.7025 402.588C-53.0255 401.149 -52.3485 399.709 -51.5868 398.355C-50.9098 397.169 -49.5557 393.867 -48.3708 393.359C-47.0168 393.613 -45.6627 393.782 -44.3086 394.036L-43.7162 395.561C-43.4623 396.407 -43.4623 397.339 -43.4623 398.186C-43.4623 400.132 -43.7162 402.08 -44.1393 403.943C-44.9009 407.414 -46.2551 410.8 -47.8631 413.933C-51.079 419.944 -55.3953 425.277 -59.7114 430.442ZM-59.796 434.421C-57.0879 429.172 -47.863 429.596 -42.8698 428.156C-36.6918 426.378 -30.7676 423.584 -25.6899 419.69C-16.8036 412.917 -10.0333 401.995 -10.5409 390.565C-9.52563 390.904 -8.34012 390.988 -7.1557 390.988C-7.1557 391.328 -7.1557 391.667 -7.07111 392.005C-7.83252 412.239 -18.5808 430.696 -39.3154 435.607C-44.4778 436.792 -49.5557 437.046 -54.295 436.199C-54.2104 434.845 -56.2415 434.336 -56.6646 435.691C-57.7649 435.437 -58.8651 435.099 -59.9652 434.676C-59.9652 434.59 -59.8806 434.59 -59.796 434.421ZM7.909 422.569C-0.385345 414.187 -4.27814 402.334 -4.70114 390.735C-4.10892 390.565 -3.60132 390.396 -3.09372 390.142C-1.65436 401.233 4.94681 411.139 14.0014 417.573C18.826 421.044 24.412 423.5 30.166 425.023C35.5827 426.378 42.7761 426.209 46.8381 430.527C33.9753 435.522 18.403 433.151 7.909 422.569ZM43.2838 402.672C41.7609 398.693 40.0677 394.545 37.7835 390.904C36.598 389.042 34.3137 385.825 31.6899 386.163C24.835 387.094 30.7593 401.826 32.0283 404.874C34.8213 411.562 38.4603 417.827 42.2685 423.923C36.0057 420.536 30.7593 415.795 27.1192 409.445C22.6342 401.657 20.6026 388.788 30.0814 383.623C40.8303 377.697 47.3469 390.65 49.1235 399.201C50.8167 407.329 50.0541 415.287 48.1083 423.161C47.6006 416.219 45.7383 409.276 43.2838 402.672ZM46.8381 427.055C43.3683 421.552 39.8986 416.05 36.9364 410.293C35.2444 407.075 33.7204 403.689 32.5359 400.301C31.8592 398.355 28.6431 387.263 33.6358 389.296C36.0057 390.227 37.8681 395.645 38.8833 397.847C40.4062 401.149 41.7609 404.535 42.8607 408.091C44.8923 414.187 46.0767 420.536 46.8381 427.055ZM60.803 411.477C63.6806 406.482 65.288 400.81 65.4572 395.053C65.8802 384.216 61.8182 373.295 53.6096 366.182C54.5403 365.759 55.3863 365.082 56.1477 364.32C59.0253 366.945 61.4798 369.823 63.596 372.956C63.5114 373.041 63.5114 373.21 63.6806 373.379C63.8498 373.548 64.019 373.718 64.1882 373.887C72.8198 387.517 73.4978 405.128 62.9181 418.758C59.1945 423.584 54.371 427.225 49.0389 429.68C52.1703 423.077 57.164 417.742 60.803 411.477ZM122.499 379.644C117.844 380.237 113.274 381.168 108.534 381.252C103.288 381.252 98.1247 380.66 93.0475 379.56C85.9376 377.95 79.1672 375.41 72.6506 372.278C83.3995 375.072 94.9087 374.056 104.557 368.468C114.881 369.061 123.43 376.512 126.73 386.163C128.338 390.819 128.422 395.73 127.492 400.386C127.407 400.301 127.238 400.301 127.069 400.301C114.289 399.794 102.949 393.275 92.2003 386.84C84.4993 382.269 77.0521 377.358 69.773 372.278C77.0521 376.512 85.007 379.644 93.1321 381.506C102.441 383.623 113.528 384.554 122.753 381.422C123.514 381.083 123.514 379.475 122.499 379.644ZM92.8772 389.296C103.372 395.561 114.543 401.657 126.984 402.164C125.8 406.821 123.514 411.308 120.721 415.202C118.605 418.166 116.067 420.79 113.189 423.161C113.189 422.992 113.105 422.738 112.936 422.569C104.303 413.679 95.8394 404.62 87.4615 395.476C79.8451 387.094 72.566 378.289 64.7804 370.077C73.7516 377.104 83.1457 383.538 92.8772 389.296ZM90.9313 417.573C89.8315 411.562 87.9691 405.805 85.43 400.217C83.5687 396.069 81.2834 392.005 78.6596 388.28C81.0295 390.904 83.4841 393.613 85.853 396.238C94.3165 405.635 102.949 414.864 111.665 423.923C111.75 424.092 111.919 424.092 112.088 424.177C106.673 428.495 100.325 431.543 93.5551 432.897C92.5388 433.067 91.6081 433.236 90.5929 433.321C92.4541 428.411 91.7773 422.569 90.9313 417.573ZM76.7983 401.572C75.9512 394.715 74.5976 387.094 70.9586 380.998C75.8666 386.671 80.0143 392.851 83.2303 399.624C85.5146 404.535 87.2923 409.785 88.4767 415.033C89.9161 421.467 89.6612 426.971 88.8997 433.49C84.9224 433.744 80.8604 433.405 77.0522 432.22C75.0206 431.628 73.2429 430.78 71.5508 429.849C71.72 429.765 71.8046 429.765 71.9738 429.596C79.2518 422.145 77.9828 410.97 76.7983 401.572ZM57.7562 362.288C58.6868 360.764 59.1098 359.071 59.1098 357.378C67.235 363.474 77.3906 366.437 87.5461 365.166C92.6234 364.489 97.6171 362.88 102.017 360.426C106.588 357.801 111.581 351.367 117.167 351.197C105.741 373.548 76.8829 376.681 57.7562 362.288ZM113.951 340.783C113.359 337.904 113.274 334.941 112.766 332.064C111.75 326.476 108.872 321.48 105.995 316.655C101.51 309.288 94.5703 300.145 85.0069 300.992C85.0916 300.653 85.0916 300.314 85.1761 299.975C85.3454 298.96 85.2607 298.029 85.1761 297.181C98.0401 297.181 108.872 306.325 115.304 316.824C121.398 326.814 122.753 338.498 118.182 349.165C116.067 346.54 114.628 344.17 113.951 340.783ZM134.854 307.257C132.739 305.987 130.538 304.886 128.338 303.785C128.761 303.871 129.269 303.955 129.692 304.04C135.701 305.225 141.709 306.494 147.718 307.765C153.05 308.95 158.552 310.559 163.967 311.321C162.444 318.855 158.89 325.968 153.219 331.301C152.458 331.979 151.695 332.656 150.934 333.249C152.035 322.242 143.741 312.59 134.854 307.257ZM146.872 305.648C140.863 304.379 134.854 303.193 128.761 302.008C126.138 301.5 123.514 300.992 120.975 300.483C123.683 300.483 126.392 300.314 129.016 300.145C140.694 299.298 152.373 296.42 162.952 291.255C163.206 291.17 163.29 291.001 163.375 290.832C164.39 294.896 164.898 299.045 164.898 303.108C164.898 305.225 164.644 307.342 164.39 309.458C158.721 307.68 152.627 306.833 146.872 305.648ZM162.021 289.732C151.272 294.303 140.102 297.351 128.422 298.198C123.007 298.537 117.674 298.452 112.258 298.029C108.449 297.689 104.726 296.928 100.918 296.251C109.466 296.251 118.097 293.964 125.714 290.409C134.939 286.091 144.925 278.979 150.088 269.921C151.78 271.19 153.304 272.714 154.742 274.323C158.721 278.809 161.513 284.313 163.121 290.07C162.867 289.647 162.444 289.562 162.021 289.732ZM101.087 298.537C104.557 299.214 108.111 299.806 111.581 300.483C112.427 300.653 113.189 300.823 114.035 300.992C131.384 305.31 149.073 314.707 149.242 333.926C149.242 334.18 149.327 334.349 149.411 334.433C144.925 337.566 139.932 339.26 134.77 339.937C135.871 330.878 130.369 320.549 124.783 314.115C118.351 306.748 109.635 301.923 100.495 298.791C100.241 298.706 100.072 298.537 99.8178 298.452C100.241 298.452 100.664 298.537 101.087 298.537ZM113.782 310.305C111.665 307.68 109.295 305.14 106.588 302.939C112.342 305.817 117.759 309.542 122.159 314.284C125.715 318.009 128.507 322.496 130.285 327.237C131.892 331.555 132.061 335.704 132.401 340.106C129.608 340.275 126.815 340.191 123.937 339.768C123.683 339.768 123.43 339.768 123.26 339.852C123.345 339.429 123.345 339.09 123.43 338.667C124.36 328.338 120.129 318.348 113.782 310.305ZM140.948 264.84C143.825 265.771 146.449 267.211 148.904 268.904C145.688 272.544 142.81 276.186 139.086 279.318C135.023 282.789 130.538 285.668 125.714 288.038C118.52 291.51 111.073 293.372 103.288 294.218C115.643 289.054 125.291 277.54 126.815 263.74C131.638 263.401 136.124 263.231 140.948 264.84ZM124.36 262.47C124.022 262.724 124.022 263.231 124.276 263.571C123.43 271.19 120.129 278.64 114.289 284.228C106.419 291.848 95.924 294.981 85.0916 294.557C84.8378 294.557 84.6685 294.642 84.4993 294.727C84.0763 293.795 83.4841 292.949 82.8062 292.187C91.7773 291.933 100.664 287.361 106.673 280.757C109.973 277.117 112.173 272.884 113.866 268.312C115.898 262.724 117.759 256.712 122.753 253.157H122.837C123.176 253.241 123.514 253.157 123.768 252.987C124.36 256.035 124.614 259.252 124.36 262.47ZM109.973 238.425C104.895 234.531 98.9707 231.821 92.7079 230.552C81.2834 228.181 69.1808 230.552 59.7867 237.409C59.7021 237.325 59.5329 237.155 59.4483 237.071C58.433 236.14 57.3332 235.463 56.2323 234.954C58.0946 233.938 59.9559 232.923 61.9028 232.075C62.072 232.244 62.3258 232.33 62.5797 232.075C63.0872 231.737 63.5114 231.398 64.019 231.06C79.3364 224.456 96.8557 222.593 111.242 233.177C113.866 235.123 116.152 237.325 117.928 239.865C117.759 240.288 117.844 240.88 118.52 241.05C118.605 241.05 118.774 241.134 118.859 241.134C120.89 244.182 122.329 247.484 123.26 250.955C118.605 246.976 114.881 242.151 109.973 238.425ZM75.4436 201.513C78.0674 192.369 78.4058 182.462 74.2592 173.743C79.5902 171.541 85.5146 170.949 91.4389 171.626C92.3695 183.479 89.2382 194.908 82.8908 204.984C79.6748 210.063 75.8666 214.466 71.72 218.614C68.1656 221.577 64.6112 224.541 61.226 227.673C61.226 227.589 61.3106 227.589 61.3106 227.504C68.2502 221.07 72.8198 210.486 75.4436 201.513ZM65.4572 219.63C70.3664 207.693 69.9434 193.892 62.3258 182.802C65.2034 179.076 68.7578 176.368 72.6506 174.505C76.7137 183.479 75.9512 193.469 73.1582 202.697C71.8046 207.269 69.8576 211.757 67.658 215.905C66.9812 217.175 66.2187 218.36 65.4572 219.63ZM92.9629 171.88C100.748 173.149 108.196 176.622 113.866 182.039C113.866 182.039 113.782 182.039 113.782 182.124C103.964 189.913 94.9933 198.888 85.5146 207.1C83.7379 208.624 81.9601 210.147 80.1835 211.587C89.2381 200.157 94.8241 186.442 92.9629 171.88ZM94.0627 216.751C84.584 217.683 75.782 221.662 67.8272 226.827C65.7111 227.673 63.6806 228.604 61.7336 229.621C70.7894 222.593 80.1835 216.837 91.1851 213.365C96.7711 211.587 102.525 210.401 108.365 209.894C113.866 209.386 121.229 208.37 125.969 211.672C126.138 211.757 126.307 211.841 126.476 211.757C126.476 216.666 125.375 221.493 122.922 225.556C115.304 218.36 104.303 215.651 94.0627 216.751ZM121.906 227.081C120.214 229.536 117.928 231.652 115.051 233.346C108.534 227.589 99.987 223.864 90.6775 223.102C85.7683 222.678 80.7757 223.102 75.9512 224.202C91.0159 217.26 108.196 215.143 121.906 227.081ZM112.258 207.778C105.656 208.032 99.1399 209.132 92.7926 210.91C87.0385 212.518 81.368 214.804 75.9512 217.683C79.421 214.72 82.8908 211.672 86.3606 208.709C96.0085 200.496 106.25 192.369 115.051 183.225L115.135 183.141C121.483 189.744 125.969 200.073 126.392 209.978C123.768 206.592 115.812 207.608 112.258 207.778ZM59.8713 183.733C59.8713 183.818 59.8713 183.818 59.8713 183.818C59.7021 184.325 60.1262 184.664 60.6338 184.664C64.442 190.421 66.6417 197.279 66.3878 204.645C66.1341 215.482 61.1414 225.81 53.2701 233.177C53.1009 233.346 53.0163 233.515 52.9317 233.684C51.3242 233.346 49.6311 233.346 47.9391 233.515C55.3863 223.61 62.2412 211.418 61.0568 198.634C60.5492 193.554 58.9406 188.643 55.7247 184.664C52.0857 180.177 45.4845 177.722 44.3847 171.626C50.6474 174.081 55.9785 178.314 59.8713 183.733ZM44.4693 177.553C47.6853 186.442 49.9695 196.094 46.9227 205.322C44.0463 213.958 35.0751 221.831 25.681 219.63C25.1733 219.376 24.6658 219.122 24.0724 218.868C23.3956 218.614 22.6342 218.36 21.9574 218.276C18.1492 216.243 15.187 212.434 14.8486 208.116C14.341 202.951 17.3867 197.871 20.095 193.723C25.1734 186.019 31.9438 180.008 39.8139 175.351C35.9211 183.141 30.0814 189.829 26.4424 197.871C24.4966 202.274 19.0798 214.127 26.4424 216.666C33.5512 219.122 38.9679 207.439 40.8303 202.444C43.877 194.569 44.5539 185.935 44.4693 177.553ZM40.5765 196.432C39.6447 200.157 38.2911 203.713 36.3441 207.1C34.8213 209.724 27.4587 219.63 25.258 211.926C24.3274 208.709 26.2732 204.561 27.3741 201.597C28.8969 197.702 30.9285 194.062 33.2128 190.506C36.598 185.256 40.4062 180.262 42.8607 174.505C42.5223 181.87 42.4377 189.152 40.5765 196.432ZM23.9032 175.436C18.1492 175.605 12.5632 176.452 7.65408 179.754C-1.82358 186.273 -5.63284 198.211 -4.87033 209.386C-6.05588 209.047 -7.40948 208.963 -8.93344 209.132C-7.15567 199.565 -4.70111 188.304 1.47705 180.77C4.94684 176.537 9.93945 174.505 15.0178 172.811C20.2642 171.118 25.7656 169.763 31.3515 169.509C33.7204 169.424 36.0057 169.594 38.2065 169.932C38.1219 170.441 38.6295 171.034 39.2217 170.61C39.3909 170.441 39.5602 170.356 39.7294 170.187C40.237 170.272 40.8303 170.441 41.3379 170.61C36.6826 175.182 29.9968 175.266 23.9032 175.436ZM-20.1888 177.468C-12.5724 186.188 -9.52567 198.126 -11.5561 209.386C-11.5561 209.47 -11.5561 209.47 -11.5561 209.555C-12.3186 209.724 -13.0801 209.978 -13.8415 210.317C-13.2493 197.956 -18.5808 183.141 -30.2599 177.637C-35.507 175.182 -41.4312 174.335 -47.1014 174.589C-53.2794 174.843 -62.2502 178.653 -67.1588 173.743C-67.2435 173.658 -67.4128 173.574 -67.4973 173.489C-53.7873 162.313 -32.1217 163.836 -20.1888 177.468ZM-127.754 237.409C-119.968 232.584 -110.659 230.636 -101.604 231.314C-91.2786 232.075 -81.3768 236.394 -73.8447 243.59C-73.7601 243.674 -73.7601 243.674 -73.6754 243.759C-73.8447 244.521 -73.9293 245.368 -73.9293 246.215C-82.7309 239.272 -94.6638 235.038 -105.835 236.648C-111.59 237.494 -116.668 239.949 -120.984 243.759C-125.723 247.908 -130.124 252.987 -136.471 253.918C-136.895 253.664 -137.402 253.495 -137.91 253.326C-138.587 253.072 -139.01 253.495 -139.18 254.088C-137.741 247.315 -134.102 241.388 -127.754 237.409ZM-138.503 255.358C-138.164 255.527 -137.825 255.612 -137.487 255.781C-137.487 256.035 -137.318 256.205 -136.979 256.205C-136.895 256.205 -136.81 256.205 -136.725 256.205C-136.641 256.289 -136.471 256.374 -136.387 256.458C-136.556 256.882 -136.471 257.475 -135.964 257.814C-135.371 258.237 -134.779 258.575 -134.102 258.914C-133.932 259.168 -133.763 259.422 -133.679 259.76C-133.848 260.099 -133.848 260.438 -133.679 260.777C-133.425 261.2 -133.086 261.623 -132.832 262.046C-131.732 265.856 -131.901 270.344 -131.394 273.9C-130.716 279.149 -128.601 284.144 -125.469 288.377C-119.207 296.758 -109.136 301.246 -98.8107 300.229C-98.8953 300.908 -99.0647 301.5 -99.0647 302.177C-99.0647 302.262 -99.0647 302.346 -99.0647 302.431C-99.7417 302.431 -100.419 302.431 -101.011 302.431C-101.773 302.346 -102.534 302.346 -103.296 302.262C-122.846 300.653 -138.249 285.074 -139.941 265.094C-140.195 261.708 -140.11 258.322 -139.518 255.104C-139.18 255.274 -138.841 255.358 -138.503 255.358ZM-157.46 306.664C-152.043 306.579 -146.542 306.41 -141.126 306.241C-137.148 306.071 -133.086 305.987 -129.109 305.733C-134.44 306.748 -139.603 308.358 -144.427 310.305C-152.297 313.607 -161.014 319.448 -165.077 327.237C-169.393 321.226 -172.27 314.03 -173.54 306.664C-168.208 307.173 -162.791 306.748 -157.46 306.664ZM-173.794 305.056C-173.963 304.125 -174.047 303.193 -174.132 302.262C-174.809 294.727 -173.794 286.768 -170.324 279.911C-168.123 283.974 -164.061 287.445 -160.506 290.07C-156.19 293.372 -151.282 295.912 -146.204 297.86C-137.91 301.077 -128.939 302.685 -119.968 303.447C-126.993 303.7 -134.102 304.04 -141.126 304.294C-146.542 304.463 -152.043 304.633 -157.46 304.717C-162.876 304.886 -168.377 304.548 -173.794 305.056ZM-155.513 319.194C-151.705 315.977 -147.304 313.438 -142.734 311.575C-135.202 308.527 -127.501 307.173 -119.545 306.156C-119.884 306.325 -120.222 306.579 -120.561 306.748C-127.839 307.68 -134.863 314.453 -139.772 319.449C-144.85 324.613 -150.605 332.233 -150.774 339.852C-155.598 337.143 -159.914 333.672 -163.469 329.27C-163.638 329.016 -163.807 328.761 -164.061 328.507C-161.268 325.29 -158.814 321.988 -155.513 319.194ZM-144.173 296.758C-149.166 294.981 -153.905 292.526 -158.306 289.478C-162.876 286.26 -165.754 282.282 -169.477 278.302C-168.8 277.117 -168.039 275.932 -167.192 274.831C-164.061 270.767 -159.999 267.55 -155.344 265.687C-149.42 282.874 -134.525 296.504 -117.176 301.415C-116.075 301.923 -114.891 302.346 -113.706 302.685C-124.031 301.5 -134.271 300.399 -144.173 296.758ZM-131.817 290.747C-129.616 293.287 -127.162 295.489 -124.369 297.351C-137.741 290.747 -148.235 279.318 -153.821 265.094C-150.266 263.825 -146.373 263.401 -142.48 263.825C-141.972 273.561 -138.079 283.466 -131.817 290.747ZM-140.957 338.667C-141.211 340.445 -141.295 342.223 -141.295 344C-144.257 342.985 -147.05 341.8 -149.758 340.36C-149.674 340.275 -149.505 340.191 -149.42 340.021C-148.066 336.381 -147.219 332.825 -145.188 329.439C-143.326 326.222 -141.041 323.343 -138.503 320.634C-134.44 316.401 -129.955 312.421 -124.792 309.627C-133.594 316.401 -139.518 327.153 -140.957 338.667ZM-132.071 320.803C-125.131 309.966 -112.521 303.193 -99.5724 305.225C-99.3185 305.225 -99.1493 305.225 -98.8953 305.14C-98.8107 305.648 -98.7261 306.156 -98.5568 306.579C-107.951 304.548 -118.36 309.119 -123.946 316.74C-127.67 321.819 -128.939 328.253 -130.547 334.264C-131.563 337.904 -132.494 341.546 -133.509 345.102C-134.356 348.319 -134.948 351.621 -137.487 353.907C-137.91 352.467 -138.249 351.028 -138.418 349.588C-138.418 349.504 -138.418 349.504 -138.418 349.419C-140.026 339.683 -137.148 328.761 -132.071 320.803ZM60.1262 469.642C60.9722 483.357 58.6022 497.073 54.1172 510.026C50.0541 521.624 44.2155 532.631 36.8517 542.452C29.8276 551.765 21.196 559.554 12.9016 567.681C5.45444 575.048 -1.56973 582.836 -6.22507 592.234C-8.00171 583.767 -13.5031 576.74 -19.6811 570.729C-28.0595 562.687 -36.5226 555.32 -43.1237 545.669C-56.0723 526.704 -62.5888 504.015 -63.7736 481.155C-64.5353 466.424 -63.1812 451.608 -60.4731 437.13C-59.4575 437.469 -58.4419 437.808 -57.4264 438.147C-59.0344 444.835 -59.2882 452.116 -55.9876 458.296C-53.1948 463.546 -48.0323 467.271 -42.1928 467.779C-44.6472 475.06 -42.1082 483.526 -35.4224 487.675C-31.614 490.045 -24.3358 490.808 -18.3269 492.754C-32.0371 502.321 -28.9058 523.233 -14.6875 530.852C-6.81729 535.002 3.50748 535.002 11.2096 530.429C17.8954 526.45 21.196 518.576 20.2642 510.957C19.3336 503.169 13.7477 495.379 6.46967 492.077C11.548 489.537 17.3867 489.029 22.2958 486.235C29.32 482.172 32.7052 473.197 29.743 465.662C37.6989 467.948 46.5843 462.953 48.1083 454.741C49.4619 447.375 46.1613 439.162 40.0677 434.93C42.9453 434.421 45.7383 433.574 48.4467 432.474C49.8003 434.845 51.1551 437.299 52.5087 439.67C56.8245 449.237 59.5329 459.312 60.1262 469.642ZM147.634 370.247C156.182 377.697 163.544 386.502 169.299 396.323C182.417 418.843 185.295 445.258 188.257 470.657C189.526 481.918 190.372 494.025 196.296 503.93C186.902 500.459 176.916 499.442 166.929 498.935C155.251 498.342 143.656 497.834 132.146 495.548C110.65 491.231 89.7469 481.918 74.3438 466.001C64.6112 455.925 57.587 443.734 50.9012 431.628C52.0857 431.034 53.1855 430.442 54.2864 429.765C56.9102 444.327 73.1582 451.947 86.0222 444.243C89.3228 450.592 96.7711 452.793 103.626 451.608C108.365 450.762 113.528 447.629 118.69 445.343C118.605 454.063 120.806 463.461 127.745 469.303C134.6 475.145 143.825 474.721 151.442 470.488C165.999 462.36 170.315 441.279 157.197 429.596C151.273 424.346 142.387 422.315 134.939 425.108C137.393 420.706 140.694 416.812 142.641 412.07C145.179 405.889 144.418 397.169 137.986 394.036C142.387 385.909 141.54 375.326 135.277 368.384C129.692 362.118 120.637 359.832 112.682 362.034C115.389 359.24 117.759 355.938 119.537 352.467C129.439 357.547 139.086 362.796 147.634 370.247ZM198.497 240.796C220.585 248.162 236.749 265.941 253.337 281.434C262.054 289.562 271.11 297.266 281.435 303.193C271.618 310.05 261.716 316.993 251.899 323.851C241.743 330.962 231.672 338.583 220.84 344.594C201.544 355.346 179.117 360.172 157.197 358.647C144.587 357.801 132.146 354.922 120.552 350.012C120.89 349.165 121.313 348.234 121.567 347.387C127.999 353.652 137.732 356.955 146.365 353.907C153.727 351.282 159.651 345.017 161.343 337.397C168.961 340.021 177.931 336.889 181.656 329.439C184.025 324.528 184.025 319.025 184.701 313.776C184.786 313.013 184.956 312.167 185.126 311.236C190.034 316.486 196.212 320.972 203.49 321.734C211.615 322.581 219.4 317.924 223.885 311.321C228.118 305.056 229.387 296.758 226.34 289.732C223.462 283.043 216.777 277.963 209.499 277.371C204.844 277.032 200.443 278.64 196.381 280.757C191.811 283.128 187.156 286.176 183.348 289.732C182.84 289.139 182.417 288.547 181.994 287.868C178.778 282.705 179.286 276.694 177.677 271.021C175.393 262.808 166.337 258.66 159.398 263.486C154.488 250.109 137.986 245.622 126.815 254.512C126.561 252.733 126.138 251.041 125.629 249.347C147.718 238.002 174.207 232.669 198.497 240.796ZM96.1777 113.885C118.267 100.339 144.756 99.4927 169.807 96.6988C182.248 95.3442 194.689 93.397 206.621 89.3332C195.366 105.335 192.319 125.23 188.511 144.11C183.686 167.816 175.731 190.844 163.544 211.926C157.451 222.424 150.088 232.499 140.779 240.457C135.362 242.49 130.031 244.945 124.952 247.823C124.191 245.707 123.176 243.59 121.99 241.642C127.915 241.897 133.67 238.51 136.717 233.346C140.779 226.404 139.594 217.937 136.124 210.995C143.402 208.624 145.941 199.565 144.333 192.538C143.148 187.204 139.594 181.701 136.97 176.113C144.671 178.314 153.05 175.266 158.043 168.917C163.883 161.467 165.068 151.137 162.191 142.333C159.398 133.697 153.05 126.161 144.671 122.521C135.531 118.627 124.445 119.473 117.167 126.586C109.381 134.12 109.381 147.412 113.612 156.894C108.703 155.794 103.795 154.354 99.0553 153.931C91.2697 153.169 82.7216 155.625 78.8288 162.736C74.513 159.35 68.6732 158.503 63.4257 160.365C57.7562 162.398 53.8634 167.055 51.4088 172.303C50.309 171.626 49.1235 170.949 47.9391 170.356C48.1929 170.272 48.4467 170.103 48.6159 169.848C60.8876 148.683 74.8514 126.924 96.1777 113.885ZM-64.1968 93.2276C-59.8806 80.7821 -53.9565 68.9292 -47.4399 57.4996C-41.2618 46.6628 -33.9836 37.2651 -24.8435 28.7988C-17.2267 21.7718 -9.18726 14.66 -5.54825 4.83903C-1.65436 12.7974 4.35349 19.4011 10.6163 25.7509C18.3184 33.4553 26.0194 41.1597 32.959 49.5413C47.7699 67.6593 58.9407 88.8251 61.0568 112.446C62.2412 125.315 60.8876 138.438 57.4178 150.883C53.6096 156.64 50.0541 162.567 46.5843 168.578C46.3305 169.001 46.3305 169.424 46.4997 169.678C44.9769 169.001 43.3683 168.493 41.7609 168.07C45.3999 163.498 46.3305 156.979 44.6385 151.306C42.5223 144.11 36.8517 138.691 30.3352 135.39C33.0435 125.823 26.7808 116.679 18.4876 112.108C15.8638 110.668 13.0709 109.652 10.2779 108.721C12.5632 106.689 14.341 103.303 15.5254 101.017C17.4713 97.4609 18.5722 93.4816 18.403 89.4178C18.0646 81.798 14.0014 74.4324 7.65408 70.1992C-6.05588 61.2248 -25.7745 70.7072 -28.398 86.5393C-29.7521 94.7516 -27.0439 104.065 -20.7813 109.737C-25.8591 111.6 -31.6986 112.7 -35.2531 115.071C-41.4312 119.135 -44.9009 126.331 -44.5624 133.697C-58.2726 137.253 -65.0431 152.915 -57.6802 165.276C-57.6802 165.361 -57.5956 165.361 -57.5956 165.361C-58.2726 165.615 -58.8651 165.784 -59.5421 166.038C-73.9293 144.364 -72.4059 116.933 -64.1968 93.2276ZM-167.277 222.085C-176.163 212.603 -184.542 202.359 -191.904 191.606C-199.013 181.278 -202.991 169.932 -205.022 157.571C-206.969 145.973 -207.476 134.205 -209.084 122.521C-210.608 111.346 -213.147 100.255 -218.478 90.4337C-200.537 99.6621 -179.718 99.2387 -159.999 100.593C-147.812 101.44 -135.625 103.133 -124.454 108.298C-114.467 112.869 -104.989 119.05 -95.9333 125.23C-86.5393 131.58 -77.3145 139.031 -70.2902 148.004C-68.513 154.694 -65.7202 161.128 -61.9117 167.055C-63.012 167.562 -64.0276 168.07 -65.0431 168.747C-68.9361 156.725 -83.0694 151.731 -93.8176 158.334C-97.7952 149.952 -107.612 146.227 -116.329 149.952C-121.238 152.069 -125.215 155.625 -129.701 158.334C-130.463 158.757 -131.224 159.18 -131.986 159.604C-129.786 152.408 -131.647 144.449 -136.979 138.861C-143.326 132.257 -153.482 129.972 -162.114 132.851C-179.125 138.522 -190.974 165.446 -175.402 178.653C-169.054 183.987 -158.137 187.289 -149.843 184.325C-151.113 187.627 -152.636 190.844 -153.397 194.231C-154.836 200.242 -153.482 207.269 -147.727 210.063C-153.821 222.001 -147.981 236.394 -135.202 240.542C-136.556 242.151 -137.741 243.844 -138.672 245.622C-149.42 239.442 -158.814 231.229 -167.277 222.085ZM-274.08 287.953C-264.856 281.265 -256.731 273.223 -247.253 266.873C-237.52 260.438 -226.772 255.951 -215.855 251.972C-204.853 247.993 -193.512 243.336 -181.918 241.897C-167.615 240.034 -153.651 244.521 -140.11 248.755C-140.788 250.532 -141.38 252.31 -141.718 254.173C-152.382 247.145 -166.261 252.395 -170.493 263.91C-177.094 260.183 -185.219 265.179 -188.435 271.529C-190.804 276.101 -191.904 283.551 -194.359 289.562C-198.506 282.111 -208.577 277.963 -216.617 277.201C-225.418 276.355 -233.712 281.096 -238.028 288.801C-246.322 303.616 -238.028 327.322 -219.748 329.354C-209.423 330.539 -200.791 323.258 -194.274 315.977C-193.259 320.549 -192.412 325.205 -190.804 328.168C-187.08 335.027 -179.21 338.498 -171.762 337.397C-170.916 344.509 -166.6 351.028 -159.914 353.907C-153.651 356.7 -145.95 355.853 -140.534 351.705C-140.195 353.313 -139.772 355.007 -139.18 356.53C-140.788 357.293 -142.48 358.055 -144.088 358.817C-166.938 365.166 -190.466 363.897 -212.47 354.33C-222.964 349.758 -232.781 343.831 -241.922 336.974C-251.739 329.608 -260.286 320.803 -269.511 312.76C-277.042 306.241 -285.76 300.568 -295.492 298.96C-287.961 296.335 -280.681 292.695 -274.08 287.953Z" fill="#BBBBBB"/>
</g>
</svg>
