<svg width="420" height="649" viewBox="0 0 420 649" fill="none" xmlns="http://www.w3.org/2000/svg">
<g opacity="0.2">
<path d="M75.8294 244.595L72.3322 241.099L144.631 167.751L92.4395 117.133L42.7836 166.789L77.6652 200.797L73.9936 204.556L35.3525 166.789L92.3523 109.79L152.062 167.663L75.8294 244.595Z" fill="white"/>
<path d="M75.8293 246.432L70.4968 241.099L142.795 167.751L92.4399 118.969L44.7071 166.789L79.5009 200.797L73.9934 206.392L33.5166 166.877L92.4399 107.954L153.985 167.576L75.8293 246.432ZM74.1685 241.099L75.8293 242.759L150.226 167.664L92.4399 111.626L37.276 166.789L73.9934 202.633L75.8293 200.797L41.0349 166.789L92.5272 115.297L146.642 167.664L74.1685 241.099Z" fill="#BBBBBB"/>
<path d="M59.2188 228.859L54.8481 225.362L89.992 188.994L66.9999 166.002L92.4396 138.552L119.803 165.915L59.2188 228.859ZM74.1681 165.827L93.5764 185.235L112.285 165.915L92.5274 146.07L74.1681 165.827Z" fill="white"/>
<path d="M59.3066 230.608L52.8374 225.45L88.069 188.995L65.0769 166.003L92.2652 136.628L121.464 165.828L59.3066 230.608ZM56.7713 225.275L59.0444 227.111L117.793 165.915L92.2652 140.387L68.6608 165.915L91.7407 188.995L56.7713 225.275ZM93.5765 187.159L72.3329 165.915L92.4397 144.234L114.208 166.003L93.5765 187.159ZM76.0046 165.828L93.5765 183.4L110.449 166.003L92.4397 147.993L76.0046 165.828Z" fill="#BBBBBB"/>
<path d="M-2.06407 281.401L-39.8306 243.721L15.4206 187.596L95.0625 263.654L91.4781 267.5L15.5079 194.94L-32.3995 243.721L1.6081 277.729L-2.06407 281.401Z" fill="white"/>
<path d="M-2.06404 283.324L-41.5791 243.809L15.4207 185.848L96.9861 263.741L91.5659 269.424L15.5951 196.863L-30.5637 243.809L3.4434 277.816L-2.06404 283.324ZM-37.9075 243.721L-2.06404 279.565L-0.228222 277.729L-34.2358 243.721L15.5079 193.104L91.3909 265.577L93.2267 263.654L15.4207 189.345L-37.9075 243.721Z" fill="#BBBBBB"/>
<path d="M77.5779 282.188L16.382 223.002L-2.67572 242.847L16.4698 261.993L12.7976 265.665L-10.0195 242.935L16.2948 215.571L81.0751 278.691L77.5779 282.188Z" fill="white"/>
<path d="M77.5782 284.024L16.4695 224.838L-0.840178 242.847L18.3058 261.993L12.7106 267.588L-11.9429 242.935L16.2072 213.735L82.8234 278.778L77.5782 284.024ZM16.3823 221.079L77.5782 280.351L79.2395 278.691L16.3823 217.408L-8.18346 242.847L12.7979 263.829L14.6337 261.993L-4.51182 242.847L16.3823 221.079Z" fill="#BBBBBB"/>
<path d="M18.1306 382.112L-42.4536 322.402L35.4402 243.634L39.1991 247.306L-35.0226 322.402L18.0428 374.681L54.848 336.39L59.2192 340.761L18.1306 382.112Z" fill="white"/>
<path d="M18.1309 383.948L-44.2891 322.49L35.4406 241.798L41.0358 247.306L-33.1864 322.402L18.0437 372.845L54.7611 334.554L60.9681 340.761L18.1309 383.948ZM-40.6169 322.402L18.1309 380.189L57.3837 340.761L54.8484 338.225L18.1309 376.429L-36.858 322.315L37.3642 247.219L35.5278 245.383L-40.6169 322.402Z" fill="#BBBBBB"/>
<path d="M19.0053 348.716L-9.31982 322.489L53.0124 260.244L56.6845 263.915L-1.71429 322.314L18.9175 341.547L39.1121 322.401L43.4833 325.898L19.0053 348.716Z" fill="white"/>
<path d="M19.0052 350.552L-11.1558 322.489L53.0123 258.321L58.6075 263.916L0.209197 322.315L19.0052 339.712L39.1125 320.653L45.5817 325.811L19.0052 350.552ZM-7.39688 322.489L19.0052 346.968L41.4728 325.986L39.1997 324.151L19.0052 343.296L-3.55021 322.315L54.8486 263.916L53.0123 262.08L-7.39688 322.489Z" fill="#BBBBBB"/>
<path d="M23.4358 298.643L19.7822 302.407L79.2546 360.131L82.9081 356.366L23.4358 298.643Z" fill="white"/>
<path d="M79.2396 362.004L17.8687 302.469L23.3766 296.787L84.747 356.322L79.2396 362.004ZM21.6281 302.382L79.1518 358.245L80.9882 356.322L23.4639 300.458L21.6281 302.382Z" fill="#BBBBBB"/>
<path d="M38.3096 282.941L34.6284 286.677L94.0976 345.27L97.7788 341.534L38.3096 282.941Z" fill="white"/>
<path d="M94.1016 347.143L32.8179 286.733L38.3259 281.139L99.609 341.548L94.1016 347.143ZM36.4895 286.646L94.1016 343.384L95.9374 341.548L38.3259 284.81L36.4895 286.646Z" fill="#BBBBBB"/>
<path d="M130.743 261.122L74.7988 317.065L78.5082 320.774L134.452 264.83L130.743 261.122Z" fill="white"/>
<path d="M78.5396 322.664L72.9443 317.069L130.731 259.283L136.326 264.877L78.5396 322.664ZM76.7038 317.069L78.5396 318.905L132.654 264.79L130.818 262.954L76.7038 317.069Z" fill="#BBBBBB"/>
<path d="M171.033 267.5L110.799 209.627L115.17 205.255L174.617 263.654L171.033 267.5Z" fill="white"/>
<path d="M171.033 269.337L108.875 209.626L115.082 203.419L176.453 263.654L171.033 269.337ZM112.634 209.626L170.945 265.664L172.781 263.741L115.082 207.092L112.634 209.626Z" fill="#BBBBBB"/>
<path d="M97.6852 460.704L38.8496 403.792L117.617 322.314L121.377 325.986L46.2807 403.617L97.6852 453.36L150.751 401.082L114.295 365.238L117.792 361.742L158.269 401.082L97.6852 460.704Z" fill="white"/>
<path d="M97.6851 462.54L37.0137 403.793L117.617 320.479L123.3 325.986L48.2041 403.618L97.6851 451.525L148.915 401.082L112.459 365.239L117.792 359.906L160.105 401.082L97.6851 462.54ZM40.7731 403.793L97.6851 458.956L156.346 401.17L117.792 363.665L116.132 365.327L152.587 401.17L97.5978 455.284L44.3575 403.793L119.453 326.161L117.53 324.325L40.7731 403.793Z" fill="#BBBBBB"/>
<path d="M99.4337 428.358L71.1958 401.082L97.7723 374.68L133.354 338.05L137.113 341.721L102.756 377.128L127.671 400.208L99.4337 428.358ZM78.7146 401.082L99.4337 421.014L120.153 400.295L99.0842 380.8L78.7146 401.082Z" fill="white"/>
<path d="M99.4339 430.194L69.2729 401.082L96.8113 373.718L133.266 336.127L138.949 341.634L104.592 376.953L129.507 400.033L99.4339 430.194ZM73.0324 401.082L99.4339 426.522L125.748 400.208L100.832 377.216L135.19 341.809L133.266 339.974L98.6471 375.642L73.0324 401.082ZM99.4339 422.85L76.879 401.082L99.0844 379.051L121.989 400.295L99.4339 422.85ZM80.5506 401.082L99.3466 419.178L118.23 400.295L99.0844 382.636L80.5506 401.082Z" fill="#BBBBBB"/>
<path d="M178.115 380.362L97.5981 302.469L101.27 298.71L178.027 372.932L226.897 322.489L192.015 287.52L195.687 283.848L234.24 322.401L178.115 380.362Z" fill="white"/>
<path d="M178.202 382.2L95.7622 302.47L101.27 296.787L178.027 371.009L225.06 322.402L190.178 287.521L195.774 281.925L236.163 322.315L178.202 382.2ZM99.4338 302.382L178.114 378.44L232.403 322.402L195.686 285.685L193.85 287.521L228.732 322.402L178.114 374.768L101.357 300.546L99.4338 302.382Z" fill="#BBBBBB"/>
<path d="M176.365 350.639L112.459 288.481L116.131 284.722L176.278 343.208L195.423 323.363L175.491 303.168L178.988 299.671L202.767 323.275L176.365 350.639Z" fill="white"/>
<path d="M176.453 352.475L110.624 288.481L116.132 282.799L176.278 341.285L193.588 323.276L173.656 303.081L178.989 297.748L204.603 323.188L176.453 352.475ZM114.296 288.394L176.366 348.715L200.932 323.276L178.989 301.508L177.327 303.168L197.26 323.276L176.366 344.957L116.219 286.47L114.296 288.394Z" fill="#BBBBBB"/>
<path d="M155.385 322.402L151.887 318.905L225.06 245.469L173.655 194.94L138.774 228.16L135.189 224.313L173.743 187.596L232.491 245.469L155.385 322.402Z" fill="white"/>
<path d="M155.384 324.238L150.051 318.905L223.224 245.47L173.656 196.775L138.774 229.996L133.354 224.314L173.743 185.848L234.327 245.47L155.384 324.238ZM153.723 318.905L155.384 320.566L230.655 245.47L173.743 189.432L137.026 224.401L138.862 226.325L173.743 193.104L226.983 245.47L153.723 318.905Z" fill="#BBBBBB"/>
<path d="M139.648 306.665L135.277 303.169L194.462 245.469L174.53 225.537L155.384 243.896L151.8 240.137L174.617 218.194L201.893 245.469L139.648 306.665Z" fill="white"/>
<path d="M139.736 308.414L133.267 303.256L192.627 245.382L174.53 227.373L155.384 245.732L149.964 240.049L174.705 216.358L203.817 245.469L139.736 308.414ZM137.2 303.081L139.474 304.917L199.97 245.469L174.53 220.03L153.548 240.137L155.384 242.06L174.53 223.788L196.298 245.557L137.2 303.081Z" fill="#BBBBBB"/>
<path d="M154.51 283.935L95.0625 225.362L98.5591 221.865L158.007 280.438L154.51 283.935Z" fill="white"/>
<path d="M154.51 285.771L93.2271 225.362L98.56 220.03L159.843 280.438L154.51 285.771ZM96.8987 225.362L154.51 282.1L156.172 280.438L98.56 223.701L96.8987 225.362Z" fill="#BBBBBB"/>
<path d="M77.5782 321.527L74.0815 318.03L130.818 261.118L134.491 264.877L77.5782 321.527Z" fill="white"/>
<path d="M77.5781 323.363L72.2451 318.031L130.818 259.195L136.326 264.79L77.5781 323.363ZM75.9173 318.031L77.5781 319.692L132.655 264.79L130.818 262.954L75.9173 318.031Z" fill="#BBBBBB"/>
<path d="M114.133 245.385L58.1895 301.329L61.8983 305.038L117.842 249.094L114.133 245.385Z" fill="white"/>
<path d="M61.9297 306.928L56.3345 301.333L114.121 243.546L119.716 249.142L61.9297 306.928ZM60.0939 301.333L61.9297 303.169L116.045 249.054L114.208 247.219L60.0939 301.333Z" fill="#BBBBBB"/>
<path d="M94.1482 182.81L88.0386 188.563L89.8366 190.473L95.9463 184.719L94.1482 182.81Z" fill="#BBBBBB"/>
<path d="M-34.3229 238.039H-57.9268C-63.2597 238.039 -68.0682 233.93 -71.8271 230.695C-73.4006 229.384 -74.887 228.073 -76.111 227.373C-77.4223 226.587 -78.2091 225.538 -78.5586 224.226C-79.1709 221.341 -76.985 218.194 -75.4115 215.921C-75.2365 215.571 -74.9742 215.309 -74.7997 215.047C-73.1384 212.599 -68.68 212.075 -64.0465 211.55C-62.648 211.375 -61.2489 211.2 -59.9376 211.025C-57.49 210.588 -57.49 210.064 -58.0145 206.829C-58.189 205.605 -58.4513 204.206 -58.4513 202.633C-58.4513 200.01 -59.5003 199.573 -62.7352 198.524C-64.1338 198.087 -65.6201 197.562 -67.2809 196.776C-72.6139 194.153 -72.5266 190.394 -72.4388 185.585C-72.4388 184.886 -72.4388 184.099 -72.4388 183.312C-72.4388 177.367 -69.2045 176.756 -66.9314 176.318C-66.4069 176.231 -65.8823 176.144 -65.4451 175.969C-64.8333 175.794 -63.8715 175.444 -62.8225 175.182C-59.8504 174.308 -55.3042 172.996 -53.4683 171.773C-52.4193 171.073 -52.5065 168.451 -52.5065 165.653C-52.5065 163.555 -52.5943 161.107 -52.2443 158.746C-51.4575 153.326 -48.3976 153.763 -45.9501 154.113C-44.8132 154.288 -43.677 154.463 -42.4529 154.201C-37.7322 153.239 -34.4979 159.009 -33.0988 164.779C-32.487 167.401 -23.6574 170.636 -20.6848 169.937C-18.4117 169.325 -18.1494 167.314 -18.1494 161.631C-18.1494 156.823 -16.4009 154.201 -15.7891 153.501C-15.0896 151.84 -13.8661 150.616 -12.2925 150.092C-9.14484 148.868 -5.4732 150.354 -3.55013 151.315C5.62949 155.949 11.312 164.079 13.0605 174.745C14.3718 182.7 12.9728 189.257 12.8855 189.52L10.3502 188.995C10.3502 188.907 11.7492 182.613 10.5252 175.182C8.95161 165.303 3.79367 158.047 -4.68642 153.763C-7.22177 152.452 -9.66936 152.015 -11.2429 152.627C-12.2047 152.977 -12.9043 153.676 -13.3415 154.812L-13.4288 155.075L-13.6038 155.25C-13.691 155.337 -15.4396 157.173 -15.4396 161.719C-15.4396 167.139 -15.4396 171.51 -19.898 172.647C-24.0069 173.696 -34.4101 170.024 -35.4591 165.566C-36.2459 162.331 -38.694 156.299 -41.8411 156.911C-43.5019 157.261 -44.9883 156.998 -46.2123 156.911C-48.6599 156.561 -49.0972 156.473 -49.5345 159.359C-49.884 161.544 -49.7967 163.904 -49.7967 165.915C-49.7089 169.587 -49.6217 172.822 -51.8948 174.308C-54.0801 175.707 -58.6263 177.105 -61.9484 178.067C-62.9975 178.329 -63.8715 178.591 -64.4838 178.854C-65.0956 179.029 -65.7073 179.204 -66.3196 179.291C-68.4177 179.728 -69.729 179.903 -69.729 183.749C-69.729 184.536 -69.729 185.323 -69.729 186.022C-69.8162 190.743 -69.904 192.841 -66.0574 194.765C-64.571 195.464 -63.0847 195.989 -61.8607 196.338C-58.7136 197.3 -55.7414 198.261 -55.7414 202.895C-55.7414 204.294 -55.5664 205.518 -55.3914 206.654C-54.9547 209.626 -54.4301 212.949 -59.5003 213.823C-60.8116 214.085 -62.2979 214.173 -63.697 214.348C-67.1936 214.784 -71.6521 215.222 -72.6139 216.708C-72.7889 216.97 -73.0511 217.32 -73.2256 217.582C-74.4497 219.331 -76.3733 222.041 -75.936 223.877C-75.8488 224.226 -75.6737 224.838 -74.7119 225.363C-73.3134 226.237 -71.7398 227.548 -70.0785 228.947C-66.4069 232.094 -62.2979 235.678 -57.8395 235.678H-34.2356V238.039H-34.3229Z" fill="#BBBBBB"/>
<path d="M5.27958 196.688C5.27958 196.513 4.4928 179.64 -3.63725 173.084C-11.4178 166.877 -14.1282 166.352 -14.2154 166.352H-16.9258V163.729H-14.2154C-13.6909 163.729 -10.7188 164.079 -2.06368 170.986C7.02817 178.242 7.81494 195.814 7.90218 196.513L5.27958 196.688Z" fill="#BBBBBB"/>
<path d="M-25.4062 228.423C-30.6514 228.423 -47.2616 227.723 -50.4964 218.806C-53.3813 210.763 -51.895 203.682 -46.5626 199.835C-44.0272 197.999 -42.4536 197.213 -41.3168 196.601C-39.8305 195.814 -39.1315 195.464 -37.2079 193.104C-36.1589 191.705 -35.0226 189.782 -33.7985 187.684C-31.1759 183.05 -28.1161 177.892 -23.7449 175.357C-20.1605 173.346 -15.2648 173.171 -10.9814 175.095C-6.26018 177.193 -2.93859 181.302 -1.71454 186.722C0.0340385 194.415 1.25811 203.07 1.25811 203.157L-1.36503 203.507C-1.36503 203.42 -2.5013 194.852 -4.24988 187.334C-5.29892 182.701 -8.09653 179.203 -12.0304 177.543C-15.5271 176.056 -19.636 176.056 -22.4336 177.718C-26.193 179.903 -29.0779 184.799 -31.5254 189.083C-32.7495 191.268 -33.9735 193.366 -35.1976 194.852C-37.3829 197.562 -38.3447 198.087 -40.1806 199.048C-41.3168 199.661 -42.7159 200.36 -45.0762 202.108C-51.3705 206.655 -49.2724 214.785 -48.1361 218.107C-45.513 225.276 -29.8646 226.237 -24.0949 225.975L-24.0071 228.598C-23.9199 228.423 -24.5317 228.423 -25.4062 228.423Z" fill="#BBBBBB"/>
<path d="M15.0715 187.945C15.0715 187.683 14.197 181.651 14.197 177.28C14.197 174.132 10.088 169.324 8.42725 167.751L10.2631 165.915C10.9626 166.614 16.7323 172.559 16.7323 177.367C16.7323 181.563 17.6063 187.596 17.6063 187.683L15.0715 187.945Z" fill="#BBBBBB"/>
<path d="M263.875 217.756C263.439 217.494 253.822 212.161 252.861 205.43C251.899 198.698 254.871 196.513 255.221 196.25L256.707 198.436L256.008 197.387L256.794 198.436C256.794 198.436 254.871 200.009 255.57 205.08C256.183 209.539 262.826 214.085 265.275 215.483L263.875 217.756Z" fill="#BBBBBB"/>
<path d="M210.199 223.527C209.587 223.527 209.062 223.527 208.887 223.527L209.062 220.904C211.335 220.992 218.066 220.73 219.378 217.932C221.301 213.736 222.088 211.725 220.077 207.791C217.804 203.42 212.209 196.251 212.122 196.164L214.22 194.59C214.482 194.852 219.99 202.109 222.437 206.654C225.06 211.637 223.924 214.697 221.826 219.156C219.902 223.09 213.171 223.527 210.199 223.527Z" fill="#BBBBBB"/>
<path d="M198.134 213.212C197.872 212.862 192.015 205.169 197.26 199.924C201.194 195.989 208.537 200.011 212.908 202.371C213.87 202.896 215.094 203.595 215.444 203.595C215.881 203.682 217.542 203.245 219.115 202.808L219.902 205.344C218.853 205.693 216.23 206.393 215.006 206.218C214.307 206.131 213.433 205.606 211.685 204.644C208.187 202.721 201.718 199.137 199.183 201.759C195.598 205.344 200.232 211.463 200.32 211.55L198.134 213.212Z" fill="#BBBBBB"/>
<path d="M248.752 238.913H225.148V236.291H248.752C255.746 236.291 260.466 234.105 262.739 229.646C265.45 224.576 264.051 218.369 263.351 217.319C262.39 215.834 258.019 215.309 254.434 214.959C253.036 214.785 251.549 214.61 250.238 214.435C244.031 213.386 244.031 209.801 244.031 204.818V204.469C244.031 199.835 248.14 198.524 252.161 197.212C253.735 196.688 255.396 196.163 256.882 195.464C260.728 193.541 260.728 193.278 260.641 188.995C260.641 188.383 260.641 187.684 260.641 186.984C260.641 182.001 258.106 180.427 255.308 179.466C254.434 179.203 252.861 179.116 251.287 179.028C248.489 178.941 245.692 178.766 243.769 177.542C242.458 176.668 242.37 174.57 242.195 171.423C241.845 163.904 240.971 157.61 233.016 157.61C225.847 157.61 224.099 162.068 223.05 166.265C222.525 168.275 220.689 170.286 218.066 171.772C215.531 173.259 212.734 173.783 210.81 173.346C206.352 172.21 206.352 167.926 206.352 162.418C206.352 158.047 204.516 156.561 204.428 156.474L204.166 156.211L203.991 155.861C203.729 155.075 202.942 154.55 201.806 154.288C198.483 153.414 193.326 154.725 191.227 156.386C178.813 166.352 180.3 192.579 180.387 192.842L177.764 193.016C177.677 191.88 176.104 165.128 189.654 154.288C192.364 152.102 198.396 150.529 202.592 151.665C204.428 152.19 205.74 153.151 206.439 154.463C207.226 155.162 209.149 157.435 209.149 162.243C209.149 167.926 209.324 170.024 211.685 170.548C212.996 170.898 215.094 170.373 217.017 169.237C218.941 168.101 220.427 166.614 220.689 165.39C221.476 162.243 223.311 154.812 233.191 154.812C244.381 154.812 244.818 165.041 244.992 171.073C245.08 172.559 245.167 174.657 245.43 175.182C246.741 175.969 249.276 176.056 251.549 176.144C253.385 176.231 255.046 176.319 256.357 176.668C259.417 177.717 263.526 179.815 263.526 186.634C263.526 187.334 263.526 188.033 263.526 188.645C263.613 193.453 263.439 194.94 258.281 197.474C256.62 198.262 254.871 198.874 253.21 199.398C249.189 200.709 246.916 201.583 246.916 204.206V204.556C246.916 209.627 246.916 210.938 250.937 211.637C252.249 211.812 253.647 211.987 255.046 212.162C259.767 212.686 264.138 213.211 265.799 215.659C266.935 217.407 268.509 224.663 265.275 230.695C263.177 234.542 258.718 238.913 248.752 238.913Z" fill="#BBBBBB"/>
<path d="M185.545 197.562L182.922 197.475C182.922 196.775 183.709 179.203 192.888 171.947C201.543 165.041 204.515 164.691 205.04 164.691H207.75V167.314H205.04C205.04 167.314 202.417 167.664 194.462 174.046C186.332 180.515 185.545 197.387 185.545 197.562Z" fill="#BBBBBB"/>
<path d="M221.826 164.603H216.406C210.723 164.603 206.964 161.369 206.876 161.194L208.625 159.271C208.625 159.271 211.772 161.981 216.406 161.981H221.826V164.603Z" fill="#BBBBBB"/>
<path d="M257.756 180.165C257.407 179.99 249.714 175.706 246.129 172.035C242.458 168.362 241.583 165.478 241.583 165.303L244.118 164.604C244.118 164.604 244.818 166.964 248.052 170.111C251.374 173.433 259.068 177.717 259.155 177.717L257.756 180.165Z" fill="#BBBBBB"/>
<path d="M248.926 199.66C248.926 199.572 247.528 194.589 244.293 191.355C242.282 189.344 239.31 188.295 236.6 187.333C234.851 186.721 233.365 186.197 232.229 185.41C230.218 184.098 230.131 181.389 229.956 178.766C229.868 177.105 229.781 175.444 229.256 174.569C228.295 173.084 222.612 171.422 218.853 170.723L219.29 168.1C220.951 168.45 229.431 170.111 231.354 172.996C232.316 174.482 232.404 176.493 232.491 178.504C232.578 180.34 232.666 182.525 233.54 183.049C234.414 183.574 235.813 184.098 237.387 184.711C240.184 185.672 243.594 186.983 246.041 189.344C249.714 193.016 251.287 198.611 251.287 198.786L248.926 199.66Z" fill="#BBBBBB"/>
<path d="M215.094 229.296L214.482 226.761C223.661 224.488 238.873 219.505 240.621 216.095C243.593 210.15 239.659 205.604 235.813 202.894C233.277 201.059 230.917 200.097 228.645 199.048C225.76 197.824 222.962 196.6 220.776 193.89C219.64 192.404 218.591 190.743 217.629 189.169C215.618 185.847 213.607 182.438 209.761 180.252C206.701 178.503 203.467 178.154 200.931 179.29C198.046 180.514 196.036 183.574 194.986 188.207C193.238 195.813 192.102 204.293 192.102 204.381L189.479 204.031C189.479 203.944 190.616 195.288 192.452 187.596C194.025 180.776 197.347 177.979 199.97 176.842C203.292 175.356 207.4 175.793 211.16 177.979C215.618 180.514 217.979 184.448 219.989 187.858C220.951 189.431 221.825 191.005 222.874 192.316C224.623 194.502 226.896 195.463 229.694 196.687C231.966 197.649 234.502 198.786 237.299 200.796C243.943 205.517 245.954 211.375 242.982 217.319C242.544 218.281 241.059 221.078 227.77 225.624C221.301 227.722 215.182 229.296 215.094 229.296Z" fill="#BBBBBB"/>
<path d="M233.365 245.907L232.666 243.371C235.201 242.76 244.205 240.136 246.916 239L246.829 238.126C247.965 238.038 249.538 237.864 249.801 239.35C249.976 240.661 249.713 241.098 241.496 243.634C237.824 244.683 233.89 245.732 233.365 245.907Z" fill="#BBBBBB"/>
<path d="M175.754 188.995L173.219 188.295C173.219 188.295 174.181 184.886 174.181 180.777C174.181 176.143 181.436 166.265 182.311 165.128L184.409 166.701C181.436 170.636 176.803 177.892 176.803 180.777C176.803 185.322 175.754 188.907 175.754 188.995Z" fill="#BBBBBB"/>
<path d="M223.137 232.007C220.864 232.007 219.29 231.919 219.115 231.919L219.29 229.296C219.465 229.296 233.016 230.083 239.572 226.849C246.041 223.614 250.238 211.986 250.325 211.812L252.773 212.686C252.598 213.211 248.139 225.45 240.796 229.122C235.813 231.657 227.858 232.007 223.137 232.007Z" fill="#BBBBBB"/>
<path d="M18.8304 257.621C18.6554 257.359 14.0219 251.414 11.7488 247.655C11.3116 247.043 11.0493 246.431 10.787 245.994C8.0772 240.574 7.20264 232.793 7.20264 232.444L9.82576 232.182C9.82576 232.269 10.6998 239.875 13.2352 244.858C13.4096 245.207 13.6724 245.732 14.0219 246.256C16.295 249.841 20.9285 255.961 20.9285 255.961L18.8304 257.621Z" fill="#BBBBBB"/>
<path d="M14.2025 227.939L11.5825 228.064L12.4555 246.402L15.0754 246.278L14.2025 227.939Z" fill="#BBBBBB"/>
<path d="M5.41875 236.507L2.82275 236.878L4.56547 249.079L7.16201 248.709L5.41875 236.507Z" fill="#BBBBBB"/>
<path d="M-1.22571 239.888L-1.52734 244.512L1.08994 244.682L1.39155 240.058L-1.22571 239.888Z" fill="#BBBBBB"/>
<path d="M183.534 255.786L181.349 254.3C183.009 251.764 188.168 241.449 188.255 241.361L190.615 242.498C190.44 243.022 185.283 253.163 183.534 255.786Z" fill="#BBBBBB"/>
<path d="M172.957 261.206L170.946 259.545C170.946 259.545 174.355 255.261 176.016 251.94C177.677 248.53 182.922 234.892 182.922 234.805L185.371 235.766C185.196 236.291 180.125 249.667 178.289 253.163C176.628 256.661 173.131 260.944 172.957 261.206Z" fill="#BBBBBB"/>
<path d="M179.426 229.122H176.803V249.054H179.426V229.122Z" fill="#BBBBBB"/>
<path d="M137.9 288.744H118.929V286.121H137.9C143.494 286.121 149.265 281.226 149.265 281.226L151.013 283.236C150.663 283.411 144.369 288.744 137.9 288.744Z" fill="#BBBBBB"/>
<path d="M143.67 294.951C143.67 294.951 140.523 297.049 137.026 297.049C133.529 297.049 128.896 297.049 128.896 297.049" fill="white"/>
<path d="M137.026 298.36H128.896V295.738H137.026C140.085 295.738 142.971 293.901 142.971 293.901L144.369 296.087C144.194 296.174 140.873 298.36 137.026 298.36Z" fill="#BBBBBB"/>
<path d="M104.679 309.289C104.679 309.289 101.182 311.037 97.6852 311.037C94.1886 311.037 89.2051 310.163 89.2051 310.163" fill="white"/>
<path d="M97.6852 312.348C94.1008 312.348 89.1179 311.474 88.9429 311.474L89.3802 308.851C89.4674 308.851 94.3631 309.725 97.6852 309.725C100.832 309.725 104.067 308.152 104.067 308.064L105.291 310.425C105.116 310.513 101.445 312.348 97.6852 312.348Z" fill="#BBBBBB"/>
<path d="M81.687 317.681C81.687 317.681 89.8171 319.779 95.0628 318.905C100.308 318.031 112.46 316.807 112.46 316.807" fill="white"/>
<path d="M92.1773 320.478C87.1944 320.478 81.5992 318.992 81.3369 318.992L82.0365 316.457C82.1242 316.457 89.992 318.555 94.8877 317.681C100.133 316.807 111.848 315.583 112.372 315.583L112.635 318.205C112.547 318.205 100.483 319.429 95.325 320.304C94.2759 320.391 93.2264 320.478 92.1773 320.478Z" fill="#BBBBBB"/>
<path d="M159.231 326.598C159.231 326.598 166.749 318.905 171.12 317.156C175.492 315.408 182.485 312.786 182.485 312.786" fill="white"/>
<path d="M160.193 327.559L158.269 325.724C158.619 325.374 165.962 317.769 170.596 315.932C174.967 314.184 181.961 311.561 181.961 311.561L182.923 314.009C182.835 314.009 175.929 316.632 171.558 318.38C167.536 320.041 160.28 327.472 160.193 327.559Z" fill="#BBBBBB"/>
<path d="M204.953 273.008C204.953 273.008 206.089 275.194 206.089 281.313C206.089 287.433 205.215 290.93 205.215 290.93" fill="white"/>
<path d="M206.439 291.279L203.904 290.667C203.904 290.667 204.778 287.258 204.778 281.401C204.778 275.806 203.816 273.62 203.816 273.62L206.177 272.483C206.264 272.746 207.489 275.193 207.489 281.401C207.401 287.52 206.527 291.104 206.439 291.279Z" fill="#BBBBBB"/>
<path d="M213.346 264.615C213.346 264.615 217.455 269.161 216.58 279.652C215.706 290.143 215.706 290.055 214.832 293.639C214.395 295.301 211.51 299.759 211.51 299.759" fill="white"/>
<path d="M212.646 300.371L210.461 298.973C211.51 297.311 213.346 294.339 213.608 293.203C214.482 289.793 214.482 289.793 215.269 280.526L215.357 279.39C216.143 269.686 212.559 265.402 212.472 265.402L214.395 263.654C214.57 263.829 218.853 268.725 217.892 279.652L217.804 280.701C217.017 290.055 217.017 290.23 216.143 293.815C215.619 295.738 212.909 299.934 212.646 300.371Z" fill="#BBBBBB"/>
<path d="M192.889 320.741C192.889 320.741 185.807 321.965 180.737 324.151C174.617 326.773 169.022 336.127 169.022 336.127" fill="white"/>
<path d="M170.159 336.826L167.886 335.515C168.148 335.078 173.743 325.811 180.212 323.014C185.37 320.828 192.364 319.604 192.626 319.517L193.063 322.139C192.976 322.139 186.069 323.363 181.174 325.461C175.579 327.822 170.159 336.652 170.159 336.826Z" fill="#BBBBBB"/>
<path d="M126.534 370.222C126.534 370.222 128.283 362.617 130.031 358.245C131.78 353.874 139.385 342.771 139.385 342.771" fill="white"/>
<path d="M127.758 370.572L125.224 369.96C125.311 369.61 126.972 362.179 128.808 357.808C130.556 353.349 137.987 342.509 138.249 342.072L140.435 343.558C140.347 343.645 132.916 354.574 131.256 358.77C129.507 362.966 127.846 370.484 127.758 370.572Z" fill="#BBBBBB"/>
<path d="M134.491 378.003C134.491 378.003 137.026 370.484 139.649 362.616C142.271 354.748 146.642 350.377 146.642 350.377" fill="white"/>
<path d="M135.714 378.44L133.267 377.565C133.267 377.565 135.802 370.047 138.425 362.179C141.134 354.136 145.506 349.59 145.768 349.415L147.604 351.251C147.604 351.251 143.407 355.535 140.959 362.966C138.25 370.921 135.714 378.44 135.714 378.44Z" fill="#BBBBBB"/>
<path d="M144.807 388.056C144.807 388.056 144.894 380.1 147.516 373.107C150.139 366.113 154.51 359.993 154.51 359.993" fill="white"/>
<path d="M146.118 388.056H143.495C143.495 387.707 143.582 379.839 146.292 372.67C148.915 365.589 153.286 359.469 153.461 359.294L155.559 360.78C155.559 360.868 151.276 366.813 148.74 373.632C146.205 380.276 146.118 387.969 146.118 388.056Z" fill="#BBBBBB"/>
<path d="M68.7483 372.844C68.7483 372.844 66.9997 362.616 64.3771 355.622C61.7545 348.628 57.1211 342.771 57.1211 342.771" fill="white"/>
<path d="M67.5241 373.107C67.5241 373.019 65.7761 362.966 63.2407 356.147C60.7054 349.415 56.247 343.733 56.1592 343.646L58.2573 341.984C58.4323 342.247 63.0657 348.104 65.6883 355.185C68.3109 362.179 70.0595 372.233 70.0595 372.67L67.5241 373.107Z" fill="#BBBBBB"/>
<path d="M59.8314 382.112C59.8314 382.112 60.8804 367.949 58.2578 361.829C55.6347 355.71 51.1763 348.804 51.1763 348.804" fill="white"/>
<path d="M61.1429 382.199L58.5203 382.024C58.5203 381.849 59.5693 368.037 57.1212 362.354C54.5859 356.409 50.2152 349.59 50.1274 349.503L52.3133 348.104C52.4878 348.366 56.859 355.186 59.4816 361.305C62.2792 367.6 61.2301 381.587 61.1429 382.199Z" fill="#BBBBBB"/>
<path d="M49.6031 391.465C49.6031 391.465 53.1002 380.975 48.729 370.484C44.3579 359.993 42.2598 357.808 42.2598 357.808" fill="white"/>
<path d="M50.827 391.902L48.3789 391.116C48.3789 391.028 51.701 380.975 47.5048 371.008C43.3959 361.042 41.2979 358.769 41.2979 358.682L43.2209 356.846C43.4832 357.108 45.5813 359.469 49.9524 369.959C54.4114 380.8 51.0015 391.466 50.827 391.902Z" fill="#BBBBBB"/>
<path d="M26.0862 334.816C26.0862 334.816 24.2504 330.357 17.2566 326.86C10.2629 323.364 1.52051 319.167 1.52051 319.167" fill="white"/>
<path d="M24.8621 335.253C24.8621 335.253 23.0263 331.144 16.6448 327.909C9.73828 324.5 0.995934 320.304 0.908691 320.304L2.04497 317.943C2.13222 317.943 10.8746 322.14 17.7811 325.636C25.1244 329.308 27.1352 334.116 27.223 334.291L24.8621 335.253L26.0862 334.729L24.8621 335.253Z" fill="#BBBBBB"/>
<path d="M32.992 326.773C32.992 326.773 29.4954 321.528 22.5017 317.156C15.5079 312.785 10.5244 310.163 10.5244 310.163" fill="white"/>
<path d="M31.8562 327.559C31.8562 327.472 28.4468 322.489 21.8025 318.293C14.896 314.009 9.91309 311.387 9.91309 311.299L11.1371 308.938C11.2244 308.938 16.2951 311.649 23.2011 316.019C30.3699 320.478 33.9543 325.811 34.1293 325.986L31.8562 327.559Z" fill="#BBBBBB"/>
<path d="M64.5521 294.951C64.5521 294.951 57.4706 296.175 54.848 295.301C52.2254 294.426 47.6792 292.153 47.6792 292.153" fill="white"/>
<path d="M57.7328 296.962C56.4215 296.962 55.2852 296.875 54.4107 296.612C51.7008 295.738 47.2419 293.552 47.0674 293.377L48.2037 291.017C48.2909 291.017 52.6621 293.203 55.1974 294.077C56.8588 294.601 61.6667 294.164 64.2898 293.727L64.7266 296.35C64.202 296.35 60.7054 296.962 57.7328 296.962Z" fill="#BBBBBB"/>
<path d="M72.0702 287.433C72.0702 287.433 65.2514 288.307 59.1317 286.558C53.0125 284.81 41.3853 279.127 41.3853 279.127" fill="white"/>
<path d="M67.9616 289.007C65.4262 289.007 62.1041 288.744 58.8697 287.87C52.75 286.122 41.385 280.614 40.9478 280.352L42.0846 277.991C42.1718 278.078 53.624 283.674 59.5687 285.334C65.339 286.996 71.8955 286.209 71.9827 286.209L72.3328 288.832C72.1577 288.744 70.4092 289.007 67.9616 289.007Z" fill="#BBBBBB"/>
<path d="M-17.7128 445.319C-18.8491 445.319 -20.0732 445.319 -21.2967 445.232C-24.6188 445.144 -29.7768 440.161 -31.2631 435.79C-32.1371 433.254 -31.6126 431.156 -29.9518 429.845C-25.6679 426.348 -22.2585 423.638 -18.7619 423.463C-17.0133 423.376 -12.9044 424.949 -12.0304 425.299L-12.9916 427.747C-15.0025 426.873 -17.7128 425.998 -18.4996 426.086C-21.2094 426.261 -24.2693 428.796 -28.291 431.943C-28.5533 432.205 -29.5145 432.905 -28.7278 435.003C-27.5042 438.762 -22.958 442.609 -21.2095 442.696C4.49253 443.57 20.5787 434.478 29.5833 426.698C39.3747 418.218 43.0463 409.475 43.1336 409.388L45.5817 410.437C45.4067 410.787 41.6472 419.791 31.4191 428.621C22.5018 436.314 6.85342 445.319 -17.7128 445.319Z" fill="#BBBBBB"/>
<path d="M4.40513 441.821L1.87029 441.296C2.04478 440.51 5.10465 422.938 -11.855 418.917C-13.5163 418.567 -21.2096 417.168 -21.2969 417.168L-20.8596 414.545C-20.5101 414.633 -12.904 415.944 -11.2432 416.294C8.07729 421.015 4.40513 441.646 4.40513 441.821Z" fill="#BBBBBB"/>
<path d="M14.1968 435.439C14.1968 435.352 12.5354 427.309 7.90201 424.949C3.00685 422.501 -3.20015 422.851 -3.28792 422.851L-3.4624 420.228C-3.20014 420.228 3.53136 419.791 9.03882 422.588C14.8085 425.474 16.6444 434.478 16.7321 434.828L14.1968 435.439Z" fill="#BBBBBB"/>
<path d="M-14.1284 460.443C-28.6404 460.443 -39.5686 455.547 -43.4153 447.067C-47.6987 437.713 -47.5242 428.708 -42.978 425.386C-39.2186 422.589 -31.0886 418.043 -24.5315 419.005C-18.5868 419.879 -15.1774 419.879 -15.0902 419.879V422.501C-15.2652 422.501 -18.7618 422.501 -24.8816 421.627C-30.6513 420.753 -38.1696 425.124 -41.4045 427.484C-44.2893 429.67 -45.1633 436.926 -40.9672 446.018C-37.0333 454.672 -23.8325 459.131 -7.30962 457.47C10.1751 455.721 19.0925 450.127 32.2932 441.122C48.2038 430.194 50.0402 415.945 50.1274 415.857L52.75 416.12C52.6628 416.731 50.7392 431.681 33.8668 443.308C20.316 452.574 10.7868 458.345 -6.95959 460.18C-9.49495 460.355 -11.8553 460.443 -14.1284 460.443Z" fill="#BBBBBB"/>
<path d="M-25.8426 477.753C-28.7274 477.753 -31.1756 477.49 -33.8854 476.704C-35.8962 476.091 -37.1203 475.829 -37.9943 475.654C-40.0052 475.217 -40.2674 475.042 -41.4915 473.731C-41.5787 473.644 -41.666 473.556 -41.841 473.381C-43.3273 472.07 -47.873 468.048 -46.2122 460.268C-46.1249 459.743 -45.9499 459.132 -45.8626 458.519C-45.4254 456.246 -44.9008 453.361 -43.4145 451.088C-42.89 450.389 -42.9773 449.253 -43.5018 448.291C-44.2013 446.98 -45.4254 446.193 -46.6494 446.193C-49.1843 446.193 -50.6706 449.69 -50.6706 449.777L-50.7578 449.952L-50.8456 450.127C-51.4573 450.914 -54.8667 455.023 -58.0144 455.023C-60.1124 455.023 -64.3959 454.236 -67.1935 451.088C-69.2916 448.816 -70.1661 445.843 -69.8161 442.259C-68.942 432.905 -67.2807 426.086 -61.511 421.277L-60.637 420.491C-56.5281 416.993 -51.8074 413.06 -42.4527 412.186C-35.459 411.573 -33.2737 411.836 -32.3991 412.098C-30.5633 411.923 -24.094 411.836 -17.887 416.819C-13.5159 420.316 -11.4178 422.414 -9.58196 427.922C-6.6971 436.576 -14.9149 443.045 -15.2644 443.396L-16.838 441.297C-16.7507 441.21 -9.75697 435.615 -12.0295 428.796C-13.6036 424.162 -15.0894 422.414 -19.4606 418.917C-25.7554 413.846 -32.3991 414.808 -32.3991 414.808L-33.8854 415.07V414.546C-34.8472 414.459 -37.0325 414.459 -42.1032 414.895C-50.6706 415.682 -54.7795 419.179 -58.8012 422.589L-59.6752 423.375C-64.7459 427.659 -66.3194 433.866 -67.1062 442.609C-67.3685 445.494 -66.669 447.767 -65.1826 449.428C-62.9101 451.963 -59.1507 452.487 -57.9266 452.487C-56.6153 452.487 -54.255 450.302 -52.9437 448.728C-52.5064 447.767 -50.4956 443.745 -46.5617 443.745C-44.3763 443.745 -42.1905 445.144 -41.0542 447.242C-40.0052 449.165 -40.0052 451.263 -41.0542 452.75C-42.2783 454.585 -42.715 457.033 -43.1523 459.219C-43.2395 459.831 -43.4145 460.443 -43.5018 461.055C-44.9008 467.262 -41.4915 470.322 -40.0052 471.633C-39.7429 471.808 -39.5679 471.982 -39.4806 472.07C-38.6939 472.944 -38.6939 472.944 -37.2948 473.206C-36.4208 473.381 -35.1095 473.731 -33.0986 474.255C-28.4652 475.567 -24.9686 475.305 -16.4885 474.693C-14.3026 474.518 -11.9423 474.343 -9.05743 474.168C3.35656 473.381 10.2631 470.496 19.0054 466.737C19.9667 466.3 20.9285 465.95 21.9775 465.513C32.3812 461.23 45.9315 448.816 51.0894 440.685C57.1214 431.244 60.6186 425.037 60.7058 425.037L62.9789 426.348C62.9789 426.435 59.3945 432.642 53.3625 442.172C47.9423 450.652 33.867 463.502 23.0266 468.048C21.9775 468.486 21.0163 468.923 20.0545 469.273C11.0499 473.031 3.96831 476.091 -8.88242 476.878C-11.68 477.053 -14.1282 477.228 -16.3135 477.403C-20.2474 477.49 -23.22 477.753 -25.8426 477.753Z" fill="#BBBBBB"/>
<path d="M208.799 448.815C184.234 448.815 168.585 439.81 159.668 432.03C149.527 423.2 145.68 414.195 145.505 413.845L147.953 412.796C147.953 412.884 151.712 421.626 161.504 430.107C170.508 437.887 186.594 446.979 212.296 446.105C214.132 446.017 218.591 442.171 219.815 438.412C220.514 436.226 219.64 435.527 219.378 435.352C215.444 432.205 212.297 429.669 209.586 429.494C208.799 429.407 206.089 430.281 204.079 431.156L203.117 428.708C203.904 428.358 208.013 426.784 209.848 426.872C213.346 427.134 216.755 429.844 221.038 433.254C222.7 434.565 223.224 436.75 222.35 439.198C220.864 443.57 215.706 448.553 212.384 448.64C211.16 448.815 209.936 448.815 208.799 448.815Z" fill="#BBBBBB"/>
<path d="M186.681 445.318C186.681 445.143 183.01 424.512 202.33 419.965C203.991 419.529 211.597 418.217 211.947 418.217L212.384 420.84C212.296 420.84 204.515 422.151 202.942 422.588C195.861 424.249 191.402 428.533 189.654 435.177C188.343 440.248 189.217 444.881 189.217 444.881L186.681 445.318Z" fill="#BBBBBB"/>
<path d="M176.803 438.936L174.268 438.411C174.355 438.062 176.191 428.97 181.961 426.172C187.468 423.462 194.2 423.812 194.462 423.812L194.287 426.435C194.2 426.435 187.993 426.085 183.097 428.533C178.551 430.806 176.89 438.849 176.803 438.936Z" fill="#BBBBBB"/>
<path d="M205.215 463.939C202.942 463.939 200.582 463.852 198.221 463.589C180.474 461.841 170.945 456.071 157.395 446.717C140.523 435.177 138.512 420.228 138.512 419.529L141.134 419.179C141.134 419.179 141.572 422.851 144.019 427.747C146.205 432.292 150.663 438.849 158.969 444.532C172.169 453.536 181.087 459.218 198.571 460.88C215.094 462.54 228.294 457.995 232.229 449.427C236.338 440.335 235.551 433.079 232.666 430.894C229.519 428.533 221.913 424.162 216.143 425.036C210.023 425.911 206.526 425.911 206.352 425.911V423.288C206.352 423.288 209.849 423.288 215.793 422.414C222.438 421.452 230.48 425.998 234.239 428.796C238.785 432.205 238.96 441.122 234.676 450.476C230.568 459.044 219.64 463.939 205.215 463.939Z" fill="#BBBBBB"/>
<path d="M216.842 481.248C214.307 481.248 211.335 481.074 207.313 480.724C205.215 480.549 202.767 480.374 199.882 480.199C187.031 479.413 179.95 476.44 170.946 472.594C169.984 472.157 169.022 471.807 167.973 471.37C157.132 466.911 143.058 453.973 137.637 445.493C131.605 435.964 128.021 429.757 128.021 429.669L130.294 428.358C130.294 428.445 133.878 434.565 139.91 444.006C145.068 452.137 158.706 464.551 169.022 468.834C170.071 469.272 171.033 469.709 171.995 470.058C180.737 473.73 187.643 476.703 200.057 477.49C202.854 477.664 205.303 477.839 207.488 478.014C215.968 478.626 219.465 478.888 224.099 477.577C226.109 476.965 227.42 476.703 228.295 476.528C229.693 476.178 229.693 476.178 230.48 475.391C230.568 475.304 230.742 475.129 231.005 474.954C232.491 473.643 235.9 470.583 234.502 464.376C234.415 463.764 234.24 463.152 234.152 462.54C233.715 460.354 233.278 457.907 232.054 456.071C231.005 454.497 231.005 452.487 232.054 450.563C233.19 448.465 235.376 447.066 237.562 447.066C241.496 447.066 243.506 451.088 243.944 452.049C245.255 453.623 247.615 455.809 248.927 455.809C250.15 455.809 253.822 455.284 256.183 452.749C257.756 451.088 258.368 448.727 258.106 445.93C257.319 437.188 255.833 430.981 250.675 426.697L249.801 425.91C245.779 422.501 241.583 419.003 233.103 418.217C228.12 417.78 225.847 417.78 224.885 417.867V418.392L223.399 418.129C223.312 418.129 216.668 417.255 210.461 422.238C206.089 425.735 204.603 427.484 203.03 432.117C200.756 439.024 207.75 444.618 207.838 444.618L206.264 446.717C205.914 446.455 197.697 439.898 200.581 431.243C202.418 425.735 204.516 423.637 208.887 420.14C215.094 415.157 221.475 415.245 223.399 415.419C224.273 415.07 226.459 414.807 233.453 415.507C242.807 416.381 247.528 420.315 251.636 423.812L252.511 424.599C258.281 429.407 260.029 436.226 260.816 445.58C261.166 449.164 260.292 452.224 258.193 454.41C255.396 457.469 251.112 458.344 249.014 458.344C245.954 458.344 242.545 454.322 241.845 453.448L241.758 453.273L241.671 453.098C241.671 453.098 240.184 449.514 237.649 449.514C236.425 449.514 235.201 450.388 234.502 451.613C233.977 452.662 233.89 453.711 234.415 454.41C235.9 456.683 236.425 459.568 236.862 461.841C236.949 462.453 237.124 463.065 237.212 463.589C238.96 471.37 234.327 475.391 232.84 476.703C232.666 476.877 232.578 476.965 232.491 477.052C231.267 478.364 231.005 478.539 228.994 478.976C228.12 479.15 226.896 479.5 224.885 480.025C222.175 480.899 219.815 481.248 216.842 481.248Z" fill="#BBBBBB"/>
<path d="M234.939 466.65C234.939 466.387 234.589 460.53 239.835 458.519C243.856 456.858 245.779 455.285 245.779 455.285L247.528 457.295C247.441 457.383 245.343 459.219 240.796 461.054C237.387 462.453 237.562 466.562 237.562 466.65H234.939Z" fill="#BBBBBB"/>
<path d="M259.504 431.767L257.756 429.844L258.63 430.806L257.756 429.844C257.844 429.757 265.974 422.238 265.187 411.66C264.925 407.901 262.914 398.984 250.675 398.023C249.538 397.935 248.402 397.848 247.265 397.848V398.023C247.178 398.023 246.566 398.023 245.605 397.848C240.709 397.935 236.338 398.722 232.054 399.508C229.518 399.946 227.158 400.383 224.711 400.645C217.192 401.432 210.461 398.634 205.215 392.34C200.932 387.182 201.543 380.8 206.876 373.282C210.897 367.687 215.706 366.813 217.104 366.638L219.028 365.326C219.64 363.403 222.088 356.934 229.518 355.273C237.824 353.437 243.331 353.524 246.304 355.448C248.664 357.021 248.227 360.168 247.965 362.267L247.877 362.791C247.703 363.927 247.528 365.151 247.703 365.851C248.052 368.211 250.675 369.698 252.773 369.698C253.647 369.698 255.221 369.435 255.57 367.599C256.27 363.665 256.357 361.742 256.445 359.906C256.445 359.294 256.445 358.77 256.445 358.158C256.445 354.835 256.882 353.524 261.865 352.475C267.023 351.426 269.995 352.825 272.443 354.399C273.929 355.36 275.24 356.322 276.465 357.196C279.349 359.294 281.36 360.78 282.672 360.343C285.207 359.469 290.277 356.934 290.365 356.934L291.676 356.322L292.201 357.72C292.288 358.07 295.173 365.764 289.928 368.911C289.054 369.435 288.441 369.873 287.83 370.309C285.032 372.407 283.546 372.845 276.64 370.747C274.191 369.96 272.356 370.047 271.394 370.834C270.52 371.621 270.433 373.02 270.433 373.544C271.394 375.817 271.744 380.712 266.411 384.559C260.991 388.406 257.844 387.881 253.647 387.095C252.686 386.92 251.724 386.745 250.588 386.57L249.276 386.483C245.167 385.87 245.167 385.87 242.37 386.483L241.408 386.658C237.736 387.357 237.124 388.319 236.949 388.668C236.774 389.193 237.387 390.242 238.523 391.466C241.146 394.088 244.031 394.963 245.779 395.312C247.44 395.312 249.101 395.312 250.85 395.487C254.521 395.837 266.76 397.848 267.81 411.573C268.684 423.375 259.854 431.418 259.504 431.767ZM217.542 369.173C217.367 369.173 212.908 369.348 208.974 374.768C204.341 381.325 203.729 386.483 207.139 390.679C210.373 394.613 215.968 398.984 224.36 398.11C226.721 397.848 229.082 397.41 231.529 396.973C234.065 396.536 236.774 396.012 239.66 395.75C238.698 395.137 237.649 394.351 236.687 393.389C234.676 391.378 233.977 389.63 234.414 387.969C235.114 385.521 238.436 384.647 240.796 384.122L241.758 383.947C244.992 383.248 245.167 383.248 249.626 383.947L250.937 384.122C252.074 384.297 253.123 384.472 254.084 384.647C258.106 385.434 260.291 385.87 264.837 382.549C269.908 378.877 267.984 374.768 267.897 374.593L267.81 374.418V374.156C267.81 373.981 267.46 370.834 269.646 368.998C271.307 367.599 273.929 367.337 277.339 368.386C283.633 370.309 284.245 369.785 286.256 368.298C286.868 367.862 287.567 367.337 288.529 366.725C290.889 365.326 290.539 362.004 290.103 360.081C288.354 360.955 285.294 362.354 283.458 362.966C280.836 363.84 278.388 362.004 274.891 359.469C273.755 358.595 272.443 357.72 270.957 356.759C268.597 355.186 266.324 354.399 262.302 355.186C258.98 355.885 258.98 355.972 258.98 358.245C258.98 358.857 258.98 359.469 258.98 359.993C258.98 361.917 258.805 363.927 258.106 368.036C257.669 370.659 255.57 372.32 252.686 372.32C249.363 372.32 245.605 370.047 244.992 366.288C244.818 365.151 244.992 363.84 245.167 362.442L245.255 361.917C245.517 360.081 245.605 358.158 244.73 357.546C243.156 356.497 239.31 355.71 230.043 357.72C223.049 359.294 221.476 366.288 221.388 366.375L221.301 366.9L217.891 369.173H217.542Z" fill="#BBBBBB"/>
<path d="M228.556 398.897C228.207 398.809 220.689 396.799 219.727 387.269C219.29 383.16 220.164 380.013 222.262 377.915C224.623 375.642 228.294 374.768 233.452 375.292C237.998 375.817 239.659 375.992 240.883 376.254L240.359 375.554C240.534 375.379 244.992 371.883 249.626 370.921C254.784 369.872 256.969 373.107 257.057 373.194L257.668 374.068L254.259 377.478C251.636 380.101 248.139 380.712 243.419 379.576C242.807 379.401 242.37 379.314 242.02 379.226C240.009 378.702 239.659 378.614 233.103 377.915C228.819 377.478 225.847 378.09 224.098 379.751C222.612 381.237 222 383.685 222.349 386.919C223.136 394.613 228.994 396.186 229.256 396.274L228.556 398.897ZM243.069 376.866C243.331 376.954 243.681 377.041 244.118 377.128C247.877 378.09 250.587 377.653 252.51 375.729L254.172 374.068C253.472 373.631 252.161 373.194 250.237 373.544C247.352 374.068 244.555 375.817 243.069 376.866Z" fill="#BBBBBB"/>
<path d="M257.556 358.696L247.036 360.45L247.467 363.037L257.987 361.283L257.556 358.696Z" fill="#BBBBBB"/>
<path d="M237.037 417.431L234.677 416.294L235.813 416.907L234.677 416.294C234.764 416.12 236.862 411.836 234.065 409.038C230.743 405.716 220.864 400.733 220.777 400.646L222.001 398.285C222.438 398.46 232.404 403.531 235.988 407.115C240.01 411.311 237.212 417.169 237.037 417.431Z" fill="#BBBBBB"/>
<path d="M249.889 422.151L248.052 420.315L249.014 421.277L248.052 420.315C248.14 420.228 252.511 415.769 250.501 412.273C248.49 408.951 236.863 401.344 232.579 398.722L233.978 396.449C235.638 397.411 250.063 406.327 252.774 410.874C255.834 416.119 250.151 421.889 249.889 422.151Z" fill="#BBBBBB"/>
<path d="M134.839 465.775L126.098 459.655C126.098 459.655 119.978 464.901 119.103 465.775C118.229 466.649 126.098 476.266 126.972 476.266C127.846 476.266 131.343 477.14 132.217 475.391C133.091 473.643 134.839 465.775 134.839 465.775Z" fill="white"/>
<path d="M129.594 477.84C128.808 477.84 128.109 477.752 127.584 477.665C127.322 477.665 127.147 477.577 126.972 477.577C125.049 477.577 118.754 468.835 117.967 467.086C117.618 466.125 117.618 465.426 118.142 464.901C119.016 464.027 124.611 459.219 125.223 458.694L126.01 457.995L136.326 465.163L136.151 466.037C135.976 466.824 134.316 474.08 133.441 475.916C132.654 477.49 131.081 477.84 129.594 477.84ZM127.322 475.042C127.496 475.042 127.671 475.042 127.934 475.129C129.857 475.392 130.906 475.304 131.081 474.867C131.605 473.818 132.742 469.447 133.441 466.387L126.272 461.317C124.524 462.803 121.727 465.251 120.59 466.3C121.377 468.223 125.923 473.993 127.322 475.042Z" fill="#BBBBBB"/>
<path d="M117.356 467.524C117.356 465.775 111.236 460.53 111.236 460.53L105.991 467.524L105.116 464.901C105.116 464.901 109.487 472.769 110.362 472.769C111.236 472.769 115.607 474.518 116.481 473.644C117.356 472.769 117.356 467.524 117.356 467.524Z" fill="white"/>
<path d="M115.607 475.217C114.558 475.217 113.247 474.867 111.673 474.429C111.148 474.255 110.537 474.08 110.274 474.08C109.663 474.08 108.963 474.08 106.166 469.447L105.467 470.321L103.805 465.338L106.166 464.289C106.253 464.464 106.341 464.551 106.428 464.726L110.974 458.694L112.023 459.568C114.995 462.103 118.58 465.6 118.58 467.523C118.58 470.146 118.404 473.555 117.355 474.604C116.919 475.042 116.306 475.217 115.607 475.217ZM110.799 471.545C111.148 471.632 111.673 471.72 112.373 471.982C113.159 472.157 114.821 472.681 115.52 472.681C115.782 471.895 115.957 469.709 115.957 467.698C115.782 466.999 113.772 464.726 111.323 462.54L107.827 467.261C109.138 469.184 110.274 470.933 110.799 471.545Z" fill="#BBBBBB"/>
<path d="M75.3926 465.775L81.5118 459.655L89.3801 467.524C89.3801 467.524 92.0027 471.895 91.1287 471.895C90.2541 471.895 84.1344 472.769 83.2604 473.643C82.3864 474.517 76.2666 473.643 76.2666 473.643L75.3926 465.775Z" fill="white"/>
<path d="M80.9002 475.392C79.7634 475.392 78.1898 475.304 76.0917 474.954L75.0427 474.78L73.9937 465.251L81.5119 457.732L90.5166 466.737C93.1392 471.108 92.7024 471.894 92.4402 472.332C92.1779 472.769 91.6534 473.031 91.1288 473.031C90.2543 473.031 84.9213 473.905 84.1345 474.43C83.9601 474.867 83.3478 475.392 80.9002 475.392ZM77.403 472.507C79.6761 472.769 81.7742 472.856 82.3865 472.681C83.61 471.72 87.3694 471.108 89.5548 470.845C89.2053 470.146 88.768 469.272 88.2435 468.485L81.4247 461.666L76.704 466.387L77.403 472.507ZM91.1288 470.583H91.0411H91.1288Z" fill="#BBBBBB"/>
<path d="M60.5308 466.65L68.3986 458.781L75.8296 469.797C75.8296 469.797 74.5183 471.895 71.0217 472.769C67.5245 473.643 64.0274 473.643 63.1534 472.769C62.2793 471.895 60.5308 470.146 60.5308 470.146V466.65Z" fill="white"/>
<path d="M66.038 474.78C64.4644 474.78 62.9781 474.518 62.1913 473.731L59.2192 470.758V466.213L68.5733 456.858L77.4029 469.971L76.9657 470.671C76.8784 470.758 75.3049 473.206 71.371 474.168C69.9719 474.43 67.8738 474.78 66.038 474.78ZM61.8418 469.622L64.1149 471.895C64.5517 472.244 67.262 472.42 70.7587 471.545C72.5072 471.108 73.6441 470.321 74.2558 469.797L68.2238 460.88L61.8418 467.262V469.622Z" fill="#BBBBBB"/>
<path d="M82.3861 471.895L88.5058 464.901C88.5058 464.901 92.877 467.523 93.751 469.272C94.6256 471.021 94.6256 471.021 94.6256 471.021L93.751 479.763L85.8832 481.512C85.8832 481.512 83.2606 475.392 82.3861 475.392C81.5121 475.392 82.2988 470.496 82.2988 470.496" fill="white"/>
<path d="M85.0961 483.085L84.6588 482.123C83.6976 479.938 82.4735 477.402 81.8617 476.703C81.5995 476.616 81.3372 476.441 81.1622 476.266C80.8999 475.916 80.2004 475.129 80.9872 470.409L81.8617 470.583L88.2432 463.327L89.205 463.852C89.9918 464.289 93.9257 466.737 94.9747 468.747L96.0238 470.845L94.9747 480.899L85.0961 483.085ZM83.2603 474.43C83.9598 474.954 84.9211 476.266 86.5824 480.112L92.4399 478.801L93.1389 471.37L92.4399 469.971C92.0026 469.185 90.1668 467.786 88.5932 466.737L83.173 472.856C83.2603 473.468 83.2603 473.993 83.2603 474.43Z" fill="#BBBBBB"/>
<path d="M113.859 472.769L105.991 465.775L98.9966 471.895H99.8711C99.8711 471.895 98.1226 475.392 99.8711 476.266C101.62 477.14 105.991 477.752 107.302 477.49C108.613 477.14 112.985 473.643 112.985 473.643L113.859 472.769Z" fill="white"/>
<path d="M106.341 478.889C104.243 478.889 100.92 478.277 99.3468 477.489C97.7733 476.703 97.5982 474.955 98.0355 473.293H95.5874L106.078 464.114L115.87 472.769L113.946 474.692C112.548 475.829 109.225 478.451 107.739 478.714C107.302 478.801 106.777 478.889 106.341 478.889ZM101.62 471.37L101.095 472.507C100.57 473.556 100.308 474.867 100.483 475.129C102.057 475.916 106.078 476.44 107.04 476.178C107.652 476.004 110.012 474.342 111.935 472.769L105.991 467.524L101.62 471.37Z" fill="#BBBBBB"/>
<path d="M58.3447 523.475C65.3459 523.475 71.021 518.778 71.021 512.984C71.021 507.19 65.3459 502.493 58.3447 502.493C51.344 502.493 45.6685 507.19 45.6685 512.984C45.6685 518.778 51.344 523.475 58.3447 523.475Z" fill="white"/>
<path d="M58.3454 524.786C50.6521 524.786 44.3579 519.453 44.3579 512.984C44.3579 506.515 50.6521 501.182 58.3454 501.182C66.0382 501.182 72.333 506.515 72.333 512.984C72.333 519.453 66.0382 524.786 58.3454 524.786ZM58.3454 503.804C52.0507 503.804 46.9805 507.913 46.9805 512.984C46.9805 518.054 52.0507 522.163 58.3454 522.163C64.6397 522.163 69.7104 518.054 69.7104 512.984C69.7104 507.913 64.5524 503.804 58.3454 503.804Z" fill="#BBBBBB"/>
<path d="M136.151 523.475C143.153 523.475 148.828 517.995 148.828 511.235C148.828 504.476 143.153 498.996 136.151 498.996C129.151 498.996 123.475 504.476 123.475 511.235C123.475 517.995 129.151 523.475 136.151 523.475Z" fill="white"/>
<path d="M136.151 524.786C128.458 524.786 122.164 518.666 122.164 511.235C122.164 503.804 128.458 497.685 136.151 497.685C143.844 497.685 150.139 503.804 150.139 511.235C150.139 518.666 143.844 524.786 136.151 524.786ZM136.151 500.308C129.857 500.308 124.786 505.203 124.786 511.235C124.786 517.267 129.857 522.163 136.151 522.163C142.446 522.163 147.516 517.267 147.516 511.235C147.516 505.203 142.358 500.308 136.151 500.308Z" fill="#BBBBBB"/>
<path d="M120.415 533.967C128.382 533.967 134.84 527.507 134.84 519.541C134.84 511.574 128.382 505.116 120.415 505.116C112.448 505.116 105.99 511.574 105.99 519.541C105.99 527.507 112.448 533.967 120.415 533.967Z" fill="white"/>
<path d="M120.415 535.276C111.761 535.276 104.679 528.195 104.679 519.54C104.679 510.886 111.761 503.804 120.415 503.804C129.07 503.804 136.151 510.886 136.151 519.54C136.151 528.195 129.07 535.276 120.415 535.276ZM120.415 506.427C113.159 506.427 107.302 512.284 107.302 519.54C107.302 526.796 113.159 532.653 120.415 532.653C127.671 532.653 133.529 526.796 133.529 519.54C133.529 512.284 127.671 506.427 120.415 506.427Z" fill="#BBBBBB"/>
<path d="M77.1414 534.84C85.3491 534.84 92.003 528.186 92.003 519.978C92.003 511.77 85.3491 505.116 77.1414 505.116C68.9331 505.116 62.2793 511.77 62.2793 519.978C62.2793 528.186 68.9331 534.84 77.1414 534.84Z" fill="white"/>
<path d="M77.1412 536.148C68.2238 536.148 60.9678 528.895 60.9678 519.978C60.9678 511.06 68.2238 503.804 77.1412 503.804C86.058 503.804 93.314 511.06 93.314 519.978C93.314 528.895 86.058 536.148 77.1412 536.148ZM77.1412 506.427C69.7101 506.427 63.5904 512.547 63.5904 519.978C63.5904 527.409 69.7101 533.526 77.1412 533.526C84.5717 533.526 90.6915 527.409 90.6915 519.978C90.6915 512.547 84.5717 506.427 77.1412 506.427Z" fill="#BBBBBB"/>
<path d="M98.1228 539.213C106.331 539.213 112.984 532.946 112.984 525.223C112.984 517.498 106.331 511.235 98.1228 511.235C89.9146 511.235 83.2607 517.498 83.2607 525.223C83.2607 532.946 89.9146 539.213 98.1228 539.213Z" fill="white"/>
<path d="M98.1226 540.521C89.2052 540.521 81.9492 533.617 81.9492 525.224C81.9492 516.831 89.2052 509.924 98.1226 509.924C107.039 509.924 114.296 516.831 114.296 525.224C114.296 533.617 107.039 540.521 98.1226 540.521ZM98.1226 512.547C90.6916 512.547 84.5718 518.229 84.5718 525.224C84.5718 532.217 90.6916 537.899 98.1226 537.899C105.554 537.899 111.673 532.217 111.673 525.224C111.673 518.229 105.554 512.547 98.1226 512.547Z" fill="#BBBBBB"/>
<path d="M69.2728 508.613C69.2728 508.613 61.405 508.613 58.7824 506.865C56.1598 505.116 47.4175 495.5 47.4175 489.38C47.4175 483.26 48.2915 472.77 58.7824 462.279C59.3942 461.667 65.0767 470.584 68.7483 476.441C70.5847 479.414 69.2728 508.613 69.2728 508.613Z" fill="white"/>
<path d="M70.4972 509.924H69.2731C68.3991 509.924 60.9681 509.836 58.0832 507.913C55.1983 505.99 46.106 496.111 46.106 489.38C46.106 482.386 47.33 471.895 57.8209 461.317C58.0832 461.054 58.5205 460.879 58.9572 460.879C59.8318 460.967 60.7058 461.054 69.7976 475.741C71.6335 478.714 70.7594 501.706 70.4972 508.612V509.924ZM58.87 464.114C49.7781 473.643 48.7291 483.085 48.7291 489.467C48.7291 494.887 56.9464 504.154 59.4817 505.902C60.968 506.864 65.077 507.301 67.9618 507.389C68.5741 493.751 68.5741 478.976 67.6123 477.315C62.1921 468.398 59.8318 465.251 58.87 464.114Z" fill="#BBBBBB"/>
<path d="M129.594 504.241C129.594 504.241 134.228 504.241 136.588 502.58C138.949 500.919 147.079 493.75 147.079 483.26C147.079 477.315 144.194 470.758 134.84 460.529C134.053 459.655 125.923 473.73 125.223 478.888C124.349 485.27 129.594 504.241 129.594 504.241Z" fill="white"/>
<path d="M129.595 505.552H128.633L128.371 504.59C128.196 503.804 123.126 485.27 124 478.713C124.611 473.993 132.13 460.005 134.403 459.218C134.927 459.043 135.54 459.218 135.889 459.568C144.719 469.184 148.478 476.266 148.478 483.172C148.478 495.061 138.599 502.667 137.463 503.541C134.753 505.552 130.119 505.552 129.595 505.552ZM134.665 462.365C132.567 465.163 127.059 475.042 126.448 479.063C125.748 484.309 129.507 498.908 130.556 502.93C132.13 502.842 134.491 502.492 135.802 501.531C136.851 500.744 145.768 493.925 145.768 483.347C145.768 477.315 142.446 471.02 134.665 462.365Z" fill="#BBBBBB"/>
<path d="M56.8584 516.306C56.8584 516.306 57.4707 511.235 59.4815 509.4C61.4918 507.477 62.6287 507.914 62.6287 507.914" fill="white"/>
<path d="M58.1704 516.481L55.5479 516.218C55.6351 515.694 56.2474 510.623 58.6077 508.438C61.1425 506.165 62.8039 506.602 63.1534 506.689L62.1921 509.137C62.2794 509.137 62.3666 509.137 62.3666 509.137C62.3666 509.137 61.6676 509.049 60.3558 510.274C58.9572 511.585 58.2577 515.256 58.1704 516.481Z" fill="#BBBBBB"/>
<path d="M73.4692 524.173C73.4692 524.173 73.9065 519.19 76.5291 516.917C79.1517 514.644 85.4465 510.011 85.4465 510.011" fill="white"/>
<path d="M74.7803 524.261L72.1577 524.086C72.1577 523.824 72.6822 518.491 75.6549 515.956C78.2775 513.683 84.3972 509.137 84.6595 508.962L86.233 511.06C86.1453 511.148 79.9383 515.693 77.4035 517.967C75.4799 519.453 74.8681 523.037 74.7803 524.261Z" fill="#BBBBBB"/>
<path d="M98.1227 530.468C98.1227 530.468 94.6256 526.971 95.4996 522.6C96.3742 518.229 98.9968 515.606 98.9968 515.606" fill="white"/>
<path d="M97.1609 531.43C96.9859 531.255 93.1393 527.408 94.1883 522.337C95.1501 517.617 97.9477 514.819 98.035 514.645L99.8713 516.48C99.8713 516.48 97.5104 518.928 96.7236 522.775C96.0246 526.446 98.9967 529.419 98.9967 529.419L97.1609 531.43Z" fill="#BBBBBB"/>
<path d="M123.475 521.726C123.475 521.726 122.601 517.092 119.979 514.819C117.356 512.546 113.859 509.049 113.859 509.049" fill="white"/>
<path d="M122.164 521.988C122.164 521.988 121.377 517.792 119.104 515.781C116.481 513.508 113.072 510.099 112.897 509.924L114.733 508.088C114.733 508.088 118.23 511.585 120.765 513.77C123.65 516.306 124.612 521.201 124.699 521.464L122.164 521.988Z" fill="#BBBBBB"/>
<path d="M139.211 511.235C139.211 511.235 139.211 508.612 134.84 506.864C130.469 505.115 130.119 505.727 130.119 505.727" fill="white"/>
<path d="M137.9 511.322C137.9 511.235 137.725 509.486 134.315 508.088C131.343 506.863 130.469 506.951 130.469 506.951C130.556 506.951 130.906 506.863 131.168 506.426L128.982 505.028C129.682 503.891 131.431 504.066 135.364 505.639C140.435 507.65 140.522 510.885 140.522 511.235L137.9 511.322H139.211H137.9Z" fill="#BBBBBB"/>
<path d="M55.2847 481.512C55.2847 481.512 52.6621 498.122 62.5407 508.176L55.2847 481.512Z" fill="white"/>
<path d="M61.5795 509.137C51.3508 498.733 53.8862 482.035 53.9734 481.336L56.5965 481.773C56.5965 481.948 54.2357 497.859 63.5025 507.301L61.5795 509.137Z" fill="#BBBBBB"/>
<path d="M139.474 474.168C139.474 474.168 144.981 490.691 137.113 502.668L139.474 474.168Z" fill="white"/>
<path d="M138.249 503.368L136.063 501.881C143.495 490.516 138.337 474.693 138.249 474.518L140.697 473.644C140.959 474.431 146.379 491.041 138.249 503.368Z" fill="#BBBBBB"/>
<path d="M120.853 510.361C125.224 510.361 127.846 508.613 131.344 504.241C134.84 499.87 136.589 497.248 135.714 488.505C134.927 480.287 130.469 473.644 125.224 469.273C119.979 464.901 118.23 463.153 118.23 463.153C118.23 463.153 108.614 472.769 106.865 476.266C105.116 479.763 103.805 484.134 103.368 489.38C102.494 499.87 109.488 507.739 112.985 509.487C116.481 511.235 119.279 510.361 120.853 510.361Z" fill="white"/>
<path d="M117.618 511.934C116.132 511.934 114.383 511.672 112.373 510.71C108.351 508.7 101.095 500.307 102.057 489.291C102.494 484.221 103.718 479.675 105.728 475.741C107.564 472.07 116.919 462.715 117.355 462.278L118.317 461.316L119.279 462.278C119.279 462.278 121.115 464.026 126.186 468.31C132.48 473.555 136.326 480.724 137.113 488.417C138.075 497.597 136.064 500.656 132.48 505.115C129.158 509.312 126.186 511.759 120.94 511.759C120.678 511.759 120.328 511.759 119.891 511.847C119.191 511.847 118.404 511.934 117.618 511.934ZM118.23 464.988C115.17 468.135 109.225 474.43 108.001 476.878C106.166 480.55 105.029 484.833 104.679 489.554C103.892 499.171 110.187 506.689 113.597 508.35C115.957 509.574 118.055 509.312 119.541 509.137C119.979 509.049 120.415 509.049 120.853 509.049C124.611 509.049 126.885 507.65 130.294 503.454C133.704 499.171 135.19 496.898 134.403 488.68C133.442 479.151 127.671 473.119 124.349 470.321C121.202 467.611 119.279 465.95 118.23 464.988Z" fill="#BBBBBB"/>
<path d="M78.0151 512.109C73.6439 512.109 69.2728 510.361 65.7761 505.99C62.279 501.619 61.8417 501.531 59.6564 492.877C57.9078 485.883 61.3172 477.927 65.7761 472.769C71.0213 466.649 74.518 464.027 74.518 464.027C74.518 464.027 87.8065 474.518 89.5551 478.014C91.3031 481.512 92.6144 485.883 93.0517 491.128C93.9262 501.619 86.932 509.487 83.4353 511.235C79.9382 512.984 79.5014 512.109 78.0151 512.109Z" fill="white"/>
<path d="M80.0256 513.683C79.5889 513.683 79.2388 513.595 78.8021 513.595C78.5398 513.508 78.2776 513.508 78.0153 513.508C72.7696 513.508 68.2239 511.235 64.7267 506.864L64.0272 505.99C60.9679 502.143 60.3556 501.269 58.3447 493.226C56.3344 485.358 60.5306 476.791 64.7267 471.982C69.9719 465.862 73.5563 463.153 73.6441 463.065L74.4309 462.453L75.2177 463.065C76.6162 464.114 88.768 473.818 90.6038 477.49C92.6146 481.511 93.8387 486.057 94.2759 491.041C95.15 502.055 87.9812 510.361 83.96 512.459C82.0364 513.42 80.9002 513.683 80.0256 513.683ZM74.5182 465.775C73.2069 466.912 70.4092 469.447 66.7376 473.731C62.9782 478.102 59.1315 485.708 60.8801 492.701C62.8037 500.395 63.2404 500.919 66.0381 504.416L66.7376 505.29C69.7102 508.962 73.5564 510.886 77.9275 510.886C78.452 510.886 78.8893 510.973 79.1516 511.06C79.9384 511.235 80.4629 511.322 82.736 510.186C86.1454 508.525 92.4401 501.006 91.6534 491.39C91.3033 486.669 90.167 482.473 88.3312 478.714C87.1944 476.353 79.7633 469.971 74.5182 465.775Z" fill="#BBBBBB"/>
<path d="M121.727 483.26C121.727 483.26 126.972 501.618 114.733 510.361L121.727 483.26Z" fill="white"/>
<path d="M115.519 511.497L114.033 509.399C118.754 506.077 121.289 500.744 121.552 493.663C121.814 488.243 120.502 483.784 120.502 483.697L123.038 482.998C123.126 483.172 124.437 487.893 124.175 493.663C123.825 501.444 120.852 507.651 115.519 511.497Z" fill="#BBBBBB"/>
<path d="M73.0318 483.696C73.0318 483.696 67.7866 502.93 80.0261 512.109L73.0318 483.696Z" fill="white"/>
<path d="M79.2395 513.158C73.9065 509.136 70.9345 502.754 70.5844 494.537C70.3222 488.417 71.6335 483.609 71.7212 483.347L74.2561 484.046C74.2561 484.133 73.0325 488.767 73.207 494.449C73.4693 501.88 76.0046 507.476 80.7258 511.06L79.2395 513.158Z" fill="#BBBBBB"/>
<path d="M99.8711 515.607C104.242 515.607 106.865 513.859 110.362 509.488C113.859 505.116 115.607 502.494 114.733 493.751C113.946 485.534 109.487 478.89 104.242 474.519C98.9966 470.147 97.2485 468.399 97.2485 468.399C97.2485 468.399 87.6316 478.015 85.8836 481.512C84.135 485.009 82.8237 489.38 82.3864 494.625C81.5124 505.116 88.5062 512.985 92.0028 514.733C95.4999 516.481 98.2976 515.607 99.8711 515.607Z" fill="white"/>
<path d="M96.6363 517.18C95.15 517.18 93.4014 516.918 91.3911 515.956C87.3694 513.945 80.1134 505.553 81.0752 494.538C81.5119 489.467 82.736 484.921 84.7468 480.987C86.5826 477.315 95.9367 467.961 96.374 467.524L97.3358 466.562L98.2971 467.524C98.2971 467.524 100.133 469.272 105.204 473.556C111.498 478.801 115.345 485.97 116.131 493.664C117.093 502.843 115.082 505.903 111.498 510.361C108.176 514.558 105.204 517.005 99.9584 517.005C99.6961 517.005 99.3461 517.005 98.9094 517.093C98.2098 517.093 97.423 517.18 96.6363 517.18ZM97.248 470.234C94.1882 473.381 88.2434 479.676 87.0199 482.124C85.1835 485.795 84.0473 490.079 83.6978 494.8C82.911 504.416 89.2052 511.935 92.6146 513.596C94.9749 514.82 97.0735 514.558 98.5593 514.383C98.9966 514.295 99.4339 514.295 99.8706 514.295C103.63 514.295 105.903 512.896 109.313 508.7C112.722 504.416 114.208 502.144 113.421 493.926C112.46 484.397 106.69 478.365 103.368 475.567C100.221 472.857 98.2971 471.196 97.248 470.234Z" fill="#BBBBBB"/>
<path d="M98.9966 493.75C98.9966 493.75 104.242 507.738 98.9966 515.693V493.75Z" fill="white"/>
<path d="M100.046 516.393L97.86 514.906C102.668 507.65 97.7728 494.275 97.6855 494.187L100.133 493.226C100.395 493.925 105.641 508 100.046 516.393Z" fill="#BBBBBB"/>
</g>
</svg>
