<svg width="334" height="685" viewBox="0 0 334 685" fill="none" xmlns="http://www.w3.org/2000/svg">
<path d="M3.74667 684.144C-29.1698 680.812 -52.5202 673.081 -65.8358 661.107C-75.7762 652.169 -77.3378 645.644 -69.9789 643.796C-66.5988 642.948 -66.5063 642.302 -69.1151 637.755C-72.1557 632.456 -70.1873 628.054 -64.2265 626.822C-56.1174 625.147 -48.02 620.337 -40.1933 612.547C-35.9931 608.367 -32.5618 604.635 -32.5685 604.255C-32.5771 603.875 -38.0028 601.808 -44.6299 599.662C-70.7614 591.199 -95.5061 576.342 -115.89 556.877L-127.961 545.35L-129.92 550.251C-135.347 563.826 -147.606 577.248 -157.205 580.124C-161.149 581.306 -162.227 582.517 -166.792 590.893C-173.764 603.686 -178.549 615.973 -179.953 624.688C-181.487 634.218 -184.758 639.226 -192.871 644.471C-200.003 649.082 -209.317 651.879 -221.84 653.17C-228.918 653.901 -229.806 654.292 -231.851 657.585C-235.552 663.543 -242.903 669.96 -247.118 670.911C-252.13 672.041 -260.723 669.9 -270.032 665.2L-277.067 661.648L-271.62 656.575L-266.174 651.502L-267.076 641.942C-268.751 624.185 -268.619 623.104 -264.238 618.582C-262.07 616.345 -259.679 614.514 -258.926 614.514C-257.947 614.514 -257.726 612.39 -258.152 607.086C-258.719 600.022 -258.58 599.49 -255.32 596.229C-251.226 592.135 -244.136 589.989 -237.964 590.976C-235.17 591.422 -230.683 590.944 -226.079 589.709C-222.011 588.617 -217.839 587.75 -216.809 587.781C-215.199 587.83 -215.097 587.2 -216.085 583.31C-216.717 580.819 -217.678 578.781 -218.22 578.781C-220.098 578.781 -234.074 584.383 -237.032 586.321C-238.902 587.546 -240.003 587.778 -240.003 586.947C-240.003 586.22 -239.283 585.349 -238.403 585.011C-237.174 584.54 -237.71 582.89 -240.708 577.911C-245.021 570.748 -245.465 567.635 -242.886 562.646C-240.65 558.322 -235.722 554.68 -225.021 549.442C-214.312 544.2 -203.812 536.206 -188.141 521.364C-175.679 509.561 -170.459 502.333 -165.464 489.964L-162.619 482.921L-164.927 475.234C-173.435 446.897 -174.952 412.642 -168.553 393.359C-161.251 371.354 -158.065 364.388 -150.248 353.333C-143.279 343.476 -128.397 326.344 -126.804 326.344C-126.155 326.344 -128.986 330.105 -133.094 334.701C-144.718 347.708 -152.377 358.388 -157.141 368.231C-165.386 385.269 -165.559 395.685 -157.66 399.434C-146.683 404.644 -141.095 399.716 -127.079 372.457C-120.259 359.194 -115.659 351.738 -111.87 347.807L-106.439 342.171L-107.491 330.511C-108.815 315.829 -108.814 315.97 -107.641 315.97C-107.102 315.97 -106.316 321.663 -105.894 328.621C-104.85 345.81 -102.329 358.369 -97.4449 370.723C-86.9787 397.193 -75.7858 408.51 -67.0602 401.443C-64.7287 399.555 -64.4612 398.427 -64.7108 391.54C-64.931 385.466 -64.5503 383.279 -62.9684 381.531C-61.0134 379.37 -61.1421 379.088 -66.7407 373.279C-82.1092 357.332 -88.115 346.918 -95.4687 323.463C-97.8538 315.855 -99.9497 309.438 -100.126 309.204C-100.302 308.969 -102.49 310.395 -104.987 312.373C-107.485 314.352 -109.907 315.97 -110.369 315.97C-110.832 315.97 -110.966 313.016 -110.666 309.404C-110.146 303.134 -109.818 302.555 -103.369 296.552L-96.6158 290.265L-100.601 290.995C-102.793 291.397 -105.336 291.252 -106.252 290.674C-111.237 287.523 -127.015 306.904 -127.049 316.218C-127.064 320.549 -121.152 326.922 -114.905 329.308C-109.478 331.381 -108.003 333.238 -112.366 332.506C-114.416 332.162 -116.556 333.945 -122.587 341.023C-136.494 357.343 -143.511 368.083 -147.265 378.791C-147.78 380.261 -148.27 380.569 -148.616 379.64C-150.186 375.431 -135.942 353.246 -122.029 338.231C-115.482 331.166 -115.444 331.085 -118.07 329.736C-119.528 328.986 -122.407 326.778 -124.467 324.827C-127.566 321.893 -128.212 320.423 -128.212 316.308C-128.212 309.504 -124.601 302.387 -117.628 295.449L-111.77 289.621L-116.246 288.876C-139.977 284.924 -155.571 277.133 -158.041 267.997C-159.871 261.225 -154.652 250.694 -147.692 247.115C-143.295 244.854 -135.149 245.399 -128.789 248.381C-116.953 253.929 -101.705 269.053 -101.705 275.243C-101.705 277.871 -102.023 277.695 -105.502 273.132C-110.496 266.584 -118.06 261.616 -124.067 260.939C-128.493 260.44 -129.224 260.753 -132.594 264.592C-134.621 266.901 -136.28 270.029 -136.28 271.542C-136.28 275.842 -128.499 281.642 -117.678 285.41L-108.209 288.707L-106.398 285.914C-101.879 278.944 -97.6749 275.608 -92.1441 274.603C-89.1039 274.051 -86.3608 273.343 -86.0483 273.03C-84.9341 271.916 -91.5224 256.497 -96.5814 248.379C-106.65 232.222 -123.396 220.565 -140.313 217.937C-150.988 216.279 -157.178 217.287 -161.579 221.399C-166.547 226.04 -166.195 227.507 -159.27 231.019C-155.959 232.698 -154.543 232.853 -151.858 231.832C-146.12 229.65 -133.663 233.489 -124.502 240.263C-122.74 241.566 -121.298 243.115 -121.298 243.705C-121.298 244.295 -122.983 243.494 -125.043 241.926C-131.433 237.06 -138.62 233.96 -145.049 233.296C-152.097 232.569 -154.107 233.659 -155.128 238.766C-155.947 242.863 -161.703 246.799 -166.885 246.805C-168.837 246.808 -172.147 245.525 -174.312 243.928C-179.37 240.195 -183.965 240.222 -187.75 244.008C-190.398 246.656 -190.657 247.664 -190.197 253.518C-189.914 257.119 -188.686 262.14 -187.468 264.676C-185.345 269.096 -185.004 269.301 -179.205 269.635C-173.858 269.943 -172.956 270.371 -171.429 273.324C-170.479 275.161 -169.702 278.201 -169.702 280.078C-169.702 285.913 -158.195 293.394 -146.3 295.292L-140.313 296.247L-147.364 295.96C-153.12 295.726 -155.713 294.9 -161.49 291.458L-168.565 287.242L-173.744 290.737C-176.758 292.772 -178.922 295.125 -178.922 296.368C-178.922 299.532 -172.921 304.957 -167.685 306.526C-161.426 308.402 -146.626 308.222 -136.856 306.153C-127.311 304.13 -127.449 304.141 -128.856 305.548C-129.463 306.156 -134.883 307.509 -140.899 308.556C-160.27 311.924 -174.064 308.723 -179.314 299.64C-181.711 295.493 -181.716 295.368 -179.584 293.012C-178.389 291.692 -177.921 290.611 -178.543 290.611C-179.166 290.611 -179.447 289.059 -179.168 287.161C-178.764 284.401 -179.408 283.013 -182.384 280.233C-184.431 278.32 -187.341 276.445 -188.852 276.066C-190.363 275.687 -191.599 274.914 -191.599 274.349C-191.599 272.885 -190.912 273.037 -185.867 275.611C-180.283 278.46 -177.769 281.944 -177.769 286.833C-177.769 291.17 -177.547 291.274 -173.695 288.75C-171.62 287.39 -170.854 285.857 -170.854 283.061C-170.854 278.611 -172.706 273.188 -174.672 271.884C-175.425 271.384 -181.745 271.303 -188.718 271.703C-211.851 273.03 -219.62 268.094 -221.149 251.1C-221.712 244.837 -221.448 243.422 -219.068 239.936C-217.569 237.741 -214.102 234.369 -211.364 232.444C-206.857 229.276 -205.537 228.943 -197.472 228.943C-189.695 228.943 -187.952 229.344 -183.801 232.089C-179.561 234.892 -178.471 235.129 -173.808 234.258C-167.189 233.021 -165.266 231.434 -165.963 227.785C-167.271 220.944 -159.502 215.687 -148.084 215.687C-128.925 215.687 -110.309 226.156 -97.4719 244.148C-92.2092 251.524 -84.459 267.585 -84.4322 271.17C-84.4046 274.897 -78.7127 274.502 -73.3384 270.399C-67.1354 265.663 -58.2319 263.506 -49.4307 264.606C-45.8746 265.05 -42.7344 265.787 -42.4523 266.244C-42.1701 266.701 -44.9726 266.572 -48.6801 265.959C-57.5863 264.486 -66.3967 266.435 -72.106 271.142L-76.3744 274.661L-73.9791 278.026C-72.3963 280.249 -70.5355 281.417 -68.493 281.471C-66.7931 281.516 -64.365 282.011 -63.0973 282.573C-61.5344 283.265 -62.3692 283.377 -65.6904 282.921C-69.7223 282.367 -70.5883 282.58 -70.5883 284.124C-70.5883 285.156 -71.1376 286.001 -71.8089 286.001C-72.4801 286.001 -72.6991 286.535 -72.2953 287.189C-70.6378 289.871 -63.1568 286.937 -58.2475 281.679C-54.6523 277.829 -52.7851 276.645 -51.0292 277.105C-45.5898 278.527 -38.2998 266.08 -36.5993 252.467L-35.7991 246.063L-45.6367 243.464C-59.5196 239.795 -71.1464 234.013 -73.3994 229.655C-75.4738 225.643 -75.7341 219.995 -73.9945 216.744C-73.0923 215.058 -73.2366 213.858 -74.5708 211.953C-76.6208 209.025 -76.8885 203.861 -75.1579 200.627C-74.2869 198.999 -72.7335 198.397 -69.4045 198.397C-65.5567 198.397 -61.9168 196.487 -46.1072 186.17C-15.6723 166.31 -2.5921 156.803 -2.5921 154.543C-2.5921 153.416 -1.10553 151.244 0.711273 149.715C3.60471 147.28 3.82465 146.675 2.48453 144.842C0.30719 141.864 2.24255 138.878 8.23941 135.964L13.1772 133.565L12.6292 127.859C12.1809 123.193 12.5574 121.508 14.6917 118.62C17.1385 115.31 17.1744 115.017 15.2646 113.948C2.1358 106.599 -6.8566 87.5679 -8.03403 64.6388C-8.75388 50.6208 -7.20432 43.5249 -0.744598 31.2583C3.80807 22.6129 14.9562 8.72865 21.1217 4.0252L25.358 0.793457L33.339 9.16426C43.5726 19.8977 52.1044 33.0002 55.0308 42.4763C59.4577 56.8115 57.5052 79.3021 50.5416 94.1855C46.8785 102.015 39.2181 111.125 34.0499 113.798L30.8117 115.473L33.2873 118.822C35.9102 122.37 36.4545 126.622 34.9521 131.83C34.3146 134.039 34.458 135 35.4252 135C36.1884 135 38.3663 136.106 40.2651 137.458C42.8993 139.334 43.59 140.583 43.18 142.729C42.7712 144.867 43.27 145.779 45.2636 146.537C48.5107 147.772 51.5746 151.998 51.5746 155.243C51.5746 156.736 52.708 158.2 54.4937 159.013C56.0992 159.745 69.7129 167.988 84.7463 177.332C99.7798 186.675 115.174 195.885 118.956 197.799C122.738 199.713 126.578 202.611 127.489 204.24C129.667 208.134 128.419 212.899 124.711 214.842L121.814 216.36L125.302 218.94C129.743 222.224 129.706 224.939 125.149 230.13C120.356 235.589 112.695 239.351 100.301 242.329C94.7359 243.667 89.5603 244.936 88.7995 245.151C86.0198 245.934 95.1705 272.114 99.4721 275.684C100.423 276.474 101.843 276.405 103.893 275.471C107.654 273.757 111.383 275.464 114.163 280.172C115.516 282.463 117.309 283.591 120.409 284.104C127.623 285.296 128.359 285.03 130.409 280.483C131.491 278.082 133.431 275.618 134.719 275.008C136.026 274.388 138.245 270.941 139.737 267.209C146.679 249.853 159.501 235.138 173.833 228.08C196.516 216.909 220.974 219.594 219.636 233.109C219.331 236.19 219.8 237.177 222.142 238.38C226.571 240.654 232.859 240.176 238.42 237.141C245.503 233.276 250.57 232.645 257.649 234.748C269.348 238.223 275.854 246.625 274.795 256.891C273.897 265.592 270.766 271.035 264.687 274.461C259.878 277.171 258.745 277.314 244.165 277.047C234.333 276.868 228.185 277.221 227.223 278.019C225.421 279.515 223.925 288.303 224.931 291.475C225.323 292.71 226.914 294.298 228.466 295.006C231.177 296.241 231.282 296.134 231.138 292.284C231.033 289.495 231.832 287.372 233.767 285.3C237.105 281.727 242.521 278.75 244.405 279.454C245.154 279.733 244.212 280.576 242.31 281.326C240.409 282.076 237.412 284.064 235.651 285.744C233.093 288.186 232.502 289.69 232.712 293.237C232.856 295.678 233.389 297.932 233.896 298.246C237.689 300.591 230.482 310.184 222.692 313.16C218.535 314.748 215.173 314.987 204.594 314.45C197.448 314.088 190.175 313.443 188.432 313.017C185.324 312.259 185.262 312.346 185.262 317.501C185.262 321.385 184.542 323.596 182.502 325.968L179.741 329.178L186.02 335.962C189.473 339.692 194.916 346.187 198.115 350.394C204.4 358.66 216.127 381.874 219.172 392.076C225.971 414.86 226.094 449.715 219.464 474.776C218.017 480.249 218.065 481.481 219.954 487.209C225.405 503.735 233.614 514.19 256.703 534.013C266.091 542.073 272.796 546.77 279.752 550.158C291.42 555.841 296.6 559.576 298.85 563.928C301.282 568.633 300.925 571.341 296.868 578.954C294.104 584.14 293.548 586.111 294.563 587.126C296.857 589.42 296.025 590.392 293.568 588.288C291.274 586.323 276.881 580.033 274.53 579.968C273.868 579.949 272.799 581.913 272.153 584.333L270.98 588.731L280.527 590.825C286.19 592.067 291.863 592.632 294.472 592.215C300.429 591.262 306.494 593.123 310.926 597.264C314.465 600.571 314.589 600.993 314.131 608.186C313.815 613.152 314.082 615.667 314.924 615.667C315.622 615.667 317.967 617.498 320.135 619.735C324.538 624.279 324.72 625.76 323.006 643.075L322.061 652.616L327.402 657.734L332.742 662.852L327.863 665.678C325.179 667.232 319.24 669.629 314.665 671.004C307.858 673.049 305.657 673.275 302.564 672.248C298.116 670.77 292.331 665.602 288.292 659.499C285.52 655.308 285.1 655.115 277.114 654.347C272.551 653.909 266.483 652.989 263.631 652.304C251.102 649.292 239.34 640.288 237.316 632.159C236.715 629.745 235.377 624.139 234.343 619.701C233.284 615.153 229.323 605.423 225.264 597.398C218.613 584.246 217.734 583.049 213.71 581.666C203.017 577.989 193.706 568.101 186.428 552.694L182.853 545.126L172.821 554.786C153.974 572.934 128.17 588.546 102.86 597.114C96.5213 599.26 90.8684 601.434 90.298 601.944C88.8139 603.272 101.118 622.473 104.589 624.244C106.173 625.053 110.007 625.795 113.108 625.894C123.517 626.224 129.486 631.707 126.898 638.563C125.809 641.448 125.957 642.29 127.891 644.225C131.481 647.815 131.087 654.106 127.002 658.418C115.988 670.044 95.4571 677.962 65.8389 682.004C53.6066 683.674 12.9433 685.075 3.74667 684.144ZM24.8634 677.77C24.5205 674.183 24.1523 673.849 20.1695 673.52L15.8477 673.162V677.769C15.8477 682.12 16.0562 682.398 19.5932 682.76C24.4757 683.261 25.3125 682.469 24.8634 677.77ZM2.01794 677.47C2.01794 672.136 0.711487 671.051 -5.76129 671.012C-8.06317 670.998 -8.35437 671.57 -8.35437 676.11C-8.35437 681.016 -8.20193 681.243 -4.60889 681.689C-2.54886 681.944 -0.215088 682.237 0.577271 682.338C1.5387 682.461 2.01794 680.842 2.01794 677.47ZM14.6951 677.912C14.6951 673.904 14.3564 673.299 12.102 673.285C10.6758 673.276 8.34207 672.957 6.91586 672.575C4.50085 671.927 4.32278 672.245 4.32278 677.201V682.523H9.50894H14.6951V677.912ZM37.5262 678.2C37.179 674.004 37.0249 673.867 32.2706 673.523L27.3725 673.169V677.846V682.523H32.6283H37.8841L37.5262 678.2ZM50.4222 677.849V673.175L44.9478 673.526C39.5262 673.874 39.47 673.919 39.1158 678.2L38.7581 682.523H44.5901H50.4222V677.849ZM73.4716 679.204C77.241 678.405 77.4966 678.067 77.3705 674.057C77.2962 671.697 77.037 669.578 76.7943 669.35C76.5515 669.121 74.2784 669.274 71.7429 669.69C67.6835 670.356 67.0881 670.858 66.7564 673.891C66.5491 675.786 65.8357 677.854 65.1712 678.488C64.3376 679.284 64.1326 678.681 64.5096 676.546C65.3208 671.952 64.2468 671.15 58.2008 671.831L52.727 672.448V677.045V681.641L61.0826 680.85C65.6781 680.415 71.2532 679.675 73.4716 679.204ZM-9.50699 675.224C-9.50699 670.251 -9.52777 670.227 -14.6932 669.045L-19.8793 667.858V673.365C-19.8793 679.316 -19.2278 679.981 -13.2525 680.126C-9.58926 680.215 -9.50699 680.107 -9.50699 675.224ZM-22.9789 667.498C-23.4926 667.02 -25.5984 666.273 -27.6586 665.839L-31.404 665.049V670.79C-31.404 676.472 -31.36 676.541 -27.0822 677.559L-22.7604 678.588L-22.4025 673.478C-22.2057 670.668 -22.4648 667.977 -22.9789 667.498ZM86.437 676.775C88.0568 676.762 88.454 675.738 88.454 671.572C88.454 666.052 88.3831 665.996 82.8357 667.106C79.4434 667.784 79.2341 668.127 79.2341 673.003C79.2341 677.81 79.4198 678.131 81.8272 677.486C83.2534 677.104 85.3278 676.784 86.437 676.775ZM-32.5564 669.956C-32.5564 664.654 -32.7807 664.227 -36.1859 663.04C-41.4966 661.188 -41.6181 661.276 -42.0013 667.25C-42.3315 672.396 -42.1451 672.806 -38.8952 674.078C-33.0297 676.374 -32.5564 676.066 -32.5564 669.956ZM94.7177 674.482C97.2152 673.533 97.6737 672.638 97.6737 668.719C97.6737 663.916 97.087 663.496 92.1995 664.806C89.5607 665.514 88.6996 669.596 90.306 673.783C91.1316 675.935 90.9661 675.909 94.7177 674.482ZM-44.0814 666.04C-44.0814 660.169 -44.2295 659.879 -47.9088 658.548C-53.3996 656.562 -53.4628 656.612 -53.0762 662.639C-52.7577 667.602 -52.3478 668.303 -48.6913 670.13C-46.4727 671.238 -44.5279 672.146 -44.3694 672.147C-44.211 672.147 -44.0814 669.4 -44.0814 666.04ZM52.4843 670.932C74.5232 668.536 102.614 660.922 119.958 652.643C127.656 648.969 129.056 647.096 126.001 644.56C124.712 643.49 123.165 643.807 118.737 646.052C110.311 650.322 91.3635 656.659 79.1282 659.298C38.1167 668.143 -10.9762 663.976 -54.3993 647.962C-63.7162 644.526 -69.4359 643.571 -69.4359 645.451C-69.4359 645.982 -63.3421 649.299 -55.8942 652.821C-21.4303 669.119 14.2746 675.086 52.4843 670.932ZM105.798 670.39C108.713 668.883 109.199 667.966 109.199 663.973C109.199 659.67 109 659.375 106.606 660.122C99.3446 662.384 99.295 662.437 99.7697 667.416C100.269 672.656 100.857 672.946 105.798 670.39ZM318.754 667.959C329.887 663.561 330.007 663.388 325.413 658.302C320.568 652.939 319.606 648.847 321.182 640.32C323.446 628.068 322.926 624.43 318.334 620.397C316.093 618.43 313.59 616.82 312.771 616.82C311.603 616.82 311.527 615.625 312.416 611.282C313.912 603.98 312.834 600.257 308.287 597.013C305.187 594.801 302.96 594.315 295.324 594.183C287.138 594.041 280.106 592.846 274.26 590.602C273.212 590.2 274.744 592.952 277.664 596.717C290.375 613.109 290.408 621.078 277.77 622.293C267.615 623.269 260.541 620.796 253.585 613.838C250.236 610.489 247.496 608.256 247.496 608.876C247.496 609.495 245.163 612.498 242.31 615.548C239.138 618.94 237.126 622.166 237.13 623.855C237.144 629.647 239.733 635.567 244.212 640.047C251.896 647.732 259.916 650.577 281.24 653.184C286.13 653.781 287.08 654.384 289.714 658.557C297.701 671.212 304.745 673.493 318.754 667.959ZM-244.757 668.189C-241.635 666.574 -235.748 660.405 -231.594 654.396C-229.805 651.808 -228.692 651.4 -223.423 651.4C-214.695 651.4 -200.233 647.394 -193.605 643.14C-186.339 638.477 -182.194 632.245 -181.491 624.93C-180.982 619.636 -181.212 619.014 -184.994 615.448C-187.22 613.35 -189.659 610.421 -190.414 608.941L-191.785 606.249L-195.85 610.998C-202.093 618.292 -207.773 620.771 -218.35 620.816C-225.192 620.845 -227.686 620.406 -229.188 618.907C-233.234 614.866 -230.546 606.422 -221.619 595.127C-219.024 591.843 -217.042 589.161 -217.215 589.168C-217.388 589.175 -220.076 589.953 -223.187 590.897C-226.299 591.841 -233.041 592.616 -238.169 592.618C-248.274 592.622 -253.539 594.674 -256.197 599.641C-257.484 602.046 -257.14 609.407 -255.547 613.56C-255.05 614.855 -255.73 615.604 -257.896 616.148C-265.807 618.134 -268.013 625.09 -265.189 639.151C-263.532 647.407 -265.112 653.477 -269.988 657.581C-271.879 659.171 -273.425 660.752 -273.425 661.094C-273.425 662.945 -256.276 669.626 -251.183 669.759C-249.408 669.806 -246.517 669.099 -244.757 668.189ZM115.578 665.676C117.671 664.305 118.418 662.788 118.418 659.913C118.418 655.668 117.73 655.324 113.287 657.349C110.883 658.444 110.351 659.488 110.351 663.112C110.351 667.984 111.326 668.462 115.578 665.676ZM-54.4537 660.734C-54.4537 655.433 -54.6777 655.006 -58.0829 653.818C-60.0792 653.122 -61.8616 652.553 -62.0437 652.553C-62.2259 652.553 -62.5843 654.239 -62.8399 656.299C-63.2957 659.973 -63.3081 659.962 -63.489 655.706C-63.6404 652.142 -64.3434 650.958 -67.4191 649.082C-72.1037 646.226 -72.8934 646.222 -72.8934 649.055C-72.8934 652.8 -59.2066 666.385 -55.4333 666.385C-54.8945 666.385 -54.4537 663.842 -54.4537 660.734ZM66.1414 659.992C87.0554 656.852 116.257 647.402 122.427 641.776C129.113 635.682 125.93 629.033 115.86 628.057C110.56 627.543 108.752 627.982 101.847 631.454C89.7819 637.522 68.5261 644.197 52.6156 646.915C40.6636 648.956 35.3935 649.254 20.4576 648.734C-5.23166 647.839 -23.1189 643.353 -44.6575 632.404C-56.1443 626.565 -56.201 626.551 -61.7928 627.967C-64.8784 628.748 -67.6661 629.65 -67.9874 629.972C-69.3667 631.351 -68.3863 636.491 -66.1426 639.643C-64.1191 642.485 -61.0669 643.929 -47.8472 648.295C-23.9713 656.182 -8.29309 659.354 21.0339 662.233C28.7538 662.991 54.7798 661.698 66.1414 659.992ZM125.214 657.7C127.181 655.459 128.791 652.865 128.791 651.936C128.791 649.755 128.546 649.79 123.67 652.667C120.471 654.555 119.571 655.82 119.571 658.43C119.571 662.817 120.869 662.649 125.214 657.7ZM53.8796 645.128C67.2271 642.761 82.081 638.312 94.4659 632.972C105.764 628.1 107.165 627.178 104.631 626.282C102.989 625.701 101.088 623.728 96.7596 618.112L94.6461 615.37L84.2749 618.422C64.3396 624.289 52.2039 626.155 29.6775 626.82C1.44937 627.654 -11.5905 625.408 -35.6332 615.573C-39.1002 614.155 -39.5117 614.281 -43.711 618.043C-46.1447 620.223 -49.3805 622.817 -50.902 623.807L-53.6681 625.607L-48.5866 628.56C-35.4906 636.171 -15.1304 643.148 0.865326 645.508C5.61932 646.209 10.8056 647.01 12.3903 647.288C17.7964 648.236 44.0608 646.869 53.8796 645.128ZM44.0834 624.839C64.9389 622.459 93.0639 615.481 93.0639 612.686C93.0639 610.027 90.8197 609.698 85.2587 611.541C65.9427 617.942 36.2085 621.182 14.751 619.223C-0.397614 617.841 -17.092 614.593 -27.549 610.995C-32.4338 609.314 -34.4429 609.078 -35.6108 610.047C-36.4665 610.758 -37.1665 611.73 -37.1665 612.208C-37.1665 614.744 -10.7307 623.077 2.59406 624.742C14.0758 626.176 31.9949 626.218 44.0834 624.839ZM282.071 619.946C287.958 616.982 285.825 609.224 275.707 596.801C271.565 591.714 269.987 590.49 268.823 591.456C265.75 594.007 260.669 594.689 256.816 593.068C251.862 590.985 237.975 577.534 232.515 569.531C228.42 563.529 224.204 554.811 211.202 525.47C208.182 518.655 205.561 513.079 205.377 513.079C205.193 513.079 203.904 514.922 202.512 517.174C199.374 522.251 199.816 524.925 205.953 538.023C212.16 551.271 217.804 560.34 226.463 570.981C234.578 580.951 234.845 583.31 226.803 573.969C216.945 562.521 207.354 546.497 200.833 530.579L198.322 524.45L191.18 534.28L184.039 544.111L188.577 553.138C194.446 564.813 201.204 573.285 207.674 577.077C211.725 579.452 215.648 580.425 225.847 581.587C233 582.401 239.737 583.447 240.817 583.909C243.416 585.023 247.204 593.057 248.181 599.53C249.129 605.802 250.298 608.314 254.264 612.6C261.186 620.081 274.708 623.653 282.071 619.946ZM-206.581 617.225C-198.574 613.889 -193.666 607.436 -192.284 598.426C-191.03 590.259 -187.751 583.976 -183.975 582.508C-182.146 581.797 -175.236 580.659 -168.618 579.979C-154.287 578.507 -149.011 575.934 -141.917 566.959C-137.491 561.358 -129.365 546.701 -129.365 544.317C-129.365 542.902 -143.222 523.453 -144.231 523.453C-144.652 523.453 -145.658 525.694 -146.467 528.433C-150.753 542.952 -162.698 563.986 -172.655 574.551C-179.044 581.329 -178.367 579.014 -171.633 571.057C-163.108 560.983 -155.304 547.317 -149.929 533.052L-145.292 520.745L-149.681 512.44L-154.07 504.135L-157.117 511.968C-158.793 516.277 -162.095 523.314 -164.454 527.607C-169.776 537.292 -192.756 567.091 -204.089 579.005C-208.741 583.894 -212.235 588.398 -211.855 589.013C-210.349 591.451 -204.486 591.615 -200.048 589.342C-195.632 587.081 -182.666 574.349 -178.141 567.831C-176.821 565.929 -170.789 554.518 -164.737 542.472C-154.578 522.251 -150.239 514.627 -150.146 516.837C-150.081 518.383 -171.007 559.532 -175.16 566.028C-179.84 573.346 -190.252 584.622 -196.67 589.322C-201.749 593.042 -208.005 593.679 -211.996 590.883C-214.333 589.246 -214.718 589.446 -219.13 594.61C-225.5 602.063 -229.862 610.382 -229.418 614.234C-228.745 620.084 -217.104 621.609 -206.581 617.225ZM63.364 615.257C75.9966 612.853 89.6097 608.641 89.5889 607.142C89.5794 606.442 89.1063 605.135 88.5382 604.237C87.6652 602.858 84.7686 603.168 69.8281 606.238C60.1056 608.236 47.6868 610.402 42.2308 611.052C27.1913 612.843 -3.08737 610.252 -25.01 605.299C-28.5869 604.49 -30.0579 604.625 -31.3154 605.874C-32.7323 607.282 -32.5319 607.665 -29.8431 608.687C-24.3795 610.765 -8.26404 614.616 1.93542 616.282C14.3132 618.303 50.5319 617.699 63.364 615.257ZM241.721 613.951C245.07 610.496 245.689 608.962 246.115 603.065C246.505 597.67 246.078 595.098 244.12 591.052C242.749 588.22 240.744 585.549 239.664 585.115C237.506 584.249 219.837 582.486 219.837 583.137C219.837 583.359 222.364 588.306 225.452 594.129C228.541 599.952 232.266 607.699 233.732 611.345C235.197 614.99 236.717 617.972 237.11 617.972C237.503 617.972 239.578 616.163 241.721 613.951ZM-170.647 595.029C-166.958 587.799 -163.939 581.754 -163.939 581.595C-163.939 580.91 -178.69 582.545 -182.204 583.619C-186.996 585.084 -190.384 591.785 -190.421 599.875C-190.45 606.343 -188.324 611.028 -183.852 614.344L-180.65 616.718L-179.002 612.446C-178.096 610.097 -174.336 602.259 -170.647 595.029ZM26.6128 593.478C27.026 584.444 27.3659 563.436 27.3682 546.795C27.3682 526.986 27.7787 516.537 28.5487 516.537C29.3423 516.537 29.4691 531.724 28.9387 563.22L28.1528 609.904L33.2368 609.893C36.0331 609.887 41.1053 609.549 44.5084 609.14C50.6029 608.408 50.8072 608.257 58.1126 599.064C76.2653 576.222 93.5974 546.478 100.954 525.543C106.087 510.936 108.371 497.816 106.798 491.973C105.3 486.409 100.304 481.387 95.2659 480.379C89.6705 479.26 79.7501 479.513 76.1399 480.868C71.4333 482.633 64.252 487.804 64.252 489.426C64.252 490.193 63.1414 491.808 61.7842 493.016C57.64 496.703 55.0848 503.794 55.0573 511.683C54.9908 530.814 49.5186 561.998 42.8826 581.066C38.5648 593.473 31.112 609.417 30.1023 608.407C29.7834 608.088 30.9104 605.088 32.6067 601.74C43.9482 579.354 51.2841 548.538 53.336 514.661C54.2188 500.086 54.0267 499.464 45.9801 490.86C39.0946 483.498 35.8749 481.956 27.3839 481.956C18.2579 481.956 13.4305 484.466 4.9624 493.614L-1.70117 500.813L-0.907288 510.116C1.50073 538.336 8.30777 566.619 22.1384 605.869C22.9227 608.095 22.8901 608.101 21.1953 606.029C20.2298 604.849 16.8654 596.032 13.7189 586.434C5.7775 562.211 0.245148 536.653 -2.57629 511.156C-3.21945 505.343 -4.73154 498.287 -5.93646 495.476C-8.54709 489.384 -14.3647 482.483 -18.8407 480.168C-28.1351 475.361 -42.4456 481.395 -48.2306 492.56C-49.1172 494.272 -50.6234 498.67 -51.5777 502.335C-53.2169 508.629 -53.177 509.406 -50.8515 516.395C-45.3901 532.81 -26.346 566.244 -6.12384 594.919C4.27167 609.66 3.48431 609.214 19.9901 609.723L25.8615 609.904L26.6128 593.478ZM38.8972 608.573C38.8972 608.204 43.0462 600.183 48.1171 590.748C62.4943 563.999 76.7396 530.037 77.0101 521.865C77.0551 520.519 77.5805 518.381 78.1788 517.113C78.95 515.478 79.0888 516.521 78.6559 520.697C77.9616 527.393 73.394 541.353 67.1934 555.728C58.8718 575.02 38.8972 612.324 38.8972 608.573ZM2.85825 591.173C-12.827 561.959 -24.5078 533.938 -26.6224 520.451C-27.1671 516.977 -27.1684 513.886 -26.6224 513.551C-26.0814 513.216 -25.6388 514.41 -25.6388 516.204C-25.6388 520.839 -21.8546 533.844 -17.0338 545.777C-12.8242 556.197 2.44855 587.376 9.71997 600.394C11.9332 604.357 13.2798 607.598 12.7123 607.598C12.1449 607.598 7.71182 600.207 2.86121 591.173H2.85825ZM-8.35376 594.633C-34.2366 557.643 -49.9692 527.929 -56.4007 503.886C-60.2096 489.647 -63.5884 482.18 -68.8689 476.335C-76.005 468.434 -84.0335 468.029 -91.8833 475.174C-95.9756 478.898 -96.1319 479.312 -95.4355 484.562C-93.4492 499.538 -84.0943 523.125 -72.9246 541.319C-61.8957 559.284 -34.7882 592.597 -23.4003 602.181C-20.1428 604.922 -16.4219 606.294 -16.4219 604.753C-16.4219 604.456 -21.4483 597.583 -27.5916 589.48C-49.1808 561.004 -67.5722 530.601 -72.0657 515.96C-74.4029 508.345 -75.3453 502.705 -74.2806 502.705C-73.8076 502.705 -72.8187 505.873 -72.083 509.745C-69.2363 524.726 -47.5265 561.487 -22.8022 593.19C-12.6593 606.196 -11.3311 607.151 -2.9534 607.462L0.718872 607.598L-8.35376 594.633ZM66.4548 602.673C95.4922 568.536 120.237 528.975 124.298 510.197C125.243 505.827 125.951 504.237 126.22 505.878C128.208 517.975 104.848 558.08 73.1051 597.068L66.194 605.556L70.121 604.735C72.2808 604.283 75.0852 603.26 76.353 602.46C81.3749 599.29 97.5094 583.303 107.811 571.289C131.404 543.774 146.386 516.033 150.907 491.491C152.141 484.795 152.061 483.952 149.922 481.064C145.855 475.573 140.541 472.735 134.326 472.735C121.097 472.735 113.236 482.73 108.037 506.163C101.914 533.761 87.7924 562.247 65.5804 591.809C60.7296 598.265 56.0429 604.516 55.1656 605.7C53.6527 607.742 53.826 607.81 58.5209 607.017C61.9803 606.432 64.3703 605.124 66.4548 602.673ZM-35.8849 591.724C-70.3776 554.428 -90.6769 519.424 -96.5329 487.143C-98.1821 478.053 -99.3579 474.249 -102.77 466.971C-105.211 461.762 -121.146 458.127 -127.424 461.346C-132.385 463.891 -137.432 469.655 -137.432 472.777C-137.432 484.991 -126.386 510.387 -113.054 528.823C-101.501 544.799 -65.0879 588.931 -61.5406 591.255C-58.2313 593.424 -30.7224 602.895 -27.5712 602.951C-26.1209 602.976 -28.704 599.488 -35.8849 591.724ZM-61.7947 581.15C-92.4036 546.413 -109.693 521.242 -114.829 503.936C-116.982 496.683 -117.137 494.636 -115.535 494.636C-114.901 494.636 -114.369 496.322 -114.351 498.382C-114.238 511.986 -90.4863 547.342 -55.7722 585.581C-51.1095 590.717 -47.8272 594.919 -48.4783 594.919C-49.1294 594.919 -55.1217 588.723 -61.7947 581.15ZM92.5538 598.863C97.7791 597.363 99.6287 595.803 110.417 583.799C142.083 548.566 161.653 519.838 166.279 501.796L167.968 495.212L167.532 500.728C166.367 515.481 144.356 548.552 111.058 585.578C106.841 590.268 103.608 594.322 103.873 594.588C104.139 594.854 107.204 593.87 110.683 592.401C116.458 589.965 118.544 587.881 134.565 568.542C174.234 520.657 185.194 502.025 189.285 475.51C189.925 471.363 189.55 470.187 186.18 465.767C181.139 459.157 176.007 456.169 171.423 457.176C162.504 459.135 156.632 468.859 153.546 486.777C151.258 500.065 146.436 514.735 140.429 526.686C130.151 547.131 108.355 575.465 88.8565 593.729C79.0448 602.92 78.9377 602.771 92.5538 598.863ZM266.58 590.951C268.715 589.364 268.465 588.929 261.103 581.441C246.643 566.732 225.015 537.848 218.114 524.029C211.755 511.295 209.308 503.857 211.478 503.857C212.11 503.857 212.958 505.926 213.362 508.454C214.669 516.626 224.582 533.816 238.284 551.669C250.72 567.873 267.501 586.85 269.394 586.85C270.916 586.85 272.629 575.111 271.62 571.592C270.409 567.369 265.508 558.917 263.121 556.936C262.134 556.116 261.326 554.9 261.326 554.233C261.326 553.566 262.631 554.247 264.227 555.746C267.925 559.222 274.002 571.317 274.009 575.219C274.009 577.89 274.919 578.526 282.587 581.25C292.492 584.767 292.799 584.633 297.107 574.893C299.2 570.16 299.352 568.871 298.155 565.981C296.325 561.562 289.891 556.556 280.772 552.457C270.682 547.921 256.408 536.881 241.085 521.761C230.112 510.933 227.491 507.612 223.441 499.401C220.825 494.097 218.684 488.811 218.684 487.654C218.684 482.935 216.716 484.877 214.153 492.127C212.656 496.36 210.27 502.157 208.85 505.01L206.27 510.197L215.699 531.521C220.886 543.25 227.074 556.529 229.449 561.029C234.748 571.066 243.728 581.833 251.934 587.988C258.484 592.902 262.785 593.772 266.58 590.951ZM-69.5834 585.781C-70.453 584.56 -78.9876 574.056 -88.5491 562.44C-111.804 534.187 -120.056 522.821 -126.851 509.687C-133.936 495.991 -136.891 487.02 -139.685 470.732C-141.97 457.417 -145.121 449.429 -148.885 447.414C-152.252 445.612 -160.785 445.987 -163.756 448.069C-168.51 451.399 -168.689 454.219 -165.034 468.154C-158.901 491.533 -150.585 509.792 -136.981 529.745C-129.684 540.449 -114.121 557.641 -105.87 564.113C-100.618 568.232 -100.617 568.232 -111.873 553.386C-124.415 536.845 -138.768 511.237 -148.682 487.72C-154.187 474.659 -155.188 471.582 -153.929 471.582C-153.409 471.582 -151.772 475.083 -150.292 479.363C-143.367 499.381 -123.868 534.988 -109.277 554.26C-98.1655 568.936 -90.5358 576.16 -79.256 582.684C-69.1852 588.509 -67.1864 589.149 -69.5834 585.781ZM130.761 583.224C143.397 576.499 145.296 575.003 153.778 565.099C169.702 546.504 192.093 507.84 201.557 482.594C203.683 476.922 205.584 473.119 205.781 474.142C206.307 476.874 199.004 493.939 188.846 513.716C179.364 532.174 165.547 553.983 157.734 562.821C155.126 565.771 152.993 568.524 152.993 568.94C152.993 570.761 167.174 558.524 177.195 548.056C194.718 529.751 205.975 511.075 214.057 486.898C218.84 472.59 221.996 456.273 220.656 452.78C219.437 449.602 212.723 446.232 207.603 446.228C198.1 446.22 194.915 451.58 191.03 474.127C185.819 504.373 177.123 519.697 139.739 564.517C122.396 585.31 120.269 588.003 121.188 588.003C121.515 588.003 125.823 585.852 130.761 583.224ZM-182.996 551.199C-168.733 532.785 -158.812 515.726 -157.465 507.301C-157.061 504.773 -156.34 502.705 -155.864 502.705C-154.839 502.705 -160.733 486.603 -161.766 486.582C-162.155 486.574 -163.4 489.031 -164.531 492.042C-168.259 501.964 -175.93 512.281 -187.665 523.155C-204.506 538.76 -214.187 546.131 -223.868 550.721C-234.535 555.778 -239.466 559.414 -241.812 563.952C-243.894 567.979 -242.981 571.867 -238.286 578.968L-235.495 583.189L-227.173 579.951C-219.079 576.801 -218.815 576.573 -217.557 571.614C-216.068 565.751 -211.388 557.306 -207.853 554.107C-204.499 551.071 -204.812 552.933 -208.365 557.156C-214.167 564.052 -216.133 569.432 -215.481 576.625C-215.151 580.261 -214.484 583.878 -213.999 584.663C-212.71 586.749 -199.423 572.407 -182.996 551.199ZM-51.4335 496.345L-48.9899 490.025H-52.6438C-54.6534 490.025 -56.9904 489.377 -57.8373 488.584C-59.5234 487.006 -59.5617 486.729 -56.6476 497.229C-55.8118 500.241 -54.8466 502.696 -54.5027 502.685C-54.1588 502.674 -52.7776 499.821 -51.4335 496.345ZM-0.895691 494.822C-3.42239 494.297 -4.19318 495.266 -3.22836 497.756C-2.47498 499.7 -2.32632 499.686 -0.723267 497.517C0.796539 495.461 0.777985 495.17 -0.895691 494.822ZM56.1844 497.517C56.1844 496.567 55.4228 495.788 54.492 495.788C53.461 495.788 53.0587 496.464 53.4628 497.517C53.8277 498.468 54.5893 499.247 55.1553 499.247C55.7213 499.247 56.1844 498.468 56.1844 497.517ZM60.1715 491.478C61.7818 489.741 63.0993 487.577 63.0993 486.67C63.0993 481.083 53.2394 478.613 49.9113 483.365C47.4499 486.88 47.6496 488.51 50.9459 491.806C54.583 495.444 56.5595 495.374 60.1715 491.478ZM3.44089 490.685C5.17203 488.157 4.34134 483.2 1.97427 481.933C-2.6926 479.435 -8.18417 483.961 -6.58832 488.991C-5.31726 492.996 1.11499 494.083 3.44089 490.685ZM113.3 484.529C113.134 484.359 111.701 484.894 110.115 485.717C107.66 486.991 107.391 487.636 108.304 490.06L109.376 492.907L111.488 488.872C112.649 486.653 113.465 484.699 113.3 484.529ZM-47.7952 487.078C-45.2432 485.29 -44.363 480.432 -46.1157 477.806C-48.9478 473.564 -56.6853 473.641 -58.33 477.928C-61.3557 485.814 -54.4958 491.772 -47.7952 487.078ZM15.0718 482.994C17.2477 482.809 10.9496 481.044 7.66415 480.919C4.77277 480.808 4.71033 480.942 5.89597 484.731L7.12497 488.659L10.4222 485.884C12.2357 484.358 14.328 483.057 15.0718 482.994ZM47.2467 484.838C47.7584 482.161 47.477 481.956 43.2831 481.956H38.7687L42.0022 484.802C46.0703 488.381 46.5688 488.384 47.2467 484.838ZM-6.04956 480.095C-6.04956 479.851 -8.22098 479.651 -10.8751 479.651H-15.7006L-12.4206 483.075L-9.14066 486.499L-7.59512 483.52C-6.74503 481.881 -6.04956 480.34 -6.04956 480.095ZM69.5476 482.533L73.7932 479.651L70.4633 479.667C68.6317 479.676 65.9948 479.988 64.6037 480.361C62.4435 480.94 62.2738 481.358 63.4403 483.227C64.1917 484.43 64.9177 485.414 65.054 485.414C65.1904 485.414 67.2125 484.118 69.5476 482.533ZM111.458 482.588C113.321 480.343 112.599 477.389 109.721 475.481C105.224 472.5 99.8526 479.063 103.667 482.878C105.562 484.774 109.774 484.617 111.458 482.588ZM-57.7974 474.629C-55.5653 473.066 -55.9054 472.849 -63.2913 471.129C-67.6216 470.121 -72.4611 468.982 -74.0458 468.597C-76.7223 467.947 -76.6813 468.055 -73.4695 470.124C-69.4133 472.736 -62.5667 480.269 -62.4172 482.285C-62.3601 483.055 -61.8324 482.023 -61.2449 479.991C-60.6574 477.959 -59.1061 475.546 -57.7974 474.629ZM-35.0518 478.498C-33.957 478.498 -33.6783 478.103 -34.3428 477.493C-35.4336 476.491 -45.2338 474.636 -45.2338 475.431C-45.2338 475.661 -44.6651 477.481 -43.97 479.475L-42.7061 483.101L-39.7809 480.8C-38.172 479.534 -36.0439 478.498 -35.0518 478.498ZM119.074 477.41C125 470.849 133.237 468.938 141.657 472.169C142.656 472.553 143.655 471.31 144.488 468.649C145.542 465.28 145.492 464.645 144.21 465.136C143.35 465.466 135.769 467.41 127.363 469.454C118.957 471.499 111.909 473.288 111.7 473.43C111.49 473.572 112.184 475.007 113.24 476.619C114.296 478.231 114.825 480.091 114.416 480.753C112.75 483.449 115.22 481.677 119.074 477.41ZM152.993 479.075C152.993 478.124 152.152 477.346 151.123 477.346C149.592 477.346 149.513 477.659 150.688 479.075C151.477 480.026 152.318 480.804 152.558 480.804C152.797 480.804 152.993 480.026 152.993 479.075ZM62.2966 478.454C110.049 475.205 159.211 461.559 206.426 438.446L223.557 430.06L222.738 423.445C222.288 419.807 221.742 416.646 221.526 416.421C221.309 416.196 216.724 418.676 211.336 421.931C187.784 436.159 151.006 448.676 111.504 455.907C80.2119 461.635 34.7496 466.439 21.629 465.404C16.8646 465.028 8.55817 464.457 3.17035 464.135C-2.21747 463.813 -15.1828 462.47 -25.6416 461.15C-71.7842 455.326 -110.604 445.211 -140.463 431.232C-152.437 425.626 -169.263 415.43 -168.236 414.403C-167.919 414.087 -164.36 415.975 -160.326 418.6C-130.043 438.304 -76.2769 454.018 -16.7597 460.561C9.50439 463.448 8.92712 463.824 -5.62411 453.308C-17.9132 444.426 -18.3143 444.239 -26.7942 443.417C-37.5678 442.372 -57.8566 438.77 -70.0122 435.744C-80.1775 433.213 -105.566 425.765 -109.197 424.249C-110.464 423.719 -116.947 421.115 -123.602 418.461C-130.258 415.807 -143.049 410.134 -152.026 405.855C-171.109 396.758 -169.391 395.828 -170.484 415.847L-171.185 428.697L-152.292 437.945C-107.128 460.052 -55.9928 474.187 -4.32083 478.848C6.00284 479.779 46.3309 479.541 62.2966 478.454ZM101.131 477.454C101.131 475.194 100.78 475.167 93.6402 476.887L90.1828 477.72L93.6402 478.549C99.6736 479.996 101.131 479.783 101.131 477.454ZM154.938 472.447C156.369 469.256 155.772 467.306 152.892 465.765C149.584 463.994 146.078 466.316 146.078 470.278C146.078 474.287 146.808 475.04 150.695 475.04C152.777 475.04 154.152 474.199 154.938 472.447ZM-90.8373 471.347C-89.3203 469.181 -89.2891 468.46 -90.6246 466.449C-94.1436 461.148 -101.14 465.118 -98.4984 470.916C-96.8273 474.585 -93.2455 474.786 -90.8373 471.347ZM-79.8082 468.041L-76.9271 467.926L-79.8082 467.059C-88.1782 464.542 -88.8446 464.543 -88.1838 467.07C-87.7198 468.845 -86.9295 469.294 -85.1238 468.809C-83.7849 468.45 -81.3929 468.104 -79.8082 468.041ZM-135.239 465.377C-134.215 464.143 -134.335 463.622 -135.768 463.072C-138.844 461.891 -139.551 462.249 -138.919 464.666C-138.212 467.37 -137.075 467.59 -135.239 465.377ZM162.872 459.194C162.724 459.038 160.184 459.734 157.226 460.742L151.849 462.574L154.438 464.672C156.987 466.736 157.074 466.712 160.083 463.124C161.765 461.119 163.02 459.351 162.872 459.194ZM191.025 464.702C191.025 463.159 190.472 462.645 189.296 463.097C187.447 463.806 187.091 464.958 188.336 466.203C189.789 467.657 191.025 466.967 191.025 464.702ZM-98.3164 461.968C-98.5956 461.722 -104.15 459.642 -110.66 457.346C-126.573 451.732 -142.393 444.958 -157.12 437.453C-163.828 434.035 -169.662 431.238 -170.085 431.238C-170.508 431.238 -170.854 432.332 -170.854 433.669C-170.854 435.634 -170.344 435.971 -168.185 435.429C-162.916 434.106 -158.315 440.137 -161.876 443.698C-162.966 444.789 -162.151 444.951 -158.13 444.443C-151.736 443.634 -145.932 446.404 -143.226 451.556L-141.333 455.159L-138.893 452.42C-137.552 450.914 -135.378 449.681 -134.062 449.681C-131.148 449.681 -127.061 453.548 -127.057 456.309C-127.057 458.003 -125.901 458.344 -119.854 458.434C-112.807 458.538 -104.148 461.646 -102.223 464.76C-101.677 465.645 -100.873 465.48 -99.6208 464.228C-98.6243 463.231 -98.0372 462.214 -98.3164 461.968ZM38.8972 463.48C47.9924 462.062 60.5621 456.065 68.0861 449.554C72.2134 445.982 73.2542 444.49 72.1196 443.77C71.0033 443.062 71.2275 442.796 72.9498 442.783C75.6444 442.763 81.9226 436.541 86.9247 428.933C95.9464 415.212 104.932 393.083 101.419 393.238C100.944 393.259 95.6282 397.675 89.6064 403.052C74.4287 416.604 66.8012 421.462 54.5557 425.377C39.0875 430.321 32.307 431.306 21.9041 430.119C6.4079 428.352 -7.52567 421.758 -28.4187 406.306C-33.8796 402.268 -38.5726 398.963 -38.8475 398.963C-39.6053 398.963 -35.502 410.186 -31.8936 417.983C-28.0264 426.339 -22.8347 435.071 -18.6484 440.261C-15.5529 444.099 2.01889 457.559 8.15646 460.794C15.0105 464.407 26.5131 465.412 38.8972 463.48ZM-130.517 460.055C-127.808 457.346 -127.708 456.575 -129.71 453.837C-130.706 452.474 -132.346 451.918 -134.608 452.176C-137.408 452.495 -138.077 453.163 -138.396 455.964C-138.653 458.227 -138.097 459.867 -136.735 460.863C-133.997 462.865 -133.226 462.765 -130.517 460.055ZM82.1153 458.771C125.667 452.976 163.763 443.034 193.379 429.736C201.349 426.158 219.026 415.77 220.608 413.736C221.75 412.266 220.056 400.082 218.684 399.907C218.367 399.866 211.366 403.074 203.126 407.035C165.004 425.359 126.403 437.408 89.7799 442.413L76.353 444.248L70.1999 449.733C66.8157 452.749 61.1109 456.841 57.5226 458.825L50.9983 462.432L57.9131 461.752C61.7163 461.378 72.6073 460.036 82.1153 458.771ZM189.948 461.167C192.44 459.834 192.911 455.487 190.794 453.37C186.318 448.893 179.285 455.36 183.529 460.051C185.91 462.682 186.822 462.841 189.948 461.167ZM180.986 454.292C181.318 453.024 181.456 451.987 181.293 451.987C181.13 451.987 179.233 452.607 177.079 453.364C173.213 454.724 173.2 454.753 176.043 455.555C180.35 456.77 180.338 456.773 180.986 454.292ZM196.168 450.161C198.59 446.465 205.391 443.506 209.553 444.339C212.4 444.908 212.723 444.617 213.132 441.107L213.583 437.248L207.202 440.151C203.692 441.747 197.899 444.381 194.329 446.004C187.863 448.942 187.847 448.962 190.295 451.008C193.529 453.71 193.876 453.66 196.168 450.161ZM222.142 449.037C222.142 448.048 221.615 447.566 220.97 447.964C220.326 448.362 220.098 449.171 220.462 449.761C221.45 451.36 222.142 451.062 222.142 449.037ZM-166.361 448.093C-165.326 446.845 -165.542 446.374 -167.372 445.896C-169.108 445.441 -169.702 445.846 -169.702 447.484C-169.702 450.064 -168.221 450.334 -166.361 448.093ZM221.506 443.517C222.936 439.472 219.805 435.735 216.646 437.715C213.921 439.424 213.547 443.226 215.875 445.555C218.354 448.033 220.139 447.387 221.506 443.517ZM-163.363 440.46C-163.363 438.347 -164.057 437.48 -165.961 437.209C-167.52 436.988 -168.837 437.564 -169.254 438.65C-170.401 441.641 -168.793 444.113 -165.961 443.711C-164.057 443.44 -163.363 442.572 -163.363 440.46ZM-19.8793 441.991C-19.8793 441.566 -20.708 440.302 -21.7209 439.182C-23.4607 437.259 -23.7899 437.254 -27.6721 439.092L-31.7816 441.036L-26.6948 441.728C-23.897 442.108 -21.2191 442.497 -20.7437 442.592C-20.2682 442.687 -19.8793 442.417 -19.8793 441.991ZM84.1542 440.856C83.3739 440.541 81.8181 440.521 80.6967 440.814C79.5754 441.106 80.2137 441.364 82.1153 441.388C84.0168 441.411 84.9344 441.172 84.1542 440.856ZM-28.8297 437.781L-24.6569 436.037L-31.035 423.263C-35.2599 414.802 -38.0522 410.486 -39.3065 410.479C-40.3479 410.473 -43.9982 409.165 -47.4181 407.573C-50.8381 405.98 -53.7731 404.818 -53.9403 404.99C-54.1077 405.162 -55.2982 408.438 -56.5861 412.27C-60.6912 424.482 -56.104 434.546 -44.4788 438.832C-39.5148 440.662 -34.9992 440.359 -28.8297 437.781ZM-41.1439 425.026C-40.7894 423.194 -39.7465 420.082 -38.8266 418.11L-37.1543 414.525L-37.799 417.855C-38.1535 419.687 -39.1961 422.799 -40.116 424.771L-41.7886 428.357L-41.1439 425.026ZM114.843 436.238C129.261 433.07 151.421 426.951 154.145 425.386C155.518 424.597 155.369 424.385 153.422 424.357C148.047 424.28 146.606 416.71 151.552 414.539C154.713 413.152 154.764 412.56 151.946 410.01C149.82 408.085 149.688 408.223 147.959 414.17C144.705 425.366 133.834 431.939 123.084 429.21C118.912 428.151 118.514 428.254 118.192 430.483C117.709 433.833 112.964 436.088 109.848 434.449C108.54 433.761 107.128 432.672 106.709 432.029C106.255 431.332 104.394 432.169 102.099 434.104C99.9819 435.888 96.6942 438.064 94.7926 438.938C91.3773 440.509 91.3984 440.52 96.5213 439.827C99.3737 439.441 107.619 437.826 114.843 436.238ZM93.4003 437.482C99.8751 435.275 105.16 429.608 106.953 422.95C108.045 418.894 107.918 417.08 106.186 411.985C105.045 408.627 103.738 405.879 103.281 405.879C101.933 405.879 98.3297 410.964 95.9731 416.191C94.2064 420.11 94.0467 421.481 95.1509 423.249C97.0817 426.341 96.7909 427.657 94.7679 424.983C93.8438 423.761 92.9033 422.983 92.6779 423.254C91.1673 425.068 82.6916 438.151 82.6916 438.668C82.6916 439.892 88.0783 439.295 93.4003 437.482ZM-53.651 434.985C-56.3339 432.309 -57.0011 432.084 -57.9289 433.544C-59.5743 436.132 -59.3209 436.792 -56.4705 437.341C-50.8176 438.43 -50.4794 438.147 -53.651 434.985ZM223.294 434.696C223.294 432.154 223.155 432.075 220.478 433.102C219.044 433.652 218.924 434.173 219.948 435.407C221.839 437.685 223.294 437.376 223.294 434.696ZM-68.9915 431.887C-69.5105 430.534 -70.5307 430.108 -72.1879 430.553C-73.5267 430.913 -75.6593 431.265 -76.9271 431.336C-78.1948 431.407 -76.8985 432.108 -74.0458 432.895C-68.0592 434.546 -67.9775 434.53 -68.9915 431.887ZM-59.0777 432.417C-57.3094 429.113 -61.5483 424.873 -64.8524 426.642C-67.0363 427.811 -67.9709 432.32 -66.3627 433.928C-64.7545 435.536 -60.2464 434.602 -59.0777 432.417ZM116.069 431.322C117.575 428.507 116.551 425.769 113.647 424.847C109.341 423.48 106.199 428.93 109.429 432.16C111.504 434.235 114.728 433.828 116.069 431.322ZM-69.4382 427.205C-63.6228 424.197 -59.0297 416.628 -56.3449 405.626C-55.7229 403.078 -56.129 402.132 -58.517 400.567C-61.301 398.742 -61.5874 398.763 -64.0045 400.964C-67.8764 404.489 -71.5827 406.085 -74.0673 405.296C-75.9036 404.713 -76.8722 405.739 -79.4499 410.996C-81.1788 414.522 -82.9982 417.406 -83.4932 417.406C-83.9881 417.406 -83.0225 414.611 -81.3472 411.195L-78.3013 404.983L-83.9116 398.484L-89.522 391.984L-91.7411 396.338C-92.9617 398.733 -94.925 401.929 -96.104 403.441C-98.9641 407.109 -98.8087 412.349 -95.6548 418.594C-92.0652 425.7 -86.8593 428.933 -79.0044 428.933C-75.5804 428.933 -71.2756 428.155 -69.4382 427.205ZM46.8512 426.024C61.3483 422.139 70.9441 417.382 78.9417 410.113C93.947 396.476 108.624 384.968 115.627 381.347C119.789 379.196 138.581 352.272 143.747 341.059C147.21 333.543 153.576 307.473 152.41 305.585C151.363 303.891 140.408 300.986 135.065 300.986C132.408 300.986 128.012 301.769 125.298 302.727C122.584 303.685 120.111 304.215 119.801 303.905C118.429 302.533 123.578 292.632 127.228 289.623L131.242 286.313L123.104 285.511C118.628 285.07 114.446 285.03 113.811 285.423C111.609 286.784 112.676 288.053 116.649 288.799C118.846 289.211 120.898 289.961 121.209 290.465C121.521 290.97 119.335 290.752 116.352 289.983C110.132 288.378 108.446 288.844 110.583 291.578C111.928 293.299 111.872 293.33 110.024 291.878C108.304 290.528 107.502 290.513 105.126 291.785C98.8532 295.143 104.607 300.52 113.41 299.528C116.679 299.159 118.114 299.318 117.133 299.939C113.898 301.988 107.175 301.073 103.646 298.104C97.8969 293.265 96.1191 294.387 99.8469 300.501C102.905 305.517 108.251 307.555 113.437 305.679C115.638 304.883 117.756 304.549 118.143 304.937C119.746 306.54 116.475 312.022 112.999 313.557C109.848 314.949 109.418 315.627 109.963 318.35C110.445 320.762 110.035 321.822 108.252 322.776C106.963 323.466 105.008 323.685 103.907 323.263C102.621 322.769 102.181 322.94 102.675 323.739C104.276 326.331 102.071 328.88 98.662 328.38C95.3727 327.897 94.6367 329.148 95.2828 334.125C95.3858 334.917 95.2534 335.566 94.9891 335.566C94.7246 335.566 90.4234 336.596 85.4307 337.856C64.9483 337.812 36.2433 341.329 -2.01581 339.966C-13.2922 338.857 -15.8578 338.331 -12.3881 337.842C-9.85269 337.484 -7.25958 337.471 -6.62567 337.812C-5.99182 338.153 -4.39868 338.458 -3.0853 338.491C-1.21518 338.536 -0.805664 337.983 -1.19617 335.94C-1.92871 332.107 -4.46701 330.316 -6.62567 332.108C-7.57648 332.897 -8.35437 334.257 -8.35437 335.131C-8.35437 337.169 -14.541 337.256 -16.2134 335.241C-16.9909 334.304 -19.8899 333.831 -24.1338 333.949C-28.904 334.082 -30.0826 333.855 -28.2346 333.159C-25.1946 332.014 -24.7275 327.776 -27.5231 326.703C-28.5578 326.305 -30.5026 326.664 -31.8449 327.5C-33.9823 328.831 -34.1076 328.805 -32.8546 327.288C-31.3224 325.433 -32.0031 324.039 -34.4411 324.039C-35.3898 324.039 -35.6637 324.781 -35.1858 326.056C-34.5257 327.818 -34.6745 327.874 -36.3617 326.502C-37.4241 325.638 -38.0484 324.534 -37.7487 324.049C-37.4491 323.564 -38.8769 322.832 -40.9217 322.423C-42.9966 322.008 -44.8038 322.172 -45.0112 322.795C-45.2156 323.408 -46.1404 323.619 -47.0664 323.263C-48.3858 322.757 -48.455 322.262 -47.3865 320.974C-45.6201 318.845 -47.4867 316.815 -49.8534 318.291C-52.0301 319.648 -50.5426 322.27 -46.0581 324.981C-43.3785 326.6 -42.6863 326.658 -41.8652 325.332C-41.3243 324.458 -40.2798 324.116 -39.5443 324.57C-38.5357 325.194 -38.5487 325.809 -39.5971 327.072C-41.7423 329.657 -39.0752 331.829 -36.3509 329.716C-34.3665 328.176 -34.3665 328.209 -36.3509 330.544C-38.3381 332.882 -38.3381 333.012 -36.3509 333.921C-35.2143 334.441 -30.3947 335.51 -25.6407 336.297L-16.9971 337.727L-24.4881 337.175L-31.9793 336.624L-27.9455 339.145C-25.727 340.532 -20.5409 343.185 -16.4208 345.041C26.5902 364.416 76.8104 356.873 108.055 326.344C112.921 321.59 118.661 314.717 120.811 311.071C125.245 303.555 128.062 301.892 123.968 309.209C112.757 329.242 88.6423 346.612 62.1875 353.71C52.3379 356.353 48.793 356.712 32.5597 356.712C16.3661 356.712 12.7694 356.349 3.03424 353.736C-16.0802 348.605 -32.9801 339.531 -49.0238 325.785C-57.573 318.46 -68.7829 305.712 -67.6614 304.591C-67.2741 304.203 -66.4515 304.79 -65.8337 305.894C-64.0605 309.063 -57.6139 308.472 -53.1591 304.732C-50.5284 302.523 -49.6127 302.162 -50.1391 303.542C-50.5547 304.631 -50.4183 305.817 -49.8361 306.177C-49.2539 306.537 -48.2602 305.127 -47.6283 303.044C-46.5881 299.615 -46.5402 299.763 -47.121 304.609C-47.9496 311.52 -45.2621 317.352 -39.6359 320.851C-33.7229 324.529 -16.9564 324.645 -10.0822 321.056C-5.91464 318.88 2.0188 310.275 2.0188 307.93C2.0188 307.411 -1.48187 306.383 -5.76047 305.647C-10.0391 304.911 -14.6646 304.034 -16.0393 303.698C-17.9834 303.223 -18.6529 303.687 -19.0517 305.783C-19.5152 308.219 -19.5793 308.173 -19.7213 305.308C-19.9123 301.449 -22.9572 301.005 -23.6748 304.732C-24.092 306.898 -24.2002 306.789 -24.3313 304.071C-24.5298 299.955 -27.9968 300.218 -29.3199 304.449C-30.0721 306.855 -30.1349 306.726 -29.7038 303.661C-29.2371 300.344 -29.5257 299.922 -32.7447 299.215C-35.1876 298.678 -36.6112 298.923 -37.2919 299.998C-38.0599 301.21 -38.2867 301.1 -38.3004 299.507C-38.3263 296.468 -43.1042 294.934 -45.0342 297.345C-46.4299 299.089 -46.5309 299.059 -46.1866 297.006C-45.9261 295.454 -46.7204 294.427 -48.7482 293.695C-51.2435 292.794 -52.2309 293.177 -55.2862 296.233C-57.2657 298.213 -59.7379 299.833 -60.7803 299.833C-62.1508 299.833 -62.473 300.471 -61.9439 302.138C-61.0683 304.897 -62.0602 305 -67.5284 302.714C-69.804 301.764 -74.3106 300.985 -77.5431 300.985C-84.5293 300.985 -84.54 300.739 -76.8805 315.97C-67.2717 335.078 -52.0245 353.163 -35.7041 364.811C-25.4906 372.101 -6.49432 380.905 6.05255 384.165C14.8858 386.46 19.0757 386.845 34.2884 386.76C50.2516 386.67 53.255 386.326 62.5241 383.522C94.3784 373.887 117.327 351.525 128.689 319.048C130.647 313.451 132.249 307.874 132.249 306.657C132.249 305.44 132.768 304.444 133.402 304.444C134.848 304.444 134.961 303.595 132.173 313.688C126.599 333.866 112.211 355.912 96.8871 367.754C87.7627 374.806 71.2954 383.077 61.3716 385.594C12.9028 397.888 -39.7014 376.382 -69.2551 332.191C-75.7854 322.426 -84.4172 305.992 -84.4172 303.324C-84.4172 301.577 -86.2159 301.856 -92.559 304.585C-95.6874 305.932 -98.247 307.652 -98.247 308.409C-98.247 311.448 -86.7466 343.967 -84.0361 348.593C-75.7488 362.736 -58.3157 381.315 -39.6416 395.906C-0.00161743 426.877 18.9886 433.49 46.8523 426.024L46.8512 426.024ZM-33.18 332.031C-33.5979 331.355 -33.6925 330.555 -33.3904 330.252C-33.0883 329.95 -32.5343 330.504 -32.1589 331.482C-31.3797 333.513 -32.0436 333.87 -33.18 332.031ZM-30.251 319.286C-33.6743 317.921 -38.3189 313.758 -38.3189 312.055C-38.3189 311.39 -37.4731 312.054 -36.4395 313.53C-34.3951 316.45 -28.3208 319.428 -24.4121 319.428C-19.8307 319.428 -14.1118 315.743 -11.2283 310.932C-9.6597 308.314 -8.37131 306.701 -8.36536 307.346C-8.35672 307.991 -9.70215 310.503 -11.3495 312.927C-15.8261 319.517 -23.3372 322.043 -30.251 319.286ZM-39.1808 306.173C-39.1678 303.637 -38.9321 302.735 -38.6564 304.169C-38.3807 305.603 -38.391 307.677 -38.6796 308.78C-38.9681 309.882 -39.1935 308.708 -39.1808 306.173ZM-49.6618 298.68C-49.6618 297.095 -49.4001 296.447 -49.0804 297.239C-48.7607 298.032 -48.7607 299.329 -49.0804 300.121C-49.4001 300.913 -49.6618 300.265 -49.6618 298.68ZM-94.0812 424.27C-95.7053 422.34 -97.6538 418.579 -98.4114 415.913C-100.303 409.257 -100.873 408.879 -103.996 412.204C-106.684 415.066 -106.688 415.101 -104.277 415.101C-100.827 415.101 -98.1416 419.282 -99.4243 422.656C-100.289 424.93 -99.9808 425.488 -97.3259 426.46C-91.7835 428.488 -90.986 427.949 -94.0812 424.27ZM138.066 425.183C142.606 422.123 145.545 417.46 146.983 411.038C147.87 407.075 147.628 405.778 145.325 402.137L142.628 397.875L138.302 400.811C135.238 402.891 133.053 403.562 130.808 403.113C129.065 402.764 127.638 402.743 127.638 403.065C127.638 403.387 128.97 406.279 130.597 409.49C132.224 412.702 133.262 415.624 132.902 415.984C132.069 416.817 132.096 416.857 128.481 409.374C126.439 405.145 125.85 402.814 126.693 402.293C128.659 401.078 123.745 398.963 118.957 398.963C114.427 398.963 107.004 401.945 106.179 404.095C105.465 405.957 108.796 414.932 112.008 419.8C115.491 425.077 120.917 427.721 128.332 427.754C132.556 427.773 135.298 427.049 138.066 425.183ZM-101.231 421.682C-100.313 420.226 -100.494 419.276 -101.97 417.8C-103.584 416.186 -104.436 416.077 -106.849 417.177C-110.469 418.827 -110.631 421.747 -107.18 423.13C-103.957 424.42 -102.777 424.133 -101.231 421.682ZM-60.216 423.17C-60.216 422.536 -60.4448 422.017 -60.7243 422.017C-61.0039 422.017 -61.553 422.536 -61.9447 423.17C-62.3365 423.804 -62.1078 424.322 -61.4366 424.322C-60.7653 424.322 -60.216 423.804 -60.216 423.17ZM182.817 414.575C187.648 412.502 197.722 407.766 205.203 404.051C219.987 396.71 219.637 397.193 216.157 388.928L214.802 385.707L214.15 389.742C212.947 397.19 208.269 401.254 200.853 401.294C196.758 401.316 196.007 401.757 194.482 405.04C192.351 409.627 188.371 410.495 184.81 407.148L182.277 404.769L180.195 408.294C177.197 413.371 171.846 416.244 165.382 416.249C160.439 416.253 159.908 416.511 159.908 418.905C159.908 420.363 159.26 422.21 158.467 423.01C156.832 424.662 169.706 420.202 182.817 414.575ZM111.504 422.085C111.504 421.488 110.985 420.68 110.351 420.288C109.717 419.896 109.199 420.384 109.199 421.372C109.199 422.361 109.717 423.17 110.351 423.17C110.985 423.17 111.504 422.682 111.504 422.085ZM157.095 421.508C158.886 420.178 159.077 419.431 158.053 417.762C156.451 415.148 151.91 415.052 150.304 417.598C149.425 418.991 149.509 420.019 150.608 421.344C152.486 423.608 154.209 423.651 157.095 421.508ZM-110.567 418.468C-110.097 416.668 -110.374 416.238 -111.68 416.739C-112.636 417.106 -115.062 417.448 -117.07 417.5L-120.721 417.593L-117.264 419.177C-112.485 421.365 -111.292 421.239 -110.567 418.468ZM-110.215 414.384C-105.279 412.041 -97.5124 403.484 -93.3084 395.756L-90.0976 389.854L-93.5376 383.746C-97.3694 376.943 -105.153 354.653 -105.18 350.405C-105.247 340.029 -113.458 349.081 -125.441 372.742C-133.877 389.4 -134.135 390.155 -133.378 395.903C-131.21 412.355 -121.786 419.875 -110.215 414.384ZM-117.84 398.721C-117.84 397.998 -106.956 373.552 -104.945 369.759C-104.328 368.596 -103.592 367.875 -103.309 368.158C-102.709 368.759 -115.174 396.709 -116.765 398.329C-117.356 398.932 -117.84 399.108 -117.84 398.721ZM-130.25 410.434L-133.305 405.768L-135.266 408.368C-137.186 410.915 -137.14 411.008 -133.007 412.941C-126.995 415.753 -126.853 415.624 -130.25 410.434ZM174.343 412.306C178.474 409.599 181.809 402.173 182.556 394.017C183.182 387.191 182.938 386.275 177.276 374.21C171.127 361.105 164.932 350.551 163.39 350.551C162.901 350.551 160.89 355.167 158.92 360.808L155.339 371.066L161.128 383.433C164.311 390.235 166.723 396.381 166.486 397.091C166.25 397.801 164.659 395.271 162.952 391.469C161.244 387.666 158.657 381.967 157.203 378.805L154.56 373.055L149.099 384.208C143.724 395.186 143.668 395.417 145.5 398.96C148.223 404.227 155.356 411.757 159.332 413.562C163.473 415.441 170.449 414.858 174.343 412.306ZM-136.202 406.886C-135.25 405.107 -135.232 403.685 -136.137 401.699C-138.262 397.035 -144.348 398.852 -144.348 404.15C-144.348 409.279 -138.528 411.233 -136.202 406.886ZM-40.1198 402.234C-41.8287 396.931 -43.2696 395.127 -50.5586 389.165C-55.2096 385.362 -59.6617 382.249 -60.4521 382.249C-62.5838 382.249 -64.1015 387.676 -63.2457 392.238C-62.627 395.536 -61.2257 397.078 -55.2438 401.04C-48.7404 405.347 -39.5104 409.584 -38.5162 408.717C-38.3078 408.536 -39.0294 405.619 -40.1198 402.234ZM191.947 406.802C193.95 404.798 193.66 399.337 191.507 398.51C188.296 397.278 186.528 397.751 185.221 400.193C184.229 402.047 184.354 403.199 185.783 405.38C187.801 408.46 189.822 408.927 191.947 406.802ZM-146.318 404.727C-146.745 403.094 -147.89 402.421 -150.244 402.421C-154.392 402.421 -154.426 403.034 -150.398 405.22C-146.169 407.514 -145.607 407.446 -146.318 404.727ZM103.436 402.93C103.436 401.941 102.918 401.453 102.284 401.845C101.65 402.237 101.131 403.045 101.131 403.642C101.131 404.239 101.65 404.727 102.284 404.727C102.918 404.727 103.436 403.918 103.436 402.93ZM118.147 397.109L123.567 396.893L123.215 392.804C122.649 386.233 121.262 382.274 119.4 381.915C118.447 381.732 114.465 383.72 110.551 386.333C103.961 390.735 103.436 391.401 103.436 395.37C103.436 401.503 105.251 402.853 109.387 399.795C111.522 398.216 114.684 397.246 118.147 397.109ZM138.409 398.669C144.232 392.846 162.032 352.394 160.921 347.512C160.796 346.964 161.067 345.674 161.522 344.643C161.977 343.613 162.189 336.221 161.993 328.215C161.782 319.592 162.088 313.511 162.744 313.293C163.354 313.091 161.798 311.527 159.287 309.817L154.722 306.708L153.795 311.051C147.856 338.87 146.492 342.12 131.454 364.275C124.117 375.084 121.207 380.291 121.981 381.224C122.596 381.964 123.665 385.87 124.357 389.902C125.049 393.935 126.41 398.142 127.382 399.251C129.857 402.078 135.288 401.791 138.409 398.669ZM206.538 398.331C212.998 395.265 214.347 389.291 211.098 378.136C207.546 365.939 194.041 345.429 182.208 334.259L177.771 330.07L173.3 331.997L168.83 333.924L175.386 341.373C188.012 355.718 199.092 374.205 197.644 378.513C197.38 379.3 196.496 377.869 195.68 375.333C193.471 368.468 187.018 358.294 176.868 345.674C167.905 334.529 165.422 332.698 164.065 336.237C162.208 341.076 163.418 347.16 167.315 352.586C169.488 355.611 174.925 365.597 179.399 374.778C187.767 391.953 189.558 394.732 194.45 398.134C197.981 400.589 201.654 400.649 206.538 398.331ZM-135.381 393.488C-135.74 391.778 -136.034 391.887 -137.314 394.211C-138.566 396.485 -138.557 397.117 -137.263 397.927C-135.547 399.001 -134.662 396.916 -135.381 393.488ZM-164.399 393.752C-165.522 390.16 -165.784 389.954 -166.68 391.959C-167.916 394.727 -166.885 397.811 -164.724 397.811C-163.429 397.811 -163.369 397.049 -164.399 393.752ZM187.278 393.166C185.25 389.917 184.11 390.358 184.11 394.393C184.11 397.529 184.348 397.764 186.403 396.664C188.352 395.621 188.483 395.095 187.278 393.166ZM34.3352 339.542C35.5504 338.078 35.524 337.475 34.1884 336.2C31.8881 334.005 25.0674 332.692 25.0674 334.445C25.0674 335.229 25.8599 335.508 26.9247 335.1C28.2993 334.572 28.5935 334.878 28.0572 336.275C27.2458 338.39 29.1935 341.329 31.4062 341.329C32.2018 341.329 33.5198 340.525 34.3352 339.542ZM42.109 338.529C44.2231 336.532 42.5867 333.261 39.4735 333.261C36.5208 333.261 35.1465 335.531 36.6382 337.945C37.2417 338.922 37.0889 339.915 36.2433 340.51C35.4457 341.071 36.0792 341.153 37.7448 340.705C39.3294 340.278 41.2934 339.299 42.109 338.529ZM50.1915 339.946C52.5431 337.594 51.7286 335.539 48.1621 334.826C46.2852 334.45 44.8592 333.62 44.9929 332.981C45.1266 332.342 44.5877 331.582 43.7953 331.291C42.0866 330.665 41.8439 332.809 43.5073 333.837C44.1411 334.229 44.6597 335.729 44.6597 337.171C44.6597 341.36 47.4022 342.736 50.1915 339.946ZM53.8796 340.177C53.8796 339.543 53.3609 339.024 52.727 339.024C52.0931 339.024 51.5746 339.543 51.5746 340.177C51.5746 340.811 52.0931 341.329 52.727 341.329C53.3609 341.329 53.8796 340.811 53.8796 340.177ZM8.93283 339.024C8.93283 338.39 8.41412 337.871 7.78021 337.871C7.14636 337.871 6.62781 336.864 6.62781 335.634C6.62781 332.898 5.36081 332.047 0.544769 331.545C-1.49747 331.332 -2.52002 331.415 -1.72775 331.729C-0.935394 332.043 -0.287079 333.231 -0.287079 334.368C-0.287079 337.111 2.41382 339.242 4.75305 338.344C5.78864 337.947 6.62781 338.196 6.62781 338.901C6.62781 339.602 7.14636 340.177 7.78021 340.177C8.41412 340.177 8.93283 339.658 8.93283 339.024ZM25.357 339.421C25.8351 339.126 25.6879 337.878 25.0301 336.649C23.4512 333.698 19.2646 333.743 18.4866 336.719C17.6795 339.805 16.096 339.645 15.6396 336.43C15.1935 333.288 10.4409 332.145 9.37494 334.923C8.12143 338.19 10.9096 339.823 17.8588 339.893C21.5048 339.929 24.8789 339.717 25.357 339.421ZM59.6596 338.736C59.6717 337.74 60.0016 337.808 60.7285 338.957C61.6209 340.367 63.2973 340.415 71.8216 339.275C77.3447 338.536 82.1237 337.671 82.4417 337.353C82.7597 337.035 82.3532 335.971 81.5381 334.988C80.2016 333.378 79.8557 333.384 78.0152 335.05C76.8928 336.066 75.0223 336.777 73.8587 336.631C72.6951 336.484 70.8657 336.747 69.7935 337.215C66.7402 338.548 63.7804 337.52 62.538 334.695C61.3373 331.965 58.9706 331.001 59.9897 333.657C60.4097 334.752 59.8098 335.058 57.9431 334.701C55.0219 334.142 53.3266 335.92 54.3175 338.503C55.1018 340.547 59.6351 340.745 59.6596 338.736ZM69.6318 334.9C70.5566 332.49 67.4809 329.52 65.0327 330.46C63.1061 331.199 62.4078 334.49 63.8677 335.95C65.3039 337.387 68.9314 336.726 69.6318 334.9ZM89.0302 335.609C91.2101 334.712 91.2208 334.614 89.2289 333.803C87.8741 333.251 86.4499 333.618 85.2365 334.832C83.6799 336.389 83.6451 336.704 85.0378 336.638C85.9659 336.593 87.7625 336.13 89.0302 335.609ZM-9.84296 333.549C-9.43369 332.439 -8.61661 331.207 -8.02728 330.811C-7.39819 330.388 -7.48248 329.765 -8.23135 329.302C-8.93286 328.869 -9.50699 329.127 -9.50699 329.876C-9.50699 330.896 -9.9371 330.88 -11.2209 329.815C-12.1637 329.032 -13.7196 328.693 -14.6784 329.061C-16.4438 329.739 -17.064 333.387 -15.6535 334.797C-14.1496 336.302 -10.5752 335.533 -9.84296 333.549ZM16.4899 331.484C14.2466 330.712 11.217 329.299 9.75751 328.342C7.60593 326.932 6.73209 326.876 5.13733 328.042C2.70993 329.817 2.61682 330.955 4.89908 330.955C5.84988 330.955 6.62781 331.497 6.62781 332.16C6.62781 332.9 8.10199 333.088 10.4474 332.648C13.1968 332.132 14.6925 332.445 15.7863 333.763C16.9727 335.193 17.6637 335.297 18.9371 334.24C20.2771 333.128 19.8401 332.636 16.4899 331.484ZM77.7477 333.261C78.0792 331.993 78.8086 330.955 79.3685 330.955C79.9285 330.955 80.3865 330.552 80.3865 330.06C80.3865 329.568 78.3121 329.363 75.7767 329.605C72.3462 329.932 71.1668 330.554 71.1668 332.037C71.1668 334.616 72.1782 335.566 74.9241 335.566C76.1756 335.566 77.408 334.56 77.7477 333.261ZM61.9469 330.174L65.9807 328.073L61.7365 324.264L57.4926 320.454L57.0228 324.264L56.5533 328.073L56.3689 323.751C56.2674 321.374 55.6659 319.428 55.032 319.428C54.3982 319.428 53.8796 320.034 53.8796 320.773C53.8796 321.513 53.6079 321.846 53.2761 321.514C52.149 320.387 54.1137 317.132 55.441 317.927C56.222 318.395 56.1562 317.972 55.2798 316.889C54.4652 315.883 53.8783 314.617 53.9756 314.075C54.7177 309.94 53.7914 308.922 49.6032 309.273C46.1699 309.56 45.1703 310.199 44.532 312.512L43.7371 315.394L43.6221 312.224C43.5195 309.392 43.0777 309.054 39.4735 309.054C35.8693 309.054 35.4276 309.392 35.325 312.224L35.2101 315.394L34.4133 312.512C33.4358 308.977 28.5446 307.721 28.4898 310.991C28.457 312.967 28.3871 312.972 27.2802 311.071C26.6341 309.962 25.3532 309.054 24.4339 309.054C23.5146 309.054 22.7023 309.962 22.6288 311.071C22.5015 312.993 22.4701 312.993 21.9681 311.071C21.5978 309.654 20.2873 309.054 17.5615 309.054C13.9271 309.054 13.6533 309.327 13.2297 313.377L12.7777 317.699L12.584 312.8C12.3972 308.077 12.2558 307.902 8.64456 307.921C4.44818 307.944 -0.713257 312.366 0.318359 315.055C0.660919 315.948 0.166565 318.464 -0.780243 320.647C-1.72714 322.829 -2.52216 323.933 -2.54697 323.099C-2.57202 322.265 -2.03149 320.534 -1.34622 319.254C0.714661 315.402 -1.00323 315.519 -6.26123 319.589C-8.9971 321.706 -11.4951 323.618 -11.812 323.837C-12.1289 324.056 -10.8712 325.541 -9.01721 327.137C-6.31781 329.461 -4.84155 329.908 -1.60599 329.383C3.98486 328.475 6.45908 325.879 4.58844 322.883C3.80853 321.634 3.17035 319.965 3.17035 319.174C3.17035 318.383 4.12949 319.543 5.30173 321.752C8.51941 327.815 15.6161 331.257 26.143 331.861C36.8537 332.476 43.3661 330.824 48.9967 326.066L53.3033 322.426L49.5082 326.509C46.523 329.72 46.0311 330.849 47.2032 331.802C50.7218 334.661 54.0319 334.295 61.9469 330.174ZM19.8808 323.594C17.979 322.765 15.6452 321.13 14.6947 319.961C13.5161 318.511 14.1884 318.73 16.8085 320.649C20.0162 322.998 21.9824 323.463 28.7161 323.463C36.3686 323.463 36.9536 323.27 40.1443 319.698C41.994 317.628 43.5073 316.363 43.5073 316.887C43.5073 318.546 38.7892 322.985 35.8304 324.11C31.8298 325.631 23.9707 325.377 19.8808 323.594ZM26.4446 316.547C26.4679 314.645 26.7264 314.006 27.0186 315.128C27.3108 316.249 27.2916 317.805 26.9753 318.586C26.6596 319.366 26.4211 318.449 26.4446 316.547ZM84.8696 332.837C85.8587 331.645 85.7901 330.939 84.5874 329.941C83.3726 328.933 82.6658 329.021 81.5927 330.314C80.1997 331.993 80.8056 334.413 82.6186 334.413C83.1375 334.413 84.1503 333.704 84.8696 332.837ZM-18.1909 329.547C-18.2169 327.584 -17.8004 326.815 -17.0385 327.419C-16.3825 327.939 -14.8876 328.016 -13.7169 327.589C-11.9339 326.938 -11.8489 326.596 -13.193 325.48C-14.4134 324.467 -15.8884 324.523 -19.3551 325.712C-24.0657 327.328 -25.9048 330.489 -23.1618 332.256C-20.4189 334.024 -18.1483 332.786 -18.1909 329.547ZM93.6402 329.787C93.6402 327.502 93.0586 326.921 90.7747 326.921C87.537 326.921 86.0574 330.6 88.6288 332.256C91.2904 333.971 93.6402 332.813 93.6402 329.787ZM172.413 330.842C174.409 330.146 176.043 329.109 176.043 328.537C176.043 327.965 176.783 327.497 177.688 327.497C180.023 327.497 184.11 321.924 184.11 318.74C184.11 313.925 179.312 303.09 175.131 298.461C171.354 294.279 170.704 293.99 166.627 294.679C161.569 295.534 160.435 293.561 165.412 292.565C172.513 291.144 182.051 286.767 185.848 283.185C190.867 278.451 191.05 274.676 186.509 269.593C183.575 266.309 182.424 265.829 177.479 265.829C170.99 265.829 164.113 269.792 160.764 275.462C158.821 278.753 158.845 278.88 162.229 283.14C164.122 285.521 165.67 287.899 165.67 288.424C165.67 290.193 161.636 291.554 158.167 290.955C154.876 290.386 154.99 290.6 160.733 295.728C166.78 301.127 169.107 305.864 169.121 312.8C169.13 316.19 167.163 316.942 164.6 314.53C163.333 313.336 163.188 314.449 163.763 321.002C164.401 328.289 165.839 332.108 167.944 332.108C168.406 332.108 170.417 331.538 172.413 330.842ZM86.1108 325.782C88.8972 324.798 92.9868 322.613 95.1988 320.926C97.4109 319.238 98.8421 318.47 98.3792 319.219C97.8695 320.044 98.2463 320.581 99.3345 320.581C100.38 320.581 101.131 319.589 101.131 318.208C101.131 316.902 100.62 316.151 99.9944 316.537C99.2629 316.989 99.2234 316.294 99.8836 314.588C100.448 313.129 101.608 312.149 102.461 312.409C107.7 314.005 111.152 313.697 114.11 311.37C117.701 308.545 118.525 304.811 115.249 306.212C114.14 306.687 111.793 307.322 110.034 307.623C107.288 308.094 107.037 308.438 108.261 310.054C109.045 311.089 108.063 310.453 106.079 308.64C104.095 306.828 101.91 305.691 101.225 306.115C100.509 306.557 99.9678 305.997 99.953 304.8C99.9072 301.074 96.0242 297.164 93.2451 298.046C91.8778 298.48 90.751 299.708 90.7413 300.775C90.7275 302.299 90.5119 302.38 89.7354 301.155C88.9623 299.934 88.2101 299.882 86.2809 300.915C84.2294 302.013 84.0166 302.663 85.0152 304.78L86.2155 307.325L84.3962 304.857C82.7887 302.676 82.1143 302.531 78.6006 303.61C75.0931 304.686 74.6025 305.317 74.4398 308.96L74.2554 313.089L73.781 309.215C73.3336 305.561 73.1035 305.382 69.7276 306.057C64.9307 307.017 64.662 307.476 67.2335 310.318C70.0226 313.4 74.955 315.97 78.0817 315.97C82.2102 315.97 87.4022 312.532 89.0721 308.692C90.0855 306.361 90.6851 305.789 90.7137 307.126C90.7725 309.894 84.9465 315.65 81.1106 316.613C76.5517 317.757 72.7683 316.37 67.5247 311.632C62.9868 307.532 58.4755 306.47 55.9194 308.9C54.4347 310.312 57.3561 318.217 60.8213 322.165C66.208 328.301 75.2908 329.6 86.1108 325.782ZM78.8003 308.433C77.6882 305.535 78.0164 304.787 79.3749 307.124C80.0476 308.281 80.3551 309.47 80.0584 309.767C79.7617 310.064 79.1955 309.464 78.8003 308.433ZM101.707 325.317C101.707 323.028 97.5452 320.696 96.8533 322.598C96.565 323.391 95.3047 324.039 94.0523 324.039C92.731 324.039 92.0946 324.556 92.5361 325.27C92.9545 325.948 94.0226 326.223 94.9093 325.883C95.796 325.543 96.5213 325.803 96.5213 326.461C96.5213 327.119 97.6882 327.492 99.1144 327.289C100.541 327.087 101.707 326.199 101.707 325.317ZM108.473 320.321C110.108 317.728 107.328 314.525 104.282 315.491C102.767 315.972 102.261 315.786 102.784 314.941C103.217 314.239 103.013 313.665 102.33 313.665C101.559 313.665 101.375 314.869 101.844 316.835C103.282 322.855 105.98 324.274 108.473 320.321ZM-42.9288 320.073C-42.9288 319.793 -43.4475 319.244 -44.0814 318.852C-44.7152 318.46 -45.2338 318.689 -45.2338 319.36C-45.2338 320.032 -44.7152 320.581 -44.0814 320.581C-43.4475 320.581 -42.9288 320.352 -42.9288 320.073ZM-51.1999 315.587C-50.9843 314.475 -51.5627 313.665 -52.5724 313.665C-54.7135 313.665 -56.0056 315.544 -54.9923 317.184C-53.9498 318.871 -51.6488 317.902 -51.1999 315.587ZM-47.1427 313.903C-47.5085 312.504 -48.3211 311.36 -48.9489 311.36C-49.5766 311.36 -49.7983 310.598 -49.4412 309.668C-48.4574 307.103 -50.9639 306.223 -53.1169 308.376C-54.8811 310.14 -54.8321 310.324 -52.43 310.952C-50.9583 311.337 -49.8437 312.523 -49.8437 313.703C-49.8437 314.845 -49.1955 316.01 -48.4032 316.293C-46.4567 316.988 -46.3761 316.835 -47.1427 313.903ZM-91.7457 302.48C-84.1956 299.01 -72.1842 298.213 -67.3204 300.86C-63.3967 302.995 -63.0761 301.746 -66.1426 296.269C-69.9659 289.441 -75.1674 286.883 -83.2657 287.847C-96.1288 289.379 -109.773 301.57 -109.773 311.533C-109.773 313.622 -109.194 313.436 -104.135 309.722C-101.034 307.445 -95.459 304.186 -91.7457 302.48ZM-56.1824 311.288C-56.1824 310.37 -57.5111 309.578 -59.2763 309.442C-62.2339 309.214 -62.2857 309.303 -60.4536 311.443C-58.3532 313.896 -56.1824 313.818 -56.1824 311.288ZM166.313 306.12C165.818 303.486 163.866 300.744 160.155 297.471C153.024 291.184 148.037 288.766 140.316 287.856C132.862 286.977 127.953 289.302 124.175 295.5C120.583 301.391 121.095 302.153 127.35 300.229C136.645 297.37 149.866 300.688 159.908 308.399C166.707 313.62 167.656 313.282 166.313 306.12ZM220.694 311.917C226.841 310.091 232.514 304.889 232.514 301.079C232.514 299.935 230.747 298.092 228.48 296.871C226.262 295.676 224.439 294.427 224.429 294.095C224.42 293.764 223.971 292.798 223.433 291.949C222.641 290.699 221.544 290.869 217.668 292.847C211.442 296.024 202.197 297.774 198.817 296.416C196.686 295.559 197.202 295.355 201.642 295.295C207.378 295.218 218.763 291.521 221.407 288.877C222.269 288.014 223.308 285.227 223.714 282.683C224.623 277 227.877 274.474 234.286 274.474C238.597 274.474 239.181 274.103 241.083 270.151C242.228 267.774 243.426 262.667 243.745 258.803C244.263 252.539 244.037 251.508 241.66 249.293C238.162 246.034 232.269 246.07 227.796 249.377C222.742 253.114 216.258 252.839 211.943 248.704C210.083 246.923 208.272 244.017 207.919 242.248C207.447 239.889 206.435 238.871 204.122 238.429C199.261 237.499 188.803 240.703 181.985 245.211C174.941 249.867 172.791 249.837 178.912 245.168C187.384 238.705 201.815 234.62 206.638 237.319C208.193 238.189 209.853 237.901 213.135 236.19C218.791 233.241 219.281 232.33 217.044 228.916C213.667 223.761 208.876 222.219 198.563 222.968C178.996 224.388 162.71 233.588 151.197 249.726C146.616 256.145 138.447 272.01 139.383 272.667C139.579 272.804 142.954 273.49 146.884 274.191L154.028 275.465L163.018 266.52C177.223 252.389 190.3 247.459 200.446 252.411C208.052 256.123 213.432 265.521 212.061 272.697C210.67 279.974 198.472 287.76 182.748 291.408C178.109 292.485 174.151 293.47 173.953 293.598C173.754 293.726 175.697 296.607 178.27 300.002C180.843 303.396 182.95 306.79 182.953 307.545C182.961 309.576 185.067 310.549 192.753 312.071C202.574 314.014 213.842 313.952 220.694 311.917ZM65.3714 305.05C82.4273 301.601 101.372 293.661 110.267 286.233C113.711 283.358 113.964 282.761 112.642 280.644C109.488 275.592 107.978 275.623 97.0546 280.964C74.1815 292.149 53.5 296.843 27.3725 296.779C2.47827 296.718 -18.2214 292.652 -39.4713 283.649C-52.0708 278.311 -53.6589 278.189 -56.6032 282.324C-57.9564 284.225 -59.0636 286.118 -59.0636 286.53C-59.0636 287.741 -47.9225 292.315 -34.2852 296.701C-20.2198 301.226 -2.22308 305.136 11.814 306.718C24.3498 308.131 54.8321 307.182 65.3714 305.05ZM-57.9935 296.994C-53.9078 294.881 -52.7749 292.175 -55.366 290.718C-56.8285 289.896 -58.0737 290.259 -60.2078 292.129L-63.0807 294.646L-60.8299 291.982C-58.9938 289.809 -58.8698 289.138 -60.1573 288.342C-61.0254 287.806 -62.5607 287.628 -63.569 287.947C-64.5772 288.266 -66.121 288.748 -66.9996 289.017C-68.3293 289.425 -68.3039 289.841 -66.8479 291.5C-65.8858 292.596 -64.743 294.66 -64.3084 296.087C-63.3816 299.128 -62.3948 299.27 -57.9935 296.994ZM40.0498 294.27C40.0498 293.024 35.5407 288.943 32.3463 287.297C27.3642 284.731 22.9642 285.726 17.82 290.583L12.9664 295.164L26.5081 295.193C33.956 295.209 40.0498 294.794 40.0498 294.27ZM8.93283 292.801C8.93283 292.104 7.16949 289.77 5.01431 287.614C1.91229 284.512 0.17157 283.696 -3.34103 283.7C-7.68643 283.704 -15.2693 287.265 -15.2693 289.301C-15.2693 290.438 -0.721558 293.738 5.18713 293.941C7.24725 294.011 8.93283 293.499 8.93283 292.801ZM23.5265 284.959C28.9512 283.403 33.0475 284.761 38.0613 289.775L42.6553 294.37L41.9387 287.592C41.5446 283.864 40.6801 275.627 40.0179 269.287C39.3557 262.947 38.5464 256.056 38.2194 253.973L37.6249 250.186L26.4482 250.515L15.2714 250.844L13.3614 267.558C12.3109 276.75 11.4032 286.581 11.3444 289.404L11.2376 294.537L15.6253 290.252C18.0383 287.896 21.5939 285.514 23.5265 284.959ZM26.6353 264.1C26.6353 258.077 26.8297 255.613 27.0671 258.625C27.3045 261.636 27.3045 266.564 27.0671 269.575C26.8297 272.586 26.6353 270.122 26.6353 264.1ZM33.4023 257.184C33.4023 254.965 33.6395 254.057 33.9294 255.166C34.2193 256.276 34.2193 258.091 33.9294 259.201C33.6395 260.31 33.4023 259.403 33.4023 257.184ZM21.8347 255.455C21.8581 253.553 22.1166 252.914 22.4087 254.036C22.701 255.157 22.6816 256.713 22.3654 257.494C22.0498 258.274 21.8113 257.357 21.8347 255.455ZM62.8113 291.581C66.1391 290.846 68.8618 289.92 68.8618 289.524C68.8618 287.875 61.8708 284.848 58.0636 284.848C55.1168 284.848 52.8112 285.857 49.886 288.425C47.6454 290.393 45.8121 292.538 45.8121 293.193C45.8121 294.486 52.5461 293.848 62.8113 291.581ZM48.8505 287.17C53.7162 282.897 57.7622 281.816 62.4909 283.527C67.6875 285.406 69.756 285.172 70.5679 282.614C70.9579 281.385 73.0855 278.791 75.2957 276.85C78.6399 273.914 80.2876 273.321 85.1125 273.321C88.3014 273.321 91.9581 273.882 93.2384 274.567C96.0677 276.082 97.3511 275.134 95.497 272.899C93.5965 270.609 89.0518 258.717 87.3242 251.515C86.0446 246.18 85.5804 245.538 83.4175 246.116C82.0675 246.476 71.8871 247.645 60.7945 248.712C49.7018 249.78 40.4344 250.801 40.2003 250.982C39.5915 251.453 43.7263 290.611 44.3847 290.611C44.6855 290.611 46.6951 289.063 48.8505 287.17ZM66.6479 281.87C66.7032 280.527 66.9762 280.254 67.3441 281.174C67.677 282.006 67.636 283 67.2531 283.383C66.8702 283.766 66.5979 283.085 66.6479 281.87ZM65.4953 277.26C65.5506 275.917 65.8238 275.644 66.1917 276.563C66.5246 277.395 66.4836 278.389 66.1007 278.772C65.7177 279.155 65.4453 278.475 65.4953 277.26ZM52.9946 273.321C52.9946 271.102 53.2317 270.195 53.5215 271.304C53.8114 272.413 53.8114 274.229 53.5215 275.338C53.2317 276.448 52.9946 275.54 52.9946 273.321ZM64.3429 272.649C64.3982 271.306 64.6713 271.033 65.0393 271.952C65.3721 272.784 65.3312 273.779 64.9483 274.162C64.5653 274.545 64.2928 273.864 64.3429 272.649ZM74.5713 268.612C73.8638 267.29 73.5022 265.991 73.7675 265.725C74.0328 265.46 74.8416 266.542 75.5648 268.129C77.153 271.616 76.3796 271.991 74.5713 268.612ZM63.1905 268.038C63.2458 266.695 63.5188 266.422 63.8867 267.342C64.2196 268.174 64.1786 269.168 63.7957 269.551C63.4128 269.934 63.1404 269.253 63.1905 268.038ZM51.8884 262.947C51.8884 260.094 52.1132 258.927 52.3879 260.354C52.6626 261.78 52.6626 264.114 52.3879 265.541C52.1132 266.967 51.8884 265.8 51.8884 262.947ZM62.1288 262.947C62.1288 261.362 62.3904 260.714 62.7102 261.506C63.0299 262.299 63.0299 263.595 62.7102 264.388C62.3904 265.18 62.1288 264.532 62.1288 262.947ZM72.5866 260.642C72.5866 258.423 72.8238 257.515 73.1137 258.625C73.4037 259.734 73.4037 261.549 73.1137 262.659C72.8238 263.768 72.5866 262.861 72.5866 260.642ZM44.8416 260.642C44.8416 259.057 45.1032 258.408 45.423 259.201C45.7427 259.993 45.7427 261.29 45.423 262.083C45.1032 262.875 44.8416 262.227 44.8416 260.642ZM67.9767 259.489C67.9767 257.27 68.214 256.362 68.5039 257.472C68.7937 258.581 68.7937 260.397 68.5039 261.506C68.214 262.616 67.9767 261.708 67.9767 259.489ZM56.3665 258.336C56.3665 256.751 56.628 256.103 56.9477 256.896C57.2674 257.688 57.2674 258.985 56.9477 259.777C56.628 260.57 56.3665 259.921 56.3665 258.336ZM61.019 256.607C61.0424 254.705 61.3009 254.067 61.593 255.188C61.8853 256.31 61.866 257.866 61.5497 258.646C61.2341 259.427 60.9955 258.509 61.019 256.607ZM43.7318 254.302C43.7551 252.4 44.0137 251.762 44.3058 252.883C44.5981 254.005 44.5788 255.561 44.2625 256.341C43.9469 257.122 43.7083 256.204 43.7318 254.302ZM50.6041 254.878C50.6041 253.293 50.8657 252.645 51.1855 253.437C51.5052 254.23 51.5052 255.527 51.1855 256.319C50.8657 257.112 50.6041 256.463 50.6041 254.878ZM66.7815 251.997C66.8048 250.095 67.0634 249.456 67.3555 250.578C67.6477 251.699 67.6284 253.255 67.3122 254.036C66.9966 254.816 66.7581 253.899 66.7815 251.997ZM189.515 287.693C205.012 282.49 211.848 275.734 210.16 267.291C209.12 262.09 204.162 255.348 200.155 253.688C195.427 251.73 185.599 252.799 179.009 255.99C171.01 259.863 153.4 276.779 157.368 276.779C157.917 276.779 159.067 275.468 159.925 273.866C160.782 272.264 163.811 269.411 166.656 267.526C176.207 261.199 186.692 263.574 190.61 272.954C192.017 276.322 191.992 277.253 190.407 280.318C189.409 282.248 186.186 285.353 183.244 287.219C176.69 291.376 178.203 291.491 189.515 287.693ZM-93.4557 287.692C-88.8354 286.72 -82.4894 285.68 -79.3535 285.382C-76.2176 285.083 -73.443 284.63 -73.1877 284.374C-72.0991 283.286 -76.5472 276.871 -78.9312 276.092C-82.1478 275.04 -88.2293 275.35 -93.8653 276.853C-100.208 278.543 -108.559 289.459 -103.509 289.459C-102.6 289.459 -98.0759 288.664 -93.4557 287.692ZM-20.9224 284.449C-24.2926 278.995 -31.1199 276.335 -39.1658 277.34C-42.5032 277.757 -45.2338 278.527 -45.2338 279.051C-45.2338 280.214 -19.8105 289.618 -18.8835 288.799C-18.6527 288.595 -19.5702 286.638 -20.9224 284.449ZM84.1497 284.786C90.6372 282.216 96.3781 279.682 96.9073 279.155C97.4365 278.629 95.4964 277.292 92.596 276.184C83.5838 272.741 75.9761 275.578 71.5863 284.018C70.1274 286.823 70.2448 289.459 71.8286 289.459C72.1177 289.459 77.6623 287.356 84.1497 284.786ZM163.365 288.533C163.365 288.024 161.775 285.446 159.833 282.803C155.909 277.468 151.445 275.644 142.28 275.633C137.944 275.629 136.144 276.236 133.925 278.456C130.619 281.762 130.24 284.799 133.113 284.965C139.088 285.312 143.9 286.05 150.112 287.572C157.981 289.501 163.365 289.891 163.365 288.533ZM11.065 274.186C11.8316 266.42 12.7617 257.861 13.1316 255.167L13.8044 250.268H8.04208H2.27942L1.06073 256.896L-0.158142 263.524L0.436523 256.896L1.03119 250.268H-2.41486C-4.31021 250.268 -6.61157 249.98 -7.52884 249.628C-8.8494 249.121 -9.36691 250.741 -10.0154 257.408C-10.7595 265.06 -13.2709 279.038 -14.7761 283.907C-15.3099 285.634 -14.752 285.584 -9.71445 283.455C-3.20505 280.705 0.325348 281.166 5.13248 285.396C6.9057 286.957 8.65228 288.25 9.01385 288.27C9.37534 288.29 10.2983 281.952 11.065 274.186ZM-1.17212 268.711C-1.17212 266.492 -0.934906 265.584 -0.644989 266.694C-0.355164 267.803 -0.355164 269.618 -0.644989 270.728C-0.934906 271.837 -1.17212 270.93 -1.17212 268.711ZM-5.9584 256.512C-5.90308 255.169 -5.63007 254.896 -5.26221 255.815C-4.92926 256.647 -4.97028 257.641 -5.35318 258.024C-5.73608 258.408 -6.00845 257.727 -5.9584 256.512ZM-123.602 285.479C-123.602 285.191 -125.344 284.13 -127.472 283.12C-138.215 278.021 -140.629 270.217 -133.629 263.216C-127.767 257.354 -121.629 257.772 -110.925 264.765C-109.341 265.8 -111.009 263.831 -114.633 260.39C-126.495 249.127 -138.809 244.482 -146.398 248.408C-155.22 252.97 -159.643 265.1 -154.748 271.305C-151.329 275.638 -143.487 280.044 -133.601 283.186C-124.643 286.032 -123.602 286.271 -123.602 285.479ZM-14.7691 277.068C-13.6646 272.154 -12.4742 263.855 -12.1239 258.625C-11.4921 249.191 -11.5088 249.115 -14.2424 249.099C-15.758 249.09 -18.1649 248.771 -19.5911 248.389C-22.0815 247.721 -22.1931 248.007 -22.4099 255.609L-22.6355 263.524L-23.0388 255.743C-23.5313 246.238 -25.7899 245.273 -28.4313 253.438C-30.0232 258.358 -29.966 256.168 -28.3256 249.403C-27.7805 247.155 -28.1521 246.81 -31.1149 246.81C-34.4465 246.81 -34.5516 246.986 -35.2605 253.77C-36.0203 261.041 -39.731 271.145 -42.4789 273.426C-45.276 275.748 -44.261 276.213 -37.2604 275.817C-29.1005 275.356 -23.089 277.773 -20.1898 282.682C-19.1117 284.508 -17.9028 286.001 -17.5034 286.001C-17.104 286.001 -15.8737 281.981 -14.7691 277.068ZM-25.784 268.268C-24.7549 266.123 -23.7135 264.55 -23.4697 264.773C-22.7793 265.405 -25.8142 272.169 -26.7881 272.169C-27.2648 272.169 -26.8132 270.413 -25.784 268.268ZM-16.1311 254.302C-16.1181 251.766 -15.8823 250.865 -15.6067 252.299C-15.331 253.732 -15.3416 255.807 -15.6301 256.909C-15.9186 258.011 -16.1439 256.838 -16.1311 254.302ZM263.59 273.033C270.148 269.67 272.851 264.584 272.851 255.609C272.851 246.708 270.064 242.161 262.209 238.246C252.67 233.492 240.526 235.091 234.477 241.898C232.451 244.179 232.49 244.243 236.31 244.96C241.223 245.882 245.095 249.934 245.92 255.016C246.482 258.485 244.667 265.655 241.211 273.61C240.418 275.434 241.203 275.627 249.434 275.627C256.603 275.627 259.605 275.077 263.59 273.033ZM-189.511 264.279C-190.878 261.155 -191.924 256.104 -192.017 252.19C-192.159 246.156 -191.843 245.181 -188.942 242.68C-187.104 241.096 -184.243 239.893 -182.315 239.893C-177.914 239.893 -178.021 238.378 -182.667 234.908C-193.164 227.067 -207.799 228.755 -216.232 238.779C-218.784 241.812 -219.258 243.491 -219.257 249.492C-219.257 257.532 -216.904 263.282 -212.214 266.718C-208.915 269.135 -199.625 270.664 -192.021 270.042L-187.164 269.645L-189.511 264.279ZM227.782 246.752C229.898 244.818 231.351 242.957 231.009 242.615C230.668 242.274 228.152 241.491 225.418 240.877C222.684 240.263 219.575 238.971 218.509 238.006C216.916 236.564 216.093 236.504 213.882 237.669C208.701 240.399 208.452 241.971 212.448 246.721C216.584 251.638 222.42 251.649 227.782 246.752ZM52.2716 247.924C90.2466 244.881 113.828 239.012 122.74 230.387C127.249 226.023 127.557 222.206 123.61 219.619C120.904 217.846 120.107 217.911 110.069 220.727C91.5604 225.918 79.3543 227.383 49.1123 228.043C9.39783 228.909 -26.1782 225.75 -58.4113 218.497C-71.8671 215.469 -72.1013 215.512 -73.6351 221.284C-74.054 222.86 -73.5574 225.676 -72.4506 227.997C-68.9812 235.274 -49.4784 242.4 -22.7604 246.153C-15.7879 247.133 -7.49008 248.107 -4.32083 248.317C9.37143 249.226 38.5567 249.023 52.2716 247.924ZM-159.705 242.686C-156.176 240.463 -155.243 236.735 -157.571 234.162C-159.584 231.939 -163.939 230.287 -163.939 231.748C-163.939 232.943 -168.699 234.99 -173.633 235.916C-175.908 236.343 -177.769 237.056 -177.769 237.501C-177.769 238.949 -171.491 244.266 -169.126 244.822C-166.267 245.493 -162.977 244.747 -159.705 242.686ZM66.5568 226.033C84.8387 224.651 99.2222 222.319 110.048 218.983C125.66 214.171 129.766 210.462 125.944 204.628C122.355 199.149 120.117 199.027 105.353 203.503C70.8067 213.976 33.6328 216.473 -6.55286 211.019C-11.6639 210.325 -26.2179 207.768 -38.8952 205.336C-74.2988 198.546 -72.6186 198.677 -74.1046 202.586C-75.075 205.139 -74.9736 206.68 -73.6535 209.448C-72.2525 212.387 -70.7591 213.348 -65.2192 214.878C-31.221 224.267 25.9215 229.104 66.5568 226.033ZM60.2182 211.053C65.923 210.416 74.7395 209.094 79.8104 208.115C91.2258 205.912 114.964 199.416 114.953 198.498C114.944 197.842 94.685 185.107 65.7006 167.539L51.5908 158.987L48.037 161.978C43.9218 165.441 42.9544 165.568 38.4775 163.233C34.4267 161.12 34.2874 161.117 34.2874 163.138C34.2874 164.032 32.6306 166.159 30.6056 167.863C25.8305 171.882 20.071 171.258 15.8437 166.264C13.237 163.184 12.7431 163.013 10.7255 164.489C7.14557 167.107 3.23737 166.438 -0.355255 162.591L-3.65314 159.06L-13.7885 166.337C-19.3629 170.34 -32.6677 179.3 -43.3548 186.25C-54.042 193.199 -62.3374 199.024 -61.7892 199.194C-54.6099 201.422 -1.74841 210.356 10.6616 211.439C21.195 212.359 50.5699 212.129 60.2182 211.053ZM30.8864 165.486C32.9618 163.276 33.3396 161.82 32.8846 157.783C32.4999 154.37 32.837 152.325 33.9575 151.278C34.8562 150.439 35.2557 149.416 34.8453 149.005C34.4348 148.595 33.3605 149.269 32.4579 150.504C31.1668 152.27 29.2849 152.787 23.6276 152.933C16.6453 153.112 16.4089 153.22 15.42 156.668C13.5389 163.229 19.984 170.277 26.4091 168.685C27.464 168.424 29.4788 166.984 30.8864 165.486ZM11.0041 162.369C13.6364 159.197 13.7204 155.132 11.2193 151.952C8.07355 147.952 4.05527 147.919 0.949097 151.869C-1.90527 155.498 -2.05215 157.818 0.354645 161.255C2.37466 164.139 8.96323 164.829 11.0041 162.369ZM47.162 160.756C49.7881 158.379 49.8939 152.585 47.3623 149.787C43.1948 145.181 35.4398 148.553 35.4398 154.971C35.4398 161.666 42.3753 165.089 47.162 160.756ZM15.8477 151.137C15.8477 150.503 15.329 149.984 14.6951 149.984C14.0612 149.984 13.5427 150.503 13.5427 151.137C13.5427 151.771 14.0612 152.29 14.6951 152.29C15.329 152.29 15.8477 151.771 15.8477 151.137ZM36.5786 146.238C39.3753 144.812 41.862 142.997 42.1048 142.204C42.8851 139.659 39.079 139.325 35.769 141.648C27.4671 147.474 19.1251 147.498 11.1461 141.717C7.41022 139.01 6.12128 138.596 4.81299 139.682C-0.718842 144.274 7.80576 148.562 22.8065 148.733C29.6757 148.811 32.5583 148.289 36.5786 146.238ZM34.2962 140.757C38.0358 138.093 38.0674 138.001 35.6212 136.91C33.924 136.152 32.1709 136.221 30.1896 137.124C26.1593 138.961 20.9918 138.793 16.9324 136.694C14.2797 135.322 12.9822 135.219 11.0929 136.23C9.0434 137.327 8.90982 137.772 10.2389 139.081C16.169 144.92 27.3563 145.699 34.2962 140.757ZM31.4586 133.323C35.2701 129.511 35.2478 123.639 31.4049 119.071C28.9914 116.202 27.7664 115.683 23.8768 115.881C17.3992 116.212 14.1192 119.703 14.1192 126.265C14.1192 133.206 16.9359 136.152 23.57 136.152C27.4057 136.152 29.3142 135.468 31.4586 133.323ZM33.8759 112.166C37.3596 110.302 45.3722 101.19 47.9188 96.1973C53.1483 85.9449 55.5229 75.0869 55.5666 61.228C55.6037 49.4322 55.2724 47.1751 52.5594 40.7348C47.8574 29.5727 42.5338 21.4821 33.5496 11.8448L25.3206 3.01769L22.0249 5.42281C15.9317 9.86914 4.3439 24.8419 -0.200134 34.1401C-7.4024 48.8778 -8.47147 57.1031 -5.44266 74.4747C-2.42838 91.7629 6.18579 106.986 15.7329 111.897C20.237 114.214 29.7852 114.356 33.8759 112.166ZM20.0045 93.3941C15.9958 90.2403 12.9933 84.1824 11.2486 75.7285C8.70923 63.4237 12.0409 51.6665 21.0738 41.0561C25.7155 35.6036 26.7726 35.9088 33.4185 44.619C39.5779 52.6916 41.5988 59.5836 40.9496 70.3035C39.7811 89.6009 29.5374 100.894 20.0045 93.3941ZM29.6406 92.9458C31.7385 91.8608 34.137 88.8066 36.2039 84.5889C38.9994 78.8842 39.4621 76.5529 39.4674 68.1441C39.476 59.2204 39.1312 57.7149 35.6347 51.2684C33.5234 47.3755 30.3752 42.829 28.6386 41.165L25.4812 38.1396L21.7657 42.7639C15.4601 50.6117 12.4142 58.518 12.4015 67.0704C12.3799 81.6899 17.9021 92.8718 25.989 94.5827C26.179 94.6229 27.8222 93.8863 29.6406 92.9458ZM129.56 270.889C127.131 269.607 122.982 268.13 120.34 267.608C116.255 266.8 116.054 266.641 118.995 266.543C122.229 266.435 134.553 271.306 134.553 272.692C134.553 273.533 134.61 273.553 129.56 270.889ZM101.707 269.031C105.518 266.946 115.212 265.066 114.267 266.595C113.94 267.125 112.018 267.576 109.995 267.599C107.972 267.621 105.021 268.381 103.436 269.287C101.852 270.193 100.036 270.932 99.4025 270.929C98.7686 270.925 99.8059 270.072 101.707 269.031Z" fill="#BBBBBB" stroke="#BBBBBB"/>
</svg>
