<svg width="410" height="748" viewBox="0 0 410 748" fill="none" xmlns="http://www.w3.org/2000/svg">
<g opacity="0.2">
<path d="M421.356 612.797L411.28 605.745C411.28 605.745 404.228 611.79 403.22 612.797C402.212 613.808 411.28 624.887 412.288 624.887C413.296 624.887 417.326 625.898 418.333 623.881C419.341 621.864 421.356 612.797 421.356 612.797Z" fill="white"/>
<path d="M415.311 626.701C414.404 626.701 413.598 626.603 412.993 626.499C412.691 626.499 412.489 626.401 412.288 626.401C410.071 626.401 402.817 616.321 401.91 614.31C401.507 613.2 401.507 612.394 402.111 611.79C403.119 610.782 409.568 605.24 410.273 604.636L411.18 603.83L423.069 612.092L422.868 613.099C422.667 614.004 420.752 622.367 419.744 624.488C418.838 626.297 417.024 626.701 415.311 626.701ZM412.691 623.378C412.893 623.378 413.094 623.378 413.396 623.476C415.613 623.777 416.822 623.679 417.024 623.176C417.629 621.968 418.938 616.928 419.744 613.403L411.482 607.558C409.467 609.27 406.242 612.092 404.933 613.299C405.84 615.616 411.18 622.17 412.691 623.378Z" fill="#BBBBBB"/>
<path d="M401.205 614.813C401.205 612.797 394.152 606.752 394.152 606.752L388.106 614.813L387.099 611.79C387.099 611.79 392.137 620.859 393.144 620.859C394.152 620.859 399.19 622.876 400.197 621.864C401.205 620.859 401.205 614.813 401.205 614.813Z" fill="white"/>
<path d="M399.19 623.678C397.981 623.678 396.469 623.274 394.655 622.771C394.051 622.569 393.346 622.366 393.044 622.366C392.338 622.366 391.532 622.366 388.308 617.026L387.502 618.038L385.587 612.293L388.308 611.084C388.408 611.286 388.51 611.386 388.61 611.588L393.85 604.636L395.059 605.643C398.484 608.565 402.615 612.595 402.615 614.813C402.615 617.835 402.414 621.766 401.205 622.973C400.701 623.476 400.097 623.678 399.19 623.678ZM393.648 619.448C394.051 619.546 394.655 619.65 395.462 619.951C396.368 620.153 398.283 620.754 399.089 620.754C399.391 619.853 399.593 617.333 399.593 615.015C399.391 614.206 397.074 611.588 394.253 609.069L390.223 614.512C391.734 616.726 393.043 618.743 393.648 619.448Z" fill="#BBBBBB"/>
<path d="M352.841 612.797L359.894 605.745L368.962 614.813C368.962 614.813 371.985 619.853 370.977 619.853C369.969 619.853 362.917 620.859 361.909 621.864C360.901 622.876 353.848 621.864 353.848 621.864L352.841 612.797Z" fill="white"/>
<path d="M359.189 623.881C357.879 623.881 356.065 623.777 353.647 623.378L352.438 623.176L351.229 612.192L359.894 603.527L370.272 613.906C373.295 618.945 372.791 619.853 372.489 620.355C372.187 620.858 371.582 621.159 370.978 621.159C369.97 621.159 363.824 622.17 362.917 622.771C362.715 623.274 362.111 623.881 359.189 623.881ZM355.259 620.558C357.879 620.858 360.297 620.956 361.002 620.754C362.413 619.65 366.746 618.945 369.265 618.639C368.862 617.836 368.358 616.83 367.753 615.923L359.894 608.061L354.453 613.501L355.259 620.558ZM370.978 618.338H370.877H370.978Z" fill="#BBBBBB"/>
<path d="M335.711 613.807L344.78 604.736L353.345 617.431C353.345 617.431 351.833 619.853 347.803 620.858C343.772 621.864 339.742 621.864 338.734 620.858C337.727 619.853 335.711 617.836 335.711 617.836V613.807Z" fill="white"/>
<path d="M342.16 623.176C340.347 623.176 338.634 622.875 337.727 621.968L334.301 618.541V613.299L345.082 602.52L355.259 617.633L354.755 618.443C354.654 618.541 352.841 621.361 348.307 622.471C346.594 622.771 344.276 623.176 342.16 623.176ZM337.223 617.229L339.843 619.853C340.347 620.251 343.47 620.454 347.5 619.448C349.516 618.945 350.825 618.038 351.53 617.431L344.578 607.155L337.223 614.513V617.229Z" fill="#BBBBBB"/>
<path d="M333.193 679.301C341.262 679.301 347.803 673.887 347.803 667.21C347.803 660.527 341.262 655.113 333.193 655.113C325.124 655.113 318.583 660.527 318.583 667.21C318.583 673.887 325.124 679.301 333.193 679.301Z" fill="white"/>
<path d="M333.193 680.809C324.326 680.809 317.072 674.665 317.072 667.204C317.072 659.748 324.326 653.605 333.193 653.605C342.06 653.605 349.314 659.748 349.314 667.204C349.314 674.665 342.06 680.809 333.193 680.809ZM333.193 656.628C325.938 656.628 320.094 661.361 320.094 667.204C320.094 673.053 325.938 677.786 333.193 677.786C340.447 677.786 346.292 673.053 346.292 667.204C346.292 661.361 340.447 656.628 333.193 656.628Z" fill="#BBBBBB"/>
<path d="M422.868 679.3C430.937 679.3 437.478 672.985 437.478 665.193C437.478 657.4 430.937 651.085 422.868 651.085C414.799 651.085 408.258 657.4 408.258 665.193C408.258 672.985 414.799 679.3 422.868 679.3Z" fill="white"/>
<path d="M422.868 680.809C414.001 680.809 406.747 673.758 406.747 665.193C406.747 656.628 414.001 649.577 422.868 649.577C431.735 649.577 438.989 656.628 438.989 665.193C438.989 673.758 431.735 680.809 422.868 680.809ZM422.868 652.599C415.613 652.599 409.769 658.24 409.769 665.193C409.769 672.145 415.613 677.786 422.868 677.786C430.122 677.786 435.966 672.145 435.966 665.193C435.966 658.24 430.122 652.599 422.868 652.599Z" fill="#BBBBBB"/>
<path d="M404.731 691.391C413.913 691.391 421.356 683.948 421.356 674.764C421.356 665.585 413.913 658.142 404.731 658.142C395.55 658.142 388.106 665.585 388.106 674.764C388.106 683.948 395.55 691.391 404.731 691.391Z" fill="white"/>
<path d="M404.731 692.899C394.757 692.899 386.595 684.739 386.595 674.763C386.595 664.788 394.757 656.627 404.731 656.627C414.707 656.627 422.868 664.788 422.868 674.763C422.868 684.739 414.707 692.899 404.731 692.899ZM404.731 659.65C396.368 659.65 389.617 666.4 389.617 674.763C389.617 683.126 396.368 689.877 404.731 689.877C413.094 689.877 419.845 683.126 419.845 674.763C419.845 666.4 413.094 659.65 404.731 659.65Z" fill="#BBBBBB"/>
<path d="M354.856 692.397C364.316 692.397 371.985 684.727 371.985 675.266C371.985 665.806 364.316 658.142 354.856 658.142C345.396 658.142 337.727 665.806 337.727 675.266C337.727 684.727 345.396 692.397 354.856 692.397Z" fill="white"/>
<path d="M354.856 693.905C344.579 693.905 336.216 685.542 336.216 675.266C336.216 664.99 344.579 656.627 354.856 656.627C365.133 656.627 373.496 664.99 373.496 675.266C373.496 685.542 365.133 693.905 354.856 693.905ZM354.856 659.65C346.292 659.65 339.238 666.701 339.238 675.266C339.238 683.831 346.292 690.882 354.856 690.882C363.42 690.882 370.474 683.831 370.474 675.266C370.474 666.701 363.42 659.65 354.856 659.65Z" fill="#BBBBBB"/>
<path d="M379.038 697.437C388.498 697.437 396.166 690.214 396.166 681.312C396.166 672.409 388.498 665.193 379.038 665.193C369.578 665.193 361.909 672.409 361.909 681.312C361.909 690.214 369.578 697.437 379.038 697.437Z" fill="white"/>
<path d="M379.038 698.945C368.76 698.945 360.397 690.986 360.397 681.311C360.397 671.643 368.76 663.678 379.038 663.678C389.315 663.678 397.679 671.643 397.679 681.311C397.679 690.986 389.315 698.945 379.038 698.945ZM379.038 666.701C370.473 666.701 363.42 673.255 363.42 681.311C363.42 689.374 370.473 695.922 379.038 695.922C387.603 695.922 394.655 689.374 394.655 681.311C394.655 673.255 387.603 666.701 379.038 666.701Z" fill="#BBBBBB"/>
<path d="M345.787 662.17C345.787 662.17 336.719 662.17 333.697 660.153C330.673 658.136 320.598 647.057 320.598 640C320.598 632.949 321.605 620.859 333.697 608.767C334.402 608.062 340.951 618.339 345.183 625.089C347.299 628.516 345.787 662.17 345.787 662.17Z" fill="white"/>
<path d="M347.198 663.678H345.788C344.78 663.678 336.216 663.58 332.891 661.361C329.566 659.147 319.086 647.762 319.086 640C319.086 631.944 320.497 619.853 332.588 607.659C332.891 607.356 333.395 607.155 333.898 607.155C334.906 607.256 335.913 607.356 346.392 624.286C348.508 627.707 347.501 654.212 347.198 662.17V663.678ZM333.798 610.782C323.319 621.766 322.11 632.649 322.11 640C322.11 646.247 331.58 656.928 334.503 658.945C336.216 660.055 340.951 660.558 344.276 660.656C344.981 644.942 344.981 627.909 343.873 625.996C337.626 615.819 334.906 612.193 333.798 610.782Z" fill="#BBBBBB"/>
<path d="M415.311 657.13C415.311 657.13 420.651 657.13 423.372 655.217C426.092 653.305 435.462 645.04 435.462 632.949C435.462 626.095 432.137 618.541 421.356 606.752C420.45 605.744 411.079 621.968 410.273 627.909C409.265 635.267 415.311 657.13 415.311 657.13Z" fill="white"/>
<path d="M415.311 658.644H414.202L413.9 657.535C413.698 656.627 407.855 635.266 408.862 627.707C409.568 622.268 418.233 606.147 420.852 605.24C421.457 605.039 422.163 605.24 422.565 605.643C432.742 616.726 437.075 624.886 437.075 632.851C437.075 646.554 425.689 655.315 424.379 656.327C421.256 658.644 415.916 658.644 415.311 658.644ZM421.155 608.867C418.736 612.092 412.389 623.476 411.684 628.111C410.878 634.157 415.21 650.987 416.42 655.622C418.233 655.518 420.954 655.113 422.465 654.009C423.674 653.102 433.951 645.242 433.951 633.047C433.951 626.094 430.123 618.841 421.155 608.867Z" fill="#BBBBBB"/>
<path d="M332.991 671.238L329.969 670.938C330.069 670.331 330.775 664.488 333.495 661.968C336.417 659.35 338.332 659.853 338.734 659.951L337.627 662.771C337.727 662.771 337.828 662.771 337.828 662.771C337.828 662.771 337.022 662.673 335.511 664.083C333.898 665.597 333.092 669.828 332.991 671.238Z" fill="#BBBBBB"/>
<path d="M352.135 680.202L349.112 680.006C349.112 679.699 349.717 673.556 353.143 670.631C356.166 668.013 363.219 662.771 363.521 662.575L365.335 664.99C365.234 665.088 358.08 670.331 355.158 672.949C353.042 674.665 352.236 678.792 352.135 680.202Z" fill="#BBBBBB"/>
<path d="M377.929 688.467C377.728 688.264 373.295 683.832 374.504 677.989C375.612 672.55 378.836 669.325 378.937 669.123L381.053 671.238C381.053 671.238 378.332 674.059 377.426 678.491C376.62 682.722 380.045 686.149 380.045 686.149L377.929 688.467Z" fill="#BBBBBB"/>
<path d="M406.746 677.584C406.746 677.584 405.84 672.746 403.22 670.429C400.197 667.811 396.268 663.881 396.066 663.678L398.182 661.563C398.182 661.563 402.212 665.597 405.135 668.111C408.459 671.036 409.568 676.676 409.668 676.983L406.746 677.584Z" fill="#BBBBBB"/>
<path d="M336.92 662.771C325.132 650.784 328.054 631.539 328.155 630.729L331.177 631.238C331.177 631.435 328.457 649.773 339.137 660.656L336.92 662.771Z" fill="#BBBBBB"/>
<path d="M383.673 615.015C383.169 615.015 382.565 614.911 381.759 614.813C381.154 614.911 380.045 614.911 378.836 614.206C376.116 612.595 374.202 608.263 373.194 601.311C373.093 600.404 372.993 599.094 372.791 597.381C372.791 596.776 372.892 596.374 373.194 595.971C371.884 593.955 371.985 590.529 372.187 587.607C372.287 586.6 372.287 585.693 372.287 584.988C372.287 583.98 372.892 583.577 373.093 583.376C373.295 583.275 373.396 583.174 373.597 583.174C373.597 583.073 373.496 582.973 373.496 582.872C372.589 580.957 371.38 578.439 372.086 570.479C372.187 569.471 372.892 569.068 373.093 568.867C373.194 568.766 373.396 568.766 373.496 568.766C373.496 568.665 373.396 568.565 373.396 568.565C372.489 566.448 371.38 563.425 371.985 558.085C372.187 556.776 373.295 556.272 373.9 556.171C373.798 555.869 373.698 555.667 373.496 555.264C372.892 553.954 371.985 552.14 371.985 548.816C371.985 547.506 372.892 546.7 373.496 546.196C373.597 546.095 373.698 545.995 373.798 545.893C373.597 545.591 373.396 545.289 373.194 545.088C372.287 543.879 371.884 543.274 371.884 542.568V541.762V531.687C371.884 530.377 373.093 529.772 374.101 529.369C374 529.269 374 529.268 373.9 529.168C372.791 528.261 371.884 527.455 371.884 526.347C371.884 524.029 371.884 521.812 371.884 519.596C371.884 518.891 372.187 517.984 372.489 517.077C372.691 516.573 372.892 515.767 372.892 515.565C372.892 515.364 372.589 514.86 372.489 514.558C372.187 513.853 371.784 513.147 371.784 512.341C371.683 508.21 371.683 504.281 371.582 500.552C371.582 499.142 372.589 498.537 373.496 498.134C371.38 494.205 371.078 487.958 370.877 483.323C370.877 482.315 370.776 481.509 370.776 480.703C370.776 480.199 370.876 479.695 371.179 479.393C370.876 479.091 370.776 478.688 370.776 478.285C370.776 472.844 370.877 468.713 370.978 466.194C370.978 465.287 371.38 464.582 372.086 464.078C372.691 463.574 373.496 463.473 374.302 463.372C369.869 451.583 370.877 450.677 371.481 449.972C371.985 449.468 372.589 449.266 373.295 449.266C371.582 446.848 369.567 443.523 369.063 440.198C368.862 438.787 369.466 436.47 370.978 435.261C371.582 434.757 372.287 434.455 373.093 434.354C372.691 433.649 372.287 432.641 371.784 431.835C368.862 426.294 366.846 421.961 368.156 419.139C369.164 417.125 370.272 416.117 371.38 415.714C367.35 412.087 364.831 407.351 364.025 401.91C363.622 399.391 364.529 397.879 365.335 397.073C366.242 396.166 367.451 395.663 368.559 395.361C364.73 392.035 358.383 385.788 356.972 379.843C356.266 377.023 357.173 375.511 358.08 374.806C359.592 373.496 362.01 373.395 364.328 373.596C361.204 370.473 357.274 366.342 356.065 364.025C353.143 358.08 354.655 350.825 357.778 347.097C359.793 344.78 362.413 343.873 364.932 344.78C367.451 345.586 368.257 346.392 369.768 347.803C370.574 348.609 371.683 349.616 373.496 351.027C378.434 354.957 387.3 354.755 392.943 350.624C398.988 346.09 400.197 338.331 396.368 328.658C395.864 327.248 394.857 326.542 393.346 326.341C390.726 326.039 387.502 327.651 386.394 329.263C386.192 329.566 385.89 330.069 386.091 330.371C386.796 331.782 387.502 332.387 388.308 332.991C389.719 334.2 390.726 335.309 390.323 338.331C389.315 344.679 385.587 345.687 383.37 345.787C383.27 345.787 383.27 345.787 383.169 345.787C377.527 345.787 370.071 339.641 369.164 335.409C368.257 330.775 368.66 316.164 382.161 310.522C389.517 307.499 396.066 307.6 401.709 310.825C411.382 316.466 415.009 329.666 415.512 333.898C418.132 356.166 402.615 364.226 396.772 367.349C395.966 367.753 395.059 368.257 394.857 368.458C392.439 370.876 388.912 370.876 388.711 370.876V367.853C388.711 367.853 391.129 367.853 392.641 366.242C393.144 365.738 393.95 365.335 395.26 364.629C401.104 361.606 414.807 354.352 412.389 334.2C411.785 329.464 408.056 318.079 400.097 313.444C395.361 310.623 389.617 310.623 383.27 313.243C371.582 318.079 371.28 330.674 372.086 334.704C372.589 337.122 378.635 342.765 383.169 342.664C383.976 342.664 386.494 342.563 387.199 337.827C387.401 336.316 387.199 336.115 386.293 335.309C385.487 334.603 384.378 333.696 383.37 331.682C382.665 330.371 382.867 328.86 383.874 327.449C385.789 324.729 390.223 322.815 393.648 323.217C396.268 323.52 398.182 325.031 399.19 327.349C403.522 338.231 401.91 347.601 394.757 352.941C388.006 357.979 377.627 358.08 371.582 353.344C369.667 351.833 368.559 350.725 367.653 349.919C366.242 348.609 365.839 348.206 363.924 347.601C362.211 346.997 360.801 348.105 359.995 349.012C357.577 351.833 356.368 357.879 358.685 362.614C360.095 365.435 367.653 372.69 370.474 375.31C370.978 375.814 371.078 376.62 370.776 377.224C370.373 377.829 369.667 378.131 368.962 377.829C366.141 376.821 361.406 375.814 360.095 376.922C359.592 377.325 359.693 378.332 359.894 379.038C361.708 386.494 373.295 395.26 373.396 395.361C373.9 395.764 374.101 396.469 373.9 397.174C373.597 397.779 372.993 398.182 372.287 398.081C371.38 397.98 368.559 397.88 367.451 399.089C367.249 399.29 366.746 399.794 366.947 401.406C367.955 407.653 371.683 412.993 377.527 416.419C378.836 417.125 378.635 418.031 378.434 418.535C377.829 419.744 376.62 419.341 376.116 419.24L375.511 419.039C372.791 418.132 372.187 417.93 370.877 420.449C370.071 422.061 372.993 427.704 374.504 430.324C376.418 434.052 377.325 435.563 376.217 436.772C376.015 437.075 375.31 437.679 374.101 437.276C373.496 437.075 373.194 437.276 372.892 437.478C372.187 438.082 371.985 439.291 371.985 439.695C372.892 445.236 378.534 450.878 378.635 450.979C379.139 451.483 379.24 452.289 378.836 452.894C378.434 453.498 377.627 453.7 376.922 453.398C375.914 452.894 374.806 452.491 374 452.289C374.403 454.506 376.217 459.947 378.031 464.581C378.232 465.085 378.131 465.69 377.729 466.093C377.325 466.496 376.721 466.697 376.217 466.496C375.511 466.295 374.504 466.194 374.101 466.295C374 468.713 374 472.441 373.9 477.277C376.318 478.587 377.325 479.393 376.922 480.703C376.519 482.013 375.109 481.811 374.101 481.711H374C374 482.114 374 482.516 374.101 483.02C374.302 487.554 374.605 494.507 376.821 497.429C377.325 498.134 377.225 498.839 377.124 499.142C376.821 500.149 375.814 500.452 375.209 500.653C375.109 500.653 374.907 500.754 374.806 500.754C374.907 504.381 375.008 508.21 375.008 512.14C375.008 512.341 375.31 512.845 375.411 513.147C375.713 513.853 376.116 514.558 376.116 515.464C376.116 516.17 375.814 517.077 375.511 517.984C375.31 518.487 375.109 519.293 375.109 519.495C375.109 521.611 375.109 523.727 375.109 525.943C375.31 526.145 375.814 526.548 376.015 526.749C377.124 527.656 378.031 528.463 378.031 529.571C378.031 530.981 376.62 531.586 375.511 531.989C375.31 532.09 375.109 532.09 375.008 532.19V542.065V542.166C375.209 542.468 375.511 542.871 375.713 543.173C376.62 544.382 377.023 544.987 377.023 545.692C377.023 547.002 376.116 547.808 375.511 548.311C375.31 548.413 375.109 548.614 375.008 548.816C375.008 551.435 375.612 552.745 376.217 553.853C376.62 554.66 377.023 555.566 377.023 556.776C377.023 557.985 376.318 558.69 374.907 558.992C374.504 563.224 375.411 565.541 376.116 567.456C376.62 568.564 377.023 569.672 377.023 570.882C377.023 571.99 376.318 572.494 376.015 572.595C375.612 572.796 375.209 572.796 374.806 572.695C374.504 578.338 375.411 580.252 376.116 581.663C376.519 582.57 377.023 583.477 377.023 584.988C377.023 585.995 376.418 586.499 376.217 586.6C375.914 586.802 375.511 586.902 375.209 586.802C375.209 587.104 375.209 587.507 375.109 587.809C375.008 590.026 374.806 594.157 376.015 594.661C377.225 595.064 377.325 595.87 377.325 596.273C377.325 597.482 376.217 597.784 375.814 597.885C375.914 599.195 376.015 600.203 376.116 600.908C377.225 608.565 379.139 610.782 380.147 611.487C380.751 611.89 381.154 611.79 381.154 611.79C381.456 611.689 381.658 611.689 381.96 611.79C382.766 611.991 383.673 611.991 383.976 611.991C383.976 611.991 383.774 611.991 383.673 612.193L385.789 614.31C385.688 614.611 385.185 615.015 383.673 615.015Z" fill="#BBBBBB"/>
<path d="M371.682 129.257C365.033 129.257 358.886 127.041 355.461 123.212L354.755 122.506L355.158 121.6C356.468 118.577 359.188 116.058 363.017 114.547L363.622 114.345L364.226 114.647C369.063 116.864 374.403 116.864 379.24 114.647L379.844 114.345L380.449 114.547C384.277 116.159 386.998 118.577 388.308 121.6L388.71 122.506L388.005 123.212C384.479 127.041 378.433 129.257 371.682 129.257ZM358.382 121.902C361.405 124.623 366.342 126.235 371.682 126.235C377.023 126.235 381.96 124.623 384.983 121.902C383.975 120.189 382.161 118.678 379.844 117.57C374.604 119.786 368.861 119.786 363.622 117.57C361.204 118.678 359.491 120.189 358.382 121.902Z" fill="#BBBBBB"/>
<path d="M371.682 135.908C361.607 135.908 352.639 132.382 348.105 126.638L347.097 125.328L348.508 124.422C350.725 123.011 353.244 121.701 356.065 120.794L356.972 120.492L357.677 121.197C360.599 124.321 365.939 126.235 371.682 126.235C377.426 126.235 382.766 124.321 385.688 121.197L386.393 120.492L387.3 120.794C390.121 121.802 392.64 123.011 394.857 124.422L396.268 125.328L395.26 126.638C390.726 132.382 381.758 135.908 371.682 135.908ZM351.732 126.034C355.964 130.265 363.622 132.885 371.783 132.885C379.945 132.885 387.603 130.265 391.834 126.034C390.424 125.228 388.912 124.522 387.3 123.918C383.774 127.243 378.03 129.157 371.783 129.157C365.536 129.157 359.894 127.243 356.266 123.918C354.554 124.623 353.042 125.328 351.732 126.034Z" fill="#BBBBBB"/>
<path d="M355.057 143.868C350.221 143.868 346.292 140.845 346.292 137.017C346.292 133.188 350.221 130.165 355.057 130.165C359.893 130.165 363.824 133.188 363.824 137.017C363.824 140.845 359.893 143.868 355.057 143.868ZM355.057 133.289C351.934 133.289 349.314 135.001 349.314 137.117C349.314 139.233 351.934 140.946 355.057 140.946C358.181 140.946 360.801 139.233 360.801 137.117C360.801 135.001 358.181 133.289 355.057 133.289Z" fill="#BBBBBB"/>
<path d="M399.693 135.908C398.383 135.908 397.074 135.707 395.764 135.304C392.943 134.498 390.827 132.885 390.121 130.971C389.718 129.762 389.819 128.553 390.423 127.545C392.036 124.925 396.67 124.019 401.104 125.329C403.925 126.134 406.041 127.747 406.746 129.661C407.149 130.87 407.049 132.079 406.444 133.087C405.235 134.901 402.716 135.908 399.693 135.908ZM397.174 127.747C395.159 127.747 393.547 128.351 393.043 129.158C392.842 129.359 392.842 129.661 392.943 129.963C393.245 130.77 394.454 131.878 396.57 132.483C399.794 133.389 403.018 132.785 403.824 131.576C404.026 131.374 404.026 131.072 403.925 130.77C403.623 129.963 402.413 128.855 400.298 128.251C399.19 127.848 398.081 127.747 397.174 127.747Z" fill="#BBBBBB"/>
<path d="M343.671 135.908C340.749 135.908 338.13 134.901 337.022 133.087C336.316 132.079 336.215 130.77 336.719 129.661C337.424 127.747 339.54 126.134 342.362 125.329C346.795 124.019 351.329 124.925 353.042 127.545C353.747 128.553 353.848 129.863 353.345 130.971C352.639 132.885 350.523 134.498 347.702 135.304C346.291 135.707 344.981 135.908 343.671 135.908ZM346.291 127.747C345.284 127.747 344.276 127.848 343.167 128.15C341.052 128.754 339.843 129.863 339.54 130.669C339.44 130.971 339.44 131.172 339.641 131.475C340.447 132.684 343.671 133.389 346.896 132.381C349.012 131.777 350.221 130.669 350.523 129.863C350.624 129.561 350.624 129.359 350.422 129.057C349.919 128.351 348.307 127.747 346.291 127.747Z" fill="#BBBBBB"/>
<path d="M387.804 143.062C382.968 143.062 379.038 140.039 379.038 136.21C379.038 132.381 382.968 129.358 387.804 129.358C392.641 129.358 396.57 132.381 396.57 136.21C396.57 140.039 392.741 143.062 387.804 143.062ZM387.804 132.381C384.681 132.381 382.061 134.094 382.061 136.21C382.061 138.326 384.681 140.039 387.804 140.039C390.928 140.039 393.547 138.326 393.547 136.21C393.547 134.094 390.928 132.381 387.804 132.381Z" fill="#BBBBBB"/>
<path d="M371.481 146.79C365.637 146.79 360.901 143.163 360.901 138.628C360.901 136.412 362.01 134.296 364.025 132.785L364.529 132.381L365.133 132.482C369.264 133.087 373.496 133.087 377.527 132.381L378.131 132.281L378.635 132.684C380.852 134.195 381.96 136.412 381.96 138.628C382.061 143.062 377.325 146.79 371.481 146.79ZM365.335 135.505C364.327 136.412 363.823 137.419 363.823 138.528C363.823 141.349 367.35 143.666 371.38 143.666C375.511 143.666 378.937 141.349 378.937 138.528C378.937 137.419 378.332 136.311 377.325 135.404C373.496 136.009 369.365 136.11 365.335 135.505Z" fill="#BBBBBB"/>
<path d="M364.126 128.049H363.924L364.831 125.126L364.428 126.537L364.932 125.126L364.528 126.638L364.126 128.049Z" fill="#BBBBBB"/>
<path d="M365.234 128.351H365.033L365.838 125.429H366.04L365.234 128.351Z" fill="#BBBBBB"/>
<path d="M363.017 127.646H362.917L363.924 124.824H364.024L363.017 127.646Z" fill="#BBBBBB"/>
<path d="M372.187 129.258C371.784 129.258 371.38 129.258 370.877 129.258L370.978 126.235C371.38 126.235 371.683 126.235 372.086 126.235V129.258H372.187Z" fill="#BBBBBB"/>
<path d="M361.909 127.243L363.118 124.523L362.413 125.832L363.017 124.421L363.118 124.523L361.909 127.243Z" fill="#BBBBBB"/>
<path d="M366.544 128.654H366.141L366.846 125.631L367.149 125.731L366.544 128.654Z" fill="#BBBBBB"/>
<path d="M369.063 129.056H368.861C368.76 129.056 368.559 129.056 368.458 129.056L368.861 126.034L369.365 126.134L369.063 129.056Z" fill="#BBBBBB"/>
<path d="M370.373 129.157H370.171C369.969 129.157 369.869 129.157 369.667 129.157L369.969 126.135C370.07 126.135 370.272 126.135 370.373 126.135H370.574L370.373 129.157Z" fill="#BBBBBB"/>
<path d="M367.753 128.855H367.652C367.551 128.855 367.451 128.855 367.35 128.855L367.853 125.832L368.257 125.933L367.753 128.855Z" fill="#BBBBBB"/>
<path d="M375.31 129.056L375.007 126.033L375.511 125.933L375.914 128.955C375.814 128.955 375.612 128.955 375.511 128.955L375.31 129.056Z" fill="#BBBBBB"/>
<path d="M379.24 128.351L378.434 125.429H378.534L379.441 128.351H379.24Z" fill="#BBBBBB"/>
<path d="M381.456 127.646L380.449 124.824H380.549L381.557 127.646H381.456Z" fill="#BBBBBB"/>
<path d="M380.348 128.049L379.441 125.126H379.542L380.549 128.049H380.348Z" fill="#BBBBBB"/>
<path d="M355.561 143.868C350.725 143.868 346.795 140.845 346.795 137.017C346.795 133.289 350.725 130.165 355.561 130.165C360.397 130.165 364.327 133.188 364.327 137.017C364.428 140.845 360.397 143.868 355.561 143.868ZM355.561 133.289C352.437 133.289 349.818 135.001 349.818 137.117C349.818 139.132 352.437 140.946 355.561 140.946C358.684 140.946 361.304 139.233 361.304 137.117C361.405 135.001 358.684 133.289 355.561 133.289Z" fill="#BBBBBB"/>
<path d="M377.929 128.654L377.325 125.731L377.627 125.631L378.332 128.654H377.929Z" fill="#BBBBBB"/>
<path d="M376.72 128.855L376.216 125.832L376.62 125.731L377.123 128.754C377.023 128.754 376.922 128.754 376.821 128.754L376.72 128.855Z" fill="#BBBBBB"/>
<path d="M372.187 129.258V126.235C372.589 126.235 372.992 126.235 373.295 126.235L373.396 129.258C373.093 129.258 372.69 129.258 372.187 129.258Z" fill="#BBBBBB"/>
<path d="M374.101 129.157L373.899 126.135H374.101C374.202 126.135 374.403 126.135 374.504 126.135L374.806 129.157C374.604 129.157 374.504 129.157 374.302 129.157H374.101Z" fill="#BBBBBB"/>
<path d="M372.589 119.585C361.002 119.585 351.934 104.068 351.934 84.3191C351.934 76.3596 355.36 67.795 361.808 59.5327C366.645 53.3865 371.481 49.5577 371.683 49.3562L372.589 48.6509L373.496 49.3562C373.698 49.5577 378.434 53.2858 383.37 59.5327C389.819 67.795 393.245 76.3596 393.245 84.3191C393.245 104.169 384.177 119.585 372.589 119.585ZM372.589 52.5805C368.862 55.9055 354.957 69.0041 354.957 84.3191C354.957 102.053 362.917 116.562 372.589 116.562C382.262 116.562 390.222 102.053 390.222 84.3191C390.222 69.0041 376.418 55.8047 372.589 52.5805Z" fill="#BBBBBB"/>
<path d="M372.589 105.479C366.947 105.479 362.513 97.7208 362.513 87.8465C362.513 78.3751 371.279 70.9191 371.582 70.6168L372.589 69.8105L373.597 70.6168C374 70.9191 382.665 78.3751 382.665 87.8465C382.665 97.7208 378.232 105.479 372.589 105.479ZM372.589 73.8412C370.473 75.957 365.536 81.499 365.536 87.8465C365.536 94.7987 368.458 102.456 372.589 102.456C376.72 102.456 379.642 94.7987 379.642 87.8465C379.642 81.499 374.806 75.957 372.589 73.8412Z" fill="#BBBBBB"/>
<path d="M368.66 162.005C357.072 162.005 350.423 152.131 348.609 149.208C345.888 149.108 338.029 148.503 334.301 144.775C329.464 139.939 336.417 130.669 337.223 129.661L339.642 131.475C338.029 133.591 333.999 140.039 336.518 142.559C339.44 145.481 346.896 146.186 349.516 146.186H350.423L350.825 146.992C350.825 146.992 352.841 150.821 356.568 154.146C361.506 158.478 367.148 159.788 373.295 158.277C389.315 154.246 390.826 151.324 393.446 145.984C394.756 143.365 397.577 142.659 399.995 142.155C402.413 141.652 403.824 141.248 404.53 139.939C405.94 137.218 404.228 132.684 403.522 131.173L406.242 129.863C406.343 130.165 409.567 136.614 407.25 141.248C405.94 143.868 403.119 144.574 400.701 145.077C398.283 145.581 396.872 145.984 396.166 147.294C392.943 153.742 390.625 157.068 374 161.199C372.186 161.803 370.373 162.005 368.66 162.005Z" fill="#BBBBBB"/>
<path d="M369.365 172.584C351.833 172.584 341.556 159.889 339.541 157.168C336.518 156.463 325.133 153.339 322.915 147.294C322.21 145.279 322.21 143.365 323.218 141.45C325.938 135.707 335.611 132.382 336.014 132.281L336.921 135.102C334.503 135.908 327.752 138.83 325.938 142.659C325.334 143.868 325.334 144.976 325.737 146.186C327.349 150.518 337.123 153.541 340.75 154.347L341.354 154.448L341.657 154.951C341.758 155.153 352.841 171.274 372.489 169.36C391.935 167.546 396.469 163.012 400.197 157.269C401.205 155.858 403.22 154.448 405.84 152.735C410.878 149.41 417.225 145.279 415.512 140.039C414.505 137.118 409.467 135.405 407.553 135.001L408.157 132.08C409.064 132.281 416.621 134.094 418.334 139.132C420.752 146.488 413.094 151.626 407.452 155.253C405.437 156.564 403.22 157.974 402.615 158.982C398.484 165.128 393.446 170.469 372.691 172.383C371.683 172.584 370.474 172.584 369.365 172.584Z" fill="#BBBBBB"/>
<path d="M368.66 190.116C346.795 190.116 333.697 172.786 331.48 169.561C328.457 168.755 314.854 164.523 313.747 156.06C312.839 148.604 320.699 145.077 325.031 144.271L325.535 147.294C325.132 147.395 315.862 149.107 316.668 155.657C317.474 161.702 328.457 165.732 332.689 166.74L333.293 166.841L333.596 167.345C333.697 167.546 347.702 189.209 372.488 186.791C396.973 184.373 402.615 178.227 407.451 170.569C408.56 168.755 411.18 166.942 414.404 164.625C420.852 160.09 428.913 154.447 426.696 147.093C425.387 142.961 418.838 140.644 416.419 140.039L417.124 137.117C417.527 137.218 427.503 139.535 429.518 146.186C432.439 155.556 422.968 162.206 416.116 167.043C413.396 168.957 410.777 170.77 409.971 172.081C404.933 180.242 398.585 187.194 372.791 189.713C371.481 190.015 370.07 190.116 368.66 190.116Z" fill="#BBBBBB"/>
<path d="M381.658 617.027C381.154 617.027 380.549 616.929 379.743 616.83C379.138 616.929 378.232 616.929 377.123 616.426C376.216 615.923 375.411 615.218 374.604 614.108C373.899 614.513 372.891 614.709 371.682 614.709C370.171 614.709 366.04 614.709 361.204 591.135C358.483 578.036 356.568 561.814 356.065 548.816C355.057 522.82 344.981 448.461 330.069 422.566C327.651 418.434 326.039 414.908 324.427 411.382C318.885 399.291 313.142 386.797 274.854 349.314C263.468 338.131 251.981 323.218 243.417 308.407C234.248 292.588 228.807 277.776 228.102 266.693C224.878 214.903 264.073 186.187 276.163 178.63C277.977 177.521 280.496 175.708 283.721 173.491L285.534 172.181C293.998 166.236 303.267 159.889 313.545 154.448C314.25 154.045 315.056 154.246 315.459 154.851C319.389 160.292 331.883 165.732 331.984 165.732C332.286 165.834 332.487 166.035 332.689 166.337C332.79 166.539 346.795 188.202 371.582 185.784C396.066 183.366 401.708 177.219 406.545 169.561C407.653 167.748 410.978 165.43 415.21 162.408C420.047 159.083 425.487 155.254 428.006 151.828C428.208 151.526 428.611 151.324 429.014 151.224C429.417 151.123 429.82 151.324 430.123 151.526C431.936 153.037 475.665 188 486.648 198.983C488.764 201.099 490.98 203.114 493.096 205.129C502.366 213.795 511.132 221.855 515.263 236.969C520.402 255.408 516.271 281.101 511.132 291.479C506.094 301.555 468.209 349.214 466.597 351.229L466.496 351.33C466.295 351.531 443.322 374.504 434.455 390.323C425.79 405.739 420.55 415.009 411.382 438.486C402.515 461.257 397.376 503.172 397.376 503.576C397.275 504.18 389.315 561.209 388.308 580.051C387.501 594.661 385.184 614.911 383.874 616.322C383.672 616.628 383.169 617.027 381.658 617.027ZM379.642 613.808C379.743 613.808 379.844 613.808 380.045 613.906C380.549 614.004 381.154 614.108 381.557 614.108C382.363 610.883 384.378 596.777 385.285 580.051C386.292 561.109 394.252 503.878 394.353 503.374C394.353 502.971 399.492 460.652 408.56 437.579C417.83 413.9 423.069 404.53 431.835 389.014C440.802 373.194 462.667 351.027 464.279 349.416C465.892 347.3 503.575 299.943 508.412 290.27C513.349 280.396 517.278 255.71 512.341 237.976C508.412 223.769 499.948 215.91 490.98 207.548C488.864 205.532 486.647 203.517 484.532 201.401C474.657 191.527 436.571 160.896 429.417 155.053C426.394 158.478 421.356 162.005 416.923 165.128C413.497 167.547 409.971 170.065 409.064 171.375C404.026 179.537 397.678 186.489 371.884 189.008C347.198 191.527 332.588 171.677 330.371 168.554C328.155 167.547 318.381 163.113 313.847 157.874C304.174 163.113 295.308 169.159 287.247 174.801L285.433 176.111C282.209 178.428 279.69 180.141 277.776 181.35C266.087 188.706 228.001 216.515 231.125 266.592C232.636 290.371 255.609 326.241 277.07 347.199C315.761 385.083 321.606 397.88 327.248 410.173C328.86 413.598 330.472 417.125 332.689 421.054C341.153 435.765 347.5 463.977 351.228 485.036C355.964 511.133 358.584 536.322 359.088 548.715C359.592 561.411 361.506 577.432 364.126 590.228C368.357 610.883 371.682 611.689 371.682 611.689C372.791 611.689 373.093 611.488 373.093 611.488C373.093 611.286 372.791 610.581 372.489 610.077C372.287 609.775 372.186 609.472 372.186 609.07V608.263C372.186 607.558 372.791 606.954 373.496 606.853C374.202 606.752 374.907 607.256 375.108 607.961C376.62 613.299 378.534 614.004 379.138 613.808C379.441 613.808 379.542 613.808 379.642 613.808Z" fill="#BBBBBB"/>
<path d="M374.907 228.102C341.959 228.102 311.53 213.593 291.882 188L294.3 186.187C315.661 213.996 350.12 228.304 386.494 224.475C416.117 221.351 441.407 206.439 450.98 186.388L453.7 187.698C443.725 208.656 417.427 224.273 386.796 227.498C382.766 227.9 378.836 228.102 374.907 228.102Z" fill="#BBBBBB"/>
<path d="M369.567 248.253C353.345 248.253 337.929 244.626 324.729 237.674C306.593 228.102 293.494 212.988 285.735 192.736L288.557 191.627C296.013 211.174 308.709 225.784 326.14 234.953C341.556 243.014 359.793 246.44 379.138 244.828C418.636 241.402 451.382 217.824 457.025 188.806L459.947 189.411C456.924 204.927 447.151 218.731 431.533 229.613C416.923 239.689 398.484 246.238 379.34 247.85C376.015 248.052 372.791 248.253 369.567 248.253Z" fill="#BBBBBB"/>
<path d="M370.977 282.915C368.76 282.915 366.242 282.713 362.513 282.31C353.345 281.403 345.082 275.761 337.122 270.32C335.913 269.514 334.805 268.708 333.596 267.901C326.845 263.367 312.537 250.269 313.847 246.037C313.444 245.533 312.134 244.727 311.429 244.324C310.522 243.719 309.716 243.317 309.212 242.712C308.507 242.913 307.298 243.619 306.29 244.526C305.585 245.332 305.787 250.47 306.694 255.206C306.794 255.609 306.694 256.113 306.391 256.415C304.376 259.035 299.136 263.166 293.393 259.841L292.587 259.337C288.255 256.919 288.053 256.717 286.139 253.191C285.433 251.881 284.526 249.966 282.814 247.145C276.97 237.472 276.567 235.759 274.048 224.676L273.544 222.46C271.227 212.585 270.521 196.665 270.521 195.96L273.544 195.859C273.544 196.061 274.35 212.182 276.567 221.754L277.07 223.971C279.59 235.054 279.892 236.263 285.433 245.533C287.146 248.455 288.154 250.369 288.859 251.679C290.27 254.4 290.27 254.4 294.098 256.616L294.905 257.12C299.036 259.438 302.462 256.314 303.57 255.004C302.865 251.377 301.958 244.425 304.074 242.309C305.585 240.797 308.709 238.883 310.522 239.588C311.026 239.79 311.429 240.193 311.63 240.797C311.933 240.999 312.537 241.402 312.941 241.604C314.855 242.712 317.676 244.425 316.769 246.843C317.374 249.261 326.644 259.538 335.309 265.282C336.518 266.088 337.727 266.894 338.835 267.7C346.493 272.939 354.453 278.279 362.816 279.186C372.589 280.194 373.396 280.194 384.479 277.172C396.268 273.947 407.452 269.01 410.978 265.483C414.707 261.755 422.968 252.586 423.976 251.579C424.783 250.269 429.518 243.014 433.851 242.006C438.687 240.797 443.221 242.208 445.538 245.634C446.849 247.548 446.849 249.664 446.849 251.377C446.849 252.687 446.849 253.896 447.453 254.5C449.972 257.02 451.987 257.221 454.506 255.407L455.514 254.702C459.343 251.881 464.179 248.253 464.985 243.317C465.388 240.898 466.194 238.681 467.101 236.263C468.612 232.233 470.325 227.598 470.93 220.243C471.937 208.353 471.937 193.34 471.937 193.139H474.96C474.96 193.34 474.96 208.454 473.952 220.444C473.348 228.203 471.433 233.241 469.922 237.271C469.015 239.588 468.31 241.704 467.907 243.82C466.899 249.966 461.257 254.098 457.227 257.12L456.219 257.826C452.491 260.647 448.763 260.244 445.135 256.717C443.725 255.307 443.725 253.291 443.725 251.478C443.725 249.966 443.725 248.556 443.02 247.448C441.407 245.13 438.183 244.123 434.556 245.03C432.037 245.634 428.208 250.47 426.394 253.393C426.394 253.493 426.294 253.493 426.193 253.594C425.79 253.997 417.024 263.771 412.994 267.801C408.358 272.436 395.361 277.474 385.083 280.295C378.03 282.209 374.907 282.915 370.977 282.915Z" fill="#BBBBBB"/>
<path d="M295.006 231.427C294.602 230.923 284.728 220.142 280.698 212.988C276.567 205.633 276.466 193.643 276.466 193.139H279.488C279.488 193.24 279.59 204.928 283.317 211.577C287.247 218.429 297.122 229.311 297.222 229.412L295.006 231.427Z" fill="#BBBBBB"/>
<path d="M368.559 306.895C356.468 306.895 347.601 300.749 336.618 293.192C323.117 283.923 317.575 254.098 317.374 252.889L320.397 252.385C320.497 252.687 326.039 282.109 338.432 290.774C352.135 300.246 360.499 305.485 373.597 303.57C386.897 301.656 395.966 298.935 406.041 289.867C417.427 279.59 423.17 265.786 423.775 264.275L427.704 254.501V247.448H430.727V254.803C430.727 255.005 430.727 255.206 430.626 255.408L426.596 265.484C425.992 267.096 419.946 281.504 408.056 292.285C397.376 301.857 387.905 304.779 374 306.795C372.086 306.694 370.272 306.895 368.559 306.895Z" fill="#BBBBBB"/>
<path d="M355.259 339.944C355.057 339.541 350.019 330.372 351.027 322.916C351.934 316.769 354.856 311.53 356.468 308.709C356.77 308.205 357.073 307.701 357.173 307.399C358.483 304.88 361.405 304.074 361.708 303.973L362.413 306.895C362.413 306.895 360.599 307.399 359.893 308.709C359.692 309.112 359.39 309.515 359.088 310.12C357.576 312.84 354.755 317.777 353.949 323.319C353.042 329.767 357.778 338.433 357.778 338.533L355.259 339.944Z" fill="#BBBBBB"/>
<path d="M424.581 313.243C424.581 312.94 423.573 305.787 416.218 301.252C408.359 296.315 406.243 295.308 406.243 295.308L407.553 292.587C407.653 292.587 409.769 293.695 417.729 298.733C426.294 304.074 427.402 312.537 427.503 312.94L424.581 313.243Z" fill="#BBBBBB"/>
<path d="M319.59 265.987C319.389 265.886 314.351 262.863 311.227 259.74C308.507 257.019 304.88 256.113 304.88 256.113L305.585 253.19C305.787 253.19 310.018 254.299 313.343 257.624C316.165 260.445 321.102 263.367 321.102 263.467L319.59 265.987Z" fill="#BBBBBB"/>
<path d="M271.126 174.096C267.902 171.879 263.065 172.584 258.128 175.607C260.647 179.738 260.445 186.892 257.02 193.642C252.687 202.207 244.828 207.043 239.387 204.525C238.984 209.059 240.092 212.787 242.813 214.701C248.657 218.732 259.74 212.988 267.599 201.804C275.358 190.519 276.97 178.126 271.126 174.096Z" fill="white"/>
<path d="M247.246 217.522C245.231 217.522 243.417 217.018 241.906 215.91C238.783 213.794 237.372 209.663 237.876 204.424C237.876 203.92 238.178 203.517 238.581 203.215C238.984 202.912 239.488 202.912 239.992 203.114C244.727 205.23 251.679 200.595 255.609 192.937C258.632 186.892 259.136 180.242 256.818 176.413C256.617 176.111 256.516 175.607 256.617 175.304C256.717 174.902 256.919 174.599 257.322 174.398C263.065 170.972 268.405 170.367 272.032 172.886C278.683 177.521 277.272 190.62 268.809 202.711C264.879 208.353 260.042 212.787 255.105 215.406C252.284 216.817 249.664 217.522 247.246 217.522ZM240.797 206.54C240.898 209.764 241.805 212.182 243.619 213.492C245.936 215.104 249.564 214.802 253.695 212.686C258.128 210.368 262.662 206.237 266.289 200.998C273.544 190.62 275.358 178.932 270.219 175.405C267.901 173.793 264.174 174.095 260.042 176.312C262.158 181.048 261.453 188 258.229 194.348C254.098 202.61 246.742 207.547 240.797 206.54Z" fill="#BBBBBB"/>
<path d="M258.027 175.808C254.802 174.196 250.268 175.304 245.936 178.428C246.541 178.428 247.044 178.63 247.548 178.831C250.37 180.242 250.268 184.877 247.346 189.108C244.425 193.34 239.79 195.658 237.069 194.247C236.666 194.045 236.263 193.743 235.961 193.34C235.054 197.874 236.163 201.703 239.286 203.315C244.223 205.834 252.485 201.703 257.624 194.146C262.864 186.489 263.065 178.327 258.027 175.808Z" fill="white"/>
<path d="M242.611 205.431C241.2 205.431 239.79 205.129 238.581 204.524C234.953 202.71 233.341 198.277 234.449 192.937C234.55 192.332 234.953 191.929 235.558 191.728C236.162 191.627 236.767 191.828 237.069 192.232C237.271 192.433 237.472 192.635 237.674 192.735C239.487 193.642 243.417 192.03 246.037 188.101C247.649 185.783 248.354 183.264 247.85 181.551C247.649 180.846 247.346 180.342 246.742 180.04C246.439 179.939 246.137 179.838 245.734 179.838C245.13 179.838 244.525 179.334 244.324 178.73C244.123 178.125 244.324 177.42 244.928 177.118C249.866 173.591 254.904 172.584 258.531 174.397C260.546 175.405 261.956 177.32 262.662 179.738C263.77 184.07 262.36 189.712 258.732 194.851C254.5 201.4 248.052 205.431 242.611 205.431ZM237.17 195.758C237.069 198.68 238.077 200.897 239.991 201.804C244.223 203.92 251.78 199.99 256.415 193.139C259.438 188.705 260.747 183.869 259.84 180.443C259.438 178.831 258.531 177.722 257.322 177.017C255.306 176.009 252.284 176.413 249.261 178.025C250.067 178.73 250.571 179.637 250.873 180.745C251.579 183.365 250.672 186.69 248.555 189.814C245.533 194.448 240.696 196.866 237.17 195.758Z" fill="#BBBBBB"/>
<path d="M305.585 163.516C303.671 160.09 299.036 158.679 293.192 159.083C293.695 163.919 290.27 170.166 284.224 174.7C276.567 180.444 267.398 181.35 263.569 176.715C261.251 180.645 260.546 184.474 262.158 187.396C265.584 193.643 278.078 193.34 290.068 186.791C302.159 180.141 309.011 169.763 305.585 163.516Z" fill="white"/>
<path d="M272.436 193.34C266.894 193.34 262.763 191.527 260.949 188.1C259.135 184.776 259.639 180.544 262.36 175.909C262.662 175.506 263.065 175.204 263.569 175.204C264.073 175.204 264.576 175.405 264.878 175.707C268.103 179.637 276.466 178.629 283.418 173.491C288.859 169.46 292.184 163.717 291.781 159.183C291.781 158.78 291.882 158.377 292.084 158.074C292.386 157.772 292.688 157.571 293.091 157.571C299.741 156.966 304.779 158.881 306.895 162.71C308.809 166.236 308.104 170.871 304.88 175.808C301.857 180.443 296.819 184.776 290.874 188C284.829 191.325 278.582 193.239 273.04 193.34C272.838 193.34 272.637 193.34 272.436 193.34ZM264.073 179.234C262.662 182.156 262.561 184.776 263.569 186.69C264.98 189.209 268.305 190.519 272.939 190.418C277.977 190.317 283.821 188.503 289.363 185.481C294.904 182.458 299.54 178.428 302.361 174.196C304.98 170.266 305.585 166.74 304.275 164.321C302.865 161.803 299.438 160.492 294.804 160.594C294.602 165.833 290.975 171.677 285.232 176.009C277.675 181.551 268.909 182.76 264.073 179.234Z" fill="#BBBBBB"/>
<path d="M293.091 159.183C290.875 156.262 286.34 155.254 281.101 156.16C281.604 156.463 282.008 156.765 282.31 157.168C284.224 159.687 282.108 163.718 277.574 166.236C273.141 168.756 267.901 168.756 266.088 166.236C265.785 165.834 265.584 165.43 265.483 164.927C262.662 168.554 261.956 172.483 264.073 175.305C267.398 179.738 276.667 179.738 284.628 175.204C292.688 170.972 296.517 163.718 293.091 159.183Z" fill="white"/>
<path d="M272.637 180.443C268.506 180.443 264.879 179.133 262.964 176.513C260.445 173.188 261.05 168.654 264.375 164.221C264.778 163.717 265.282 163.515 265.887 163.717C266.491 163.818 266.894 164.322 266.994 164.826C267.096 165.128 267.196 165.33 267.297 165.531C268.506 167.143 272.738 167.344 276.869 165.027C279.287 163.616 281.101 161.702 281.403 159.989C281.504 159.284 281.403 158.679 281.101 158.175C280.899 157.974 280.698 157.672 280.295 157.571C279.69 157.268 279.488 156.664 279.59 155.959C279.69 155.254 280.194 154.85 280.799 154.75C286.743 153.742 291.781 155.052 294.2 158.377C295.61 160.19 296.013 162.508 295.509 164.926C294.602 169.259 290.773 173.692 285.333 176.816C281.201 179.234 276.668 180.443 272.637 180.443ZM265.584 167.949C264.173 170.468 264.073 172.886 265.383 174.599C268.204 178.428 276.768 178.226 283.922 174.095C288.557 171.475 291.882 167.646 292.587 164.221C292.889 162.609 292.688 161.198 291.781 160.09C290.371 158.276 287.55 157.268 284.124 157.369C284.526 158.276 284.628 159.385 284.325 160.493C283.821 163.112 281.504 165.732 278.279 167.546C273.645 170.367 268.204 170.468 265.584 167.949Z" fill="#BBBBBB"/>
<path d="M241.805 180.241C241.503 179.939 233.744 173.591 233.14 164.724C232.838 159.787 234.651 155.152 238.681 150.921C242.309 147.092 246.339 145.177 250.873 145.48C260.848 145.983 268.909 156.664 269.211 157.168L266.793 158.981C266.692 158.881 259.135 149.006 250.672 148.502C247.145 148.301 243.82 149.812 240.898 153.036C237.472 156.664 235.961 160.593 236.162 164.624C236.666 172.281 243.619 178.024 243.719 178.024L241.805 180.241Z" fill="#BBBBBB"/>
<path d="M247.246 183.466C246.439 183.163 227.396 176.01 224.172 165.329C221.149 155.254 222.862 145.379 228.605 139.636C234.147 134.094 239.689 132.079 247.044 133.187C254.702 134.296 261.151 138.729 264.274 145.077C264.576 145.681 264.979 146.286 265.282 146.89C267.196 150.216 269.413 153.944 269.413 166.84H266.39C266.39 154.75 264.375 151.324 262.662 148.402C262.259 147.797 261.856 147.092 261.553 146.387C258.833 140.945 253.19 137.117 246.541 136.109C240.192 135.202 235.558 136.815 230.722 141.752C225.784 146.689 224.373 155.354 227.094 164.422C229.915 173.693 248.152 180.544 248.354 180.544L247.246 183.466Z" fill="#BBBBBB"/>
<path d="M282.512 163.112L279.488 162.709C279.488 162.608 280.395 155.757 278.481 145.076C276.567 134.497 273.745 128.552 271.63 125.53C271.327 125.026 270.924 124.421 270.521 123.817C268.607 120.693 265.987 116.562 262.259 115.05C258.934 113.741 255.407 113.438 253.493 114.446C252.788 114.849 252.384 115.353 252.183 116.058C251.881 117.368 251.881 118.174 251.982 118.879C252.082 120.492 251.982 121.6 249.765 123.817C245.936 127.645 240.092 125.126 233.946 122.104C231.83 120.995 230.016 121.297 227.396 123.01L224.374 125.026L222.661 122.507L225.684 120.492C229.21 118.174 232.132 117.771 235.256 119.383C241.402 122.507 245.432 123.817 247.649 121.701C249.06 120.29 248.959 119.988 248.959 119.081C248.858 118.275 248.858 117.167 249.261 115.353C249.664 113.741 250.672 112.532 252.183 111.725C255.407 110.113 260.042 110.92 263.367 112.229C268.103 114.143 271.126 118.98 273.141 122.205C273.544 122.809 273.846 123.313 274.148 123.817C276.365 127.141 279.388 133.388 281.403 144.573C283.519 155.656 282.612 162.81 282.512 163.112Z" fill="#BBBBBB"/>
<path d="M239.89 194.852C238.984 194.852 238.077 194.751 237.372 194.55C225.281 191.526 215.306 188.302 211.779 186.287C207.547 183.869 206.036 181.854 203.013 177.723L202.308 176.816C200.091 173.894 199.487 170.266 200.595 166.84C201.502 164.019 203.517 161.803 205.935 161.097C207.749 160.593 208.857 160.593 209.663 160.695C210.57 160.795 210.872 160.795 212.182 159.183C214.399 156.563 212.988 152.029 209.663 144.976C208.051 141.551 208.353 138.427 210.57 134.497L212.484 131.071L215.104 132.583L213.19 136.009C211.477 139.031 211.175 141.147 212.384 143.667C215.507 150.417 218.026 156.866 214.399 161.097C212.283 163.617 211.074 163.717 209.462 163.617C208.757 163.617 208.051 163.515 206.741 163.919C205.33 164.322 204.021 165.833 203.416 167.647C202.61 170.065 203.114 172.685 204.726 174.8L205.432 175.808C208.555 179.939 209.663 181.451 213.291 183.466C216.515 185.279 226.49 188.504 238.077 191.325C239.387 191.627 241.704 191.426 242.51 191.325L243.014 194.348C242.712 194.65 241.402 194.852 239.89 194.852Z" fill="#BBBBBB"/>
<path d="M212.484 150.719C211.779 150.417 194.852 143.666 194.852 130.668C194.852 117.872 198.278 112.431 203.517 108.3C208.152 104.572 221.553 99.6349 231.427 105.176C235.659 107.494 238.379 111.121 239.185 115.252C240.193 120.391 239.689 122.406 239.588 122.708L236.767 121.801C236.767 121.801 237.17 120.19 236.263 115.857C235.558 112.532 233.341 109.71 229.916 107.796C221.653 103.262 209.764 107.192 205.431 110.718C200.796 114.446 197.975 119.081 197.975 130.668C197.975 141.55 213.593 147.797 213.693 147.898L212.484 150.719Z" fill="#BBBBBB"/>
<path d="M206.933 146.701L206.333 162.307L209.353 162.423L209.953 146.817L206.933 146.701Z" fill="#BBBBBB"/>
<path d="M250.773 114.043H239.689V117.066H250.773V114.043Z" fill="#BBBBBB"/>
<path d="M191.325 615.819C185.179 615.819 177.219 613.808 176.816 613.808C176.111 613.605 175.607 612.998 175.708 612.293C175.708 611.588 176.211 610.984 176.917 610.882C177.017 610.882 187.194 608.868 189.814 600.806C191.123 596.877 190.62 592.444 190.015 587.708C189.31 582.267 188.605 576.625 190.922 571.486C194.549 563.324 199.386 558.186 205.834 555.566C211.175 553.45 221.251 554.458 221.653 554.458C222.358 554.559 222.963 555.163 222.963 555.868C223.064 556.574 222.56 557.279 221.855 557.481C221.653 557.581 219.235 558.388 219.94 562.821C220.041 563.425 220.142 564.03 220.243 564.635C220.646 567.053 221.049 569.571 221.754 569.975C222.157 570.176 222.862 570.075 223.87 569.673C232.737 566.146 238.581 562.216 241.301 558.186C243.115 555.465 247.851 549.42 253.392 542.367C259.841 534.105 267.196 524.835 270.521 519.898C276.768 510.527 288.557 489.67 293.494 473.952C295.006 468.914 296.618 464.884 298.129 460.853C301.554 451.785 304.477 444.027 306.592 428.812C309.616 406.948 311.127 388.609 311.127 388.408L314.15 388.609C314.15 388.811 312.638 407.25 309.616 429.115C307.5 444.631 304.376 452.994 301.051 461.76C299.54 465.689 298.028 469.72 296.517 474.657C291.479 490.678 279.488 511.837 273.141 521.409C269.816 526.447 262.36 535.818 255.911 544.08C255.206 544.987 254.4 545.893 253.695 546.8C254.602 545.893 255.508 544.886 256.617 543.676C260.143 539.646 264.778 537.631 269.816 535.415C275.559 532.895 281.504 530.276 286.945 524.432C298.431 512.038 310.523 486.446 315.762 463.675C321.706 437.981 322.311 406.847 322.412 406.545L325.435 406.645C325.435 406.948 324.729 438.384 318.784 464.48C313.444 487.756 300.95 513.852 289.162 526.648C283.317 532.997 276.768 535.818 271.025 538.337C266.189 540.453 261.956 542.266 258.934 545.793C256.919 548.11 255.206 549.621 253.896 550.931C250.571 554.055 249.966 554.559 251.175 559.597C251.78 562.216 252.586 563.627 253.291 564.937C254.803 567.859 255.609 569.975 254.299 577.33C251.982 590.328 245.936 597.683 237.674 597.683C229.311 597.683 220.041 594.559 220.041 590.126C220.041 588.816 220.747 587.103 221.351 585.491C221.553 584.887 221.956 584.081 222.157 583.476C220.444 584.182 219.034 584.282 217.824 584.484C215.406 584.786 214.6 584.887 214.097 589.32C213.895 591.235 213.794 592.847 213.693 594.358C213.492 599.195 213.391 603.124 207.245 606.55C204.625 608.061 202.711 609.673 200.998 611.185C198.076 613.605 195.658 615.819 191.325 615.819ZM182.962 611.89C185.582 612.293 188.605 612.797 191.325 612.797C194.449 612.797 196.363 611.185 198.983 608.868C200.796 607.356 202.812 605.542 205.633 603.93C210.268 601.31 210.368 598.892 210.57 594.257C210.671 592.746 210.671 590.932 210.973 589.018C211.779 582.67 213.996 581.965 217.422 581.562C218.53 581.461 219.638 581.26 221.049 580.756C221.754 580.454 223.568 579.748 224.676 580.957C225.986 582.267 225.18 584.282 224.172 586.701C223.669 587.91 223.064 589.421 223.064 590.227C223.064 591.537 229.21 594.761 237.674 594.761C247.044 594.761 250.37 582.267 251.277 576.826C252.486 570.075 251.78 568.665 250.571 566.348C249.866 564.937 248.959 563.324 248.253 560.302C247.649 557.783 247.448 556.07 247.75 554.659C246.037 556.876 244.727 558.69 243.921 559.798C240.797 564.534 234.651 568.665 225.079 572.493C223.064 573.3 221.553 573.3 220.344 572.595C218.328 571.386 217.824 568.564 217.321 565.037C217.22 564.433 217.119 563.828 217.018 563.224C216.615 560.604 217.018 558.589 217.824 557.178C214.6 557.078 209.864 557.178 207.043 558.287C201.3 560.604 197.068 565.139 193.743 572.595C191.829 577.028 192.434 581.965 193.038 587.205C193.643 592.041 194.247 597.079 192.736 601.713C190.922 607.155 186.589 610.278 182.962 611.89Z" fill="#BBBBBB"/>
<path d="M224.676 556.977L222.56 554.861C222.762 554.66 246.843 530.478 265.685 503.676C279.388 484.129 282.612 474.154 286.038 463.574C287.348 459.544 288.658 455.312 290.673 450.577C297.524 433.85 301.253 376.821 301.253 376.217L304.275 376.418C304.174 378.735 300.547 434.556 293.494 451.684C291.58 456.32 290.27 460.451 288.96 464.481C285.433 475.262 282.108 485.539 268.204 505.389C249.161 532.392 224.878 556.675 224.676 556.977Z" fill="#BBBBBB"/>
<path d="M230.621 550.73L228.303 548.816C228.908 548.11 229.613 546.8 229.311 546.196C229.21 545.793 228.404 545.491 227.396 545.289C226.288 545.087 225.079 544.987 223.769 544.987C221.25 544.785 218.731 544.685 216.515 543.677C212.887 542.065 211.477 538.74 211.981 533.5C212.887 525.641 214.701 523.928 219.537 519.294C220.646 518.185 221.955 516.976 223.467 515.465C225.684 513.248 227.698 511.535 229.613 509.923C234.953 505.389 239.991 501.056 249.463 486.446C261.553 467.907 270.118 453.196 278.581 433.246C286.34 414.706 293.091 369.97 292.789 367.148C292.789 367.35 292.99 367.753 293.393 368.055L295.106 365.536C296.013 366.141 296.215 366.342 295.006 375.008C294.3 380.448 293.191 386.998 291.982 393.648C290.068 404.127 286.038 423.472 281.403 434.455C272.939 454.606 264.173 469.418 252.082 488.059C242.41 502.971 236.868 507.706 231.629 512.14C229.714 513.752 227.8 515.364 225.684 517.48C224.172 518.991 222.862 520.301 221.653 521.308C216.917 525.843 215.809 526.85 215.003 533.702C214.499 538.639 216.212 540.049 217.724 540.755C219.437 541.46 221.754 541.662 223.971 541.762C225.28 541.863 226.691 541.964 227.9 542.166C230.218 542.569 231.629 543.476 232.233 544.987C233.14 547.707 230.822 550.428 230.621 550.73Z" fill="#BBBBBB"/>
<path d="M215.406 556.978L214.097 554.257L214.701 555.668L214.097 554.257C214.399 554.157 216.717 552.846 216.011 550.227C215.104 546.499 213.19 543.677 213.19 543.677L215.709 541.965C215.809 542.065 217.926 545.29 218.933 549.521C220.042 553.552 217.119 556.171 215.406 556.978Z" fill="#BBBBBB"/>
<path d="M254.802 576.121L252.788 573.804C252.888 573.703 259.236 568.262 261.654 565.037C263.569 562.418 265.08 560.403 265.987 559.093C266.188 558.387 266.793 557.481 267.599 556.07C272.939 547.102 274.249 538.135 274.753 534.81C274.753 534.508 274.854 534.206 274.854 534.004L277.876 534.508C277.876 534.71 277.776 535.012 277.776 535.314C277.272 538.84 275.962 548.211 270.218 557.783C269.715 558.589 269.413 559.093 269.211 559.496C269.211 559.798 269.111 560.201 268.808 560.605C267.8 561.914 266.188 564.03 264.073 567.053C261.553 570.378 255.105 575.919 254.802 576.121Z" fill="#BBBBBB"/>
<path d="M223.138 591.317L211.516 595.319L212.5 598.178L224.122 594.175L223.138 591.317Z" fill="#BBBBBB"/>
<path d="M369.969 612.797L377.023 605.745L386.091 614.813C386.091 614.813 389.114 619.853 388.106 619.853C387.098 619.853 380.045 620.859 379.038 621.864C378.03 622.876 370.977 621.864 370.977 621.864L369.969 612.797Z" fill="white"/>
<path d="M376.317 623.881C375.007 623.881 373.194 623.777 370.776 623.378L369.566 623.176L368.357 612.192L377.023 603.527L387.401 613.906C390.423 618.945 389.919 619.853 389.617 620.355C389.315 620.858 388.71 621.263 388.106 621.263C387.099 621.263 380.952 622.268 380.045 622.875C379.844 623.274 379.24 623.881 376.317 623.881ZM372.388 620.558C375.007 620.858 377.426 620.956 378.131 620.754C379.542 619.65 383.874 618.945 386.393 618.639C385.99 617.836 385.487 616.83 384.882 615.923L377.023 608.061L371.582 613.501L372.388 620.558ZM388.106 618.338H388.005C388.106 618.338 388.106 618.338 388.106 618.338Z" fill="#BBBBBB"/>
<path d="M360.902 619.853L367.955 611.789C367.955 611.789 372.993 614.813 374 616.83C375.008 618.841 375.008 618.841 375.008 618.841L374 628.921L364.932 630.932C364.932 630.932 361.909 623.881 360.902 623.881C359.894 623.881 360.801 618.24 360.801 618.24" fill="white"/>
<path d="M364.025 632.747L363.521 631.637C362.413 629.117 361.002 626.199 360.297 625.389C359.995 625.291 359.693 625.089 359.491 624.887C359.189 624.488 358.383 623.581 359.29 618.136L360.297 618.338L367.653 609.976L368.761 610.58C369.667 611.084 374.202 613.906 375.411 616.223L376.62 618.639L375.411 630.227L364.025 632.747ZM361.909 622.673C362.715 623.274 363.824 624.788 365.738 629.221L372.489 627.707L373.295 619.148L372.489 617.535C371.985 616.628 369.869 615.015 368.055 613.808L361.808 620.858C361.909 621.662 361.909 622.269 361.909 622.673Z" fill="#BBBBBB"/>
<path d="M397.175 620.858L388.106 612.797L380.045 619.853H381.053C381.053 619.853 379.038 623.881 381.053 624.886C383.068 625.898 388.106 626.603 389.617 626.296C391.129 625.898 396.167 621.864 396.167 621.864L397.175 620.858Z" fill="white"/>
<path d="M388.509 627.909C386.09 627.909 382.262 627.204 380.449 626.297C378.634 625.389 378.433 623.378 378.937 621.465H376.116L388.207 610.883L399.492 620.858L397.275 623.072C395.663 624.384 391.834 627.406 390.121 627.707C389.617 627.811 389.114 627.909 388.509 627.909ZM383.068 619.246L382.463 620.558C381.859 621.766 381.557 623.274 381.758 623.58C383.572 624.488 388.207 625.089 389.315 624.788C390.021 624.586 392.741 622.673 394.957 620.858L388.106 614.813L383.068 619.246Z" fill="#BBBBBB"/>
<path d="M405.235 664.181C410.273 664.181 413.296 662.17 417.326 657.13C421.356 652.09 423.372 649.068 422.364 638.994C421.457 629.522 416.319 621.864 410.273 616.83C404.228 611.79 402.213 609.774 402.213 609.774C402.213 609.774 391.129 620.858 389.114 624.886C387.099 628.921 385.587 633.954 385.083 640C384.076 652.09 392.137 661.158 396.167 663.175C400.197 665.193 403.422 664.181 405.235 664.181Z" fill="white"/>
<path d="M401.507 665.996C399.794 665.996 397.779 665.696 395.461 664.586C390.826 662.268 382.463 652.599 383.572 639.902C384.076 634.059 385.486 628.817 387.804 624.286C389.919 620.049 400.701 609.271 401.204 608.767L402.313 607.659L403.421 608.767C403.421 608.767 405.537 610.783 411.381 615.721C418.636 621.766 423.069 630.025 423.976 638.896C425.085 649.473 422.767 652.998 418.636 658.136C414.807 662.973 411.381 665.794 405.336 665.794C405.033 665.794 404.63 665.794 404.126 665.898C403.32 665.898 402.515 665.996 401.507 665.996ZM402.212 611.89C398.686 615.518 391.834 622.771 390.423 625.592C388.308 629.828 386.998 634.764 386.594 640.202C385.688 651.287 392.942 659.951 396.872 661.87C399.592 663.28 401.91 662.973 403.724 662.771C404.227 662.673 404.731 662.673 405.235 662.673C409.567 662.673 412.187 661.06 416.117 656.223C420.047 651.287 421.759 648.669 420.852 639.197C419.744 628.216 413.094 621.263 409.265 618.038C405.638 614.911 403.421 612.999 402.212 611.89Z" fill="#BBBBBB"/>
<path d="M355.863 666.198C350.825 666.198 345.787 664.181 341.757 659.147C337.727 654.108 337.223 654.009 334.704 644.034C332.689 635.972 336.618 626.799 341.757 620.858C347.803 613.807 351.833 610.782 351.833 610.782C351.833 610.782 367.148 622.875 369.164 626.904C371.178 630.932 372.69 635.972 373.194 642.017C374.202 654.107 366.14 663.175 362.11 665.193C358.08 667.204 357.677 666.198 355.863 666.198Z" fill="white"/>
<path d="M358.181 668.013C357.677 668.013 357.274 667.915 356.77 667.915C356.468 667.811 356.165 667.811 355.863 667.811C349.818 667.811 344.578 665.193 340.548 660.153L339.742 659.147C336.215 654.715 335.51 653.703 333.193 644.433C330.875 635.365 335.711 625.494 340.548 619.951C346.594 612.898 350.725 609.774 350.825 609.674L351.732 608.968L352.639 609.674C354.251 610.883 368.257 622.066 370.373 626.297C372.69 630.932 374.1 636.174 374.604 641.919C375.612 654.61 367.35 664.181 362.715 666.603C360.498 667.713 359.289 668.013 358.181 668.013ZM351.833 612.797C350.321 614.108 347.098 617.026 342.865 621.968C338.533 627.002 334.099 635.769 336.115 643.832C338.331 652.697 338.835 653.304 342.06 657.333L342.865 658.338C346.291 662.575 350.725 664.788 355.763 664.788C356.367 664.788 356.871 664.892 357.173 664.99C358.08 665.193 358.684 665.291 361.304 663.985C365.233 662.066 372.488 653.403 371.582 642.317C371.178 636.879 369.869 632.042 367.753 627.707C366.442 624.991 357.879 617.535 351.833 612.797Z" fill="#BBBBBB"/>
<path d="M399.089 665.395L397.375 662.973C402.817 659.148 405.738 652.998 406.041 644.837C406.344 638.59 404.832 633.452 404.832 633.354L407.754 632.544C407.855 632.747 409.366 638.191 409.064 644.837C408.66 653.905 405.235 661.06 399.089 665.395Z" fill="#BBBBBB"/>
<path d="M357.274 667.406C351.128 662.771 347.702 655.419 347.299 645.947C346.996 638.896 348.508 633.353 348.609 633.047L351.53 633.856C351.53 633.954 350.12 639.294 350.321 645.849C350.624 654.408 353.546 660.858 358.987 664.99L357.274 667.406Z" fill="#BBBBBB"/>
<path d="M381.053 670.232C386.091 670.232 389.114 668.215 393.144 663.175C397.174 658.142 399.19 655.113 398.182 645.039C397.275 635.567 392.136 627.909 386.091 622.875C380.045 617.836 378.03 615.818 378.03 615.818C378.03 615.818 366.947 626.903 364.931 630.932C362.917 634.966 361.405 640 360.901 646.045C359.894 658.142 367.955 667.21 371.985 669.221C376.015 671.238 379.24 670.232 381.053 670.232Z" fill="white"/>
<path d="M377.325 672.041C375.612 672.041 373.597 671.741 371.28 670.631C366.645 668.313 358.282 658.644 359.39 645.947C359.894 640.104 361.304 634.862 363.622 630.331C365.738 626.1 376.519 615.316 377.023 614.813L378.131 613.703L379.239 614.813C379.239 614.813 381.356 616.83 387.199 621.766C394.454 627.811 398.888 636.076 399.794 644.941C400.902 655.518 398.585 659.043 394.454 664.187C390.625 669.018 387.199 671.845 381.154 671.845C380.852 671.845 380.449 671.845 379.945 671.943C379.139 671.943 378.332 672.041 377.325 672.041ZM378.03 617.934C374.504 621.563 367.652 628.816 366.242 631.637C364.126 635.873 362.816 640.809 362.413 646.247C361.506 657.332 368.76 665.996 372.69 667.915C375.411 669.325 377.728 669.018 379.542 668.822C380.045 668.718 380.549 668.718 381.053 668.718C385.386 668.718 388.005 667.105 391.935 662.268C395.864 657.332 397.577 654.714 396.671 645.242C395.562 634.261 388.912 627.308 385.083 624.083C381.456 620.956 379.239 619.043 378.03 617.934Z" fill="#BBBBBB"/>
<path d="M381.356 671.134L378.836 669.423C384.378 661.06 378.736 645.647 378.635 645.542L381.456 644.433C381.758 645.242 387.703 661.465 381.356 671.134Z" fill="#BBBBBB"/>
</g>
</svg>
