<svg width="320" height="498" viewBox="0 0 320 498" fill="none" xmlns="http://www.w3.org/2000/svg">
<g opacity="0.2">
<path opacity="0.97" d="M47.59 223.215C47.0268 223.71 46.5341 224.276 46.1821 224.983C45.4078 226.044 44.6335 227.105 43.9999 228.167C38.6499 236.939 37.1012 247.621 39.1427 257.527C39.2131 259.224 39.7059 260.922 40.4801 262.407C41.9584 266.723 44.2111 270.756 47.1677 274.222C57.9381 287.098 76.1 291.909 91.7273 285.754C107.637 279.457 117.844 263.681 116.999 246.49C116.858 244.226 116.577 241.963 116.014 239.769C116.014 239.486 116.014 239.203 116.014 238.92C115.943 237.293 115.31 235.808 114.395 234.605C109.467 221.658 97.9224 210.905 83.8437 209.702C83.6324 209.702 83.4211 209.772 83.3507 209.985C80.324 209.56 77.2964 209.49 74.3402 209.702C74.1289 209.702 73.9176 209.702 73.7063 209.772C63.7105 210.834 54.2072 215.574 47.59 223.215ZM45.3374 229.794C45.4782 231.138 45.9709 232.412 46.6045 233.543C45.267 233.614 43.9999 233.968 42.8736 234.746C43.5776 232.977 44.3519 231.351 45.3374 229.794ZM42.3808 238.212C43.4367 236.019 45.619 234.958 47.8716 235.1C48.4348 235.595 49.0683 236.019 49.7723 236.231C49.2092 238.071 49.35 239.982 49.9835 241.75C47.1677 242.386 44.8447 244.367 43.8591 247.056C40.7618 245.358 40.973 241.043 42.3808 238.212ZM62.2322 240.972C59.1348 240.477 55.8967 241.821 54.2776 244.439C51.4618 242.458 50.3354 238.425 52.0954 235.383C53.8552 232.341 57.6565 231.421 60.8947 232.27C59.6276 235.17 59.9795 238.92 62.2322 240.972ZM62.9361 231.916C63.0066 231.846 63.0769 231.774 63.1473 231.633C64.4144 230.076 66.2447 229.298 68.2155 229.865C69.4832 230.218 72.5803 231.704 72.862 233.331C70.257 234.18 67.9337 235.736 66.1743 237.929C65.4703 238.849 64.8368 239.84 64.2737 240.901C63.0066 238.212 60.9651 235.666 62.373 232.836C63.0065 233.048 63.4993 232.341 62.9361 231.916ZM96.7964 227.317C96.7964 227.247 96.866 227.247 96.7964 227.317C99.6118 225.761 103.343 226.327 105.032 229.157C106.299 231.351 105.947 234.11 104.539 236.09C102.568 235.241 100.316 235.241 98.345 236.231C97.7111 235.383 96.9364 234.746 96.0217 234.251C97.5703 232.27 97.852 229.511 96.7964 227.317ZM58.9236 266.299C58.9941 266.369 58.994 266.441 59.0644 266.441C55.4743 270.473 49.9131 265.591 49.1388 261.276C48.4348 257.243 50.6874 253.776 54.0664 251.937C55.4743 254.413 58.29 256.041 61.3171 256.182C58.29 258.446 56.8118 263.327 58.9236 266.299ZM63.1473 254.484C61.5986 254.131 59.9795 254.201 58.4309 253.564C56.1782 252.645 54.8407 250.664 54.9111 248.188C55.0519 243.519 59.698 241.679 63.6401 242.458C62.1618 246.278 61.9506 250.593 63.1473 254.484ZM63.8513 256.465C63.992 256.748 64.1328 257.102 64.2737 257.385C66.0335 260.709 68.8493 263.045 72.1577 264.247C69.2719 266.369 65.6111 268.775 62.021 266.723C61.5986 266.511 61.2466 266.228 60.9651 265.874C60.8947 265.804 60.8243 265.733 60.7539 265.662C58.5717 262.762 60.4723 257.668 63.8513 256.465ZM67.5821 240.477C70.257 243.164 73.0733 245.853 75.8183 248.471C75.607 248.471 75.4661 248.471 75.2548 248.471C72.0169 246.631 68.9198 244.439 65.6815 242.811C66.1743 241.75 66.7374 240.76 67.371 239.91C67.371 240.123 67.4414 240.335 67.5821 240.477ZM93.9801 247.48C93.9801 247.198 93.9097 246.843 93.8393 246.49C94.5436 246.773 95.3174 246.42 96.0217 245.924C97.1477 245.782 98.2041 245.782 99.3301 246.49C101.16 247.551 102.076 249.744 101.513 251.796C100.738 254.626 97.6407 257.95 94.5436 257.668C94.2619 257.527 93.9097 257.455 93.5576 257.455C93.3463 257.385 93.0655 257.243 92.8542 257.102C94.3323 254.201 94.2619 250.593 93.9801 247.48ZM93.4167 258.8C94.4027 259.719 95.3878 260.356 95.74 261.771C96.3034 263.823 95.247 265.874 93.4871 267.006C90.39 268.917 87.1521 267.36 85.1105 264.884C85.0401 264.46 84.8992 264.035 84.6879 263.681C87.4338 262.549 90.1787 260.781 92.009 258.446C92.0794 258.305 92.2203 258.233 92.2907 258.092C92.6429 258.375 92.995 258.658 93.4167 258.8ZM75.607 250.452C75.7478 250.452 75.8887 250.452 76.0296 250.452C76.0296 250.452 76.0296 250.522 76.1 250.522C73.2142 253.14 70.1162 255.829 67.8638 258.87C67.2302 258.163 66.7374 257.385 66.315 256.536C69.3424 254.484 72.5099 252.574 75.607 250.452ZM65.6815 255.404C65.0479 253.848 64.6256 252.22 64.4848 250.522C64.5552 250.522 64.6256 250.593 64.7664 250.593C67.6526 250.593 70.5388 250.522 73.4246 250.522C70.75 251.937 68.145 253.635 65.6815 255.404ZM75.0445 254.131C73.8471 256.607 72.5803 259.083 71.1726 261.559V261.629C70.257 261.134 69.4128 260.498 68.7085 259.861C70.9613 258.233 73.0733 256.252 75.0445 254.131ZM77.4373 252.857C77.5781 256.324 77.719 259.719 77.9303 263.186C76.7339 263.186 75.4661 263.115 74.2697 262.832C73.6359 262.69 73.0733 262.479 72.5099 262.266C74.1993 259.224 75.8887 256.041 77.4373 252.857ZM73.3541 265.379C73.5654 265.166 73.6359 264.884 73.5654 264.671C76.5226 265.45 79.7606 265.379 82.8577 264.388C82.9985 264.318 83.0689 264.318 83.2098 264.247C83.2802 265.874 83.562 267.36 82.9985 268.987C82.3656 270.826 80.9569 272.241 79.0562 272.666C74.3402 273.727 73.3541 269.128 73.3541 265.379C73.3541 265.45 73.3541 265.379 73.3541 265.379ZM79.2675 245.287C79.1971 241.821 79.0562 238.425 78.845 234.958C80.324 235.17 81.7317 235.736 83.2098 236.656C81.8021 239.486 80.5344 242.386 79.2675 245.287ZM79.7605 254.201C80.1127 255.192 80.3944 256.252 80.7457 257.243C81.3091 258.941 81.8021 260.781 82.5055 262.407C81.3091 262.762 80.1127 263.045 78.9154 263.115C79.1267 259.719 79.2675 256.324 79.338 252.928C79.4788 253.494 79.6901 253.989 79.7605 254.201ZM81.0978 254.767C80.8865 254.201 80.7457 253.494 80.4649 252.786C82.9281 255.121 85.3922 257.385 87.7859 259.79C87.1521 260.214 86.5182 260.639 85.8852 260.993C85.1105 261.417 84.3358 261.771 83.562 262.125C82.9281 259.578 81.943 257.172 81.0978 254.767ZM82.7168 252.574C85.6035 253.706 88.771 254.413 91.6569 254.909C91.516 255.474 91.3056 256.041 90.9535 256.536C90.39 257.527 89.5458 258.375 88.5598 259.083C86.7295 256.96 84.7584 254.696 82.7168 252.574ZM91.8681 254.059C88.2076 253.069 84.7584 251.583 81.2387 250.452C84.8288 250.452 88.4893 250.452 92.0794 250.452C92.0794 251.583 92.0794 252.857 91.8681 254.059ZM83.3507 248.683C86.166 247.763 89.0528 246.42 91.516 245.145C91.8681 246.42 92.009 247.834 92.0794 249.249C89.1936 248.966 86.3069 248.824 83.3507 248.683ZM84.9696 246.702C83.7733 247.126 82.5055 247.41 81.3091 247.834C81.3091 247.834 81.3091 247.834 81.3091 247.763C83.8437 245.217 86.3773 242.599 88.9823 240.123C90.1083 241.396 90.883 242.811 91.3761 244.367C89.1936 245.145 87.0816 245.924 84.9696 246.702ZM80.4649 246.348C81.8021 243.236 82.9985 240.123 83.9845 236.939C83.9845 236.868 83.9845 236.868 83.9845 236.798C84.055 236.798 84.1254 236.727 84.1254 236.727C85.6035 237.434 87.0112 238.212 88.278 239.486C85.5331 241.538 82.9985 243.943 80.4649 246.348ZM87.2929 234.958C87.0112 235.1 86.7999 235.312 86.5182 235.524C85.4627 234.958 84.3358 234.533 83.1394 234.392C80.8161 233.048 78.212 232.552 75.6774 232.836C76.4522 229.723 79.1971 227.105 82.5759 227.884C84.1254 228.237 85.3922 229.298 86.2365 230.572C86.5886 231.138 87.5042 233.614 87.2929 234.958ZM77.0851 234.817C77.1555 238.071 77.1555 241.255 77.226 244.509C76.1 241.396 74.6923 238.212 73.0733 235.595C74.3402 235.1 75.6774 234.817 77.0851 234.817ZM77.2964 246.702C77.226 246.702 77.1555 246.773 77.1555 246.843C74.4106 244.155 71.5239 241.679 68.5676 239.345C68.4268 239.203 68.2155 239.203 68.0746 239.203C69.2719 237.788 70.6796 236.727 72.2986 235.949C73.3541 239.557 75.2548 243.377 77.2964 246.702ZM73.1438 248.471C70.75 248.471 68.4268 248.541 66.0335 248.612C65.8927 248.541 65.7519 248.541 65.6111 248.541C65.2591 248.612 64.8367 248.612 64.4848 248.683H64.4144C64.4848 247.268 64.696 245.853 65.1184 244.439C65.1887 244.226 65.2591 243.943 65.3999 243.731C67.6526 245.712 70.3979 247.198 73.1438 248.471ZM71.9464 266.582C71.8056 268.562 71.9464 270.543 73.0733 272.171C73.4246 272.666 73.8471 273.091 74.2697 273.444C73.5654 276.769 67.723 277.264 65.3999 276.062C62.3026 274.505 61.8098 271.746 61.7395 268.633C64.9072 270.048 68.9198 268.704 71.9464 266.582ZM71.4534 277.618C73.4246 276.911 75.114 275.708 75.1844 273.939C76.3113 274.505 77.6486 274.717 78.9154 274.505C79.4084 274.435 79.831 274.293 80.324 274.152C81.2387 275.708 82.7872 276.911 84.4766 277.406C83.2098 279.387 81.3795 280.872 79.0562 281.368C77.8598 281.58 76.593 281.51 75.3957 281.155C74.9036 281.014 71.0318 278.467 71.1726 278.326C71.3839 278.113 71.4534 277.901 71.4534 277.618ZM81.8021 273.302C83.7028 271.958 84.9696 269.695 85.2514 267.36C86.9408 269.058 89.2641 269.978 91.5864 269.695C91.8681 272.1 90.6718 274.717 88.278 275.637C85.8148 276.628 83.2098 275.425 81.8021 273.302ZM92.8542 269.412C93.628 269.128 94.4027 268.775 95.1765 268.138C95.5991 267.784 95.9513 267.431 96.233 267.077C96.3034 267.147 96.3739 267.219 96.4443 267.219C98.1337 268.421 99.7527 268.704 101.301 268.35C101.653 270.898 100.808 273.797 98.5563 275.213C96.0921 276.84 93.9801 275.92 91.4465 275.283C92.8542 273.657 93.3463 271.463 92.8542 269.412ZM97.2885 265.803C97.2181 265.803 97.1477 265.733 97.0772 265.733C97.6407 264.601 97.7815 263.257 97.5703 261.984C97.359 261.064 96.9364 260.003 96.3034 259.153C99.7527 258.588 102.92 254.909 103.343 251.442C103.343 251.372 103.343 251.3 103.343 251.23C106.229 253.353 107.708 256.465 106.722 260.073C105.596 264.247 101.653 267.926 97.2885 265.803ZM103.132 248.754C102.357 246.42 100.246 244.58 97.9224 244.155C99.4005 242.316 100.034 240.123 99.1892 237.859C99.1188 237.576 98.9779 237.364 98.8371 237.151C100.316 236.798 101.865 236.939 103.272 237.434C102.991 237.859 103.484 238.495 103.977 238.142C104.118 238.071 104.187 238 104.328 237.929C105.384 238.567 106.229 239.486 106.722 240.688C108.2 244.297 105.807 246.915 103.132 248.754ZM96.4443 236.586C97.5703 237.788 98.2746 239.486 97.852 241.113C97.7111 241.538 97.0068 243.023 96.0921 244.155C95.3174 244.297 94.4732 244.65 93.7688 245.287L93.6984 245.358C92.8542 242.033 90.8126 238.637 88.0667 236.444C90.6013 234.888 94.0506 234.11 96.4443 236.586ZM94.8253 233.755C92.9246 233.19 90.7422 233.331 88.771 234.18C88.8415 233.827 88.8415 233.543 88.8415 233.19C88.7711 231.279 87.8555 229.511 86.4478 228.167C86.5886 228.096 86.7999 228.025 86.9408 227.813C88.4893 225.478 92.0794 224.7 94.2619 226.61C96.233 228.45 96.3034 231.633 94.8253 233.755ZM85.4627 226.894C85.3922 226.964 85.3922 227.105 85.3218 227.177L85.2514 227.105C84.055 226.327 82.7168 225.974 81.45 226.044C80.6048 223.285 78.4937 221.162 75.8183 220.384C77.8598 217.908 80.3944 215.857 83.8437 216.493C87.4338 217.201 89.4754 220.455 89.897 223.851C88.1372 224.276 86.4478 225.337 85.4627 226.894ZM80.1831 226.186C77.1555 226.822 74.5515 229.37 74.0584 232.624C73.7063 231.067 72.0873 229.935 70.6796 229.157C69.6241 228.52 68.4972 228.167 67.371 228.025C68.0746 225.337 69.2719 222.861 72.2986 222.082C75.5366 221.234 78.705 223.356 80.1831 226.186ZM53.5032 246.065C53.3625 246.49 53.292 246.915 53.2216 247.339C53.0808 248.612 53.2216 249.744 53.5736 250.805C51.3913 251.655 49.6315 253.281 48.5756 255.192C44.8446 255.262 44.7743 249.815 45.619 247.48C46.5341 245.145 48.294 243.66 50.5466 242.811C51.1802 244.155 52.1657 245.287 53.5032 246.065ZM40.4098 252.645C40.1986 250.593 40.1986 248.541 40.269 246.49C40.9025 247.621 41.8881 248.471 43.296 248.824C43.296 249.037 43.2256 249.178 43.2256 249.391C43.2256 249.674 43.1552 249.886 43.1552 250.169C42.944 250.097 42.7328 250.097 42.5216 250.239C41.6769 250.947 40.973 251.796 40.4098 252.645ZM49.2092 273.515C47.3789 271.393 45.8302 269.058 44.4926 266.582C45.9006 267.36 47.4492 267.784 49.2092 267.714C48.5756 269.765 48.646 271.746 49.2092 273.515ZM42.944 263.045C42.1696 261.134 41.6065 259.153 41.1137 257.102C41.3249 255.262 42.2401 253.564 43.3664 251.867C43.7887 254.343 45.267 256.819 47.8012 257.031C47.0973 259.295 47.1677 261.842 48.2236 264.247C48.5052 264.884 48.9276 265.521 49.4907 266.157C46.9565 265.874 44.5631 264.884 42.944 263.045ZM51.2506 267.855C54.1367 269.978 58.0789 270.826 60.2612 267.855C58.9236 271.18 60.8243 275.142 63.7808 277.053C63.6401 276.981 63.4993 276.981 63.3585 277.053C56.6709 281.014 48.5756 275.495 51.2506 267.855ZM56.8118 280.165C58.9236 280.519 61.2466 280.094 63.2881 278.538C62.6546 280.59 63.4289 282.641 64.9072 284.197C62.0914 283.207 59.4164 281.863 56.8118 280.165ZM70.1162 285.329C66.2447 284.339 64.9072 281.58 65.2591 277.831C65.4703 277.901 65.6815 277.972 65.8927 278.043C66.8079 278.326 68.145 278.326 69.5537 278.113C69.1311 280.731 74.9036 283.066 76.6634 283.207C77.0147 283.207 77.2964 283.278 77.6486 283.278C76.0296 285.542 72.6508 285.966 70.1162 285.329ZM76.5226 286.39C77.719 285.683 78.6346 284.622 79.0562 283.136C79.1971 283.136 79.338 283.066 79.4788 283.066L79.5493 283.136C80.8161 284.409 82.2951 285.329 83.9845 285.825C81.5204 286.249 78.9858 286.462 76.5226 286.39ZM87.3634 284.339C85.1105 284.481 83.0689 283.773 81.45 282.288C83.3507 281.297 84.8288 279.67 85.7444 277.689C86.7999 277.831 87.9259 277.689 88.9823 277.264C89.6162 276.981 90.1083 276.698 90.6013 276.274C90.6013 276.345 90.6717 276.415 90.7422 276.486C91.4465 277.264 92.3612 277.759 93.4167 277.972C93.4167 278.043 93.3463 278.113 93.4167 278.254C93.9097 281.792 90.5309 284.127 87.3634 284.339ZM96.0217 281.438C95.3878 281.792 94.6845 282.146 94.0506 282.5C94.7549 281.438 95.0366 280.165 94.6844 278.892C95.6696 279.529 96.9364 280.024 98.1337 280.165C97.4998 280.59 96.7964 281.085 96.0217 281.438ZM100.175 278.254C98.9075 278.892 97.5703 278.538 96.3739 277.901C97.7815 277.618 99.1188 277.123 100.034 276.345C100.527 275.92 100.949 275.495 101.301 275C101.442 275.072 101.653 275.142 101.794 275.213C102.146 276.203 101.02 277.831 100.175 278.254ZM103.272 276.062C103.272 275.92 103.272 275.778 103.272 275.637C103.272 275.495 103.272 275.425 103.202 275.283C103.484 275.283 103.765 275.283 104.047 275.213C103.836 275.567 103.554 275.85 103.272 276.062ZM107.144 271.463C105.877 273.302 104.118 273.444 102.217 273.515C102.92 271.817 102.991 269.907 102.357 268.138C103.906 267.502 105.314 266.228 106.44 264.671C108.059 266.441 108.552 269.34 107.144 271.463ZM109.538 268.209C109.397 266.864 108.834 265.591 107.918 264.601C109.467 264.46 110.946 263.893 112.142 262.974C111.438 264.743 110.593 266.511 109.538 268.209ZM107.074 263.54C109.748 258.658 109.678 251.796 103.484 250.31C103.484 250.31 103.484 250.31 103.413 250.31C104.891 250.097 106.158 249.249 107.074 248.046C110.734 249.391 114.184 251.513 114.043 256.112C113.902 260.003 110.523 262.549 107.074 263.54ZM114.747 243.66C115.098 246.42 115.098 249.178 114.888 251.867C113.972 249.886 112.424 248.188 110.593 247.268C112.353 246.56 113.831 245.287 114.747 243.66ZM112.846 235.595C113.409 237.081 113.831 238.567 114.184 240.193C113.831 243.519 111.086 245.57 108.2 246.631C108.129 246.631 108.129 246.631 108.059 246.631C109.045 244.58 109.256 242.104 108.481 240.193C107.918 238.779 106.933 237.576 105.666 236.798C106.44 235.878 107.003 234.817 107.285 233.614C109.538 233.331 111.579 234.038 112.846 235.595ZM102.146 220.243C106.017 223.568 109.256 227.6 111.508 232.27C110.312 231.704 108.904 231.492 107.496 231.774C107.496 230.501 107.144 229.157 106.369 228.025C105.314 226.398 103.695 225.337 101.865 224.913C102.427 223.356 102.498 221.729 102.146 220.243ZM97.5703 216.988C100.246 218.474 101.16 221.8 100.597 224.629C98.9779 224.488 97.359 224.841 95.9513 225.691C95.8808 225.691 95.8808 225.761 95.8104 225.761C95.5287 225.478 95.3174 225.196 94.9662 224.983C93.8393 224.134 92.4316 223.71 91.0943 223.71C91.2352 221.8 90.7422 220.102 89.7562 218.686C92.0794 216.918 94.5436 215.362 97.5703 216.988ZM93.628 214.654C92.7133 214.796 91.7977 215.008 90.9535 215.432C90.883 214.654 90.6717 213.876 90.3196 213.169C91.4456 213.593 92.5725 214.088 93.628 214.654ZM89.897 216.069C89.4049 216.423 88.9823 216.847 88.6302 217.343C86.9408 215.786 84.6879 214.796 82.4351 214.654C84.055 210.834 89.5458 211.895 89.897 216.069ZM82.5055 211.753C81.943 212.249 81.45 212.815 81.0978 213.451C80.8161 212.744 80.324 212.108 79.6901 211.541C80.6752 211.541 81.5908 211.612 82.5055 211.753ZM71.6647 212.531C72.1577 212.178 72.7212 211.895 73.3541 211.753C74.0584 211.683 74.8332 211.612 75.5366 211.541C75.5366 211.541 75.607 211.541 75.6774 211.541C76.8747 211.683 80.5353 212.956 80.1127 214.796C77.719 215.291 75.5366 216.777 74.4106 219.677C74.3402 219.819 74.3402 220.031 74.4106 220.172C73.7767 220.102 73.2142 220.102 72.5803 220.243C71.9464 220.314 71.3135 220.526 70.6796 220.809C69.0606 218.191 68.9902 214.512 71.6647 212.531ZM69.0606 212.531C68.145 213.806 67.6526 215.291 67.5821 216.847C66.4558 215.574 65.0479 214.725 63.4993 214.301C65.2591 213.593 67.1598 213.027 69.0606 212.531ZM61.0354 215.998C63.9216 215.503 66.315 217.06 67.8638 219.253C68.0746 220.102 68.4972 220.88 69.0606 221.658C68.4268 222.082 67.7934 222.648 67.3006 223.285C64.4144 221.162 60.5427 220.314 57.3749 222.365C57.2341 222.437 57.0933 222.507 57.0229 222.648C56.2486 219.536 57.5157 216.635 61.0354 215.998ZM59.0644 223.427C61.5283 222.295 64.344 222.931 66.5967 224.276C65.8223 225.478 65.3999 226.822 65.4703 228.167C64.8367 228.308 64.1328 228.591 63.4993 228.945C62.6545 229.511 61.9506 230.218 61.3874 231.138C59.698 230.431 57.7269 230.289 55.967 230.643C55.4038 227.672 56.0374 224.771 59.0644 223.427ZM55.0519 219.041C54.6999 220.172 54.6999 221.304 54.9815 222.437C54.0664 221.87 53.0105 221.587 51.9545 221.517C52.9401 220.739 53.996 219.889 55.0519 219.041ZM55.4038 224.205C53.9256 226.186 53.292 228.945 54.4888 231.138C52.8696 231.774 51.5322 232.907 50.5466 234.463C48.5756 232.694 46.7453 231.209 47.0973 228.025C47.1677 227.53 47.3085 226.964 47.4492 226.539C48.1532 225.619 48.8571 224.771 49.6315 223.922C51.321 222.861 53.5736 222.79 55.4038 224.205Z" fill="white"/>
<path opacity="0.97" d="M-170.163 250.659C-158.889 249.742 -149.308 256.299 -141.346 263.562C-134.019 270.189 -127.044 277.028 -119.083 282.95C-103.653 294.372 -85.546 302.833 -66.171 304.102C-59.3369 304.525 -52.4324 304.102 -45.8096 302.763C-50.3187 305.019 -54.6869 307.486 -58.7733 310.377C-66.5233 315.806 -72.5824 322.504 -77.3733 330.612C-82.6574 339.496 -87.3779 348.943 -89.8438 359.025C-92.4505 369.531 -92.5211 380.46 -93.1551 391.247C-93.8597 403.373 -95.4097 415.712 -101.68 426.358C-102.244 427.276 -101.187 428.262 -100.271 427.769C-82.2347 417.123 -60.8165 416.7 -40.5959 413.809C-30.6618 412.399 -20.7982 410.283 -11.4982 406.265C-1.84586 402.034 7.24277 396.042 15.1337 389.061C20.8405 383.985 26.0542 377.992 29.2951 371.012C24.3633 406.054 30.2814 444.056 56.9837 469.367C65.0861 477.052 75.5842 484.808 76.0772 497.006C76.1477 498.204 77.6971 498.345 78.1197 497.288C85.3064 478.745 104.047 467.957 115.602 452.375C128.214 435.454 135.893 413.95 135.047 392.727C134.765 386.664 133.779 380.671 132.018 374.961C134.343 378.556 136.809 382.01 139.557 385.254C145.475 392.375 152.661 398.298 160.693 402.951C176.616 412.187 194.863 416.135 213.041 417.052C225.018 417.687 237.348 417.616 248.409 422.622C249.184 422.974 250.523 422.129 249.818 421.211C243.195 412.54 242.632 401.189 241.434 390.754C240.166 379.966 238.968 369.178 236.573 358.532C232.275 339.073 223.398 321.305 208.461 307.839C204.234 304.031 199.514 300.365 194.511 297.404C207.757 301 221.636 301.775 235.234 299.66C244.393 298.25 253.341 295.571 261.725 291.622C271.095 287.251 279.479 281.117 287.934 275.195C298.432 267.791 309 260.459 319.498 253.055C320.132 252.632 320.202 251.646 319.498 251.293C302.026 241.634 289.343 225.911 274.125 213.361C266.939 207.439 259.118 202.221 250.312 198.978C240.307 195.311 229.457 194.325 218.889 195.523C213.675 196.088 208.531 197.215 203.529 198.767C216.07 187.838 224.102 172.467 230.443 157.31C234.389 147.932 237.559 138.202 239.884 128.26C241.998 119.307 243.407 110.141 245.591 101.257C248.057 91.1043 251.65 81.0926 258.272 72.9139C258.837 72.2088 258.343 70.7987 257.286 71.2217C236.855 79.0479 214.59 78.4133 193.314 82.0091C183.027 83.7718 172.882 86.592 163.723 91.8094C154.987 96.7446 147.518 103.584 141.107 111.199C138.147 114.724 135.329 118.461 132.722 122.268C137.724 105.205 136.668 86.8035 130.116 70.1641C123.422 53.1723 111.727 38.6481 98.9746 25.7456C91.4358 18.131 82.9813 10.9394 78.8954 0.71606C78.5432 -0.130009 77.2041 -0.341525 76.9224 0.71606C74.5268 10.1638 66.7769 16.5799 59.9429 22.9958C52.3337 30.0465 46.2747 38.0841 41.2019 47.1793C30.7746 65.5813 21.545 86.1689 22.0382 107.814C22.1087 112.185 22.6723 116.487 23.5883 120.716C14.1473 107.814 -0.507294 98.8599 -14.2459 91.2454C-22.4891 86.6625 -31.155 83.9127 -40.4551 82.6436C-50.2483 81.304 -60.1119 81.304 -69.9755 80.5284C-80.9664 79.6119 -91.9574 77.4968 -101.469 71.6448C-102.314 71.0807 -103.442 72.2088 -102.878 73.0548C-91.6756 90.3288 -93.1551 111.833 -89.9846 131.363C-88.3643 141.234 -85.4052 150.541 -79.9097 158.931C-74.1323 167.744 -67.2278 176.064 -60.2529 183.89C-53.6301 191.293 -46.3028 198.132 -38.0596 203.701C-46.1619 201.163 -54.4051 198.978 -62.8596 198.978C-72.8642 198.978 -82.3051 202.503 -91.6051 205.746C-100.412 208.778 -109.219 212.022 -117.462 216.463C-125.846 220.976 -132.892 227.109 -140.219 233.103C-149.308 240.577 -158.889 246.217 -170.444 248.614C-171.571 248.826 -171.289 250.73 -170.163 250.659ZM-11.6391 404.079C-30.2391 412.399 -50.8823 412.399 -70.6096 415.712C-80.1915 417.334 -89.562 419.802 -98.2279 424.315C-89.4915 406.829 -92.0983 386.523 -89.421 367.628C-87.8711 356.911 -83.9961 346.97 -78.8529 337.451C-73.9211 328.356 -68.2846 320.177 -59.971 313.832C-51.5869 307.486 -41.9347 303.045 -32.4232 298.743C-32.0005 299.589 -31.5778 300.436 -31.0846 301.211C-36.7914 303.82 -42.5687 307.769 -44.6119 313.973C-46.1619 318.697 -45.3165 323.985 -41.7937 327.439C-46.8664 330.965 -49.4028 337.451 -47.571 343.444C-46.3733 347.322 -43.696 350.424 -41.9347 354.02C-41.6528 354.584 -41.4415 355.148 -41.2301 355.782C-46.9369 353.033 -53.771 353.597 -59.2665 356.911C-65.7483 360.788 -69.0597 368.333 -68.3551 375.736C-66.8756 391.952 -47.2892 400.271 -34.3255 390.613C-28.196 386.03 -24.8846 378.626 -25.0255 371.082C-21.9959 373.339 -19.1073 375.595 -15.3027 376.3C-8.60951 377.569 -1.56403 374.607 2.24043 369.037C10.9064 374.819 23.6587 371.787 26.8292 361.211C28.0269 361.988 29.2951 362.692 30.5632 363.256C30.5632 363.327 30.4928 363.397 30.4928 363.538C30.4928 363.609 30.4928 363.609 30.4928 363.679C23.7291 382.433 6.04498 396.183 -11.6391 404.079ZM-88.9983 251.011C-83.2915 250.941 -81.037 255.453 -79.6279 260.67C-79.6983 260.741 -79.7688 260.811 -79.8392 260.882C-85.1938 267.016 -92.6619 273.855 -101.539 271.881C-109.36 270.118 -114.714 262.503 -115.842 254.889C-117.18 246.146 -113.164 236.487 -104.287 233.526C-95.9733 230.706 -84.7006 235.571 -79.6983 242.48C-81.5302 246.217 -84.2779 248.967 -88.9279 248.967C-90.337 248.967 -90.337 251.011 -88.9983 251.011ZM-84.4892 250.024C-79.9096 247.838 -77.2324 242.55 -75.8233 237.686C-74.5551 233.244 -73.8505 228.167 -70.7506 224.501C-68.1437 221.399 -63.0006 219.142 -59.4073 222.034C-58.8437 222.527 -57.9278 222.386 -57.7164 221.61C-55.1096 212.092 -44.5414 208.355 -36.2278 213.361C-36.0164 213.502 -35.8051 213.502 -35.5937 213.502C-35.8051 214.842 -35.8755 216.181 -35.8755 217.592C-44.1187 216.604 -52.221 220.482 -57.4346 226.757C-62.8596 233.385 -64.8323 242.268 -64.3391 250.73C-63.2824 267.65 -52.221 284.431 -34.8892 287.815C-34.8186 288.943 -34.7482 290.142 -34.6074 291.27C-39.1164 294.019 -44.6119 295.007 -49.5437 292.821C-54.7573 290.494 -58.1392 285.277 -58.3506 279.637C-58.3506 278.931 -58.9846 278.508 -59.6187 278.649C-63.9869 279.637 -68.5665 278.438 -71.8778 275.406C-75.4006 272.163 -76.1756 267.509 -77.021 263.067C-78.0074 258.274 -80.0506 252.421 -84.4892 250.024ZM-38.5528 173.455C-47.5005 170.565 -41.7937 158.931 -39.7505 153.29C-39.6096 152.938 -39.5392 152.656 -39.3982 152.304C-39.1868 152.092 -39.1164 151.809 -39.1868 151.598C-37.7778 146.239 -38.7642 141.657 -41.3005 136.933C-36.9323 137.568 -32.9164 137.074 -29.1118 135.734C-28.83 135.946 -28.3369 135.946 -28.1255 135.523C-28.1255 135.452 -28.055 135.382 -28.055 135.311C-25.2368 134.184 -22.4891 132.632 -19.8118 130.728C-16.2891 128.331 -12.555 125.581 -8.11632 125.581C-3.11407 125.581 1.53593 128.966 3.29726 133.619C3.50865 134.184 4.21324 134.607 4.77687 134.184C13.02 128.26 24.0815 131.927 27.6042 141.093C26.4064 141.869 25.2792 142.715 24.2223 143.701C23.9405 143.913 23.7291 144.195 23.5177 144.407C13.1609 135.593 -3.04364 134.959 -14.7391 141.234C-26.9277 147.791 -34.7482 161.046 -34.1142 174.935C-33.7619 182.691 -31.0141 190.941 -25.8005 196.793C-26.6459 197.427 -27.4209 198.061 -28.1255 198.767C-28.1959 198.696 -28.3369 198.625 -28.4778 198.555C-38.6232 195.593 -43.1324 184.101 -37.7073 174.935C-37.5664 174.371 -37.9187 173.667 -38.5528 173.455ZM-44.33 136.016C-41.6528 140.247 -39.7505 144.548 -40.8778 149.695C-40.9483 150.188 -41.0891 150.682 -41.2301 151.104C-45.1755 151.809 -48.7687 152.586 -52.855 151.668C-57.0119 150.752 -61.0278 148.637 -63.846 145.464C-70.1869 138.272 -66.8756 126.358 -61.521 119.589C-56.2369 112.89 -47.0073 109.718 -38.905 113.031C-30.5914 116.346 -26.5755 125.37 -29.0414 133.689C-33.5505 135.382 -38.4119 135.664 -43.2028 134.536C-43.9778 134.325 -44.8232 135.241 -44.33 136.016ZM51.2065 100.482C54.0246 97.097 57.8996 95.7579 61.986 94.5588C67.0588 93.0787 73.2591 90.6813 74.8085 85.3229C78.6841 89.6942 85.0952 90.6812 90.5202 92.3734C99.2564 95.0531 109.402 102.455 105.809 112.961C105.668 113.384 105.88 113.948 106.302 114.089C111.164 116.346 115.461 120.011 117.504 125.017C119.477 129.953 118.702 135.241 115.884 139.542C115.109 139.401 114.334 139.26 113.488 139.19C112.713 139.119 111.939 139.049 111.093 139.049C114.545 134.184 111.023 126.71 108.275 122.268C104.611 116.346 99.1155 111.551 92.7749 108.59C80.0927 102.596 65.5087 105.064 55.0815 114.442C49.3042 119.659 45.077 126.78 43.8792 134.466C43.6678 135.734 45.5701 136.298 45.8519 135.029C46.3451 132.35 47.1905 129.742 48.3178 127.274C51.2065 129.389 54.4474 130.94 57.1951 133.266C60.0133 135.593 62.5496 138.272 64.8042 141.163C67.1996 144.337 69.2427 147.721 70.7931 151.316C66.0724 143.349 58.0406 137.356 48.2474 136.228C44.3019 135.805 40.286 136.087 36.411 137.074C36.411 136.863 36.411 136.722 36.2701 136.51C30.9156 126.921 36.0587 115.287 46.8383 113.031C47.261 112.961 47.6133 112.467 47.6133 112.044C47.3315 107.956 48.4587 103.795 51.2065 100.482ZM67.4815 90.5403C62.1269 85.3229 59.3792 77.7788 61.6337 70.3756C63.7474 63.184 70.7226 58.2486 78.1197 57.7551C85.729 57.2616 92.4227 62.056 95.0296 69.1771C96.2973 72.5614 96.5086 76.3686 95.4522 79.8235C94.4652 83.0667 92.141 87.3675 89.5341 89.9762C88.4767 89.6942 87.4907 89.4122 86.4342 89.1302C82.0657 87.8611 77.4154 86.3805 75.0903 82.1501C74.5972 81.2335 73.1886 81.6566 73.1886 82.6436C73.1886 86.7329 70.7226 88.9892 67.4815 90.5403ZM194.089 129.671C189.157 132.421 183.943 131.998 178.659 130.94C178.236 126.498 176.827 122.338 176.968 117.826C177.18 112.679 179.434 108.026 183.732 105.135C191.552 99.7762 202.332 102.032 208.954 108.308C215.014 114.089 218.043 122.832 216.352 131.081C214.379 140.388 205.079 148.496 195.497 144.054C193.807 139.824 193.103 135.452 195.497 131.081C195.991 130.164 195.004 129.178 194.089 129.671ZM192.679 132.562C191.482 136.581 192.186 140.599 193.666 144.477C193.525 144.9 193.596 145.394 194.089 145.605C195.004 147.791 196.132 149.906 197.188 151.95C199.302 155.899 201.557 160.341 201.134 164.923C200.781 169.083 198.457 173.173 194.089 173.949C193.455 174.089 193.173 174.935 193.455 175.43C196.343 180.505 197.752 186.992 195.004 192.421C192.749 196.863 187.889 199.683 182.957 199.26C182.041 197.991 180.984 196.793 179.927 195.664C191.693 188.19 191.834 171.41 186.338 159.989C179.716 146.31 164.427 138.484 149.491 140.881C143.431 141.869 136.527 144.971 133.498 150.541C131.666 148.143 129.552 146.099 127.156 144.337C128.918 140.74 131.525 137.356 135.188 135.664C139.416 133.689 144.63 134.325 147.941 137.638C148.504 138.272 149.35 137.85 149.632 137.215C153.366 127.908 165.343 129.671 173.022 131.504C179.575 133.266 186.409 134.888 192.679 132.562ZM234.53 243.679C236.361 245.653 238.686 247.133 241.222 248.121C238.616 249.53 236.855 252.28 235.797 255.312C234.952 255.03 234.037 256.229 234.741 257.075C234.882 257.216 234.952 257.357 235.093 257.497C234.671 258.979 234.459 260.459 234.248 261.869C233.684 266.875 233.755 272.656 229.879 276.464C226.427 279.848 221.073 280.764 216.704 278.79C216.141 278.579 215.296 278.72 215.155 279.425C214.168 285.77 209.589 290.988 203.599 293.033C196.273 295.5 190.355 291.622 184.365 287.886C184.647 286.828 184.93 285.77 185.141 284.713C185.212 284.784 185.352 284.854 185.493 284.854C192.116 287.04 200.147 285.136 205.995 281.752C212.407 278.085 217.127 272.163 219.734 265.253C224.947 251.293 221.355 233.244 209.518 223.584C204.023 219.142 195.568 215.899 188.452 217.874C188.523 216.745 188.523 215.688 188.452 214.631C188.593 214.56 188.734 214.49 188.804 214.419C197.329 206.663 210.716 210.682 213.816 221.68C214.027 222.457 214.943 222.668 215.507 222.104C219.734 218.156 226.146 220.059 228.188 225.277C229.668 229.154 229.316 233.455 230.654 237.403C231.359 239.518 232.486 241.422 233.824 243.044C233.824 243.326 234.178 243.749 234.53 243.679ZM247.211 247.345C246.577 247.204 246.014 247.204 245.45 247.133C241.997 246.64 238.756 245.018 236.29 242.55C242.421 238.32 249.254 232.469 256.934 233.103C264.684 233.808 270.532 241 270.321 248.614C270.109 256.44 264.332 263.914 256.582 265.606C248.832 267.298 242.209 262.222 237.277 256.793C238.545 252.844 240.941 249.037 245.168 249.108C245.732 249.178 246.295 249.249 246.929 249.249C248.127 249.389 248.409 247.556 247.211 247.345ZM195.85 329.554C200.147 330.965 201.134 336.253 200.288 340.201C199.232 344.784 195.85 348.52 193.525 352.469C191.059 356.77 189.509 362.622 191.763 367.063C187.113 366.147 182.253 368.403 177.954 370.518C171.332 373.832 159.354 377.71 155.691 368.121C155.48 367.557 154.775 367.134 154.211 367.487C144.559 374.114 131.243 368.403 129.763 356.628C129.763 356.558 129.763 356.558 129.763 356.487C138.641 350.072 144.348 339.496 143.855 328.003C143.855 327.51 143.784 327.087 143.784 326.593C144.348 328.991 144.77 331.388 145.052 333.926C145.968 341.682 146.955 350.142 141.6 356.558C141.389 356.77 141.389 357.052 141.459 357.263C139.486 355.994 137.654 354.514 135.682 352.892C134.977 352.328 133.779 353.033 134.343 353.949C138.077 359.872 146.532 362.692 153.154 363.115C161.468 363.609 169.782 360.436 176.404 355.501C188.1 346.758 196.062 330.4 188.241 316.581C184.859 310.589 178.94 305.865 172.036 305.23C172.529 304.877 172.952 304.525 173.445 304.172C173.656 304.243 173.939 304.313 174.221 304.172C180.843 301.282 189.016 302.622 193.877 308.121C198.739 313.62 199.021 322.01 195.286 328.073C194.934 328.709 195.286 329.343 195.85 329.554ZM195.85 368.756C191.693 365.865 192.186 360.225 193.948 355.994C201.064 353.738 209.095 355.148 213.957 361.141C218.818 367.205 219.382 376.018 215.296 382.645C211.279 389.202 202.261 394.49 194.511 391.74C185.634 388.568 183.52 378.486 183.45 370.166C183.45 370.096 183.45 370.096 183.45 370.025C187.324 368.615 191.2 368.121 194.793 370.518C195.921 371.223 196.907 369.46 195.85 368.756ZM106.443 387.439C107.429 391.388 106.936 395.618 104.752 399.144C102.075 403.374 97.6364 404.573 93.127 405.841C86.716 407.745 81.291 411.271 77.4154 416.629C76.0068 411.129 69.1018 408.52 63.8883 407.393C59.3792 406.476 54.5178 405.63 51.5587 401.752C48.811 398.156 48.1769 393.221 50.0792 389.061C50.361 388.427 50.0088 387.439 49.1633 387.51C44.0906 387.721 39.6519 384.408 37.6087 379.825C35.495 375.242 35.8474 370.096 36.9746 365.301C38.5951 365.583 40.286 365.794 42.0473 365.794C42.0473 374.184 45.6406 382.363 52.1223 387.792C59.3792 393.856 69.454 396.183 78.7545 395.689C87.702 395.195 96.5791 391.881 102.85 385.325C108.557 379.331 112.15 371.082 110.74 362.692C110.74 362.692 110.74 362.692 110.74 362.622C112.009 362.622 113.277 362.551 114.545 362.41C118.983 366.006 121.802 371.787 121.097 377.498C120.745 380.46 119.337 383.28 116.589 384.69C113.347 386.382 110.247 385.466 106.795 385.889C106.02 386.1 105.809 387.016 106.443 387.439ZM77.4859 420.295C79.6701 416.418 82.77 413.174 86.5751 410.847C92.4227 414.937 97.8477 419.802 97.8477 427.628C97.8477 436.3 91.154 441.87 82.8404 442.575C75.0198 443.21 67.2701 439.331 63.8178 432.141C60.2951 424.808 62.761 416.135 69.5244 411.623C69.6653 411.553 69.8061 411.412 69.8766 411.271C73.5408 412.892 76.0772 415.289 75.6546 419.731C75.4424 420.789 76.9928 421.141 77.4859 420.295ZM-42.4982 367.487C-37.0733 365.512 -31.8596 366.429 -27.2096 369.531C-26.3641 377.851 -30.5914 386.594 -38.13 390.542C-45.8096 394.561 -56.1665 392.798 -61.9437 386.312C-67.721 379.754 -68.1437 368.685 -62.296 361.988C-57.0824 355.994 -47.9937 354.514 -40.8073 357.475C-40.1732 360.507 -40.5255 363.82 -43.3437 365.583C-44.2596 366.147 -43.6255 367.839 -42.4982 367.487ZM-30.8732 365.231C-33.6914 364.243 -36.6505 364.031 -39.5392 364.526C-38.4823 362.692 -38.271 360.436 -38.6232 358.18C-38.3414 358.039 -38.271 357.545 -38.6232 357.263C-38.6936 357.193 -38.7642 357.193 -38.8346 357.123C-39.2574 355.078 -40.1028 353.033 -41.0891 351.34C-43.2732 347.533 -46.3733 343.796 -46.2323 339.144C-46.0915 334.631 -43.6255 330.612 -39.68 328.427C-38.905 328.003 -39.1164 327.087 -39.68 326.664C-43.9778 323.421 -44.2596 317.075 -41.8641 312.562C-39.3278 307.91 -34.6778 305.019 -29.9573 302.904C-29.4641 303.538 -28.9709 304.172 -28.4073 304.736C-37.8482 318.979 -37.1437 340.694 -24.3914 352.68C-11.6391 364.667 7.8064 365.442 23.0951 358.25C23.9405 359.025 24.8564 359.802 25.7724 360.436C21.545 369.319 10.9768 373.339 2.73363 366.852C2.24043 366.429 1.46552 366.429 1.11317 367.063C-3.32545 374.466 -13.2595 376.582 -20.3755 371.928C-22.0664 370.8 -23.6164 369.601 -25.1664 368.403C-25.1664 368.333 -25.1664 368.192 -25.1664 368.121C-25.2368 367.416 -25.9414 367.275 -26.4346 367.487C-27.9141 366.57 -29.3232 365.794 -30.8732 365.231ZM-10.4414 225.065C-6.49594 226.686 2.52234 229.225 4.3541 223.161C6.11551 217.239 -3.53685 214.842 -7.41183 213.925C-13.0482 212.515 -18.8959 211.881 -24.6732 212.022C-18.5437 210.047 -12.4141 208.073 -5.8618 209.343C0.54953 210.611 9.21548 217.028 7.3132 224.571C5.34048 232.398 -4.24133 233.314 -10.4414 230.635C-16.8527 227.886 -21.7141 222.739 -26.0119 217.451C-21.0096 220.271 -15.7959 222.88 -10.4414 225.065ZM-27.8437 214.066C-27.9846 213.854 -28.1959 213.572 -28.4073 213.361C-23.3346 213.361 -18.2618 213.713 -13.2595 214.631C-10.23 215.194 4.84729 217.733 2.17 223.091C0.54953 226.334 -5.01634 224.924 -7.55269 224.078C-10.0891 223.232 -12.555 222.104 -14.9505 220.905C-19.3186 218.86 -23.6164 216.534 -27.8437 214.066ZM-29.2528 185.794C-29.5346 185.864 -29.6755 186.076 -29.6755 186.287C-30.9437 183.185 -31.7891 179.941 -32.1414 176.557C-32.0709 176.557 -32.0005 176.557 -31.93 176.487C-31.8596 176.416 -31.7891 176.416 -31.7187 176.346C-31.4369 176.205 -31.4369 175.852 -31.5073 175.641C-31.0141 175.852 -30.4505 175.923 -29.8868 175.852C-29.3232 175.852 -28.6891 175.852 -28.055 175.852C-27.1391 175.852 -26.2232 175.923 -25.3778 175.993C-23.0527 176.205 -20.7278 176.487 -18.4732 176.98C-14.2459 177.826 -10.1595 179.166 -6.21404 180.858C-1.0004 183.114 3.57916 186.146 7.87683 189.671C9.2859 191.082 10.7655 192.421 12.245 193.761C12.3155 193.831 12.386 193.972 12.4564 194.043C1.4655 184.736 -15.7255 181.704 -29.2528 185.794ZM8.86324 192.985C-1.63455 189.178 -13.6119 189.671 -23.4755 195.241C-23.8277 195.452 -24.1096 195.593 -24.3914 195.805C-26.3641 192.985 -28.1255 190.094 -29.3937 186.992C-29.2528 187.062 -29.1119 187.133 -28.9005 187.062C-21.2914 185.3 -13.6823 184.947 -6.00275 186.64C-0.507294 187.908 4.28366 190.165 8.86324 192.985ZM-1.63457 178.461C-2.69139 177.473 -3.6777 176.416 -4.73453 175.43C-8.25728 171.974 -11.8504 168.449 -15.3732 164.995C-18.8959 161.539 -22.2778 157.521 -26.2937 154.701C-26.3641 154.63 -26.4346 154.63 -26.505 154.63C-25.3778 152.938 -24.1096 151.316 -22.63 149.836C-19.6005 146.733 -16.0777 144.195 -12.2027 142.362C-12.2027 142.433 -12.2027 142.503 -12.2027 142.503C-13.33 155.688 -8.89134 167.956 -1.63457 178.461ZM-11.146 141.869C-7.97545 140.529 -4.52315 139.683 -1.0004 139.401C2.94502 139.049 6.74957 139.472 10.4837 140.388C1.11316 154.701 0.620056 174.089 9.00409 188.896C8.86324 188.755 8.65186 188.614 8.51089 188.403C7.87683 187.767 7.17233 187.062 6.53818 186.428C-4.24133 174.16 -11.9209 159.424 -10.6528 142.503C-10.7232 142.151 -10.9346 141.939 -11.146 141.869ZM-16.5005 166.122C-12.9777 169.577 -9.38454 173.032 -5.79137 176.557C-3.53683 178.743 -1.21179 180.929 1.04274 183.115C-1.77542 181.422 -4.73453 179.941 -7.76407 178.743C-12.2027 176.98 -16.8527 175.641 -21.6436 175.006C-23.9687 174.724 -26.2232 174.512 -28.5482 174.442C-29.6755 174.442 -31.155 174.16 -32.2823 174.653C-32.2823 173.737 -32.3528 172.821 -32.2823 171.904C-32.0005 166.052 -30.1687 160.341 -27.0687 155.476C-24.1096 159.353 -19.9527 162.668 -16.5005 166.122ZM12.1746 191.928C7.73598 184.947 4.91772 177.192 4.49504 168.802C3.93141 158.79 6.82001 149.201 12.0336 140.811C15.6268 141.869 19.1496 143.49 22.4609 145.394C15.8382 152.374 12.1746 162.95 10.9768 172.186C9.99049 179.659 10.8359 187.626 14.2883 194.254C14.0769 194.043 13.9359 193.902 13.7246 193.69C13.2314 193.126 12.6678 192.562 12.1746 191.928ZM12.5973 176.839C12.9496 167.039 16.4723 155.899 22.6723 148.214C23.5178 147.227 24.3632 146.31 25.2791 145.464C25.2791 145.605 25.3496 145.746 25.4905 145.887C25.561 146.028 25.7019 146.099 25.8428 146.239C25.8428 146.31 25.8428 146.451 25.8428 146.592C25.9132 146.733 25.9132 146.945 25.9836 147.157C26.5473 152.233 24.0815 156.392 21.3337 160.835C18.6564 165.136 16.6132 169.718 15.7678 174.794C14.4291 183.397 16.7542 193.267 23.4473 199.19C22.8837 199.754 22.4609 200.317 22.1087 200.952C21.3336 200.247 20.4882 199.542 19.6427 198.837C14.7109 192.632 12.3155 184.877 12.5973 176.839ZM50.2905 180.082C55.2223 175.217 50.2201 166.475 46.9087 162.386C42.9633 157.521 37.9609 153.008 32.5359 149.413C40.0746 151.316 47.0497 153.925 52.4042 160.059C56.6315 164.923 62.4792 176.134 56.2792 181.775C55.4337 182.55 54.3064 183.185 53.1087 183.608C51.3473 183.397 49.5156 183.608 47.8246 184.454C47.6837 184.524 47.5429 184.595 47.4019 184.665C45.7814 184.665 44.3019 184.524 42.9633 184.242C39.0883 183.326 35.8474 180.647 33.5928 177.473C28.4496 170.424 28.4496 161.469 28.0973 153.149C32.6769 164.853 43.4564 186.71 50.2905 180.082ZM28.5201 148.284C33.3109 151.809 37.8905 155.335 42.0473 159.635C44.3724 161.962 46.5565 164.5 48.1769 167.391C49.5156 169.788 51.8405 175.43 49.586 177.968L46.2042 179.236L45.2883 178.532C44.6542 178.109 44.0906 177.403 43.5269 176.839C42.3291 175.641 41.3428 174.301 40.3564 172.891C38.5951 170.353 37.1155 167.603 35.7769 164.853C34.2973 161.892 32.8883 158.86 31.5496 155.758C30.4223 153.431 29.5769 150.752 28.5201 148.284ZM77.345 107.602C77.345 107.461 77.2746 107.391 77.2746 107.32C77.9789 107.32 78.6841 107.32 79.3884 107.32C86.3629 107.602 93.1974 110.281 98.6929 114.583C94.9591 116.557 91.5766 120.364 88.9698 123.537C85.8699 127.274 83.3335 131.434 81.4318 135.946C78.7545 142.151 77.1337 148.778 76.0068 155.476C76.0068 149.342 75.8659 143.278 76.0068 137.145C76.1477 132.209 76.2885 127.274 76.4998 122.338C76.7816 117.473 77.4858 112.467 77.345 107.602ZM108.979 129.037C104.893 128.825 100.384 130.728 96.7903 132.491C92.634 134.536 88.8993 137.427 85.7994 140.881C82.4178 144.689 79.5293 149.342 77.4859 154.277C78.6841 148.566 80.0927 142.926 82.3474 137.568C84.3204 132.985 86.8568 128.684 90.0272 124.806C92.9157 121.281 96.5791 118.813 99.7494 115.64C100.173 115.993 100.595 116.346 100.948 116.768C103.836 119.518 106.302 122.761 108.063 126.287C108.557 127.203 109.05 128.26 109.473 129.389C109.473 129.178 109.261 129.037 108.979 129.037ZM109.684 129.601C110.881 132.773 111.586 136.298 109.684 139.049C109.684 139.049 109.684 139.049 109.684 139.119C105.809 139.19 101.934 139.894 98.2703 140.881C93.8313 142.08 89.1106 143.49 85.4473 146.31C81.7136 149.13 79.5997 153.361 77.9789 157.591C77.2041 159.565 76.5703 161.539 76.0068 163.584C76.0068 163.232 76.0068 162.95 76.0068 162.597C76.0772 162.315 76.1477 161.962 76.1477 161.68C78.8954 154.771 81.5727 147.932 86.716 142.292C89.6046 139.049 93.0566 136.369 96.9312 134.395C100.948 132.28 105.034 131.716 109.261 130.376C109.543 130.235 109.684 129.882 109.684 129.601ZM76.1477 107.461C75.3016 111.974 75.372 116.698 75.0903 121.281C74.8085 126.428 74.6677 131.504 74.5268 136.651C74.4564 141.163 74.386 145.676 74.386 150.188C73.6112 144.9 72.2721 139.612 70.5818 134.607C69.1722 130.446 67.4814 126.287 65.5087 122.409C63.9588 119.448 61.9156 115.993 58.9564 114.089C63.8883 110.352 69.8061 107.884 76.1477 107.461C76.1477 107.461 76.1477 107.391 76.1477 107.461ZM64.7337 123.819C66.7769 127.838 68.4679 132.068 69.8766 136.369C72.413 144.124 73.8225 152.092 74.5973 160.2C74.5973 160.13 74.5972 160.059 74.5268 160.059C73.1886 152.726 69.947 145.887 65.4383 139.965C61.4223 134.747 55.3633 128.613 48.952 126.358C51.2065 121.915 54.3064 117.967 58.111 114.794C60.7179 117.614 62.9724 120.293 64.7337 123.819ZM74.7381 176.346C87.7725 174.23 84.6726 196.722 84.3204 203.984C84.3204 204.055 84.3204 204.055 84.3204 204.055C84.3204 204.125 84.3204 204.125 84.3204 204.196C84.0387 204.125 83.757 204.125 83.5447 204.055C83.5447 203.984 83.5447 203.914 83.5447 203.772C82.9813 199.965 82.4883 192.421 76.7111 193.267C71.4974 194.043 72.3426 200.952 74.386 204.196C73.5408 204.266 72.6243 204.337 71.7791 204.478C68.6088 196.088 59.7315 178.743 74.7381 176.346ZM94.1835 177.332C95.0296 179.095 96.1565 180.576 97.566 181.775C92.4227 182.832 88.8993 188.825 86.716 194.818C87.209 186.992 86.0107 177.896 80.3745 175.076C80.4449 174.935 80.5153 174.724 80.5153 174.512C80.5153 164.218 83.9682 152.586 94.8887 149.13C99.7494 147.58 105.245 148.214 110.177 147.298C105.95 150.259 102.286 153.925 99.2563 158.014C95.3817 163.302 91.0836 170.635 94.1835 177.332ZM121.59 149.413C122.436 150.118 123.282 150.823 124.056 151.457C128.073 154.63 130.609 158.508 131.525 163.584C133.639 175.217 126.593 185.088 121.309 194.677C119.759 194.959 118.209 195.452 116.8 196.088C113.347 197.709 110.67 200.388 108.275 203.42C109.473 200.317 110.247 197.074 110.036 193.69C109.895 190.446 108.768 187.344 106.725 185.018C107.5 185.018 108.275 184.947 109.05 184.806C115.884 183.679 121.168 178.32 123.352 171.833C125.959 164.43 124.549 156.533 121.59 149.413ZM131.595 199.824C131.666 199.754 131.666 199.754 131.595 199.824C135.329 204.055 133.779 209.907 129.974 213.643C127.58 215.97 124.902 217.874 122.225 219.848C120.041 220.835 118.068 221.962 116.589 223.161C116.024 222.245 115.391 221.399 114.757 220.553C118.138 218.015 123 212.022 118.49 208.707C114.264 205.605 109.895 209.554 107.359 212.938C106.725 212.445 106.091 211.951 105.386 211.457C108.204 206.945 111.093 202.221 115.602 199.19C119.97 196.229 126.663 195.03 130.891 198.978C130.539 199.401 131.102 200.106 131.595 199.824ZM124.691 328.214C122.436 321.235 116.73 314.255 108.909 316.934C111.657 314.114 112.432 309.813 111.939 305.865C111.657 303.679 111.093 301.634 110.247 299.589C112.009 301.282 113.982 302.763 115.954 303.961C118.913 305.653 122.789 306.429 126.029 305.371C132.44 312.069 135.893 321.235 134.977 330.541C134.484 335.477 132.652 339.919 129.904 344.009C128.143 346.688 126.1 349.226 124.408 351.905C127.086 344.361 127.086 335.759 124.691 328.214ZM101.934 338.508C104.4 344.572 108.839 349.719 114.334 353.315C109.261 352.258 104.47 351.27 99.8198 348.802C90.0976 343.655 83.6856 334.701 81.9953 323.914C84.6726 322.081 86.5751 319.049 87.4907 315.947C88.5472 312.421 88.8994 308.614 88.5472 304.877C90.0976 308.262 92.141 311.505 94.0426 314.114C96.5791 317.639 100.243 320.53 104.541 319.472C99.5381 324.055 99.3972 332.375 101.934 338.508ZM105.88 377.286C102.638 375.102 99.1859 373.339 96.2973 370.589C93.62 368.051 91.3654 365.16 89.3933 362.129C85.6586 356.205 83.1222 349.578 80.6562 343.021C80.5857 342.598 80.5153 342.175 80.4449 341.752C85.5177 353.456 95.7339 362.269 109.754 362.763C109.754 362.833 109.684 362.904 109.684 362.974C109.613 367.839 108.487 372.352 106.514 376.3C106.443 376.3 106.373 376.229 106.302 376.229C105.668 376.159 105.315 376.934 105.88 377.286ZM105.386 378.345C103.202 381.94 100.384 385.042 96.9312 387.51C96.9312 387.369 96.8608 387.298 96.7903 387.157C86.8568 375.947 83.6152 362.128 81.4318 347.956C83.5448 354.16 86.0812 360.154 89.8863 365.442C92.141 368.615 94.8183 371.576 97.9182 374.043C99.6085 375.383 102.78 377.992 105.386 378.345ZM95.7339 388.216C90.8019 391.529 84.743 393.433 78.2615 393.715C77.4154 393.715 76.5703 393.715 75.7955 393.715C75.7955 393.644 75.7955 393.644 75.7955 393.574C76.4998 383.562 76.9224 373.48 77.4859 363.397C77.9084 355.43 78.5432 347.393 78.7545 339.355C78.9658 339.989 79.1067 340.624 79.318 341.259C80.5857 358.039 84.25 375.595 95.7339 388.216ZM74.3155 393.644C67.1996 393.292 59.8724 391.247 54.236 386.875C64.5928 380.248 72.4834 369.672 76.2181 357.827C76.1477 359.661 76.0068 361.564 75.9364 363.397C75.372 373.409 74.7381 383.491 74.3155 393.574C74.3155 393.644 74.3155 393.644 74.3155 393.644ZM46.2746 375.313C48.036 375.877 49.5156 374.89 51.0655 374.114C53.1792 372.986 55.2224 371.717 57.1951 370.307C60.9293 367.628 64.2406 364.454 67.1996 360.859C71.8495 355.148 75.372 348.52 77.2746 341.4C77.0633 344.431 76.852 347.463 76.7111 350.565C73.9634 364.878 65.7905 377.71 53.1792 385.889C47.4019 380.812 44.2314 373.409 44.2314 365.794C44.5838 365.794 44.936 365.724 45.2883 365.724C54.7997 364.737 63.7474 360.577 69.8766 353.103C71.8495 350.636 73.5408 347.956 74.879 345.136C72.9069 350.072 70.3 354.725 66.9178 358.885C64.4519 361.988 61.6337 364.808 58.5338 367.275C56.8429 368.615 55.011 369.884 53.1792 371.012C51.6291 371.928 48.6701 374.255 46.8383 373.761C45.6406 373.339 45.2178 374.961 46.2746 375.313ZM78.7545 338.932C78.7545 338.367 78.7545 337.874 78.8249 337.31C78.8954 337.592 79.0363 337.874 79.1067 338.226C79.1067 338.508 79.1771 338.721 79.1771 339.003C79.0362 338.862 78.8954 338.862 78.7545 338.932ZM77.4859 323.562C70.9339 324.478 69.5948 317.921 69.0314 312.916C68.3271 307.415 68.961 302.057 70.3705 296.769C70.3705 296.699 70.4409 296.558 70.4409 296.487C70.9339 296.558 71.4269 296.628 71.92 296.699C69.8765 300.365 72.9774 307.98 77.4859 308.121C79.7406 308.191 81.784 306.499 82.6291 304.525C83.757 301.986 83.1222 299.237 82.3474 296.769C83.4743 296.628 84.6021 296.487 85.729 296.276C86.716 301.211 87.209 306.147 86.6456 311.153C85.8699 316.37 83.4039 322.786 77.4859 323.562ZM51.9815 322.927C55.7156 322.856 59.3088 320.53 61.6337 317.427C63.7474 314.607 65.3679 311.294 66.6361 307.839C66.6361 310.73 66.9179 313.62 67.4815 316.44C68.2566 320.036 69.8061 323.35 72.6947 324.83C71.7087 336.253 65.3679 345.7 55.2928 351.199C50.5723 353.738 45.4996 355.148 40.2156 356.064C40.0042 356.064 39.7928 356.135 39.6519 356.135C45.8519 351.905 51.4883 345.7 54.5178 339.144C56.9837 333.503 56.1383 327.087 51.9815 322.927ZM29.436 348.52C26.6178 343.373 22.5314 338.508 20.8405 333.432C19.2905 328.779 19.4315 323.703 20.911 319.049C21.686 316.722 22.7428 314.537 24.1519 312.492C25.7019 310.307 27.7451 308.896 29.5064 306.992C29.5769 306.922 29.5769 306.922 29.5769 306.851C33.7337 307.133 37.961 305.019 41.3428 302.41C42.2587 301.704 43.1042 300.929 44.0201 300.154C42.9633 302.622 42.1883 305.16 41.8359 307.769C41.2723 311.716 41.9769 316.088 44.4428 319.12C39.3701 318.485 34.0155 320.812 31.1268 325.253C28.8019 328.92 28.4496 333.503 28.3791 337.733C28.3087 341.329 28.7315 344.925 29.436 348.52ZM20.77 300.577C12.4564 306.499 3.01544 309.813 -7.27087 306.851C-12.4845 305.301 -16.5005 302.41 -20.4459 298.884C-21.08 298.32 -21.6436 297.827 -22.3482 297.334C-15.5141 299.307 -7.90503 299.589 -1.42317 296.839C3.93141 294.584 9.14505 289.508 9.07462 283.514C11.7518 286.052 15.9087 286.828 19.5019 286.334C23.0246 285.841 26.336 284.361 29.5064 282.739C30.1405 282.457 30.7042 282.104 31.3382 281.752C25.2792 287.11 18.9383 294.655 20.77 300.577ZM3.79045 280.482C0.479095 274.983 -6.91862 280.694 -10.5823 282.457C-15.1618 284.643 -20.8687 286.264 -25.3778 289.084C-21.9255 284.148 -17.4868 279.919 -12.2732 276.958C-5.93231 273.361 3.86089 272.374 6.67914 280.905C9.07452 288.097 1.67679 293.949 -4.38229 295.712C-11.3573 297.757 -18.0505 295.923 -24.955 294.796C-18.4732 293.949 -11.9914 292.469 -5.79137 290.635C-1.9868 289.508 7.3132 286.475 3.79045 280.482ZM75.7955 203.701C75.372 202.01 74.386 200.458 74.4564 198.625C74.5268 196.581 75.9364 194.536 78.1901 195.241C81.6431 196.299 81.7135 201.093 82.3474 203.984C80.8675 203.843 79.4588 203.914 77.9789 204.055C77.2746 204.055 76.4998 204.055 75.7955 204.125C75.7955 203.984 75.8659 203.842 75.7955 203.701ZM83.4743 206.099C83.5448 206.169 83.6152 206.24 83.757 206.24C84.25 206.24 84.743 206.31 85.236 206.31C85.6586 206.381 86.0812 206.452 86.5047 206.523C86.716 206.593 86.9273 206.523 87.0681 206.452C88.0542 206.523 89.1106 206.593 90.0976 206.663C90.2384 206.663 90.3089 206.663 90.3793 206.593C97.3547 208.566 103.766 211.881 109.05 216.957C116.095 223.725 120.393 232.751 121.731 242.409C121.943 244.172 122.084 245.935 122.155 247.697C122.014 247.909 122.014 248.121 122.155 248.332C122.296 261.799 116.8 274.772 107.007 283.725C106.443 283.585 105.95 284.078 106.02 284.643C103.554 286.758 100.877 288.591 97.9182 290.142C97.566 290.001 97.2834 290.212 97.2129 290.494C97.0721 290.565 96.9312 290.635 96.7903 290.706C80.2336 298.743 60.5769 295.712 47.1201 283.232C33.5928 270.682 29.5064 251.152 36.1996 234.019C37.3973 230.988 38.8769 228.167 40.6382 225.559C40.8496 225.418 41.061 225.136 41.1314 224.854C44.2314 220.482 48.1065 216.816 52.4747 213.854C52.686 213.784 52.8974 213.643 53.0383 213.431C61.8451 207.65 72.6947 204.83 83.4743 206.099ZM108.698 214.066C110.67 211.669 113.558 207.932 117.011 209.836C121.097 212.022 116.589 217.31 114.123 219.707C113.7 219.213 113.347 218.719 112.854 218.226C111.586 216.674 110.177 215.335 108.698 214.066ZM158.791 289.86C161.75 290.988 164.85 291.34 168.02 291.622C169.148 291.693 170.345 291.834 171.543 291.975C166.259 294.442 160.482 296.628 154.705 295.289C148.363 293.808 143.29 288.027 146.179 281.399C146.249 281.328 146.249 281.187 146.32 281.117C146.743 280.553 147.025 279.989 147.307 279.355C150.97 274.208 158.439 273.502 163.934 276.393C168.584 278.79 172.318 282.809 174.925 287.392C171.684 285.347 168.231 283.655 164.638 282.386C161.538 281.258 153.225 277.521 151.111 281.964C149.208 285.911 156.043 288.802 158.791 289.86ZM130.68 283.232C125.255 282.104 120.604 278.931 115.743 276.322C116.589 275.054 117.434 273.714 118.138 272.374C121.52 273.714 127.509 275.054 128.847 270.541C130.115 266.1 125.536 263.984 121.943 263.349C122.366 262.01 122.718 260.6 123 259.19C127.367 260.67 131.736 261.94 135.752 264.196C139.909 266.523 145.968 270.893 145.897 276.252C145.897 283.444 135.682 284.29 130.68 283.232ZM118.913 270.823C119.97 268.709 120.886 266.523 121.59 264.337C122.789 264.76 123.915 265.183 124.973 265.817C126.381 266.734 127.932 268.779 126.804 270.541C125.184 273.15 121.52 271.317 118.913 270.823ZM122.789 237.756C126.17 237.756 130.609 234.372 129.129 230.635C127.58 226.686 122.789 227.745 119.9 229.084C119.266 227.674 118.49 226.264 117.716 224.854C118.49 224.43 119.196 224.007 119.9 223.514C123.141 221.751 126.452 220.271 130.257 219.707C135.188 218.931 141.6 219.283 143.22 225.065C144.7 230.424 140.684 235.782 136.105 238.179C132.793 239.941 129.129 240.577 125.677 242.057C124.973 242.268 124.268 242.48 123.563 242.692C123.493 241.07 123.141 239.378 122.789 237.756ZM122.436 236.346C121.873 234.231 121.168 232.186 120.323 230.212C122.436 229.648 126.241 228.59 127.368 231.27C128.707 234.372 124.197 235.218 122.436 236.346ZM112.784 280.271C115.25 281.963 118.42 284.22 116.8 287.533C115.109 290.917 111.022 286.899 108.486 284.784C110.036 283.373 111.445 281.893 112.784 280.271ZM98.1999 291.975C99.1155 293.033 100.031 294.09 100.525 295.43C101.088 297.051 100.807 299.378 99.1155 300.295C96.6495 301.564 94.4652 298.955 93.3383 297.121C92.7749 296.276 92.4227 295.359 91.8584 294.655C93.9722 293.949 96.1565 293.033 98.1999 291.975ZM73.2591 296.839C75.8659 297.051 78.5432 297.122 81.1501 296.839C81.5022 298.743 81.8544 300.718 81.4318 302.622C81.0092 304.454 79.2475 306.71 77.0632 306.288C75.1607 305.865 73.9634 303.467 73.4704 301.775C72.9774 300.083 73.3999 298.532 73.2591 296.839ZM63.9588 295.007C62.902 297.686 59.1678 304.595 56.4905 300.788C54.6588 298.109 56.7724 295.007 57.1951 292.328C59.3792 293.385 61.6337 294.301 63.9588 295.007ZM47.1201 285.77C45.7814 287.181 45.1474 289.013 43.3155 290.072C40.9201 291.481 37.8201 290.776 37.7497 287.604C37.7497 285.277 39.4406 283.585 41.2019 282.386C41.6951 282.104 42.1883 281.823 42.6109 281.541C44.0905 283.021 45.5701 284.431 47.1201 285.77ZM33.311 235.853C32.2542 235.007 30.845 234.865 29.7178 234.16C28.3791 233.314 27.1814 231.974 27.3223 230.283C27.3928 228.449 28.9428 227.745 30.5632 227.815C31.9019 227.886 34.3678 228.379 35.0724 229.577C35.2838 229.93 35.7769 229.86 35.9883 229.648C35.0019 231.692 34.1564 233.808 33.4519 235.994C33.3815 235.923 33.311 235.923 33.311 235.853ZM42.3997 219.989C40.2156 217.803 36.3405 215.265 38.3837 211.669C40.7792 207.298 46.4859 211.669 47.8246 214.56C47.8246 214.631 47.8951 214.631 47.8951 214.701C45.9928 216.252 44.0906 218.085 42.3997 219.989ZM57.1951 208.496C56.4201 207.157 55.1519 206.169 54.4474 204.689C53.461 202.574 54.377 200.388 56.7019 199.965C60.5769 199.19 62.6201 203.138 63.8883 206.028C63.8883 206.099 63.9588 206.099 63.9588 206.169C61.6337 206.875 59.4496 207.721 57.2655 208.778C57.2655 208.707 57.2656 208.637 57.1951 208.496ZM64.8747 205.958C64.8747 205.887 64.8747 205.817 64.8747 205.676C63.8178 201.517 60.0837 196.863 55.2928 198.908C50.5019 200.881 52.7564 207.227 56.2792 209.343C54.9406 210.047 53.6724 210.752 52.4042 211.528C49.9383 207.862 47.4724 204.337 45.8519 200.106C44.2314 195.734 43.4565 189.178 48.036 186.569C49.727 186.428 51.4883 186.146 53.0383 185.652C56.6315 186.076 60.0838 188.544 62.4088 191.152C65.6497 194.889 67.411 199.542 69.3835 203.984C69.5244 204.266 69.5948 204.548 69.7357 204.83C68.0453 205.112 66.4247 205.464 64.8747 205.958ZM46.5565 206.734C47.8951 209.061 49.3042 211.105 50.6428 212.656C50.0087 213.079 49.4451 213.502 48.811 213.995C47.261 209.977 41.061 205.746 37.4678 209.907C34.1564 213.784 37.5383 219.213 41.4133 221.187C40.7792 221.892 40.2156 222.668 39.6519 223.443C35.495 221.469 31.6905 218.79 28.5201 215.406C24.9973 211.669 20.136 204.619 25.42 200.176C29.9292 196.44 36.6928 199.119 40.9906 201.869C43.1747 203.279 45.0064 204.901 46.5565 206.734ZM30.986 221.61C32.1837 222.175 33.3815 222.809 34.5792 223.514C34.7905 223.584 36.7633 224.713 37.961 225.206C37.961 225.277 37.8905 225.277 37.8905 225.347C37.8905 225.418 37.8905 225.418 37.8905 225.488C37.8201 225.7 37.8905 225.841 38.0315 225.982C37.961 226.052 37.961 226.123 37.8905 226.193C37.2565 227.251 36.6928 228.308 36.1292 229.436C36.1292 229.366 36.1292 229.295 36.1292 229.154C35.5656 227.392 32.8883 226.616 31.1974 226.334C29.2247 225.982 27.0405 226.404 25.9836 228.238C24.9973 230.001 25.42 232.327 26.5474 233.878C27.7451 235.5 30.6337 237.403 32.7473 237.121C32.8883 237.121 32.9587 237.051 33.0995 236.98C32.6769 238.461 32.2541 240.012 31.9723 241.493C31.9019 241.493 31.9019 241.422 31.8314 241.422C24.6451 238.461 7.10181 236.205 10.6246 224.43C12.386 218.578 18.7973 217.38 24.0815 218.79C26.4769 219.425 28.7315 220.482 30.986 221.61ZM31.3382 243.256C31.4792 243.256 31.5496 243.256 31.6905 243.256C31.5496 244.172 31.4792 245.018 31.3382 245.935C27.9565 244.454 21.2632 245.088 21.1928 249.883C21.1223 254.959 27.3223 255.947 31.2678 254.818C31.3382 255.735 31.4792 256.722 31.62 257.638C26.0542 259.049 20.8405 261.094 14.9928 260.953C9.28592 260.811 1.6768 258.767 2.38139 251.716C3.57909 239.518 17.3178 240.577 27.2519 242.198C28.7315 242.621 30.1405 242.974 31.3382 243.256ZM31.1974 253.127C28.3087 253.338 24.0814 254.254 23.1655 250.589C22.1792 246.499 28.8019 246.287 31.1268 247.204C31.1974 247.204 31.1973 247.204 31.2678 247.204C31.0564 249.178 31.0564 251.152 31.1974 253.127ZM31.9019 259.613C32.7473 263.914 34.1564 268.144 36.1996 272.092C36.1292 272.092 36.1292 272.092 36.0587 272.163C34.7906 272.938 34.0155 273.926 32.3951 273.926C30.7746 273.926 29.436 273.079 28.8019 271.599C28.2383 270.189 28.4496 268.426 29.436 267.228C30.4224 266.1 31.9019 265.887 32.9587 264.901C33.2405 264.689 33.0291 264.196 32.6769 264.196C28.2383 264.055 25.42 269.272 27.5337 273.009C28.5201 274.772 30.4224 275.688 32.3951 275.688C34.0155 275.688 36.1292 274.913 36.9041 273.432C37.2565 273.996 37.6087 274.631 37.961 275.195C36.8337 275.265 35.7064 276.605 34.861 277.169C32.5359 278.79 30.1405 280.201 27.6042 281.399C22.3905 283.937 13.6541 286.969 9.56772 280.905C5.69273 275.195 12.4564 268.92 16.7542 265.817C18.5859 264.478 20.4882 263.349 22.4609 262.433C25.7018 261.799 28.9428 260.741 31.9019 259.613ZM28.0973 287.815C31.4087 283.866 35.4246 280.553 39.9337 278.015C40.2156 278.438 40.5678 278.861 40.8496 279.284C41.1315 279.707 41.4837 280.06 41.8359 280.412C40.7792 280.905 39.1587 281.963 39.0178 282.104C37.961 282.95 37.0451 284.007 36.5519 285.277C35.7769 287.251 35.9178 289.649 37.3973 291.27C40.7792 294.866 47.6133 291.058 48.3178 286.758C49.0928 287.392 49.7974 287.956 50.6428 288.52C50.5019 288.59 50.4315 288.802 50.4315 289.013C49.0928 290.917 47.8247 292.892 46.6269 294.937C46.2747 295.289 45.9223 295.641 45.711 295.853C43.8087 297.827 41.7655 299.73 39.511 301.352C35.3542 304.313 29.5769 306.64 25.0678 302.974C19.7132 298.602 24.8564 291.693 28.0973 287.815ZM49.6564 293.808C50.2906 293.033 50.9951 292.116 51.3473 291.199C51.6997 290.635 52.0519 290.142 52.4042 289.649C53.5314 290.353 54.6588 291.058 55.8565 291.622C53.3201 294.16 52.8269 301.282 56.4201 303.115C60.8587 305.301 64.311 299.025 65.1565 295.359C66.2133 295.641 67.3406 295.923 68.4679 296.135C68.4679 296.135 68.4679 296.205 68.3975 296.205C67.9749 297.616 67.6224 299.096 67.3406 300.577C66.0019 304.948 64.311 309.319 62.0565 313.268C59.3088 318.062 53.5314 323.421 47.8951 319.472C39.511 313.62 44.6542 301.845 49.6564 293.808ZM93.4792 309.319C92.141 307.063 91.0132 304.736 90.0976 302.34C89.2524 300.224 88.7585 297.968 87.7724 295.994C87.7724 295.923 87.702 295.923 87.702 295.853C88.4767 295.641 89.2524 295.43 90.0272 295.218C90.5906 297.404 92.4931 300.013 94.1835 301.211C96.0156 302.551 98.6225 303.045 100.525 301.564C104.188 298.743 102.356 293.949 99.4677 291.27C100.525 290.635 101.652 290.001 102.638 289.366C102.638 289.508 102.708 289.649 102.779 289.719C103.484 291.129 104.329 292.469 105.315 293.808C106.866 296.487 108.275 299.307 109.12 302.268C110.599 307.204 110.811 314.325 105.315 317.004C99.8198 319.684 95.8748 313.409 93.4792 309.319ZM114.334 300.365C110.318 297.122 107.288 293.033 104.47 288.802C104.329 288.661 104.188 288.52 104.047 288.45C105.104 287.674 106.161 286.899 107.147 286.052C110.036 288.943 115.531 293.526 118.279 288.872C120.675 284.784 116.941 281.328 113.488 279.496C113.912 278.931 114.334 278.438 114.757 277.874C118.843 280.271 122.577 283.232 125.536 286.969C128.566 290.776 132.511 297.475 128.284 301.916C124.338 306.006 118.068 303.397 114.334 300.365ZM128.707 287.956C127.65 286.405 126.522 284.995 125.255 283.655C127.861 284.784 130.539 285.488 133.427 285.7C136.738 285.982 140.754 285.277 143.713 283.373C142.868 288.872 146.39 293.949 151.745 296.135C159.706 299.448 168.02 295.712 175.207 292.187C175.488 292.187 175.77 292.257 176.052 292.257C174.854 292.892 173.727 293.667 172.6 294.513C168.725 297.545 164.85 300.013 160.058 301.352C150.336 304.102 139.909 301.704 132.088 295.359C132.018 295.289 131.877 295.218 131.806 295.218C131.313 292.539 130.116 290.001 128.707 287.956ZM165.837 289.437C163.3 289.154 160.905 288.661 158.509 287.674C157.381 287.181 156.254 286.687 155.268 286.052C154.211 285.347 150.266 282.739 154.987 281.541C156.606 281.117 159.918 282.527 161.468 282.95C163.864 283.655 166.259 284.572 168.514 285.559C171.262 286.757 173.798 288.238 176.263 289.79C176.263 289.86 176.334 289.931 176.334 290.001C172.952 289.649 169.289 289.79 165.837 289.437ZM161.679 273.573C156.959 272.093 151.604 272.938 147.941 276.04C147.87 271.458 143.784 267.298 140.331 264.76C137.865 262.926 135.118 261.446 132.229 260.247C140.895 261.094 150.618 259.824 153.154 251.857C162.736 252.703 168.231 261.799 172.248 269.766C174.502 274.208 174.854 278.508 175.629 283.303C175.911 285.136 176.404 287.251 177.391 288.943C177.25 288.872 177.109 288.731 176.968 288.661C174.643 282.034 168.302 275.617 161.679 273.573ZM151.393 250.8C148.363 260.6 133.216 258.979 124.621 257.568C124.197 257.427 123.775 257.357 123.422 257.216C123.493 256.722 123.563 256.229 123.634 255.735C123.704 255.806 123.775 255.876 123.915 255.947C127.156 257.075 132.722 255.1 132.018 250.941C131.736 249.319 130.468 247.98 128.988 247.274C127.367 246.569 125.677 246.71 124.056 247.063C124.056 246.287 123.986 245.583 123.915 244.806C129.129 243.256 134.695 240.999 140.12 240.999C145.545 241.07 153.507 243.82 151.393 250.8ZM123.704 254.677C123.915 253.127 123.986 251.505 124.056 249.883C124.056 249.389 124.056 248.896 124.056 248.332C126.452 248.191 129.481 248.332 130.187 250.8C131.243 254.607 125.888 254.043 123.845 254.607C123.845 254.677 123.775 254.677 123.704 254.677ZM149.984 241.775C148.434 240.718 146.602 239.941 144.7 239.518C142.586 239.025 140.543 238.955 138.43 239.096C139.275 238.602 140.05 238.038 140.754 237.333C143.502 234.794 145.404 231.27 145.545 227.533C148.645 230.706 153.436 231.904 158.298 230.706C162.806 229.507 166.47 226.616 169.852 223.514C173.234 220.412 176.546 217.169 179.927 213.925C176.968 218.437 175.841 224.501 172.952 229.013C167.949 236.769 159.565 240.929 150.548 241.563C150.336 241.634 150.125 241.704 149.984 241.775ZM151.041 219.354C151.957 224.783 159.847 222.739 163.018 221.328C166.47 219.777 169.57 217.521 172.952 215.758C174.432 214.983 175.911 214.278 177.391 213.643C175.559 215.406 173.727 217.169 171.895 218.931C168.936 221.751 165.977 224.783 162.454 226.898C159.002 228.943 154.563 230.142 150.618 228.731C146.673 227.322 144.277 223.302 144.207 219.213C144.066 210.47 152.732 206.875 160.058 206.028C166.752 205.253 173.445 205.887 179.646 208.285C174.221 207.65 168.514 208.003 163.582 209.272C159.565 210.259 150.125 213.784 151.041 219.354ZM169.711 215.335C167.456 216.674 165.272 218.156 162.878 219.283C161.045 220.2 155.691 222.598 153.859 220.412C152.873 219.283 153.154 217.239 154.07 216.252C154.633 215.688 155.268 215.124 155.902 214.701C156.888 213.995 157.946 213.361 159.002 212.797C161.398 211.599 164.004 210.823 166.682 210.329C171.473 209.484 176.122 209.977 180.843 210.118C177.039 211.528 173.304 213.29 169.711 215.335ZM156.959 204.548C149.35 205.817 141.741 211.246 142.304 219.777C138.852 216.816 133.286 216.674 128.073 217.944C130.398 216.181 132.652 214.278 134.202 211.81C136.738 207.721 136.386 202.433 133.498 198.696C141.882 193.69 151.745 191.646 161.327 194.184C166.259 195.452 170.838 197.85 174.714 201.163C176.898 202.997 178.729 205.253 180.773 207.298C173.375 203.631 164.92 203.208 156.959 204.548ZM108.133 196.511C107.711 201.022 105.809 205.323 104.188 209.554C104.048 209.836 103.907 210.047 103.695 210.329C102.638 209.695 101.582 209.061 100.525 208.496C101.863 204.83 104.963 197.991 99.5381 196.016C94.4652 194.184 92.2114 200.67 91.8584 204.407C91.7879 205.394 93.4088 205.605 93.6201 204.619C93.9018 203.067 94.0426 201.376 94.7479 200.036C95.7339 198.132 98.1295 196.652 100.031 198.414C102.497 200.74 100.173 205.112 99.4677 207.932C95.3113 205.887 90.8723 204.619 86.222 204.407C87.2794 199.754 88.688 195.241 90.9427 191.011C93.127 186.922 96.086 182.691 100.948 183.96C101.511 184.172 102.075 184.383 102.638 184.595C107.147 186.64 108.557 191.857 108.133 196.511ZM64.1701 184.313C63.8883 186.358 64.0292 188.403 64.4519 190.446C63.6064 189.389 62.6906 188.403 61.6337 187.485C60.0133 186.076 58.0406 184.947 55.9973 184.242C58.3928 182.761 60.1542 180.435 60.5769 177.121C61.4929 170.494 58.0406 163.443 53.7428 158.578C49.0224 153.22 41.9769 149.342 34.7905 148.355C35.2837 148.284 35.7769 148.214 36.1996 148.143C41.5541 147.298 46.7679 146.733 52.1223 148.002C65.086 151.104 68.7496 163.937 70.2296 175.641C66.9883 177.332 64.7338 180.364 64.1701 184.313ZM30.3519 176.205C33.3815 181.563 38.5246 185.864 44.6542 186.499C41.1314 190.235 41.9065 196.299 44.161 201.939C42.9633 200.952 41.7655 200.106 40.4269 199.331C35.9178 196.722 29.5769 194.889 24.8564 197.991C17.4587 189.953 15.4155 179.377 19.2201 169.013C20.5587 165.418 23.8701 161.116 26.0542 156.745C26.2655 163.443 27.0405 170.353 30.3519 176.205ZM23.9405 213.15C25.2791 215.053 26.7587 216.745 28.4496 218.296C27.1814 217.733 25.9132 217.239 24.5746 216.887C19.0791 215.335 12.4564 216.322 9.56772 221.751C9.07462 215.829 3.57909 210.47 -1.56403 208.425C-8.25726 205.817 -15.7255 206.804 -22.4187 209.343C-18.1209 205.958 -14.8096 201.728 -9.45497 199.824C1.67679 195.946 11.8223 201.022 20.9814 206.875C21.1223 206.945 21.1928 206.945 21.3337 207.016C21.7564 209.202 22.7428 211.387 23.9405 213.15ZM-7.48225 233.667C-1.77542 234.935 4.98816 233.032 8.08821 227.956C8.51089 233.173 13.7246 236.91 19.4315 239.448C11.1178 238.884 2.87457 240.788 0.76091 249.108C-9.94817 249.037 -19.9528 243.044 -23.6164 232.68C-24.7437 229.507 -24.7437 225.418 -25.2368 221.469C-20.6573 227.109 -14.3163 232.186 -7.48225 233.667ZM1.04274 257.145C1.18369 257.145 1.25412 257.145 1.39497 257.145C3.22682 260.247 6.89043 261.94 10.9064 262.644C13.02 262.997 15.1337 263.138 17.3178 262.997C16.261 263.632 15.2041 264.337 14.2177 265.112C10.8359 267.791 6.89053 271.881 6.46776 276.464C2.73363 271.952 -3.81866 271.247 -9.45497 273.432C-16.3596 276.111 -22.2778 281.399 -26.5755 287.463C-26.505 287.251 -26.4346 287.04 -26.4346 286.828C-24.955 281.541 -23.7573 276.111 -21.9959 270.893C-18.6846 260.953 -9.24367 255.594 1.04274 257.145ZM-21.855 289.578C-19.6005 288.379 -17.205 287.392 -14.88 286.405C-12.555 285.418 -10.1596 284.431 -7.90503 283.232C-5.57999 282.034 -2.55045 279.496 0.267715 280.271C4.00185 281.258 2.17 285.066 -0.0140991 286.405C-1.2823 287.181 -2.83226 287.604 -4.24133 288.097C-6.98906 288.943 -9.80731 289.79 -12.555 290.424C-18.0505 291.763 -23.5459 292.821 -29.0414 294.019C-28.971 293.878 -28.83 293.808 -28.7596 293.667C-28.6187 293.667 -28.4073 293.667 -28.2664 293.596C-26.0823 292.328 -24.1096 290.776 -21.855 289.578ZM-17.0641 304.243C-13.0482 307.063 -8.39822 308.896 -3.53683 309.601C5.19954 310.871 15.1337 308.191 21.1928 301.493C21.686 302.551 22.4609 303.467 23.5177 304.384C23.3064 304.384 23.0951 304.454 22.8837 304.666C22.6723 304.877 22.461 305.16 22.1792 305.371C13.3723 310.094 3.93141 312.986 -6.21404 312.21C-15.5845 311.505 -25.73 307.345 -30.2391 298.673C-30.6618 297.898 -30.9437 297.193 -31.296 296.417C-31.155 296.487 -31.0846 296.487 -30.9437 296.487C-24.955 295.782 -21.4323 301.141 -17.0641 304.243ZM20.0655 355.148C20.6292 355.853 21.2632 356.558 21.9678 357.193C18.3041 358.462 14.4996 359.379 10.6951 360.013C10.6951 359.943 10.695 359.872 10.6246 359.802C7.38362 351.764 6.46776 343.585 8.29961 335.054C9.21548 330.612 10.836 326.382 12.8087 322.292C9.99049 333.432 12.245 345.7 20.0655 355.148ZM9.28592 360.225C3.79047 360.929 -1.77542 360.859 -7.05957 359.661C-5.86179 350.142 -2.69139 341.188 2.09956 332.868C5.97455 326.1 10.7655 320.106 15.9087 314.255C15.5564 314.959 15.2041 315.665 14.9223 316.37C6.6087 329.061 2.24043 346.193 9.28592 360.225ZM-8.32771 359.307C-13.4709 357.898 -18.3323 355.43 -22.5596 351.552C-28.6187 345.982 -31.7187 338.508 -32.4232 330.682C-23.405 331.74 -14.1755 328.991 -6.14362 325.042C-1.84595 322.997 2.17 320.53 6.18594 317.992C8.22908 316.652 10.3427 315.313 12.386 313.973C12.9496 313.62 13.8655 312.845 14.9223 312.069C8.58142 317.145 2.45181 322.363 -3.60727 327.792C-7.3414 331.176 -11.005 334.56 -14.6686 338.015C-17.98 341.187 -21.9255 344.29 -24.6732 348.027C-25.0255 348.52 -24.3209 349.296 -23.7573 348.943C-20.0232 346.193 -16.8527 342.387 -13.4709 339.144C-9.80731 335.688 -6.1436 332.234 -2.40958 328.85C4.21324 322.786 11.0473 316.863 17.811 311.012C17.811 311.012 17.811 311.082 17.7405 311.082C4.14279 323.491 -6.355 341.117 -8.32771 359.307ZM-20.9391 319.402C-16.9232 320.036 -12.8369 319.965 -8.82091 319.402C-4.10046 318.767 0.54953 317.427 5.1291 315.877C6.53819 315.383 8.01778 314.889 9.49728 314.396C5.76317 316.722 2.09956 319.049 -1.77542 321.165C-11.3572 326.452 -21.4323 329.836 -32.4937 329.202C-32.5641 329.202 -32.5641 329.202 -32.6346 329.202C-32.8459 324.619 -32.2119 319.895 -30.8732 315.454C-28.9709 318.203 -24.0391 318.979 -20.9391 319.402ZM-30.5914 314.537C-29.6755 311.646 -28.4073 308.826 -26.8573 306.217C-26.7868 306.288 -26.7868 306.288 -26.7164 306.358C-20.5869 311.716 -12.2732 314.114 -4.24133 314.396C1.88818 314.607 8.15865 313.62 14.0064 311.364C12.7382 312.633 10.5541 312.986 8.93365 313.479C7.03139 314.114 5.19954 314.678 3.29726 315.171C-0.295914 316.229 -3.95952 317.145 -7.69363 317.639C-15.2323 318.767 -23.3346 318.415 -30.0278 314.466C-30.1687 314.396 -30.4505 314.396 -30.5914 314.537ZM23.7291 356.064C17.5996 349.931 13.9359 341.47 13.5837 332.797C13.161 322.786 17.2473 313.056 24.3633 306.076C24.6451 305.794 24.7155 305.512 24.6451 305.23L24.7155 305.16L24.7859 305.23C25.6314 305.724 26.4769 306.147 27.3928 306.358C24.0814 308.473 21.545 312.633 20.0655 316.018C18.2337 320.177 17.5292 324.83 18.0223 329.343C19.4314 340.976 31.5496 348.873 30.4223 360.929C28.0973 359.731 25.7724 358.109 23.7291 356.064ZM31.5496 328.709C34.0155 321.728 42.9633 318.415 49.1633 322.856C56.0679 327.792 54.6588 336.041 50.4315 342.246C46.5565 348.027 41.4837 352.61 36.0587 356.911H35.9883C40.0746 352.398 43.8087 347.604 46.1337 341.893C47.7542 337.874 50.9247 328.144 45.5701 325.465C40.286 322.786 36.8337 332.938 35.4246 336.323C34.0155 339.848 32.8883 343.444 32.2542 347.181C32.0428 348.309 31.9019 349.508 31.8314 350.636C30.1405 343.797 29.1541 335.477 31.5496 328.709ZM33.0291 358.462C33.4519 356.417 33.4519 354.373 33.5928 352.328C33.8042 349.296 34.3678 346.334 35.1428 343.373C35.9178 340.624 36.8337 337.874 38.0315 335.265C38.5951 334.067 39.1587 332.868 39.7928 331.74C40.3564 330.753 41.4837 328.003 42.4701 327.58C43.5974 327.792 44.7246 327.932 45.8519 328.144L46.3451 329.414C46.5565 330.118 46.5565 330.895 46.5565 331.599C46.5565 333.22 46.3451 334.842 45.9928 336.394C45.3588 339.284 44.2314 342.105 42.8928 344.713C40.2156 349.719 36.6223 354.16 33.0291 358.462ZM32.9587 361.775C35.2132 357.404 42.8929 357.757 47.0497 356.558C52.1929 355.078 57.1247 352.751 61.3519 349.508C68.7496 343.868 74.386 334.772 73.9634 325.253C74.8086 325.535 75.7955 325.606 76.7815 325.606C76.7815 325.889 76.7815 326.171 76.852 326.452C76.2181 343.303 67.2702 358.673 50.0087 362.763C45.711 363.75 41.4837 363.961 37.5383 363.256C37.6087 362.129 35.9178 361.705 35.5656 362.833C34.6496 362.622 33.7337 362.34 32.8178 361.988C32.8178 361.916 32.8883 361.916 32.9587 361.775ZM89.3228 351.905C82.4178 344.925 79.1771 335.054 78.8249 325.394C79.318 325.253 79.7405 325.112 80.1631 324.901C81.3614 334.138 86.8568 342.387 94.3948 347.745C98.4112 350.636 103.061 352.68 107.852 353.949C112.361 355.078 118.35 354.937 121.731 358.532C111.023 362.692 98.059 360.718 89.3228 351.905ZM118.772 335.336C117.504 332.022 116.095 328.568 114.193 325.535C113.206 323.985 111.305 321.305 109.12 321.587C103.414 322.363 108.346 334.631 109.402 337.169C111.727 342.739 114.757 347.956 117.927 353.033C112.713 350.213 108.346 346.264 105.315 340.976C101.582 334.49 99.8902 323.773 107.781 319.472C116.73 314.537 122.155 325.324 123.634 332.445C125.043 339.214 124.408 345.841 122.789 352.398C122.366 346.617 120.816 340.835 118.772 335.336ZM121.731 355.642C118.843 351.058 115.954 346.476 113.488 341.682C112.079 339.003 110.811 336.182 109.825 333.361C109.261 331.74 106.584 322.504 110.74 324.196C112.713 324.971 114.264 329.484 115.109 331.317C116.377 334.067 117.504 336.887 118.42 339.848C120.111 344.925 121.097 350.213 121.731 355.642ZM133.357 342.668C135.752 338.508 137.091 333.785 137.232 328.991C137.584 319.965 134.202 310.871 127.368 304.948C128.143 304.595 128.847 304.031 129.481 303.397C131.877 305.583 133.92 307.98 135.682 310.589C135.612 310.659 135.612 310.8 135.752 310.941C135.893 311.082 136.034 311.223 136.175 311.364C143.361 322.715 143.925 337.381 135.118 348.732C132.018 352.751 128.002 355.782 123.563 357.827C126.17 352.328 130.327 347.886 133.357 342.668ZM184.718 316.159C180.843 316.652 177.039 317.427 173.093 317.498C168.725 317.498 164.427 317.004 160.2 316.088C154.281 314.748 148.645 312.633 143.22 310.024C152.168 312.351 161.75 311.505 169.782 306.851C178.377 307.345 185.493 313.55 188.241 321.587C189.579 325.465 189.65 329.554 188.875 333.432C188.804 333.361 188.664 333.361 188.523 333.361C177.884 332.938 168.443 327.51 159.495 322.151C153.084 318.344 146.884 314.255 140.824 310.024C146.884 313.55 153.507 316.159 160.271 317.709C168.02 319.472 177.25 320.247 184.93 317.639C185.564 317.357 185.564 316.018 184.718 316.159ZM160.058 324.196C168.796 329.414 178.095 334.49 188.452 334.913C187.466 338.791 185.564 342.527 183.239 345.771C181.477 348.238 179.364 350.424 176.968 352.398C176.968 352.258 176.898 352.046 176.757 351.905C169.57 344.502 162.524 336.958 155.55 329.343C149.209 322.363 143.15 315.03 136.668 308.191C144.137 314.043 151.957 319.402 160.058 324.196ZM158.439 347.745C157.523 342.739 155.973 337.944 153.859 333.291C152.309 329.836 150.407 326.452 148.222 323.35C150.195 325.535 152.239 327.792 154.211 329.977C161.257 337.803 168.443 345.489 175.7 353.033C175.77 353.174 175.911 353.174 176.052 353.244C171.543 356.841 166.259 359.379 160.623 360.507C159.777 360.647 159.002 360.788 158.157 360.859C159.706 356.77 159.143 351.905 158.439 347.745ZM146.673 334.419C145.968 328.709 144.841 322.363 141.811 317.286C145.897 322.01 149.35 327.157 152.027 332.797C153.929 336.887 155.409 341.259 156.395 345.63C157.593 350.988 157.381 355.571 156.747 361C153.436 361.211 150.055 360.929 146.884 359.943C145.193 359.449 143.713 358.744 142.304 357.968C142.445 357.898 142.516 357.898 142.656 357.757C148.715 351.552 147.659 342.246 146.673 334.419ZM130.82 301.704C131.595 300.436 131.947 299.025 131.947 297.616C138.711 302.692 147.166 305.16 155.62 304.102C159.847 303.538 164.004 302.198 167.668 300.154C171.473 297.968 175.629 292.61 180.28 292.469C170.768 311.082 146.743 313.691 130.82 301.704ZM177.602 283.796C177.109 281.399 177.039 278.931 176.616 276.535C175.77 271.881 173.375 267.721 170.979 263.703C167.245 257.568 161.468 249.953 153.507 250.659C153.577 250.376 153.577 250.094 153.647 249.812C153.788 248.967 153.718 248.191 153.647 247.486C164.357 247.486 173.375 255.1 178.729 263.844C183.802 272.163 184.93 281.893 181.125 290.776C179.364 288.591 178.166 286.616 177.602 283.796ZM195.004 255.876C193.243 254.818 191.411 253.902 189.579 252.985C189.931 253.056 190.355 253.127 190.707 253.197C195.709 254.184 200.711 255.241 205.713 256.299C210.152 257.286 214.732 258.626 219.241 259.26C217.973 265.535 215.014 271.458 210.293 275.899C209.659 276.464 209.025 277.028 208.391 277.521C209.307 268.355 202.402 260.318 195.004 255.876ZM205.009 254.536C200.007 253.479 195.004 252.492 189.931 251.505C187.748 251.082 185.564 250.659 183.45 250.235C185.705 250.235 187.959 250.094 190.143 249.953C199.866 249.249 209.589 246.851 218.395 242.55C218.607 242.48 218.677 242.339 218.748 242.198C219.593 245.583 220.015 249.037 220.015 252.421C220.015 254.184 219.804 255.947 219.593 257.709C214.873 256.229 209.8 255.523 205.009 254.536ZM217.621 241.281C208.672 245.088 199.373 247.627 189.65 248.332C185.141 248.614 180.702 248.544 176.193 248.191C173.022 247.908 169.922 247.274 166.752 246.71C173.868 246.71 181.054 244.806 187.395 241.845C195.075 238.25 203.388 232.327 207.686 224.783C209.095 225.841 210.364 227.109 211.561 228.449C214.873 232.186 217.197 236.769 218.536 241.563C218.325 241.211 217.973 241.14 217.621 241.281ZM166.893 248.614C169.782 249.178 172.741 249.671 175.629 250.235C176.334 250.376 176.968 250.518 177.673 250.659C192.116 254.254 206.841 262.081 206.982 278.085C206.982 278.297 207.052 278.438 207.123 278.508C203.388 281.117 199.232 282.527 194.934 283.091C195.85 275.547 191.27 266.946 186.62 261.587C181.266 255.453 174.009 251.434 166.4 248.826C166.189 248.755 166.048 248.614 165.837 248.544C166.189 248.544 166.541 248.614 166.893 248.614ZM177.461 258.415C175.7 256.229 173.727 254.113 171.473 252.28C176.263 254.677 180.773 257.779 184.436 261.728C187.396 264.83 189.72 268.567 191.2 272.515C192.538 276.111 192.679 279.566 192.962 283.232C190.637 283.373 188.311 283.303 185.916 282.95C185.705 282.95 185.493 282.95 185.352 283.021C185.423 282.668 185.423 282.386 185.493 282.034C186.268 273.432 182.745 265.112 177.461 258.415ZM200.077 220.553C202.473 221.328 204.657 222.527 206.7 223.937C204.023 226.968 201.627 230.001 198.528 232.61C195.145 235.5 191.411 237.897 187.395 239.871C181.406 242.762 175.207 244.313 168.725 245.018C179.011 240.718 187.043 231.129 188.311 219.637C192.327 219.354 196.062 219.213 200.077 220.553ZM186.268 218.578C185.986 218.79 185.986 219.213 186.198 219.496C185.493 225.841 182.745 232.045 177.884 236.698C171.332 243.044 162.595 245.653 153.577 245.3C153.366 245.3 153.225 245.371 153.084 245.442C152.732 244.665 152.239 243.961 151.674 243.326C159.143 243.115 166.541 239.307 171.543 233.808C174.291 230.776 176.122 227.251 177.532 223.443C179.223 218.79 180.772 213.784 184.93 210.823H185C185.282 210.893 185.564 210.823 185.775 210.682C186.268 213.22 186.479 215.899 186.268 218.578ZM174.291 198.555C170.063 195.311 165.131 193.055 159.918 191.998C150.407 190.024 140.331 191.998 132.511 197.709C132.44 197.638 132.299 197.497 132.229 197.427C131.384 196.652 130.468 196.088 129.552 195.664C131.102 194.818 132.652 193.972 134.272 193.267C134.413 193.408 134.625 193.479 134.836 193.267C135.258 192.985 135.612 192.703 136.034 192.421C148.786 186.922 163.371 185.37 175.347 194.184C177.532 195.805 179.434 197.638 180.913 199.754C180.773 200.106 180.843 200.599 181.406 200.74C181.477 200.74 181.618 200.811 181.688 200.811C183.379 203.349 184.577 206.099 185.352 208.989C181.477 205.676 178.377 201.658 174.291 198.555ZM145.545 167.815C147.729 160.2 148.011 151.95 144.559 144.689C148.997 142.855 153.929 142.362 158.861 142.926C159.636 152.797 157.029 162.315 151.745 170.705C149.068 174.935 145.897 178.602 142.445 182.057C139.486 184.524 136.527 186.992 133.709 189.601C133.709 189.53 133.779 189.53 133.779 189.46C139.557 184.101 143.361 175.288 145.545 167.815ZM137.232 182.902C141.318 172.962 140.966 161.469 134.625 152.233C137.02 149.13 139.979 146.875 143.22 145.323C146.602 152.797 145.968 161.116 143.643 168.802C142.516 172.608 140.895 176.346 139.064 179.8C138.5 180.858 137.865 181.845 137.232 182.902ZM160.13 143.137C166.611 144.195 172.811 147.086 177.532 151.598C177.532 151.598 177.461 151.598 177.461 151.668C169.289 158.155 161.82 165.629 153.929 172.467C152.45 173.737 150.97 175.006 149.491 176.205C157.029 166.686 161.679 155.265 160.13 143.137ZM161.045 180.505C153.154 181.281 145.827 184.595 139.204 188.896C137.443 189.601 135.752 190.376 134.132 191.223C141.671 185.37 149.491 180.576 158.65 177.685C163.3 176.205 168.09 175.217 172.952 174.794C177.532 174.371 183.661 173.526 187.607 176.275C187.748 176.346 187.889 176.416 188.03 176.346C188.03 180.435 187.113 184.454 185.071 187.838C178.729 181.845 169.57 179.589 161.045 180.505ZM184.225 189.107C182.816 191.152 180.913 192.914 178.518 194.325C173.093 189.53 165.977 186.428 158.227 185.794C154.14 185.441 149.984 185.794 145.968 186.71C158.509 180.929 172.811 179.166 184.225 189.107ZM176.193 173.032C170.697 173.244 165.272 174.16 159.988 175.641C155.198 176.98 150.477 178.884 145.968 181.281C148.856 178.814 151.745 176.275 154.633 173.808C162.665 166.968 171.191 160.2 178.518 152.586L178.588 152.515C183.872 158.014 187.607 166.616 187.959 174.865C185.775 172.045 179.152 172.891 176.193 173.032ZM132.581 153.008C132.581 153.079 132.581 153.079 132.581 153.079C132.44 153.502 132.793 153.784 133.216 153.784C136.386 158.578 138.218 164.289 138.006 170.424C137.795 179.448 133.639 188.049 127.086 194.184C126.945 194.325 126.874 194.466 126.804 194.607C125.466 194.325 124.056 194.325 122.648 194.466C128.847 186.217 134.554 176.064 133.568 165.418C133.146 161.187 131.806 157.097 129.129 153.784C126.1 150.047 120.604 148.002 119.689 142.926C124.902 144.971 129.34 148.496 132.581 153.008ZM119.759 147.861C122.436 155.265 124.338 163.302 121.802 170.987C119.407 178.179 111.939 184.736 104.118 182.902C103.695 182.691 103.273 182.479 102.779 182.268C102.215 182.057 101.581 181.845 101.018 181.775C97.8477 180.082 95.3817 176.91 95.1 173.314C94.6774 169.013 97.213 164.782 99.4677 161.328C103.695 154.912 109.332 149.906 115.884 146.028C112.643 152.515 107.781 158.085 104.752 164.782C103.132 168.449 98.6225 178.32 104.752 180.435C110.67 182.479 115.179 172.75 116.73 168.59C119.266 162.033 119.83 154.842 119.759 147.861ZM116.518 163.584C115.743 166.686 114.616 169.647 112.995 172.467C111.727 174.653 105.598 182.902 103.766 176.487C102.991 173.808 104.611 170.353 105.527 167.885C106.795 164.641 108.487 161.61 110.388 158.649C113.206 154.277 116.377 150.118 118.42 145.323C118.138 151.457 118.068 157.521 116.518 163.584ZM102.638 146.099C97.8477 146.239 93.1974 146.945 89.1106 149.695C81.2205 155.124 78.0493 165.065 78.6841 174.371C77.6971 174.089 76.5703 174.019 75.3016 174.16C76.7816 166.193 78.825 156.815 83.9683 150.541C86.8568 147.016 91.0132 145.323 95.2409 143.913C99.6085 142.503 104.188 141.374 108.839 141.163C110.811 141.093 112.713 141.234 114.545 141.515C114.475 141.939 114.898 142.433 115.391 142.08C115.531 141.939 115.672 141.869 115.813 141.728C116.236 141.798 116.73 141.939 117.152 142.08C113.277 145.887 107.711 145.958 102.638 146.099ZM65.9315 147.791C72.2721 155.053 74.8085 164.995 73.1182 174.371C73.1182 174.442 73.1182 174.442 73.1182 174.512C72.4834 174.653 71.8495 174.865 71.2157 175.147C71.7087 164.853 67.2701 152.515 57.5474 147.932C53.1792 145.887 48.2474 145.182 43.5269 145.394C38.3837 145.605 30.9156 148.778 26.8292 144.689C26.7587 144.618 26.6178 144.548 26.5474 144.477C37.9609 135.17 55.9974 136.439 65.9315 147.791ZM-23.6164 197.709C-17.1346 193.69 -9.38454 192.068 -1.84595 192.632C6.74957 193.267 14.9928 196.863 21.2632 202.856C21.3336 202.926 21.3336 202.926 21.4042 202.997C21.2632 203.631 21.1928 204.337 21.1928 205.042C13.8655 199.26 3.93141 195.734 -5.36859 197.074C-10.1596 197.779 -14.3868 199.824 -17.98 202.997C-21.9255 206.452 -25.5891 210.682 -30.8732 211.457C-31.2255 211.246 -31.6482 211.105 -32.071 210.964C-32.6346 210.752 -32.9869 211.105 -33.1278 211.598C-31.9301 205.958 -28.9005 201.022 -23.6164 197.709ZM-32.5641 212.656C-32.2823 212.797 -32.0005 212.868 -31.7187 213.009C-31.7187 213.22 -31.5778 213.361 -31.296 213.361C-31.2255 213.361 -31.155 213.361 -31.0846 213.361C-31.0141 213.431 -30.8732 213.502 -30.8028 213.572C-30.9437 213.925 -30.8732 214.419 -30.4505 214.701C-29.9573 215.053 -29.4641 215.335 -28.9005 215.617C-28.7596 215.829 -28.6187 216.04 -28.5482 216.322C-28.6891 216.604 -28.6891 216.887 -28.5482 217.169C-28.3369 217.521 -28.055 217.874 -27.8437 218.226C-26.9277 221.399 -27.0687 225.136 -26.6459 228.097C-26.0823 232.469 -24.3209 236.628 -21.7141 240.154C-16.5005 247.133 -8.11632 250.87 0.479111 250.024C0.408676 250.589 0.267715 251.082 0.267715 251.646C0.267715 251.716 0.267715 251.787 0.267715 251.857C-0.295914 251.857 -0.859543 251.857 -1.35274 251.857C-1.9868 251.787 -2.62086 251.787 -3.25502 251.716C-19.53 250.376 -32.3528 237.403 -33.7619 220.764C-33.9732 217.944 -33.9028 215.124 -33.4096 212.445C-33.1278 212.586 -32.846 212.656 -32.5641 212.656ZM-48.346 255.382C-43.8368 255.312 -39.2574 255.171 -34.7482 255.03C-31.4368 254.889 -28.055 254.818 -24.7437 254.607C-29.1823 255.453 -33.48 256.793 -37.4959 258.415C-44.0482 261.164 -51.3051 266.028 -54.6869 272.515C-58.2801 267.509 -60.6755 261.517 -61.7324 255.382C-57.2938 255.806 -52.7846 255.453 -48.346 255.382ZM-61.9437 254.043C-62.0846 253.268 -62.155 252.492 -62.2256 251.716C-62.7892 245.442 -61.9438 238.814 -59.0551 233.103C-57.2232 236.487 -53.8414 239.378 -50.8823 241.563C-47.2892 244.313 -43.2028 246.428 -38.9756 248.05C-32.071 250.73 -24.6028 252.069 -17.1346 252.703C-22.9823 252.914 -28.9005 253.197 -34.7482 253.409C-39.2574 253.55 -43.8368 253.691 -48.346 253.761C-52.855 253.902 -57.4346 253.62 -61.9437 254.043ZM-46.7255 265.817C-43.555 263.138 -39.8914 261.023 -36.0869 259.472C-29.8164 256.934 -23.405 255.806 -16.7823 254.959C-17.0641 255.1 -17.3459 255.312 -17.6277 255.453C-23.6868 256.229 -29.5346 261.869 -33.621 266.029C-37.8483 270.33 -42.6391 276.676 -42.7801 283.021C-46.796 280.764 -50.3891 277.874 -53.3482 274.208C-53.4892 273.996 -53.6301 273.784 -53.8414 273.573C-51.5165 270.893 -49.4732 268.144 -46.7255 265.817ZM-37.2846 247.133C-41.4415 245.653 -45.3869 243.608 -49.0505 241.07C-52.855 238.391 -55.2505 235.077 -58.3506 231.763C-57.7869 230.776 -57.1528 229.789 -56.4483 228.872C-53.8414 225.488 -50.4596 222.809 -46.5846 221.258C-41.6528 235.571 -29.2528 246.922 -14.8096 251.011C-13.8937 251.434 -12.9073 251.787 -11.9209 252.069C-20.5164 251.082 -29.0414 250.165 -37.2846 247.133ZM-26.9982 242.127C-25.1664 244.243 -23.1232 246.076 -20.7982 247.627C-31.9301 242.127 -40.6664 232.61 -45.3165 220.764C-42.3573 219.707 -39.1164 219.354 -35.8755 219.707C-35.4528 227.815 -32.2118 236.064 -26.9982 242.127ZM-34.6074 282.034C-34.8186 283.514 -34.8892 284.995 -34.8892 286.475C-37.3551 285.629 -39.68 284.643 -41.9347 283.444C-41.8641 283.373 -41.7233 283.303 -41.6528 283.162C-40.5255 280.13 -39.821 277.169 -38.13 274.349C-36.5801 271.67 -34.6778 269.272 -32.5641 267.016C-29.1823 263.491 -25.4482 260.177 -21.1505 257.85C-28.4778 263.491 -33.4096 272.445 -34.6074 282.034ZM-27.2096 267.157C-21.4323 258.132 -10.9346 252.492 -0.154968 254.184C0.056427 254.184 0.197281 254.184 0.408676 254.114C0.479095 254.536 0.549545 254.959 0.690491 255.312C-7.13 253.62 -15.7959 257.427 -20.4459 263.773C-23.5459 268.003 -24.6028 273.361 -25.9414 278.367C-26.7868 281.399 -27.5618 284.431 -28.4073 287.392C-29.1118 290.072 -29.605 292.821 -31.7187 294.725C-32.071 293.526 -32.3528 292.328 -32.4937 291.129C-32.4937 291.058 -32.4937 291.058 -32.4937 290.988C-33.8323 282.88 -31.4368 273.784 -27.2096 267.157ZM132.793 391.106C133.498 402.528 131.525 413.95 127.791 424.737C124.408 434.396 119.548 443.562 113.418 451.741C107.57 459.496 100.384 465.983 93.4792 472.751C87.2794 478.886 81.4318 485.372 77.5563 493.198C76.0772 486.147 71.4974 480.295 66.3542 475.289C59.3792 468.592 52.3337 462.457 46.8383 454.42C36.0587 438.627 30.6337 419.731 29.6473 400.694C29.0133 388.427 30.1405 376.088 32.3951 364.031C33.2405 364.313 34.086 364.596 34.9314 364.878C33.5928 370.448 33.3815 376.511 36.1292 381.658C38.4541 386.03 42.7519 389.132 47.6133 389.555C45.5701 395.619 47.6837 402.669 53.2496 406.124C56.4201 408.097 62.4792 408.733 67.4815 410.354C56.0679 418.321 58.6746 435.736 70.5114 442.081C77.0633 445.537 85.6586 445.537 92.0706 441.729C97.6364 438.415 100.384 431.858 99.6085 425.513C98.8338 419.027 94.1835 412.54 88.1246 409.79C92.3523 407.675 97.213 407.252 101.3 404.925C107.147 401.541 109.966 394.067 107.5 387.792C114.123 389.696 121.52 385.536 122.789 378.697C123.915 372.563 121.168 365.724 116.095 362.199C118.49 361.775 120.816 361.07 123.07 360.154C124.197 362.129 125.325 364.172 126.452 366.147C130.045 374.114 132.299 382.504 132.793 391.106ZM205.643 308.332C212.759 314.537 218.888 321.869 223.68 330.048C234.6 348.802 236.996 370.8 239.462 391.952C240.518 401.33 241.222 411.412 246.154 419.661C238.334 416.77 230.02 415.924 221.707 415.501C211.984 415.007 202.332 414.584 192.749 412.681C174.854 409.085 157.453 401.33 144.629 388.075C136.527 379.684 130.68 369.531 125.114 359.449C126.1 358.955 127.015 358.462 127.932 357.898C130.116 370.025 143.643 376.37 154.352 369.955C157.099 375.242 163.3 377.075 169.007 376.088C172.952 375.383 177.25 372.775 181.547 370.871C181.477 378.133 183.309 385.959 189.086 390.824C194.793 395.689 202.473 395.336 208.813 391.811C220.932 385.042 224.525 367.487 213.604 357.757C208.672 353.385 201.275 351.694 195.075 354.02C197.118 350.354 199.866 347.111 201.487 343.162C203.599 338.015 202.966 330.753 197.611 328.144C201.275 321.376 200.57 312.562 195.356 306.781C190.707 301.564 183.168 299.66 176.546 301.493C178.8 299.166 180.773 296.417 182.253 293.526C190.496 297.757 198.528 302.127 205.643 308.332ZM247.987 200.529C266.375 206.663 279.831 221.469 293.641 234.372C300.898 241.14 308.437 247.556 317.032 252.492C308.859 258.202 300.616 263.984 292.443 269.695C283.989 275.617 275.605 281.963 266.587 286.969C250.523 295.923 231.852 299.942 213.604 298.673C203.106 297.968 192.749 295.571 183.098 291.481C183.379 290.776 183.732 290.001 183.943 289.295C189.297 294.513 197.4 297.263 204.586 294.725C210.716 292.539 215.648 287.322 217.056 280.976C223.398 283.162 230.865 280.553 233.966 274.349C235.938 270.259 235.938 265.676 236.502 261.305C236.572 260.67 236.714 259.965 236.855 259.19C240.941 263.562 246.084 267.298 252.143 267.932C258.907 268.638 265.389 264.76 269.122 259.26C272.646 254.043 273.702 247.133 271.166 241.281C268.77 235.712 263.204 231.481 257.145 230.988C253.271 230.706 249.607 232.045 246.225 233.808C242.421 235.782 238.545 238.32 235.375 241.281C234.952 240.788 234.6 240.295 234.248 239.73C231.571 235.43 231.993 230.424 230.654 225.7C228.753 218.86 221.214 215.406 215.436 219.425C211.35 208.285 197.611 204.548 188.311 211.951C188.1 210.47 187.748 209.061 187.324 207.65C205.713 198.202 227.766 193.761 247.987 200.529ZM162.806 94.8407C181.195 83.5602 203.247 82.8551 224.102 80.5284C234.459 79.4004 244.816 77.7788 254.75 74.3945C245.38 87.72 242.843 104.289 239.673 120.011C235.657 139.753 229.034 158.931 218.889 176.487C213.816 185.229 207.686 193.62 199.936 200.247C195.427 201.939 190.989 203.984 186.761 206.381C186.127 204.619 185.282 202.856 184.295 201.234C189.227 201.446 194.018 198.625 196.555 194.325C199.936 188.544 198.95 181.493 196.062 175.711C202.12 173.737 204.234 166.193 202.895 160.341C201.909 155.899 198.95 151.316 196.766 146.662C203.177 148.496 210.152 145.958 214.309 140.67C219.17 134.466 220.157 125.863 217.762 118.531C215.436 111.34 210.152 105.064 203.177 102.032C195.568 98.7895 186.338 99.4943 180.28 105.417C173.798 111.692 173.798 122.761 177.32 130.658C173.234 129.742 169.148 128.542 165.202 128.19C158.72 127.556 151.604 129.601 148.363 135.523C144.77 132.703 139.909 131.998 135.54 133.548C130.82 135.241 127.58 139.119 125.536 143.49C124.621 142.926 123.634 142.362 122.648 141.869C122.859 141.798 123.07 141.657 123.211 141.445C133.427 123.819 145.052 105.699 162.806 94.8407ZM29.2951 77.6377C32.8883 67.2734 37.8201 57.4026 43.2451 47.8843C48.3883 38.8597 54.4474 31.0335 62.0565 23.9829C68.3975 18.131 75.0903 12.2085 78.1197 4.02983C81.3614 10.6574 86.3629 16.1568 91.5766 21.4447C97.9886 27.8607 104.4 34.2768 110.177 41.2568C122.507 56.345 131.806 73.9714 133.568 93.6425C134.554 104.359 133.427 115.287 130.539 125.652C127.368 130.446 124.408 135.382 121.52 140.388C121.309 140.74 121.309 141.093 121.449 141.304C120.182 140.74 118.843 140.317 117.504 139.965C120.534 136.157 121.309 130.728 119.9 126.004C118.138 120.011 113.418 115.499 107.993 112.749C110.247 104.782 105.034 97.1675 98.1295 93.3606C95.9452 92.1619 93.6201 91.3158 91.2949 90.5403C93.1975 88.8481 94.6774 86.028 95.6635 84.1242C97.2834 81.163 98.1999 77.8493 98.059 74.465C97.7773 68.1194 94.3948 61.9855 89.1106 58.4602C77.6971 50.9866 61.2815 58.8833 59.0974 72.0678C57.9701 78.9068 60.2247 86.6625 65.4383 91.3863C61.2111 92.9377 56.3497 93.854 53.3906 95.8284C48.2474 99.2123 45.3588 105.205 45.6406 111.34C34.2269 114.301 28.5905 127.344 34.7201 137.638C34.7201 137.709 34.7905 137.709 34.7905 137.709C34.2269 137.92 33.7337 138.061 33.1701 138.272C21.1928 120.223 22.461 97.3789 29.2951 77.6377ZM-56.5187 184.947C-63.9165 177.051 -70.8914 168.52 -77.021 159.565C-82.9392 150.964 -86.2506 141.515 -87.9415 131.222C-89.562 121.563 -89.9846 111.763 -91.3233 102.032C-92.5915 92.7259 -94.7052 83.4897 -99.1438 75.311C-84.2074 82.9962 -66.8756 82.6436 -50.4597 83.7718C-40.3141 84.4768 -30.1687 85.8869 -20.8687 90.1878C-12.555 93.9949 -4.66409 99.1419 2.87459 104.289C10.695 109.577 18.3746 115.782 24.2223 123.255C25.7018 128.825 28.0269 134.184 31.1974 139.119C30.2814 139.542 29.4359 139.965 28.5905 140.529C25.3496 130.517 13.5837 126.358 4.63591 131.857C1.32455 124.876 -6.84819 121.774 -14.1051 124.877C-18.1914 126.639 -21.5027 129.601 -25.2368 131.857C-25.8709 132.209 -26.505 132.562 -27.1391 132.914C-25.3073 126.921 -26.8573 120.293 -31.296 115.64C-36.5801 110.141 -45.0346 108.238 -52.221 110.635C-66.3824 115.358 -76.246 137.779 -63.2824 148.778C-57.9982 153.22 -48.9096 155.969 -42.0051 153.502C-43.0619 156.251 -44.33 158.931 -44.9641 161.751C-46.1619 166.757 -45.0346 172.608 -40.2437 174.935C-45.3164 184.877 -40.455 196.863 -29.8164 200.317C-30.9437 201.658 -31.93 203.067 -32.705 204.548C-41.6527 199.401 -49.4733 192.562 -56.5187 184.947ZM-145.432 239.8C-137.753 234.231 -130.989 227.533 -123.098 222.245C-114.996 216.887 -106.048 213.15 -96.9597 209.836C-87.8005 206.523 -78.3597 202.644 -68.7074 201.446C-56.8005 199.895 -45.1755 203.631 -33.9028 207.157C-34.4664 208.637 -34.9596 210.118 -35.2414 211.669C-44.1187 205.817 -55.6733 210.188 -59.196 219.777C-64.6915 216.674 -71.4551 220.835 -74.1323 226.123C-76.1051 229.93 -77.021 236.135 -79.0642 241.14C-82.5165 234.935 -90.9006 231.481 -97.5937 230.847C-104.921 230.142 -111.826 234.09 -115.419 240.506C-122.323 252.844 -115.419 272.586 -100.201 274.278C-91.6051 275.265 -84.4188 269.202 -78.9937 263.138C-78.1483 266.946 -77.4438 270.823 -76.1051 273.291C-73.0051 279.002 -66.4528 281.893 -60.2529 280.976C-59.5483 286.899 -55.9551 292.328 -50.3891 294.725C-45.1755 297.051 -38.7642 296.346 -34.255 292.892C-33.9732 294.231 -33.621 295.641 -33.1278 296.91C-34.4664 297.545 -35.8755 298.18 -37.2141 298.814C-56.2369 304.102 -75.8232 303.045 -94.1415 295.077C-102.878 291.27 -111.051 286.334 -118.66 280.623C-126.833 274.49 -133.948 267.157 -141.628 260.459C-147.898 255.03 -155.155 250.306 -163.258 248.967C-156.987 246.781 -150.928 243.749 -145.432 239.8Z" fill="white"/>
</g>
</svg>
