<svg width="325" height="537" viewBox="0 0 325 537" fill="none" xmlns="http://www.w3.org/2000/svg">
<g opacity="0.3" clip-path="url(#clip0_746_1117)">
<path opacity="0.97" d="M293.95 296.304C294.558 295.77 295.09 295.16 295.47 294.397C296.305 293.253 297.141 292.109 297.824 290.964C303.597 281.505 305.269 269.986 303.066 259.305C302.99 257.475 302.458 255.644 301.623 254.042C300.027 249.388 297.597 245.04 294.406 241.302C282.784 227.418 263.186 222.23 246.323 228.867C229.155 235.657 218.141 252.669 219.053 271.206C219.205 273.647 219.508 276.088 220.116 278.453C220.116 278.758 220.116 279.064 220.116 279.369C220.192 281.123 220.876 282.725 221.863 284.022C227.18 297.983 239.638 309.578 254.83 310.875C255.058 310.875 255.286 310.799 255.362 310.57C258.628 311.028 261.895 311.104 265.085 310.875C265.313 310.875 265.541 310.875 265.769 310.799C276.555 309.654 286.81 304.543 293.95 296.304ZM296.381 289.21C296.229 287.76 295.698 286.387 295.014 285.167C296.457 285.09 297.824 284.709 299.04 283.87C298.28 285.777 297.445 287.531 296.381 289.21ZM299.572 280.132C298.432 282.497 296.077 283.641 293.647 283.488C293.039 282.954 292.355 282.497 291.596 282.268C292.203 280.284 292.051 278.224 291.368 276.317C294.406 275.631 296.913 273.495 297.976 270.596C301.319 272.427 301.091 277.08 299.572 280.132ZM278.15 277.156C281.493 277.69 284.987 276.241 286.734 273.418C289.773 275.554 290.988 279.903 289.089 283.183C287.19 286.463 283.088 287.455 279.594 286.54C280.961 283.412 280.581 279.369 278.15 277.156ZM277.391 286.921C277.315 286.997 277.239 287.074 277.163 287.226C275.796 288.905 273.821 289.744 271.694 289.133C270.326 288.752 266.984 287.15 266.68 285.395C269.491 284.48 271.998 282.802 273.897 280.437C274.656 279.445 275.34 278.377 275.948 277.233C277.315 280.132 279.518 282.878 277.999 285.929C277.315 285.701 276.783 286.463 277.391 286.921ZM240.853 291.88C240.853 291.956 240.778 291.956 240.853 291.88C237.815 293.558 233.789 292.948 231.966 289.896C230.599 287.531 230.979 284.556 232.498 282.42C234.625 283.336 237.055 283.336 239.182 282.268C239.866 283.183 240.702 283.87 241.689 284.404C240.018 286.54 239.714 289.515 240.853 291.88ZM281.721 249.846C281.645 249.77 281.645 249.693 281.569 249.693C285.443 245.345 291.444 250.609 292.279 255.262C293.039 259.611 290.608 263.349 286.962 265.332C285.443 262.662 282.404 260.907 279.138 260.755C282.404 258.314 283.999 253.05 281.721 249.846ZM277.163 262.586C278.834 262.967 280.581 262.891 282.252 263.578C284.683 264.569 286.126 266.705 286.05 269.375C285.899 274.41 280.885 276.394 276.631 275.554C278.226 271.435 278.454 266.782 277.163 262.586ZM276.403 260.45C276.251 260.145 276.1 259.763 275.948 259.458C274.049 255.873 271.01 253.355 267.44 252.058C270.554 249.77 274.504 247.176 278.378 249.388C278.834 249.617 279.214 249.922 279.518 250.304C279.594 250.38 279.67 250.456 279.746 250.533C282.1 253.66 280.05 259.153 276.403 260.45ZM272.377 277.69C269.491 274.792 266.452 271.893 263.49 269.07C263.718 269.07 263.87 269.07 264.098 269.07C267.592 271.054 270.934 273.418 274.428 275.173C273.897 276.317 273.289 277.385 272.605 278.301C272.605 278.072 272.529 277.843 272.377 277.69ZM243.892 270.138C243.892 270.443 243.968 270.825 244.044 271.206C243.284 270.901 242.449 271.282 241.689 271.816C240.474 271.969 239.334 271.969 238.119 271.206C236.144 270.062 235.156 267.697 235.764 265.485C236.6 262.433 239.942 258.848 243.284 259.153C243.588 259.305 243.968 259.382 244.348 259.382C244.576 259.458 244.879 259.611 245.107 259.763C243.512 262.891 243.588 266.782 243.892 270.138ZM244.5 257.932C243.436 256.941 242.373 256.254 241.993 254.728C241.385 252.516 242.525 250.304 244.424 249.083C247.766 247.023 251.26 248.702 253.463 251.372C253.539 251.829 253.691 252.287 253.919 252.669C250.956 253.889 247.994 255.796 246.019 258.314C245.943 258.466 245.791 258.543 245.715 258.695C245.335 258.39 244.955 258.085 244.5 257.932ZM263.718 266.934C263.566 266.934 263.414 266.934 263.262 266.934C263.262 266.934 263.262 266.858 263.186 266.858C266.3 264.035 269.643 261.136 272.074 257.856C272.757 258.619 273.289 259.458 273.745 260.373C270.478 262.586 267.06 264.646 263.718 266.934ZM274.428 261.594C275.112 263.272 275.568 265.027 275.72 266.858C275.644 266.858 275.568 266.782 275.416 266.782C272.301 266.782 269.187 266.858 266.073 266.858C268.959 265.332 271.77 263.501 274.428 261.594ZM264.325 262.967C265.617 260.297 266.984 257.627 268.503 254.957L268.503 254.881C269.491 255.415 270.402 256.101 271.162 256.788C268.731 258.543 266.452 260.679 264.325 262.967ZM261.743 264.34C261.591 260.602 261.439 256.941 261.211 253.203C262.502 253.203 263.87 253.279 265.161 253.584C265.845 253.737 266.452 253.965 267.06 254.194C265.237 257.475 263.414 260.907 261.743 264.34ZM266.149 250.838C265.921 251.067 265.845 251.372 265.921 251.601C262.73 250.761 259.236 250.838 255.894 251.906C255.742 251.982 255.666 251.982 255.514 252.058C255.438 250.304 255.134 248.702 255.742 246.947C256.425 244.964 257.945 243.438 259.996 242.98C265.085 241.836 266.149 246.795 266.149 250.838C266.149 250.761 266.149 250.838 266.149 250.838ZM259.768 272.503C259.844 276.241 259.996 279.903 260.224 283.641C258.628 283.412 257.109 282.802 255.514 281.81C257.033 278.759 258.401 275.631 259.768 272.503ZM259.236 262.891C258.856 261.823 258.552 260.679 258.173 259.611C257.565 257.78 257.033 255.796 256.274 254.042C257.565 253.66 258.856 253.355 260.148 253.279C259.92 256.941 259.768 260.602 259.692 264.264C259.54 263.654 259.312 263.12 259.236 262.891ZM257.793 262.281C258.021 262.891 258.173 263.654 258.476 264.417C255.818 261.899 253.159 259.458 250.576 256.864C251.26 256.407 251.944 255.949 252.627 255.567C253.463 255.11 254.299 254.728 255.134 254.347C255.818 257.093 256.881 259.687 257.793 262.281ZM256.046 264.646C252.931 263.425 249.513 262.662 246.399 262.128C246.551 261.518 246.778 260.907 247.158 260.373C247.766 259.305 248.677 258.39 249.741 257.627C251.716 259.916 253.843 262.357 256.046 264.646ZM246.171 263.044C250.121 264.112 253.843 265.714 257.641 266.934C253.767 266.934 249.817 266.934 245.943 266.934C245.943 265.714 245.943 264.34 246.171 263.044ZM255.362 268.841C252.324 269.833 249.209 271.282 246.551 272.656C246.171 271.282 246.019 269.757 245.943 268.231C249.057 268.536 252.172 268.689 255.362 268.841ZM253.615 270.977C254.906 270.52 256.274 270.214 257.565 269.757C257.565 269.757 257.565 269.757 257.565 269.833C254.83 272.579 252.096 275.402 249.285 278.072C248.07 276.699 247.234 275.173 246.702 273.495C249.057 272.656 251.336 271.816 253.615 270.977ZM258.476 271.359C257.033 274.715 255.742 278.072 254.678 281.505C254.678 281.581 254.678 281.581 254.678 281.657C254.602 281.657 254.526 281.734 254.526 281.734C252.931 280.971 251.412 280.132 250.045 278.759C253.007 276.546 255.742 273.952 258.476 271.359ZM251.108 283.641C251.412 283.488 251.64 283.259 251.944 283.031C253.083 283.641 254.299 284.099 255.59 284.251C258.097 285.701 260.907 286.235 263.642 285.929C262.806 289.286 259.844 292.109 256.198 291.269C254.526 290.888 253.159 289.744 252.248 288.371C251.868 287.76 250.88 285.09 251.108 283.641ZM262.123 283.793C262.047 280.284 262.047 276.851 261.971 273.342C263.186 276.699 264.705 280.132 266.452 282.954C265.085 283.488 263.642 283.793 262.123 283.793ZM261.895 270.977C261.971 270.977 262.047 270.901 262.047 270.825C265.009 273.724 268.124 276.394 271.314 278.911C271.466 279.064 271.694 279.064 271.846 279.064C270.554 280.589 269.035 281.734 267.288 282.573C266.149 278.682 264.098 274.563 261.895 270.977ZM266.376 269.07C268.959 269.07 271.466 268.994 274.049 268.918C274.2 268.994 274.352 268.994 274.504 268.994C274.884 268.918 275.34 268.918 275.72 268.841L275.796 268.841C275.72 270.367 275.492 271.893 275.036 273.418C274.96 273.647 274.884 273.952 274.732 274.181C272.301 272.045 269.339 270.443 266.376 269.07ZM267.668 249.541C267.82 247.405 267.668 245.269 266.452 243.514C266.073 242.98 265.617 242.522 265.161 242.141C265.921 238.556 272.225 238.022 274.732 239.318C278.074 240.997 278.606 243.972 278.682 247.329C275.264 245.803 270.934 247.252 267.668 249.541ZM268.2 237.64C266.073 238.403 264.25 239.7 264.174 241.607C262.958 240.997 261.515 240.768 260.148 240.997C259.616 241.073 259.16 241.226 258.628 241.378C257.641 239.7 255.97 238.403 254.147 237.869C255.514 235.733 257.489 234.131 259.996 233.597C261.287 233.368 262.654 233.444 263.946 233.826C264.477 233.978 268.655 236.725 268.503 236.877C268.275 237.106 268.2 237.335 268.2 237.64ZM257.033 242.294C254.982 243.743 253.615 246.184 253.311 248.702C251.488 246.871 248.981 245.879 246.475 246.184C246.171 243.59 247.462 240.768 250.045 239.776C252.703 238.708 255.514 240.005 257.033 242.294ZM245.107 246.489C244.272 246.795 243.436 247.176 242.601 247.863C242.145 248.244 241.765 248.625 241.461 249.007C241.385 248.931 241.309 248.854 241.233 248.854C239.41 247.557 237.663 247.252 235.992 247.634C235.612 244.887 236.524 241.76 238.954 240.234C241.613 238.479 243.892 239.471 246.626 240.158C245.107 241.912 244.576 244.277 245.107 246.489ZM240.322 250.38C240.398 250.38 240.474 250.456 240.55 250.456C239.942 251.677 239.79 253.126 240.018 254.499C240.246 255.491 240.702 256.635 241.385 257.551C237.663 258.161 234.245 262.128 233.789 265.866C233.789 265.942 233.789 266.019 233.789 266.095C230.675 263.806 229.079 260.45 230.143 256.559C231.358 252.058 235.612 248.091 240.322 250.38ZM234.017 268.765C234.853 271.282 237.131 273.266 239.638 273.724C238.043 275.707 237.359 278.072 238.271 280.513C238.347 280.818 238.499 281.047 238.651 281.276C237.055 281.657 235.384 281.505 233.865 280.971C234.169 280.513 233.637 279.827 233.105 280.208C232.953 280.284 232.878 280.361 232.726 280.437C231.586 279.75 230.675 278.758 230.143 277.462C228.548 273.571 231.13 270.748 234.017 268.765ZM241.233 281.886C240.018 280.589 239.258 278.758 239.714 277.004C239.866 276.546 240.626 274.944 241.613 273.724C242.449 273.571 243.36 273.19 244.12 272.503L244.196 272.427C245.107 276.012 247.31 279.674 250.273 282.039C247.538 283.717 243.816 284.556 241.233 281.886ZM242.98 284.938C245.031 285.548 247.386 285.395 249.513 284.48C249.437 284.861 249.437 285.167 249.437 285.548C249.513 287.608 250.501 289.515 252.02 290.964C251.868 291.041 251.64 291.117 251.488 291.346C249.817 293.863 245.943 294.702 243.588 292.643C241.461 290.659 241.385 287.226 242.98 284.938ZM253.083 292.337C253.159 292.261 253.159 292.109 253.235 292.032L253.311 292.109C254.602 292.948 256.046 293.329 257.413 293.253C258.325 296.228 260.603 298.517 263.49 299.356C261.287 302.026 258.552 304.238 254.83 303.552C250.956 302.789 248.753 299.28 248.298 295.618C250.197 295.16 252.02 294.016 253.083 292.337ZM258.78 293.1C262.047 292.414 264.857 289.667 265.389 286.158C265.769 287.837 267.516 289.057 269.035 289.896C270.174 290.583 271.39 290.964 272.605 291.117C271.846 294.016 270.554 296.686 267.288 297.525C263.794 298.44 260.375 296.152 258.78 293.1ZM287.57 271.664C287.722 271.206 287.798 270.748 287.874 270.291C288.025 268.918 287.874 267.697 287.494 266.553C289.849 265.637 291.748 263.883 292.887 261.823C296.913 261.747 296.989 267.621 296.077 270.138C295.09 272.656 293.191 274.258 290.76 275.173C290.076 273.724 289.013 272.503 287.57 271.664ZM301.698 264.569C301.926 266.782 301.926 268.994 301.85 271.206C301.167 269.986 300.103 269.07 298.584 268.689C298.584 268.46 298.66 268.307 298.66 268.078C298.66 267.773 298.736 267.544 298.736 267.239C298.964 267.316 299.192 267.316 299.42 267.163C300.331 266.4 301.091 265.485 301.698 264.569ZM292.203 242.065C294.178 244.353 295.849 246.871 297.293 249.541C295.773 248.702 294.102 248.244 292.203 248.32C292.887 246.108 292.811 243.972 292.203 242.065ZM298.964 253.355C299.799 255.415 300.407 257.551 300.939 259.763C300.711 261.747 299.723 263.578 298.508 265.408C298.052 262.738 296.457 260.068 293.723 259.839C294.482 257.398 294.406 254.652 293.267 252.058C292.963 251.372 292.507 250.685 291.899 249.999C294.634 250.304 297.217 251.372 298.964 253.355ZM290 248.168C286.886 245.879 282.632 244.964 280.277 248.168C281.721 244.582 279.67 240.31 276.479 238.25C276.631 238.327 276.783 238.327 276.935 238.25C284.151 233.978 292.887 239.929 290 248.168ZM283.999 234.894C281.721 234.512 279.214 234.97 277.011 236.648C277.695 234.436 276.859 232.224 275.264 230.546C278.302 231.614 281.189 233.063 283.999 234.894ZM269.643 229.325C273.821 230.393 275.264 233.368 274.884 237.411C274.656 237.335 274.428 237.259 274.2 237.182C273.213 236.877 271.77 236.877 270.25 237.106C270.706 234.284 264.477 231.766 262.578 231.614C262.199 231.614 261.895 231.537 261.515 231.537C263.262 229.096 266.908 228.638 269.643 229.325ZM262.73 228.181C261.439 228.944 260.451 230.088 259.996 231.69C259.844 231.69 259.692 231.766 259.54 231.766L259.464 231.69C258.097 230.317 256.501 229.325 254.678 228.791C257.337 228.333 260.072 228.104 262.73 228.181ZM251.032 230.393C253.463 230.24 255.666 231.003 257.413 232.605C255.362 233.673 253.767 235.428 252.779 237.564C251.64 237.411 250.425 237.564 249.285 238.022C248.601 238.327 248.07 238.632 247.538 239.09C247.538 239.013 247.462 238.937 247.386 238.861C246.626 238.022 245.639 237.488 244.5 237.259C244.5 237.182 244.576 237.106 244.5 236.954C243.968 233.139 247.614 230.622 251.032 230.393ZM241.689 233.521C242.373 233.139 243.132 232.758 243.816 232.376C243.056 233.521 242.752 234.894 243.132 236.267C242.069 235.58 240.702 235.046 239.41 234.894C240.094 234.436 240.853 233.902 241.689 233.521ZM237.207 236.954C238.575 236.267 240.018 236.648 241.309 237.335C239.79 237.64 238.347 238.174 237.359 239.013C236.828 239.471 236.372 239.929 235.992 240.463C235.84 240.386 235.612 240.31 235.46 240.234C235.08 239.166 236.296 237.411 237.207 236.954ZM233.865 239.318C233.865 239.471 233.865 239.624 233.865 239.776C233.865 239.929 233.865 240.005 233.941 240.158C233.637 240.158 233.333 240.158 233.029 240.234C233.257 239.852 233.561 239.547 233.865 239.318ZM229.687 244.277C231.054 242.294 232.953 242.141 235.004 242.065C234.245 243.896 234.169 245.955 234.853 247.863C233.181 248.549 231.662 249.922 230.447 251.601C228.7 249.693 228.168 246.566 229.687 244.277ZM227.104 247.786C227.256 249.236 227.864 250.609 228.852 251.677C227.18 251.829 225.585 252.44 224.294 253.431C225.054 251.524 225.965 249.617 227.104 247.786ZM229.763 252.821C226.877 258.085 226.953 265.485 233.637 267.087C233.637 267.087 233.637 267.087 233.713 267.087C232.118 267.316 230.751 268.231 229.763 269.528C225.813 268.078 222.091 265.79 222.243 260.831C222.395 256.635 226.041 253.889 229.763 252.821ZM221.483 274.258C221.104 271.282 221.104 268.307 221.331 265.408C222.319 267.544 223.99 269.375 225.965 270.367C224.066 271.13 222.471 272.503 221.483 274.258ZM223.534 282.954C222.927 281.352 222.471 279.75 222.091 277.996C222.471 274.41 225.433 272.198 228.548 271.054C228.624 271.054 228.624 271.054 228.7 271.054C227.636 273.266 227.408 275.936 228.244 277.996C228.852 279.521 229.915 280.818 231.282 281.657C230.447 282.649 229.839 283.793 229.535 285.09C227.104 285.395 224.902 284.633 223.534 282.954ZM235.08 299.508C230.903 295.923 227.408 291.575 224.978 286.54C226.269 287.15 227.788 287.379 229.307 287.074C229.307 288.447 229.687 289.896 230.523 291.117C231.662 292.871 233.409 294.016 235.384 294.473C234.777 296.152 234.701 297.906 235.08 299.508ZM240.018 303.018C237.131 301.416 236.144 297.83 236.752 294.779C238.499 294.931 240.246 294.55 241.765 293.634C241.841 293.634 241.841 293.558 241.917 293.558C242.221 293.863 242.449 294.168 242.828 294.397C244.044 295.313 245.563 295.77 247.006 295.77C246.854 297.83 247.386 299.661 248.45 301.187C245.943 303.094 243.284 304.772 240.018 303.018ZM244.272 305.535C245.259 305.382 246.247 305.154 247.158 304.696C247.234 305.535 247.462 306.374 247.842 307.137C246.627 306.679 245.411 306.145 244.272 305.535ZM248.298 304.009C248.829 303.628 249.285 303.17 249.665 302.636C251.488 304.314 253.919 305.382 256.35 305.535C254.602 309.654 248.677 308.51 248.298 304.009ZM256.274 308.663C256.881 308.129 257.413 307.518 257.793 306.832C258.097 307.595 258.628 308.281 259.312 308.892C258.249 308.892 257.261 308.815 256.274 308.663ZM267.972 307.824C267.44 308.205 266.832 308.51 266.149 308.663C265.389 308.739 264.553 308.815 263.794 308.892C263.794 308.892 263.718 308.892 263.642 308.892C262.35 308.739 258.4 307.366 258.856 305.382C261.439 304.848 263.794 303.246 265.009 300.119C265.085 299.966 265.085 299.737 265.009 299.585C265.693 299.661 266.3 299.661 266.984 299.508C267.668 299.432 268.351 299.203 269.035 298.898C270.782 301.721 270.858 305.688 267.972 307.824ZM270.782 307.824C271.77 306.45 272.301 304.848 272.377 303.17C273.593 304.543 275.112 305.459 276.783 305.916C274.884 306.679 272.833 307.29 270.782 307.824ZM279.442 304.086C276.327 304.62 273.745 302.941 272.074 300.576C271.846 299.661 271.39 298.822 270.782 297.983C271.466 297.525 272.15 296.915 272.681 296.228C275.796 298.517 279.974 299.432 283.392 297.22C283.544 297.143 283.696 297.067 283.772 296.915C284.607 300.271 283.24 303.399 279.442 304.086ZM281.569 296.075C278.91 297.296 275.872 296.61 273.441 295.16C274.276 293.863 274.732 292.414 274.656 290.964C275.34 290.812 276.1 290.507 276.783 290.125C277.695 289.515 278.454 288.752 279.062 287.76C280.885 288.523 283.012 288.676 284.911 288.294C285.519 291.498 284.835 294.626 281.569 296.075ZM285.899 300.805C286.278 299.585 286.278 298.364 285.974 297.143C286.962 297.754 288.101 298.059 289.241 298.135C288.177 298.974 287.038 299.89 285.899 300.805ZM285.519 295.236C287.114 293.1 287.798 290.125 286.506 287.76C288.253 287.074 289.697 285.853 290.76 284.175C292.887 286.082 294.862 287.684 294.482 291.117C294.406 291.651 294.254 292.261 294.102 292.719C293.343 293.711 292.583 294.626 291.748 295.541C289.924 296.686 287.494 296.762 285.519 295.236Z" fill="#BBBBBB"/>
<path opacity="0.97" d="M528.922 266.711C516.757 267.7 506.418 260.629 497.827 252.798C489.92 245.652 482.394 238.277 473.803 231.891C457.153 219.575 437.615 210.451 416.707 209.083C409.333 208.627 401.882 209.083 394.736 210.527C399.602 208.094 404.315 205.434 408.725 202.316C417.088 196.462 423.626 189.24 428.796 180.497C434.498 170.917 439.591 160.73 442.252 149.858C445.065 138.53 445.141 126.745 445.825 115.113C446.586 102.037 448.258 88.732 455.024 77.252C455.633 76.263 454.492 75.199 453.504 75.731C434.041 87.211 410.93 87.667 389.11 90.784C378.39 92.305 367.747 94.586 357.711 98.919C347.296 103.481 337.489 109.943 328.974 117.47C322.816 122.944 317.19 129.406 313.692 136.933C319.014 99.147 312.628 58.169 283.814 30.875C275.071 22.588 263.743 14.225 263.211 1.072C263.135 -0.219994 261.463 -0.372033 261.007 0.767982C253.252 20.763 233.029 32.396 220.561 49.198C206.952 67.444 198.665 90.632 199.578 113.517C199.882 120.055 200.946 126.517 202.847 132.675C200.338 128.798 197.677 125.073 194.712 121.576C188.326 113.897 180.571 107.51 171.904 102.493C154.722 92.533 135.032 88.276 115.417 87.287C102.493 86.603 89.1881 86.679 77.2521 81.281C76.4161 80.901 74.9711 81.8129 75.7321 82.802C82.8781 92.153 83.4861 104.393 84.7791 115.645C86.1471 127.278 87.44 138.91 90.0241 150.39C94.662 171.373 104.241 190.532 120.359 205.053C124.92 209.159 130.014 213.112 135.412 216.305C121.119 212.428 106.142 211.592 91.4691 213.873C81.5861 215.393 71.9301 218.282 62.8831 222.54C52.7721 227.253 43.725 233.868 34.602 240.254C23.274 248.237 11.87 256.144 0.542016 264.127C-0.142005 264.583 -0.217994 265.647 0.542016 266.027C19.396 276.443 33.081 293.397 49.503 306.93C57.257 313.316 65.6961 318.942 75.1991 322.439C85.995 326.393 97.7031 327.457 109.107 326.165C114.733 325.556 120.283 324.34 125.681 322.667C112.148 334.452 103.481 351.026 96.6391 367.371C92.3811 377.483 88.96 387.975 86.451 398.695C84.17 408.35 82.65 418.234 80.293 427.813C77.632 438.761 73.755 449.557 66.609 458.376C66 459.136 66.533 460.657 67.673 460.201C89.72 451.762 113.745 452.446 136.704 448.568C147.804 446.668 158.752 443.627 168.635 438.001C178.062 432.679 186.121 425.304 193.039 417.093C196.233 413.292 199.274 409.262 202.087 405.157C196.689 423.556 197.829 443.399 204.899 461.341C212.122 479.664 224.742 495.325 238.503 509.238C246.638 517.449 255.761 525.204 260.17 536.228C260.55 537.14 261.995 537.368 262.299 536.228C264.884 526.04 273.247 519.122 280.621 512.203C288.832 504.6 295.37 495.933 300.844 486.126C312.096 466.283 322.055 444.083 321.523 420.743C321.447 416.029 320.839 411.391 319.851 406.83C330.038 420.743 345.851 430.398 360.676 438.609C369.571 443.551 378.923 446.516 388.958 447.884C399.526 449.329 410.169 449.329 420.813 450.165C432.673 451.153 444.533 453.434 454.796 459.744C455.709 460.353 456.925 459.136 456.317 458.224C444.229 439.597 445.825 416.409 442.404 395.349C440.656 384.706 437.463 374.67 431.533 365.623C425.298 356.119 417.848 347.148 410.321 338.709C403.175 330.726 395.268 323.352 386.373 317.346C395.116 320.083 404.011 322.439 413.134 322.439C423.93 322.439 434.117 318.638 444.153 315.141C453.656 311.872 463.159 308.374 472.054 303.585C481.101 298.719 488.704 292.105 496.611 285.642C506.418 277.583 516.757 271.501 529.226 268.916C530.442 268.688 530.138 266.635 528.922 266.711ZM357.863 101.276C377.934 92.305 400.21 92.305 421.497 88.732C431.837 86.983 441.948 84.322 451.299 79.456C441.872 98.311 444.685 120.207 441.796 140.582C440.123 152.138 435.942 162.858 430.392 173.122C425.07 182.929 418.988 191.749 410.017 198.591C400.97 205.434 390.555 210.223 380.291 214.861C379.835 213.949 379.379 213.036 378.847 212.2C385.005 209.387 391.239 205.129 393.444 198.439C395.116 193.345 394.204 187.643 390.403 183.918C395.876 180.116 398.613 173.122 396.637 166.66C395.344 162.478 392.455 159.133 390.555 155.256C390.25 154.647 390.022 154.039 389.794 153.355C395.952 156.32 403.327 155.712 409.257 152.138C416.251 147.957 419.825 139.822 419.064 131.839C417.468 114.353 396.333 105.382 382.344 115.797C375.73 120.739 372.156 128.722 372.308 136.857C369.039 134.424 365.922 131.991 361.817 131.231C354.594 129.862 346.992 133.056 342.886 139.062C333.535 132.828 319.775 136.097 316.353 147.501C315.061 146.664 313.692 145.904 312.324 145.296C312.324 145.22 312.4 145.144 312.4 144.992C312.4 144.916 312.4 144.916 312.4 144.84C319.699 124.617 338.781 109.791 357.863 101.276ZM441.34 266.331C435.182 266.407 432.749 261.542 431.228 255.916C431.304 255.84 431.38 255.764 431.456 255.688C437.234 249.073 445.293 241.698 454.872 243.827C463.311 245.728 469.089 253.939 470.306 262.15C471.75 271.577 467.417 281.993 457.837 285.186C448.866 288.227 436.702 282.981 431.304 275.531C433.281 271.501 436.246 268.536 441.264 268.536C442.784 268.536 442.784 266.331 441.34 266.331ZM436.474 267.396C431.532 269.753 428.644 275.455 427.123 280.7C425.755 285.49 424.994 290.964 421.649 294.918C418.836 298.263 413.286 300.696 409.409 297.578C408.801 297.046 407.812 297.198 407.584 298.035C404.771 308.298 393.368 312.328 384.397 306.93C384.168 306.778 383.94 306.778 383.712 306.778C383.94 305.333 384.016 303.889 384.016 302.368C392.911 303.433 401.654 299.251 407.28 292.485C413.134 285.338 415.263 275.759 414.731 266.635C413.59 248.389 401.654 230.294 382.952 226.645C382.876 225.429 382.8 224.136 382.648 222.92C387.514 219.955 393.444 218.89 398.765 221.247C404.391 223.756 408.041 229.382 408.269 235.464C408.269 236.225 408.953 236.681 409.637 236.529C414.351 235.464 419.292 236.757 422.866 240.026C426.667 243.523 427.503 248.541 428.415 253.331C429.48 258.5 431.685 264.811 436.474 267.396ZM386.905 349.961C396.561 353.078 390.403 365.623 388.198 371.705C388.046 372.085 387.97 372.389 387.818 372.769C387.59 372.997 387.514 373.302 387.59 373.53C386.069 379.308 387.133 384.249 389.87 389.343C385.157 388.659 380.823 389.191 376.718 390.636C376.414 390.408 375.882 390.408 375.654 390.864C375.654 390.94 375.577 391.016 375.577 391.092C372.536 392.308 369.571 393.981 366.682 396.034C362.881 398.619 358.852 401.584 354.062 401.584C348.664 401.584 343.647 397.934 341.746 392.917C341.518 392.308 340.758 391.852 340.149 392.308C331.254 398.695 319.318 394.741 315.517 384.858C316.81 384.021 318.026 383.109 319.166 382.045C319.47 381.817 319.699 381.513 319.927 381.284C331.102 390.788 348.588 391.472 361.209 384.706C374.361 377.635 382.8 363.342 382.116 348.365C381.736 340.002 378.771 331.106 373.145 324.796C374.057 324.112 374.893 323.428 375.654 322.667C375.73 322.743 375.882 322.82 376.034 322.896C386.981 326.089 391.847 338.481 385.993 348.365C385.841 348.973 386.221 349.733 386.905 349.961ZM393.139 390.332C390.25 385.77 388.198 381.132 389.414 375.582C389.49 375.05 389.642 374.518 389.794 374.062C394.052 373.302 397.929 372.465 402.339 373.454C406.824 374.442 411.158 376.723 414.199 380.144C421.041 387.899 417.468 400.747 411.69 408.046C405.988 415.269 396.028 418.69 387.285 415.117C378.314 411.543 373.981 401.812 376.642 392.841C381.508 391.016 386.753 390.712 391.923 391.928C392.759 392.156 393.672 391.168 393.139 390.332ZM290.048 428.649C287.007 432.299 282.826 433.743 278.417 435.036C272.943 436.632 266.252 439.217 264.58 444.995C260.398 440.281 253.48 439.217 247.626 437.392C238.199 434.503 227.251 426.521 231.128 415.193C231.28 414.736 231.052 414.128 230.596 413.976C225.35 411.543 220.713 407.59 218.508 402.192C216.379 396.87 217.216 391.168 220.257 386.53C221.093 386.682 221.929 386.834 222.842 386.91C223.678 386.986 224.514 387.062 225.426 387.062C221.701 392.308 225.502 400.367 228.467 405.157C232.421 411.543 238.351 416.713 245.193 419.906C258.878 426.369 274.615 423.708 285.867 413.596C292.101 407.97 296.663 400.291 297.955 392.004C298.183 390.636 296.131 390.028 295.826 391.396C295.294 394.285 294.382 397.098 293.166 399.759C290.048 397.478 286.551 395.806 283.586 393.297C280.545 390.788 277.808 387.899 275.375 384.782C272.791 381.36 270.586 377.711 268.913 373.834C274.007 382.425 282.674 388.887 293.242 390.104C297.499 390.56 301.832 390.256 306.014 389.191C306.014 389.419 306.014 389.571 306.166 389.799C311.944 400.139 306.394 412.684 294.762 415.117C294.306 415.193 293.926 415.725 293.926 416.181C294.23 420.59 293.013 425.076 290.048 428.649ZM272.486 439.369C278.264 444.995 281.229 453.13 278.797 461.113C276.516 468.868 268.989 474.19 261.007 474.722C252.796 475.254 245.573 470.084 242.76 462.405C241.392 458.756 241.164 454.651 242.304 450.925C243.369 447.428 245.877 442.79 248.69 439.977C249.831 440.281 250.895 440.586 252.035 440.89C256.749 442.258 261.767 443.855 264.276 448.416C264.808 449.405 266.328 448.949 266.328 447.884C266.328 443.475 268.989 441.042 272.486 439.369ZM135.868 397.174C141.19 394.209 146.816 394.665 152.518 395.806C152.974 400.595 154.494 405.081 154.342 409.947C154.114 415.497 151.681 420.514 147.044 423.632C138.605 429.41 126.973 426.977 119.827 420.21C113.288 413.976 110.019 404.549 111.844 395.654C113.973 385.618 124.008 376.875 134.348 381.665C136.172 386.226 136.932 390.94 134.348 395.654C133.815 396.642 134.88 397.706 135.868 397.174ZM137.389 394.057C138.681 389.723 137.921 385.39 136.324 381.208C136.476 380.752 136.4 380.22 135.868 379.992C134.88 377.635 133.663 375.354 132.523 373.15C130.242 368.892 127.809 364.102 128.265 359.161C128.646 354.675 131.154 350.265 135.868 349.429C136.552 349.277 136.856 348.365 136.552 347.832C133.435 342.359 131.915 335.364 134.88 329.51C137.313 324.72 142.558 321.679 147.88 322.135C148.868 323.504 150.009 324.796 151.149 326.013C138.453 334.072 138.301 352.166 144.231 364.482C151.377 379.232 167.875 387.671 183.992 385.086C190.531 384.021 197.981 380.676 201.25 374.67C203.227 377.255 205.508 379.46 208.093 381.36C206.192 385.238 203.379 388.887 199.426 390.712C194.864 392.841 189.238 392.156 185.665 388.583C185.057 387.899 184.144 388.355 183.84 389.039C179.811 399.075 166.887 397.174 158.6 395.197C151.529 393.297 144.155 391.548 137.389 394.057ZM92.2291 274.238C90.253 272.109 87.744 270.513 85.007 269.448C87.82 267.928 89.7201 264.963 90.861 261.694C91.773 261.998 92.7611 260.705 92.0011 259.793C91.8491 259.641 91.7731 259.489 91.6211 259.337C92.0771 257.74 92.305 256.144 92.533 254.623C93.1421 249.225 93.0651 242.991 97.2471 238.885C100.972 235.236 106.75 234.248 111.464 236.377C112.072 236.605 112.984 236.453 113.136 235.692C114.201 228.85 119.142 223.224 125.605 221.019C133.511 218.358 139.897 222.54 146.36 226.569C146.056 227.709 145.751 228.85 145.523 229.99C145.447 229.914 145.295 229.838 145.143 229.838C137.997 227.481 129.33 229.534 123.02 233.183C116.101 237.137 111.008 243.523 108.195 250.974C102.569 266.027 106.446 285.49 119.218 295.906C125.148 300.696 134.272 304.193 141.95 302.064C141.874 303.281 141.874 304.421 141.95 305.561C141.798 305.637 141.646 305.713 141.57 305.789C132.371 314.152 117.926 309.819 114.581 297.959C114.353 297.122 113.364 296.894 112.756 297.502C108.195 301.76 101.276 299.707 99.072 294.081C97.4751 289.9 97.8551 285.262 96.4111 281.005C95.6501 278.724 94.434 276.671 92.99 274.922C92.99 274.618 92.6091 274.162 92.2291 274.238ZM78.5451 270.285C79.2291 270.437 79.8371 270.437 80.4451 270.513C84.1711 271.045 87.6681 272.794 90.3291 275.455C83.7141 280.016 76.34 286.326 68.0531 285.642C59.6901 284.882 53.3801 277.127 53.6081 268.916C53.8361 260.477 60.0701 252.418 68.4331 250.594C76.7961 248.769 83.9421 254.243 89.2641 260.097C87.8961 264.355 85.3111 268.46 80.749 268.384C80.141 268.308 79.533 268.232 78.8491 268.232C77.5561 268.08 77.2521 270.057 78.5451 270.285ZM133.967 181.637C129.33 180.116 128.265 174.414 129.178 170.157C130.318 165.215 133.967 161.186 136.476 156.928C139.137 152.29 140.81 145.98 138.377 141.191C143.395 142.179 148.64 139.746 153.278 137.465C160.424 133.892 173.349 129.71 177.302 140.05C177.53 140.658 178.29 141.115 178.899 140.734C189.314 133.588 203.683 139.746 205.28 152.443C205.28 152.519 205.28 152.519 205.28 152.595C195.7 159.513 189.542 170.917 190.074 183.31C190.074 183.842 190.15 184.298 190.15 184.83C189.542 182.245 189.086 179.66 188.782 176.923C187.794 168.56 186.729 159.437 192.507 152.519C192.735 152.29 192.735 151.986 192.659 151.758C194.788 153.127 196.765 154.723 198.893 156.472C199.654 157.08 200.946 156.32 200.338 155.332C196.309 148.945 187.185 145.904 180.039 145.448C171.068 144.916 162.097 148.337 154.951 153.659C142.33 163.086 133.739 180.725 142.178 195.626C145.827 202.088 152.214 207.182 159.664 207.866C159.132 208.247 158.676 208.627 158.144 209.007C157.916 208.931 157.611 208.855 157.307 209.007C150.161 212.124 141.342 210.679 136.096 204.749C130.85 198.819 130.546 189.772 134.576 183.234C134.956 182.549 134.576 181.865 133.967 181.637ZM133.967 139.366C138.453 142.483 137.921 148.565 136.02 153.127C128.341 155.56 119.675 154.039 114.429 147.577C109.183 141.038 108.575 131.535 112.984 124.389C117.318 117.318 127.049 111.616 135.412 114.581C144.991 118.002 147.272 128.874 147.348 137.845C147.348 137.921 147.348 137.921 147.348 137.997C143.167 139.518 138.985 140.05 135.108 137.465C133.891 136.705 132.827 138.606 133.967 139.366ZM230.444 119.219C229.38 114.961 229.912 110.4 232.269 106.598C235.158 102.036 239.947 100.744 244.813 99.376C251.731 97.323 257.585 93.521 261.767 87.743C263.287 93.674 270.738 96.487 276.364 97.703C281.229 98.691 286.475 99.604 289.668 103.785C292.633 107.663 293.318 112.984 291.265 117.47C290.961 118.154 291.341 119.219 292.253 119.143C297.727 118.915 302.517 122.488 304.721 127.43C307.002 132.371 306.622 137.921 305.406 143.091C303.657 142.787 301.832 142.559 299.932 142.559C299.932 133.512 296.054 124.693 289.06 118.839C281.229 112.3 270.358 109.791 260.322 110.323C250.667 110.856 241.088 114.429 234.321 121.499C228.163 127.962 224.286 136.857 225.807 145.904C225.807 145.904 225.807 145.904 225.807 145.98C224.438 145.98 223.07 146.056 221.701 146.208C216.912 142.331 213.871 136.097 214.631 129.939C215.011 126.745 216.531 123.704 219.496 122.184C222.994 120.359 226.339 121.347 230.064 120.891C230.9 120.663 231.128 119.675 230.444 119.219ZM261.691 83.79C259.334 87.971 255.989 91.469 251.883 93.978C245.573 89.568 239.719 84.322 239.719 75.883C239.719 66.532 246.942 60.526 255.913 59.765C264.352 59.081 272.715 63.263 276.44 71.017C280.241 78.924 277.58 88.276 270.282 93.141C270.13 93.217 269.978 93.369 269.902 93.521C265.948 91.773 263.211 89.188 263.667 84.398C263.896 83.258 262.223 82.878 261.691 83.79ZM391.163 140.734C385.309 142.863 379.683 141.875 374.665 138.53C373.753 129.558 378.314 120.131 386.449 115.873C394.736 111.54 405.912 113.441 412.146 120.435C418.38 127.506 418.836 139.442 412.526 146.664C406.9 153.127 397.093 154.723 389.338 151.53C388.654 148.261 389.034 144.688 392.075 142.787C393.063 142.179 392.379 140.354 391.163 140.734ZM378.619 143.167C381.66 144.232 384.853 144.46 387.97 143.927C386.829 145.904 386.601 148.337 386.981 150.77C386.677 150.922 386.601 151.454 386.981 151.758C387.057 151.834 387.133 151.834 387.209 151.91C387.666 154.115 388.578 156.32 389.642 158.145C391.999 162.25 395.344 166.28 395.192 171.297C395.04 176.163 392.379 180.497 388.122 182.853C387.285 183.31 387.514 184.298 388.122 184.754C392.759 188.251 393.063 195.094 390.479 199.96C387.742 204.977 382.724 208.094 377.63 210.375C377.098 209.691 376.566 209.007 375.958 208.399C386.145 193.041 385.385 169.625 371.624 156.7C357.863 143.775 336.88 142.939 320.383 150.694C319.47 149.858 318.482 149.021 317.494 148.337C322.055 138.758 333.459 134.424 342.354 141.419C342.886 141.875 343.723 141.875 344.103 141.191C348.892 133.208 359.612 130.927 367.291 135.945C369.115 137.161 370.788 138.454 372.46 139.746C372.46 139.822 372.46 139.974 372.46 140.05C372.536 140.81 373.297 140.962 373.829 140.734C375.425 141.723 376.946 142.559 378.619 143.167ZM356.571 294.309C352.314 292.561 342.582 289.824 340.606 296.362C338.705 302.748 349.121 305.333 353.302 306.322C359.384 307.842 365.694 308.526 371.928 308.374C365.314 310.503 358.7 312.632 351.629 311.263C344.711 309.895 335.36 302.976 337.413 294.842C339.541 286.402 349.881 285.414 356.571 288.303C363.489 291.268 368.735 296.818 373.373 302.52C367.975 299.479 362.349 296.666 356.571 294.309ZM375.349 306.17C375.501 306.398 375.73 306.702 375.958 306.93C370.484 306.93 365.01 306.55 359.612 305.561C356.343 304.953 340.073 302.216 342.962 296.438C344.711 292.941 350.717 294.461 353.454 295.374C356.191 296.286 358.852 297.502 361.437 298.795C366.15 301 370.788 303.509 375.349 306.17ZM376.87 336.656C377.174 336.58 377.326 336.352 377.326 336.124C378.695 339.469 379.607 342.967 379.987 346.616C379.911 346.616 379.835 346.616 379.759 346.692C379.683 346.768 379.607 346.768 379.531 346.844C379.227 346.996 379.227 347.376 379.303 347.604C378.771 347.376 378.162 347.3 377.554 347.376C376.946 347.376 376.262 347.376 375.577 347.376C374.589 347.376 373.601 347.3 372.689 347.224C370.18 346.996 367.671 346.692 365.238 346.16C360.676 345.248 356.267 343.803 352.009 341.978C346.384 339.546 341.442 336.276 336.804 332.475C335.284 330.954 333.687 329.51 332.091 328.065C332.015 327.989 331.939 327.837 331.863 327.761C343.723 337.797 362.273 341.066 376.87 336.656ZM335.74 328.902C347.068 333.007 359.992 332.475 370.636 326.469C371.016 326.241 371.32 326.089 371.624 325.861C373.753 328.902 375.654 332.019 377.022 335.364C376.87 335.288 376.718 335.212 376.49 335.288C368.279 337.189 360.068 337.569 351.781 335.744C345.851 334.376 340.682 331.943 335.74 328.902ZM347.068 344.563C348.208 345.628 349.273 346.768 350.413 347.832C354.214 351.558 358.092 355.359 361.893 359.084C365.694 362.81 369.343 367.143 373.677 370.184C373.753 370.26 373.829 370.26 373.905 370.26C372.689 372.085 371.32 373.834 369.723 375.43C366.454 378.776 362.653 381.513 358.472 383.489C358.472 383.413 358.472 383.337 358.472 383.337C359.688 369.12 354.898 355.891 347.068 344.563ZM357.331 384.021C353.91 385.466 350.185 386.378 346.384 386.682C342.126 387.062 338.021 386.606 333.991 385.618C344.103 370.184 344.635 349.277 335.588 333.311C335.74 333.463 335.968 333.615 336.12 333.843C336.804 334.528 337.565 335.288 338.249 335.972C349.881 349.201 358.168 365.091 356.799 383.337C356.875 383.717 357.103 383.945 357.331 384.021ZM363.109 357.868C359.308 354.143 355.431 350.417 351.553 346.616C349.121 344.259 346.612 341.902 344.179 339.545C347.22 341.37 350.413 342.967 353.682 344.259C358.472 346.16 363.489 347.604 368.659 348.289C371.168 348.593 373.601 348.821 376.11 348.897C377.326 348.897 378.923 349.201 380.139 348.669C380.139 349.657 380.215 350.645 380.139 351.634C379.835 357.944 377.858 364.102 374.513 369.348C371.32 365.167 366.835 361.593 363.109 357.868ZM332.167 330.042C336.956 337.569 339.997 345.932 340.454 354.979C341.062 365.775 337.945 376.115 332.319 385.162C328.442 384.021 324.64 382.273 321.067 380.22C328.213 372.693 332.167 361.289 333.459 351.33C334.524 343.271 333.611 334.68 329.886 327.533C330.114 327.761 330.266 327.913 330.494 328.141C331.026 328.75 331.635 329.358 332.167 330.042ZM331.711 346.312C331.33 356.88 327.529 368.892 320.839 377.179C319.927 378.243 319.014 379.232 318.026 380.144C318.026 379.992 317.95 379.84 317.798 379.688C317.722 379.536 317.57 379.46 317.418 379.308C317.418 379.232 317.418 379.08 317.418 378.928C317.342 378.776 317.342 378.547 317.266 378.319C316.658 372.845 319.318 368.36 322.283 363.57C325.172 358.932 327.377 353.991 328.289 348.517C329.734 339.241 327.225 328.598 320.003 322.211C320.611 321.603 321.067 320.995 321.447 320.311C322.283 321.071 323.196 321.831 324.108 322.591C329.43 329.282 332.015 337.645 331.711 346.312ZM291.037 342.815C285.715 348.061 291.113 357.488 294.686 361.897C298.943 367.143 304.341 372.009 310.195 375.886C302.061 373.834 294.534 371.021 288.756 364.406C284.194 359.161 277.884 347.072 284.575 340.99C285.487 340.154 286.703 339.469 287.996 339.013C289.896 339.241 291.873 339.013 293.698 338.101C293.85 338.025 294.002 337.949 294.154 337.873C295.902 337.873 297.499 338.025 298.943 338.329C303.125 339.317 306.622 342.206 309.055 345.628C314.605 353.23 314.605 362.886 314.985 371.857C310.043 359.237 298.411 335.668 291.037 342.815ZM314.529 377.103C309.359 373.302 304.417 369.5 299.932 364.863C297.423 362.354 295.066 359.617 293.318 356.5C291.873 353.915 289.364 347.832 291.797 345.095L295.446 343.727L296.435 344.487C297.119 344.943 297.727 345.704 298.335 346.312C299.628 347.604 300.692 349.049 301.756 350.569C303.657 353.306 305.254 356.271 306.698 359.237C308.295 362.43 309.815 365.699 311.26 369.044C312.476 371.553 313.388 374.442 314.529 377.103ZM261.843 420.971C261.843 421.123 261.919 421.199 261.919 421.275C261.159 421.275 260.398 421.275 259.638 421.275C252.112 420.971 244.737 418.082 238.807 413.444C242.836 411.315 246.486 407.21 249.299 403.788C252.644 399.759 255.381 395.273 257.433 390.408C260.322 383.717 262.071 376.571 263.287 369.348C263.287 375.963 263.439 382.501 263.287 389.115C263.135 394.437 262.983 399.759 262.755 405.081C262.451 410.327 261.691 415.725 261.843 420.971ZM227.707 397.858C232.117 398.086 236.982 396.034 240.86 394.133C245.345 391.928 249.375 388.811 252.72 385.086C256.369 380.98 259.486 375.963 261.691 370.641C260.398 376.799 258.878 382.881 256.445 388.659C254.316 393.601 251.579 398.238 248.158 402.42C245.041 406.221 241.088 408.882 237.667 412.304C237.21 411.923 236.754 411.543 236.374 411.087C233.257 408.122 230.596 404.625 228.696 400.823C228.163 399.835 227.631 398.695 227.175 397.478C227.175 397.706 227.403 397.858 227.707 397.858ZM226.947 397.25C225.655 393.829 224.894 390.028 226.947 387.062C226.947 387.062 226.947 387.062 226.947 386.986C231.128 386.91 235.31 386.15 239.263 385.086C244.053 383.793 249.147 382.273 253.1 379.232C257.129 376.191 259.41 371.629 261.159 367.067C261.995 364.939 262.679 362.81 263.287 360.605C263.287 360.985 263.287 361.289 263.287 361.669C263.211 361.974 263.135 362.354 263.135 362.658C260.17 370.108 257.281 377.483 251.731 383.565C248.614 387.062 244.889 389.952 240.708 392.08C236.374 394.361 231.965 394.969 227.403 396.414C227.099 396.566 226.947 396.946 226.947 397.25ZM263.135 421.123C264.048 416.257 263.972 411.163 264.276 406.221C264.58 400.671 264.732 395.197 264.884 389.647C264.96 384.782 265.036 379.916 265.036 375.05C265.872 380.752 267.317 386.454 269.141 391.852C270.662 396.338 272.487 400.823 274.615 405.005C276.288 408.198 278.493 411.923 281.686 413.976C276.364 418.006 269.978 420.667 263.135 421.123C263.135 421.123 263.135 421.199 263.135 421.123ZM275.452 403.484C273.247 399.151 271.422 394.589 269.902 389.952C267.165 381.589 265.644 372.997 264.808 364.254C264.808 364.33 264.808 364.406 264.884 364.406C266.328 372.313 269.826 379.688 274.691 386.074C279.025 391.7 285.563 398.315 292.481 400.747C290.048 405.537 286.703 409.795 282.598 413.216C279.785 410.175 277.352 407.286 275.452 403.484ZM264.656 346.844C250.591 349.125 253.936 324.872 254.316 317.041C254.316 316.965 254.316 316.965 254.316 316.965C254.316 316.889 254.316 316.889 254.316 316.813C254.62 316.889 254.924 316.889 255.153 316.965C255.153 317.041 255.153 317.117 255.153 317.27C255.761 321.375 256.293 329.51 262.527 328.598C268.153 327.761 267.241 320.311 265.036 316.813C265.948 316.737 266.937 316.661 267.849 316.509C271.27 325.556 280.849 344.259 264.656 346.844ZM243.673 345.78C242.76 343.879 241.544 342.282 240.023 340.99C245.573 339.85 249.375 333.387 251.731 326.925C251.199 335.364 252.492 345.172 258.574 348.213C258.498 348.365 258.422 348.593 258.422 348.821C258.422 359.921 254.696 372.465 242.912 376.191C237.667 377.863 231.737 377.179 226.415 378.167C230.976 374.974 234.93 371.021 238.199 366.611C242.38 360.909 247.018 353.002 243.673 345.78ZM214.099 375.886C213.186 375.126 212.274 374.366 211.438 373.682C207.104 370.26 204.367 366.079 203.379 360.605C201.098 348.061 208.701 337.417 214.403 327.077C216.075 326.773 217.748 326.241 219.268 325.556C222.994 323.808 225.883 320.919 228.467 317.65C227.175 320.995 226.339 324.492 226.567 328.141C226.719 331.639 227.935 334.984 230.14 337.493C229.304 337.493 228.467 337.569 227.631 337.721C220.257 338.937 214.555 344.715 212.198 351.71C209.385 359.693 210.906 368.208 214.099 375.886ZM203.303 321.527C203.227 321.603 203.227 321.603 203.303 321.527C199.274 316.965 200.946 310.655 205.052 306.626C207.636 304.117 210.525 302.064 213.414 299.935C215.771 298.871 217.9 297.655 219.496 296.362C220.105 297.35 220.789 298.263 221.473 299.175C217.824 301.912 212.578 308.374 217.444 311.948C222.005 315.293 226.719 311.035 229.456 307.386C230.14 307.918 230.824 308.45 231.585 308.983C228.544 313.848 225.426 318.942 220.561 322.211C215.847 325.404 208.625 326.697 204.063 322.439C204.443 321.983 203.835 321.223 203.303 321.527ZM210.753 183.082C213.186 190.608 219.344 198.135 227.783 195.246C224.818 198.287 223.982 202.925 224.514 207.182C224.818 209.539 225.426 211.744 226.339 213.949C224.438 212.124 222.309 210.527 220.181 209.235C216.988 207.41 212.806 206.574 209.309 207.714C202.391 200.492 198.665 190.608 199.654 180.573C200.186 175.251 202.163 170.461 205.128 166.051C207.028 163.162 209.233 160.425 211.058 157.536C208.169 165.671 208.169 174.947 210.753 183.082ZM235.31 171.982C232.649 165.443 227.859 159.893 221.929 156.016C227.403 157.156 232.573 158.221 237.591 160.882C248.082 166.432 255.001 176.087 256.825 187.719C253.936 189.696 251.883 192.965 250.895 196.31C249.755 200.112 249.375 204.217 249.755 208.247C248.082 204.597 245.877 201.1 243.825 198.287C241.088 194.486 237.134 191.368 232.497 192.509C237.895 187.567 238.047 178.596 235.31 171.982ZM231.052 130.167C234.55 132.523 238.275 134.424 241.392 137.389C244.281 140.126 246.714 143.243 248.842 146.512C252.872 152.899 255.609 160.045 258.27 167.116C258.346 167.572 258.422 168.028 258.498 168.484C253.024 155.864 242 146.36 226.871 145.828C226.871 145.752 226.947 145.676 226.947 145.6C227.023 140.354 228.239 135.488 230.368 131.231C230.444 131.231 230.52 131.307 230.596 131.307C231.28 131.383 231.661 130.547 231.052 130.167ZM231.585 129.026C233.941 125.149 236.982 121.804 240.708 119.143C240.708 119.295 240.784 119.371 240.86 119.523C251.579 131.611 255.077 146.512 257.433 161.794C255.153 155.104 252.416 148.641 248.31 142.939C245.877 139.518 242.988 136.325 239.643 133.664C237.819 132.219 234.397 129.406 231.585 129.026ZM242 118.382C247.322 114.809 253.86 112.756 260.854 112.452C261.767 112.452 262.679 112.452 263.515 112.452C263.515 112.528 263.515 112.528 263.515 112.604C262.755 123.4 262.299 134.272 261.691 145.144C261.235 153.735 260.55 162.402 260.322 171.069C260.094 170.385 259.942 169.701 259.714 169.016C258.346 150.922 254.392 131.991 242 118.382ZM265.112 112.528C272.791 112.908 280.697 115.113 286.779 119.827C275.604 126.973 267.089 138.378 263.059 151.15C263.135 149.173 263.287 147.121 263.363 145.144C263.972 134.348 264.656 123.476 265.112 112.604C265.112 112.528 265.112 112.528 265.112 112.528ZM295.37 132.295C293.47 131.687 291.873 132.751 290.201 133.588C287.92 134.804 285.715 136.173 283.586 137.693C279.557 140.582 275.984 144.004 272.791 147.881C267.773 154.039 263.972 161.186 261.919 168.864C262.147 165.595 262.375 162.326 262.527 158.981C265.492 143.547 274.311 129.71 287.92 120.891C294.154 126.365 297.575 134.348 297.575 142.559C297.195 142.559 296.815 142.635 296.435 142.635C286.171 143.699 276.516 148.185 269.902 156.244C267.773 158.905 265.948 161.794 264.504 164.835C266.632 159.513 269.445 154.495 273.095 150.01C275.756 146.664 278.797 143.623 282.142 140.962C283.966 139.518 285.943 138.149 287.92 136.933C289.592 135.945 292.785 133.436 294.762 133.968C296.054 134.424 296.511 132.675 295.37 132.295ZM260.322 171.525C260.322 172.134 260.322 172.666 260.246 173.274C260.17 172.97 260.018 172.666 259.942 172.286C259.942 171.982 259.866 171.753 259.866 171.449C260.018 171.601 260.17 171.601 260.322 171.525ZM261.691 188.099C268.761 187.111 270.206 194.181 270.814 199.579C271.574 205.51 270.89 211.288 269.369 216.99C269.369 217.066 269.293 217.218 269.293 217.294C268.761 217.218 268.229 217.142 267.697 217.066C269.902 213.112 266.556 204.901 261.691 204.749C259.258 204.673 257.053 206.498 256.141 208.627C254.924 211.364 255.609 214.329 256.445 216.99C255.229 217.142 254.012 217.294 252.796 217.522C251.731 212.2 251.199 206.878 251.807 201.48C252.644 195.854 255.305 188.936 261.691 188.099ZM289.212 188.784C285.183 188.86 281.305 191.368 278.797 194.714C276.516 197.755 274.767 201.328 273.399 205.053C273.399 201.936 273.095 198.819 272.486 195.778C271.65 191.901 269.978 188.327 266.861 186.731C267.925 174.414 274.767 164.227 285.639 158.297C290.733 155.56 296.207 154.039 301.908 153.051C302.137 153.051 302.365 152.975 302.517 152.975C295.826 157.536 289.744 164.227 286.475 171.297C283.814 177.379 284.727 184.298 289.212 188.784ZM313.54 161.186C316.581 166.736 320.991 171.982 322.816 177.456C324.488 182.473 324.336 187.947 322.74 192.965C321.903 195.474 320.763 197.831 319.242 200.036C317.57 202.392 315.365 203.913 313.464 205.966C313.388 206.042 313.388 206.042 313.388 206.118C308.903 205.814 304.341 208.094 300.692 210.907C299.704 211.668 298.791 212.504 297.803 213.34C298.943 210.679 299.78 207.942 300.16 205.129C300.768 200.872 300.008 196.158 297.347 192.889C302.821 193.573 308.599 191.064 311.716 186.275C314.225 182.321 314.605 177.379 314.681 172.818C314.757 168.94 314.301 165.063 313.54 161.186ZM322.892 212.884C331.863 206.498 342.05 202.925 353.15 206.118C358.776 207.79 363.109 210.907 367.367 214.709C368.051 215.317 368.659 215.849 369.419 216.381C362.045 214.253 353.834 213.949 346.84 216.914C341.062 219.346 335.436 224.82 335.512 231.283C332.623 228.546 328.137 227.709 324.26 228.242C320.459 228.774 316.886 230.37 313.464 232.119C312.78 232.423 312.172 232.803 311.488 233.183C318.026 227.405 324.868 219.27 322.892 212.884ZM341.214 234.552C344.787 240.482 352.77 234.324 356.723 232.423C361.665 230.066 367.823 228.318 372.689 225.277C368.963 230.599 364.174 235.16 358.548 238.353C351.705 242.231 341.138 243.295 338.097 234.096C335.512 226.341 343.495 220.031 350.033 218.13C357.559 215.925 364.782 217.902 372.232 219.118C365.238 220.031 358.244 221.627 351.553 223.604C347.448 224.82 337.413 228.09 341.214 234.552ZM263.515 317.346C263.972 319.17 265.036 320.843 264.96 322.82C264.884 325.024 263.363 327.229 260.931 326.469C257.205 325.328 257.129 320.159 256.445 317.041C258.042 317.193 259.562 317.117 261.159 316.965C261.919 316.965 262.755 316.965 263.515 316.889C263.515 317.041 263.439 317.194 263.515 317.346ZM255.229 314.761C255.153 314.685 255.077 314.609 254.924 314.609C254.392 314.609 253.86 314.533 253.328 314.533C252.872 314.457 252.416 314.38 251.959 314.304C251.731 314.228 251.503 314.304 251.351 314.38C250.287 314.304 249.147 314.228 248.082 314.152C247.93 314.152 247.854 314.152 247.778 314.228C240.251 312.1 233.333 308.526 227.631 303.052C220.029 295.754 215.391 286.022 213.947 275.607C213.718 273.706 213.566 271.805 213.49 269.905C213.642 269.676 213.642 269.448 213.49 269.22C213.338 254.699 219.268 240.71 229.836 231.055C230.444 231.207 230.976 230.675 230.9 230.066C233.561 227.785 236.45 225.809 239.643 224.136C240.023 224.288 240.328 224.06 240.404 223.756C240.556 223.68 240.708 223.604 240.86 223.528C258.726 214.861 279.937 218.13 294.458 231.587C309.055 245.12 313.464 266.179 306.242 284.654C304.95 287.923 303.353 290.964 301.452 293.777C301.224 293.929 300.996 294.233 300.92 294.537C297.575 299.251 293.394 303.204 288.68 306.398C288.452 306.474 288.224 306.626 288.072 306.854C278.569 313.088 266.861 316.129 255.229 314.761ZM228.011 306.17C225.883 308.754 222.766 312.784 219.04 310.731C214.631 308.374 219.496 302.672 222.157 300.087C222.613 300.62 222.994 301.152 223.526 301.684C224.894 303.357 226.415 304.801 228.011 306.17ZM173.957 224.44C170.764 223.224 167.419 222.844 163.998 222.54C162.781 222.464 161.489 222.312 160.196 222.159C165.898 219.499 172.132 217.142 178.366 218.586C185.209 220.183 190.683 226.417 187.566 233.564C187.49 233.64 187.49 233.792 187.414 233.868C186.957 234.476 186.653 235.084 186.349 235.768C182.396 241.318 174.337 242.079 168.407 238.962C163.389 236.377 159.36 232.043 156.547 227.101C160.044 229.306 163.77 231.131 167.647 232.499C170.992 233.716 179.963 237.745 182.244 232.955C184.297 228.698 176.922 225.581 173.957 224.44ZM204.291 231.587C210.145 232.803 215.163 236.225 220.409 239.038C219.496 240.406 218.584 241.851 217.824 243.295C214.175 241.851 207.712 240.406 206.268 245.272C204.9 250.061 209.841 252.342 213.718 253.027C213.262 254.471 212.882 255.992 212.578 257.512C207.865 255.916 203.151 254.547 198.817 252.114C194.332 249.605 187.794 244.892 187.87 239.114C187.87 231.359 198.893 230.446 204.291 231.587ZM216.988 244.968C215.847 247.248 214.859 249.605 214.099 251.962C212.806 251.506 211.59 251.05 210.449 250.366C208.929 249.377 207.256 247.172 208.473 245.272C210.221 242.459 214.175 244.435 216.988 244.968ZM212.806 280.624C209.157 280.624 204.367 284.274 205.964 288.303C207.636 292.561 212.806 291.42 215.923 289.976C216.607 291.496 217.444 293.017 218.28 294.537C217.444 294.994 216.683 295.45 215.923 295.982C212.426 297.883 208.853 299.479 204.747 300.087C199.426 300.924 192.507 300.544 190.759 294.309C189.162 288.531 193.496 282.753 198.437 280.168C202.01 278.268 205.964 277.583 209.689 275.987C210.449 275.759 211.21 275.531 211.97 275.302C212.046 277.051 212.426 278.876 212.806 280.624ZM213.186 282.145C213.794 284.426 214.555 286.631 215.467 288.759C213.186 289.368 209.081 290.508 207.864 287.619C206.42 284.274 211.286 283.361 213.186 282.145ZM223.602 234.78C220.941 232.955 217.52 230.522 219.268 226.949C221.093 223.3 225.503 227.633 228.239 229.914C226.567 231.435 225.046 233.031 223.602 234.78ZM239.339 222.159C238.351 221.019 237.363 219.879 236.83 218.434C236.222 216.686 236.526 214.177 238.351 213.188C241.012 211.82 243.369 214.633 244.585 216.61C245.193 217.522 245.573 218.51 246.182 219.27C243.901 220.031 241.544 221.019 239.339 222.159ZM266.252 216.914C263.439 216.686 260.55 216.609 257.737 216.914C257.357 214.861 256.977 212.732 257.433 210.679C257.889 208.703 259.79 206.27 262.147 206.726C264.2 207.182 265.492 209.767 266.024 211.592C266.556 213.416 266.1 215.089 266.252 216.914ZM276.288 218.89C277.428 216.001 281.458 208.551 284.347 212.656C286.323 215.545 284.042 218.89 283.586 221.779C281.229 220.639 278.797 219.651 276.288 218.89ZM294.458 228.85C295.902 227.329 296.587 225.353 298.563 224.212C301.148 222.692 304.493 223.452 304.569 226.873C304.569 229.382 302.745 231.207 300.844 232.499C300.312 232.803 299.78 233.107 299.324 233.411C297.727 231.815 296.131 230.294 294.458 228.85ZM309.359 282.677C310.499 283.589 312.02 283.742 313.236 284.502C314.681 285.414 315.973 286.859 315.821 288.683C315.745 290.66 314.073 291.42 312.324 291.344C310.88 291.268 308.219 290.736 307.458 289.444C307.23 289.063 306.698 289.139 306.47 289.368C307.534 287.163 308.447 284.882 309.207 282.525C309.283 282.601 309.359 282.601 309.359 282.677ZM299.552 299.783C301.908 302.14 306.09 304.877 303.885 308.754C301.3 313.468 295.142 308.754 293.698 305.637C293.698 305.561 293.622 305.561 293.622 305.485C295.674 303.813 297.727 301.836 299.552 299.783ZM283.586 312.176C284.423 313.62 285.791 314.685 286.551 316.281C287.616 318.562 286.627 320.919 284.118 321.375C279.937 322.211 277.732 317.954 276.364 314.837C276.364 314.761 276.288 314.761 276.288 314.685C278.797 313.924 281.153 313.012 283.51 311.872C283.51 311.948 283.51 312.024 283.586 312.176ZM275.299 314.913C275.299 314.989 275.299 315.065 275.299 315.217C276.44 319.702 280.469 324.72 285.639 322.515C290.809 320.387 288.376 313.544 284.575 311.263C286.019 310.503 287.388 309.743 288.756 308.907C291.417 312.86 294.078 316.661 295.826 321.223C297.575 325.937 298.411 333.007 293.47 335.82C291.645 335.972 289.744 336.276 288.072 336.809C284.194 336.352 280.469 333.691 277.96 330.878C274.463 326.849 272.563 321.831 270.434 317.041C270.282 316.737 270.206 316.433 270.054 316.129C271.878 315.825 273.627 315.445 275.299 314.913ZM295.066 314.076C293.622 311.567 292.101 309.363 290.657 307.69C291.341 307.234 291.949 306.778 292.633 306.246C294.306 310.579 300.996 315.141 304.873 310.655C308.447 306.474 304.797 300.62 300.616 298.491C301.3 297.731 301.908 296.894 302.517 296.058C307.002 298.187 311.108 301.076 314.529 304.725C318.33 308.754 323.576 316.357 317.874 321.147C313.008 325.176 305.71 322.287 301.072 319.322C298.715 317.802 296.739 316.053 295.066 314.076ZM311.868 298.035C310.575 297.426 309.283 296.742 307.991 295.982C307.762 295.906 305.634 294.689 304.341 294.157C304.341 294.081 304.417 294.081 304.417 294.005C304.417 293.929 304.417 293.929 304.417 293.853C304.493 293.625 304.417 293.473 304.265 293.321C304.341 293.245 304.341 293.169 304.417 293.093C305.102 291.952 305.71 290.812 306.318 289.596C306.318 289.672 306.318 289.748 306.318 289.9C306.926 291.8 309.815 292.637 311.64 292.941C313.768 293.321 316.125 292.865 317.266 290.888C318.33 288.987 317.874 286.479 316.657 284.806C315.365 283.057 312.248 281.005 309.967 281.309C309.815 281.309 309.739 281.385 309.587 281.461C310.043 279.864 310.499 278.192 310.804 276.595C310.88 276.595 310.88 276.671 310.956 276.671C318.71 279.864 337.641 282.297 333.839 294.994C331.939 301.304 325.02 302.596 319.318 301.076C316.734 300.391 314.301 299.251 311.868 298.035ZM311.488 274.694C311.336 274.694 311.26 274.694 311.108 274.694C311.26 273.706 311.336 272.794 311.488 271.805C315.137 273.402 322.359 272.718 322.435 267.548C322.511 262.074 315.821 261.009 311.564 262.226C311.488 261.237 311.336 260.173 311.184 259.185C317.19 257.664 322.816 255.459 329.126 255.611C335.284 255.764 343.495 257.968 342.734 265.571C341.442 278.724 326.617 277.583 315.897 275.835C314.301 275.379 312.78 274.998 311.488 274.694ZM311.64 264.05C314.757 263.822 319.318 262.834 320.307 266.787C321.371 271.197 314.225 271.425 311.716 270.437C311.64 270.437 311.64 270.437 311.564 270.437C311.792 268.308 311.792 266.179 311.64 264.05ZM310.88 257.056C309.967 252.418 308.447 247.857 306.242 243.599C306.318 243.599 306.318 243.599 306.394 243.523C307.762 242.687 308.599 241.622 310.347 241.622C312.096 241.622 313.54 242.535 314.225 244.131C314.833 245.652 314.605 247.553 313.54 248.845C312.476 250.061 310.88 250.29 309.739 251.354C309.435 251.582 309.663 252.114 310.043 252.114C314.833 252.266 317.874 246.64 315.593 242.611C314.529 240.71 312.476 239.722 310.347 239.722C308.599 239.722 306.318 240.558 305.482 242.155C305.102 241.546 304.721 240.862 304.341 240.254C305.558 240.178 306.774 238.733 307.686 238.125C310.195 236.377 312.78 234.856 315.517 233.564C321.143 230.827 330.57 227.557 334.98 234.096C339.161 240.254 331.863 247.02 327.225 250.366C325.248 251.81 323.196 253.027 321.067 254.015C317.57 254.699 314.073 255.84 310.88 257.056ZM314.985 226.645C311.412 230.903 307.078 234.476 302.213 237.213C301.908 236.757 301.528 236.301 301.224 235.844C300.92 235.388 300.54 235.008 300.16 234.628C301.3 234.096 303.049 232.955 303.201 232.803C304.341 231.891 305.33 230.751 305.862 229.382C306.698 227.253 306.546 224.668 304.95 222.92C301.3 219.042 293.926 223.148 293.166 227.785C292.329 227.101 291.569 226.493 290.657 225.885C290.809 225.809 290.885 225.581 290.885 225.353C292.329 223.3 293.698 221.171 294.99 218.966C295.37 218.586 295.75 218.206 295.978 217.978C298.031 215.849 300.236 213.797 302.669 212.048C307.154 208.855 313.388 206.346 318.254 210.299C324.032 215.013 318.482 222.464 314.985 226.645ZM291.721 220.183C291.037 221.019 290.277 222.007 289.896 222.996C289.516 223.604 289.136 224.136 288.756 224.668C287.54 223.908 286.323 223.148 285.031 222.54C287.768 219.803 288.3 212.124 284.423 210.147C279.633 207.79 275.908 214.557 274.995 218.51C273.855 218.206 272.639 217.902 271.422 217.674C271.422 217.674 271.422 217.598 271.498 217.598C271.954 216.077 272.334 214.481 272.639 212.884C274.083 208.17 275.908 203.457 278.34 199.199C281.305 194.029 287.54 188.251 293.622 192.509C302.669 198.819 297.119 211.516 291.721 220.183ZM244.433 203.457C245.877 205.89 247.094 208.399 248.082 210.983C248.994 213.264 249.527 215.697 250.591 217.826C250.591 217.902 250.667 217.902 250.667 217.978C249.831 218.206 248.994 218.434 248.158 218.662C247.55 216.305 245.497 213.492 243.673 212.2C241.696 210.755 238.883 210.223 236.83 211.82C232.877 214.861 234.854 220.031 237.971 222.92C236.83 223.604 235.614 224.288 234.55 224.973C234.55 224.82 234.474 224.668 234.398 224.592C233.637 223.072 232.725 221.627 231.661 220.183C229.988 217.294 228.467 214.253 227.555 211.06C225.959 205.738 225.731 198.059 231.661 195.17C237.591 192.281 241.848 199.047 244.433 203.457ZM221.929 213.112C226.263 216.609 229.532 221.019 232.573 225.581C232.725 225.733 232.877 225.885 233.029 225.961C231.889 226.797 230.748 227.633 229.684 228.546C226.567 225.429 220.637 220.487 217.672 225.505C215.087 229.914 219.116 233.64 222.842 235.616C222.385 236.225 221.929 236.757 221.473 237.365C217.064 234.78 213.034 231.587 209.841 227.557C206.572 223.452 202.315 216.229 206.876 211.44C211.134 207.03 217.9 209.843 221.929 213.112ZM206.42 226.493C207.56 228.166 208.777 229.686 210.145 231.131C207.332 229.914 204.443 229.154 201.326 228.926C197.753 228.622 193.42 229.382 190.227 231.435C191.139 225.505 187.338 220.031 181.56 217.674C172.969 214.101 163.998 218.13 156.243 221.931C155.939 221.931 155.635 221.855 155.331 221.855C156.623 221.171 157.84 220.335 159.056 219.423C163.237 216.153 167.419 213.492 172.589 212.048C183.08 209.083 194.332 211.668 202.771 218.51C202.847 218.586 202.999 218.662 203.075 218.662C203.607 221.551 204.899 224.288 206.42 226.493ZM166.354 224.896C169.091 225.201 171.676 225.733 174.261 226.797C175.478 227.329 176.694 227.862 177.758 228.546C178.899 229.306 183.156 232.119 178.062 233.411C176.314 233.868 172.741 232.347 171.068 231.891C168.483 231.131 165.898 230.142 163.465 229.078C160.5 227.786 157.763 226.189 155.103 224.516C155.103 224.44 155.027 224.364 155.027 224.288C158.676 224.668 162.629 224.516 166.354 224.896ZM170.84 242.003C175.934 243.599 181.712 242.687 185.665 239.342C185.741 244.283 190.15 248.769 193.876 251.506C196.537 253.483 199.502 255.079 202.619 256.372C193.268 255.459 182.776 256.828 180.039 265.419C169.7 264.507 163.77 254.699 159.436 246.108C157.003 241.318 156.623 236.681 155.787 231.511C155.483 229.534 154.951 227.253 153.886 225.429C154.038 225.505 154.19 225.657 154.342 225.733C156.851 232.879 163.694 239.798 170.84 242.003ZM181.94 266.559C185.209 255.992 201.554 257.74 210.829 259.261C211.286 259.413 211.742 259.489 212.122 259.641C212.046 260.173 211.97 260.705 211.894 261.237C211.818 261.161 211.742 261.085 211.59 261.009C208.093 259.793 202.087 261.922 202.847 266.407C203.151 268.156 204.519 269.6 206.116 270.361C207.865 271.121 209.689 270.969 211.438 270.589C211.438 271.425 211.514 272.185 211.59 273.022C205.964 274.694 199.958 277.127 194.104 277.127C188.25 277.051 179.659 274.086 181.94 266.559ZM211.818 262.378C211.59 264.05 211.514 265.799 211.438 267.548C211.438 268.08 211.438 268.612 211.438 269.22C208.853 269.372 205.584 269.22 204.823 266.559C203.683 262.454 209.461 263.062 211.666 262.454C211.666 262.378 211.742 262.378 211.818 262.378ZM183.46 276.291C185.133 277.431 187.109 278.268 189.162 278.724C191.443 279.256 193.648 279.332 195.928 279.18C195.016 279.712 194.18 280.32 193.42 281.081C190.455 283.818 188.402 287.619 188.25 291.648C184.905 288.227 179.735 286.935 174.489 288.227C169.624 289.52 165.67 292.637 162.021 295.982C158.372 299.327 154.798 302.824 151.149 306.322C154.342 301.456 155.559 294.918 158.676 290.052C164.074 281.689 173.121 277.203 182.852 276.519C183.08 276.443 183.308 276.367 183.46 276.291ZM182.32 300.468C181.331 294.613 172.817 296.818 169.395 298.339C165.67 300.011 162.325 302.444 158.676 304.345C157.079 305.181 155.483 305.941 153.886 306.626C155.863 304.725 157.84 302.824 159.816 300.924C163.009 297.883 166.202 294.613 170.004 292.333C173.729 290.128 178.519 288.835 182.776 290.356C187.033 291.876 189.618 296.21 189.694 300.62C189.846 310.047 180.495 313.924 172.589 314.837C165.366 315.673 158.144 314.989 151.453 312.404C157.307 313.088 163.465 312.708 168.787 311.339C173.121 310.275 183.308 306.474 182.32 300.468ZM162.173 304.801C164.606 303.357 166.963 301.76 169.547 300.544C171.524 299.555 177.302 296.97 179.279 299.327C180.343 300.544 180.039 302.748 179.051 303.813C178.443 304.421 177.758 305.029 177.074 305.485C176.01 306.246 174.869 306.93 173.729 307.538C171.144 308.83 168.331 309.667 165.442 310.199C160.272 311.111 155.255 310.579 150.161 310.427C154.266 308.907 158.296 307.006 162.173 304.801ZM175.934 316.433C184.144 315.065 192.355 309.211 191.747 300.011C195.472 303.204 201.478 303.357 207.104 301.988C204.595 303.889 202.163 305.941 200.49 308.602C197.753 313.012 198.133 318.714 201.25 322.743C192.203 328.141 181.56 330.346 171.22 327.609C165.898 326.241 160.957 323.656 156.775 320.083C154.418 318.106 152.442 315.673 150.237 313.468C158.22 317.422 167.343 317.878 175.934 316.433ZM228.62 325.1C229.076 320.235 231.128 315.597 232.877 311.035C233.029 310.731 233.181 310.503 233.409 310.199C234.55 310.883 235.69 311.567 236.83 312.176C235.386 316.129 232.041 323.504 237.895 325.633C243.369 327.609 245.801 320.615 246.182 316.585C246.258 315.521 244.509 315.293 244.281 316.357C243.977 318.03 243.825 319.854 243.064 321.299C242 323.352 239.415 324.948 237.363 323.048C234.702 320.539 237.21 315.825 237.971 312.784C242.456 314.989 247.246 316.357 252.264 316.585C251.123 321.603 249.603 326.469 247.17 331.03C244.813 335.44 241.62 340.002 236.374 338.633C235.766 338.405 235.158 338.177 234.55 337.949C229.684 335.744 228.163 330.118 228.62 325.1ZM276.06 338.253C276.364 336.048 276.212 333.843 275.756 331.639C276.668 332.779 277.656 333.843 278.797 334.832C280.545 336.352 282.674 337.569 284.879 338.329C282.294 339.926 280.393 342.435 279.937 346.008C278.949 353.154 282.674 360.757 287.312 366.003C292.405 371.781 300.008 375.963 307.762 377.027C307.23 377.103 306.698 377.179 306.242 377.255C300.464 378.167 294.838 378.776 289.06 377.407C275.071 374.062 271.118 360.225 269.521 347.604C273.019 345.78 275.451 342.511 276.06 338.253ZM312.552 346.996C309.283 341.218 303.733 336.58 297.119 335.896C300.92 331.867 300.084 325.328 297.651 319.246C298.943 320.311 300.236 321.223 301.68 322.059C306.546 324.872 313.388 326.849 318.482 323.504C326.465 332.171 328.67 343.575 324.564 354.751C323.12 358.628 319.546 363.266 317.19 367.98C316.962 360.757 316.125 353.306 312.552 346.996ZM319.47 307.158C318.026 305.105 316.429 303.281 314.605 301.608C315.973 302.216 317.342 302.748 318.786 303.128C324.716 304.801 331.863 303.737 334.98 297.883C335.512 304.269 341.442 310.047 346.992 312.252C354.214 315.065 362.273 314 369.495 311.263C364.858 314.913 361.285 319.474 355.507 321.527C343.495 325.709 332.547 320.235 322.664 313.924C322.511 313.848 322.435 313.848 322.283 313.772C321.827 311.415 320.763 309.059 319.47 307.158ZM353.378 285.034C347.22 283.666 339.921 285.718 336.576 291.192C336.12 285.566 330.494 281.537 324.336 278.8C333.307 279.408 342.202 277.355 344.483 268.384C356.039 268.46 366.835 274.922 370.788 286.098C372.004 289.52 372.004 293.929 372.536 298.187C367.595 292.105 360.752 286.631 353.378 285.034ZM344.179 259.717C344.027 259.717 343.951 259.717 343.799 259.717C341.822 256.372 337.869 254.547 333.535 253.787C331.254 253.407 328.974 253.255 326.617 253.407C327.757 252.722 328.898 251.962 329.962 251.126C333.611 248.237 337.869 243.827 338.325 238.885C342.354 243.751 349.425 244.511 355.507 242.155C362.957 239.266 369.343 233.564 373.981 227.025C373.905 227.253 373.829 227.481 373.829 227.709C372.232 233.411 370.94 239.266 369.039 244.892C365.466 255.611 355.279 261.39 344.179 259.717ZM368.887 224.744C366.454 226.037 363.87 227.101 361.361 228.166C358.852 229.23 356.267 230.294 353.834 231.587C351.325 232.879 348.056 235.616 345.015 234.78C340.986 233.716 342.962 229.61 345.319 228.166C346.688 227.329 348.36 226.873 349.881 226.341C352.846 225.429 355.887 224.516 358.852 223.832C364.782 222.388 370.712 221.247 376.642 219.955C376.566 220.107 376.414 220.183 376.338 220.335C376.186 220.335 375.958 220.335 375.806 220.411C373.449 221.779 371.32 223.452 368.887 224.744ZM363.717 208.931C359.384 205.89 354.366 203.913 349.121 203.153C339.693 201.784 328.974 204.673 322.435 211.896C321.903 210.755 321.067 209.767 319.927 208.779C320.155 208.779 320.383 208.703 320.611 208.475C320.839 208.247 321.067 207.942 321.371 207.714C330.874 202.621 341.062 199.503 352.009 200.34C362.121 201.1 373.069 205.586 377.934 214.937C378.39 215.773 378.695 216.533 379.075 217.37C378.923 217.294 378.847 217.294 378.695 217.294C372.232 218.054 368.431 212.276 363.717 208.931ZM323.652 154.039C323.044 153.279 322.359 152.519 321.599 151.834C325.553 150.466 329.658 149.477 333.763 148.793C333.763 148.869 333.763 148.945 333.839 149.021C337.337 157.688 338.325 166.508 336.348 175.707C335.36 180.497 333.611 185.058 331.483 189.468C334.524 177.456 332.091 164.227 323.652 154.039ZM335.284 148.565C341.214 147.805 347.22 147.881 352.922 149.173C351.629 159.437 348.208 169.092 343.038 178.064C338.857 185.362 333.687 191.825 328.137 198.135C328.518 197.375 328.898 196.614 329.202 195.854C338.173 182.169 342.886 163.695 335.284 148.565ZM354.29 149.554C359.84 151.074 365.086 153.735 369.648 157.917C376.186 163.923 379.531 171.982 380.291 180.421C370.56 179.28 360.6 182.245 351.933 186.503C347.296 188.708 342.962 191.368 338.629 194.105C336.424 195.55 334.143 196.994 331.939 198.439C331.33 198.819 330.342 199.655 329.202 200.492C336.044 195.018 342.658 189.392 349.197 183.538C353.226 179.888 357.179 176.239 361.133 172.514C364.706 169.093 368.963 165.747 371.928 161.718C372.308 161.186 371.548 160.349 370.94 160.73C366.911 163.695 363.489 167.8 359.84 171.297C355.887 175.023 351.933 178.748 347.904 182.397C340.758 188.936 333.383 195.322 326.085 201.632C326.085 201.632 326.085 201.556 326.161 201.556C340.834 188.175 352.162 169.169 354.29 149.554ZM367.899 192.585C363.565 191.901 359.156 191.977 354.822 192.585C349.729 193.269 344.711 194.714 339.769 196.386C338.249 196.918 336.652 197.451 335.056 197.983C339.085 195.474 343.038 192.965 347.22 190.684C357.559 184.982 368.431 181.333 380.367 182.017C380.443 182.017 380.443 182.017 380.519 182.017C380.747 186.959 380.063 192.053 378.619 196.842C376.566 193.877 371.244 193.041 367.899 192.585ZM378.314 197.831C377.326 200.948 375.958 203.989 374.285 206.802C374.209 206.726 374.209 206.726 374.133 206.65C367.519 200.872 358.548 198.287 349.881 197.983C343.267 197.755 336.5 198.819 330.19 201.252C331.559 199.884 333.915 199.503 335.664 198.971C337.717 198.287 339.693 197.679 341.746 197.147C345.623 196.006 349.577 195.018 353.606 194.486C361.741 193.269 370.484 193.649 377.706 197.907C377.858 197.983 378.162 197.983 378.314 197.831ZM319.699 153.051C326.313 159.665 330.266 168.788 330.646 178.14C331.102 188.936 326.693 199.427 319.014 206.954C318.71 207.258 318.634 207.562 318.71 207.866L318.634 207.942L318.558 207.866C317.646 207.334 316.734 206.878 315.745 206.65C319.318 204.369 322.055 199.884 323.652 196.234C325.629 191.749 326.389 186.731 325.857 181.865C324.336 169.321 311.26 160.806 312.476 147.805C314.985 149.097 317.494 150.846 319.699 153.051ZM311.26 182.549C308.599 190.076 298.943 193.649 292.253 188.86C284.803 183.538 286.323 174.642 290.885 167.952C295.066 161.718 300.54 156.776 306.394 152.138L306.47 152.138C302.061 157.004 298.031 162.174 295.522 168.332C293.774 172.666 290.353 183.158 296.131 186.047C301.832 188.936 305.558 177.988 307.078 174.338C308.599 170.537 309.815 166.66 310.499 162.63C310.727 161.414 310.88 160.121 310.956 158.905C312.78 166.279 313.845 175.251 311.26 182.549ZM309.663 150.466C309.207 152.671 309.207 154.875 309.055 157.08C308.827 160.349 308.219 163.543 307.382 166.736C306.546 169.701 305.558 172.666 304.265 175.479C303.657 176.771 303.049 178.064 302.365 179.28C301.756 180.345 300.54 183.31 299.476 183.766C298.259 183.538 297.043 183.386 295.826 183.158L295.294 181.789C295.066 181.029 295.066 180.192 295.066 179.432C295.066 177.684 295.294 175.935 295.674 174.262C296.359 171.145 297.575 168.104 299.02 165.291C301.908 159.893 305.786 155.104 309.663 150.466ZM309.739 146.893C307.306 151.606 299.019 151.226 294.534 152.519C288.984 154.115 283.662 156.624 279.101 160.121C271.118 166.203 265.036 176.011 265.492 186.275C264.58 185.971 263.515 185.895 262.451 185.895C262.451 185.59 262.451 185.286 262.375 184.982C263.059 166.812 272.715 150.238 291.341 145.828C295.978 144.764 300.54 144.536 304.797 145.296C304.721 146.512 306.546 146.969 306.926 145.752C307.915 145.98 308.903 146.284 309.891 146.664C309.891 146.741 309.815 146.741 309.739 146.893ZM248.918 157.536C256.369 165.063 259.866 175.707 260.246 186.123C259.714 186.275 259.258 186.427 258.802 186.655C257.509 176.695 251.579 167.8 243.445 162.022C239.111 158.905 234.093 156.7 228.924 155.332C224.058 154.115 217.596 154.267 213.947 150.39C225.502 145.904 239.491 148.033 248.918 157.536ZM217.14 175.403C218.508 178.976 220.029 182.701 222.081 185.971C223.146 187.643 225.198 190.532 227.555 190.228C233.713 189.392 228.391 176.163 227.251 173.426C224.742 167.42 221.473 161.794 218.052 156.32C223.678 159.361 228.391 163.619 231.661 169.321C235.69 176.315 237.515 187.871 229 192.509C219.344 197.831 213.49 186.199 211.894 178.52C210.373 171.221 211.058 164.075 212.806 157.004C213.262 163.238 214.935 169.473 217.14 175.403ZM213.947 153.507C217.064 158.449 220.181 163.39 222.842 168.56C224.362 171.449 225.731 174.49 226.795 177.532C227.403 179.28 230.292 189.24 225.807 187.415C223.678 186.579 222.005 181.713 221.093 179.736C219.725 176.771 218.508 173.73 217.52 170.537C215.695 165.063 214.631 159.361 213.947 153.507ZM201.402 167.496C198.817 171.982 197.373 177.075 197.221 182.245C196.841 191.977 200.49 201.784 207.864 208.171C207.028 208.551 206.268 209.159 205.584 209.843C202.999 207.486 200.794 204.901 198.893 202.088C198.969 202.012 198.969 201.86 198.817 201.708C198.665 201.556 198.513 201.404 198.361 201.252C190.607 189.012 189.998 173.198 199.502 160.958C202.847 156.624 207.18 153.355 211.97 151.15C209.157 157.08 204.671 161.87 201.402 167.496ZM145.979 196.082C150.161 195.55 154.266 194.714 158.524 194.638C163.237 194.638 167.875 195.17 172.436 196.158C178.823 197.603 184.905 199.884 190.759 202.697C181.103 200.188 170.764 201.1 162.097 206.118C152.822 205.586 145.143 198.895 142.178 190.228C140.734 186.047 140.658 181.637 141.494 177.456C141.57 177.532 141.722 177.532 141.874 177.532C153.354 177.988 163.541 183.842 173.197 189.62C180.115 193.725 186.805 198.135 193.344 202.697C186.805 198.895 179.659 196.082 172.36 194.41C163.998 192.509 154.038 191.673 145.751 194.486C145.067 194.79 145.067 196.234 145.979 196.082ZM172.589 187.415C163.161 181.789 153.126 176.315 141.95 175.859C143.014 171.677 145.067 167.648 147.576 164.151C149.477 161.49 151.757 159.133 154.342 157.004C154.342 157.156 154.418 157.384 154.57 157.536C162.325 165.519 169.928 173.654 177.454 181.865C184.296 189.392 190.835 197.299 197.829 204.673C189.77 198.363 181.331 192.585 172.589 187.415ZM174.337 162.022C175.325 167.42 176.998 172.59 179.279 177.608C180.951 181.333 183.004 184.982 185.361 188.327C183.232 185.971 181.027 183.538 178.899 181.181C171.296 172.742 163.541 164.455 155.711 156.32C155.635 156.168 155.483 156.168 155.331 156.092C160.196 152.214 165.898 149.477 171.98 148.261C172.893 148.109 173.729 147.957 174.641 147.881C172.969 152.29 173.577 157.536 174.337 162.022ZM187.033 176.391C187.794 182.549 189.01 189.392 192.279 194.866C187.87 189.772 184.144 184.222 181.255 178.14C179.203 173.73 177.606 169.016 176.542 164.303C175.249 158.525 175.478 153.583 176.162 147.729C179.735 147.501 183.384 147.805 186.805 148.869C188.63 149.401 190.227 150.162 191.747 150.998C191.595 151.074 191.519 151.074 191.367 151.226C184.829 157.917 185.969 167.952 187.033 176.391ZM204.139 211.668C203.303 213.036 202.923 214.557 202.923 216.077C195.624 210.603 186.501 207.942 177.378 209.083C172.817 209.691 168.331 211.136 164.378 213.34C160.272 215.697 155.787 221.475 150.769 221.627C161.033 201.556 186.957 198.743 204.139 211.668ZM153.658 230.979C154.19 233.564 154.266 236.225 154.722 238.809C155.635 243.827 158.22 248.313 160.805 252.646C164.834 259.261 171.068 267.472 179.659 266.711C179.583 267.016 179.583 267.32 179.507 267.624C179.355 268.536 179.431 269.372 179.507 270.133C167.951 270.133 158.22 261.922 152.442 252.494C146.968 243.523 145.751 233.031 149.857 223.452C151.757 225.809 153.05 227.938 153.658 230.979ZM134.88 261.085C136.78 262.226 138.757 263.214 140.734 264.203C140.354 264.126 139.897 264.05 139.517 263.974C134.119 262.91 128.722 261.77 123.324 260.629C118.534 259.565 113.592 258.12 108.727 257.436C110.095 250.67 113.288 244.283 118.382 239.494C119.066 238.885 119.751 238.277 120.435 237.745C119.446 247.629 126.897 256.296 134.88 261.085ZM124.084 262.53C129.482 263.67 134.88 264.735 140.354 265.799C142.71 266.255 145.067 266.711 147.348 267.168C144.915 267.168 142.482 267.32 140.125 267.472C129.634 268.232 119.142 270.817 109.639 275.455C109.411 275.531 109.335 275.683 109.259 275.835C108.347 272.185 107.891 268.46 107.891 264.811C107.891 262.91 108.119 261.009 108.347 259.109C113.44 260.705 118.914 261.466 124.084 262.53ZM110.475 276.823C120.131 272.718 130.166 269.981 140.658 269.22C145.523 268.916 150.313 268.992 155.179 269.372C158.6 269.677 161.945 270.361 165.366 270.969C157.687 270.969 149.933 273.022 143.091 276.215C134.804 280.092 125.833 286.479 121.195 294.613C119.675 293.473 118.306 292.105 117.014 290.66C113.44 286.631 110.932 281.689 109.487 276.519C109.715 276.899 110.095 276.975 110.475 276.823ZM165.214 268.916C162.097 268.308 158.904 267.776 155.787 267.168C155.027 267.016 154.342 266.863 153.582 266.711C137.997 262.834 122.107 254.395 121.955 237.137C121.955 236.909 121.879 236.757 121.803 236.681C125.833 233.868 130.318 232.347 134.956 231.739C133.967 239.874 138.909 249.149 143.927 254.927C149.705 261.542 157.535 265.875 165.746 268.688C165.974 268.764 166.126 268.916 166.354 268.992C165.974 268.992 165.594 268.916 165.214 268.916ZM153.81 258.348C155.711 260.705 157.84 262.986 160.272 264.963C155.103 262.378 150.237 259.033 146.284 254.775C143.09 251.43 140.582 247.401 138.985 243.143C137.541 239.266 137.389 235.54 137.084 231.587C139.593 231.435 142.102 231.511 144.687 231.891C144.915 231.891 145.143 231.891 145.295 231.815C145.219 232.195 145.219 232.499 145.143 232.879C144.307 242.155 148.108 251.126 153.81 258.348ZM129.406 299.175C126.821 298.339 124.464 297.046 122.259 295.526C125.148 292.257 127.733 288.987 131.078 286.174C134.728 283.057 138.757 280.472 143.091 278.344C149.553 275.226 156.243 273.554 163.237 272.794C152.138 277.431 143.471 287.771 142.102 300.163C137.769 300.468 133.739 300.62 129.406 299.175ZM144.307 301.304C144.611 301.076 144.611 300.62 144.383 300.315C145.143 293.473 148.108 286.783 153.354 281.765C160.424 274.922 169.852 272.109 179.583 272.49C179.811 272.49 179.963 272.413 180.115 272.337C180.495 273.174 181.027 273.934 181.636 274.618C173.577 274.846 165.594 278.952 160.196 284.882C157.231 288.151 155.255 291.952 153.734 296.058C151.909 301.076 150.237 306.474 145.751 309.667L145.675 309.667C145.371 309.591 145.067 309.667 144.839 309.819C144.307 307.082 144.079 304.193 144.307 301.304ZM157.231 322.896C161.793 326.393 167.115 328.826 172.741 329.966C183.004 332.095 193.876 329.966 202.315 323.808C202.391 323.884 202.543 324.036 202.619 324.112C203.531 324.948 204.519 325.556 205.508 326.013C203.835 326.925 202.163 327.837 200.414 328.598C200.262 328.446 200.034 328.369 199.806 328.598C199.35 328.902 198.969 329.206 198.513 329.51C184.753 335.44 169.015 337.113 156.091 327.609C153.734 325.861 151.681 323.884 150.085 321.603C150.237 321.223 150.161 320.691 149.553 320.539C149.477 320.539 149.325 320.463 149.249 320.463C147.424 317.726 146.132 314.761 145.295 311.644C149.477 315.217 152.822 319.55 157.231 322.896ZM188.25 356.043C185.893 364.254 185.589 373.15 189.314 380.98C184.525 382.957 179.203 383.489 173.881 382.881C173.045 372.237 175.858 361.974 181.56 352.926C184.449 348.365 187.87 344.411 191.595 340.686C194.788 338.025 197.981 335.364 201.022 332.551C201.022 332.627 200.946 332.627 200.946 332.703C194.712 338.481 190.607 347.985 188.25 356.043ZM197.221 339.774C192.811 350.493 193.191 362.886 200.034 372.845C197.449 376.191 194.256 378.623 190.759 380.296C187.109 372.237 187.794 363.266 190.303 354.979C191.519 350.874 193.268 346.844 195.244 343.119C195.852 341.978 196.537 340.914 197.221 339.774ZM172.512 382.653C165.518 381.513 158.828 378.395 153.734 373.53C153.734 373.53 153.81 373.53 153.81 373.454C162.629 366.459 170.688 358.4 179.203 351.026C180.799 349.657 182.396 348.289 183.992 346.996C175.858 357.26 170.84 369.576 172.512 382.653ZM171.524 342.359C180.039 341.522 187.946 337.949 195.092 333.311C196.993 332.551 198.817 331.715 200.566 330.802C192.431 337.113 183.992 342.282 174.109 345.4C169.091 346.996 163.922 348.061 158.676 348.517C153.734 348.973 147.12 349.885 142.862 346.92C142.71 346.844 142.558 346.768 142.406 346.844C142.406 342.435 143.395 338.101 145.599 334.452C152.442 340.914 162.325 343.347 171.524 342.359ZM146.512 333.083C148.032 330.878 150.085 328.978 152.67 327.457C158.524 332.627 166.202 335.972 174.565 336.656C178.975 337.037 183.46 336.656 187.794 335.668C174.261 341.902 158.828 343.803 146.512 333.083ZM155.179 350.417C161.109 350.189 166.963 349.201 172.665 347.604C177.834 346.16 182.928 344.107 187.794 341.522C184.677 344.183 181.56 346.92 178.443 349.581C169.776 356.956 160.576 364.254 152.67 372.465L152.594 372.541C146.892 366.611 142.862 357.336 142.482 348.441C144.839 351.482 151.986 350.569 155.179 350.417ZM202.239 372.009C202.239 371.933 202.239 371.933 202.239 371.933C202.391 371.477 202.01 371.173 201.554 371.173C198.133 366.003 196.157 359.845 196.385 353.23C196.613 343.499 201.098 334.224 208.169 327.609C208.321 327.457 208.397 327.305 208.473 327.153C209.917 327.457 211.438 327.457 212.958 327.305C206.268 336.2 200.11 347.148 201.174 358.628C201.63 363.19 203.075 367.6 205.964 371.173C209.233 375.202 215.163 377.407 216.151 382.881C210.525 380.676 205.736 376.875 202.239 372.009ZM216.075 377.559C213.186 369.576 211.134 360.909 213.871 352.622C216.455 344.867 224.514 337.797 232.953 339.774C233.409 340.002 233.865 340.23 234.398 340.458C235.006 340.686 235.69 340.914 236.298 340.99C239.719 342.815 242.38 346.236 242.684 350.113C243.14 354.751 240.404 359.313 237.971 363.038C233.409 369.956 227.327 375.354 220.257 379.536C223.754 372.541 229 366.535 232.269 359.313C234.017 355.359 238.883 344.715 232.269 342.435C225.883 340.23 221.017 350.721 219.344 355.207C216.607 362.278 215.999 370.032 216.075 377.559ZM219.572 360.605C220.409 357.26 221.625 354.067 223.374 351.026C224.742 348.669 231.356 339.774 233.333 346.692C234.169 349.581 232.421 353.306 231.432 355.967C230.064 359.465 228.239 362.734 226.187 365.927C223.146 370.641 219.725 375.126 217.52 380.296C217.824 373.682 217.9 367.143 219.572 360.605ZM234.55 379.46C239.719 379.308 244.737 378.547 249.147 375.582C257.661 369.728 261.083 359.008 260.398 348.973C261.463 349.277 262.679 349.353 264.048 349.201C262.451 357.792 260.246 367.904 254.696 374.67C251.579 378.471 247.094 380.296 242.532 381.817C237.819 383.337 232.877 384.554 227.859 384.782C225.731 384.858 223.678 384.706 221.701 384.402C221.777 383.945 221.321 383.413 220.789 383.793C220.637 383.945 220.485 384.021 220.333 384.173C219.877 384.097 219.344 383.945 218.888 383.793C223.07 379.688 229.076 379.612 234.55 379.46ZM274.159 377.635C267.317 369.804 264.58 359.084 266.404 348.973C266.404 348.897 266.404 348.897 266.404 348.821C267.089 348.669 267.773 348.441 268.457 348.137C267.925 359.237 272.715 372.541 283.206 377.483C287.92 379.688 293.242 380.448 298.335 380.22C303.885 379.992 311.944 376.571 316.353 380.98C316.429 381.056 316.581 381.132 316.657 381.208C304.341 391.244 284.879 389.876 274.159 377.635ZM370.788 323.808C363.794 328.141 355.431 329.89 347.296 329.282C338.021 328.598 329.126 324.72 322.359 318.258C322.283 318.182 322.283 318.182 322.207 318.106C322.359 317.422 322.435 316.661 322.435 315.901C330.342 322.135 341.062 325.937 351.097 324.492C356.267 323.732 360.828 321.527 364.706 318.106C368.963 314.38 372.917 309.819 378.619 308.983C378.999 309.211 379.455 309.363 379.911 309.515C380.519 309.743 380.899 309.363 381.051 308.831C379.759 314.913 376.49 320.235 370.788 323.808ZM380.443 307.69C380.139 307.538 379.835 307.462 379.531 307.31C379.531 307.082 379.379 306.93 379.075 306.93C378.999 306.93 378.923 306.93 378.847 306.93C378.771 306.854 378.619 306.778 378.543 306.702C378.695 306.322 378.619 305.789 378.162 305.485C377.63 305.105 377.098 304.801 376.49 304.497C376.338 304.269 376.186 304.041 376.11 303.737C376.262 303.433 376.262 303.128 376.11 302.824C375.882 302.444 375.577 302.064 375.349 301.684C374.361 298.263 374.513 294.233 374.057 291.04C373.449 286.326 371.548 281.841 368.735 278.039C363.109 270.513 354.062 266.483 344.787 267.396C344.863 266.787 345.015 266.255 345.015 265.647C345.015 265.571 345.015 265.495 345.015 265.419C345.623 265.419 346.232 265.419 346.764 265.419C347.448 265.495 348.132 265.495 348.816 265.571C366.378 267.016 380.215 281.005 381.736 298.947C381.964 301.988 381.888 305.029 381.355 307.918C381.051 307.766 380.747 307.69 380.443 307.69ZM397.473 261.618C392.607 261.694 387.666 261.846 382.8 261.998C379.227 262.15 375.577 262.226 372.004 262.454C376.794 261.542 381.431 260.097 385.765 258.348C392.835 255.383 400.666 250.138 404.315 243.143C408.193 248.541 410.777 255.003 411.918 261.618C407.128 261.161 402.263 261.542 397.473 261.618ZM412.146 263.062C412.298 263.898 412.374 264.735 412.45 265.571C413.058 272.337 412.146 279.484 409.029 285.642C407.052 281.993 403.403 278.876 400.21 276.519C396.333 273.554 391.923 271.273 387.362 269.524C379.911 266.635 371.852 265.191 363.793 264.507C370.104 264.279 376.49 263.974 382.8 263.746C387.666 263.594 392.607 263.442 397.473 263.366C402.339 263.214 407.28 263.518 412.146 263.062ZM395.724 250.366C392.303 253.255 388.35 255.535 384.244 257.208C377.478 259.945 370.56 261.161 363.413 262.074C363.717 261.922 364.022 261.694 364.326 261.542C370.864 260.705 377.174 254.623 381.584 250.137C386.145 245.5 391.315 238.657 391.467 231.815C395.8 234.248 399.678 237.365 402.871 241.318C403.023 241.546 403.175 241.775 403.403 242.003C400.894 244.892 398.689 247.857 395.724 250.366ZM385.537 270.513C390.022 272.109 394.28 274.314 398.233 277.051C402.339 279.94 404.923 283.513 408.269 287.087C407.66 288.151 406.976 289.215 406.216 290.204C403.403 293.853 399.754 296.742 395.572 298.415C390.25 282.981 376.87 270.741 361.285 266.331C360.296 265.875 359.232 265.495 358.168 265.191C367.443 266.255 376.642 267.244 385.537 270.513ZM374.437 275.911C372.46 273.63 370.256 271.653 367.747 269.981C379.759 275.911 389.186 286.174 394.204 298.947C391.011 300.087 387.514 300.468 384.016 300.087C383.56 291.344 380.063 282.449 374.437 275.911ZM382.648 232.879C382.876 231.283 382.952 229.686 382.952 228.09C385.613 229.002 388.122 230.066 390.555 231.359C390.479 231.435 390.327 231.511 390.25 231.663C389.034 234.932 388.274 238.125 386.449 241.166C384.777 244.055 382.724 246.64 380.443 249.073C376.794 252.874 372.765 256.448 368.127 258.957C376.034 252.874 381.355 243.219 382.648 232.879ZM374.665 248.921C368.431 258.653 357.103 264.735 345.471 262.91C345.243 262.91 345.091 262.91 344.863 262.986C344.787 262.53 344.711 262.074 344.559 261.694C352.998 263.518 362.349 259.413 367.367 252.57C370.712 248.009 371.852 242.231 373.297 236.833C374.209 233.564 375.045 230.294 375.958 227.101C376.718 224.212 377.25 221.247 379.531 219.194C379.911 220.487 380.215 221.779 380.367 223.072C380.367 223.148 380.367 223.148 380.367 223.224C381.812 231.967 379.227 241.775 374.665 248.921ZM202.01 115.265C201.25 102.949 203.379 90.632 207.408 79C211.058 68.585 216.303 58.701 222.918 49.882C229.228 41.519 236.982 34.524 244.433 27.226C251.123 20.611 257.433 13.617 261.615 5.17796C263.211 12.781 268.153 19.091 273.703 24.489C281.229 31.711 288.832 38.326 294.762 46.993C306.394 64.023 312.248 84.398 313.312 104.926C313.997 118.154 312.78 131.459 310.347 144.46C309.435 144.156 308.523 143.851 307.61 143.547C309.055 137.541 309.283 131.003 306.318 125.453C303.809 120.739 299.172 117.394 293.926 116.938C296.131 110.399 293.85 102.797 287.844 99.071C284.423 96.943 277.884 96.258 272.486 94.51C284.803 85.919 281.99 67.14 269.217 60.298C262.147 56.572 252.872 56.572 245.953 60.678C239.947 64.251 236.982 71.322 237.819 78.164C238.655 85.158 243.673 92.153 250.211 95.118C245.649 97.399 240.404 97.855 235.994 100.364C229.684 104.013 226.643 112.072 229.304 118.839C222.157 116.786 214.175 121.271 212.806 128.646C211.59 135.26 214.555 142.635 220.029 146.436C217.444 146.893 214.935 147.653 212.502 148.641C211.286 146.512 210.069 144.308 208.853 142.179C204.976 133.588 202.543 124.541 202.01 115.265ZM123.4 204.521C115.721 197.831 109.107 189.924 103.937 181.105C92.1531 160.882 89.5681 137.161 86.9071 114.353C85.7671 104.241 85.0071 93.3689 79.6851 84.474C88.1241 87.591 97.0951 88.504 106.066 88.96C116.557 89.492 126.973 89.948 137.313 92.001C156.623 95.878 175.401 104.241 189.238 118.534C197.981 127.582 204.291 138.53 210.297 149.401C209.233 149.934 208.245 150.466 207.256 151.074C204.899 137.997 190.303 131.155 178.747 138.073C175.782 132.371 169.091 130.395 162.933 131.459C158.676 132.219 154.038 135.032 149.401 137.085C149.477 129.254 147.5 120.815 141.266 115.569C135.108 110.323 126.821 110.704 119.979 114.505C106.902 121.804 103.025 140.734 114.809 151.226C120.131 155.94 128.113 157.764 134.804 155.256C132.599 159.209 129.634 162.706 127.885 166.964C125.605 172.514 126.289 180.345 132.067 183.158C128.113 190.456 128.874 199.96 134.5 206.194C139.517 211.82 147.652 213.873 154.798 211.896C152.366 214.405 150.237 217.37 148.64 220.487C139.745 215.925 131.078 211.212 123.4 204.521ZM77.7081 320.767C57.866 314.152 43.3451 298.187 28.4441 284.274C20.6131 276.975 12.4781 270.057 3.20303 264.735C12.022 258.577 20.917 252.342 29.736 246.184C38.859 239.798 47.9061 232.955 57.6371 227.557C74.971 217.902 95.118 213.568 114.809 214.937C126.137 215.697 137.313 218.282 147.728 222.692C147.424 223.452 147.044 224.288 146.816 225.049C141.038 219.423 132.295 216.457 124.54 219.194C117.926 221.551 112.604 227.177 111.084 234.02C104.241 231.663 96.1831 234.476 92.8371 241.166C90.7091 245.576 90.7091 250.518 90.1011 255.231C90.0251 255.916 89.8721 256.676 89.7201 257.512C85.3111 252.798 79.761 248.769 73.223 248.085C65.924 247.324 58.93 251.506 54.9011 257.436C51.0991 263.062 49.9591 270.513 52.6961 276.823C55.2811 282.829 61.2871 287.391 67.8251 287.923C72.0061 288.227 75.9601 286.783 79.6091 284.882C83.7141 282.753 87.896 280.016 91.317 276.823C91.773 277.355 92.153 277.887 92.533 278.496C95.422 283.133 94.9661 288.531 96.4111 293.625C98.4631 301 106.598 304.725 112.832 300.391C117.242 312.404 132.067 316.433 142.102 308.45C142.33 310.047 142.71 311.567 143.167 313.088C123.324 323.276 99.5281 328.065 77.7081 320.767ZM169.624 434.732C149.781 446.896 125.985 447.656 103.481 450.165C92.305 451.381 81.129 453.13 70.41 456.779C80.521 442.41 83.258 424.544 86.679 407.59C91.013 386.302 98.159 365.623 109.107 346.692C114.581 337.265 121.195 328.217 129.558 321.071C134.424 319.246 139.213 317.041 143.775 314.457C144.459 316.357 145.371 318.258 146.436 320.007C141.114 319.778 135.944 322.82 133.207 327.457C129.558 333.691 130.622 341.294 133.739 347.528C127.201 349.657 124.92 357.792 126.365 364.102C127.429 368.892 130.622 373.834 132.979 378.852C126.061 376.875 118.534 379.612 114.049 385.314C108.803 392.004 107.738 401.28 110.323 409.186C112.832 416.941 118.534 423.708 126.061 426.977C134.272 430.474 144.231 429.714 150.769 423.327C157.763 416.561 157.763 404.625 153.962 396.11C158.372 397.098 162.781 398.391 167.039 398.771C174.033 399.455 181.712 397.25 185.209 390.864C189.086 393.905 194.332 394.665 199.046 392.993C204.139 391.168 207.636 386.986 209.841 382.273C210.829 382.881 211.894 383.489 212.958 384.021C212.73 384.097 212.502 384.249 212.35 384.478C201.326 403.484 188.782 423.023 169.624 434.732ZM313.692 453.282C309.815 464.458 304.493 475.102 298.639 485.366C293.089 495.097 286.551 503.536 278.34 511.139C271.498 517.449 264.276 523.835 261.007 532.655C257.509 525.508 252.112 519.578 246.486 513.876C239.567 506.957 232.649 500.039 226.415 492.512C213.11 476.242 203.075 457.236 201.174 436.024C200.11 424.468 201.326 412.684 204.443 401.508C207.864 396.338 211.058 391.016 214.175 385.618C214.403 385.238 214.403 384.858 214.251 384.63C215.619 385.238 217.064 385.694 218.508 386.074C215.239 390.18 214.403 396.034 215.923 401.128C217.824 407.59 222.918 412.456 228.772 415.421C226.339 424.012 231.965 432.223 239.415 436.328C241.772 437.621 244.281 438.533 246.79 439.369C244.737 441.194 243.14 444.235 242.076 446.288C240.328 449.481 239.339 453.054 239.491 456.703C239.795 463.546 243.445 470.16 249.147 473.962C261.463 482.02 279.177 473.505 281.534 459.288C282.75 451.914 280.317 443.551 274.691 438.457C279.253 436.784 284.499 435.796 287.692 433.667C293.242 430.018 296.359 423.556 296.054 416.941C308.371 413.748 314.453 399.683 307.838 388.583C307.838 388.507 307.762 388.507 307.762 388.507C308.371 388.279 308.903 388.127 309.511 387.899C322.435 407.362 321.067 431.995 313.692 453.282ZM406.292 337.569C414.275 346.084 421.801 355.283 428.415 364.939C434.802 374.214 438.375 384.402 440.199 395.502C441.948 405.917 442.404 416.485 443.849 426.977C445.217 437.012 447.498 446.972 452.288 455.791C436.17 447.504 417.468 447.884 399.754 446.668C388.806 445.907 377.858 444.387 367.823 439.749C358.852 435.644 350.337 430.094 342.202 424.544C333.763 418.842 325.476 412.151 319.166 404.093C317.57 398.086 315.061 392.308 311.64 386.986C312.628 386.53 313.54 386.074 314.453 385.466C317.95 396.262 330.646 400.747 340.302 394.817C343.875 402.344 352.694 405.689 360.524 402.344C364.934 400.443 368.507 397.25 372.536 394.817C373.221 394.437 373.905 394.057 374.589 393.677C372.612 400.139 374.285 407.286 379.075 412.304C384.777 418.234 393.9 420.286 401.654 417.701C416.936 412.608 427.579 388.431 413.59 376.571C407.888 371.781 398.081 368.816 390.631 371.477C391.771 368.512 393.139 365.623 393.824 362.582C395.116 357.184 393.9 350.874 388.73 348.365C394.204 337.645 388.958 324.72 377.478 320.995C378.695 319.55 379.759 318.03 380.595 316.433C390.25 321.983 398.689 329.358 406.292 337.569ZM502.236 278.42C493.95 284.426 486.651 291.648 478.136 297.35C469.393 303.128 459.738 307.158 449.931 310.731C440.047 314.304 429.86 318.486 419.444 319.778C406.596 321.451 394.052 317.422 381.888 313.62C382.496 312.024 383.028 310.427 383.332 308.754C392.911 315.065 405.38 310.351 409.181 300.011C415.111 303.357 422.409 298.871 425.298 293.169C427.427 289.063 428.415 282.373 430.62 276.975C434.345 283.666 443.393 287.391 450.615 288.075C458.522 288.835 465.972 284.578 469.85 277.659C477.3 264.355 469.85 243.067 453.428 241.242C444.153 240.178 436.398 246.716 430.544 253.255C429.632 249.149 428.872 244.968 427.427 242.307C424.082 236.148 417.012 233.031 410.321 234.02C409.561 227.633 405.684 221.779 399.678 219.194C394.052 216.686 387.133 217.446 382.268 221.171C381.964 219.727 381.584 218.206 381.051 216.838C382.496 216.153 384.016 215.469 385.461 214.785C405.988 209.083 427.123 210.223 446.89 218.814C456.317 222.92 465.136 228.242 473.347 234.4C482.166 241.014 489.844 248.921 498.131 256.144C504.897 261.998 512.728 267.092 521.471 268.536C514.705 270.893 508.166 274.162 502.236 278.42Z" fill="#BBBBBB"/>
</g>
<defs>
<clipPath id="clip0_746_1117">
<rect width="372" height="537" fill="white" transform="translate(372 537) rotate(-180)"/>
</clipPath>
</defs>
</svg>
