<svg width="344" height="598" viewBox="0 0 344 598" fill="none" xmlns="http://www.w3.org/2000/svg">
<g opacity="0.2" clip-path="url(#clip0_1111_1415)">
<g opacity="0.2">
<path d="M292.356 591.797L282.28 584.745C282.28 584.745 275.228 590.79 274.22 591.797C273.212 592.808 282.28 603.887 283.288 603.887C284.296 603.887 288.326 604.898 289.334 602.881C290.341 600.864 292.356 591.797 292.356 591.797Z" fill="white"/>
<path d="M286.311 605.701C285.404 605.701 284.598 605.603 283.993 605.499C283.691 605.499 283.489 605.401 283.288 605.401C281.071 605.401 273.817 595.321 272.91 593.31C272.507 592.201 272.507 591.394 273.111 590.79C274.119 589.782 280.568 584.241 281.273 583.636L282.18 582.83L294.069 591.092L293.868 592.099C293.667 593.004 291.752 601.367 290.744 603.488C289.838 605.297 288.024 605.701 286.311 605.701ZM283.691 602.378C283.893 602.378 284.094 602.378 284.396 602.476C286.613 602.777 287.822 602.679 288.024 602.176C288.629 600.968 289.938 595.928 290.744 592.403L282.482 586.558C280.467 588.271 277.242 591.092 275.933 592.299C276.84 594.616 282.18 601.171 283.691 602.378Z" fill="white"/>
<path d="M272.205 593.813C272.205 591.797 265.152 585.752 265.152 585.752L259.106 593.813L258.099 590.79C258.099 590.79 263.137 599.858 264.144 599.858C265.152 599.858 270.19 601.876 271.197 600.864C272.205 599.858 272.205 593.813 272.205 593.813Z" fill="white"/>
<path d="M270.19 602.679C268.981 602.679 267.469 602.274 265.655 601.771C265.051 601.569 264.346 601.367 264.043 601.367C263.338 601.367 262.532 601.367 259.308 596.026L258.501 597.038L256.587 591.293L259.308 590.084C259.408 590.286 259.509 590.386 259.61 590.588L264.85 583.636L266.059 584.643C269.484 587.565 273.615 591.595 273.615 593.813C273.615 596.836 273.413 600.766 272.204 601.974C271.701 602.476 271.097 602.679 270.19 602.679ZM264.648 598.448C265.051 598.546 265.655 598.651 266.461 598.951C267.368 599.153 269.283 599.754 270.089 599.754C270.391 598.853 270.593 596.333 270.593 594.015C270.391 593.206 268.074 590.588 265.252 588.069L261.222 593.513C262.734 595.726 264.043 597.743 264.648 598.448Z" fill="white"/>
<path d="M223.841 591.797L230.894 584.745L239.962 593.813C239.962 593.813 242.985 598.853 241.977 598.853C240.969 598.853 233.917 599.858 232.909 600.864C231.901 601.876 224.848 600.864 224.848 600.864L223.841 591.797Z" fill="white"/>
<path d="M230.188 602.881C228.879 602.881 227.065 602.777 224.647 602.378L223.438 602.176L222.228 591.193L230.894 582.527L241.272 592.906C244.295 597.945 243.791 598.853 243.489 599.356C243.186 599.858 242.582 600.159 241.977 600.159C240.969 600.159 234.823 601.17 233.917 601.771C233.715 602.274 233.11 602.881 230.188 602.881ZM226.259 599.558C228.879 599.858 231.297 599.956 232.002 599.754C233.413 598.651 237.746 597.945 240.264 597.639C239.861 596.836 239.357 595.83 238.753 594.923L230.894 587.061L225.453 592.501L226.259 599.558ZM241.977 597.338H241.877H241.977Z" fill="white"/>
<path d="M206.712 592.808L215.78 583.737L224.345 596.431C224.345 596.431 222.833 598.853 218.803 599.858C214.772 600.864 210.742 600.864 209.734 599.858C208.727 598.853 206.712 596.836 206.712 596.836V592.808Z" fill="white"/>
<path d="M213.16 602.176C211.347 602.176 209.634 601.876 208.727 600.968L205.302 597.541V592.299L216.083 581.52L226.259 596.633L225.755 597.443C225.654 597.541 223.841 600.361 219.307 601.471C217.594 601.771 215.276 602.176 213.16 602.176ZM208.223 596.229L210.843 598.853C211.347 599.251 214.47 599.454 218.501 598.448C220.516 597.945 221.826 597.038 222.531 596.431L215.579 586.155L208.223 593.513V596.229Z" fill="white"/>
<path d="M216.788 641.17C216.788 641.17 207.72 641.17 204.697 639.153C201.674 637.136 191.598 626.057 191.598 619C191.598 611.949 192.606 599.858 204.697 587.767C205.402 587.062 211.951 597.338 216.183 604.089C218.299 607.516 216.788 641.17 216.788 641.17Z" fill="white"/>
<path d="M218.198 642.678H216.788C215.78 642.678 207.216 642.58 203.891 640.361C200.566 638.147 190.086 626.762 190.086 619C190.086 610.944 191.497 598.853 203.588 586.659C203.891 586.356 204.395 586.155 204.898 586.155C205.906 586.256 206.913 586.356 217.392 603.286C219.508 606.707 218.501 633.212 218.198 641.17V642.678ZM204.798 589.782C194.319 600.766 193.11 611.649 193.11 619C193.11 625.247 202.58 635.928 205.503 637.945C207.216 639.055 211.951 639.558 215.276 639.656C215.981 623.942 215.981 606.909 214.873 604.996C208.626 594.819 205.906 591.193 204.798 589.782Z" fill="white"/>
<path d="M286.311 636.13C286.311 636.13 291.651 636.13 294.372 634.217C297.092 632.304 306.462 624.04 306.462 611.949C306.462 605.094 303.137 597.541 292.356 585.752C291.45 584.744 282.079 600.968 281.273 606.909C280.265 614.266 286.311 636.13 286.311 636.13Z" fill="white"/>
<path d="M286.311 637.645H285.202L284.9 636.535C284.698 635.628 278.855 614.267 279.862 606.707C280.568 601.269 289.233 585.147 291.852 584.241C292.457 584.039 293.163 584.241 293.565 584.643C303.742 595.726 308.075 603.887 308.075 611.851C308.075 625.554 296.689 634.315 295.379 635.327C292.256 637.645 286.916 637.645 286.311 637.645ZM292.155 587.868C289.736 591.092 283.389 602.476 282.684 607.112C281.878 613.157 286.21 629.987 287.42 634.622C289.233 634.518 291.954 634.113 293.465 633.01C294.674 632.102 304.951 624.242 304.951 612.047C304.951 605.094 301.123 597.841 292.155 587.868Z" fill="white"/>
<path d="M254.673 594.015C254.169 594.015 253.565 593.911 252.758 593.813C252.154 593.911 251.045 593.911 249.836 593.206C247.116 591.596 245.202 587.263 244.194 580.311C244.093 579.404 243.993 578.094 243.791 576.381C243.791 575.777 243.891 575.374 244.194 574.971C242.884 572.956 242.985 569.529 243.186 566.607C243.287 565.6 243.287 564.693 243.287 563.988C243.287 562.98 243.891 562.577 244.093 562.376C244.295 562.275 244.395 562.175 244.597 562.175C244.597 562.073 244.496 561.973 244.496 561.872C243.589 559.958 242.38 557.439 243.086 549.479C243.186 548.471 243.891 548.068 244.093 547.867C244.194 547.766 244.395 547.766 244.496 547.766C244.496 547.665 244.395 547.565 244.395 547.565C243.489 545.448 242.38 542.426 242.985 537.085C243.186 535.776 244.295 535.272 244.899 535.171C244.798 534.869 244.698 534.667 244.496 534.264C243.891 532.954 242.985 531.141 242.985 527.816C242.985 526.506 243.891 525.7 244.496 525.196C244.597 525.095 244.698 524.995 244.798 524.894C244.597 524.591 244.395 524.289 244.194 524.088C243.287 522.879 242.884 522.274 242.884 521.569V520.762V510.687C242.884 509.377 244.093 508.772 245.1 508.369C245 508.269 245 508.268 244.899 508.168C243.791 507.261 242.884 506.455 242.884 505.347C242.884 503.029 242.884 500.812 242.884 498.596C242.884 497.891 243.186 496.984 243.489 496.077C243.69 495.573 243.891 494.767 243.891 494.565C243.891 494.364 243.589 493.86 243.489 493.558C243.186 492.853 242.784 492.147 242.784 491.341C242.682 487.21 242.682 483.281 242.582 479.552C242.582 478.142 243.589 477.537 244.496 477.134C242.38 473.205 242.078 466.958 241.877 462.323C241.877 461.315 241.776 460.509 241.776 459.703C241.776 459.199 241.876 458.695 242.178 458.393C241.876 458.091 241.776 457.688 241.776 457.285C241.776 451.844 241.877 447.713 241.977 445.194C241.977 444.287 242.38 443.582 243.086 443.078C243.69 442.574 244.496 442.473 245.302 442.373C240.869 430.584 241.877 429.677 242.481 428.972C242.985 428.468 243.589 428.267 244.295 428.267C242.582 425.848 240.566 422.523 240.062 419.198C239.861 417.787 240.466 415.47 241.977 414.261C242.582 413.757 243.287 413.455 244.093 413.354C243.69 412.649 243.287 411.641 242.784 410.835C239.861 405.294 237.846 400.961 239.156 398.139C240.164 396.125 241.272 395.117 242.38 394.714C238.35 391.087 235.831 386.351 235.025 380.91C234.622 378.391 235.529 376.88 236.335 376.073C237.242 375.167 238.451 374.663 239.559 374.361C235.73 371.035 229.383 364.788 227.972 358.844C227.266 356.023 228.173 354.511 229.08 353.806C230.592 352.496 233.01 352.396 235.327 352.597C232.204 349.473 228.274 345.342 227.065 343.025C224.143 337.08 225.654 329.826 228.778 326.097C230.793 323.78 233.413 322.873 235.932 323.78C238.451 324.586 239.257 325.392 240.768 326.803C241.574 327.609 242.682 328.616 244.496 330.027C249.433 333.957 258.3 333.755 263.943 329.624C269.988 325.09 271.197 317.331 267.368 307.658C266.864 306.248 265.857 305.542 264.346 305.341C261.726 305.039 258.501 306.651 257.393 308.263C257.192 308.566 256.889 309.069 257.091 309.371C257.796 310.782 258.501 311.387 259.308 311.991C260.718 313.2 261.726 314.309 261.323 317.331C260.315 323.679 256.587 324.687 254.37 324.788C254.27 324.788 254.27 324.788 254.169 324.788C248.527 324.788 241.07 318.641 240.164 314.409C239.257 309.775 239.66 295.164 253.161 289.522C260.517 286.499 267.066 286.6 272.708 289.825C282.382 295.467 286.009 308.666 286.512 312.898C289.132 335.166 273.615 343.226 267.772 346.35C266.965 346.753 266.059 347.257 265.857 347.458C263.439 349.876 259.912 349.876 259.71 349.876V346.854C259.71 346.854 262.129 346.854 263.64 345.242C264.144 344.738 264.95 344.335 266.26 343.629C272.104 340.607 285.807 333.352 283.389 313.2C282.784 308.465 279.056 297.079 271.097 292.444C266.361 289.623 260.617 289.623 254.27 292.243C242.582 297.079 242.28 309.674 243.086 313.704C243.589 316.122 249.635 321.765 254.169 321.664C254.975 321.664 257.494 321.563 258.199 316.827C258.401 315.316 258.199 315.115 257.292 314.309C256.487 313.603 255.378 312.696 254.37 310.682C253.665 309.371 253.867 307.86 254.874 306.449C256.789 303.729 261.222 301.815 264.648 302.218C267.268 302.52 269.182 304.031 270.19 306.349C274.522 317.231 272.91 326.601 265.756 331.941C259.005 336.979 248.627 337.08 242.582 332.344C240.667 330.833 239.559 329.725 238.652 328.919C237.242 327.609 236.839 327.206 234.924 326.601C233.211 325.997 231.801 327.105 230.995 328.012C228.576 330.833 227.367 336.879 229.685 341.615C231.095 344.435 238.652 351.69 241.473 354.31C241.977 354.814 242.078 355.62 241.776 356.224C241.373 356.829 240.667 357.131 239.962 356.829C237.141 355.821 232.405 354.814 231.095 355.922C230.592 356.325 230.692 357.332 230.894 358.038C232.708 365.494 244.295 374.26 244.395 374.361C244.899 374.764 245.1 375.469 244.899 376.175C244.597 376.779 243.993 377.182 243.287 377.081C242.38 376.98 239.559 376.88 238.451 378.089C238.249 378.29 237.746 378.794 237.947 380.406C238.955 386.653 242.682 391.994 248.527 395.419C249.836 396.125 249.635 397.031 249.433 397.535C248.829 398.744 247.62 398.341 247.116 398.241L246.511 398.039C243.791 397.132 243.186 396.93 241.877 399.45C241.07 401.061 243.993 406.704 245.504 409.324C247.418 413.052 248.325 414.563 247.216 415.773C247.015 416.075 246.31 416.679 245.1 416.276C244.496 416.075 244.194 416.276 243.891 416.478C243.186 417.082 242.985 418.291 242.985 418.695C243.891 424.236 249.534 429.878 249.635 429.979C250.138 430.483 250.24 431.289 249.836 431.894C249.433 432.498 248.627 432.7 247.922 432.398C246.914 431.894 245.806 431.491 245 431.289C245.403 433.506 247.216 438.947 249.031 443.582C249.232 444.086 249.131 444.69 248.728 445.093C248.325 445.496 247.72 445.697 247.216 445.496C246.511 445.295 245.504 445.194 245.1 445.295C245 447.713 245 451.441 244.899 456.277C247.318 457.587 248.325 458.393 247.922 459.703C247.519 461.013 246.108 460.811 245.1 460.711H245C245 461.114 245 461.516 245.1 462.02C245.302 466.554 245.604 473.507 247.821 476.429C248.325 477.134 248.224 477.839 248.124 478.142C247.821 479.15 246.814 479.452 246.209 479.653C246.108 479.653 245.907 479.754 245.806 479.754C245.907 483.381 246.007 487.21 246.007 491.14C246.007 491.341 246.31 491.845 246.411 492.147C246.713 492.853 247.116 493.558 247.116 494.465C247.116 495.17 246.814 496.077 246.511 496.984C246.31 497.487 246.108 498.294 246.108 498.495C246.108 500.611 246.108 502.727 246.108 504.943C246.31 505.145 246.814 505.548 247.015 505.75C248.124 506.656 249.031 507.463 249.031 508.571C249.031 509.981 247.62 510.586 246.511 510.989C246.31 511.09 246.108 511.09 246.007 511.19V521.065V521.166C246.209 521.468 246.511 521.871 246.713 522.173C247.62 523.382 248.023 523.987 248.023 524.692C248.023 526.002 247.116 526.808 246.511 527.312C246.31 527.413 246.108 527.614 246.007 527.816C246.007 530.435 246.612 531.745 247.216 532.854C247.62 533.66 248.023 534.567 248.023 535.776C248.023 536.985 247.317 537.69 245.907 537.992C245.504 542.224 246.411 544.541 247.116 546.456C247.62 547.564 248.023 548.673 248.023 549.882C248.023 550.99 247.318 551.494 247.015 551.595C246.612 551.796 246.209 551.796 245.806 551.695C245.504 557.338 246.411 559.252 247.116 560.663C247.519 561.57 248.023 562.477 248.023 563.988C248.023 564.996 247.418 565.499 247.216 565.6C246.914 565.802 246.511 565.902 246.209 565.802C246.209 566.104 246.209 566.507 246.108 566.809C246.007 569.026 245.806 573.157 247.015 573.661C248.224 574.064 248.325 574.87 248.325 575.273C248.325 576.482 247.216 576.784 246.814 576.885C246.914 578.195 247.015 579.203 247.116 579.908C248.224 587.566 250.138 589.782 251.146 590.488C251.751 590.89 252.154 590.79 252.154 590.79C252.456 590.689 252.658 590.689 252.96 590.79C253.766 590.991 254.672 590.991 254.975 590.991C254.975 590.991 254.774 590.991 254.673 591.193L256.789 593.31C256.688 593.611 256.184 594.015 254.673 594.015Z" fill="white"/>
<path d="M242.682 108.258C236.033 108.258 229.886 106.041 226.461 102.212L225.755 101.507L226.158 100.6C227.468 97.577 230.188 95.0584 234.017 93.5471L234.622 93.3453L235.226 93.6476C240.063 95.864 245.403 95.864 250.24 93.6476L250.844 93.3453L251.449 93.5471C255.277 95.1589 257.998 97.577 259.308 100.6L259.71 101.507L259.005 102.212C255.479 106.041 249.433 108.258 242.682 108.258ZM229.382 100.902C232.405 103.623 237.342 105.235 242.682 105.235C248.023 105.235 252.96 103.623 255.983 100.902C254.975 99.1895 253.161 97.6782 250.844 96.5697C245.604 98.7861 239.861 98.7861 234.622 96.5697C232.204 97.6782 230.491 99.1895 229.382 100.902Z" fill="white"/>
<path d="M242.682 114.908C232.607 114.908 223.639 111.382 219.105 105.638L218.097 104.329L219.508 103.422C221.725 102.011 224.244 100.701 227.065 99.7947L227.972 99.4924L228.677 100.198C231.599 103.321 236.939 105.235 242.682 105.235C248.426 105.235 253.766 103.321 256.688 100.198L257.393 99.4924L258.3 99.7947C261.121 100.802 263.64 102.011 265.857 103.422L267.268 104.329L266.26 105.638C261.726 111.382 252.758 114.908 242.682 114.908ZM222.732 105.034C226.964 109.265 234.622 111.885 242.783 111.885C250.945 111.885 258.603 109.265 262.834 105.034C261.424 104.228 259.912 103.522 258.3 102.918C254.774 106.243 249.03 108.158 242.783 108.158C236.536 108.158 230.894 106.243 227.266 102.918C225.554 103.624 224.042 104.329 222.732 105.034Z" fill="white"/>
<path d="M226.057 122.868C221.221 122.868 217.292 119.845 217.292 116.016C217.292 112.188 221.221 109.165 226.057 109.165C230.893 109.165 234.824 112.188 234.824 116.016C234.824 119.845 230.893 122.868 226.057 122.868ZM226.057 112.289C222.934 112.289 220.314 114.001 220.314 116.117C220.314 118.233 222.934 119.946 226.057 119.946C229.181 119.946 231.801 118.233 231.801 116.117C231.801 114.001 229.181 112.289 226.057 112.289Z" fill="white"/>
<path d="M270.693 114.908C269.383 114.908 268.074 114.707 266.764 114.303C263.943 113.498 261.827 111.885 261.121 109.971C260.718 108.762 260.819 107.553 261.423 106.545C263.036 103.925 267.67 103.018 272.104 104.329C274.925 105.134 277.041 106.747 277.746 108.661C278.149 109.87 278.049 111.079 277.444 112.087C276.235 113.901 273.716 114.908 270.693 114.908ZM268.174 106.747C266.159 106.747 264.547 107.351 264.043 108.157C263.842 108.359 263.842 108.661 263.943 108.963C264.245 109.769 265.454 110.878 267.57 111.482C270.794 112.389 274.018 111.785 274.824 110.576C275.026 110.374 275.026 110.072 274.925 109.769C274.623 108.963 273.413 107.855 271.298 107.251C270.19 106.847 269.081 106.747 268.174 106.747Z" fill="white"/>
<path d="M214.672 114.908C211.75 114.908 209.13 113.901 208.022 112.087C207.316 111.079 207.216 109.769 207.72 108.661C208.425 106.747 210.541 105.134 213.362 104.329C217.796 103.018 222.33 103.925 224.043 106.545C224.748 107.553 224.848 108.863 224.345 109.971C223.639 111.885 221.523 113.498 218.702 114.303C217.292 114.707 215.981 114.908 214.672 114.908ZM217.292 106.747C216.284 106.747 215.276 106.847 214.168 107.15C212.052 107.754 210.843 108.863 210.541 109.669C210.44 109.971 210.44 110.172 210.642 110.474C211.447 111.684 214.672 112.389 217.896 111.381C220.012 110.777 221.221 109.669 221.523 108.863C221.624 108.56 221.624 108.359 221.423 108.056C220.919 107.351 219.307 106.747 217.292 106.747Z" fill="white"/>
<path d="M258.804 122.062C253.968 122.062 250.038 119.039 250.038 115.21C250.038 111.381 253.968 108.359 258.804 108.359C263.641 108.359 267.57 111.381 267.57 115.21C267.57 119.039 263.741 122.062 258.804 122.062ZM258.804 111.381C255.681 111.381 253.061 113.094 253.061 115.21C253.061 117.326 255.681 119.039 258.804 119.039C261.928 119.039 264.547 117.326 264.547 115.21C264.547 113.094 261.928 111.381 258.804 111.381Z" fill="white"/>
<path d="M242.481 125.79C236.637 125.79 231.901 122.163 231.901 117.628C231.901 115.412 233.01 113.296 235.025 111.785L235.529 111.381L236.133 111.482C240.264 112.087 244.496 112.087 248.527 111.381L249.131 111.281L249.635 111.684C251.852 113.195 252.96 115.412 252.96 117.628C253.061 122.062 248.325 125.79 242.481 125.79ZM236.335 114.505C235.327 115.412 234.823 116.419 234.823 117.528C234.823 120.349 238.35 122.666 242.38 122.666C246.511 122.666 249.937 120.349 249.937 117.528C249.937 116.419 249.332 115.311 248.325 114.404C244.496 115.009 240.365 115.11 236.335 114.505Z" fill="white"/>
<path d="M235.126 107.048H234.924L235.831 104.126L235.428 105.537L235.932 104.126L235.529 105.638L235.126 107.048Z" fill="white"/>
<path d="M236.234 107.351H236.033L236.838 104.429H237.04L236.234 107.351Z" fill="white"/>
<path d="M234.017 106.646H233.917L234.924 103.824H235.025L234.017 106.646Z" fill="white"/>
<path d="M243.186 108.258C242.784 108.258 242.38 108.258 241.877 108.258L241.977 105.235C242.38 105.235 242.682 105.235 243.086 105.235V108.258H243.186Z" fill="white"/>
<path d="M232.909 106.243L234.118 103.522L233.413 104.832L234.017 103.421L234.118 103.522L232.909 106.243Z" fill="white"/>
<path d="M237.544 107.654H237.141L237.846 104.631L238.149 104.731L237.544 107.654Z" fill="white"/>
<path d="M240.063 108.056H239.861C239.76 108.056 239.559 108.056 239.458 108.056L239.861 105.034L240.365 105.134L240.063 108.056Z" fill="white"/>
<path d="M241.373 108.158H241.171C240.969 108.158 240.869 108.158 240.667 108.158L240.969 105.135C241.07 105.135 241.272 105.135 241.373 105.135H241.574L241.373 108.158Z" fill="white"/>
<path d="M238.753 107.855H238.652C238.551 107.855 238.451 107.855 238.35 107.855L238.853 104.832L239.257 104.933L238.753 107.855Z" fill="white"/>
<path d="M246.31 108.056L246.007 105.033L246.511 104.932L246.914 107.955C246.814 107.955 246.612 107.955 246.511 107.955L246.31 108.056Z" fill="white"/>
<path d="M250.24 107.351L249.433 104.429H249.534L250.441 107.351H250.24Z" fill="white"/>
<path d="M252.456 106.646L251.449 103.824H251.549L252.557 106.646H252.456Z" fill="white"/>
<path d="M251.348 107.048L250.441 104.126H250.542L251.549 107.048H251.348Z" fill="white"/>
<path d="M226.561 122.868C221.725 122.868 217.795 119.845 217.795 116.016C217.795 112.289 221.725 109.165 226.561 109.165C231.397 109.165 235.327 112.188 235.327 116.016C235.428 119.845 231.397 122.868 226.561 122.868ZM226.561 112.289C223.437 112.289 220.818 114.001 220.818 116.117C220.818 118.132 223.437 119.946 226.561 119.946C229.684 119.946 232.304 118.233 232.304 116.117C232.405 114.001 229.684 112.289 226.561 112.289Z" fill="white"/>
<path d="M248.929 107.654L248.325 104.731L248.627 104.631L249.332 107.654H248.929Z" fill="white"/>
<path d="M247.72 107.855L247.216 104.832L247.62 104.731L248.123 107.754C248.023 107.754 247.922 107.754 247.821 107.754L247.72 107.855Z" fill="white"/>
<path d="M243.187 108.258V105.235C243.589 105.235 243.992 105.235 244.295 105.235L244.396 108.258C244.093 108.258 243.69 108.258 243.187 108.258Z" fill="white"/>
<path d="M245.101 108.158L244.899 105.135H245.101C245.202 105.135 245.403 105.135 245.504 105.135L245.806 108.158C245.604 108.158 245.504 108.158 245.302 108.158H245.101Z" fill="white"/>
<path d="M243.589 98.5849C232.002 98.5849 222.934 83.0682 222.934 63.3192C222.934 55.3597 226.36 46.7951 232.808 38.5329C237.645 32.3866 242.481 28.5578 242.683 28.3563L243.589 27.651L244.496 28.3563C244.698 28.5578 249.434 32.2859 254.37 38.5329C260.819 46.7951 264.245 55.3597 264.245 63.3192C264.245 83.1688 255.177 98.5849 243.589 98.5849ZM243.589 31.5806C239.862 34.9056 225.957 48.0042 225.957 63.3192C225.957 81.0529 233.917 95.5623 243.589 95.5623C253.262 95.5623 261.222 81.0529 261.222 63.3192C261.222 48.0042 247.418 34.8048 243.589 31.5806Z" fill="white"/>
<path d="M243.589 84.479C237.947 84.479 233.513 76.7206 233.513 66.8464C233.513 57.375 242.279 49.9189 242.582 49.6167L243.589 48.8104L244.597 49.6167C245 49.9189 253.665 57.375 253.665 66.8464C253.665 76.7206 249.232 84.479 243.589 84.479ZM243.589 52.841C241.473 54.9569 236.536 60.4988 236.536 66.8464C236.536 73.7985 239.458 81.4563 243.589 81.4563C247.72 81.4563 250.642 73.7985 250.642 66.8464C250.642 60.4988 245.806 54.9569 243.589 52.841Z" fill="white"/>
<path d="M239.66 141.005C228.073 141.005 221.423 131.13 219.609 128.208C216.888 128.108 209.029 127.503 205.302 123.775C200.465 118.939 207.417 109.669 208.223 108.661L210.642 110.475C209.029 112.591 204.999 119.039 207.518 121.558C210.44 124.48 217.896 125.186 220.516 125.186H221.423L221.826 125.992C221.826 125.992 223.841 129.821 227.569 133.146C232.506 137.478 238.149 138.788 244.295 137.277C260.315 133.246 261.826 130.324 264.446 124.984C265.756 122.365 268.577 121.659 270.996 121.155C273.414 120.652 274.824 120.248 275.53 118.939C276.94 116.218 275.228 111.684 274.522 110.173L277.243 108.863C277.344 109.165 280.568 115.614 278.251 120.248C276.94 122.868 274.119 123.574 271.701 124.077C269.283 124.581 267.872 124.984 267.167 126.294C263.943 132.742 261.625 136.068 245 140.198C243.187 140.803 241.373 141.005 239.66 141.005Z" fill="white"/>
<path d="M240.365 151.584C222.833 151.584 212.556 138.889 210.54 136.168C207.518 135.463 196.132 132.339 193.915 126.294C193.21 124.279 193.21 122.365 194.218 120.45C196.938 114.707 206.611 111.382 207.014 111.281L207.921 114.102C205.503 114.908 198.752 117.83 196.938 121.659C196.333 122.868 196.333 123.976 196.737 125.186C198.349 129.518 208.122 132.541 211.75 133.347L212.354 133.448L212.656 133.951C212.757 134.153 223.841 150.274 243.489 148.36C262.935 146.546 267.469 142.012 271.197 136.269C272.204 134.858 274.22 133.448 276.84 131.735C281.878 128.41 288.225 124.279 286.512 119.039C285.505 116.118 280.467 114.405 278.553 114.001L279.157 111.08C280.064 111.281 287.621 113.094 289.334 118.132C291.752 125.488 284.094 130.626 278.452 134.253C276.437 135.564 274.22 136.974 273.615 137.982C269.484 144.128 264.446 149.469 243.69 151.383C242.682 151.584 241.473 151.584 240.365 151.584Z" fill="white"/>
<path d="M239.66 169.116C217.796 169.116 204.697 151.786 202.48 148.561C199.457 147.755 185.855 143.523 184.747 135.06C183.839 127.604 191.699 124.077 196.031 123.271L196.535 126.293C196.132 126.395 186.863 128.107 187.668 134.656C188.475 140.702 199.457 144.732 203.689 145.74L204.294 145.841L204.596 146.345C204.697 146.546 218.702 168.209 243.489 165.791C267.973 163.373 273.615 157.226 278.452 149.569C279.56 147.755 282.18 145.941 285.404 143.624C291.852 139.09 299.913 133.447 297.697 126.092C296.387 121.961 289.838 119.644 287.42 119.039L288.125 116.117C288.528 116.217 298.503 118.535 300.518 125.186C303.44 134.556 293.968 141.206 287.117 146.042C284.396 147.957 281.777 149.77 280.971 151.08C275.933 159.242 269.585 166.194 243.791 168.713C242.481 169.015 241.071 169.116 239.66 169.116Z" fill="white"/>
<path d="M252.658 596.026C252.154 596.026 251.549 595.928 250.743 595.83C250.138 595.928 249.232 595.928 248.123 595.426C247.216 594.923 246.411 594.218 245.604 593.108C244.899 593.513 243.891 593.709 242.682 593.709C241.171 593.709 237.04 593.709 232.204 570.135C229.483 557.036 227.568 540.814 227.065 527.816C226.057 501.82 215.981 427.46 201.069 401.565C198.651 397.434 197.039 393.908 195.427 390.382C189.885 378.29 184.142 365.796 145.854 328.314C134.468 317.13 122.981 302.218 114.417 287.407C105.248 271.588 99.807 256.776 99.1019 245.693C95.8775 193.903 135.073 165.186 147.163 157.63C148.977 156.521 151.496 154.708 154.721 152.491L156.534 151.181C164.998 145.236 174.267 138.889 184.545 133.448C185.25 133.044 186.056 133.246 186.459 133.851C190.389 139.291 202.883 144.732 202.984 144.732C203.286 144.833 203.487 145.035 203.689 145.337C203.79 145.538 217.795 167.202 242.582 164.784C267.066 162.365 272.708 156.219 277.545 148.561C278.653 146.748 281.978 144.43 286.21 141.407C291.047 138.082 296.487 134.253 299.006 130.828C299.208 130.526 299.611 130.324 300.014 130.224C300.417 130.122 300.82 130.324 301.123 130.526C302.936 132.037 346.665 167 357.647 177.983C359.764 180.099 361.98 182.114 364.096 184.129C373.366 192.794 382.132 200.855 386.263 215.969C391.402 234.408 387.271 260.101 382.132 270.479C377.094 280.555 339.209 328.214 337.597 330.229L337.496 330.329C337.295 330.531 314.322 353.504 305.455 369.323C296.79 384.739 291.55 394.009 282.382 417.486C273.515 440.257 268.376 482.172 268.376 482.576C268.275 483.18 260.315 540.209 259.308 559.051C258.501 573.661 256.184 593.911 254.874 595.321C254.672 595.628 254.169 596.026 252.658 596.026ZM250.642 592.808C250.743 592.808 250.844 592.808 251.045 592.906C251.549 593.004 252.154 593.108 252.557 593.108C253.363 589.883 255.378 575.777 256.285 559.051C257.292 540.108 265.252 482.878 265.353 482.374C265.353 481.971 270.492 439.652 279.56 416.579C288.83 392.9 294.069 383.53 302.835 368.013C311.802 352.194 333.667 330.027 335.279 328.415C336.892 326.299 374.575 278.942 379.412 269.27C384.349 259.396 388.278 234.71 383.341 216.976C379.412 202.769 370.948 194.91 361.98 186.547C359.865 184.532 357.647 182.517 355.532 180.401C345.657 170.527 307.571 139.896 300.417 134.052C297.394 137.478 292.356 141.005 287.923 144.128C284.497 146.546 280.971 149.065 280.064 150.375C275.026 158.537 268.678 165.489 242.884 168.008C218.198 170.527 203.588 150.677 201.371 147.554C199.155 146.546 189.381 142.113 184.847 136.873C175.174 142.113 166.308 148.158 158.247 153.801L156.433 155.11C153.209 157.428 150.69 159.141 148.776 160.35C137.087 167.706 99.0007 195.515 102.125 245.591C103.636 269.37 126.609 305.241 148.07 326.198C186.761 364.083 192.606 376.88 198.248 389.173C199.86 392.598 201.472 396.125 203.689 400.054C212.153 414.765 218.5 442.977 222.228 464.036C226.964 490.132 229.584 515.322 230.088 527.715C230.592 540.411 232.506 556.431 235.126 569.228C239.357 589.883 242.682 590.689 242.682 590.689C243.791 590.689 244.093 590.487 244.093 590.487C244.093 590.286 243.791 589.581 243.489 589.077C243.287 588.774 243.186 588.472 243.186 588.069V587.263C243.186 586.558 243.791 585.954 244.496 585.853C245.202 585.752 245.907 586.256 246.108 586.961C247.62 592.299 249.534 593.004 250.138 592.808C250.441 592.808 250.542 592.808 250.642 592.808Z" fill="white"/>
<path d="M245.907 207.102C212.959 207.102 182.53 192.593 162.882 167L165.3 165.186C186.661 192.996 221.12 207.304 257.494 203.475C287.117 200.351 312.407 185.439 321.98 165.388L324.7 166.698C314.725 187.656 288.427 203.273 257.796 206.497C253.766 206.9 249.836 207.102 245.907 207.102Z" fill="white"/>
<path d="M240.567 227.253C224.345 227.253 208.929 223.626 195.729 216.674C177.593 207.102 164.494 191.988 156.735 171.736L159.557 170.627C167.013 190.175 179.709 204.784 197.14 213.954C212.556 222.014 230.793 225.44 250.138 223.828C289.636 220.402 322.382 196.824 328.025 167.806L330.947 168.411C327.924 183.928 318.151 197.731 302.533 208.613C287.923 218.689 269.484 225.238 250.34 226.85C247.015 227.052 243.791 227.253 240.567 227.253Z" fill="white"/>
<path d="M241.977 261.914C239.76 261.914 237.242 261.713 233.513 261.31C224.345 260.403 216.082 254.761 208.122 249.32C206.913 248.514 205.805 247.707 204.596 246.901C197.845 242.367 183.537 229.269 184.847 225.037C184.444 224.533 183.134 223.727 182.429 223.324C181.522 222.719 180.716 222.316 180.212 221.712C179.507 221.913 178.298 222.619 177.29 223.526C176.585 224.332 176.787 229.47 177.694 234.206C177.794 234.609 177.694 235.113 177.391 235.415C175.376 238.035 170.136 242.165 164.393 238.841L163.587 238.337C159.255 235.918 159.053 235.717 157.139 232.191C156.433 230.881 155.526 228.966 153.814 226.145C147.97 216.472 147.567 214.759 145.048 203.676L144.544 201.46C142.227 191.585 141.521 175.665 141.521 174.96L144.544 174.859C144.544 175.061 145.35 191.182 147.567 200.754L148.07 202.971C150.59 214.054 150.892 215.263 156.433 224.533C158.146 227.455 159.154 229.369 159.859 230.679C161.27 233.4 161.27 233.4 165.098 235.616L165.905 236.12C170.036 238.438 173.462 235.314 174.57 234.004C173.865 230.377 172.958 223.425 175.074 221.309C176.585 219.797 179.709 217.883 181.522 218.588C182.026 218.79 182.429 219.193 182.63 219.797C182.933 219.999 183.537 220.402 183.941 220.603C185.855 221.712 188.676 223.425 187.769 225.843C188.374 228.261 197.644 238.538 206.309 244.282C207.518 245.088 208.727 245.894 209.835 246.7C217.493 251.939 225.453 257.279 233.816 258.186C243.589 259.194 244.396 259.194 255.479 256.171C267.268 252.947 278.452 248.01 281.978 244.483C285.707 240.755 293.968 231.586 294.976 230.579C295.783 229.269 300.518 222.014 304.85 221.006C309.687 219.797 314.221 221.208 316.538 224.634C317.849 226.548 317.849 228.664 317.849 230.377C317.849 231.687 317.849 232.896 318.453 233.5C320.972 236.02 322.987 236.221 325.506 234.407L326.514 233.702C330.343 230.881 335.179 227.253 335.985 222.316C336.388 219.898 337.194 217.681 338.101 215.263C339.612 211.233 341.325 206.598 341.93 199.243C342.937 187.353 342.937 172.34 342.937 172.139H345.96C345.96 172.34 345.96 187.454 344.952 199.444C344.348 207.203 342.433 212.241 340.922 216.271C340.015 218.588 339.31 220.704 338.907 222.82C337.899 228.966 332.257 233.097 328.227 236.12L327.219 236.826C323.491 239.647 319.763 239.244 316.135 235.717C314.725 234.307 314.725 232.291 314.725 230.478C314.725 228.966 314.725 227.556 314.02 226.448C312.407 224.13 309.183 223.123 305.556 224.03C303.037 224.634 299.208 229.47 297.394 232.392C297.394 232.493 297.294 232.493 297.193 232.594C296.79 232.997 288.024 242.771 283.994 246.801C279.358 251.436 266.361 256.474 256.083 259.295C249.03 261.209 245.907 261.914 241.977 261.914Z" fill="white"/>
<path d="M166.006 210.427C165.602 209.923 155.728 199.142 151.698 191.988C147.567 184.633 147.466 172.643 147.466 172.139H150.488C150.488 172.24 150.59 183.928 154.317 190.577C158.247 197.429 168.122 208.311 168.222 208.412L166.006 210.427Z" fill="white"/>
<path d="M324.7 206.095L321.979 204.784C322.08 204.684 329.032 190.678 331.954 182.718C334.776 175.162 333.869 168.411 333.869 168.31L336.892 167.907C336.892 168.209 337.899 175.464 334.776 183.726C331.753 191.787 325.002 205.49 324.7 206.095Z" fill="white"/>
<path d="M239.559 285.895C227.468 285.895 218.601 279.749 207.618 272.192C194.117 262.922 188.575 233.098 188.374 231.889L191.397 231.385C191.497 231.687 197.039 261.109 209.432 269.774C223.135 279.245 231.499 284.484 244.597 282.57C257.897 280.656 266.966 277.935 277.041 268.867C288.427 258.59 294.17 244.786 294.775 243.275L298.704 233.501V226.448H301.727V233.803C301.727 234.005 301.727 234.206 301.626 234.408L297.596 244.484C296.992 246.096 290.946 260.504 279.056 271.285C268.376 280.857 258.905 283.779 245 285.795C243.086 285.694 241.272 285.895 239.559 285.895Z" fill="white"/>
<path d="M226.259 318.944C226.057 318.541 221.019 309.372 222.027 301.916C222.934 295.769 225.856 290.53 227.468 287.709C227.77 287.205 228.073 286.701 228.173 286.399C229.483 283.88 232.405 283.074 232.708 282.973L233.413 285.895C233.413 285.895 231.599 286.399 230.893 287.709C230.692 288.112 230.39 288.515 230.088 289.12C228.576 291.84 225.755 296.777 224.949 302.319C224.042 308.767 228.778 317.433 228.778 317.533L226.259 318.944Z" fill="white"/>
<path d="M295.581 292.243C295.581 291.94 294.573 284.787 287.218 280.252C279.358 275.315 277.242 274.308 277.242 274.308L278.553 271.587C278.653 271.587 280.769 272.695 288.729 277.733C297.294 283.074 298.402 291.537 298.503 291.94L295.581 292.243Z" fill="white"/>
<path d="M303.742 265.139C303.742 265.139 302.735 260.605 299.308 257.985C295.581 255.265 291.349 254.458 291.248 254.458L291.752 251.436C291.953 251.436 296.79 252.342 301.123 255.466C305.555 258.791 306.664 264.232 306.765 264.434L303.742 265.139L305.253 264.837L303.742 265.139Z" fill="white"/>
<path d="M297.999 242.367L296.286 239.849C296.387 239.849 301.324 236.322 304.346 234.307C310.997 229.873 317.647 233.097 317.949 233.198L316.639 235.919C316.438 235.818 311.299 233.4 306.06 236.826C303.037 238.841 297.999 242.367 297.999 242.367Z" fill="white"/>
<path d="M190.59 244.987C190.389 244.886 185.351 241.863 182.227 238.74C179.507 236.02 175.88 235.113 175.88 235.113L176.585 232.191C176.787 232.191 181.018 233.299 184.343 236.624C187.165 239.445 192.102 242.367 192.102 242.468L190.59 244.987Z" fill="white"/>
<path d="M142.125 153.096C138.902 150.879 134.065 151.584 129.128 154.607C131.647 158.738 131.445 165.892 128.019 172.642C123.687 181.207 115.828 186.043 110.387 183.525C109.983 188.059 111.092 191.787 113.812 193.701C119.657 197.732 130.74 191.988 138.599 180.804C146.358 169.519 147.97 157.126 142.125 153.096Z" fill="white"/>
<path d="M118.246 196.522C116.23 196.522 114.417 196.018 112.906 194.91C109.782 192.794 108.372 188.663 108.876 183.423C108.876 182.92 109.178 182.517 109.581 182.214C109.983 181.912 110.487 181.912 110.991 182.113C115.727 184.23 122.679 179.595 126.609 171.937C129.631 165.891 130.135 159.242 127.818 155.413C127.617 155.11 127.515 154.606 127.617 154.304C127.717 153.901 127.919 153.599 128.322 153.397C134.065 149.972 139.405 149.367 143.032 151.886C149.683 156.521 148.272 169.62 139.808 181.71C135.878 187.353 131.042 191.786 126.105 194.406C123.284 195.817 120.664 196.522 118.246 196.522ZM111.797 185.539C111.898 188.764 112.805 191.182 114.619 192.491C116.936 194.104 120.563 193.802 124.695 191.686C129.128 189.368 133.662 185.237 137.289 179.997C144.544 169.62 146.358 157.931 141.219 154.405C138.901 152.793 135.173 153.095 131.042 155.312C133.158 160.047 132.453 167 129.229 173.348C125.097 181.61 117.742 186.547 111.797 185.539Z" fill="white"/>
<path d="M129.027 154.808C125.802 153.196 121.268 154.304 116.936 157.428C117.541 157.428 118.044 157.63 118.548 157.831C121.37 159.242 121.268 163.877 118.346 168.108C115.425 172.34 110.79 174.658 108.069 173.247C107.666 173.045 107.263 172.743 106.961 172.34C106.054 176.874 107.163 180.703 110.286 182.315C115.223 184.834 123.485 180.703 128.624 173.146C133.864 165.489 134.065 157.327 129.027 154.808Z" fill="white"/>
<path d="M113.611 184.431C112.201 184.431 110.79 184.129 109.581 183.524C105.954 181.71 104.341 177.277 105.45 171.937C105.55 171.332 105.954 170.929 106.558 170.728C107.163 170.627 107.767 170.828 108.069 171.232C108.271 171.433 108.472 171.635 108.674 171.735C110.488 172.642 114.417 171.03 117.037 167.101C118.649 164.783 119.354 162.264 118.851 160.551C118.649 159.846 118.347 159.342 117.742 159.04C117.44 158.939 117.137 158.838 116.735 158.838C116.13 158.838 115.526 158.334 115.324 157.73C115.123 157.125 115.324 156.42 115.928 156.118C120.866 152.591 125.904 151.584 129.531 153.397C131.546 154.405 132.956 156.32 133.662 158.738C134.771 163.07 133.36 168.712 129.733 173.851C125.5 180.4 119.052 184.431 113.611 184.431ZM108.17 174.758C108.069 177.68 109.077 179.897 110.992 180.804C115.223 182.92 122.78 178.99 127.415 172.139C130.438 167.705 131.747 162.869 130.841 159.443C130.438 157.831 129.531 156.722 128.322 156.017C126.307 155.009 123.284 155.413 120.261 157.025C121.068 157.73 121.571 158.637 121.873 159.745C122.579 162.365 121.672 165.69 119.556 168.814C116.533 173.448 111.697 175.866 108.17 174.758Z" fill="white"/>
<path d="M176.585 142.516C174.671 139.09 170.036 137.679 164.192 138.082C164.695 142.919 161.27 149.166 155.224 153.7C147.567 159.443 138.398 160.35 134.569 155.715C132.251 159.644 131.546 163.473 133.158 166.395C136.584 172.642 149.078 172.34 161.068 165.791C173.159 159.141 180.011 148.763 176.585 142.516Z" fill="white"/>
<path d="M143.436 172.34C137.894 172.34 133.763 170.527 131.949 167.101C130.135 163.776 130.639 159.544 133.36 154.909C133.662 154.506 134.065 154.204 134.569 154.204C135.073 154.204 135.576 154.405 135.878 154.707C139.103 158.637 147.466 157.629 154.418 152.491C159.859 148.46 163.184 142.717 162.781 138.183C162.781 137.78 162.882 137.377 163.084 137.074C163.386 136.772 163.688 136.571 164.091 136.571C170.741 135.966 175.779 137.881 177.895 141.71C179.809 145.236 179.104 149.871 175.88 154.808C172.857 159.443 167.819 163.776 161.874 167C155.829 170.325 149.582 172.239 144.04 172.34C143.838 172.34 143.637 172.34 143.436 172.34ZM135.073 158.234C133.662 161.156 133.561 163.776 134.569 165.69C135.98 168.209 139.305 169.519 143.939 169.418C148.977 169.318 154.821 167.503 160.363 164.481C165.904 161.458 170.54 157.428 173.361 153.196C175.98 149.266 176.585 145.74 175.275 143.322C173.865 140.803 170.438 139.493 165.804 139.594C165.602 144.833 161.975 150.677 156.232 155.009C148.675 160.551 139.909 161.76 135.073 158.234Z" fill="white"/>
<path d="M164.091 138.183C161.875 135.262 157.34 134.254 152.101 135.16C152.604 135.463 153.008 135.765 153.31 136.168C155.224 138.687 153.108 142.718 148.574 145.236C144.141 147.756 138.901 147.756 137.088 145.236C136.785 144.833 136.584 144.43 136.483 143.927C133.662 147.554 132.956 151.483 135.073 154.305C138.398 158.738 147.667 158.738 155.628 154.204C163.688 149.972 167.517 142.718 164.091 138.183Z" fill="white"/>
<path d="M143.637 159.443C139.506 159.443 135.879 158.133 133.964 155.513C131.445 152.188 132.05 147.654 135.375 143.221C135.778 142.717 136.282 142.515 136.887 142.717C137.491 142.818 137.894 143.322 137.994 143.826C138.096 144.128 138.196 144.33 138.297 144.531C139.506 146.143 143.738 146.344 147.869 144.027C150.287 142.616 152.101 140.702 152.403 138.989C152.504 138.284 152.403 137.679 152.101 137.175C151.899 136.974 151.698 136.672 151.295 136.571C150.69 136.268 150.488 135.664 150.59 134.959C150.69 134.254 151.194 133.85 151.799 133.75C157.743 132.742 162.781 134.052 165.2 137.377C166.61 139.19 167.013 141.508 166.509 143.926C165.602 148.259 161.773 152.692 156.333 155.816C152.201 158.234 147.668 159.443 143.637 159.443ZM136.584 146.949C135.173 149.468 135.073 151.886 136.383 153.599C139.204 157.428 147.768 157.226 154.922 153.095C159.557 150.475 162.882 146.646 163.587 143.221C163.889 141.609 163.688 140.198 162.781 139.09C161.371 137.276 158.55 136.268 155.124 136.369C155.526 137.276 155.628 138.385 155.325 139.493C154.821 142.112 152.504 144.732 149.279 146.546C144.645 149.367 139.204 149.468 136.584 146.949Z" fill="white"/>
<path d="M112.805 159.241C112.503 158.939 104.745 152.591 104.14 143.724C103.838 138.788 105.651 134.152 109.681 129.921C113.309 126.092 117.339 124.178 121.873 124.48C131.849 124.983 139.909 135.664 140.211 136.168L137.793 137.981C137.692 137.881 130.135 128.006 121.672 127.503C118.145 127.301 114.82 128.812 111.898 132.037C108.472 135.664 106.961 139.593 107.163 143.624C107.667 151.282 114.619 157.025 114.719 157.025L112.805 159.241Z" fill="white"/>
<path d="M118.246 162.465C117.44 162.163 98.3964 155.009 95.1726 144.329C92.1493 134.253 93.8624 124.379 99.6054 118.636C105.147 113.094 110.689 111.079 118.044 112.187C125.702 113.295 132.151 117.729 135.274 124.076C135.576 124.681 135.98 125.285 136.282 125.89C138.196 129.216 140.413 132.943 140.413 145.84H137.39C137.39 133.75 135.375 130.323 133.662 127.402C133.259 126.797 132.856 126.092 132.554 125.387C129.833 119.945 124.191 116.117 117.541 115.109C111.193 114.202 106.558 115.815 101.722 120.751C96.7845 125.689 95.3737 134.354 98.0941 143.422C100.916 152.692 119.153 159.544 119.354 159.544L118.246 162.465Z" fill="white"/>
<path d="M153.512 142.112L150.488 141.71C150.488 141.608 151.395 134.757 149.481 124.076C147.567 113.497 144.745 107.552 142.63 104.53C142.327 104.026 141.924 103.421 141.521 102.817C139.607 99.6929 136.987 95.5623 133.259 94.0504C129.934 92.7407 126.407 92.4385 124.493 93.4458C123.788 93.8493 123.384 94.3526 123.183 95.0583C122.881 96.3679 122.881 97.1742 122.982 97.8793C123.082 99.4918 122.982 100.6 120.765 102.817C116.936 106.646 111.092 104.126 104.946 101.104C102.83 99.9951 101.016 100.297 98.3963 102.01L95.3737 104.026L93.6606 101.507L96.6839 99.4917C100.21 97.1742 103.132 96.7714 106.256 98.3832C112.402 101.507 116.432 102.817 118.649 100.701C120.06 99.29 119.959 98.9878 119.959 98.081C119.858 97.2747 119.858 96.1668 120.261 94.3526C120.664 92.7407 121.672 91.5317 123.183 90.7254C126.407 89.1136 131.042 89.9198 134.367 91.2294C139.103 93.1436 142.126 97.9804 144.141 101.205C144.544 101.809 144.846 102.313 145.148 102.817C147.365 106.142 150.388 112.389 152.403 123.573C154.519 134.656 153.612 141.81 153.512 142.112Z" fill="white"/>
<path d="M110.89 173.852C109.983 173.852 109.077 173.75 108.372 173.549C96.2803 170.526 86.3056 167.302 82.7789 165.287C78.5472 162.869 77.0359 160.854 74.0126 156.722L73.3075 155.816C71.0911 152.893 70.4866 149.266 71.5945 145.84C72.5013 143.019 74.5166 140.803 76.9347 140.097C78.7483 139.593 79.8568 139.593 80.6631 139.694C81.5699 139.795 81.8722 139.795 83.1818 138.183C85.3988 135.563 83.988 131.029 80.6631 123.976C79.0506 120.55 79.3529 117.427 81.5699 113.497L83.484 110.071L86.1039 111.582L84.1897 115.008C82.4767 118.031 82.1744 120.147 83.3835 122.666C86.5067 129.417 89.026 135.865 85.3988 140.097C83.2829 142.616 82.0739 142.717 80.4614 142.616C79.7563 142.616 79.0506 142.515 77.741 142.919C76.3302 143.321 75.0206 144.833 74.4161 146.646C73.6098 149.065 74.1138 151.684 75.7257 153.8L76.4314 154.808C79.5546 158.939 80.6631 160.451 84.2903 162.465C87.5146 164.279 97.4894 167.503 109.077 170.325C110.387 170.627 112.704 170.425 113.51 170.325L114.014 173.348C113.712 173.65 112.402 173.852 110.89 173.852Z" fill="white"/>
<path d="M83.4841 129.719C82.7791 129.417 65.8516 122.666 65.8516 109.668C65.8516 96.8719 69.2777 91.4311 74.5167 87.2999C79.1519 83.5716 92.5527 78.6348 102.427 84.1761C106.659 86.4937 109.379 90.1209 110.185 94.252C111.193 99.3906 110.689 101.406 110.588 101.708L107.767 100.801C107.767 100.801 108.17 99.1895 107.263 94.8566C106.558 91.5317 104.341 88.7101 100.916 86.796C92.6533 82.262 80.7637 86.1914 76.4315 89.7181C71.7963 93.4458 68.9754 98.081 68.9754 109.668C68.9754 120.55 84.5926 126.797 84.6932 126.898L83.4841 129.719Z" fill="white"/>
<path d="M77.933 125.701L77.3328 141.307L80.3536 141.423L80.9532 125.816L77.933 125.701Z" fill="white"/>
<path d="M121.772 93.0437H110.689V96.0664H121.772V93.0437Z" fill="white"/>
<path d="M344.65 150.274C347.773 147.856 352.61 148.259 357.749 150.979C355.431 155.312 356.136 162.365 359.965 168.915C364.802 177.176 372.963 181.509 378.203 178.789C378.908 183.323 378.001 187.051 375.381 189.167C369.84 193.601 358.353 188.461 349.889 177.781C341.426 166.899 339.108 154.708 344.65 150.274Z" fill="white"/>
<path d="M370.444 192.089C368.227 192.089 365.809 191.485 363.189 190.376C358.151 188.16 353.013 183.927 348.781 178.588C344.549 173.248 341.627 167.303 340.519 161.861C339.41 156.118 340.519 151.584 343.743 149.065C347.169 146.345 352.509 146.546 358.454 149.67C358.857 149.871 359.058 150.174 359.159 150.576C359.26 150.98 359.26 151.383 359.058 151.685C356.942 155.614 357.849 162.265 361.275 168.109C365.709 175.565 372.963 179.797 377.497 177.378C377.9 177.177 378.404 177.177 378.908 177.378C379.311 177.58 379.613 177.983 379.714 178.487C380.52 183.726 379.311 187.958 376.389 190.276C374.777 191.485 372.761 192.089 370.444 192.089ZM349.688 150.174C348.075 150.174 346.665 150.576 345.657 151.483C343.441 153.297 342.635 156.723 343.542 161.358C344.448 166.295 347.169 171.736 351.199 176.774C355.129 181.812 359.864 185.641 364.5 187.656C368.731 189.57 372.359 189.671 374.575 187.858C376.288 186.447 377.195 184.029 376.994 180.804C371.149 182.215 363.492 177.681 358.756 169.62C355.129 163.373 354.02 156.622 355.834 151.685C353.517 150.678 351.502 150.174 349.688 150.174Z" fill="white"/>
<path d="M309.586 141.81C311.299 138.284 315.833 136.571 321.677 136.672C321.476 141.508 325.305 147.554 331.552 151.685C339.612 157.025 348.781 157.226 352.308 152.39C354.927 156.118 355.834 159.947 354.323 162.869C351.3 169.318 338.806 169.821 326.413 163.977C314.12 158.133 306.564 148.158 309.586 141.81Z" fill="white"/>
<path d="M342.937 169.62C337.899 169.62 331.854 168.209 325.808 165.388C312.508 159.04 304.75 148.46 308.277 141.105C310.191 137.176 315.027 134.959 321.778 135.059C322.181 135.059 322.584 135.261 322.887 135.563C323.189 135.865 323.289 136.268 323.289 136.672C323.189 141.206 326.816 146.646 332.559 150.375C339.814 155.11 348.177 155.614 351.2 151.483C351.502 151.08 351.905 150.879 352.409 150.879C352.913 150.879 353.315 151.08 353.618 151.483C356.64 155.816 357.447 160.148 355.834 163.473C353.819 167.605 349.084 169.62 342.937 169.62ZM310.997 142.415C308.377 147.957 315.733 157.226 327.118 162.667C338.504 168.007 350.393 167.907 353.013 162.365C353.92 160.35 353.618 157.73 352.106 154.909C347.471 158.838 338.604 158.133 330.846 152.995C324.801 149.065 320.871 143.422 320.267 138.183C315.531 138.284 312.206 139.795 310.997 142.415Z" fill="white"/>
<path d="M321.778 136.773C323.793 133.75 328.327 132.44 333.466 133.044C332.962 133.347 332.559 133.75 332.257 134.153C330.544 136.773 332.861 140.702 337.496 142.919C342.131 145.136 347.27 144.833 348.982 142.314C349.285 141.911 349.386 141.509 349.486 141.005C352.509 144.43 353.517 148.36 351.602 151.282C348.479 155.917 339.31 156.421 331.048 152.491C322.886 148.461 318.755 141.407 321.778 136.773Z" fill="white"/>
<path d="M342.232 156.622C338.605 156.622 334.474 155.715 330.443 153.801C324.801 151.08 320.771 146.848 319.562 142.616C318.856 140.198 319.259 137.881 320.468 135.967C322.685 132.54 327.622 130.929 333.668 131.533C334.272 131.634 334.776 132.037 334.977 132.641C335.078 133.246 334.877 133.951 334.373 134.254C334.07 134.455 333.768 134.656 333.668 134.959C333.365 135.463 333.265 136.067 333.466 136.772C333.97 138.485 335.783 140.299 338.303 141.609C342.534 143.624 346.766 143.221 347.875 141.508C347.975 141.307 348.076 141.105 348.177 140.803C348.277 140.198 348.68 139.795 349.285 139.594C349.889 139.392 350.494 139.594 350.797 140.097C354.424 144.228 355.23 148.763 353.013 152.188C350.998 155.11 346.968 156.622 342.232 156.622ZM323.088 137.578C322.282 138.788 322.08 140.198 322.584 141.81C323.491 145.236 327.118 148.763 331.854 151.08C339.31 154.708 347.773 154.405 350.393 150.475C351.602 148.662 351.3 146.244 349.789 143.825C347.27 146.445 341.93 146.748 336.892 144.329C333.567 142.717 331.149 140.198 330.443 137.578C330.141 136.47 330.141 135.362 330.544 134.455C327.118 134.556 324.297 135.664 323.088 137.578Z" fill="white"/>
<path d="M332.659 139.997C332.559 139.694 331.148 132.642 332.559 121.357C333.869 110.072 336.59 103.623 338.604 100.198C338.906 99.6935 339.209 99.089 339.511 98.4845C341.325 95.1595 344.046 90.021 348.58 87.9046C351.804 86.3932 356.439 85.2853 359.763 86.6955C361.275 87.4012 362.383 88.5091 362.887 90.1216C363.391 91.8346 363.391 93.0437 363.391 93.8493C363.391 94.8573 363.391 95.0584 364.801 96.3686C367.119 98.3839 371.048 96.7714 376.993 93.3459C380.016 91.5324 382.938 91.7335 386.666 93.8493L389.79 95.6629L388.278 98.2827L385.155 96.4692C382.435 94.8573 380.621 94.7561 378.606 95.9652C372.661 99.3913 366.918 102.212 362.887 98.6862C360.57 96.6709 360.369 95.4618 360.369 93.8493C360.369 93.1442 360.369 92.338 359.965 91.0284C359.764 90.3233 359.26 89.8193 358.554 89.517C356.64 88.7108 353.114 89.1136 349.889 90.7261C346.262 92.4392 343.844 96.8726 342.131 99.9958C341.829 100.6 341.426 101.205 341.124 101.809C339.31 105.034 336.791 111.079 335.481 121.76C334.171 132.541 335.582 139.392 335.582 139.392L332.659 139.997Z" fill="white"/>
<path d="M62.325 594.819C56.1792 594.819 48.2191 592.808 47.8157 592.808C47.1106 592.605 46.6066 591.998 46.7078 591.293C46.7078 590.588 47.2111 589.984 47.9168 589.882C48.0174 589.882 58.1939 587.868 60.8137 579.806C62.1233 575.877 61.6199 571.444 61.0154 566.708C60.3097 561.267 59.6046 555.625 61.9222 550.486C65.5494 542.324 70.3856 537.186 76.8344 534.566C82.1746 532.45 92.2505 533.458 92.6534 533.458C93.3584 533.559 93.963 534.163 93.963 534.868C94.0641 535.574 93.5601 536.279 92.8551 536.481C92.6533 536.581 90.2352 537.388 90.9403 541.821C91.0415 542.425 91.142 543.03 91.2426 543.635C91.646 546.053 92.0488 548.571 92.7539 548.975C93.1573 549.176 93.8624 549.075 94.8704 548.673C103.737 545.146 109.581 541.216 112.301 537.186C114.115 534.465 118.851 528.42 124.392 521.367C130.841 513.105 138.196 503.835 141.521 498.898C147.768 489.527 159.557 468.67 164.494 452.952C166.006 447.914 167.618 443.884 169.129 439.853C172.554 430.785 175.477 423.027 177.592 407.812C180.616 385.948 182.127 367.609 182.127 367.408L185.15 367.609C185.15 367.811 183.638 386.25 180.616 408.115C178.5 423.631 175.376 431.994 172.051 440.76C170.54 444.689 169.028 448.72 167.517 453.657C162.479 469.678 150.488 490.837 144.141 500.409C140.816 505.447 133.36 514.818 126.911 523.08C126.206 523.987 125.4 524.893 124.695 525.8C125.602 524.893 126.508 523.886 127.617 522.676C131.143 518.646 135.778 516.631 140.816 514.415C146.559 511.895 152.504 509.276 157.945 503.432C169.431 491.038 181.523 465.446 186.762 442.675C192.706 416.981 193.311 385.847 193.412 385.545L196.435 385.645C196.435 385.948 195.729 417.384 189.784 443.48C184.444 466.756 171.95 492.852 160.162 505.648C154.317 511.997 147.768 514.818 142.025 517.337C137.189 519.453 132.956 521.266 129.934 524.793C127.919 527.11 126.206 528.621 124.896 529.931C121.571 533.055 120.966 533.559 122.175 538.597C122.78 541.216 123.586 542.627 124.291 543.937C125.803 546.859 126.609 548.975 125.299 556.33C122.982 569.328 116.936 576.683 108.674 576.683C100.311 576.683 91.0415 573.559 91.0415 569.126C91.0415 567.816 91.7466 566.103 92.3511 564.491C92.5528 563.887 92.9556 563.081 93.1573 562.476C91.4443 563.182 90.0335 563.282 88.8245 563.484C86.4063 563.786 85.6001 563.887 85.0967 568.32C84.895 570.235 84.7944 571.847 84.6933 573.358C84.4922 578.195 84.391 582.124 78.2451 585.55C75.6253 587.061 73.7106 588.673 71.9981 590.185C69.076 592.605 66.6579 594.819 62.325 594.819ZM53.9621 590.89C56.582 591.293 59.6046 591.797 62.325 591.797C65.4488 591.797 67.363 590.185 69.9828 587.868C71.7964 586.356 73.8117 584.542 76.6327 582.93C81.2678 580.31 81.3684 577.892 81.5701 573.257C81.6706 571.746 81.6706 569.932 81.9729 568.018C82.7791 561.67 84.9955 560.965 88.4216 560.562C89.5301 560.461 90.638 560.26 92.0488 559.756C92.7539 559.454 94.5675 558.748 95.676 559.957C96.9862 561.267 96.18 563.282 95.172 565.701C94.6687 566.91 94.0641 568.421 94.0641 569.227C94.0641 570.537 100.21 573.761 108.674 573.761C118.044 573.761 121.37 561.267 122.277 555.826C123.486 549.075 122.78 547.665 121.571 545.348C120.866 543.937 119.959 542.324 119.253 539.302C118.649 536.783 118.448 535.07 118.75 533.659C117.037 535.876 115.727 537.69 114.921 538.798C111.797 543.534 105.651 547.665 96.0794 551.493C94.0641 552.3 92.5528 552.3 91.3437 551.595C89.3284 550.386 88.8245 547.564 88.3211 544.037C88.2199 543.433 88.1194 542.828 88.0182 542.224C87.6154 539.604 88.0182 537.589 88.8245 536.178C85.6001 536.078 80.8644 536.178 78.0434 537.287C72.3004 539.604 68.0681 544.139 64.7431 551.595C62.829 556.028 63.4335 560.965 64.0381 566.205C64.6426 571.041 65.2471 576.079 63.7358 580.713C61.9222 586.155 57.5893 589.278 53.9621 590.89Z" fill="white"/>
<path d="M95.6759 535.977L93.5601 533.862C93.7618 533.66 117.843 509.478 136.685 482.676C150.388 463.129 153.612 453.154 157.038 442.574C158.348 438.544 159.658 434.313 161.673 429.577C168.524 412.85 172.253 355.822 172.253 355.217L175.275 355.418C175.174 357.736 171.547 413.556 164.494 430.685C162.58 435.32 161.27 439.451 159.96 443.481C156.433 454.263 153.108 464.54 139.204 484.389C120.161 511.392 95.8776 535.675 95.6759 535.977Z" fill="white"/>
<path d="M101.621 529.73L99.303 527.816C99.9075 527.11 100.613 525.8 100.311 525.196C100.21 524.793 99.4041 524.491 98.3962 524.289C97.2883 524.087 96.0792 523.987 94.769 523.987C92.2503 523.785 89.731 523.684 87.5146 522.677C83.8874 521.064 82.4767 517.74 82.9806 512.5C83.8874 504.641 85.701 502.928 90.5373 498.293C91.6458 497.185 92.9554 495.976 94.4667 494.465C96.6838 492.247 98.6984 490.535 100.613 488.923C105.953 484.389 110.991 480.056 120.463 465.446C132.553 446.906 141.118 432.196 149.581 412.246C157.34 393.706 164.091 348.969 163.789 346.148C163.789 346.349 163.99 346.753 164.393 347.055L166.106 344.536C167.013 345.14 167.215 345.342 166.006 354.007C165.3 359.448 164.191 365.997 162.982 372.648C161.068 383.127 157.038 402.472 152.403 413.455C143.939 433.606 135.173 448.418 123.082 467.058C113.41 481.97 107.868 486.706 102.629 491.14C100.714 492.751 98.7996 494.363 96.6837 496.48C95.1724 497.991 93.8622 499.301 92.6531 500.308C87.9174 504.843 86.8089 505.85 86.0033 512.702C85.4993 517.639 87.2124 519.049 88.7237 519.755C90.4367 520.46 92.7537 520.662 94.9707 520.762C96.2803 520.863 97.6911 520.964 98.9002 521.166C101.218 521.568 102.629 522.475 103.233 523.987C104.14 526.707 101.822 529.427 101.621 529.73Z" fill="white"/>
<path d="M86.4061 535.977L85.0965 533.257L85.701 534.668L85.0965 533.257C85.3988 533.156 87.7163 531.846 87.0107 529.226C86.1039 525.499 84.1897 522.677 84.1897 522.677L86.7084 520.965C86.8089 521.065 88.9254 524.29 89.9328 528.521C91.0413 532.552 88.1191 535.171 86.4061 535.977Z" fill="white"/>
<path d="M125.803 555.121L123.788 552.804C123.888 552.703 130.236 547.262 132.655 544.037C134.569 541.418 136.08 539.403 136.987 538.093C137.189 537.387 137.793 536.481 138.599 535.07C143.939 526.102 145.249 517.135 145.753 513.81C145.753 513.508 145.854 513.206 145.854 513.004L148.877 513.508C148.877 513.71 148.776 514.012 148.776 514.314C148.272 517.84 146.962 527.211 141.219 536.783C140.715 537.589 140.413 538.093 140.211 538.496C140.211 538.798 140.111 539.201 139.809 539.605C138.801 540.914 137.189 543.03 135.073 546.053C132.554 549.378 126.105 554.919 125.803 555.121Z" fill="white"/>
<path d="M94.1376 570.317L82.5154 574.319L83.4994 577.177L95.1216 573.175L94.1376 570.317Z" fill="white"/>
<path d="M427.675 591.798C423.443 591.798 420.924 589.682 418.002 587.163C416.289 585.651 414.375 584.04 411.755 582.528C405.71 579.002 405.508 575.173 405.307 570.336C405.206 568.824 405.206 567.213 404.903 565.298C404.299 560.865 403.493 560.764 401.176 560.462C399.967 560.361 398.556 560.159 396.843 559.454C397.045 560.059 397.347 560.865 397.649 561.47C398.254 563.081 398.959 564.694 398.959 566.104C398.959 570.537 389.689 573.661 381.326 573.661C373.164 573.661 367.119 566.205 364.701 553.308C363.391 545.852 364.197 543.836 365.708 540.915C366.414 539.605 367.119 538.194 367.825 535.575C369.034 530.637 368.429 530.033 365.104 526.909C363.794 525.7 362.081 524.088 360.066 521.77C357.043 518.345 352.811 516.43 347.975 514.314C342.232 511.796 335.683 508.974 329.839 502.626C318.05 489.83 305.657 463.734 300.215 440.458C294.17 414.362 293.565 383.026 293.565 382.623L296.588 382.522C296.588 382.825 297.294 413.959 303.239 439.652C308.478 462.424 320.669 488.017 332.055 500.41C337.496 506.254 343.441 508.873 349.184 511.392C354.122 513.609 358.857 515.624 362.383 519.654C363.492 520.864 364.399 521.872 365.305 522.778C364.6 521.872 363.895 520.965 363.089 520.058C356.54 511.796 349.184 502.425 345.859 497.387C339.511 487.815 327.521 466.757 322.483 450.635C320.972 445.698 319.46 441.668 317.949 437.738C314.624 428.871 311.5 420.609 309.384 405.092C306.362 383.127 304.85 364.688 304.85 364.587L307.873 364.386C307.873 364.587 309.384 382.926 312.407 404.79C314.523 420.004 317.445 427.763 320.871 436.831C322.382 440.761 323.894 444.892 325.506 449.93C330.443 465.648 342.232 486.505 348.479 495.875C351.804 500.813 359.159 510.183 365.608 518.345C371.15 525.297 375.885 531.343 377.699 534.164C380.419 538.295 386.263 542.124 395.13 545.651C396.138 546.053 396.943 546.154 397.246 545.953C398.052 545.549 398.455 543.031 398.758 540.613C398.858 540.008 398.959 539.404 399.059 538.799C399.765 534.366 397.447 533.559 397.145 533.459C396.44 533.257 395.936 532.552 396.037 531.846C396.138 531.141 396.641 530.537 397.347 530.436C397.75 530.436 407.826 529.428 413.166 531.544C419.614 534.164 424.451 539.302 428.078 547.464C430.395 552.603 429.69 558.245 428.985 563.686C428.38 568.422 427.876 572.855 429.186 576.785C431.907 584.946 441.983 586.86 442.083 586.86C442.788 586.961 443.292 587.566 443.292 588.271C443.292 588.976 442.89 589.581 442.184 589.783C441.882 589.783 433.821 591.798 427.675 591.798ZM396.037 556.129C396.843 556.129 397.649 556.432 398.052 556.633C399.362 557.137 400.47 557.338 401.679 557.439C405.004 557.842 407.322 558.547 408.128 564.895C408.329 566.91 408.43 568.623 408.531 570.135C408.732 574.87 408.833 577.188 413.468 579.807C416.289 581.42 418.304 583.233 420.118 584.745C422.738 587.062 424.652 588.674 427.776 588.674C430.395 588.674 433.519 588.271 436.139 587.767C432.511 586.054 428.178 582.931 426.365 577.49C424.854 572.855 425.458 567.918 426.063 562.981C426.768 557.741 427.373 552.703 425.358 548.371C422.033 540.915 417.801 536.38 412.057 534.063C409.236 532.955 404.501 532.854 401.276 532.955C402.082 534.366 402.485 536.28 402.082 539C401.981 539.605 401.881 540.209 401.78 540.814C401.276 544.34 400.772 547.162 398.758 548.371C397.548 549.076 395.936 549.076 394.022 548.27C384.449 544.441 378.303 540.31 375.18 535.575C374.374 534.466 373.064 532.653 371.351 530.436C371.552 531.846 371.452 533.66 370.847 536.078C370.142 539 369.235 540.713 368.53 542.124C367.321 544.441 366.615 545.852 367.825 552.603C368.832 557.943 372.056 570.537 381.427 570.537C389.891 570.537 396.037 567.313 396.037 566.004C396.037 565.197 395.432 563.686 394.929 562.477C394.022 560.059 393.115 557.943 394.425 556.734C394.827 556.33 395.432 556.129 396.037 556.129Z" fill="white"/>
<path d="M394.425 532.955C394.223 532.753 369.941 508.369 350.897 481.366C336.892 461.517 333.566 451.239 330.141 440.458C328.831 436.428 327.521 432.297 325.607 427.662C318.554 410.533 314.926 354.713 314.825 352.395L317.848 352.194C317.848 352.798 321.576 409.828 328.428 426.553C330.443 431.39 331.753 435.521 333.063 439.552C336.488 450.131 339.713 460.106 353.416 479.654C372.257 506.455 396.339 530.637 396.54 530.839L394.425 532.955Z" fill="white"/>
<path d="M388.48 526.707C388.178 526.405 385.961 523.684 386.969 521.064C387.573 519.553 388.984 518.546 391.301 518.244C392.51 518.042 393.921 517.941 395.231 517.841C397.447 517.74 399.765 517.538 401.478 516.833C402.989 516.128 404.702 514.717 404.198 509.78C403.493 503.029 402.284 501.921 397.548 497.387C396.44 496.278 395.13 495.069 393.518 493.558C391.402 491.442 389.487 489.829 387.573 488.217C382.333 483.684 376.792 479.048 367.119 464.136C354.927 445.395 346.262 430.685 337.799 410.533C333.163 399.55 329.234 380.204 327.219 369.726C326.01 363.176 324.901 356.527 324.196 351.085C322.987 342.319 323.289 342.218 324.096 341.614L325.808 344.133C326.211 343.831 326.413 343.428 326.413 343.226C326.11 346.047 332.761 390.784 340.62 409.324C348.982 429.274 357.648 443.884 369.739 462.524C379.21 477.134 384.248 481.366 389.588 486.001C391.503 487.613 393.518 489.326 395.734 491.542C397.246 493.054 398.556 494.263 399.664 495.371C404.501 500.006 406.314 501.719 407.221 509.578C407.826 514.817 406.314 518.143 402.687 519.755C400.47 520.762 397.951 520.863 395.432 521.064C394.122 521.166 392.913 521.266 391.805 521.367C390.696 521.568 389.991 521.871 389.891 522.274C389.689 522.979 390.495 524.289 390.898 524.893L388.48 526.707Z" fill="white"/>
<path d="M364.197 552.099C363.895 551.897 357.446 546.355 354.927 542.728C352.811 539.806 351.199 537.589 350.191 536.279C349.889 535.876 349.789 535.473 349.789 535.171C349.587 534.869 349.285 534.264 348.781 533.458C343.038 523.987 341.728 514.515 341.224 510.989C341.224 510.687 341.124 510.485 341.124 510.284L344.146 509.78C344.146 509.981 344.247 510.284 344.247 510.586C344.751 513.911 345.96 522.878 351.401 531.846C352.207 533.256 352.811 534.163 353.013 534.869C354.02 536.178 355.532 538.194 357.345 540.814C359.764 544.038 366.112 549.579 366.212 549.579L364.197 552.099Z" fill="white"/>
<path d="M240.969 591.797L248.023 584.745L257.091 593.813C257.091 593.813 260.114 598.853 259.106 598.853C258.099 598.853 251.045 599.858 250.038 600.864C249.03 601.876 241.977 600.864 241.977 600.864L240.969 591.797Z" fill="white"/>
<path d="M247.317 602.881C246.007 602.881 244.194 602.777 241.776 602.378L240.566 602.176L239.357 591.193L248.023 582.527L258.401 592.906C261.423 597.945 260.919 598.853 260.617 599.356C260.315 599.858 259.71 600.263 259.106 600.263C258.099 600.263 251.952 601.269 251.045 601.876C250.844 602.274 250.24 602.881 247.317 602.881ZM243.388 599.558C246.007 599.858 248.426 599.956 249.131 599.754C250.542 598.651 254.874 597.945 257.393 597.639C256.99 596.836 256.487 595.83 255.882 594.923L248.023 587.061L242.582 592.501L243.388 599.558ZM259.106 597.338H259.005C259.106 597.338 259.106 597.338 259.106 597.338Z" fill="white"/>
<path d="M231.901 598.853L238.955 590.789C238.955 590.789 243.993 593.813 245 595.83C246.007 597.841 246.007 597.841 246.007 597.841L245 607.921L235.932 609.932C235.932 609.932 232.909 602.881 231.901 602.881C230.894 602.881 231.801 597.24 231.801 597.24" fill="white"/>
<path d="M235.025 611.747L234.521 610.637C233.413 608.117 232.002 605.199 231.297 604.389C230.995 604.291 230.692 604.089 230.491 603.887C230.188 603.488 229.383 602.581 230.289 597.136L231.297 597.338L238.652 588.976L239.76 589.58C240.667 590.084 245.202 592.906 246.411 595.223L247.62 597.639L246.411 609.227L235.025 611.747ZM232.909 601.673C233.715 602.274 234.823 603.788 236.738 608.221L243.489 606.707L244.295 598.148L243.489 596.535C242.985 595.628 240.869 594.015 239.055 592.808L232.808 599.858C232.909 600.662 232.909 601.269 232.909 601.673Z" fill="white"/>
<path d="M268.175 599.858L259.106 591.797L251.045 598.853H252.053C252.053 598.853 250.038 602.881 252.053 603.887C254.068 604.898 259.106 605.603 260.617 605.297C262.129 604.898 267.167 600.864 267.167 600.864L268.175 599.858Z" fill="white"/>
<path d="M259.509 606.909C257.091 606.909 253.262 606.204 251.449 605.297C249.635 604.389 249.434 602.378 249.937 600.465H247.116L259.207 589.883L270.492 599.858L268.275 602.072C266.663 603.384 262.834 606.406 261.121 606.707C260.617 606.811 260.114 606.909 259.509 606.909ZM254.068 598.246L253.464 599.558C252.859 600.766 252.557 602.274 252.758 602.581C254.572 603.488 259.207 604.089 260.315 603.788C261.021 603.586 263.741 601.673 265.958 599.858L259.106 593.813L254.068 598.246Z" fill="white"/>
<path d="M276.235 643.181C281.273 643.181 284.296 641.17 288.326 636.13C292.356 631.09 294.372 628.068 293.364 617.994C292.457 608.522 287.319 600.864 281.273 595.83C275.228 590.79 273.213 588.775 273.213 588.775C273.213 588.775 262.129 599.858 260.114 603.887C258.099 607.921 256.587 612.955 256.083 619C255.076 631.091 263.137 640.158 267.167 642.176C271.197 644.193 274.422 643.181 276.235 643.181Z" fill="white"/>
<path d="M272.507 644.996C270.794 644.996 268.779 644.695 266.461 643.586C261.826 641.268 253.463 631.599 254.572 618.902C255.076 613.059 256.486 607.817 258.804 603.286C260.919 599.049 271.701 588.271 272.204 587.767L273.313 586.659L274.421 587.767C274.421 587.767 276.537 589.783 282.381 594.721C289.636 600.766 294.069 609.025 294.976 617.896C296.085 628.473 293.767 631.998 289.636 637.136C285.807 641.973 282.381 644.794 276.336 644.794C276.033 644.794 275.63 644.794 275.126 644.898C274.32 644.898 273.515 644.996 272.507 644.996ZM273.212 590.89C269.686 594.518 262.834 601.771 261.423 604.592C259.308 608.828 257.998 613.764 257.594 619.202C256.688 630.287 263.942 638.951 267.872 640.87C270.592 642.28 272.91 641.973 274.724 641.771C275.227 641.673 275.731 641.673 276.235 641.673C280.567 641.673 283.187 640.06 287.117 635.223C291.047 630.287 292.759 627.669 291.852 618.197C290.744 607.216 284.094 600.263 280.265 597.038C276.638 593.911 274.421 591.999 273.212 590.89Z" fill="white"/>
<path d="M226.863 645.198C221.825 645.198 216.787 643.181 212.757 638.147C208.727 633.108 208.223 633.01 205.704 623.034C203.689 614.972 207.618 605.799 212.757 599.858C218.803 592.808 222.833 589.782 222.833 589.782C222.833 589.782 238.148 601.876 240.164 605.904C242.178 609.932 243.69 614.972 244.194 621.017C245.202 633.108 237.14 642.176 233.11 644.193C229.08 646.204 228.677 645.198 226.863 645.198Z" fill="white"/>
<path d="M229.181 647.013C228.677 647.013 228.274 646.915 227.77 646.915C227.468 646.811 227.166 646.811 226.863 646.811C220.818 646.811 215.578 644.193 211.548 639.153L210.742 638.147C207.216 633.715 206.51 632.703 204.193 623.433C201.875 614.365 206.712 604.494 211.548 598.951C217.594 591.898 221.725 588.774 221.825 588.674L222.732 587.968L223.639 588.674C225.252 589.883 239.257 601.066 241.373 605.297C243.69 609.932 245.101 615.174 245.605 620.919C246.612 633.61 238.35 643.181 233.715 645.603C231.499 646.713 230.289 647.013 229.181 647.013ZM222.833 591.797C221.321 593.108 218.098 596.026 213.865 600.968C209.533 606.002 205.1 614.769 207.115 622.832C209.331 631.697 209.835 632.304 213.06 636.333L213.865 637.338C217.292 641.575 221.725 643.788 226.763 643.788C227.367 643.788 227.871 643.892 228.173 643.99C229.08 644.193 229.684 644.291 232.304 642.985C236.234 641.066 243.489 632.403 242.582 621.317C242.178 615.879 240.869 611.042 238.753 606.707C237.443 603.991 228.879 596.535 222.833 591.797Z" fill="white"/>
<path d="M252.053 649.233C257.091 649.233 260.114 647.215 264.144 642.176C268.175 637.142 270.19 634.113 269.182 624.04C268.275 614.567 263.137 606.909 257.091 601.876C251.045 596.836 249.031 594.819 249.031 594.819C249.031 594.819 237.947 605.904 235.932 609.932C233.917 613.966 232.405 619 231.902 625.045C230.894 637.142 238.955 646.21 242.985 648.221C247.015 650.238 250.24 649.233 252.053 649.233Z" fill="white"/>
<path d="M248.325 651.041C246.612 651.041 244.597 650.741 242.28 649.631C237.645 647.313 229.282 637.645 230.39 624.947C230.894 619.104 232.304 613.862 234.622 609.331C236.738 605.101 247.519 594.316 248.023 593.813L249.131 592.703L250.239 593.813C250.239 593.813 252.356 595.83 258.199 600.766C265.454 606.811 269.888 615.076 270.794 623.942C271.902 634.518 269.585 638.043 265.454 643.187C261.625 648.019 258.199 650.845 252.154 650.845C251.852 650.845 251.449 650.845 250.945 650.943C250.139 650.943 249.332 651.041 248.325 651.041ZM249.03 596.934C245.504 600.564 238.653 607.817 237.242 610.637C235.126 614.874 233.816 619.809 233.413 625.247C232.506 636.333 239.76 644.996 243.69 646.915C246.411 648.325 248.728 648.019 250.542 647.822C251.045 647.718 251.549 647.718 252.053 647.718C256.386 647.718 259.005 646.106 262.935 641.268C266.864 636.333 268.577 633.715 267.671 624.242C266.562 613.261 259.912 606.308 256.083 603.083C252.456 599.957 250.239 598.044 249.03 596.934Z" fill="white"/>
</g>
</g>
<defs>
<clipPath id="clip0_1111_1415">
<rect width="597" height="598" fill="white"/>
</clipPath>
</defs>
</svg>
